<svg width="238" height="168" viewBox="0 0 238 168" fill="none" xmlns="http://www.w3.org/2000/svg">
<path d="M25.2585 71.4396L29.7325 93.3814C36.7309 91.9549 43.8161 97.7291 45.5579 106.278C47.2998 114.827 43.0408 122.914 36.0413 124.341L40.5184 146.284C41.5385 151.286 45.6841 154.664 49.7806 153.829L99.7164 143.65L98.754 138.945C98.4883 137.646 99.3261 136.377 100.625 136.111C101.924 135.846 103.193 136.683 103.459 137.982L104.421 142.687L232.005 116.677C236.101 115.842 238.592 111.11 237.573 106.108L233.097 84.1684C226.099 85.5959 219.014 79.8228 217.272 71.2728C215.53 62.7227 219.789 54.6368 226.789 53.2103L222.308 31.2674C221.288 26.2642 217.142 22.8874 213.046 23.7225L85.4627 49.7319L86.4251 54.4368C86.6908 55.736 85.853 57.0047 84.5538 57.2704C83.2547 57.5361 81.9859 56.6983 81.7202 55.3992L80.7579 50.6943L30.8221 60.8739C26.731 61.7058 24.2384 66.4364 25.2585 71.4396ZM85.4841 61.8448C86.7823 61.5807 88.049 62.4182 88.3145 63.7161L90.2072 73.0018C90.4729 74.301 89.6351 75.5697 88.3359 75.8354C87.0367 76.1011 85.768 75.2633 85.5023 73.9642L83.6107 64.6752C83.3467 63.3764 84.1854 62.1094 85.4841 61.8448ZM96.841 117.555C98.1389 117.291 99.4054 118.128 99.6704 119.426L101.563 128.71C101.829 130.009 100.991 131.278 99.6918 131.543C98.3926 131.809 97.1239 130.971 96.8581 129.672L94.9655 120.389C94.6961 119.093 95.5292 117.823 96.8262 117.554C96.8311 117.552 96.836 117.551 96.841 117.551V117.555ZM95.9065 112.972C94.6083 113.236 93.3416 112.398 93.0761 111.101L91.1845 101.817C90.9188 100.518 91.7566 99.2491 93.0558 98.9834C94.3549 98.7177 95.6236 99.5555 95.8894 100.855L97.782 110.137C98.0465 111.436 97.2081 112.703 95.9096 112.967C95.9089 112.967 95.9083 112.967 95.9075 112.968L95.9065 112.972ZM89.2908 92.5324L87.3981 83.2477C87.1324 81.9485 87.9702 80.6798 89.2694 80.4141C90.5686 80.1484 91.8373 80.9862 92.103 82.2854L93.9957 91.57C94.2614 92.8692 93.4236 94.1379 92.1244 94.4036C90.8252 94.6693 89.5565 93.8316 89.2908 92.5324Z" fill="#F7F7F9"/>
<path d="M205.554 113.824L215.359 93.6929C217.595 89.1014 216.361 83.8982 212.602 82.0687L166.786 59.7537L164.685 64.0672C164.105 65.2581 162.669 65.7531 161.478 65.1729C160.288 64.5927 159.793 63.1569 160.373 61.9661L162.473 57.6525L45.4114 0.639113C41.6529 -1.19151 36.7962 1.04438 34.5603 5.6359L24.7549 25.7674C31.176 28.8951 33.2836 37.7894 29.4598 45.6337C25.636 53.478 17.3415 57.3007 10.9204 54.1731L1.11399 74.3078C-1.12083 78.8972 0.112062 84.1014 3.87061 85.932L120.929 142.945L123.029 138.632C123.633 137.452 125.078 136.985 126.258 137.589C127.405 138.176 127.884 139.564 127.343 140.733L125.242 145.047L171.058 167.362C174.817 169.191 179.675 166.954 181.909 162.364L191.716 142.23C185.294 139.104 183.186 130.21 187.011 122.365C190.836 114.519 199.132 110.698 205.554 113.824ZM142.835 103.452C144.027 104.033 144.521 105.469 143.941 106.66L139.793 115.177C139.213 116.368 137.778 116.864 136.587 116.284C135.395 115.704 134.9 114.268 135.48 113.077L139.628 104.559C140.208 103.368 141.644 102.872 142.835 103.452ZM143.777 96.04L147.926 87.521C148.506 86.3298 149.942 85.8344 151.133 86.4143C152.324 86.9942 152.82 88.4299 152.24 89.6211L148.091 98.1412C147.487 99.3209 146.042 99.788 144.862 99.1843C143.715 98.5973 143.236 97.2093 143.777 96.04ZM134.538 120.489C135.729 121.069 136.224 122.505 135.644 123.696C135.644 123.696 135.644 123.697 135.643 123.697L131.496 132.215C130.939 133.418 129.513 133.941 128.31 133.384C127.107 132.828 126.584 131.401 127.141 130.199C127.154 130.17 127.168 130.142 127.182 130.114L131.33 121.597C131.91 120.405 133.346 119.909 134.537 120.489C134.537 120.489 134.538 120.489 134.538 120.489ZM156.389 81.1042C155.785 82.284 154.339 82.751 153.16 82.1473C152.013 81.5604 151.534 80.1723 152.075 79.0031L156.224 70.484C156.781 69.2815 158.207 68.758 159.41 69.3148C160.612 69.8715 161.136 71.2978 160.579 72.5004C160.566 72.5289 160.552 72.5572 160.538 72.5852L156.389 81.1042Z" fill="#E4E4E4"/>
<path d="M186.165 80.0571L63.2942 20.2122C57.942 17.6076 51.4917 19.8346 48.8866 25.1865L25.3345 73.5323C22.7293 78.8827 24.9537 85.3321 30.3035 87.9388L153.175 147.783C158.526 150.389 164.976 148.165 167.583 142.815C167.584 142.813 167.585 142.811 167.586 142.808L191.134 94.4593C193.737 89.11 191.513 82.6632 186.165 80.0571ZM131.496 132.212C130.939 133.414 129.513 133.938 128.31 133.381C127.107 132.824 126.584 131.398 127.141 130.195C127.154 130.167 127.168 130.139 127.182 130.11L131.33 121.594C131.91 120.402 133.345 119.907 134.537 120.487C135.728 121.067 136.223 122.503 135.643 123.694L131.496 132.212ZM139.793 115.175C139.213 116.366 137.778 116.861 136.587 116.281C135.395 115.702 134.9 114.266 135.48 113.075L139.628 104.557C140.184 103.354 141.611 102.831 142.813 103.387C144.016 103.944 144.539 105.37 143.982 106.573C143.969 106.602 143.956 106.63 143.941 106.658L139.793 115.175ZM148.091 98.1387C147.487 99.3185 146.042 99.7856 144.862 99.1818C143.715 98.5949 143.236 97.2069 143.777 96.0376L147.926 87.5186C148.506 86.3274 149.942 85.832 151.133 86.4118C152.324 86.9917 152.82 88.4275 152.24 89.6186L148.091 98.1387ZM156.389 81.1018C155.785 82.2815 154.339 82.7486 153.16 82.1449C152.013 81.5579 151.534 80.1699 152.075 79.0006L156.224 70.4816C156.781 69.2791 158.207 68.7555 159.41 69.3123C160.612 69.8691 161.136 71.2953 160.579 72.4979C160.566 72.5265 160.552 72.5547 160.538 72.5827L156.389 81.1018Z" fill="#EBEBEB"/>
<path d="M96.8047 102.87C95.9671 103.069 95.3732 103.529 95.0233 104.25C94.8729 104.55 94.7857 104.877 94.7666 105.212C94.7486 105.527 94.7928 105.841 94.8971 106.138C95.0042 106.436 95.1688 106.709 95.3815 106.943C95.608 107.194 95.8816 107.397 96.1867 107.542C96.4923 107.695 96.8251 107.787 97.1661 107.812C97.8055 107.86 98.4375 107.65 98.9208 107.229C99.1709 107.013 99.3735 106.747 99.5154 106.448C99.8454 105.77 99.8536 105.022 99.5399 104.203L102.049 105.425L102.019 105.677C101.982 106.026 101.919 106.371 101.83 106.709C101.752 107.01 101.644 107.302 101.51 107.582C100.966 108.695 100.009 109.552 98.8428 109.968C98.2543 110.175 97.6322 110.269 97.0089 110.245C95.6739 110.182 94.423 109.575 93.5466 108.566C92.3255 107.116 92.0739 105.083 92.905 103.379C93.0613 103.058 93.2521 102.754 93.4739 102.473C93.7155 102.172 93.9836 101.892 94.2748 101.639L96.8047 102.87Z" fill="#525252"/>
<path d="M98.6878 102.436C98.1048 102.158 97.5848 101.763 97.1597 101.277C96.3255 100.325 95.915 99.0744 96.0231 97.8133C96.1561 96.4275 96.7853 95.1364 97.7949 94.1778C98.2611 93.7447 98.8089 93.4088 99.4063 93.1897C99.9883 92.9799 100.606 92.8883 101.224 92.9203C102.526 93.0022 103.742 93.5948 104.608 94.5691C105.017 95.0373 105.327 95.5827 105.521 96.1731C105.716 96.7785 105.789 97.4169 105.734 98.0507C105.602 99.4368 104.972 100.728 103.963 101.686C102.529 103.01 100.425 103.308 98.6803 102.435L98.6878 102.436ZM99.7677 100.219C100.075 100.373 100.411 100.46 100.755 100.473C101.08 100.485 101.405 100.434 101.711 100.323C102.016 100.212 102.297 100.042 102.537 99.8236C103.297 99.1386 103.59 98.074 103.286 97.0969C103.187 96.7835 103.028 96.4928 102.816 96.2415C102.362 95.7177 101.714 95.402 101.022 95.3679C100.694 95.3553 100.367 95.408 100.06 95.5229C99.1068 95.89 98.4501 96.7727 98.3723 97.7909C98.3236 98.4457 98.534 99.0936 98.9583 99.5948C99.1807 99.858 99.4566 100.071 99.7677 100.219Z" fill="#525252"/>
<path d="M100.694 87.963L105.127 90.123C105.364 90.2384 105.614 90.3478 105.876 90.4512C106.116 90.55 106.371 90.6065 106.63 90.618C106.877 90.6262 107.12 90.561 107.33 90.4309C107.551 90.2976 107.748 90.0542 107.92 89.7006C108.092 89.347 108.161 89.0444 108.127 88.7927C108.098 88.5481 108 88.3168 107.844 88.1255C107.675 87.9265 107.471 87.7601 107.242 87.6347C107.003 87.4957 106.763 87.3674 106.526 87.2519L102.092 85.093L103.12 82.9844L107.844 85.2855C109.113 85.9035 109.897 86.6449 110.197 87.5096C110.496 88.3743 110.353 89.4079 109.769 90.6105C109.182 91.8146 108.455 92.5663 107.586 92.8657C106.718 93.1651 105.649 93.0057 104.379 92.3877L99.6534 90.0866L100.694 87.963Z" fill="#525252"/>
<path d="M113.138 83.1227L112.106 85.242L103.954 81.2717L105.596 77.8981C106.043 76.9828 106.622 76.3976 107.334 76.1423C108.046 75.8871 108.835 75.9705 109.701 76.3925C110.565 76.8138 111.117 77.3841 111.357 78.1034C111.596 78.8227 111.492 79.6397 111.045 80.5542L110.435 81.8085L113.138 83.1227ZM108.726 80.9744L109.069 80.2709C109.448 79.4924 109.299 78.9385 108.621 78.6092C107.944 78.2798 107.416 78.5041 107.037 79.2818L106.695 79.9843L108.726 80.9744Z" fill="#525252"/>
<path d="M111.421 76.2931C109.654 75.4611 108.591 73.6177 108.756 71.6717C108.888 70.2855 109.517 68.994 110.528 68.0361C110.994 67.6037 111.542 67.2682 112.139 67.0491C112.721 66.8392 113.339 66.7477 113.957 66.7797C115.259 66.8603 116.476 67.4531 117.341 68.4285C117.749 68.897 118.06 69.4423 118.254 70.0324C118.449 70.6379 118.522 71.2762 118.467 71.9101C118.335 73.2961 117.706 74.5874 116.696 75.5457C115.262 76.8705 113.158 77.1687 111.413 76.2942L111.421 76.2931ZM112.501 74.0776C112.808 74.2305 113.145 74.3169 113.488 74.331C113.813 74.343 114.138 74.2917 114.444 74.1802C114.749 74.069 115.029 73.899 115.269 73.6798C116.029 72.9948 116.322 71.9302 116.018 70.9531C115.92 70.6396 115.76 70.3488 115.548 70.0977C115.095 69.5731 114.447 69.2569 113.754 69.223C113.426 69.2109 113.099 69.264 112.792 69.3791C112.486 69.4935 112.205 69.6652 111.964 69.8849C111.466 70.3429 111.16 70.9726 111.109 71.6471C111.084 71.9722 111.123 72.2991 111.223 72.6094C111.325 72.9187 111.485 73.2054 111.695 73.4542C111.916 73.7167 112.191 73.9291 112.501 74.0776Z" fill="#525252"/>
<path d="M120.547 67.9087L112.395 63.9384L113.427 61.8191L120.317 60.3328L115.333 57.9055L116.36 55.7969L124.512 59.7671L123.486 61.8758L116.595 63.3621L121.579 65.7904L120.547 67.9087Z" fill="#525252"/>
<path d="M53.1916 44.9715C53.8503 43.617 54.6957 42.515 55.7279 41.6652C56.726 40.8308 57.9038 40.2386 59.1689 39.9351C60.4962 39.6313 61.869 39.5805 63.2151 39.7854C64.6501 39.9864 66.1246 40.4555 67.6387 41.1926C68.9607 41.8218 70.1612 42.6798 71.1845 43.7268C72.1248 44.6814 72.8746 45.8064 73.3937 47.0416C73.8861 48.2337 74.1165 49.5177 74.0694 50.8066C74.0157 52.164 73.6734 53.4946 73.0654 54.7095C72.391 56.0931 71.5355 57.2191 70.4991 58.0874C69.4879 58.9391 68.3068 59.5657 67.0346 59.9255C65.7095 60.2866 64.3249 60.3743 62.9649 60.1832C61.4391 59.9724 59.9582 59.5133 58.5808 58.8241C55.5868 57.3656 53.6 55.3924 52.6206 52.9045C51.6411 50.4166 51.8314 47.7723 53.1916 44.9715ZM58.9882 47.9131C58.4543 49.008 58.3701 50.1621 58.7358 51.3754C59.1015 52.5888 59.8797 53.4855 61.0701 54.0658C61.6105 54.3319 62.2023 54.4779 62.8045 54.4935C63.9968 54.5389 65.1632 54.137 66.0744 53.3665C66.5379 52.9822 66.9139 52.5031 67.1768 51.9614C67.4524 51.4061 67.6059 50.7985 67.627 50.1789C67.6462 49.5826 67.55 48.9883 67.3436 48.4285C67.1382 47.8716 66.8314 47.3575 66.439 46.9122C66.058 46.4728 65.5931 46.1139 65.0714 45.8568C63.9764 45.3243 62.8262 45.253 61.6208 45.643C60.4607 45.9921 59.5037 46.8178 58.9882 47.9142V47.9131ZM88.0728 51.6224L92.7574 53.9043L53.9176 80.0442L49.1796 77.7356L88.0728 51.6224ZM69.0395 76.7101C69.6982 75.3556 70.5397 74.2618 71.5641 73.4285C72.564 72.6055 73.7319 72.0113 74.9858 71.6877C76.239 71.3626 77.5935 71.3045 79.0491 71.5134C80.596 71.752 82.0961 72.2308 83.4952 72.9323C84.9452 73.638 86.1596 74.4981 87.1383 75.5125C88.0776 76.4659 88.8163 77.5977 89.3111 78.8412C90.2799 81.3191 90.156 84.0911 88.97 86.4727C88.3113 87.8272 87.4701 88.941 86.4465 89.8143C85.4494 90.6758 84.2751 91.3073 83.0066 91.6641C81.678 92.0264 80.291 92.1227 78.9251 91.9475C77.4737 91.7778 75.9913 91.3248 74.4779 90.5884C72.9966 89.867 71.7544 89.003 70.7514 87.9965C69.788 87.0508 69.0282 85.918 68.5188 84.6678C68.0315 83.4461 67.8247 82.1306 67.9135 80.8183C67.9919 79.4653 68.368 78.0962 69.0416 76.7112L69.0395 76.7101ZM74.8842 79.6763C74.3197 80.8354 74.2359 82.0095 74.633 83.1986C75.03 84.3876 75.8081 85.2644 76.9672 85.829C79.2357 86.9263 81.9646 85.9863 83.0761 83.7247C83.3522 83.1696 83.5056 82.5617 83.5262 81.9421C83.5458 81.3456 83.4499 80.7508 83.2439 80.1906C83.0382 79.6342 82.7315 79.1206 82.3393 78.6755C81.958 78.236 81.4927 77.8771 80.9706 77.6201C79.9091 77.1025 78.7714 77.0263 77.5575 77.3912C76.3435 77.7562 75.4531 78.5183 74.8864 79.6774L74.8842 79.6763Z" fill="#525252"/>
</svg>
