<svg width="248" height="216" viewBox="0 0 248 216" fill="none" xmlns="http://www.w3.org/2000/svg">
<path d="M26.8416 166.467C26.9311 166.168 27.2455 165.999 27.5439 166.089C28.0652 166.245 28.5955 166.688 29.0917 167.242C29.6052 167.814 30.1458 168.578 30.6754 169.485C31.7354 171.301 32.7785 173.736 33.4858 176.472C34.8965 181.931 34.9983 188.713 31.0571 194.171C30.0479 195.569 28.9566 196.588 27.8154 197.287C27.9513 197.997 28.0097 198.699 27.9967 199.392C27.9489 201.939 26.9448 204.297 25.4568 206.384C22.4911 210.543 17.5225 213.741 13.8677 215.42C13.5846 215.55 13.2497 215.426 13.1196 215.143C12.9897 214.86 13.1137 214.525 13.3967 214.395C16.9579 212.759 21.7309 209.665 24.538 205.729C25.9362 203.768 26.8262 201.627 26.8686 199.371C26.878 198.868 26.8448 198.356 26.765 197.836C25.9955 198.171 25.2083 198.375 24.4118 198.461C22.0616 198.716 19.7183 197.948 17.6288 196.743C15.5357 195.536 13.6527 193.865 12.2014 192.241C10.7601 190.628 9.69979 189.009 9.29847 187.885C8.88677 186.733 8.93524 185.484 9.48025 184.486C10.0364 183.468 11.0794 182.77 12.5104 182.707C13.9166 182.645 15.662 183.193 17.7103 184.551C19.7643 185.913 22.1631 188.115 24.8916 191.434C26.1945 193.019 27.049 194.591 27.5263 196.132C28.4261 195.525 29.3053 194.669 30.1422 193.51C33.8068 188.435 33.7623 182.049 32.394 176.755C31.7118 174.115 30.7069 171.777 29.701 170.054C29.1976 169.192 28.7004 168.495 28.2517 167.995C27.7859 167.475 27.4295 167.232 27.2194 167.169C26.9212 167.079 26.7521 166.765 26.8416 166.467ZM12.56 183.834C11.5045 183.88 10.8286 184.371 10.4707 185.027C10.1017 185.702 10.0408 186.611 10.3605 187.506C10.6904 188.43 11.6414 189.921 13.0431 191.489C14.4347 193.047 16.2266 194.632 18.1923 195.766C20.1616 196.901 22.2615 197.56 24.2901 197.34C25.0348 197.259 25.7816 197.057 26.5199 196.708C26.1074 195.244 25.3103 193.719 24.0202 192.15C21.3369 188.886 19.0186 186.772 17.0868 185.492C15.1494 184.207 13.6404 183.786 12.56 183.834ZM245.953 75.1754C246.043 74.877 246.357 74.7075 246.656 74.7969C246.954 74.8864 247.124 75.2009 247.034 75.4992C246.284 77.9995 244.588 81.5135 241.903 83.9071C240.554 85.1097 238.941 86.0418 237.064 86.4028C235.182 86.7647 233.075 86.5449 230.759 85.5083C227.946 84.2496 225.666 82.859 223.666 81.6949C221.649 80.521 219.942 79.5946 218.205 79.1777C214.836 78.369 211.153 79.4405 204.752 85.4058C199.463 90.3358 194.327 90.9066 190.058 89.531C185.84 88.172 182.545 84.9412 180.793 82.3862C180.616 82.1293 180.682 81.7781 180.939 81.6018C181.195 81.4257 181.546 81.4911 181.722 81.7478C183.382 84.1671 186.494 87.1975 190.404 88.4574C194.262 89.7006 198.976 89.2477 203.983 84.5807C210.455 78.5494 214.524 77.1335 218.468 78.0804C220.388 78.5412 222.228 79.5531 224.233 80.72C226.255 81.8967 228.474 83.2499 231.219 84.4783C233.349 85.4312 235.221 85.6086 236.851 85.2951C238.486 84.9807 239.92 84.1644 241.152 83.0654C243.631 80.8554 245.241 77.5518 245.953 75.1754ZM33.3519 3.69848C34.3149 3.38781 35.1558 3.30616 35.867 3.48146C36.5993 3.662 37.1389 4.10182 37.4975 4.71366C37.846 5.30818 38.0162 6.04997 38.0726 6.85527C38.1293 7.66549 38.0733 8.57809 37.9377 9.54385C37.8412 10.2309 37.7024 10.9533 37.5322 11.6959C42.2877 12.5254 49.3674 11.0846 57.1277 3.82352C57.3552 3.61068 57.7125 3.6225 57.9254 3.84996C58.1381 4.07744 58.1258 4.43421 57.8984 4.64701C49.8978 12.1328 42.4309 13.7279 37.2612 12.7948C36.4415 15.9141 35.1542 19.2479 34.0394 21.7298C33.9117 22.0138 33.5782 22.1404 33.2941 22.0129C33.01 21.8853 32.8829 21.5518 33.0104 21.2676C34.1117 18.8157 35.3628 15.563 36.1584 12.5497C35.8004 12.4542 35.4556 12.3462 35.1251 12.2269C32.6049 11.3172 30.8286 9.71678 30.3532 8.00705C30.1098 7.13179 30.2151 6.23674 30.7398 5.45672C31.2562 4.68936 32.14 4.08947 33.3519 3.69848ZM35.5971 4.5765C35.163 4.46951 34.549 4.49763 33.6984 4.77205C32.6431 5.11249 32.0084 5.5919 31.6757 6.08632C31.3517 6.56794 31.2766 7.1177 31.44 7.70519C31.7782 8.9213 33.1653 10.3202 35.5085 11.166C35.8021 11.272 36.1098 11.3687 36.4306 11.4547C36.5948 10.7387 36.7282 10.0444 36.8206 9.38687C36.9494 8.46933 36.9967 7.64035 36.9472 6.93404C36.8974 6.22284 36.7518 5.6727 36.5242 5.28431C36.3067 4.91331 36.0101 4.67833 35.5971 4.5765Z" fill="#E4E4E4"/>
<path d="M103.786 0L102.11 4.94048L97.5814 6.76855L102.11 8.59663L103.786 13.5371L105.462 8.59663L109.991 6.76855L105.462 4.94048L103.786 0Z" fill="url(#paint0_radial_11203_61576)"/>
<path d="M204.471 128.607L202.566 134.166L197.42 136.222L202.566 138.279L204.471 143.837L206.375 138.279L211.521 136.222L206.375 134.166L204.471 128.607Z" fill="#E4E4E4"/>
<path d="M160.082 158.471L146.508 172.044L187.654 213.189C191.403 216.937 197.48 216.937 201.228 213.189C204.977 209.441 204.977 203.364 201.228 199.616L160.082 158.471Z" fill="#B7B7B7"/>
<path d="M145.659 139.811L127.843 157.626L147.364 177.146C149.567 179.348 153.138 179.348 155.341 177.146L165.18 167.307C167.383 165.105 167.383 161.533 165.18 159.33L145.659 139.811Z" fill="#E4E4E4"/>
<path d="M100.485 177.977C62.7161 177.977 32.0979 147.36 32.0979 109.591C32.0979 71.8226 62.7161 41.2051 100.485 41.2051C138.255 41.2051 168.873 71.8226 168.873 109.591C168.873 147.36 138.255 177.977 100.485 177.977Z" fill="#EBEBEB"/>
<path d="M100.735 162.547C71.5794 162.547 47.9445 138.912 47.9445 109.758C47.9445 80.6032 71.5794 56.9688 100.735 56.9688C129.89 56.9688 153.525 80.6032 153.525 109.758C153.525 138.912 129.89 162.547 100.735 162.547Z" fill="#F7F7F9"/>
<path d="M162.614 162.039C162.834 161.819 163.191 161.819 163.411 162.039L197.819 196.446C198.039 196.667 198.039 197.024 197.819 197.244C197.599 197.465 197.242 197.464 197.021 197.244L162.614 162.838C162.394 162.617 162.394 162.26 162.614 162.039ZM69.0276 74.8371C69.2478 74.6168 69.6049 74.6168 69.8252 74.8371C70.0454 75.0573 70.0454 75.4144 69.8252 75.6347C51.0688 94.3906 51.0688 124.801 69.8252 143.556C70.0454 143.777 70.0454 144.134 69.8252 144.354C69.6049 144.574 69.2478 144.574 69.0276 144.354C49.8307 125.158 49.8307 94.0335 69.0276 74.8371Z" fill="#E4E4E4"/>
<path d="M5.64067 109.424C2.52546 109.424 8.39233e-05 106.898 8.39233e-05 103.783C8.39233e-05 100.668 2.52546 98.1426 5.64067 98.1426C8.75588 98.1426 11.2812 100.668 11.2812 103.783C11.2812 106.898 8.75588 109.424 5.64067 109.424Z" fill="url(#paint1_linear_11203_61576)"/>
<defs>
<radialGradient id="paint0_radial_11203_61576" cx="0" cy="0" r="1" gradientUnits="userSpaceOnUse" gradientTransform="translate(103.786 6.76833) rotate(90) scale(6.76855 6.20464)">
<stop stop-color="#B6B6B6"/>
<stop offset="1" stop-color="#B6B6B6" stop-opacity="0"/>
</radialGradient>
<linearGradient id="paint1_linear_11203_61576" x1="5.64067" y1="98.1426" x2="5.64067" y2="109.424" gradientUnits="userSpaceOnUse">
<stop stop-color="#B6B6B6"/>
<stop offset="1" stop-color="#B6B6B6" stop-opacity="0"/>
</linearGradient>
</defs>
</svg>
