<svg width="15" height="17" viewBox="0 0 15 17" fill="none" xmlns="http://www.w3.org/2000/svg">
<path d="M13.75 1.25H11.875V0.625C11.875 0.45924 11.8092 0.300268 11.6919 0.183058C11.5747 0.065848 11.4158 0 11.25 0C11.0842 0 10.9253 0.065848 10.8081 0.183058C10.6908 0.300268 10.625 0.45924 10.625 0.625V1.25H4.375V0.625C4.375 0.45924 4.30915 0.300268 4.19194 0.183058C4.07473 0.065848 3.91576 0 3.75 0C3.58424 0 3.42527 0.065848 3.30806 0.183058C3.19085 0.300268 3.125 0.45924 3.125 0.625V1.25H1.25C0.918479 1.25 0.600537 1.3817 0.366116 1.61612C0.131696 1.85054 0 2.16848 0 2.5V15C0 15.3315 0.131696 15.6495 0.366116 15.8839C0.600537 16.1183 0.918479 16.25 1.25 16.25H13.75C14.0815 16.25 14.3995 16.1183 14.6339 15.8839C14.8683 15.6495 15 15.3315 15 15V2.5C15 2.16848 14.8683 1.85054 14.6339 1.61612C14.3995 1.3817 14.0815 1.25 13.75 1.25ZM4.0625 13.125C3.87708 13.125 3.69582 13.07 3.54165 12.967C3.38748 12.864 3.26732 12.7176 3.19636 12.5463C3.12541 12.375 3.10684 12.1865 3.14301 12.0046C3.17919 11.8227 3.26848 11.6557 3.39959 11.5246C3.5307 11.3935 3.69775 11.3042 3.8796 11.268C4.06146 11.2318 4.24996 11.2504 4.42127 11.3214C4.59257 11.3923 4.73899 11.5125 4.842 11.6667C4.94502 11.8208 5 12.0021 5 12.1875C5 12.4361 4.90123 12.6746 4.72541 12.8504C4.5496 13.0262 4.31114 13.125 4.0625 13.125ZM7.5 13.125C7.31458 13.125 7.13332 13.07 6.97915 12.967C6.82498 12.864 6.70482 12.7176 6.63386 12.5463C6.56291 12.375 6.54434 12.1865 6.58051 12.0046C6.61669 11.8227 6.70598 11.6557 6.83709 11.5246C6.9682 11.3935 7.13525 11.3042 7.3171 11.268C7.49896 11.2318 7.68746 11.2504 7.85877 11.3214C8.03007 11.3923 8.17649 11.5125 8.2795 11.6667C8.38252 11.8208 8.4375 12.0021 8.4375 12.1875C8.4375 12.4361 8.33873 12.6746 8.16291 12.8504C7.9871 13.0262 7.74864 13.125 7.5 13.125ZM7.5 10C7.31458 10 7.13332 9.94502 6.97915 9.842C6.82498 9.73899 6.70482 9.59257 6.63386 9.42127C6.56291 9.24996 6.54434 9.06146 6.58051 8.8796C6.61669 8.69775 6.70598 8.5307 6.83709 8.39959C6.9682 8.26848 7.13525 8.17919 7.3171 8.14301C7.49896 8.10684 7.68746 8.12541 7.85877 8.19636C8.03007 8.26732 8.17649 8.38748 8.2795 8.54165C8.38252 8.69582 8.4375 8.87708 8.4375 9.0625C8.4375 9.31114 8.33873 9.5496 8.16291 9.72541C7.9871 9.90123 7.74864 10 7.5 10ZM10.9375 13.125C10.7521 13.125 10.5708 13.07 10.4167 12.967C10.2625 12.864 10.1423 12.7176 10.0714 12.5463C10.0004 12.375 9.98184 12.1865 10.018 12.0046C10.0542 11.8227 10.1435 11.6557 10.2746 11.5246C10.4057 11.3935 10.5727 11.3042 10.7546 11.268C10.9365 11.2318 11.125 11.2504 11.2963 11.3214C11.4676 11.3923 11.614 11.5125 11.717 11.6667C11.82 11.8208 11.875 12.0021 11.875 12.1875C11.875 12.4361 11.7762 12.6746 11.6004 12.8504C11.4246 13.0262 11.1861 13.125 10.9375 13.125ZM10.9375 10C10.7521 10 10.5708 9.94502 10.4167 9.842C10.2625 9.73899 10.1423 9.59257 10.0714 9.42127C10.0004 9.24996 9.98184 9.06146 10.018 8.8796C10.0542 8.69775 10.1435 8.5307 10.2746 8.39959C10.4057 8.26848 10.5727 8.17919 10.7546 8.14301C10.9365 8.10684 11.125 8.12541 11.2963 8.19636C11.4676 8.26732 11.614 8.38748 11.717 8.54165C11.82 8.69582 11.875 8.87708 11.875 9.0625C11.875 9.31114 11.7762 9.5496 11.6004 9.72541C11.4246 9.90123 11.1861 10 10.9375 10ZM13.75 5H1.25V2.5H3.125V3.125C3.125 3.29076 3.19085 3.44973 3.30806 3.56694C3.42527 3.68415 3.58424 3.75 3.75 3.75C3.91576 3.75 4.07473 3.68415 4.19194 3.56694C4.30915 3.44973 4.375 3.29076 4.375 3.125V2.5H10.625V3.125C10.625 3.29076 10.6908 3.44973 10.8081 3.56694C10.9253 3.68415 11.0842 3.75 11.25 3.75C11.4158 3.75 11.5747 3.68415 11.6919 3.56694C11.8092 3.44973 11.875 3.29076 11.875 3.125V2.5H13.75V5Z" fill="#DC8622"/>
</svg>
