<svg width="18" height="16" viewBox="0 0 18 16" fill="none" xmlns="http://www.w3.org/2000/svg">
<path d="M17.4944 14.2281L16.3803 4.85313C16.3442 4.54767 16.1967 4.26626 15.9661 4.06274C15.7354 3.85922 15.4379 3.74787 15.1303 3.75H12.503C12.503 2.75544 12.1079 1.80161 11.4046 1.09835C10.7013 0.395088 9.74752 0 8.75295 0C7.75839 0 6.80457 0.395088 6.1013 1.09835C5.39804 1.80161 5.00295 2.75544 5.00295 3.75H2.37249C2.06491 3.74787 1.76735 3.85922 1.53673 4.06274C1.3061 4.26626 1.15862 4.54767 1.12249 4.85313L0.00842284 14.2281C-0.011993 14.4031 0.00480623 14.5804 0.057719 14.7484C0.110632 14.9165 0.198463 15.0714 0.315454 15.2031C0.433291 15.3354 0.577689 15.4413 0.739227 15.514C0.900765 15.5867 1.07581 15.6245 1.25295 15.625H16.2467C16.4249 15.6254 16.6012 15.588 16.7638 15.5153C16.9265 15.4426 17.0719 15.3362 17.1905 15.2031C17.3069 15.0712 17.3942 14.9161 17.4465 14.7481C17.4989 14.5801 17.5152 14.4029 17.4944 14.2281ZM6.25295 6.875C6.25295 7.04076 6.18711 7.19973 6.0699 7.31694C5.95269 7.43415 5.79371 7.5 5.62795 7.5C5.46219 7.5 5.30322 7.43415 5.18601 7.31694C5.0688 7.19973 5.00295 7.04076 5.00295 6.875V5.625C5.00295 5.45924 5.0688 5.30027 5.18601 5.18306C5.30322 5.06585 5.46219 5 5.62795 5C5.79371 5 5.95269 5.06585 6.0699 5.18306C6.18711 5.30027 6.25295 5.45924 6.25295 5.625V6.875ZM8.75295 1.25C9.416 1.25 10.0519 1.51339 10.5207 1.98223C10.9896 2.45107 11.253 3.08696 11.253 3.75H6.25295C6.25295 3.08696 6.51635 2.45107 6.98519 1.98223C7.45403 1.51339 8.08991 1.25 8.75295 1.25ZM12.503 6.875C12.503 7.04076 12.4371 7.19973 12.3199 7.31694C12.2027 7.43415 12.0437 7.5 11.878 7.5C11.7122 7.5 11.5532 7.43415 11.436 7.31694C11.3188 7.19973 11.253 7.04076 11.253 6.875V5.625C11.253 5.45924 11.3188 5.30027 11.436 5.18306C11.5532 5.06585 11.7122 5 11.878 5C12.0437 5 12.2027 5.06585 12.3199 5.18306C12.4371 5.30027 12.503 5.45924 12.503 5.625V6.875Z" fill="#DC8622"/>
</svg>
