<svg width="19" height="13" viewBox="0 0 19 13" fill="none" xmlns="http://www.w3.org/2000/svg">
<path d="M18.4563 0.93778C18.3663 0.881625 18.2635 0.849291 18.1576 0.843824C18.0516 0.838357 17.9461 0.859936 17.8508 0.90653C14.4969 2.54716 12.1016 1.77841 9.56953 0.967468C6.90625 0.119812 4.15625 -0.759094 0.350781 1.09872C0.245685 1.15003 0.157094 1.2298 0.0950836 1.32897C0.0330729 1.42813 0.000129764 1.5427 6.19998e-09 1.65966V11.0292C-1.49285e-05 11.1352 0.0269519 11.2395 0.0783626 11.3323C0.129773 11.425 0.203937 11.5032 0.293875 11.5593C0.383812 11.6155 0.486566 11.6479 0.592465 11.6534C0.698365 11.6589 0.803927 11.6374 0.899219 11.5909C4.25313 9.95028 6.64844 10.719 9.18437 11.53C10.6875 12.0104 12.2187 12.5003 13.95 12.5003C15.2852 12.5003 16.7414 12.2097 18.3961 11.4018C18.5012 11.3505 18.5898 11.2708 18.6518 11.1716C18.7138 11.0724 18.7467 10.9579 18.7469 10.8409V1.47137C18.7478 1.36506 18.7216 1.26025 18.6708 1.16688C18.6199 1.07351 18.5461 0.994659 18.4563 0.93778ZM3.125 8.12528C3.125 8.29104 3.05915 8.45001 2.94194 8.56722C2.82473 8.68443 2.66576 8.75028 2.5 8.75028C2.33424 8.75028 2.17527 8.68443 2.05806 8.56722C1.94085 8.45001 1.875 8.29104 1.875 8.12528V3.12528C1.875 2.95952 1.94085 2.80055 2.05806 2.68334C2.17527 2.56613 2.33424 2.50028 2.5 2.50028C2.66576 2.50028 2.82473 2.56613 2.94194 2.68334C3.05915 2.80055 3.125 2.95952 3.125 3.12528V8.12528ZM9.375 8.75028C8.88055 8.75028 8.3972 8.60366 7.98607 8.32895C7.57495 8.05425 7.25452 7.6638 7.0653 7.20699C6.87608 6.75017 6.82657 6.24751 6.92304 5.76255C7.0195 5.2776 7.2576 4.83214 7.60723 4.48251C7.95686 4.13288 8.40232 3.89478 8.88727 3.79832C9.37223 3.70185 9.87489 3.75136 10.3317 3.94058C10.7885 4.1298 11.179 4.45023 11.4537 4.86135C11.7284 5.27248 11.875 5.75583 11.875 6.25028C11.875 6.91332 11.6116 7.54921 11.1428 8.01805C10.6739 8.48689 10.038 8.75028 9.375 8.75028ZM16.875 9.37528C16.875 9.54104 16.8092 9.70001 16.6919 9.81722C16.5747 9.93443 16.4158 10.0003 16.25 10.0003C16.0842 10.0003 15.9253 9.93443 15.8081 9.81722C15.6908 9.70001 15.625 9.54104 15.625 9.37528V4.37528C15.625 4.20952 15.6908 4.05055 15.8081 3.93334C15.9253 3.81613 16.0842 3.75028 16.25 3.75028C16.4158 3.75028 16.5747 3.81613 16.6919 3.93334C16.8092 4.05055 16.875 4.20952 16.875 4.37528V9.37528Z" fill="#DC8622"/>
</svg>
