<svg width="80" height="80" viewBox="0 0 80 80" fill="none" xmlns="http://www.w3.org/2000/svg">
<path d="M19.4279 36.6128C19.1226 36.4183 18.7802 36.2895 18.4225 36.2344C18.079 36.1813 17.7285 36.1931 17.3894 36.2694C16.995 36.3607 16.6263 36.5397 16.3106 36.7931C15.9949 37.0464 15.7403 37.3676 15.5657 37.7328C15.3346 38.2155 15.2519 38.793 15.3286 39.411C15.39 39.8796 15.5777 40.3227 15.8717 40.6927C16.4691 41.4567 17.4733 41.8586 18.4195 41.7011C18.7877 41.6413 19.1399 41.5071 19.4546 41.3069C19.7694 41.1067 20.0401 40.8446 20.2504 40.5364C20.6378 39.9541 20.7675 39.2221 20.6661 38.5112C20.6113 38.1234 20.472 37.7524 20.258 37.4244C20.044 37.0963 19.7606 36.8193 19.4279 36.6128Z" fill="#EB3223"/>
<path d="M20.1102 31.277C18.4517 31.0281 16.7566 31.2766 15.2392 31.9911C13.7219 32.7056 12.4506 33.854 11.5859 35.2911C10.7212 36.7281 10.3021 38.3893 10.3816 40.0646C10.461 41.7398 11.0355 43.3539 12.0322 44.7027C13.029 46.0514 14.4034 47.0743 15.9815 47.642C17.5596 48.2097 19.2706 48.2967 20.8982 47.892C22.5258 47.4872 23.9968 46.609 25.1252 45.3682C26.2536 44.1275 26.9887 42.58 27.2376 40.9214C27.4029 39.8202 27.3497 38.6971 27.0809 37.6165C26.8122 36.5358 26.3332 35.5186 25.6714 34.6231C25.0096 33.7275 24.1778 32.9711 23.2236 32.3969C22.2694 31.8228 21.2115 31.4423 20.1102 31.277ZM22.7317 42.459C22.5708 42.6162 22.3572 42.7078 22.1324 42.7161C21.9217 42.7186 21.7165 42.6485 21.5513 42.5176C21.457 42.4435 21.38 42.3498 21.3256 42.243C21.3178 42.22 21.3043 42.1994 21.2864 42.183C21.2684 42.1667 21.2466 42.1553 21.2229 42.1498C21.1993 42.1443 21.1746 42.1449 21.1513 42.1516C21.128 42.1583 21.1068 42.1709 21.0897 42.1881C21.0293 42.2484 20.9623 42.2997 20.8947 42.3576C20.677 42.5475 20.4398 42.7135 20.1869 42.8531C19.7396 43.0931 19.2558 43.2576 18.7549 43.3401C18.4047 43.3959 18.0491 43.4088 17.6958 43.3787C17.0332 43.3244 16.3912 43.1219 15.8173 42.7861C15.2479 42.4485 14.7595 41.9902 14.3865 41.4434C14.0414 40.9327 13.8069 40.3555 13.6981 39.7489C13.5892 39.1422 13.6084 38.5195 13.7544 37.9207C13.9003 37.3219 14.1699 36.7603 14.5457 36.2718C14.9216 35.7833 15.3954 35.3788 15.9367 35.0842C16.3866 34.8427 16.8744 34.6794 17.379 34.6014C18.6553 34.3975 19.8894 34.7921 20.8066 35.5066C21.1835 35.7996 21.5071 36.1555 21.7631 36.5584C21.8669 36.7039 22.1059 37.034 22.3732 37.9337C22.5832 38.6697 22.7395 39.42 22.8409 40.1786C22.8916 40.5406 22.9229 40.782 22.9616 41.2684C22.9682 41.3541 22.9935 41.7832 22.9935 41.8236C22.9938 42.0617 22.8996 42.2902 22.7317 42.459ZM25.3718 42.1392C25.2154 42.2899 25.0072 42.375 24.79 42.377C24.5647 42.3768 24.3487 42.2872 24.1894 42.1279C24.0301 41.9686 23.9405 41.7526 23.9404 41.5273L23.9313 41.3372C23.9188 40.7891 23.8757 40.2421 23.8022 39.6988C23.7237 39.0586 23.6284 38.4442 23.5101 37.8637C23.2298 36.4739 22.8105 35.1157 22.2585 33.8097C22.1662 33.5955 22.0805 33.3873 21.9997 33.2207C21.9454 33.1254 21.9069 33.0218 21.8856 32.9142C21.8806 32.8684 21.8849 32.8221 21.8983 32.778C21.9117 32.7339 21.9338 32.693 21.9635 32.6577C21.9964 32.6159 22.0385 32.5823 22.0865 32.5593C22.1346 32.5364 22.1872 32.5249 22.2404 32.5256C22.3592 32.5339 22.4764 32.5572 22.5892 32.595C22.7512 32.643 22.9062 32.712 23.0503 32.8001C23.2938 32.9423 23.5057 33.1326 23.673 33.3595C23.7725 33.4979 23.859 33.6452 23.9313 33.7994C24.0019 33.9582 24.0695 34.1151 24.1371 34.275C24.2964 34.6551 24.4418 35.045 24.5843 35.433C24.6754 35.681 24.7568 35.9302 24.8389 36.1825C24.8824 36.3159 24.9306 36.4589 24.9687 36.5928C25.0206 36.7775 25.0821 36.976 25.1364 37.174C25.163 37.2723 25.1968 37.3912 25.2173 37.4998C25.2625 37.7189 25.2933 37.9361 25.3295 38.1479C25.4104 38.6235 25.4659 39.1068 25.5106 39.525C25.5842 40.2492 25.6125 40.84 25.6252 41.2871C25.6252 41.3366 25.63 41.4778 25.63 41.5327C25.6294 41.6459 25.6062 41.7578 25.5619 41.8619C25.5175 41.966 25.4529 42.0603 25.3718 42.1392Z" fill="#EB3223"/>
<path d="M33.3867 39.0103H30.7285V46.1117H32.134V43.786H33.3867C34.097 43.786 34.6902 43.5603 35.1512 43.1131C35.6123 42.666 35.8362 42.0873 35.8362 41.3933C35.8362 40.6993 35.6056 40.1315 35.15 39.6825C34.6944 39.2335 34.097 39.0103 33.3867 39.0103ZM34.1368 42.1337C34.0388 42.2317 33.9215 42.3084 33.7925 42.359C33.6634 42.4096 33.5253 42.4329 33.3867 42.4276H32.134V40.3686H33.3867C33.5257 40.3636 33.6642 40.3873 33.7936 40.4383C33.923 40.4892 34.0405 40.5664 34.1386 40.6649C34.2356 40.7591 34.3117 40.8726 34.362 40.9981C34.4123 41.1236 34.4357 41.2582 34.4307 41.3933C34.4365 41.5304 34.4133 41.6673 34.3627 41.7948C34.312 41.9224 34.2351 42.0379 34.1368 42.1337Z" fill="#EB3223"/>
<path d="M54.3384 40.7163C53.9247 40.716 53.5165 40.8109 53.1453 40.9936C52.7742 41.1764 52.45 41.442 52.198 41.7701C51.9459 42.0981 51.7727 42.4798 51.6918 42.8855C51.6108 43.2912 51.6243 43.7101 51.7312 44.1098C51.838 44.5094 52.0354 44.8792 52.3081 45.1903C52.5807 45.5015 52.9212 45.7458 53.3034 45.9043C53.6855 46.0627 54.099 46.1312 54.5119 46.1043C54.9247 46.0774 55.3258 45.9559 55.6841 45.7491V46.1112H57.0353V43.3715C57.0236 42.6638 56.7344 41.9889 56.23 41.4923C55.7256 40.9957 55.0463 40.717 54.3384 40.7163ZM54.3384 44.7595C54.0723 44.7595 53.8121 44.6805 53.5908 44.5327C53.3695 44.3848 53.197 44.1746 53.0952 43.9287C52.9933 43.6828 52.9667 43.4123 53.0186 43.1512C53.0705 42.8902 53.1987 42.6504 53.3869 42.4622C53.5751 42.274 53.8149 42.1458 54.0759 42.0939C54.3369 42.042 54.6075 42.0686 54.8534 42.1705C55.0993 42.2723 55.3095 42.4448 55.4573 42.6661C55.6052 42.8874 55.6841 43.1476 55.6841 43.4138C55.6838 43.7706 55.5419 44.1127 55.2896 44.365C55.0373 44.6173 54.6952 44.7591 54.3384 44.7595Z" fill="#EB3223"/>
<path d="M51.2015 44.7533H48.9084V39.0103H47.5029V46.1117H52.2829C51.81 45.7611 51.4371 45.2928 51.2015 44.7533Z" fill="#EB3223"/>
<path d="M38.7541 40.7163C38.3403 40.7159 37.9321 40.8107 37.5608 40.9934C37.1896 41.1761 36.8654 41.4417 36.6133 41.7697C36.3612 42.0978 36.1879 42.4794 36.1069 42.8851C36.0259 43.2909 36.0393 43.7098 36.1461 44.1095C36.253 44.5092 36.4503 44.8789 36.7229 45.1902C36.9956 45.5014 37.3361 45.7457 37.7183 45.9042C38.1005 46.0627 38.514 46.1312 38.9268 46.1043C39.3397 46.0774 39.7408 45.9559 40.0992 45.7491V46.1112H41.4485V43.3715C41.4371 42.6641 41.1483 41.9894 40.6444 41.4928C40.1404 40.9962 39.4616 40.7173 38.7541 40.7163ZM38.7541 44.7595C38.4879 44.7596 38.2277 44.6808 38.0063 44.533C37.7849 44.3852 37.6123 44.175 37.5104 43.9291C37.4084 43.6833 37.3817 43.4127 37.4336 43.1516C37.4854 42.8905 37.6135 42.6507 37.8017 42.4624C37.9899 42.2741 38.2297 42.1459 38.4907 42.094C38.7518 42.042 39.0224 42.0686 39.2683 42.1704C39.5142 42.2723 39.7244 42.4447 39.8723 42.6661C40.0202 42.8874 40.0992 43.1476 40.0992 43.4138C40.0989 43.7705 39.9571 44.1125 39.7049 44.3647C39.4527 44.617 39.1108 44.759 38.7541 44.7595Z" fill="#EB3223"/>
<path d="M61.1497 40.7428H59.5524V39.3356L58.1463 39.7121V40.7428H56.6172L56.6377 40.7772C57.0347 41.1423 57.3381 41.5974 57.5224 42.1042H58.1475V46.1148H59.5524V42.1042H60.174C60.3339 41.6688 60.5892 41.2746 60.921 40.9504C60.9955 40.8748 61.0717 40.8056 61.1497 40.7428Z" fill="#EB3223"/>
<path d="M44.1945 44.0746L42.9302 40.7181H41.4512L43.404 46.0165L42.6979 48.0423H44.1921L46.9299 40.7181H45.4509L44.1945 44.0746Z" fill="#EB3223"/>
<path d="M31.0457 37.6266C31.1372 37.6618 31.239 37.6592 31.3286 37.6194C31.4182 37.5796 31.4884 37.5058 31.5236 37.4142L31.8893 36.4644H33.8849L34.2506 37.4142C34.2775 37.484 34.3249 37.5439 34.3865 37.5863C34.4481 37.6286 34.521 37.6513 34.5958 37.6514C34.6412 37.6515 34.6862 37.6431 34.7285 37.6266C34.8201 37.5913 34.8939 37.521 34.9337 37.4313C34.9736 37.3416 34.9762 37.2397 34.941 37.1481L33.4866 33.3687C33.4401 33.2474 33.3579 33.143 33.2509 33.0694C33.1439 32.9958 33.017 32.9564 32.8871 32.9564C32.7572 32.9564 32.6303 32.9958 32.5233 33.0694C32.4163 33.143 32.3341 33.2474 32.2876 33.3687L30.8332 37.1481C30.798 37.2397 30.8006 37.3416 30.8405 37.4313C30.8803 37.521 30.9541 37.5913 31.0457 37.6266ZM32.8874 33.8707L33.6031 35.7239H32.1741L32.8874 33.8707Z" fill="#EB3223"/>
<path d="M43.9536 37.6507C44.052 37.6504 44.1463 37.611 44.2157 37.5414C44.2852 37.4717 44.3242 37.3773 44.3242 37.2789L44.3133 33.2708C44.313 33.1726 44.2737 33.0785 44.2042 33.0092C44.1346 32.9398 44.0404 32.9009 43.9422 32.9009C43.8439 32.9012 43.7497 32.9405 43.6803 33.0102C43.611 33.0799 43.5721 33.1743 43.5723 33.2726L43.5831 37.2808C43.5833 37.3789 43.6224 37.473 43.6919 37.5424C43.7613 37.6117 43.8555 37.6507 43.9536 37.6507Z" fill="#EB3223"/>
<path d="M36.3526 37.524L37.2704 36.4921L38.3349 37.5439C38.4045 37.6134 38.4988 37.6525 38.5971 37.6525C38.6955 37.6525 38.7898 37.6134 38.8593 37.5439C38.9289 37.4743 38.9679 37.38 38.9679 37.2817C38.9679 37.1833 38.9289 37.089 38.8593 37.0195L37.7731 35.9429C37.7712 35.9406 37.769 35.9386 37.7665 35.9369L38.8762 34.6817C38.9099 34.6453 38.936 34.6025 38.9529 34.5559C38.9698 34.5092 38.9772 34.4597 38.9746 34.4101C38.972 34.3606 38.9595 34.3121 38.9378 34.2675C38.9162 34.2228 38.8858 34.183 38.8484 34.1503C38.8111 34.1176 38.7676 34.0928 38.7205 34.0772C38.6734 34.0616 38.6237 34.0556 38.5742 34.0596C38.5248 34.0636 38.4766 34.0774 38.4326 34.1003C38.3886 34.1232 38.3497 34.1547 38.318 34.1929L36.4473 36.2917V33.2744C36.4473 33.176 36.4082 33.0816 36.3386 33.012C36.269 32.9424 36.1746 32.9033 36.0762 32.9033C35.9778 32.9033 35.8834 32.9424 35.8138 33.012C35.7442 33.0816 35.7051 33.176 35.7051 33.2744V37.282C35.705 37.3576 35.7281 37.4315 35.7713 37.4936C35.8144 37.5558 35.8756 37.6032 35.9465 37.6296C35.9881 37.6453 36.0323 37.6533 36.0768 37.6531C36.1293 37.6523 36.181 37.6404 36.2286 37.6181C36.2761 37.5959 36.3184 37.5638 36.3526 37.524Z" fill="#EB3223"/>
<path d="M41.2747 37.6507C41.6895 37.6497 42.087 37.4846 42.3803 37.1914C42.6737 36.8981 42.839 36.5007 42.8401 36.0859V34.4596C42.8401 34.3612 42.801 34.2668 42.7314 34.1972C42.6618 34.1276 42.5674 34.0885 42.469 34.0885C42.3705 34.0885 42.2761 34.1276 42.2065 34.1972C42.1369 34.2668 42.0978 34.3612 42.0978 34.4596V36.0859C42.092 36.3003 42.0028 36.5039 41.8491 36.6535C41.6954 36.8031 41.4895 36.8868 41.275 36.8868C41.0606 36.8868 40.8546 36.8031 40.7009 36.6535C40.5473 36.5039 40.458 36.3003 40.4522 36.0859V34.4596C40.4522 34.3612 40.4131 34.2668 40.3435 34.1972C40.2739 34.1276 40.1795 34.0885 40.0811 34.0885C39.9827 34.0885 39.8883 34.1276 39.8187 34.1972C39.7491 34.2668 39.71 34.3612 39.71 34.4596V36.0859C39.7111 36.5006 39.8763 36.8979 40.1695 37.1912C40.4627 37.4844 40.8601 37.6496 41.2747 37.6507Z" fill="#EB3223"/>
<path d="M46.8361 37.6507C47.2098 37.651 47.5741 37.5334 47.877 37.3146C47.8864 37.4092 47.9318 37.4967 48.0038 37.5588C48.0758 37.621 48.1689 37.6532 48.2639 37.6487C48.3589 37.6442 48.4486 37.6034 48.5144 37.5347C48.5802 37.466 48.6171 37.3747 48.6175 37.2796V35.9115C48.6175 35.9067 48.6175 35.9025 48.6175 35.8977C48.6175 35.8928 48.6175 35.8789 48.6175 35.8693C48.6175 35.517 48.513 35.1725 48.3173 34.8796C48.1215 34.5866 47.8433 34.3583 47.5178 34.2235C47.1923 34.0887 46.8341 34.0534 46.4886 34.1221C46.143 34.1909 45.8256 34.3605 45.5764 34.6097C45.3273 34.8588 45.1577 35.1762 45.0889 35.5218C45.0202 35.8673 45.0555 36.2255 45.1903 36.551C45.3251 36.8765 45.5534 37.1547 45.8464 37.3505C46.1393 37.5462 46.4838 37.6507 46.8361 37.6507ZM46.8361 34.8307C47.0416 34.8307 47.2426 34.8917 47.4135 35.0059C47.5844 35.1201 47.7176 35.2825 47.7962 35.4724C47.8748 35.6623 47.8954 35.8713 47.8552 36.0728C47.8151 36.2744 47.716 36.4596 47.5707 36.6049C47.4253 36.7502 47.2401 36.8491 47.0384 36.8891C46.8368 36.9292 46.6279 36.9085 46.438 36.8298C46.2481 36.751 46.0859 36.6177 45.9718 36.4468C45.8577 36.2758 45.7968 36.0748 45.7969 35.8693C45.7974 35.5939 45.9071 35.3299 46.1019 35.1352C46.2967 34.9406 46.5607 34.8311 46.8361 34.8307Z" fill="#EB3223"/>
<path d="M49.6001 37.6272C49.6417 37.6429 49.6859 37.6509 49.7304 37.6507C49.7833 37.6507 49.8356 37.6394 49.8838 37.6176C49.932 37.5957 49.975 37.5638 50.0098 37.524L50.9283 36.4921L51.9922 37.5439C52.0266 37.5783 52.0675 37.6056 52.1125 37.6243C52.1574 37.6429 52.2057 37.6525 52.2544 37.6525C52.3031 37.6525 52.3513 37.6429 52.3963 37.6243C52.4413 37.6056 52.4821 37.5783 52.5166 37.5439C52.551 37.5095 52.5783 37.4686 52.5969 37.4236C52.6156 37.3786 52.6252 37.3304 52.6252 37.2817C52.6252 37.233 52.6156 37.1848 52.5969 37.1398C52.5783 37.0948 52.551 37.0539 52.5166 37.0195L51.4303 35.9429C51.4284 35.9406 51.4262 35.9386 51.4237 35.9369L52.5335 34.6817C52.5672 34.6453 52.5932 34.6025 52.6101 34.5559C52.627 34.5092 52.6344 34.4597 52.6318 34.4101C52.6292 34.3606 52.6167 34.3121 52.595 34.2675C52.5734 34.2228 52.543 34.183 52.5057 34.1503C52.4683 34.1176 52.4249 34.0928 52.3778 34.0772C52.3307 34.0616 52.2809 34.0556 52.2315 34.0596C52.182 34.0636 52.1339 34.0774 52.0899 34.1003C52.0459 34.1232 52.0069 34.1547 51.9753 34.1929L50.1046 36.2917V33.2744C50.1046 33.176 50.0655 33.0816 49.9959 33.012C49.9263 32.9424 49.8319 32.9033 49.7334 32.9033C49.635 32.9033 49.5406 32.9424 49.471 33.012C49.4014 33.0816 49.3623 33.176 49.3623 33.2744V37.282C49.3625 37.3568 49.3852 37.4298 49.4277 37.4914C49.4701 37.553 49.5302 37.6004 49.6001 37.6272Z" fill="#EB3223"/>
<path d="M54.9325 37.6507C55.3472 37.6496 55.7446 37.4844 56.0378 37.1912C56.331 36.8979 56.4962 36.5006 56.4973 36.0859V34.4596C56.4973 34.3612 56.4582 34.2668 56.3886 34.1972C56.319 34.1276 56.2246 34.0885 56.1262 34.0885C56.0278 34.0885 55.9334 34.1276 55.8638 34.1972C55.7942 34.2668 55.7551 34.3612 55.7551 34.4596V36.0859C55.7493 36.3003 55.66 36.5039 55.5063 36.6535C55.3527 36.8031 55.1467 36.8868 54.9322 36.8868C54.7178 36.8868 54.5118 36.8031 54.3582 36.6535C54.2045 36.5039 54.1152 36.3003 54.1094 36.0859V34.4596C54.1094 34.4109 54.0998 34.3626 54.0812 34.3176C54.0625 34.2726 54.0352 34.2317 54.0007 34.1972C53.9663 34.1627 53.9254 34.1354 53.8803 34.1168C53.8353 34.0981 53.787 34.0885 53.7383 34.0885C53.6896 34.0885 53.6413 34.0981 53.5963 34.1168C53.5513 34.1354 53.5103 34.1627 53.4759 34.1972C53.4414 34.2317 53.4141 34.2726 53.3954 34.3176C53.3768 34.3626 53.3672 34.4109 53.3672 34.4596V36.0859C53.3683 36.5007 53.5336 36.8981 53.8269 37.1914C54.1203 37.4846 54.5178 37.6497 54.9325 37.6507Z" fill="#EB3223"/>
<path d="M63.3848 40.7192C62.6051 40.7192 61.9473 40.9775 61.4308 41.4874C60.9142 41.9974 60.6602 42.6406 60.6602 43.4155C60.6602 44.1903 60.9196 44.8396 61.4308 45.3465C61.9419 45.8534 62.6045 46.1147 63.3848 46.1147C63.9478 46.1244 64.5002 45.9611 64.9676 45.6471C65.411 45.3417 65.7484 44.906 65.9331 44.4003L65.9579 44.3333H64.3648C64.3449 44.3551 64.3237 44.3756 64.3044 44.3937C64.2851 44.4118 64.2658 44.4299 64.2441 44.4462L64.2308 44.457C64.2012 44.4812 64.1705 44.5041 64.1397 44.5252L64.1204 44.5379C64.0962 44.553 64.0721 44.5687 64.0473 44.582C63.8838 44.6748 63.7026 44.7323 63.5155 44.7505C63.3283 44.7688 63.1394 44.7474 62.961 44.6879C62.7827 44.6284 62.6188 44.532 62.4801 44.405C62.3415 44.278 62.2311 44.1232 62.1561 43.9507H66.0599L66.0707 43.8753C66.0952 43.723 66.1087 43.5691 66.1112 43.4149C66.1112 42.6394 65.8481 41.9901 65.3321 41.488C64.8161 40.986 64.1656 40.7192 63.3848 40.7192ZM63.3848 42.0734C63.6462 42.0734 63.9019 42.1497 64.1205 42.2931C64.3391 42.4364 64.511 42.6405 64.6152 42.8802H62.1549C62.2591 42.6406 62.4309 42.4365 62.6494 42.2932C62.8679 42.1499 63.1235 42.0735 63.3848 42.0734Z" fill="#EB3223"/>
<path d="M69.3604 40.7192C68.9231 40.7189 68.4925 40.8273 68.1076 41.0348V40.7192H66.7021V46.1117H68.1076V43.3521C68.1113 43.026 68.2419 42.7141 68.4718 42.4827C68.7016 42.2513 69.0125 42.1186 69.3386 42.1126H69.6295V40.7325C69.5401 40.7236 69.4502 40.7191 69.3604 40.7192Z" fill="#EB3223"/>
</svg>
