<svg width="80" height="80" viewBox="0 0 80 80" fill="none" xmlns="http://www.w3.org/2000/svg">
<path d="M63 41.8953V17H17V63H63V49.5791C62.8975 49.5791 63 41.8953 63 41.8953Z" fill="#006FCF"/>
<path d="M57.3653 39.1135H60.8486V31H57.0579V32.1297L56.3408 31H53.0624V32.4378L52.4477 31H46.4031C46.1982 31 45.9933 31.1027 45.7884 31.1027C45.5835 31.1027 45.4811 31.2054 45.2762 31.3081C45.0713 31.4108 44.9688 31.4108 44.7639 31.5135V31H27.4499L26.9376 32.3351L26.4254 31H22.3274V32.4378L21.7127 31H18.4343L17 34.4919V39.1135H19.3563L19.7661 37.9838H20.5857L20.9955 39.1135H39.0267V38.0865L39.7439 39.1135H44.7639V38.4973C44.8664 38.6 45.0713 38.6 45.1737 38.7027C45.2762 38.8054 45.4811 38.8054 45.5835 38.9081C45.7884 39.0108 45.9933 39.0108 46.1982 39.0108H49.8864L50.2962 37.8811H51.1158L51.5256 39.0108H56.5457V37.9838L57.3653 39.1135ZM63 49.3838V41.7838H34.8263L34.1091 42.8108L33.392 41.7838H25.196V49.8973H33.392L34.1091 48.8703L34.8263 49.8973H39.9488V48.1514H39.7439C40.461 48.1514 41.0757 48.0486 41.588 47.8432V50H45.2762V48.973L45.9933 50H61.2584C61.8731 49.7946 62.4878 49.6919 63 49.3838Z" fill="white"/>
<path d="M61.2584 47.8861H58.4922V49H61.1559C62.2829 49 63 48.2911 63 47.2785C63 46.2658 62.3853 45.7595 61.3608 45.7595H60.1314C59.8241 45.7595 59.6192 45.557 59.6192 45.2532C59.6192 44.9494 59.8241 44.7468 60.1314 44.7468H62.4878L63 43.6329H60.2339C59.1069 43.6329 58.3898 44.3418 58.3898 45.2532C58.3898 46.2658 59.0045 46.7722 60.029 46.7722H61.2584C61.5657 46.7722 61.7706 46.9747 61.7706 47.2785C61.8731 47.6835 61.6682 47.8861 61.2584 47.8861ZM56.2383 47.8861H53.4722V49H56.1359C57.2628 49 57.98 48.2911 57.98 47.2785C57.98 46.2658 57.3653 45.7595 56.3408 45.7595H55.1114C54.804 45.7595 54.5991 45.557 54.5991 45.2532C54.5991 44.9494 54.804 44.7468 55.1114 44.7468H57.4677L57.98 43.6329H55.2138C54.0869 43.6329 53.3697 44.3418 53.3697 45.2532C53.3697 46.2658 53.9844 46.7722 55.0089 46.7722H56.2383C56.5457 46.7722 56.7506 46.9747 56.7506 47.2785C56.853 47.6835 56.5457 47.8861 56.2383 47.8861ZM52.6526 44.6456V43.5316H48.3497V48.8987H52.6526V47.7848H49.5791V46.6709H52.5501V45.557H49.5791V44.5443H52.6526V44.6456ZM45.686 44.6456C46.1982 44.6456 46.4031 44.9494 46.4031 45.2532C46.4031 45.557 46.1982 45.8608 45.686 45.8608H44.1492V44.5443L45.686 44.6456ZM44.1492 46.9747H44.7639L46.4031 48.8987H47.9399L46.0958 46.8734C47.0178 46.6709 47.5301 46.0633 47.5301 45.2532C47.5301 44.2405 46.8129 43.5316 45.686 43.5316H42.8174V48.8987H44.0468L44.1492 46.9747ZM40.8708 45.3544C40.8708 45.7595 40.6659 46.0633 40.1537 46.0633H38.5145V44.6456H40.0512C40.5635 44.6456 40.8708 44.9494 40.8708 45.3544ZM37.2851 43.5316V48.8987H38.5145V47.0759H40.1537C41.2806 47.0759 42.1002 46.3671 42.1002 45.2532C42.1002 44.2405 41.3831 43.4304 40.2561 43.4304L37.2851 43.5316ZM35.441 48.8987H36.9777L34.8263 46.1646L36.9777 43.5316H35.441L34.1091 45.2532L32.7773 43.5316H31.2405L33.392 46.1646L31.2405 48.7975H32.7773L34.1091 47.0759L35.441 48.8987ZM30.8307 44.6456V43.5316H26.5278V48.8987H30.8307V47.7848H27.7572V46.6709H30.7283V45.557H27.7572V44.5443H30.8307V44.6456ZM55.7261 35.1266L57.8775 38.3671H59.4143V33H58.1849V36.5443L57.8775 36.038L55.931 33H54.2918V38.3671H55.5212V34.7215L55.7261 35.1266ZM50.3987 35.0253L50.8085 33.9114L51.2183 35.0253L51.7305 36.2405H49.8864L50.3987 35.0253ZM52.5501 38.3671H53.882L51.5256 33H49.8864L47.5301 38.3671H48.8619L49.3742 37.2532H52.0379L52.5501 38.3671ZM46.8129 38.3671L47.3252 37.2532H47.0178C46.0958 37.2532 45.5835 36.6456 45.5835 35.7342V35.6329C45.5835 34.7215 46.0958 34.1139 47.0178 34.1139H48.3497V33H46.9154C45.2762 33 44.3541 34.1139 44.3541 35.6329V35.7342C44.3541 37.3544 45.2762 38.3671 46.8129 38.3671ZM42.2027 38.3671H43.4321V33.1013H42.2027V38.3671ZM39.539 34.1139C40.0512 34.1139 40.2561 34.4177 40.2561 34.7215C40.2561 35.0253 40.0512 35.3291 39.539 35.3291H38.0022V34.0127L39.539 34.1139ZM38.0022 36.443H38.6169L40.2561 38.3671H41.7929L39.9488 36.3418C40.8708 36.1392 41.3831 35.5316 41.3831 34.7215C41.3831 33.7089 40.6659 33 39.539 33H36.6704V38.3671H37.8998L38.0022 36.443ZM35.7483 34.1139V33H31.4454V38.3671H35.7483V37.2532H32.6748V36.1392H35.6459V35.0253H32.6748V34.0127H35.7483V34.1139ZM26.4254 38.3671H27.5523L29.0891 34.0127V38.3671H30.3185V33H28.2695L27.0401 36.6456L25.8107 33H23.7617V38.3671H24.9911V34.0127L26.4254 38.3671ZM19.7661 35.0253L20.1759 33.9114L20.5857 35.0253L21.098 36.2405H19.2539L19.7661 35.0253ZM21.9176 38.3671H23.2494L20.8931 33H19.3563L17 38.3671H18.3318L18.8441 37.2532H21.5078L21.9176 38.3671Z" fill="#006FCF"/>
</svg>
