<svg width="80" height="80" viewBox="0 0 80 80" fill="none" xmlns="http://www.w3.org/2000/svg">
<path d="M41.6945 17.7778C41.9628 17.9657 42.2922 17.9715 42.5886 18.0684C44.3319 18.6625 45.7945 19.8791 46.6961 21.4851C49.4666 26.2823 52.2508 31.0756 54.9971 35.8814C57.4955 40.2523 55.2335 45.6831 50.4237 46.956C49.8003 47.1231 49.1578 47.2084 48.5124 47.2098C42.9306 47.2098 37.3488 47.2214 31.7679 47.2098C25.9613 47.1943 22.3712 40.9062 25.2861 35.8756C28.0302 31.1385 30.7662 26.3975 33.4942 21.6527C34.6334 19.6745 36.2522 18.359 38.4977 17.864C38.5355 17.8562 38.5636 17.8078 38.5946 17.7778H41.6945ZM44.9339 42.7711C48.3245 42.7798 50.572 39.3902 49.0084 36.5014C47.533 33.7754 45.9889 31.0765 44.3537 28.4464C42.3978 25.2961 37.7963 25.3833 35.8947 28.5675C34.3447 31.1598 32.8519 33.7861 31.3572 36.4142C30.9132 37.1888 30.7155 38.0801 30.7905 38.9697C30.9377 40.7745 31.9074 42.0067 33.5668 42.6345C35.2815 43.2835 36.8605 42.9445 38.2167 41.6899C38.6178 41.318 38.9724 40.8956 39.3608 40.5091C39.8713 40.0005 40.4681 40.0005 40.9786 40.5091C41.3215 40.8501 41.6383 41.2182 41.9861 41.5534C42.3729 41.9406 42.8325 42.2476 43.3384 42.4566C43.8443 42.6655 44.3866 42.7724 44.9339 42.7711Z" fill="#0045E5"/>
<path d="M17.7773 59.317C17.9711 59.1843 17.9595 58.9518 18.0282 58.7629C18.6686 57.0114 19.3186 55.261 19.9182 53.494C20.112 52.9127 20.5198 52.8411 21.0003 52.8411C21.4808 52.8411 21.8605 52.9428 22.0591 53.4824C22.7372 55.323 23.3621 57.1849 23.9704 59.0516C24.0102 59.1737 24.0479 59.2967 24.0818 59.4207C24.1516 59.6803 24.3802 59.9622 23.9307 60.1269C23.5016 60.2838 23.0899 60.1918 22.9349 59.8227C22.7783 59.4346 22.6434 59.0381 22.5309 58.635C22.4583 58.389 22.3536 58.265 22.0659 58.2727C21.3245 58.2953 20.5818 58.2953 19.8378 58.2727C19.5869 58.266 19.4968 58.3764 19.4358 58.5798C19.3293 58.9344 19.2178 59.288 19.1045 59.6406C18.9234 60.2044 18.468 60.3662 17.9595 60.0465C17.896 60.0006 17.8352 59.9511 17.7773 59.8983V59.317ZM21.0488 54.0016L20.9451 53.9948C20.597 55.0113 20.2489 56.0275 19.9008 57.0434C19.8281 57.2565 19.9386 57.2846 20.1149 57.2837C20.7736 57.2788 21.4333 57.2837 22.1434 57.2837L21.0488 54.0016Z" fill="#0045E5"/>
<path d="M58.1569 62.2222C57.9399 61.8647 57.9864 61.5974 58.3254 61.3029C58.7604 60.9231 59.0898 60.431 59.4085 59.9467C59.5208 59.7762 59.5606 59.656 59.3339 59.5301C59.0181 59.3606 58.8863 59.0331 58.7381 58.7299C58.1888 57.5852 57.7276 56.4002 57.3586 55.1853C57.2831 54.9422 57.1349 54.6855 57.4972 54.5411C57.8333 54.4065 58.1695 54.3726 58.4165 54.6923C58.5213 54.8534 58.6004 55.0299 58.6509 55.2154C59.0675 56.3943 59.4753 57.5752 60.0071 58.7997C60.3113 58.2766 60.4624 57.7651 60.6194 57.2623C60.8499 56.527 61.0534 55.7821 61.2481 55.0342C61.3982 54.4636 61.776 54.2844 62.3137 54.5605L62.5142 54.6671V55.5389C62.3563 55.6155 62.3776 55.783 62.3418 55.9119C61.6889 58.2068 60.8809 60.4233 59.2225 62.2203L58.1569 62.2222Z" fill="#0045E5"/>
<path d="M45.586 56.5135C45.586 55.5622 45.5967 54.6109 45.5802 53.6596C45.5744 53.2721 45.7381 53.0532 46.1033 52.966C47.1534 52.7161 48.2123 52.6608 49.2575 52.9544C50.3406 53.2585 50.9577 54.2253 50.855 55.3578C50.7407 56.6171 49.9579 57.4154 48.6443 57.5675C48.2116 57.6135 47.7758 57.6242 47.3414 57.5994C46.9888 57.582 46.8483 57.6769 46.8715 58.0518C46.9025 58.5662 46.8522 59.0855 46.888 59.6018C46.9161 59.9951 46.7785 60.1685 46.393 60.1637C46.0229 60.1578 45.6432 60.1404 45.6025 59.6589C45.5676 59.2424 45.587 58.822 45.586 58.3996C45.5802 57.7709 45.586 57.1422 45.586 56.5135ZM46.856 55.2483C46.856 55.6019 46.856 55.9555 46.856 56.3091C46.856 56.4602 46.8502 56.5997 47.0701 56.5997C47.6 56.5939 48.1357 56.6414 48.6501 56.4805C49.273 56.2868 49.5995 55.8024 49.5811 55.1243C49.5627 54.4462 49.244 54.0665 48.5823 53.8902C48.1696 53.7797 47.755 53.8127 47.3375 53.8204C46.95 53.8262 46.8018 53.9899 46.8531 54.3823C46.871 54.6706 46.872 54.9598 46.856 55.2483Z" fill="#0045E5"/>
<path d="M56.2775 57.6769C56.2775 58.1119 56.263 58.5488 56.2775 58.9828C56.292 59.4168 56.0944 59.6967 55.7282 59.8643C54.6539 60.3535 53.5515 60.4291 52.4462 59.9912C51.7458 59.7132 51.4435 59.1717 51.4726 58.3763C51.4978 57.6982 51.8436 57.2323 52.5382 56.9823C53.1524 56.7615 53.8034 56.7653 54.4418 56.6849C54.6491 56.6588 54.9843 56.7818 55.0385 56.4544C55.1005 56.0853 54.9726 55.7404 54.6123 55.5573C54.2193 55.3583 53.768 55.3067 53.3403 55.412C53.0274 55.4847 52.7184 55.5728 52.4094 55.661C52.2515 55.7065 52.0955 55.8712 51.9434 55.6523C51.8673 55.5575 51.8221 55.4417 51.8138 55.3205C51.8054 55.1993 51.8345 55.0784 51.8969 54.9742C51.9519 54.8953 52.0233 54.8292 52.1062 54.7804C52.946 54.2215 54.8118 54.2786 55.6178 54.8773C56.1022 55.2406 56.2455 55.7579 56.2649 56.3236C56.2795 56.7741 56.2649 57.2265 56.2649 57.6798L56.2775 57.6769ZM55.0579 58.3182C55.0579 58.1419 55.0579 57.9646 55.0579 57.7874C55.0627 57.6362 55.0337 57.5442 54.8467 57.5616C54.3023 57.612 53.752 57.6275 53.2231 57.7786C52.8782 57.8755 52.6816 58.1099 52.6942 58.4887C52.7068 58.8675 52.9054 59.0903 53.2396 59.2017C53.5476 59.3012 53.8738 59.331 54.1947 59.2889C55.023 59.191 55.0579 59.1504 55.0579 58.3182Z" fill="#0045E5"/>
<path d="M43.6883 57.6517C43.6883 58.0867 43.6709 58.5236 43.6883 58.9566C43.7057 59.3896 43.5401 59.6774 43.1671 59.8517C42.0792 60.3603 40.9623 60.433 39.8444 59.9825C39.1585 59.7055 38.8563 59.1581 38.8824 58.4054C38.9066 57.7011 39.2622 57.2313 39.9751 56.9785C40.5748 56.7653 41.2093 56.7702 41.8293 56.6878C42.0463 56.6588 42.4028 56.8147 42.4551 56.434C42.5074 56.0533 42.3805 55.7269 42.0105 55.5486C41.675 55.3869 41.299 55.3286 40.9303 55.381C40.5626 55.4261 40.2022 55.5182 39.8579 55.6552C39.6642 55.7327 39.4704 55.8693 39.3251 55.5883C39.1953 55.3365 39.1808 55.0933 39.3978 54.8802C39.576 54.7048 39.8095 54.6312 40.042 54.5663C40.817 54.3493 41.592 54.3067 42.3728 54.5528C43.2291 54.823 43.6253 55.3132 43.6747 56.1996C43.7019 56.684 43.6796 57.1683 43.6796 57.6527L43.6883 57.6517ZM42.4687 58.3298C42.4687 58.1361 42.4687 57.9424 42.4687 57.7486C42.4687 57.6072 42.4193 57.5481 42.2691 57.5616C41.7092 57.613 41.1434 57.6227 40.6019 57.7932C40.451 57.8294 40.3182 57.9186 40.2273 58.0444C40.1365 58.1702 40.0938 58.3244 40.1069 58.479C40.1028 58.6337 40.1488 58.7855 40.238 58.9119C40.3272 59.0382 40.4549 59.1324 40.6019 59.1804C40.9213 59.2946 41.2632 59.3318 41.5997 59.2889C42.4319 59.1959 42.4696 59.1523 42.4687 58.3289V58.3298Z" fill="#0045E5"/>
<path d="M27.3596 54.3813C27.805 54.3829 28.2476 54.4504 28.6732 54.5818C28.8761 54.6392 29.0585 54.7531 29.1992 54.9102C29.393 55.1359 29.393 55.3762 29.2428 55.6242C29.0742 55.909 28.8853 55.7123 28.7081 55.6426C28.1772 55.4333 27.6425 55.2745 27.0612 55.4295C26.7464 55.5137 26.48 55.6445 26.4703 56.0243C26.4645 56.3827 26.7154 56.5202 27.0099 56.6113C27.5911 56.7915 28.2024 56.8806 28.7478 57.1761C29.329 57.489 29.6196 57.9578 29.5925 58.6292C29.5673 59.2782 29.2447 59.7103 28.679 59.9931C28.3281 60.153 27.9476 60.2375 27.562 60.2411C26.8985 60.2731 26.2407 60.2266 25.6401 59.8972C25.3679 59.7481 25.1857 59.5407 25.2187 59.2027C25.2574 58.7997 25.4676 58.6747 25.8193 58.8694C26.386 59.1842 26.9818 59.3344 27.6299 59.2337C27.9805 59.1794 28.2963 59.0728 28.3506 58.6524C28.4107 58.1845 28.1181 57.984 27.7364 57.8619C27.1552 57.675 26.54 57.6004 25.9985 57.2972C25.79 57.1835 25.6125 57.0204 25.4816 56.8223C25.3507 56.6241 25.2703 56.3969 25.2476 56.1605C25.2248 55.9241 25.2604 55.6857 25.3511 55.4662C25.4418 55.2467 25.5849 55.0528 25.768 54.9015C25.9893 54.7133 26.2523 54.5805 26.5352 54.514C26.8442 54.4336 27.161 54.36 27.3596 54.3813Z" fill="#0045E5"/>
<path d="M30.5565 56.0746C30.5565 55.2027 30.5768 54.3309 30.5468 53.4658C30.5352 53.1209 30.633 52.9543 30.975 52.9456C31.3169 52.9369 31.6831 52.9243 31.7626 53.3786C31.7896 53.602 31.7987 53.8271 31.7897 54.0519C31.7897 54.6777 31.7897 54.6777 32.4378 54.6777C32.7284 54.6777 33.019 54.699 33.3096 54.6728C33.6506 54.6418 33.7281 54.8414 33.7397 55.1078C33.7514 55.3926 33.6729 55.6329 33.3329 55.6464C32.9454 55.66 32.5579 55.6697 32.1704 55.6464C31.8798 55.63 31.7761 55.7239 31.7829 56.0242C31.8023 56.7479 31.7887 57.4773 31.7897 58.1981C31.7897 59.0699 32.1559 59.3605 33.0374 59.2094C33.2864 59.1658 33.5993 58.8955 33.7291 59.3751C33.8192 59.7093 33.6012 60.0445 33.1856 60.1597C32.685 60.2955 32.1562 60.2875 31.6599 60.1365C30.9275 59.9243 30.5749 59.4584 30.5623 58.6834C30.5478 57.8115 30.5623 56.9397 30.5623 56.0736L30.5565 56.0746Z" fill="#0045E5"/>
<path d="M34.7148 57.5859C34.7148 56.9572 34.7216 56.3265 34.7148 55.7017C34.7036 55.5564 34.7333 55.4108 34.8004 55.2814C34.8675 55.152 34.9693 55.0439 35.0945 54.9693C35.8899 54.4636 36.8486 54.2812 37.7741 54.4598C37.8789 54.4704 37.9788 54.5097 38.0628 54.5732C38.1469 54.6368 38.2118 54.7222 38.2507 54.8201C38.3824 55.1582 38.1703 55.4634 37.8167 55.4275C37.3329 55.3792 36.8443 55.4236 36.3771 55.5583C36.0594 55.6465 35.9141 55.8024 35.9228 56.1705C35.9519 57.333 35.9122 58.4897 35.9451 59.6483C35.9567 60.0523 35.7823 60.1646 35.4501 60.1588C35.1178 60.153 34.7303 60.1404 34.7177 59.6638C34.7003 58.9712 34.7177 58.2785 34.7177 57.5868L34.7148 57.5859Z" fill="#0045E5"/>
<path d="M44.9344 42.771C44.386 42.7718 43.8429 42.6639 43.3364 42.4535C42.8299 42.2432 42.3702 41.9346 41.9836 41.5456C41.6358 41.2104 41.3191 40.8423 40.9761 40.5013C40.4656 39.9966 39.8689 39.9966 39.3583 40.5013C38.9709 40.8888 38.6153 41.3102 38.2143 41.6822C36.858 42.9367 35.2819 43.2758 33.5644 42.6267C31.9049 41.999 30.9352 40.7667 30.788 38.962C30.7131 38.0724 30.9107 37.181 31.3547 36.4065C32.8494 33.7822 34.3442 31.1559 35.8922 28.5597C37.7938 25.3755 42.3953 25.2883 44.3512 28.4387C45.9864 31.0726 47.5306 33.7667 49.0059 36.4937C50.5724 39.3863 48.3269 42.7759 44.9344 42.771ZM45.1485 40.6398C46.8621 40.6398 47.9142 38.8574 46.989 37.2289C45.5618 34.7238 44.1216 32.2303 42.6685 29.7484C41.5215 27.7838 38.8197 27.7838 37.6631 29.7426C37.1409 30.628 36.6333 31.5221 36.1208 32.4134C35.1521 34.099 34.1601 35.772 33.2234 37.476C32.6131 38.5852 32.8901 39.7321 33.8404 40.3889C34.7908 41.0457 36.0278 40.8956 36.8619 40.015C37.1719 39.6866 37.4897 39.365 37.8045 39.0463C39.1472 37.6707 41.1437 37.6552 42.4951 39.0124C42.7789 39.2972 43.0492 39.5936 43.3321 39.8842C43.7884 40.3492 44.3212 40.6456 45.1485 40.6311V40.6398Z" fill="#EAE702"/>
<path d="M45.1481 40.6311C44.3218 40.6456 43.7919 40.3453 43.3317 39.8803C43.0489 39.5897 42.7786 39.2933 42.4947 39.0085C41.1385 37.6522 39.1468 37.6668 37.8041 39.0424C37.4893 39.365 37.1716 39.6866 36.8616 40.0111C36.0275 40.8917 34.7962 41.0457 33.8401 40.385C32.884 39.7244 32.6127 38.5813 33.223 37.4721C34.1598 35.7681 35.1518 34.0951 36.1205 32.4095C36.633 31.5182 37.1406 30.6241 37.6627 29.7387C38.8194 27.7799 41.5212 27.7799 42.6681 29.7445C44.1187 32.229 45.5576 34.7209 46.9848 37.2202C47.9138 38.8486 46.8618 40.6321 45.1481 40.6311Z" fill="#0045E5"/>
</svg>
