<svg width="80" height="80" viewBox="0 0 80 80" fill="none" xmlns="http://www.w3.org/2000/svg">
<path d="M21.1407 28.3165C21.1407 28.3165 20.2648 26.298 19.7963 26.1183C19.3278 25.9387 18.3203 32.3091 18.8241 33.6795C18.8241 33.6795 21.4352 35.7332 21.8648 37.5183L23.424 35.5369L24.4648 31.8165L21.1389 28.3165H21.1407Z" fill="url(#paint0_linear_4091_3225)" stroke="#A3822E" stroke-width="0.075" stroke-miterlimit="10"/>
<path d="M21.6816 35.1609C21.6816 35.1609 20.2316 32.135 20.1279 28.1776" stroke="#A3822E" stroke-width="0.025" stroke-miterlimit="10"/>
<path d="M58.6581 28.3165C58.6581 28.3165 59.534 26.298 60.0025 26.1183C60.471 25.9387 61.4784 32.3091 60.9747 33.6795C60.9747 33.6795 58.3636 35.7332 57.934 37.5183L56.3747 35.5369L55.334 31.8165L58.6599 28.3165H58.6581Z" fill="url(#paint1_linear_4091_3225)" stroke="#A3822E" stroke-width="0.075" stroke-miterlimit="10"/>
<path d="M58.1172 35.1609C58.1172 35.1609 59.5672 32.135 59.6709 28.1776" stroke="#A3822E" stroke-width="0.025" stroke-miterlimit="10"/>
<path d="M26.3187 23.4036C26.3187 23.4036 25.1965 21.1647 24.6409 21.1647C24.0854 21.1647 22.7668 25.0184 23.3743 26.911C23.9817 28.8036 24.8354 29.0202 24.6243 30.1869C24.415 31.3536 28.0076 28.161 28.0428 27.8999C28.078 27.6387 27.8354 24.8443 27.8354 24.8443L26.3187 23.4036Z" fill="url(#paint2_linear_4091_3225)" stroke="#A3822E" stroke-width="0.075" stroke-miterlimit="10"/>
<path d="M29.1277 18.7517C29.1277 18.7517 25.2517 19.6776 26.6036 27.6591C27.9554 35.6406 30.8017 26.5276 30.8017 26.5276C30.8017 26.5276 34.9851 23.1943 33.4925 22.3962C31.9999 21.598 29.1277 18.7517 29.1277 18.7517Z" fill="url(#paint3_linear_4091_3225)" stroke="#A3822E" stroke-width="0.075" stroke-miterlimit="10"/>
<path d="M26.6035 27.659C26.6035 27.659 27.9017 21.3201 30.9924 20.9998C34.0831 20.6794 34.6035 24.3294 34.6035 24.3294L28.0461 26.8239L26.6054 27.659H26.6035Z" fill="url(#paint4_linear_4091_3225)" stroke="#A3822E" stroke-width="0.075" stroke-miterlimit="10"/>
<path d="M23.8335 55.8868L21.6816 56.5942C21.6816 56.5942 23.3816 58.3294 24.8409 57.9646C26.3002 57.5998 28.1224 55.6313 28.1224 55.6313C28.1224 55.6313 28.2928 54.3813 28.0965 54.3183C27.9002 54.2553 23.9298 55.2035 23.9298 55.2035L23.8353 55.8868H23.8335Z" fill="url(#paint5_linear_4091_3225)" stroke="#A3822E" stroke-width="0.075" stroke-miterlimit="10"/>
<path d="M21.4018 51.0294L18.6426 51.0831C18.6426 51.0831 20.8018 54.7516 23.4074 55.6479C23.4074 55.6479 24.5296 56.5998 26.637 55.785C28.7444 54.9702 29.2129 53.572 29.2129 53.572L25.4129 49.9961C25.4129 49.9961 23.0778 50.2591 22.9055 50.2831C22.7333 50.3072 21.4037 51.0294 21.4037 51.0294H21.4018Z" fill="url(#paint6_linear_4091_3225)" stroke="#A3822E" stroke-width="0.075" stroke-miterlimit="10"/>
<path d="M24.013 51.4516C24.013 51.4516 20.4908 51.7424 18.8519 48.8775C17.2111 46.0127 17.4723 44.8942 17.4723 44.8942C17.4723 44.8942 17.3426 44.3479 19.4056 45.7979L24.2167 46.1442C24.2167 46.1442 24.4593 47.5331 24.4685 48.1275C24.4778 48.722 24.8426 50.5701 24.8426 50.7535C24.8426 50.9368 24.0167 51.4535 24.0167 51.4535L24.013 51.4516Z" fill="url(#paint7_linear_4091_3225)" stroke="#A3822E" stroke-width="0.075" stroke-miterlimit="10"/>
<path d="M27.3998 54.8591C27.3998 54.8591 25.1239 53.7461 23.8221 51.0906C22.5202 48.435 22.9017 47.6295 22.9017 47.6295L24.535 47.3073C24.535 47.3073 25.4887 48.3295 25.8795 49.2943C26.2702 50.2573 27.9128 52.3665 28.3035 52.7054C28.6924 53.0443 28.7184 54.1332 28.7184 54.1332L27.3998 54.8591Z" fill="url(#paint8_linear_4091_3225)" stroke="#A3822E" stroke-width="0.075" stroke-miterlimit="10"/>
<path d="M19.0541 39.8925C19.0541 39.8925 17.6281 38.9573 17.0559 38.9573C17.0559 38.9573 16.8152 41.4054 18.0559 43.7739C19.2948 46.1425 20.6726 47.3795 23.317 47.6869C23.317 47.6869 25.4152 43.8795 24.1133 42.6813C22.8115 41.4832 19.0559 39.8943 19.0559 39.8943L19.0541 39.8925Z" fill="url(#paint9_linear_4091_3225)" stroke="#A3822E" stroke-width="0.075" stroke-miterlimit="10"/>
<path d="M21.8668 37.5183C21.8668 37.5183 21.915 35.6054 18.2354 33.072C18.2354 33.072 16.2224 38.6961 20.8224 41.4387L21.7872 42.0961L22.9057 39.5702L21.8687 37.5202L21.8668 37.5183Z" fill="url(#paint10_linear_4091_3225)" stroke="#A3822E" stroke-width="0.075" stroke-miterlimit="10"/>
<path d="M24.7964 30.1035C24.7964 30.1035 24.7631 26.5795 21.6816 25.2424C21.6816 25.2424 19.6224 29.3221 23.5464 32.0813C23.5464 32.0813 24.9372 31.1406 24.7964 30.1035Z" fill="url(#paint11_linear_4091_3225)" stroke="#A3822E" stroke-width="0.075" stroke-miterlimit="10"/>
<path d="M26.0359 54.572C25.8599 54.6165 24.4507 54.3757 22.4303 53.3239C21.7914 52.9924 21.0933 52.5794 20.3525 52.0702" stroke="#A3822E" stroke-width="0.025" stroke-miterlimit="10"/>
<path d="M22.5222 49.9962C22.5222 49.9962 19.8148 48.2776 18.6426 46.1425" stroke="#A3822E" stroke-width="0.025" stroke-miterlimit="10"/>
<path d="M21.5764 45.1535C21.5764 45.1535 18.7949 43.4331 17.4561 40.1276" stroke="#A3822E" stroke-width="0.025" stroke-miterlimit="10"/>
<path d="M21.1407 39.5683C21.1407 39.5683 19.1889 37.8628 18.6426 34.3202" stroke="#A3822E" stroke-width="0.025" stroke-miterlimit="10"/>
<path d="M23.2168 30.4998L22.002 26.1183" stroke="#A3822E" stroke-width="0.025" stroke-miterlimit="10"/>
<path d="M53.4795 23.4036C53.4795 23.4036 54.6017 21.1647 55.1573 21.1647C55.7128 21.1647 57.0314 25.0184 56.424 26.911C55.8166 28.8036 54.9628 29.0202 55.174 30.1869C55.3832 31.3536 51.7906 28.161 51.7554 27.8999C51.7203 27.6387 51.9628 24.8443 51.9628 24.8443L53.4795 23.4036Z" fill="url(#paint12_linear_4091_3225)" stroke="#A3822E" stroke-width="0.075" stroke-miterlimit="10"/>
<path d="M50.671 18.7517C50.671 18.7517 54.547 19.6776 53.1951 27.6591C51.8433 35.6406 48.997 26.5276 48.997 26.5276C48.997 26.5276 44.8136 23.1943 46.3062 22.3962C47.7988 21.598 50.671 18.7517 50.671 18.7517Z" fill="url(#paint13_linear_4091_3225)" stroke="#A3822E" stroke-width="0.075" stroke-miterlimit="10"/>
<path d="M53.1943 27.659C53.1943 27.659 51.8962 21.3201 48.8054 20.9998C45.7147 20.6794 45.1943 24.3294 45.1943 24.3294L51.7517 26.8239L53.1925 27.659H53.1943Z" fill="url(#paint14_linear_4091_3225)" stroke="#A3822E" stroke-width="0.075" stroke-miterlimit="10"/>
<path d="M55.9649 55.8868L58.1167 56.5942C58.1167 56.5942 56.4167 58.3294 54.9575 57.9646C53.5001 57.5979 51.676 55.6313 51.676 55.6313C51.676 55.6313 51.5056 54.3813 51.7019 54.3183C51.8982 54.2553 55.8686 55.2035 55.8686 55.2035L55.963 55.8868H55.9649Z" fill="url(#paint15_linear_4091_3225)" stroke="#A3822E" stroke-width="0.075" stroke-miterlimit="10"/>
<path d="M58.397 51.0294L61.1563 51.0831C61.1563 51.0831 58.997 54.7516 56.3915 55.6479C56.3915 55.6479 55.2693 56.5998 53.1619 55.785C51.0545 54.9702 50.5859 53.572 50.5859 53.572L54.3859 49.9961C54.3859 49.9961 56.7211 50.2591 56.8933 50.2831C57.0656 50.3072 58.3952 51.0294 58.3952 51.0294H58.397Z" fill="url(#paint16_linear_4091_3225)" stroke="#A3822E" stroke-width="0.075" stroke-miterlimit="10"/>
<path d="M55.7857 51.4516C55.7857 51.4516 59.3079 51.7424 60.9468 48.8775C62.5875 46.0127 62.3264 44.8942 62.3264 44.8942C62.3264 44.8942 62.4561 44.3479 60.3931 45.7979L55.582 46.1442C55.582 46.1442 55.3394 47.5331 55.3301 48.1275C55.3209 48.722 54.9561 50.5701 54.9561 50.7535C54.9561 50.9368 55.782 51.4535 55.782 51.4535L55.7857 51.4516Z" fill="url(#paint17_linear_4091_3225)" stroke="#A3822E" stroke-width="0.075" stroke-miterlimit="10"/>
<path d="M52.3966 54.8591C52.3966 54.8591 54.6726 53.7461 55.9744 51.0906C57.2763 48.435 56.8948 47.6295 56.8948 47.6295L55.2615 47.3073C55.2615 47.3073 54.3078 48.3295 53.917 49.2943C53.5263 50.2573 51.8837 52.3665 51.4929 52.7054C51.1022 53.0443 51.0781 54.1332 51.0781 54.1332L52.3966 54.8591Z" fill="url(#paint18_linear_4091_3225)" stroke="#A3822E" stroke-width="0.075" stroke-miterlimit="10"/>
<path d="M60.7449 39.8925C60.7449 39.8925 62.1708 38.9573 62.7431 38.9573C62.7431 38.9573 62.9838 41.4054 61.7431 43.7739C60.5042 46.1425 59.1264 47.3795 56.4819 47.6869C56.4819 47.6869 54.3838 43.8795 55.6857 42.6813C56.9875 41.4832 60.7431 39.8943 60.7431 39.8943L60.7449 39.8925Z" fill="url(#paint19_linear_4091_3225)" stroke="#A3822E" stroke-width="0.075" stroke-miterlimit="10"/>
<path d="M57.9315 37.5183C57.9315 37.5183 57.8833 35.6054 61.5629 33.072C61.5629 33.072 63.5759 38.6961 58.9759 41.4387L58.0111 42.0961L56.8926 39.5702L57.9296 37.5202L57.9315 37.5183Z" fill="url(#paint20_linear_4091_3225)" stroke="#A3822E" stroke-width="0.075" stroke-miterlimit="10"/>
<path d="M55.0022 30.1035C55.0022 30.1035 55.0355 26.5795 58.117 25.2424C58.117 25.2424 60.1763 29.3221 56.2522 32.0813C56.2522 32.0813 54.8615 31.1406 55.0022 30.1035Z" fill="url(#paint21_linear_4091_3225)" stroke="#A3822E" stroke-width="0.075" stroke-miterlimit="10"/>
<path d="M28.5983 53.6646C28.4187 53.5831 24.4316 58.8627 24.4316 58.8627C24.4316 58.8627 29.3353 64.2664 40.3539 64.2664C51.3724 64.2664 55.2946 58.3757 55.2946 58.3757L51.0242 53.196C51.0242 53.196 43.6298 60.5257 28.5965 53.6646H28.5983Z" fill="url(#paint22_linear_4091_3225)" stroke="#A3822E" stroke-width="0.075" stroke-miterlimit="10"/>
<path d="M28.5464 58.448L28.5871 58.4758C28.5797 58.6702 28.6019 58.835 28.6538 58.9702C28.7075 59.1054 28.8038 59.2202 28.9464 59.3165C29.0501 59.3869 29.1612 59.4239 29.2797 59.4276C29.3982 59.4313 29.5112 59.4054 29.6186 59.3498C29.726 59.2943 29.8149 59.2146 29.8834 59.1109C29.9927 58.948 30.0241 58.7943 29.9741 58.6517C29.9241 58.5091 29.8241 58.3295 29.6741 58.1109C29.5241 57.8924 29.4278 57.698 29.3871 57.5295C29.3464 57.3609 29.3927 57.1758 29.5278 56.9758C29.6908 56.7332 29.9001 56.6017 30.1538 56.5832C30.4075 56.5646 30.6612 56.6406 30.9149 56.8109C31.0167 56.8795 31.1093 56.9646 31.1908 57.0646C31.2723 57.1646 31.326 57.2702 31.3501 57.3776C31.2982 57.4091 31.1908 57.4943 31.026 57.6295L30.9871 57.6035C31.0186 57.4702 31.013 57.3443 30.9686 57.2258C30.9241 57.1072 30.8445 57.0091 30.7297 56.9313C30.639 56.8702 30.5427 56.8332 30.4408 56.8202C30.339 56.8072 30.2427 56.8202 30.1501 56.8628C30.0575 56.9035 29.9815 56.9684 29.9223 57.0572C29.813 57.2184 29.7834 57.3684 29.8315 57.5109C29.8797 57.6535 29.9797 57.835 30.1334 58.0591C30.2871 58.2832 30.3853 58.4776 30.4278 58.6424C30.4704 58.8072 30.4278 58.9832 30.3038 59.1702C30.2112 59.3091 30.1019 59.4165 29.976 59.4943C29.8519 59.5721 29.7167 59.6202 29.5741 59.6369C29.4315 59.6535 29.2871 59.6443 29.1427 59.6054C28.9982 59.5665 28.8575 59.5017 28.7223 59.4109C28.6167 59.3406 28.513 59.2406 28.4112 59.1091C28.3093 58.9795 28.2501 58.8591 28.2334 58.748C28.3223 58.6832 28.426 58.5832 28.5445 58.448H28.5464Z" fill="black"/>
<path d="M32.5815 59.7961L32.0963 60.7868C32.0685 60.8424 32.05 60.885 32.0407 60.9127C32.0315 60.9405 32.0296 60.9683 32.0407 60.9924C32.05 61.0183 32.0722 61.0387 32.1074 61.0572C32.1389 61.072 32.1833 61.0868 32.2426 61.0998L32.1963 61.1942C32.137 61.1942 32.087 61.185 32.0444 61.1739C31.9944 61.159 31.9463 61.1424 31.9018 61.1202C31.8185 61.0757 31.7593 61.0202 31.7259 60.9553C31.6926 60.8905 31.6926 60.8072 31.7259 60.7109L31.6685 60.7313C31.4018 60.8239 31.1463 60.809 30.9037 60.6905C30.7481 60.6146 30.637 60.4998 30.5741 60.3479C30.5093 60.1961 30.5148 60.0424 30.5907 59.8905C30.6648 59.7405 30.7574 59.6405 30.8704 59.5924C30.9833 59.5442 31.1 59.5294 31.2204 59.5479C31.3407 59.5665 31.4963 59.6053 31.6833 59.6627C31.8278 59.7053 31.9333 59.7331 31.9981 59.7442C32.063 59.7553 32.1185 59.7516 32.1611 59.7313C32.2037 59.7109 32.2426 59.6665 32.2759 59.5979C32.3537 59.4387 32.3704 59.2942 32.3259 59.1627C32.2815 59.0331 32.1796 58.9294 32.0222 58.8516C31.9296 58.8053 31.837 58.7813 31.7481 58.7794C31.6574 58.7776 31.5796 58.7868 31.5148 58.8109C31.45 58.835 31.4 58.8627 31.3685 58.8961L31.3204 58.872L31.437 58.635C31.7426 58.5905 32.0111 58.6239 32.2407 58.7368C32.4667 58.8479 32.6111 58.9924 32.6685 59.1683C32.7278 59.3461 32.6981 59.5535 32.5815 59.7924V59.7961ZM31.7944 60.5387L32.1 59.9146L31.9352 59.872C31.8333 59.8424 31.737 59.8165 31.65 59.7961C31.5611 59.7739 31.4759 59.7627 31.3907 59.759C31.3074 59.7553 31.2259 59.772 31.1518 59.809C31.0759 59.8461 31.0167 59.9109 30.9722 60.0016C30.9074 60.135 30.8944 60.2535 30.9333 60.3572C30.9741 60.4609 31.0593 60.5442 31.1944 60.609C31.2481 60.635 31.3148 60.6479 31.3981 60.6461C31.4815 60.6461 31.5537 60.635 31.6167 60.6127C31.637 60.6053 31.6593 60.5979 31.6833 60.5924C31.7074 60.585 31.7315 60.5757 31.7556 60.5646C31.7796 60.5535 31.7926 60.5442 31.7963 60.5368L31.7944 60.5387Z" fill="black"/>
<path d="M32.9596 61.6295L33.5688 59.4369C33.6059 59.4499 33.641 59.4628 33.6707 59.4739C33.7003 59.485 33.7262 59.4943 33.7484 59.4999C33.7688 59.5054 33.7947 59.511 33.8262 59.5165C33.8577 59.5221 33.8929 59.5295 33.9355 59.5369L33.8262 59.9313C33.904 59.8554 33.9836 59.7961 34.0633 59.7517C34.1447 59.7073 34.2318 59.6813 34.3262 59.6702C34.4207 59.661 34.5188 59.6702 34.6207 59.698C34.7744 59.7406 34.9021 59.8202 35.0021 59.935C35.104 60.0517 35.1577 60.185 35.1633 60.3387C35.4281 60.0869 35.7096 60.0017 36.0096 60.085C36.2799 60.161 36.4503 60.2869 36.5207 60.4665C36.591 60.6461 36.5836 60.885 36.5021 61.1832L36.1336 62.5091C36.104 62.498 36.0799 62.4887 36.0596 62.4813C36.0392 62.4739 36.0244 62.4684 36.0096 62.4628C35.9947 62.4573 35.9781 62.4517 35.9521 62.4443C35.9244 62.4369 35.9059 62.4313 35.8966 62.4295C35.8873 62.4276 35.8707 62.4239 35.8447 62.4202C35.8188 62.4147 35.791 62.411 35.7633 62.4073L36.1021 61.1869C36.1447 61.0313 36.1688 60.8961 36.1744 60.7795C36.1799 60.6628 36.1559 60.561 36.0984 60.4739C36.0429 60.3869 35.9429 60.3221 35.8021 60.2832C35.5947 60.2258 35.4355 60.2573 35.3244 60.3776C35.2133 60.4999 35.1281 60.6665 35.0688 60.8795L34.7244 62.1184C34.6947 62.1073 34.6707 62.098 34.6521 62.0906C34.6336 62.0832 34.617 62.0776 34.604 62.0721C34.591 62.0665 34.5725 62.061 34.5447 62.0536C34.517 62.0461 34.4947 62.0406 34.4818 62.0387C34.4688 62.0369 34.4503 62.0332 34.4299 62.0295C34.4096 62.0258 34.3855 62.0202 34.3577 62.0165L34.7299 60.6721C34.791 60.4536 34.7966 60.2832 34.7466 60.1573C34.6984 60.0313 34.5892 59.9461 34.4207 59.8999C34.2688 59.8573 34.1466 59.8554 34.0503 59.8906C33.954 59.9258 33.8799 59.9869 33.8244 60.0739C33.7707 60.1591 33.7244 60.2665 33.6892 60.3924L33.3188 61.7276C33.2892 61.7165 33.2651 61.7073 33.2466 61.6999C33.2262 61.6924 33.2114 61.6869 33.1984 61.6813C33.1855 61.6758 33.167 61.6702 33.1392 61.6628C33.117 61.6573 33.0892 61.6499 33.054 61.6443C33.0188 61.6369 32.9855 61.6313 32.9521 61.6258L32.9596 61.6295Z" fill="black"/>
<path d="M37.5987 62.2405L37.4784 63.872C37.4469 63.8664 37.4228 63.8627 37.4024 63.859C37.3821 63.8553 37.3654 63.8535 37.3524 63.8498C37.3395 63.8479 37.3191 63.8442 37.2913 63.8424C37.2617 63.8405 37.2395 63.8387 37.2265 63.8405C37.2135 63.8405 37.195 63.8405 37.1747 63.8405C37.1543 63.8405 37.1284 63.8405 37.1006 63.8405L37.3561 60.3572C37.3969 60.3627 37.4321 60.3683 37.4654 60.3738C37.4987 60.3794 37.5247 60.3831 37.5469 60.385C37.5673 60.385 37.5932 60.3868 37.6247 60.385C37.6561 60.3831 37.6932 60.385 37.7376 60.385L37.7024 60.8646H37.7117C37.8006 60.722 37.9006 60.6053 38.0117 60.5183C38.1228 60.4313 38.3024 60.3979 38.5524 60.4164C38.7006 60.4275 38.8321 60.4646 38.945 60.5312C39.0598 60.5961 39.1543 60.6831 39.2302 60.7924C39.3061 60.9016 39.3617 61.0238 39.3932 61.1553C39.4265 61.2868 39.4358 61.4275 39.4265 61.5738C39.3987 61.959 39.2821 62.2553 39.0765 62.4664C38.871 62.6757 38.6154 62.7701 38.308 62.7479C37.9839 62.7238 37.7506 62.5535 37.6117 62.2387H37.6024L37.5987 62.2405ZM37.6469 61.585C37.6265 61.8553 37.6691 62.0794 37.7728 62.2572C37.8765 62.435 38.045 62.5331 38.2765 62.5498C38.4302 62.5609 38.558 62.5238 38.6617 62.4405C38.7654 62.3553 38.845 62.2387 38.8987 62.0887C38.9543 61.9387 38.9895 61.7646 39.0043 61.5683C39.0173 61.3998 39.008 61.2424 38.9765 61.0979C38.945 60.9535 38.8839 60.8331 38.7932 60.7368C38.7024 60.6405 38.5765 60.5887 38.4173 60.5775C38.2469 60.5646 38.1061 60.609 37.995 60.709C37.8839 60.809 37.8006 60.9405 37.7469 61.0998C37.6932 61.259 37.6598 61.422 37.6469 61.5868V61.585Z" fill="black"/>
<path d="M39.9259 61.6295C39.9111 61.461 39.9296 61.3054 39.9777 61.161C40.0259 61.0165 40.1018 60.8887 40.2037 60.7758C40.3055 60.6647 40.4277 60.5758 40.5666 60.5091C40.7055 60.4424 40.8629 60.4036 41.037 60.3887C41.2537 60.3721 41.4481 60.4017 41.6222 60.4832C41.7962 60.5628 41.937 60.6869 42.0425 60.8554C42.1481 61.0239 42.2129 61.2239 42.2314 61.4573C42.2444 61.6091 42.2314 61.7573 42.1907 61.9036C42.1518 62.0499 42.0851 62.1832 41.9925 62.3036C41.9 62.4239 41.7814 62.5221 41.637 62.5962C41.4944 62.6702 41.3277 62.7165 41.1407 62.7313C40.9351 62.748 40.7425 62.7165 40.5648 62.635C40.3851 62.5536 40.2388 62.4276 40.1259 62.2536C40.0111 62.0795 39.9444 61.8721 39.9259 61.6295ZM41.0425 60.535C40.8537 60.5517 40.7055 60.6147 40.5981 60.7276C40.4888 60.8406 40.4166 60.9795 40.3796 61.1462C40.3425 61.3128 40.3314 61.4869 40.3462 61.6702C40.3611 61.8424 40.3981 61.998 40.4611 62.1406C40.524 62.2832 40.6129 62.3962 40.7333 62.4795C40.8518 62.5628 40.9962 62.598 41.1666 62.585C41.3351 62.5702 41.4685 62.5017 41.5703 62.3758C41.6722 62.2499 41.7388 62.1054 41.7759 61.9387C41.8111 61.7721 41.824 61.6147 41.8129 61.4702C41.8037 61.3517 41.7814 61.235 41.75 61.1239C41.7166 61.0128 41.6703 60.911 41.6074 60.8184C41.5444 60.7258 41.4666 60.6536 41.3722 60.6017C41.2777 60.5499 41.1685 60.5276 41.0425 60.5387V60.535Z" fill="black"/>
<path d="M44.7135 61.5943L44.7635 61.8387C44.658 61.9517 44.5432 62.048 44.4172 62.1276C44.2913 62.2054 44.1598 62.261 44.0265 62.2906C43.8135 62.3387 43.6135 62.3332 43.4265 62.2795C43.2395 62.2239 43.082 62.1221 42.9506 61.9684C42.8209 61.8165 42.7283 61.6239 42.6765 61.3887C42.6283 61.1702 42.6265 60.9665 42.6691 60.7758C42.7117 60.585 42.8043 60.4221 42.9432 60.2869C43.082 60.1517 43.2635 60.061 43.4876 60.011C43.6135 59.9832 43.7376 59.9776 43.8617 59.9961C43.9857 60.0128 44.1006 60.0554 44.2061 60.1202C44.3117 60.185 44.4043 60.2776 44.4839 60.3961C44.5635 60.5165 44.6246 60.6628 44.6617 60.8387C44.6672 60.8591 44.6709 60.8776 44.6728 60.8924C44.6746 60.9073 44.6783 60.9239 44.6802 60.9424C44.3635 61.0017 44.0487 61.0684 43.7358 61.1369L43.0802 61.2813C43.0802 61.3036 43.0876 61.3369 43.0969 61.3795C43.1228 61.4961 43.1654 61.6054 43.2228 61.7017C43.2802 61.7998 43.3543 61.8813 43.4413 61.9461C43.5283 62.011 43.6302 62.0554 43.7413 62.0776C43.8524 62.0998 43.9709 62.0961 44.095 62.0684C44.3302 62.0165 44.5358 61.8591 44.7117 61.5943H44.7135ZM43.0432 61.1073L44.2783 60.835C44.2191 60.598 44.1302 60.4128 44.0117 60.2813C43.8932 60.1498 43.7283 60.1073 43.5209 60.1536C43.3839 60.185 43.2765 60.248 43.1987 60.3461C43.1209 60.4424 43.0709 60.5591 43.0469 60.6943C43.0228 60.8295 43.0228 60.9684 43.045 61.1091L43.0432 61.1073Z" fill="black"/>
<path d="M45.6373 61.8238L44.9336 59.6609C44.9725 59.6516 45.0095 59.6423 45.041 59.6349C45.0725 59.6275 45.1003 59.6201 45.1206 59.6146C45.1391 59.609 45.1632 59.5979 45.1929 59.5868C45.2225 59.5738 45.2577 59.559 45.2966 59.5423L45.4447 59.9961L45.4484 59.9331C45.5354 59.5923 45.678 59.3886 45.8799 59.3238C45.9391 59.3053 45.9873 59.2961 46.0262 59.2998L46.0873 59.6998C46.0725 59.6998 46.0373 59.6998 45.9817 59.6905C45.9262 59.6812 45.8817 59.6849 45.8484 59.6961C45.7947 59.7127 45.7447 59.7405 45.6984 59.7757C45.6521 59.8127 45.6169 59.8553 45.5966 59.9035C45.5521 60.0109 45.5317 60.1072 45.5392 60.1923C45.5466 60.2775 45.5725 60.3905 45.6188 60.5312L46.0003 61.7016C45.9706 61.709 45.9447 61.7146 45.9243 61.7183C45.904 61.7238 45.8873 61.7275 45.8725 61.7294C45.8595 61.7312 45.8391 61.7386 45.8151 61.7461C45.7873 61.7553 45.7688 61.7609 45.7614 61.7646C45.754 61.7683 45.7373 61.7738 45.7132 61.7849C45.6891 61.7942 45.6632 61.8053 45.6391 61.8183L45.6373 61.8238Z" fill="black"/>
<path d="M47.3063 61.2591L46.4062 59.1702C46.4451 59.1573 46.4785 59.1462 46.51 59.1351C46.5414 59.1258 46.5674 59.1165 46.5859 59.1073C46.6044 59.098 46.6285 59.0869 46.6563 59.0721C46.684 59.0573 46.7174 59.0388 46.7562 59.0184L46.9285 59.4165C46.9674 59.0647 47.1396 58.8221 47.447 58.6888C47.6988 58.5795 47.9081 58.5721 48.0766 58.661C48.2451 58.7517 48.3914 58.9425 48.5174 59.2369L49.0618 60.4999C49.0322 60.5091 49.0081 60.5165 48.9877 60.5239C48.9674 60.5313 48.9507 60.5369 48.9396 60.5406C48.9266 60.5443 48.9081 60.5517 48.8822 60.5628C48.8544 60.5739 48.8359 60.5832 48.8229 60.5906C48.81 60.598 48.7951 60.6054 48.7766 60.6165C48.7581 60.6258 48.7359 60.6388 48.7118 60.6517L48.21 59.4888C48.1451 59.3388 48.0785 59.2184 48.0062 59.1239C47.9359 59.0295 47.8507 58.9665 47.7525 58.9369C47.6544 58.9054 47.5414 58.9184 47.4118 58.9739C47.197 59.0665 47.0803 59.2036 47.0581 59.3851C47.0377 59.5665 47.0914 59.8036 47.2174 60.0962L47.6544 61.1091C47.6248 61.1184 47.6007 61.1258 47.5803 61.1332C47.56 61.1406 47.5433 61.1462 47.5303 61.1499C47.5174 61.1536 47.497 61.161 47.4729 61.1721C47.4451 61.1832 47.4285 61.1906 47.4211 61.1962C47.4137 61.1999 47.3988 61.2091 47.3748 61.2221C47.3507 61.2351 47.3266 61.248 47.3025 61.261L47.3063 61.2591Z" fill="black"/>
<path d="M50.5724 57.9962L51.1038 58.9628C51.1335 59.0165 51.1575 59.0573 51.1761 59.0813C51.1946 59.1054 51.2168 59.1221 51.2409 59.1295C51.2668 59.1369 51.2964 59.1295 51.3316 59.111C51.3612 59.0943 51.3983 59.0665 51.4427 59.0258L51.4927 59.1184C51.4575 59.1665 51.4224 59.2036 51.3909 59.2295C51.3501 59.2628 51.3094 59.2906 51.2649 59.3147C51.1816 59.3573 51.102 59.3739 51.0279 59.3647C50.9538 59.3554 50.8872 59.3073 50.8279 59.2239L50.8131 59.2832C50.7353 59.5536 50.5779 59.7554 50.3409 59.885C50.189 59.9684 50.0316 59.9925 49.8705 59.9591C49.7094 59.9239 49.5872 59.8313 49.5057 59.6832C49.4242 59.5369 49.3964 59.4036 49.4224 59.2832C49.4483 59.1628 49.502 59.0591 49.5872 58.9721C49.6705 58.8832 49.7909 58.7795 49.9483 58.6591C50.0668 58.5665 50.1501 58.4962 50.1964 58.448C50.2427 58.4017 50.2705 58.3536 50.2798 58.3073C50.289 58.261 50.2742 58.2036 50.2372 58.1369C50.152 57.9813 50.0427 57.8832 49.9112 57.8443C49.7798 57.8054 49.6372 57.8295 49.4816 57.9147C49.3909 57.9647 49.3186 58.0258 49.2631 58.098C49.2094 58.1702 49.1724 58.2406 49.1557 58.3073C49.1372 58.3739 49.1335 58.4313 49.1409 58.4758L49.0946 58.5017L48.9668 58.2702C49.1057 57.9943 49.2872 57.7943 49.5131 57.6702C49.7335 57.548 49.9335 57.5147 50.1131 57.5684C50.2909 57.6221 50.4446 57.7647 50.5742 57.998L50.5724 57.9962ZM50.7261 59.0684L50.3909 58.4591L50.2612 58.5702C50.1779 58.6369 50.102 58.6999 50.0335 58.7591C49.9649 58.8184 49.9057 58.8813 49.8538 58.9499C49.802 59.0184 49.7705 59.0925 49.7575 59.1758C49.7446 59.2591 49.7631 59.3443 49.8131 59.435C49.8853 59.5647 49.9742 59.6443 50.0816 59.6702C50.189 59.6962 50.3075 59.6739 50.439 59.6036C50.4909 59.5758 50.539 59.5276 50.5872 59.4591C50.6353 59.3906 50.6668 59.3258 50.6853 59.2628C50.6909 59.2425 50.6983 59.2202 50.7057 59.1962C50.7131 59.1721 50.7205 59.148 50.7242 59.1202C50.7279 59.0943 50.7279 59.0776 50.7242 59.0702L50.7261 59.0684Z" fill="black"/>
<path d="M31.6614 24.0516C31.6614 24.0516 31.0892 19.7405 29.0596 18.7498C29.0596 18.7498 39.6836 11.5627 50.6707 18.7498C50.6707 18.7498 47.7707 21.4331 47.8929 23.685L31.6614 24.0516Z" fill="url(#paint23_linear_4091_3225)" stroke="#A3822E" stroke-width="0.075" stroke-miterlimit="10"/>
<path d="M34.6114 21.2925L33.8799 17.6332L34.9317 17.4221C35.2003 17.3684 35.428 17.348 35.6132 17.3591C35.7984 17.3721 35.9465 17.4239 36.0577 17.5147C36.1688 17.6054 36.2428 17.7425 36.278 17.9239C36.3021 18.0462 36.304 18.1628 36.2817 18.2739C36.2595 18.3851 36.2188 18.4888 36.1577 18.5869C36.0965 18.6851 36.0206 18.7702 35.9299 18.8462C35.8391 18.9202 35.7336 18.9869 35.6169 19.0443C35.7299 19.0277 35.8484 19.0239 35.9706 19.0332C36.0928 19.0425 36.2095 19.0702 36.3169 19.1147C36.4262 19.1591 36.5225 19.2295 36.604 19.3239C36.6854 19.4184 36.741 19.5406 36.7725 19.6906C36.8484 20.0721 36.7484 20.4073 36.4706 20.6943C36.3891 20.7758 36.2891 20.8462 36.1688 20.9036C36.0503 20.9628 35.9299 21.0073 35.8114 21.0388C35.691 21.0702 35.5484 21.1017 35.378 21.1369L34.6132 21.2906L34.6114 21.2925ZM34.391 17.7388L34.6743 19.1573L34.8947 19.1128C35.0354 19.0851 35.1577 19.0517 35.2577 19.0165C35.3577 18.9814 35.4558 18.9314 35.5465 18.8647C35.6651 18.7758 35.7484 18.6684 35.7984 18.5425C35.8465 18.4165 35.8577 18.2795 35.828 18.1332C35.7947 17.9702 35.7336 17.848 35.6428 17.7647C35.5521 17.6814 35.4354 17.6332 35.2947 17.6202C35.154 17.6073 34.9836 17.6202 34.7854 17.661L34.391 17.7406V17.7388ZM34.7151 19.3573L35.0428 20.9999L35.5521 20.898C35.7299 20.8628 35.878 20.7962 36.0003 20.698C36.1225 20.5999 36.2095 20.4795 36.2595 20.3369C36.3095 20.1943 36.3188 20.0443 36.2873 19.8869C36.228 19.5888 36.0891 19.3999 35.8725 19.3165C35.654 19.2351 35.3669 19.2277 35.0114 19.2999L34.7114 19.3591L34.7151 19.3573Z" fill="black"/>
<path d="M39.4279 18.9462L39.4965 20.2147C39.5002 20.2869 39.5057 20.3388 39.5113 20.3739C39.5168 20.4091 39.5317 20.4351 39.5539 20.4554C39.5761 20.4758 39.6113 20.4851 39.6576 20.4814C39.6965 20.4795 39.7502 20.4684 39.8168 20.448L39.8224 20.5684C39.7613 20.5999 39.7076 20.6221 39.6594 20.6332C39.602 20.6462 39.5428 20.6554 39.4872 20.6591C39.3779 20.661 39.2891 20.6388 39.2168 20.5925C39.1465 20.5462 39.1002 20.4628 39.0798 20.3462L39.0335 20.3999C38.8168 20.6406 38.552 20.7702 38.2428 20.7869C38.0428 20.798 37.8687 20.7443 37.7187 20.6276C37.5687 20.511 37.4891 20.3536 37.4779 20.1573C37.4687 19.9647 37.5057 19.8128 37.5909 19.7017C37.6761 19.5906 37.7854 19.5091 37.9168 19.461C38.0483 19.4128 38.2242 19.3628 38.4465 19.3165C38.615 19.2795 38.7372 19.248 38.8076 19.2221C38.8798 19.1962 38.9317 19.161 38.9631 19.1165C38.9965 19.0721 39.0094 19.0054 39.0057 18.9184C38.9946 18.7128 38.9298 18.5591 38.8131 18.4536C38.6965 18.348 38.5354 18.3017 38.3335 18.3128C38.2131 18.3184 38.1076 18.3462 38.0168 18.3943C37.9242 18.4425 37.852 18.4962 37.8002 18.5573C37.7483 18.6184 37.715 18.6739 37.702 18.7239L37.6409 18.7276L37.6242 18.4239C37.9076 18.2073 38.1965 18.0906 38.4891 18.0758C38.7779 18.061 39.0039 18.1258 39.1613 18.2702C39.3205 18.4147 39.4076 18.6406 39.4242 18.948L39.4279 18.9462ZM39.052 20.1332L39.0094 19.3351L38.8187 19.3851C38.6983 19.4128 38.5891 19.4406 38.4891 19.4684C38.3891 19.4962 38.2946 19.5314 38.2076 19.5758C38.1205 19.6202 38.0502 19.6814 37.9946 19.761C37.9409 19.8406 37.915 19.9388 37.9224 20.0573C37.9317 20.2276 37.9854 20.3536 38.0835 20.4351C38.1817 20.5165 38.3168 20.5536 38.4872 20.5443C38.5557 20.5406 38.6298 20.5147 38.7131 20.4684C38.7965 20.4221 38.8631 20.3702 38.915 20.3128C38.9317 20.2943 38.9502 20.2739 38.9705 20.2536C38.9909 20.2332 39.0094 20.211 39.0261 20.1851C39.0428 20.161 39.052 20.1443 39.052 20.1351V20.1332Z" fill="black"/>
<path d="M40.293 20.6702L40.5004 18.0609C40.5467 18.0683 40.5874 18.0757 40.6245 18.0813C40.6615 18.0868 40.693 18.0924 40.717 18.0942C40.7393 18.0942 40.7707 18.0961 40.8059 18.0942C40.843 18.0942 40.8856 18.0942 40.9356 18.0942L40.8948 18.5924C41.1245 18.2554 41.43 18.1017 41.8152 18.1313C42.13 18.1572 42.3485 18.2591 42.4707 18.4424C42.593 18.6239 42.6393 18.898 42.6096 19.2646L42.4837 20.8424C42.4485 20.8368 42.4189 20.8313 42.3948 20.8276C42.3707 20.8239 42.3522 20.8202 42.3374 20.8183C42.3226 20.8165 42.2985 20.8128 42.267 20.8109C42.2337 20.8091 42.2078 20.8072 42.193 20.8072C42.1782 20.8072 42.1559 20.8072 42.1319 20.8072C42.1078 20.8072 42.08 20.8072 42.0467 20.8072L42.1633 19.3554C42.1782 19.1683 42.1744 19.0091 42.1541 18.8739C42.1337 18.7387 42.08 18.6313 41.9967 18.5461C41.9133 18.4609 41.7911 18.4128 41.6319 18.3998C41.3633 18.3776 41.1707 18.4535 41.0522 18.6276C40.9337 18.8017 40.8596 19.0702 40.83 19.4368L40.73 20.7035C40.6948 20.698 40.6652 20.6924 40.6411 20.6887C40.617 20.685 40.5985 20.6813 40.5819 20.6794C40.5652 20.6776 40.543 20.6739 40.5133 20.672C40.48 20.6702 40.4578 20.6683 40.4485 20.6683C40.4393 20.6683 40.4189 20.6683 40.3874 20.6683C40.3559 20.6683 40.3263 20.6683 40.293 20.6683V20.6702Z" fill="black"/>
<path d="M44.4984 17.0332L43.9818 19.4332C43.967 19.5054 43.9577 19.5499 43.9577 19.5702C43.9577 19.5906 43.9614 19.6054 43.9707 19.6147C44.0707 19.6351 44.2484 19.5647 44.504 19.398L44.9077 19.1332L45.4244 18.7628C45.4688 18.7758 45.5096 18.7888 45.5447 18.7999C45.5799 18.811 45.6114 18.8202 45.6355 18.8239C45.654 18.8277 45.6818 18.8314 45.7188 18.8369C45.7559 18.8406 45.7984 18.8462 45.8484 18.8536L45.8392 18.8925C45.7725 18.9314 45.7151 18.9628 45.6633 18.9888C45.6133 19.0147 45.4984 19.0739 45.3207 19.1684C45.1429 19.2628 44.967 19.361 44.7966 19.4591C44.6262 19.5573 44.5059 19.6277 44.4373 19.6702C44.4799 19.748 44.5392 19.8536 44.6133 19.9906C44.6873 20.1277 44.7725 20.2869 44.8707 20.4684C44.9688 20.6499 45.0596 20.8147 45.141 20.9647C45.2225 21.1147 45.3022 21.2591 45.3799 21.4017L45.3744 21.4277C45.3299 21.4147 45.2947 21.4036 45.267 21.3962C45.241 21.3888 45.2188 21.3814 45.1984 21.3758C45.1799 21.3702 45.1521 21.3628 45.1151 21.3554C45.0744 21.3462 45.0466 21.3406 45.0336 21.3388C45.0207 21.3369 44.9966 21.3332 44.9596 21.3277C44.9225 21.3221 44.8836 21.3165 44.8447 21.3128C44.7873 21.1888 44.691 21.0017 44.554 20.7499C44.417 20.498 44.2596 20.211 44.0799 19.8869C44.041 19.8202 44.0059 19.7832 43.9744 19.7758C43.9299 19.7665 43.8929 19.8258 43.8633 19.9573L43.6281 21.0499C43.5929 21.0388 43.5651 21.0295 43.5429 21.0239C43.5207 21.0165 43.5003 21.011 43.4855 21.0054C43.4707 20.9999 43.4466 20.9943 43.4188 20.9888C43.3855 20.9814 43.3651 20.9777 43.354 20.9758C43.3447 20.9758 43.3244 20.9721 43.2947 20.9684C43.2651 20.9647 43.2336 20.961 43.2021 20.9573L44.0688 16.9351C44.1133 16.948 44.154 16.961 44.1892 16.9721C44.2244 16.9832 44.2559 16.9925 44.2799 16.9962C44.3021 17.0017 44.3318 17.0054 44.3688 17.0091C44.4059 17.0128 44.4484 17.0184 44.4984 17.0258V17.0332Z" fill="black"/>
<path d="M39.8651 58.3794C49.9454 58.3794 58.117 50.2078 58.117 40.1276C58.117 30.0474 49.9454 21.8757 39.8651 21.8757C29.7849 21.8757 21.6133 30.0474 21.6133 40.1276C21.6133 50.2078 29.7849 58.3794 39.8651 58.3794Z" fill="url(#paint24_linear_4091_3225)" stroke="#A3822E" stroke-width="0.075" stroke-miterlimit="10"/>
<path d="M40.1374 53.6628C47.9216 53.6628 54.2319 47.3525 54.2319 39.5683C54.2319 31.7842 47.9216 25.4739 40.1374 25.4739C32.3533 25.4739 26.043 31.7842 26.043 39.5683C26.043 47.3525 32.3533 53.6628 40.1374 53.6628Z" fill="white"/>
<path d="M40.1372 54.1332C32.1057 54.1332 25.5742 47.5998 25.5742 39.5702C25.5742 31.5406 32.1057 25.0054 40.1372 25.0054C48.1687 25.0054 54.7001 31.5387 54.7001 39.5683C54.7001 47.598 48.1668 54.1313 40.1372 54.1313V54.1332ZM40.1372 25.9424C32.6242 25.9424 26.5113 32.0554 26.5113 39.5683C26.5113 47.0813 32.6242 53.1943 40.1372 53.1943C47.6501 53.1943 53.7631 47.0813 53.7631 39.5683C53.7631 32.0554 47.6501 25.9424 40.1372 25.9424Z" fill="black"/>
<path d="M40.1351 27.0702C33.2369 27.0702 27.6406 32.6665 27.6406 39.5702C27.6406 46.4739 33.2369 52.0702 40.1351 52.0702C47.0332 52.0702 52.6351 46.4739 52.6351 39.5702C52.6351 32.6665 47.0388 27.0702 40.1351 27.0702ZM39.7073 47.1035H40.0277C39.9165 47.2369 39.8443 47.3091 39.8443 47.3091C39.7943 47.2424 39.7536 47.172 39.7073 47.1035Z" fill="#FF0000"/>
<path d="M49.2467 33.6183C43.0745 31.4572 39.8727 35.3109 39.8727 35.3109C34.9005 31.2238 30.1338 34.2183 30.1338 34.2183C31.5171 40.5979 36.3856 41.2757 36.3856 41.2757C34.8727 46.2201 39.8727 50.2831 39.8727 50.2831C44.0912 47.8886 43.9079 41.0924 43.9079 41.0924C48.806 39.2924 49.2467 33.6164 49.2467 33.6164V33.6183ZM39.7282 38.1127C40.0653 37.6535 41.1338 39.8424 40.9282 40.0479C40.7227 40.259 38.9356 40.3479 38.7819 39.9312C38.6227 39.5183 39.7282 38.1127 39.7282 38.1127ZM36.9301 39.322C33.6486 38.4646 32.7634 35.5072 32.7634 35.5072C36.5042 34.9498 38.5042 36.7961 38.5042 36.7961C36.9301 37.7331 36.9301 39.322 36.9301 39.322ZM39.7375 47.059C37.9893 44.6683 38.1819 41.6886 38.1819 41.6886C39.6393 42.1053 41.4949 41.6886 41.4949 41.6886C41.9023 44.8905 39.7375 47.059 39.7375 47.059ZM43.1393 39.322C42.7653 38.0979 41.2782 36.6794 41.2782 36.6794C43.7523 34.6072 46.7486 35.259 46.7486 35.259C45.6801 38.0201 43.1393 39.322 43.1393 39.322Z" fill="white" stroke="black" stroke-width="0.125" stroke-miterlimit="10"/>
<path d="M34.4319 55.8832L34.456 55.8943C34.4671 55.9739 34.4949 56.0498 34.5375 56.1202C34.5819 56.1906 34.6356 56.2387 34.7023 56.2684C34.7504 56.2906 34.8041 56.2998 34.8578 56.2961C34.9134 56.2924 34.9653 56.2758 35.0116 56.2461C35.0578 56.2165 35.093 56.1776 35.1153 56.1258C35.1541 56.0369 35.1541 55.9628 35.1153 55.9054C35.0745 55.848 35.0023 55.7739 34.8967 55.685C34.7912 55.5961 34.719 55.5147 34.6819 55.4387C34.6449 55.3628 34.6523 55.2665 34.7023 55.1498C34.7634 55.0128 34.8578 54.9239 34.9838 54.8869C35.1097 54.8498 35.2449 54.861 35.3856 54.9239C35.4541 54.9536 35.5153 54.9924 35.5727 55.0369C35.6301 55.0813 35.669 55.1202 35.6893 55.1517C35.6338 55.2017 35.5782 55.261 35.5227 55.3313L35.4967 55.3202C35.4967 55.2832 35.493 55.2424 35.4801 55.198C35.4671 55.1536 35.4486 55.1165 35.4245 55.0832C35.4004 55.0498 35.369 55.0258 35.3319 55.0091C35.2541 54.9758 35.1801 54.9684 35.1097 54.9887C35.0393 55.0091 34.9856 55.0591 34.9523 55.1369C34.9153 55.2202 34.9153 55.2924 34.9541 55.3517C34.993 55.4091 35.0634 55.485 35.1653 55.5758C35.2671 55.6665 35.3375 55.7498 35.3782 55.8276C35.419 55.9054 35.4134 55.998 35.3671 56.1054C35.3227 56.2054 35.2578 56.2795 35.1727 56.3276C35.0875 56.3758 34.9949 56.3998 34.893 56.3961C34.793 56.3943 34.6967 56.3739 34.6078 56.3332C34.4671 56.2702 34.356 56.185 34.2764 56.0739C34.3634 55.9776 34.4153 55.9147 34.4356 55.8832H34.4319Z" fill="black"/>
<path d="M37.0333 56.0443L36.8315 56.7721C36.8204 56.8128 36.8129 56.8443 36.8092 56.8647C36.8055 56.885 36.8092 56.9035 36.8185 56.9184C36.8278 56.9332 36.8444 56.9461 36.8722 56.9535C36.8944 56.9591 36.9259 56.9628 36.9685 56.9646L36.95 57.0332C36.9092 57.0387 36.8759 57.0406 36.8463 57.0387C36.8111 57.035 36.7778 57.0295 36.7444 57.0202C36.6833 57.0017 36.6352 56.9702 36.6055 56.9313C36.5741 56.8906 36.5629 56.8369 36.5741 56.7665L36.5389 56.7887C36.3704 56.8832 36.1981 56.9072 36.0185 56.8572C35.9037 56.8258 35.8148 56.7628 35.7537 56.6684C35.6907 56.5739 35.6759 56.4702 35.7074 56.3591C35.7389 56.248 35.787 56.1702 35.8574 56.1239C35.9278 56.0776 36.0037 56.0517 36.087 56.0498C36.1704 56.048 36.2796 56.0535 36.4129 56.0684C36.5166 56.0795 36.5889 56.085 36.6352 56.0832C36.6815 56.0813 36.7166 56.0721 36.7426 56.0535C36.7704 56.035 36.7889 55.9998 36.8037 55.9498C36.837 55.8332 36.8296 55.7332 36.7833 55.6517C36.737 55.5702 36.6555 55.5128 36.5389 55.4813C36.4704 55.4628 36.4055 55.4572 36.3444 55.4665C36.2833 55.4758 36.2315 55.4924 36.1926 55.5184C36.1518 55.5424 36.1222 55.5684 36.1055 55.5943L36.0704 55.585L36.1185 55.4109C36.3185 55.3424 36.5037 55.3313 36.6722 55.3776C36.8389 55.4239 36.9537 55.5035 37.0148 55.6147C37.0759 55.7258 37.0833 55.8702 37.0352 56.0461L37.0333 56.0443ZM36.5963 56.6424L36.7241 56.1832L36.6074 56.1758C36.5333 56.1684 36.4666 56.1646 36.4055 56.1609C36.3444 56.1572 36.2833 56.1609 36.2278 56.1684C36.1704 56.1776 36.1185 56.198 36.0722 56.2332C36.0259 56.2684 35.9944 56.3184 35.9741 56.3869C35.9463 56.485 35.9537 56.5665 35.9926 56.6313C36.0315 56.6961 36.1018 56.7424 36.2 56.7684C36.2389 56.7795 36.2852 56.7795 36.3426 56.7684C36.4 56.7572 36.4463 56.7406 36.4852 56.7184C36.4981 56.7109 36.5129 56.7035 36.5278 56.6961C36.5426 56.6887 36.5592 56.6795 36.5722 56.6684C36.587 56.6572 36.5944 56.6498 36.5963 56.6443V56.6424Z" fill="black"/>
<path d="M37.4785 57.1868L37.7767 54.7572C37.8044 54.7628 37.8285 54.7683 37.8507 54.772C37.873 54.7776 37.8915 54.7813 37.9063 54.7813C37.9211 54.7813 37.9378 54.7831 37.96 54.785C37.9822 54.785 38.0081 54.785 38.0378 54.7887L37.8933 55.9665C38.0378 55.772 38.2248 55.6887 38.4526 55.7165C38.6359 55.7387 38.7637 55.8072 38.8322 55.922C38.9007 56.0368 38.923 56.1998 38.897 56.4109L38.7822 57.3461C38.7618 57.3405 38.7452 57.3368 38.7304 57.335C38.7156 57.3313 38.7044 57.3294 38.697 57.3276C38.6896 57.3257 38.6748 57.3239 38.6544 57.3202C38.6341 57.3183 38.6193 57.3165 38.61 57.3165C38.6007 57.3165 38.5878 57.3165 38.5748 57.3165C38.56 57.3165 38.5433 57.3165 38.5248 57.3165L38.6304 56.4554C38.6526 56.2683 38.6433 56.1276 38.6007 56.0368C38.5581 55.9442 38.4711 55.8905 38.3378 55.8739C38.0544 55.8387 37.8933 55.9942 37.8507 56.3405L37.7433 57.2202C37.723 57.2146 37.7063 57.2109 37.6915 57.2091C37.6767 57.2072 37.6656 57.2035 37.6563 57.2016C37.647 57.1998 37.6341 57.1979 37.6156 57.1942C37.5952 57.1924 37.5822 57.1905 37.5767 57.1905C37.5711 57.1905 37.5581 57.1905 37.5415 57.1905C37.523 57.1905 37.5044 57.1905 37.4859 57.1905L37.4785 57.1868Z" fill="black"/>
<path d="M40.5504 56.3313L40.5615 57.0869C40.5615 57.1295 40.5634 57.161 40.5671 57.1813C40.5689 57.2017 40.5782 57.2184 40.5912 57.2313C40.6041 57.2443 40.6245 57.2499 40.6523 57.2499C40.6763 57.2499 40.7078 57.2443 40.7467 57.2351V57.3073C40.7115 57.3239 40.6782 57.3369 40.6504 57.3425C40.6152 57.3499 40.58 57.3536 40.5467 57.3536C40.4819 57.3536 40.43 57.3369 40.3875 57.3073C40.3467 57.2776 40.3208 57.2276 40.3115 57.1573L40.2838 57.1888C40.1486 57.3276 39.9893 57.398 39.8041 57.3999C39.6856 57.4017 39.5819 57.3665 39.4967 57.2925C39.4097 57.2202 39.3652 57.1239 39.3652 57.0073C39.3652 56.8925 39.3893 56.8036 39.443 56.7388C39.4967 56.6739 39.5634 56.6295 39.643 56.6017C39.7226 56.5758 39.8282 56.5517 39.9615 56.5276C40.0634 56.5091 40.1356 56.4943 40.1782 56.4795C40.2208 56.4665 40.2541 56.4462 40.2745 56.4202C40.2949 56.3943 40.3041 56.3554 40.3041 56.3036C40.3041 56.1813 40.2671 56.0888 40.2004 56.0221C40.1338 55.9554 40.0393 55.9258 39.9171 55.9276C39.8467 55.9276 39.7838 55.9425 39.7263 55.9684C39.6689 55.9943 39.6263 56.0258 39.5949 56.061C39.5615 56.0962 39.5412 56.1276 39.5319 56.1573H39.4949L39.493 55.9758C39.6671 55.8536 39.8412 55.7906 40.0152 55.7888C40.1875 55.7869 40.3208 55.8295 40.4115 55.9202C40.5023 56.011 40.5486 56.1462 40.5523 56.3295L40.5504 56.3313ZM40.2986 57.0295L40.2912 56.5536L40.1763 56.5795C40.1041 56.5943 40.0375 56.6073 39.9782 56.6221C39.9171 56.6351 39.8615 56.6554 39.8078 56.6795C39.756 56.7036 39.7115 56.7388 39.6763 56.7851C39.643 56.8313 39.6263 56.8888 39.6263 56.9591C39.6263 57.061 39.6578 57.1369 39.7134 57.1869C39.7708 57.2369 39.8486 57.2628 39.9504 57.261C39.9912 57.261 40.0356 57.2462 40.0875 57.2202C40.1375 57.1943 40.1782 57.1647 40.2097 57.1332C40.2208 57.1221 40.2319 57.111 40.2449 57.0999C40.2578 57.0888 40.2689 57.0758 40.28 57.061C40.2912 57.0462 40.2967 57.0369 40.2967 57.0313L40.2986 57.0295Z" fill="black"/>
<path d="M41.2246 57.309L40.8857 54.8942C40.9135 54.8942 40.9376 54.8905 40.9598 54.8905C40.982 54.8905 41.0006 54.8887 41.0154 54.885C41.0283 54.8831 41.0469 54.8794 41.0672 54.8738C41.0894 54.8683 41.1135 54.8627 41.1431 54.8572L41.3117 56.0516C41.3672 55.9368 41.4376 55.8442 41.5191 55.772C41.6024 55.6998 41.7043 55.6572 41.8228 55.6405C41.9672 55.6201 42.0931 55.6405 42.2024 55.6979C42.3098 55.7553 42.3969 55.8387 42.4598 55.9479C42.5228 56.0572 42.5635 56.172 42.5802 56.2979C42.595 56.4072 42.595 56.5146 42.5765 56.6201C42.558 56.7238 42.5228 56.8201 42.4709 56.9072C42.4191 56.9942 42.3506 57.0683 42.2672 57.1275C42.182 57.1868 42.0839 57.2238 41.9691 57.2405C41.7672 57.2683 41.6024 57.2146 41.4783 57.0757C41.4561 57.0979 41.4283 57.1275 41.3969 57.1664C41.3654 57.2053 41.3283 57.2498 41.2857 57.2998L41.2246 57.3072V57.309ZM41.7617 55.7887C41.5913 55.8127 41.4783 55.9016 41.4228 56.0572C41.3672 56.2127 41.3543 56.3979 41.3857 56.6146C41.4024 56.7275 41.4339 56.8275 41.4839 56.9127C41.532 56.9979 41.595 57.0609 41.6709 57.1016C41.7469 57.1424 41.8302 57.1553 41.9228 57.1424C42.0098 57.1294 42.0802 57.0979 42.1357 57.0442C42.1913 56.9905 42.2339 56.9238 42.2617 56.8442C42.2894 56.7646 42.3061 56.685 42.3117 56.6016C42.3172 56.5201 42.3117 56.435 42.3006 56.3516C42.2839 56.2294 42.2524 56.1238 42.208 56.035C42.1635 55.9461 42.1043 55.8794 42.0302 55.835C41.9561 55.7905 41.8672 55.7738 41.7654 55.7887H41.7617Z" fill="black"/>
<path d="M44.0076 55.7239L44.1965 56.4553C44.2076 56.4961 44.2169 56.5276 44.2243 56.5461C44.2317 56.5646 44.2428 56.5794 44.2594 56.5887C44.2743 56.5979 44.2965 56.5979 44.3224 56.5924C44.3446 56.5868 44.3743 56.5739 44.4113 56.5535L44.4298 56.622C44.3983 56.6479 44.3687 56.6665 44.3428 56.6794C44.3113 56.6942 44.278 56.7072 44.2446 56.7146C44.1817 56.7294 44.1261 56.7276 44.0798 56.7072C44.0317 56.6887 43.9965 56.6461 43.9706 56.5794L43.9502 56.6165C43.852 56.7831 43.7132 56.8905 43.5354 56.9368C43.4206 56.9665 43.3132 56.9572 43.2113 56.9053C43.1094 56.8553 43.0446 56.7739 43.015 56.6609C42.9872 56.5498 42.9909 56.4572 43.028 56.3813C43.065 56.3053 43.1187 56.2461 43.1891 56.2016C43.2594 56.1572 43.3576 56.1091 43.4817 56.0535C43.5761 56.0109 43.6428 55.9794 43.6817 55.9553C43.7206 55.9331 43.7465 55.9053 43.7613 55.8757C43.7743 55.8461 43.7743 55.8053 43.7613 55.7553C43.7298 55.6368 43.6743 55.5535 43.5946 55.5072C43.5132 55.4591 43.415 55.4516 43.2983 55.4813C43.2298 55.4998 43.1706 55.5276 43.1224 55.5665C43.0743 55.6053 43.0391 55.6461 43.015 55.6868C42.9928 55.7294 42.9798 55.7646 42.978 55.7961L42.9428 55.8053L42.8965 55.6294C43.0354 55.4702 43.1909 55.3683 43.3594 55.3239C43.5261 55.2794 43.665 55.2924 43.7761 55.3572C43.8854 55.4239 43.9631 55.5442 44.0094 55.7202L44.0076 55.7239ZM43.9298 56.4609L43.8094 55.9998L43.7039 56.0516C43.6372 56.0813 43.5761 56.1109 43.5206 56.1387C43.465 56.1665 43.415 56.1979 43.3687 56.235C43.3224 56.2702 43.2891 56.3146 43.2669 56.3683C43.2446 56.422 43.2409 56.4813 43.2594 56.5498C43.2854 56.6479 43.3317 56.7146 43.3983 56.7516C43.465 56.7868 43.5483 56.7924 43.6465 56.7665C43.6854 56.7553 43.7261 56.7331 43.7687 56.6942C43.8113 56.6572 43.8446 56.6183 43.8669 56.5794C43.8743 56.5665 43.8835 56.5535 43.8928 56.5387C43.902 56.5239 43.9113 56.5091 43.9187 56.4924C43.9261 56.4757 43.928 56.4646 43.928 56.4591L43.9298 56.4609Z" fill="black"/>
<path d="M44.2445 54.7517L44.4593 54.572L44.5963 54.972L44.9222 54.8609C44.9278 54.8924 44.9334 54.9146 44.9371 54.9257C44.9426 54.9424 44.9519 54.9609 44.963 54.9794L44.6371 55.0905L44.9019 55.8646L44.9408 55.9757C44.9815 56.0942 45.0278 56.1831 45.0834 56.2424C45.1371 56.3035 45.2111 56.3165 45.3037 56.285C45.3241 56.2776 45.3667 56.2554 45.4352 56.2165L45.4611 56.2905C45.3722 56.3628 45.2908 56.4109 45.2204 56.435C45.163 56.4554 45.1111 56.4646 45.063 56.4646C45.0148 56.4646 44.9685 56.4517 44.9259 56.4239C44.8834 56.3961 44.8426 56.3554 44.8037 56.2961C44.7667 56.2368 44.7315 56.1628 44.7 56.0702L44.3926 55.172L44.2019 55.2368C44.2019 55.222 44.1982 55.1998 44.1889 55.1757C44.1797 55.1479 44.1704 55.1294 44.1611 55.1202L44.3519 55.0554L44.2482 54.7498L44.2445 54.7517Z" fill="black"/>
<path d="M53.7637 54.572C53.9396 54.6165 55.3489 54.3757 57.3692 53.3239C58.0081 52.9924 58.7063 52.5794 59.447 52.0702" stroke="#A3822E" stroke-width="0.025" stroke-miterlimit="10"/>
<path d="M57.2764 49.9962C57.2764 49.9962 59.9838 48.2776 61.156 46.1425" stroke="#A3822E" stroke-width="0.025" stroke-miterlimit="10"/>
<path d="M58.2207 45.1535C58.2207 45.1535 61.0022 43.4331 62.3411 40.1276" stroke="#A3822E" stroke-width="0.025" stroke-miterlimit="10"/>
<path d="M58.6572 39.5683C58.6572 39.5683 60.6091 37.8628 61.1554 34.3202" stroke="#A3822E" stroke-width="0.025" stroke-miterlimit="10"/>
<path d="M56.582 30.4998L57.7968 26.1183" stroke="#A3822E" stroke-width="0.025" stroke-miterlimit="10"/>
<defs>
<linearGradient id="paint0_linear_4091_3225" x1="21.2444" y1="31.2887" x2="18.0166" y2="35.1424" gradientUnits="userSpaceOnUse">
<stop stop-color="#F7E349"/>
<stop offset="1" stop-color="#A3822E"/>
</linearGradient>
<linearGradient id="paint1_linear_4091_3225" x1="58.5544" y1="31.2887" x2="61.7821" y2="35.1424" gradientUnits="userSpaceOnUse">
<stop stop-color="#F7E349"/>
<stop offset="1" stop-color="#A3822E"/>
</linearGradient>
<linearGradient id="paint2_linear_4091_3225" x1="25.4706" y1="25.7517" x2="21.6168" y2="26.011" gradientUnits="userSpaceOnUse">
<stop stop-color="#F7E349"/>
<stop offset="1" stop-color="#A3822E"/>
</linearGradient>
<linearGradient id="paint3_linear_4091_3225" x1="30.211" y1="22.4184" x2="27.5554" y2="28.0424" gradientUnits="userSpaceOnUse">
<stop stop-color="#F7E349"/>
<stop offset="1" stop-color="#A3822E"/>
</linearGradient>
<linearGradient id="paint4_linear_4091_3225" x1="32.9887" y1="24.3183" x2="24.5535" y2="24.3183" gradientUnits="userSpaceOnUse">
<stop stop-color="#F7E349"/>
<stop offset="1" stop-color="#A3822E"/>
</linearGradient>
<linearGradient id="paint5_linear_4091_3225" x1="21.1335" y1="55.3887" x2="28.215" y2="56.4813" gradientUnits="userSpaceOnUse">
<stop stop-color="#F7E349"/>
<stop offset="1" stop-color="#A3822E"/>
</linearGradient>
<linearGradient id="paint6_linear_4091_3225" x1="24.1296" y1="51.4257" x2="22.7759" y2="57.4665" gradientUnits="userSpaceOnUse">
<stop stop-color="#F7E349"/>
<stop offset="1" stop-color="#A3822E"/>
</linearGradient>
<linearGradient id="paint7_linear_4091_3225" x1="21.463" y1="47.2831" x2="19.2241" y2="51.1368" gradientUnits="userSpaceOnUse">
<stop stop-color="#F7E349"/>
<stop offset="1" stop-color="#A3822E"/>
</linearGradient>
<linearGradient id="paint8_linear_4091_3225" x1="23.7869" y1="49.0924" x2="29.9313" y2="55.4461" gradientUnits="userSpaceOnUse">
<stop stop-color="#F7E349"/>
<stop offset="1" stop-color="#A3822E"/>
</linearGradient>
<linearGradient id="paint9_linear_4091_3225" x1="20.8763" y1="41.8036" x2="17.6485" y2="49.0943" gradientUnits="userSpaceOnUse">
<stop stop-color="#F7E349"/>
<stop offset="1" stop-color="#A3822E"/>
</linearGradient>
<linearGradient id="paint10_linear_4091_3225" x1="21.2002" y1="36.1257" x2="16.3576" y2="42.0609" gradientUnits="userSpaceOnUse">
<stop stop-color="#F7E349"/>
<stop offset="1" stop-color="#A3822E"/>
</linearGradient>
<linearGradient id="paint11_linear_4091_3225" x1="23.9798" y1="28.4702" x2="19.5538" y2="29.0943" gradientUnits="userSpaceOnUse">
<stop stop-color="#F7E349"/>
<stop offset="1" stop-color="#A3822E"/>
</linearGradient>
<linearGradient id="paint12_linear_4091_3225" x1="54.3277" y1="25.7517" x2="58.1814" y2="26.011" gradientUnits="userSpaceOnUse">
<stop stop-color="#F7E349"/>
<stop offset="1" stop-color="#A3822E"/>
</linearGradient>
<linearGradient id="paint13_linear_4091_3225" x1="49.5877" y1="22.4184" x2="52.2433" y2="28.0424" gradientUnits="userSpaceOnUse">
<stop stop-color="#F7E349"/>
<stop offset="1" stop-color="#A3822E"/>
</linearGradient>
<linearGradient id="paint14_linear_4091_3225" x1="46.8092" y1="24.3183" x2="55.2443" y2="24.3183" gradientUnits="userSpaceOnUse">
<stop stop-color="#F7E349"/>
<stop offset="1" stop-color="#A3822E"/>
</linearGradient>
<linearGradient id="paint15_linear_4091_3225" x1="58.6649" y1="55.3887" x2="51.5834" y2="56.4813" gradientUnits="userSpaceOnUse">
<stop stop-color="#F7E349"/>
<stop offset="1" stop-color="#A3822E"/>
</linearGradient>
<linearGradient id="paint16_linear_4091_3225" x1="55.6693" y1="51.4257" x2="57.023" y2="57.4665" gradientUnits="userSpaceOnUse">
<stop stop-color="#F7E349"/>
<stop offset="1" stop-color="#A3822E"/>
</linearGradient>
<linearGradient id="paint17_linear_4091_3225" x1="58.3357" y1="47.2831" x2="60.5746" y2="51.1368" gradientUnits="userSpaceOnUse">
<stop stop-color="#F7E349"/>
<stop offset="1" stop-color="#A3822E"/>
</linearGradient>
<linearGradient id="paint18_linear_4091_3225" x1="56.0115" y1="49.0924" x2="49.867" y2="55.4461" gradientUnits="userSpaceOnUse">
<stop stop-color="#F7E349"/>
<stop offset="1" stop-color="#A3822E"/>
</linearGradient>
<linearGradient id="paint19_linear_4091_3225" x1="58.9227" y1="41.8036" x2="62.1505" y2="49.0943" gradientUnits="userSpaceOnUse">
<stop stop-color="#F7E349"/>
<stop offset="1" stop-color="#A3822E"/>
</linearGradient>
<linearGradient id="paint20_linear_4091_3225" x1="58.5981" y1="36.1257" x2="63.4407" y2="42.0609" gradientUnits="userSpaceOnUse">
<stop stop-color="#F7E349"/>
<stop offset="1" stop-color="#A3822E"/>
</linearGradient>
<linearGradient id="paint21_linear_4091_3225" x1="55.8189" y1="28.4702" x2="60.2448" y2="29.0943" gradientUnits="userSpaceOnUse">
<stop stop-color="#F7E349"/>
<stop offset="1" stop-color="#A3822E"/>
</linearGradient>
<linearGradient id="paint22_linear_4091_3225" x1="39.865" y1="53.196" x2="39.865" y2="64.2646" gradientUnits="userSpaceOnUse">
<stop stop-color="#F7E349"/>
<stop offset="1" stop-color="#A3822E"/>
</linearGradient>
<linearGradient id="paint23_linear_4091_3225" x1="39.8651" y1="24.0516" x2="39.8651" y2="15.5572" gradientUnits="userSpaceOnUse">
<stop stop-color="#F7E349"/>
<stop offset="1" stop-color="#A3822E"/>
</linearGradient>
<linearGradient id="paint24_linear_4091_3225" x1="39.8651" y1="21.8757" x2="39.8651" y2="58.3794" gradientUnits="userSpaceOnUse">
<stop stop-color="#F7E349"/>
<stop offset="1" stop-color="#A3822E"/>
</linearGradient>
</defs>
</svg>
