<svg width="80" height="80" viewBox="0 0 80 80" fill="none" xmlns="http://www.w3.org/2000/svg">
<path d="M19.1025 44.4671C19.1025 43.7269 19.1105 41.7484 19.0923 41.5046C19.1082 38.5605 16.9676 36.4837 15.6152 36.6456C14.6795 36.7268 13.8952 37.1084 13.4741 38.2061C13.0839 39.2291 13.4328 40.5898 14.7304 40.9091C16.1179 41.252 16.9281 41.5373 17.5144 41.9398C18.2328 42.4325 18.8193 43.374 18.8349 44.4683" fill="#0060AF"/>
<path d="M19.6556 48.9423C17.2091 48.9423 14.6948 48.3398 12.1839 47.148L12.1223 47.1177L12.0928 47.0549C10.966 44.6764 10.3701 42.0748 10.3701 39.5296C10.3701 36.9881 10.9416 34.498 12.0692 32.1226L12.1002 32.0595L12.163 32.028C14.4857 30.9277 16.9844 30.3703 19.592 30.3703C22.0211 30.3703 24.6153 30.9908 27.0929 32.1678L27.1565 32.1961L27.1858 32.2604C28.3342 34.6828 28.9398 37.2837 28.9398 39.7868C28.9398 42.2801 28.3583 44.7725 27.2086 47.1934L27.1783 47.257L27.1143 47.2865C24.8271 48.3692 22.2476 48.9423 19.6556 48.9423ZM12.4163 46.8218C14.8556 47.9692 17.2883 48.5487 19.6556 48.5487C22.1657 48.5487 24.6621 48 26.8843 46.96C27.9881 44.6141 28.5477 42.1998 28.5477 39.7868C28.5477 37.364 27.9637 34.8439 26.859 32.4928C24.4545 31.3625 21.9434 30.7631 19.592 30.7631C17.0675 30.7631 14.6478 31.2985 12.3952 32.3549C11.3139 34.6572 10.7636 37.0697 10.7636 39.5296C10.7636 41.9941 11.3355 44.5153 12.4163 46.8218Z" fill="#0060AF"/>
<path d="M18.5218 44.4683C18.5263 43.5195 17.9967 42.6805 17.3046 42.2296C16.6906 41.8311 15.8663 41.5692 14.5366 41.232C14.1256 41.1269 13.6956 40.8933 13.5625 40.5956C13.2104 40.9504 13.1464 41.7481 13.2084 42.2142C13.2804 42.7536 13.9108 43.6427 14.8599 43.6775C15.4396 43.7008 16.1724 43.5528 16.5238 43.4781C17.1301 43.3472 18.0893 43.7269 18.242 44.4671" fill="#0060AF"/>
<path d="M19.5922 32.0572C17.9828 32.0572 16.5926 33.1185 16.5977 34.9551C16.6027 36.4995 17.8447 37.3262 18.2879 37.9168C18.9576 38.8066 19.3201 39.8599 19.3578 41.4716C19.3871 42.7543 19.3856 44.0209 19.3921 44.4698H19.7474C19.7412 44.0002 19.7251 42.6555 19.7435 41.4319C19.7676 39.8198 20.1432 38.8066 20.8132 37.9168C21.2603 37.3262 22.5013 36.4995 22.5039 34.9551C22.51 33.1185 21.1206 32.0572 19.5126 32.0572" fill="#0060AF"/>
<path d="M20.001 44.4671C20.001 43.7269 19.9926 41.7484 20.0105 41.5046C19.9948 38.5605 22.134 36.4837 23.4875 36.6456C24.4233 36.7268 25.2067 37.1084 25.629 38.2061C26.0189 39.2291 25.668 40.5898 24.3719 40.9091C22.9837 41.252 22.1746 41.5373 21.5867 41.9398C20.8691 42.4325 20.3236 43.374 20.3069 44.4683" fill="#0060AF"/>
<path d="M20.5801 44.4683C20.5751 43.5195 21.1045 42.6805 21.7947 42.2296C22.4111 41.8311 23.2364 41.5692 24.565 41.232C24.9768 41.1269 25.4063 40.8933 25.5371 40.5956C25.8908 40.9504 25.9546 41.7481 25.8927 42.2142C25.8192 42.7536 25.1905 43.6427 24.243 43.6775C23.6635 43.7008 22.9268 43.5528 22.5769 43.4781C21.973 43.3472 21.0111 43.7269 20.8577 44.4671" fill="#0060AF"/>
<path d="M21.077 47.5314L20.8711 46.0288L21.3682 45.9534C21.4892 45.9368 21.6366 45.9579 21.6955 46.0338C21.7606 46.113 21.7806 46.1785 21.7931 46.2822C21.8119 46.4107 21.7747 46.5592 21.6301 46.6332V46.6377C21.7916 46.6377 21.8892 46.7537 21.9175 46.9496C21.9217 46.991 21.9339 47.0909 21.9217 47.1743C21.8889 47.3727 21.7705 47.4365 21.5708 47.4645L21.077 47.5314ZM21.397 47.2624C21.4559 47.254 21.5157 47.2508 21.5624 47.221C21.6339 47.1743 21.6274 47.0744 21.6175 47.0002C21.5925 46.8371 21.55 46.7752 21.3771 46.8008L21.2684 46.8175L21.3372 47.2708L21.397 47.2624ZM21.2929 46.568C21.3587 46.5574 21.4479 46.5495 21.4851 46.487C21.5045 46.4453 21.5294 46.4122 21.513 46.3194C21.4928 46.2094 21.4563 46.1413 21.3166 46.1677L21.1865 46.1887L21.2378 46.5738" fill="#0060AF"/>
<path d="M23.2304 46.6277C23.2342 46.6557 23.2388 46.6868 23.2404 46.7147C23.2806 46.9888 23.2304 47.2157 22.9223 47.2782C22.4669 47.3659 22.3797 47.0829 22.2995 46.6868L22.2568 46.4725C22.194 46.0934 22.167 45.8064 22.6111 45.718C22.8614 45.6723 23.0268 45.7719 23.0956 46.0211C23.1063 46.0583 23.1197 46.0951 23.1247 46.1324L22.8523 46.1887C22.8209 46.0951 22.7792 45.9278 22.6566 45.9419C22.4366 45.9683 22.5093 46.2421 22.5319 46.3565L22.6137 46.7678C22.6384 46.8922 22.6872 47.091 22.8776 47.0526C23.0322 47.0217 22.9648 46.7809 22.9511 46.6823" fill="#0060AF"/>
<path d="M23.6675 47.0824L23.5732 45.5273L23.9392 45.4156L24.7066 46.7682L24.4184 46.8544L24.2366 46.5106L23.9166 46.6067L23.958 46.9975L23.6675 47.0824ZM23.8899 46.3556L24.1211 46.2886L23.814 45.6594" fill="#0060AF"/>
<path d="M14.6275 45.9067C14.7421 45.5401 14.8447 45.2701 15.2817 45.39C15.5156 45.4553 15.6606 45.5585 15.6537 45.8302C15.6526 45.8906 15.6326 45.9523 15.6196 46.012L15.3475 45.9369C15.3832 45.7868 15.4058 45.6678 15.2209 45.6109C15.0073 45.5523 14.9552 45.8113 14.9257 45.9231L14.8151 46.3308C14.7799 46.4519 14.7377 46.6519 14.9257 46.7035C15.0811 46.7454 15.1754 46.5929 15.2316 46.3702L15.0413 46.3198L15.1071 46.0839L15.5546 46.2279L15.3421 47.0136L15.1362 46.9577L15.1826 46.7916H15.1767C15.0819 46.9274 14.9662 46.9416 14.865 46.9222C14.4174 46.8011 14.4641 46.5086 14.5709 46.1178" fill="#0060AF"/>
<path d="M16.2927 46.5704L16.1579 47.2096L15.8545 47.144L16.1778 45.6514L16.695 45.7682C16.9977 45.8335 17.0891 45.9683 17.0463 46.2458C17.0218 46.405 16.9433 46.5766 16.7516 46.5627L16.7496 46.5601C16.9116 46.6169 16.9254 46.6985 16.8971 46.8399C16.8849 46.9 16.8006 47.2648 16.8587 47.3237L16.8607 47.3684L16.5468 47.2866C16.5338 47.1854 16.5781 47.0036 16.5957 46.903C16.6135 46.8139 16.6417 46.6883 16.5513 46.6411C16.4805 46.6035 16.4542 46.6053 16.3742 46.5869L16.2927 46.5704ZM16.3444 46.3392L16.5487 46.3943C16.6727 46.4122 16.7417 46.3479 16.7661 46.198C16.7882 46.0606 16.7596 46.0068 16.6483 45.9802L16.4293 45.9358" fill="#0060AF"/>
<path d="M18.2392 45.9849L18.5392 46.0197L18.41 47.069C18.3472 47.4017 18.2186 47.5472 17.8526 47.5016C17.4802 47.4546 17.3918 47.285 17.4144 46.9496L17.5445 45.9012L17.8469 45.9358L17.7171 46.9608C17.7034 47.0722 17.6776 47.2371 17.8757 47.257C18.0513 47.2704 18.0912 47.1541 18.1109 47.0094" fill="#0060AF"/>
<path d="M18.8701 47.5591L18.9604 46.0586L19.5368 46.0835C19.8092 46.0969 19.8806 46.3194 19.872 46.5318C19.8641 46.6608 19.8238 46.805 19.7113 46.8832C19.619 46.9497 19.5005 46.9654 19.3905 46.96L19.2026 46.9496L19.1651 47.5785L18.8701 47.5591ZM19.2112 46.7208L19.3639 46.7293C19.4879 46.7338 19.5701 46.6848 19.5809 46.5026C19.5869 46.3277 19.5208 46.298 19.36 46.291L19.239 46.2868" fill="#0060AF"/>
<path d="M59.527 33.5075L57.2359 37.666C56.3711 36.9638 55.3152 36.4469 53.9678 36.4469C50.7795 36.4469 49.4844 38.8236 49.4844 40.4977C49.4844 41.7404 50.2981 43.5739 53.135 43.5739C54.3258 43.5739 56.0187 42.7455 56.5059 42.3686L54.2399 47.1931C53.1598 47.4086 52.805 47.5422 51.8907 47.5705C46.813 47.722 44.7612 44.6028 44.7627 41.4154C44.7661 37.2019 48.5123 32.0775 54.7226 32.0775C55.1032 32.0775 55.5686 32.2091 55.9666 32.3549L56.3688 31.8406" fill="#0060AF"/>
<path d="M68.9813 31.971L69.6301 47.0853H64.8017L64.7989 44.4931H61.5065L60.4229 47.0853H55.1865L60.661 36.2924L59.4265 36.2844L61.7721 31.971H68.9813ZM64.7676 36.5948L62.9061 40.991H64.8236" fill="#0060AF"/>
<path d="M41.7146 31.971C44.1056 31.9844 45.4568 33.2823 45.4568 35.1572C45.4568 36.8856 44.0318 38.4155 42.4675 39.2066C44.078 39.7987 44.2173 41.252 44.2173 42.2802C44.2173 44.7642 41.7248 47.0852 38.4848 47.0852H31.4189L34.1752 36.4427L33.043 36.4362L35.3574 31.971C35.3574 31.971 39.7702 31.9576 41.7146 31.971ZM39.3687 38.0989C39.8633 38.0989 40.7366 37.9737 40.9549 37.0165C41.1942 35.9774 40.3746 35.9495 39.9815 35.9495L38.5768 35.9433L38.0869 38.099L39.3687 38.0989ZM37.3826 40.7698L36.7359 43.2538H38.3899C39.0407 43.2538 39.9276 42.9308 40.1449 42.1224C40.3596 41.3117 39.7396 40.7698 39.0911 40.7698" fill="#0060AF"/>
</svg>
