<svg width="80" height="80" viewBox="0 0 80 80" fill="none" xmlns="http://www.w3.org/2000/svg">
<path d="M30.549 29.7548L30.1621 31.655C33.9852 31.6398 46.0153 27.2188 46.574 24.5813C46.574 24.5818 46.6109 24.4087 46.6469 24.2346C46.6829 24.0615 46.7185 23.8884 46.7162 23.8884C41.5044 27.3952 33.6311 29.7469 30.549 29.7548ZM29.8196 33.0331L29.459 34.7819C33.145 34.7749 45.3122 30.3466 45.8708 27.7087L46.0255 26.9543C40.636 30.6864 33.0891 32.9421 29.8196 33.0331ZM29.0343 36.2241L28.6465 38.1225C32.3555 38.0505 44.5006 33.6877 45.0592 31.0507L45.2434 30.1486C41.0658 33.052 32.398 36.2421 29.0343 36.2241Z" fill="url(#paint0_linear_4091_3175)"/>
<path d="M10.6184 42.0814H12.0149V46.9603H12.0473C12.5449 46.0942 13.4433 45.5319 14.6958 45.5319C16.6224 45.5319 17.9861 47.1366 17.9695 49.4971C17.9695 52.2727 16.2207 53.6526 14.4867 53.6526C13.363 53.6526 12.4641 53.2195 11.8866 52.1928H11.8386L11.7749 53.4762H10.5547C10.5865 52.9462 10.6184 52.1596 10.6184 51.4698V42.0814ZM12.0149 50.3627C12.0149 50.5391 12.0473 50.715 12.0796 50.8761C12.3524 51.8549 13.171 52.5298 14.1982 52.5298C15.6746 52.5298 16.5577 51.3258 16.5577 49.5437C16.5577 47.9865 15.7544 46.6551 14.2462 46.6551C13.2827 46.6551 12.3838 47.313 12.0948 48.3887C12.063 48.5493 12.0149 48.7414 12.0149 48.9667V50.3627Z" fill="#1B517E"/>
<path d="M25.016 51.6142C25.016 52.2887 25.0478 52.9461 25.1443 53.4761H23.86L23.7478 52.4969H23.6993C23.2663 53.1072 22.4311 53.6525 21.3245 53.6525C19.7511 53.6525 18.9492 52.5458 18.9492 51.4226C18.9492 49.5441 20.6177 48.5164 23.6194 48.534V48.3724C23.6194 47.7311 23.4431 46.5746 21.854 46.5746C21.1315 46.5746 20.3776 46.799 19.8315 47.1527L19.5097 46.2215C20.1523 45.8046 21.084 45.5317 22.0622 45.5317C24.438 45.5317 25.016 47.1527 25.016 48.7094V51.6142ZM23.6518 49.5118C22.1103 49.4795 20.3615 49.7528 20.3615 51.2606C20.3615 52.1765 20.9709 52.61 21.6929 52.61C22.7044 52.61 23.3461 51.9674 23.571 51.31C23.6194 51.1645 23.6518 51.0043 23.6518 50.8608V49.5118Z" fill="#1B517E"/>
<path d="M27.1833 47.8099C27.1833 47.0076 27.1667 46.3506 27.1191 45.708H28.3698L28.4511 46.9919H28.4824C28.8684 46.2546 29.7673 45.5316 31.0512 45.5316C32.1255 45.5316 33.7958 46.1738 33.7958 48.8371V53.4764H32.3826V48.9983C32.3826 47.7462 31.9182 46.7024 30.5853 46.7024C29.6546 46.7024 28.9312 47.3612 28.6907 48.1479C28.6269 48.3233 28.5946 48.5648 28.5946 48.8062V53.4764H27.1833V47.8099Z" fill="#1B517E"/>
<path d="M37.2628 49.2715H37.2946C37.4876 48.9981 37.7604 48.6611 37.9857 48.3887L40.2645 45.7083H41.9658L38.9645 48.9021L42.3822 53.4763H40.6662L37.9857 49.753L37.2628 50.5553V53.4763H35.8662V42.0814H37.2628V49.2715Z" fill="#1B517E"/>
<path d="M54.0192 45.9831C53.9666 45.9203 53.9149 45.8575 53.859 45.7998C53.7676 45.7056 53.666 45.6165 53.558 45.5325C52.9735 45.0551 52.2672 44.7744 51.5059 44.7744C50.6841 44.7744 49.9274 45.104 49.3185 45.653C49.3005 45.6641 49.2853 45.6765 49.2673 45.6867C49.2456 45.6978 49.2146 45.7139 49.1786 45.7042C49.0789 45.6779 48.9713 45.5713 48.9709 45.4184V42.2417C48.9709 42.0427 48.807 41.8816 48.6066 41.8816H47.061C46.8592 41.8816 46.6962 42.0427 46.6962 42.2417V42.3525C46.6962 42.3562 46.6953 42.3594 46.6953 42.3641V42.7325L46.6981 52.9722C46.6981 53.1754 46.8624 53.3407 47.0651 53.3407H48.4644C48.5535 53.3407 48.6343 53.307 48.6985 53.2534C48.7003 53.252 48.7036 53.252 48.7045 53.2502C48.7068 53.2488 48.7077 53.2465 48.7091 53.2446C48.7391 53.2183 48.7627 53.1874 48.7825 53.1528H48.783C48.807 53.1075 48.8231 53.06 48.8287 53.0073C48.8564 52.7811 49.0106 52.656 49.1061 52.6888C49.1389 52.6994 49.1703 52.7151 49.2026 52.7373C49.2354 52.7576 49.2673 52.7797 49.2987 52.8005C49.3933 52.8698 49.8111 53.1555 50.1338 53.2996C50.2968 53.3716 50.8157 53.5475 51.4182 53.5475C52.0211 53.5475 52.4491 53.4141 52.5502 53.3873C52.6517 53.36 52.7515 53.3259 52.8475 53.282C53.3193 53.0789 53.6983 52.8005 53.9869 52.4473C54.2717 52.1006 54.5081 51.6902 54.6997 51.2188C54.9845 50.5979 55.1466 49.8865 55.1466 49.1284C55.1466 47.8907 54.7131 46.7757 54.0192 45.9831ZM50.8277 51.9118C49.6952 51.9118 48.7765 50.6921 48.7765 49.188C48.7765 47.6829 49.6952 46.4632 50.8277 46.4632C51.9597 46.4632 52.8775 47.6829 52.8775 49.188C52.8775 50.6921 51.9597 51.9118 50.8277 51.9118Z" fill="#1B517E"/>
<path d="M59.1703 45.6857C59.1689 45.665 59.1666 45.6446 59.1647 45.6248V45.3533C59.1647 45.1493 59.0004 44.984 58.7963 44.984H57.2386C57.0346 44.984 56.8693 45.1493 56.8693 45.3533V53.7451C56.8615 53.9588 56.6015 54.252 56.301 54.3245C56.1625 54.3674 56.0235 54.3872 55.8841 54.3808C55.7447 54.3757 55.6491 54.432 55.5951 54.5497C55.5739 54.6024 55.5582 54.6725 55.5466 54.7589C55.5369 54.8443 55.5489 55.7436 55.5549 55.8179C55.5609 55.8932 55.5739 55.9569 55.5951 56.01C55.6593 56.1069 55.7719 56.1711 55.9321 56.2034C55.9857 56.2251 57.0198 56.2279 57.7155 56.0589C57.9884 55.9929 58.2081 55.8609 58.391 55.7228C58.5715 55.5834 58.7326 55.4061 58.8729 55.1919C59.0336 54.9352 59.1213 54.6111 59.1379 54.2206C59.143 54.1029 59.1647 53.7954 59.1647 53.7594V46.134C59.1666 46.0929 59.1679 46.0514 59.1703 46.0075C59.1758 45.9009 59.1758 45.7933 59.1703 45.6857Z" fill="#1B517E"/>
<path d="M68.318 45.9831C68.2663 45.9203 68.2142 45.8575 68.1578 45.7998C68.0664 45.7056 67.9644 45.6165 67.8568 45.5325C67.2728 45.0551 66.5665 44.7744 65.8047 44.7744C64.9834 44.7744 64.2267 45.104 63.6183 45.653C63.5998 45.6641 63.5841 45.6765 63.5656 45.6867C63.5444 45.6978 63.5144 45.7139 63.4779 45.7042C63.3782 45.6779 63.2706 45.5713 63.2692 45.4184V42.2417C63.2692 42.0427 63.1067 41.8816 62.9059 41.8816H61.3602C61.1585 41.8816 60.9955 42.0427 60.9955 42.2417V42.3525C60.9955 42.3562 60.9941 42.3594 60.9941 42.3641V42.7325L60.9964 52.9722C60.9964 53.1754 61.1613 53.3407 61.3649 53.3407H62.7623C62.8528 53.3407 62.9341 53.307 62.9978 53.2534C62.9996 53.252 63.0015 53.252 63.0038 53.2502C63.0056 53.2488 63.007 53.2465 63.0084 53.2446C63.037 53.2183 63.0624 53.1874 63.0818 53.1528L63.0827 53.1514C63.1067 53.1075 63.1224 53.06 63.128 53.0073C63.1557 52.7811 63.3089 52.656 63.405 52.6888C63.4377 52.6994 63.4701 52.7151 63.5019 52.7373C63.5338 52.7576 63.5656 52.7797 63.5984 52.8005C63.6926 52.8698 64.1099 53.1555 64.4331 53.2996C64.5961 53.3716 65.1141 53.5475 65.7179 53.5475C66.3195 53.5475 66.7474 53.4141 66.8495 53.3873C66.951 53.36 67.0503 53.3259 67.1468 53.282C67.6172 53.0789 67.9981 52.8005 68.2866 52.4473C68.5715 52.1006 68.8079 51.6902 68.999 51.2188C69.2834 50.5979 69.4454 49.8865 69.4454 49.1284C69.4454 47.8907 69.0115 46.7757 68.318 45.9831ZM65.1275 51.9118C63.9941 51.9118 63.0763 50.6921 63.0763 49.188C63.0763 47.6829 63.9941 46.4632 65.1275 46.4632C66.2595 46.4632 67.1773 47.6829 67.1773 49.188C67.1773 50.6921 66.2595 51.9118 65.1275 51.9118Z" fill="#1B517E"/>
<path d="M57.9904 41.9736C57.7688 41.9768 57.5739 42.0271 57.4063 42.1245C57.2415 42.2252 57.1141 42.3595 57.0236 42.5243C56.9294 42.6919 56.8828 42.8766 56.8828 43.0816C56.8828 43.2796 56.9294 43.4574 57.0167 43.6217C57.104 43.7865 57.2281 43.9176 57.386 44.0178C57.5472 44.1152 57.7351 44.1656 57.9502 44.1693C58.1916 44.1656 58.3966 44.1152 58.5647 44.0178C58.7323 43.9176 58.8597 43.7865 58.9469 43.6217C59.0342 43.4574 59.078 43.2796 59.078 43.0816C59.078 42.8766 59.031 42.6919 58.9437 42.5243C58.8564 42.3595 58.729 42.2252 58.5674 42.1245C58.4063 42.0271 58.212 41.9768 57.9904 41.9736Z" fill="#1B517E"/>
<defs>
<linearGradient id="paint0_linear_4091_3175" x1="27.4689" y1="24.1683" x2="49.2875" y2="23.4064" gradientUnits="userSpaceOnUse">
<stop stop-color="#3AA7DF"/>
<stop offset="0.12" stop-color="#227AAB"/>
<stop offset="0.42" stop-color="#1B517E"/>
<stop offset="0.57" stop-color="#8B8666"/>
<stop offset="1" stop-color="#EFC900"/>
</linearGradient>
</defs>
</svg>
