<svg width="80" height="80" viewBox="0 0 80 80" fill="none" xmlns="http://www.w3.org/2000/svg">
<path fill-rule="evenodd" clip-rule="evenodd" d="M10.3701 37.1371L15.3694 43.4435L10.3701 47.5861V37.1371Z" fill="#F15A23"/>
<path fill-rule="evenodd" clip-rule="evenodd" d="M12.3828 47.5861L16.1445 44.4393L18.7445 47.5861H12.3828Z" fill="#F15A23"/>
<path fill-rule="evenodd" clip-rule="evenodd" d="M10.3701 33.7627L11.6747 35.413L17.0389 42.1159L18.777 40.7317C18.777 40.7317 17.334 39.0329 16.3651 37.1371C14.4708 33.4308 15.8119 31.1232 15.8119 31.1232H10.3701V33.7627Z" fill="#F15A23"/>
<path fill-rule="evenodd" clip-rule="evenodd" d="M17.8037 43.1506L19.5739 41.6885C19.5739 41.6885 21.2646 43.914 23.225 44.4393C25.7939 45.1276 26.9314 43.4435 26.9314 43.4435V47.5862H21.2888L22.5612 46.4861C22.5612 46.4861 21.8973 46.9286 20.2738 45.8041C19.3156 45.1404 17.8037 43.1506 17.8037 43.1506Z" fill="#F15A23"/>
<path fill-rule="evenodd" clip-rule="evenodd" d="M17.9663 31.1111C17.9663 31.1111 17.4016 31.8804 17.8036 33.7627C18.2333 35.7746 19.942 37.9039 19.9381 37.8563C19.9381 37.8563 20.0479 35.7419 21.2887 34.5011C23.9335 31.8564 26.9312 33.4308 26.9312 33.4308V31.1232L17.9663 31.1111Z" fill="#F15A23"/>
<path fill-rule="evenodd" clip-rule="evenodd" d="M26.9308 36.2189C26.9308 36.2189 25.2583 34.7863 23.8042 34.7863C21.944 34.7863 20.9287 36.3922 20.9287 37.5571C20.9287 39.2539 21.7432 40.1967 22.5606 41.0142C23.7354 42.1889 25.1646 43.4559 26.9308 42.4362C26.9308 40.5062 26.9308 36.2189 26.9308 36.2189Z" fill="#F15A23"/>
<path fill-rule="evenodd" clip-rule="evenodd" d="M45.9795 31.2837H49.9263C49.9263 31.2837 53.4226 36.5777 55.1409 38.7649C56.8592 40.9522 58.7088 43.4435 58.7088 43.4435C58.7088 43.4435 58.7088 36.2189 58.7088 32.4693C58.7088 31.9953 57.4643 31.2837 57.4643 31.2837H62.0156C62.0156 31.2837 60.5222 31.8972 60.5222 32.4693C60.5222 37.1371 60.5222 48.4342 60.5222 48.4342C60.5222 48.4342 59.0892 47.6396 57.4643 45.7514C55.6386 43.6299 49.144 35.0649 49.144 35.0649C49.144 35.0649 49.144 43.1506 49.144 46.1586C49.144 46.7267 50.3885 47.5861 50.3885 47.5861H45.9795C45.9795 47.5861 47.1884 46.7198 47.1884 46.1586C47.1884 42.1159 47.1884 36.2189 47.1884 32.4693C47.1884 31.9655 45.9795 31.2837 45.9795 31.2837Z" fill="#005E6A"/>
<path fill-rule="evenodd" clip-rule="evenodd" d="M64.5645 31.2837H69.6299C69.6299 31.2837 68.2697 31.928 68.2697 32.4693C68.2697 36.2189 68.2697 42.4362 68.2697 46.1586C68.2697 46.7501 69.6299 47.5861 69.6299 47.5861H64.5645C64.5645 47.5861 65.8308 46.7311 65.8308 46.1586C65.8308 41.6884 65.8308 36.2189 65.8308 32.4693C65.8308 31.9489 64.5645 31.2837 64.5645 31.2837Z" fill="#005E6A"/>
<path fill-rule="evenodd" clip-rule="evenodd" d="M31.0762 31.2837C31.0762 31.2837 32.3894 31.9385 32.3894 32.4693C32.3894 36.2189 32.3894 41.6884 32.3894 46.1586C32.3894 46.7405 31.0762 47.5861 31.0762 47.5861C31.0762 47.5861 37.6369 47.5861 38.5805 47.5861C39.0495 47.5861 44.3026 46.7271 44.3026 42.6773C44.3026 38.6274 40.2221 38.2482 40.2221 38.2482C40.2221 38.2482 42.7079 37.5571 42.7079 34.7863C42.7079 31.7996 39.0495 31.2837 38.5805 31.2837C37.6058 31.2837 31.0762 31.2837 31.0762 31.2837ZM35.0629 37.9798V32.8832C35.0629 32.8832 37.2381 32.8832 38.1115 32.8832C38.5805 32.8832 40.2221 33.4308 40.2221 35.4625C40.2221 37.1371 38.5805 37.9798 38.1115 37.9798C37.0482 37.9798 35.0629 37.9798 35.0629 37.9798ZM35.0629 39.3165C35.0629 39.3165 38.1115 39.3165 38.5805 39.3165C39.0495 39.3165 41.8168 40.0353 41.8168 42.4362C41.8168 44.884 39.0495 45.7514 38.5805 45.7514C38.1115 45.7514 35.0629 45.7514 35.0629 45.7514V39.3165Z" fill="#005E6A"/>
</svg>
