<svg width="80" height="80" viewBox="0 0 80 80" fill="none" xmlns="http://www.w3.org/2000/svg">
<path d="M29.3598 28.8889H13.7899C11.902 28.8889 10.3701 30.4578 10.3701 32.3956V47.8108C10.3701 49.7308 11.8717 51.2899 13.7387 51.3175L29.3486 51.318C31.2366 51.318 32.772 49.7487 32.772 47.8108L32.7796 32.3956C32.7796 30.4578 31.2472 28.8889 29.3598 28.8889ZM15.6404 49.521L14.7907 49.5312C13.7619 49.5312 12.9313 48.6842 12.9313 47.6433L12.9251 47.4931V33.2578L12.9313 32.4905C12.9727 31.4835 13.7369 30.6699 14.7395 30.6699H16.4652C18.0323 30.6699 19.2995 32.0311 19.2995 33.6343C19.2995 34.4306 18.9876 35.1493 18.4832 35.6746L14.0796 40.1411L18.2087 44.3474C18.739 44.8972 19.0598 45.6186 19.0598 46.4068C19.0598 48.1263 17.5319 49.521 15.6404 49.521ZM28.3349 49.5081L20.6358 49.5058C20.6358 49.5058 21.5261 47.58 21.5261 46.3899C21.5261 44.9386 21.0408 43.6398 20.2811 42.7825L17.6491 40.0974L20.3333 37.3233C21.1366 36.5685 21.6669 35.2331 21.6669 33.7141C21.6669 32.5106 21.3345 31.4443 20.7962 30.6699H22.6627C24.2285 30.6699 25.4971 32.0311 25.4971 33.6343C25.4971 34.4306 25.1865 35.1493 24.6834 35.6746L20.3613 40.0957L29.3353 49.2474C29.0492 49.4265 28.6919 49.5081 28.3349 49.5081ZM30.2131 46.6497L23.7811 40.0943L26.844 36.9824C27.4683 36.2004 27.8658 35.0263 27.8658 33.7141C27.8658 32.5034 27.5271 31.4091 26.9866 30.6351L28.3559 30.6779C29.3829 30.6779 30.2184 31.5223 30.2184 32.5663L30.2131 46.6497Z" fill="#00529C"/>
<path d="M46.58 39.0503C46.7052 38.9251 46.8531 38.7638 47.0238 38.5664C47.194 38.369 47.3553 38.136 47.5077 37.8668C47.6601 37.5977 47.7902 37.2978 47.8976 36.9659C48.0054 36.6344 48.0593 36.2801 48.0593 35.9036C48.0593 35.1689 47.9337 34.4831 47.6828 33.8464C47.4315 33.2101 47.0461 32.654 46.5261 32.1786C46.0061 31.704 45.3564 31.3315 44.5762 31.0624C43.7965 30.7937 42.8862 30.6592 41.8466 30.6592H41.8181H38.8292H38.0512H34.9883V34.0874V45.9559V49.4853H42.519C43.6124 49.4853 44.5669 49.3374 45.3832 49.0415C46.1986 48.7456 46.8759 48.3379 47.4137 47.8179C47.9515 47.2979 48.3503 46.6929 48.6105 46.0026C48.8703 45.3124 49.0004 44.5728 49.0004 43.7837C49.0004 42.7259 48.7584 41.7848 48.2745 40.9596C47.7902 40.1353 47.2252 39.4985 46.58 39.0503ZM43.2502 34.1088C43.5037 34.2055 43.7154 34.3312 43.8807 34.4894C44.3089 34.9002 44.5232 35.3912 44.5232 35.9624C44.5232 36.4806 44.4336 36.9088 44.2554 37.2479C44.0767 37.5875 43.8981 37.8463 43.7198 38.0246H38.4847V33.8865H41.7388C42.3488 33.8865 42.851 33.9618 43.2502 34.1088ZM42.707 41.2826C43.6548 41.2826 44.357 41.5282 44.8142 42.0183C45.2442 42.5008 45.4607 43.0703 45.4607 43.7293C45.4607 44.4084 45.2152 44.9881 44.7242 45.4702C44.2327 45.9523 43.4253 46.1938 42.3002 46.1938H41.88H38.4847V41.2826H42.707Z" fill="#00529C"/>
<path d="M61.7687 41.3767C62.3333 40.9912 62.8042 40.543 63.1808 40.0319C63.5573 39.5208 63.8349 38.9563 64.0144 38.3378C64.1936 37.7189 64.2836 37.0871 64.2836 36.4414C64.2836 35.5988 64.1441 34.8235 63.8665 34.1151C63.588 33.407 63.1714 32.7975 62.6158 32.2864C62.0597 31.7753 61.365 31.3765 60.5314 31.0896C59.6977 30.8031 58.7339 30.6592 57.6404 30.6592H57.542H50.2982H50.2305V49.4853H53.7947V42.4928H55.7819L60.6971 49.4853H64.8748L59.7921 42.2509C60.5447 42.0539 61.2037 41.7625 61.7687 41.3767ZM57.6672 33.8865C57.8913 33.8865 58.1029 33.9012 58.3043 33.9266C58.9397 34.0224 59.4588 34.2492 59.859 34.6097C60.4035 35.1011 60.6757 35.7036 60.6757 36.4174C60.6757 36.7752 60.6173 37.1232 60.5015 37.4622C60.3852 37.8018 60.2025 38.1008 59.9525 38.3592C59.7021 38.6185 59.3809 38.8279 58.9883 38.9888C58.5953 39.1497 58.1221 39.2299 57.5687 39.2299H53.7947V33.8865H57.6672Z" fill="#00529C"/>
<path d="M66.1328 30.6592V30.6645C66.0967 30.6636 66.0615 30.6592 66.0254 30.6592H65.9951V30.6605V37.5612V42.5058V49.4853H69.6293V30.6592H66.1328Z" fill="#00529C"/>
</svg>
