<svg width="80" height="80" viewBox="0 0 80 80" fill="none" xmlns="http://www.w3.org/2000/svg">
<path d="M20.4856 53.561C21.27 53.561 21.9081 53.4604 22.3998 53.2592C22.9033 53.058 23.2955 52.7976 23.5765 52.478C23.8575 52.1584 24.0506 51.7974 24.156 51.395C24.2614 50.9926 24.3141 50.5842 24.3141 50.1699C24.3141 49.6965 24.2497 49.2704 24.1209 48.8916C24.0038 48.5129 23.7931 48.1933 23.4887 47.9329C23.196 47.6725 22.8038 47.4713 22.312 47.3293C21.8203 47.1872 21.1998 47.1162 20.4505 47.1162H16.306V53.561H20.4856ZM16.306 36.7123V43.1038H19.3968C20.0524 43.1038 20.6437 43.0564 21.1705 42.9617C21.6974 42.867 22.1423 42.7013 22.5052 42.4646C22.8799 42.2279 23.1608 41.9024 23.3482 41.4881C23.5472 41.0739 23.6467 40.5531 23.6467 39.9258C23.6467 39.3103 23.5706 38.8013 23.4184 38.3989C23.2662 37.9846 23.0321 37.6532 22.716 37.4047C22.3998 37.1561 21.9959 36.9786 21.5042 36.8721C21.0242 36.7655 20.4505 36.7123 19.7832 36.7123H16.306ZM19.7832 32.2205C21.551 32.2205 23.0555 32.3862 24.2965 32.7176C25.5375 33.049 26.5502 33.5165 27.3347 34.1202C28.1191 34.7238 28.6869 35.4576 29.0381 36.3217C29.4011 37.1857 29.5826 38.1504 29.5826 39.2156C29.5826 39.7956 29.5006 40.3578 29.3367 40.9022C29.1728 41.4349 28.9152 41.9379 28.564 42.4114C28.2127 42.873 27.762 43.2991 27.2117 43.6896C26.6615 44.0802 26 44.4176 25.2273 44.7016C26.9132 45.1159 28.1601 45.7847 28.9679 46.7079C29.7757 47.6311 30.1796 48.8265 30.1796 50.2942C30.1796 51.395 29.9689 52.4188 29.5474 53.3657C29.1259 54.3126 28.5054 55.1411 27.6859 55.8513C26.8781 56.5496 25.877 57.1 24.6829 57.5024C23.4887 57.893 22.1247 58.0883 20.591 58.0883H10.3701V32.2205H19.7832Z" fill="#00A39D"/>
<path d="M48.4137 37.4964C48.2381 37.7801 48.0508 37.9929 47.8517 38.1348C47.6644 38.2767 47.4186 38.3476 47.1142 38.3476C46.8449 38.3476 46.5522 38.2649 46.2361 38.0993C45.9317 37.922 45.5804 37.7269 45.1824 37.5141C44.796 37.3013 44.3511 37.1122 43.8477 36.9467C43.3443 36.7693 42.7706 36.6806 42.1267 36.6806C41.0144 36.6806 40.1832 36.923 39.6329 37.4077C39.0943 37.8806 38.8251 38.525 38.8251 39.3407C38.8251 39.8609 38.989 40.2924 39.3168 40.6353C39.6446 40.9782 40.0719 41.2737 40.5988 41.522C41.1373 41.7703 41.7462 42.0008 42.4252 42.2136C43.116 42.4146 43.8184 42.6452 44.5326 42.9053C45.2468 43.1535 45.9434 43.4491 46.6224 43.792C47.3132 44.1348 47.922 44.5723 48.4488 45.1043C48.9874 45.6363 49.4206 46.2865 49.7484 47.055C50.0762 47.8117 50.2401 48.7279 50.2401 49.8037C50.2401 50.9978 50.0352 52.1151 49.6255 53.1555C49.2157 54.1959 48.6186 55.1062 47.8342 55.8865C47.0615 56.655 46.1014 57.2638 44.9541 57.7131C43.8184 58.1505 42.5247 58.3692 41.073 58.3692C40.2768 58.3692 39.4631 58.2865 38.6319 58.121C37.8123 57.9555 37.0162 57.7249 36.2435 57.4293C35.4708 57.1219 34.7449 56.7614 34.0659 56.3476C33.3868 55.9338 32.7956 55.4727 32.2921 54.9643L34.0483 52.1623C34.1888 51.9614 34.3703 51.7959 34.5927 51.6658C34.8269 51.5239 35.0786 51.453 35.3479 51.453C35.6991 51.453 36.0503 51.5653 36.4016 51.79C36.7645 52.0146 37.1684 52.2629 37.6133 52.5348C38.0699 52.8067 38.5909 53.055 39.1763 53.2796C39.7617 53.5042 40.4524 53.6165 41.2486 53.6165C42.3257 53.6165 43.1628 53.3801 43.7599 52.9072C44.357 52.4225 44.6555 51.6599 44.6555 50.6195C44.6555 50.0166 44.4916 49.5259 44.1638 49.1476C43.836 48.7693 43.4028 48.456 42.8642 48.2077C42.3374 47.9594 41.7344 47.7407 41.0554 47.5515C40.3763 47.3624 39.6797 47.1555 38.9656 46.9308C38.2514 46.6944 37.5548 46.4107 36.8757 46.0796C36.1967 45.7368 35.5879 45.2934 35.0493 44.7496C34.5225 44.1939 34.0951 43.5082 33.7673 42.6924C33.4395 41.8649 33.2756 40.8481 33.2756 39.6422C33.2756 38.6728 33.4688 37.7269 33.8551 36.8048C34.2415 35.8826 34.8093 35.061 35.5586 34.3398C36.3079 33.6186 37.227 33.0452 38.3158 32.6196C39.4046 32.1821 40.6515 31.9634 42.0564 31.9634C42.8408 31.9634 43.6018 32.0284 44.3394 32.1585C45.0887 32.2767 45.797 32.46 46.4644 32.7083C47.1317 32.9447 47.7522 33.2343 48.3259 33.5772C48.9113 33.9082 49.4323 34.2866 49.8889 34.7122L48.4137 37.4964Z" fill="#00A39D"/>
<path fill-rule="evenodd" clip-rule="evenodd" d="M69.6294 31.1505C65.0717 30.7065 63.4692 33.2161 62.5751 34.4574C61.4349 29.4949 59.5067 29.8862 57.4437 28.6361C60.4253 26.9055 61.2592 24.2149 61.1772 22.2222C64.0977 24.3635 66.134 24.1337 68.656 23.4394C67.4011 27.1841 68.1934 28.2411 69.6294 31.1505Z" fill="#F8AD3C"/>
<path d="M60.0973 58.0991H53.9246V31.6457C57.7873 32.169 60.1034 35.3638 60.0973 38.7451V58.0991Z" fill="#00A39D"/>
</svg>
