<svg width="80" height="80" viewBox="0 0 80 80" fill="none" xmlns="http://www.w3.org/2000/svg">
<path d="M22.0675 34.719C19.7466 34.719 17.6013 35.5028 15.8568 36.8338V27.3186H10.3701V56.5042H15.8568V54.8169C17.6 56.1479 19.7466 56.9317 22.0675 56.9317C27.9105 56.9317 32.649 51.9603 32.649 45.8247C32.649 39.6891 27.9105 34.719 22.0675 34.719ZM21.542 51.5099C18.4029 51.5099 15.8568 48.9638 15.8568 45.8247C15.8568 42.6856 18.4029 40.1408 21.542 40.1408C24.6811 40.1408 27.2259 42.6856 27.2259 45.8247C27.2259 48.9638 24.6811 51.5099 21.542 51.5099Z" fill="#015BFD"/>
<path d="M69.6294 42.7505V56.5029H64.1414V43.3435C64.1414 42.7175 63.9531 42.0978 63.6019 41.5786C62.9848 40.6663 61.9147 40.2044 60.8433 40.1166C59.8992 40.039 58.8341 40.2133 58.0045 40.6892C57.7271 40.8483 57.4701 41.0404 57.2398 41.2618C56.4992 41.9744 56.0577 42.9719 56.0577 44.0026V56.5042H50.5698V35.2649H56.0577V36.4088C56.0577 36.0792 57.5566 35.4456 57.8264 35.331C58.5249 35.0358 59.268 34.8539 60.0213 34.7712C64.943 34.2291 69.6268 37.554 69.6268 42.7518L69.6294 42.7505Z" fill="#015BFD"/>
<path d="M48.0478 40.5989V35.2636H41.8486V29.4932H40.0354L36.3606 32.0558V35.8082L32.6477 38.703V40.5989H36.3606V48.8696C36.3606 49.642 36.4446 50.4143 36.6367 51.1613C37.8277 55.803 41.9924 56.9291 44.3273 56.9291C46.9128 56.9291 48.0491 56.0957 48.0491 56.0957V50.88C48.0491 50.88 47.091 51.6384 44.639 51.6384C43.658 51.6384 43.0154 51.3025 42.598 50.8979C42.1081 50.4245 41.8486 49.7603 41.8486 49.0796V40.5976H48.0478V40.5989Z" fill="#015BFD"/>
<path d="M68.4702 23.7609L51.3281 30.2935C50.8726 30.4666 50.5723 30.9043 50.5723 31.3916V32.5368C50.5723 32.7366 50.753 32.888 50.9489 32.8524L66.9929 29.9703C68.5198 29.6955 69.6294 28.3683 69.6294 26.8173V24.5587C69.6294 23.9607 69.0301 23.5471 68.4715 23.7609H68.4702Z" fill="#FF0000"/>
</svg>
