<svg width="80" height="80" viewBox="0 0 80 80" fill="none" xmlns="http://www.w3.org/2000/svg">
<path d="M45.6781 29.7806H34.3219V50.2194H45.6781V29.7806Z" fill="#FF5F00"/>
<path d="M35.0429 40C35.0429 35.8472 36.9897 32.1639 39.982 29.7806C37.7828 28.0472 35.0069 27 31.9785 27C24.8043 27 19 32.8139 19 40C19 47.1861 24.8043 53 31.9785 53C35.0069 53 37.7828 51.9528 39.982 50.2195C36.9897 47.8722 35.0429 44.1528 35.0429 40Z" fill="#EB001B"/>
<path d="M61 40C61 47.1861 55.1957 53 48.0215 53C44.9932 53 42.2172 51.9528 40.018 50.2195C43.0464 47.8361 44.9571 44.1528 44.9571 40C44.9571 35.8472 43.0103 32.1639 40.018 29.7806C42.2172 28.0472 44.9932 27 48.0215 27C55.1957 27 61 32.85 61 40Z" fill="#F79E1B"/>
</svg>
