<svg width="80" height="80" viewBox="0 0 80 80" fill="none" xmlns="http://www.w3.org/2000/svg">
<path d="M23.0576 17.7778H56.7746C56.7746 29.0161 56.7746 40.2544 56.7725 51.4927C45.5342 51.4947 34.2959 51.4927 23.0576 51.4947V17.7778ZM27.5484 24.107C30.1724 27.6205 32.835 31.1034 35.4712 34.6067C32.8575 38.1242 30.1785 41.5928 27.5607 45.1084C33.5451 45.1329 39.5274 45.1084 45.5118 45.1206C48.205 41.6357 50.8004 38.0753 53.512 34.6026L53.461 34.6046C50.8187 31.1013 48.1642 27.6062 45.5261 24.1029C39.5335 24.107 33.541 24.0968 27.5484 24.107Z" fill="#790008"/>
<path d="M27.5488 24.107C33.5414 24.0968 39.5339 24.107 45.5264 24.1029C48.1646 27.6062 50.8191 31.1013 53.4614 34.6046C47.4648 34.6169 41.4682 34.6108 35.4715 34.6067C32.8354 31.1034 30.1727 27.6205 27.5488 24.107Z" fill="white"/>
<path d="M35.471 34.6067C41.4676 34.6108 47.4643 34.6169 53.4609 34.6047L53.5119 34.6027C50.8002 38.0754 48.2049 41.6358 45.5116 45.1207C39.5273 45.1085 33.5449 45.133 27.5605 45.1085C30.1783 41.5929 32.8573 38.1243 35.471 34.6067Z" fill="#ED3024"/>
<path d="M17.6921 57.4207C18.207 56.7786 18.9988 56.3662 19.8215 56.3196C20.6007 56.2594 21.3935 56.5331 21.9791 57.0486C21.7149 57.315 21.45 57.5798 21.1837 57.8441C20.7331 57.4788 20.1072 57.3349 19.5462 57.495C18.9203 57.6593 18.4179 58.1942 18.2782 58.8242C18.1076 59.5082 18.3541 60.2854 18.9166 60.7187C19.5593 61.2446 20.5562 61.2179 21.1879 60.6867C21.4527 60.9521 21.7232 61.2127 21.9812 61.4853C21.4584 61.9396 20.7786 62.2128 20.0847 62.2211C19.2102 62.2452 18.3342 61.8606 17.7632 61.1975C17.3639 60.7427 17.1096 60.1619 17.0526 59.559C16.9725 58.7991 17.2064 58.0115 17.6921 57.4207Z" fill="#790008"/>
<path d="M23.0303 56.4767C23.4097 56.4767 23.7886 56.4772 24.168 56.4762C24.169 58.3387 24.168 60.2007 24.1685 62.0632C23.7891 62.0632 23.4097 62.0637 23.0303 62.0627C23.0308 60.2007 23.0303 58.3387 23.0303 56.4767Z" fill="#790008"/>
<path d="M25.5285 56.4636C25.8975 56.4626 26.2664 56.4657 26.6359 56.462C27.2937 57.6453 27.9348 58.839 28.601 60.018C29.2467 58.8311 29.9019 57.65 30.5477 56.4631C30.9198 56.4641 31.2919 56.4631 31.6645 56.4636C31.6624 58.3266 31.6682 60.1892 31.6614 62.0522C31.2825 62.0464 30.9041 62.0532 30.5252 62.0485C30.5278 60.9459 30.5252 59.8438 30.5268 58.7416C29.8742 59.8558 29.2525 60.9888 28.5884 62.0956C27.9541 60.9741 27.3026 59.8626 26.6657 58.7427C26.6678 59.8453 26.6662 60.9474 26.6667 62.0501C26.2873 62.0501 25.9084 62.0496 25.529 62.0506C25.5275 60.1881 25.529 58.3261 25.5285 56.4636Z" fill="#790008"/>
<path d="M32.9607 56.4762C33.7289 56.4772 34.4966 56.4762 35.2649 56.4767C35.6202 56.4835 35.985 56.5584 36.2885 56.7515C37.0217 57.1994 37.1902 58.3628 36.5779 58.9793C36.4994 59.063 36.4062 59.1321 36.3136 59.1991C36.6627 59.3827 36.9306 59.7234 36.9955 60.1159C37.0902 60.6455 36.9693 61.2536 36.5585 61.6273C36.2309 61.9407 35.7652 62.0538 35.3235 62.0595C34.5359 62.0679 33.7478 62.0611 32.9602 62.0632C32.9607 60.2007 32.9591 58.3387 32.9607 56.4762ZM34.0984 57.4972C34.0979 57.9028 34.0984 58.3084 34.0984 58.7139C34.4333 58.7129 34.7688 58.7155 35.1042 58.7134C35.2994 58.7097 35.5103 58.6689 35.6532 58.525C35.8562 58.3094 35.8615 57.9457 35.6809 57.7144C35.5422 57.5474 35.313 57.4956 35.1053 57.4967C34.7693 57.4972 34.4338 57.4972 34.0984 57.4972ZM34.0984 59.7349C34.0984 60.1662 34.0979 60.5979 34.0984 61.0296C34.4684 61.0302 34.8384 61.0291 35.2084 61.0307C35.3816 61.0359 35.5637 60.9873 35.6935 60.8674C35.952 60.6183 35.9567 60.1541 35.693 59.9071C35.5506 59.7721 35.3465 59.737 35.1576 59.7344C34.8044 59.7339 34.4511 59.7344 34.0984 59.7349Z" fill="#790008"/>
<path d="M39.3567 56.4641C39.5466 56.4662 39.7366 56.4573 39.9266 56.4667C40.0134 56.5342 40.0621 56.6399 40.1317 56.7247C41.1742 58.1487 42.2083 59.5789 43.2565 60.9987C43.2554 59.4868 43.2565 57.9754 43.2559 56.4636C43.4522 56.4636 43.6484 56.4636 43.8447 56.4636C43.8447 58.3214 43.8447 60.1792 43.8447 62.037C43.6463 62.037 43.448 62.0364 43.2502 62.038C42.1491 60.5235 41.0486 59.0085 39.9459 57.495C39.9459 59.009 39.9459 60.523 39.9459 62.0364C39.7481 62.0359 39.5503 62.0406 39.3535 62.0323C39.3624 60.1765 39.3551 58.3203 39.3567 56.4641Z" fill="#790008"/>
<path d="M45.3107 56.4636C45.507 56.4636 45.7027 56.4636 45.8995 56.4636C45.8995 58.3214 45.899 60.1787 45.8995 62.036C45.7032 62.0375 45.507 62.0365 45.3113 62.037C45.3097 60.1792 45.3113 58.3214 45.3107 56.4636Z" fill="#790008"/>
<path d="M46.8057 62.0747C47.4844 60.2164 48.1637 58.3581 48.8472 56.5018C49.1193 56.5044 49.3909 56.5024 49.663 56.5029C50.3104 58.3476 50.9567 60.1934 51.6061 62.037C51.3748 62.0365 51.1435 62.0376 50.9127 62.0365C50.7405 61.543 50.5658 61.05 50.3883 60.5581C49.6196 60.5586 48.8513 60.5586 48.0831 60.5586C47.9114 61.0636 47.7466 61.5718 47.5744 62.0768C47.318 62.0747 47.0616 62.0778 46.8057 62.0747ZM48.3186 59.8904C48.9304 59.893 49.5427 59.8909 50.1544 59.8914C49.8478 58.9976 49.5453 58.1022 49.2438 57.2067C48.9366 58.1016 48.6232 58.9944 48.3186 59.8904Z" fill="#790008"/>
<path d="M52.9129 57.415C53.3776 56.9366 53.9994 56.5928 54.6697 56.5311C55.4961 56.4479 56.3187 56.7545 56.987 57.225C56.8567 57.394 56.7196 57.5573 56.5903 57.7269C56.3679 57.4102 55.9739 57.292 55.6185 57.1962C55.0005 57.0261 54.2992 57.1182 53.7775 57.5018C53.3059 57.8577 52.9909 58.3983 52.8658 58.9713C52.7952 59.5637 52.8538 60.2106 53.2055 60.7119C53.3264 60.9013 53.5189 61.0233 53.6838 61.1703C54.0334 61.4555 54.4918 61.5848 54.9387 61.5806C55.4887 61.5859 56.033 61.4451 56.5359 61.2289C56.5354 60.6564 56.5369 60.0839 56.5354 59.5114C56.0995 59.5119 55.6635 59.5119 55.2276 59.5114C55.2276 59.3377 55.2276 59.1639 55.2271 58.9902C55.8462 58.9865 56.4653 58.9902 57.0849 58.9881C57.0859 59.8735 57.0849 60.7585 57.0854 61.6439C56.4946 61.9736 55.8174 62.1118 55.1507 62.1783C54.4447 62.1929 53.7073 62.0118 53.1578 61.5508C52.6209 61.1096 52.3074 60.4382 52.2153 59.7579C52.1447 58.93 52.3551 58.0482 52.9129 57.415Z" fill="#790008"/>
<path d="M58.0293 62.0689C58.7112 60.2148 59.3899 58.3596 60.0666 56.5033C60.3387 56.5018 60.6109 56.5049 60.8835 56.5007C61.5089 58.2617 62.1201 60.0279 62.7434 61.79C62.7727 61.869 62.7889 61.9517 62.7957 62.0365C62.5765 62.0375 62.3582 62.0365 62.14 62.0375C61.9626 61.5456 61.7899 61.0516 61.6151 60.5591C60.8437 60.5581 60.0724 60.5575 59.3015 60.5596C59.1361 61.0657 58.9645 61.5697 58.7981 62.0752C58.5416 62.0736 58.2852 62.0836 58.0293 62.0689ZM60.4648 57.2104C60.1613 58.1058 59.8447 58.9965 59.5438 59.8929C60.1535 59.8898 60.7637 59.8919 61.3733 59.8919C61.0766 58.9959 60.7689 58.1037 60.4648 57.2104Z" fill="#790008"/>
</svg>
