<svg width="80" height="80" viewBox="0 0 80 80" fill="none" xmlns="http://www.w3.org/2000/svg">
<path fill-rule="evenodd" clip-rule="evenodd" d="M33.7949 44.7028C34.9211 44.7834 36.2335 43.9085 36.6958 43.409C38.3029 41.67 38.3417 39.1553 36.7237 37.3341C36.1218 36.6562 34.707 35.9069 33.8119 36.0124H30.5713V44.6919L33.8026 44.7028H33.7949ZM32.3987 42.8226V37.8817C32.906 37.8485 33.4148 37.8485 33.9221 37.8817C34.3212 37.928 34.7019 38.0754 35.0281 38.3099C36.8897 39.582 36.114 42.6147 33.891 42.8179C33.3943 42.8529 32.8957 42.8544 32.3987 42.8226Z" fill="#008CEB"/>
<path fill-rule="evenodd" clip-rule="evenodd" d="M62.2438 44.7183H64.0914V42.8474H67.7571L67.768 44.709H69.6156V41.625C69.6156 40.6942 69.6932 39.5339 69.4605 38.6915C69.2491 37.9204 68.7913 37.2395 68.1569 36.7528C67.5225 36.2661 66.7463 36.0003 65.9467 35.9959C65.1472 35.9915 64.3681 36.2488 63.7284 36.7285C63.0887 37.2082 62.6234 37.8839 62.4036 38.6527C62.1554 39.4842 62.2392 40.6772 62.2392 41.6002C62.2392 42.6426 62.2283 43.6913 62.2392 44.7338L62.2438 44.7183ZM64.093 40.9657C64.0821 40.1901 63.9999 39.3601 64.3645 38.7629C64.5245 38.4879 64.7545 38.2602 65.031 38.103C65.3076 37.9458 65.6209 37.8646 65.939 37.8678C66.2555 37.8701 66.566 37.9545 66.8401 38.1128C67.1141 38.271 67.3425 38.4977 67.5027 38.7706C67.8626 39.3911 67.7773 40.1668 67.768 40.9673L64.093 40.9657Z" fill="#008CEB"/>
<path fill-rule="evenodd" clip-rule="evenodd" d="M41.1152 44.7167H42.9566C42.9566 44.3257 42.9069 43.1297 42.9737 42.8458H46.6254L46.6378 44.7151H48.4823C48.473 43.6789 48.4823 42.6442 48.4823 41.6125C48.4823 40.7283 48.5645 39.4625 48.3271 38.6775C48.1145 37.9074 47.656 37.2278 47.0215 36.7422C46.387 36.2567 45.6112 35.9917 44.8123 35.9877C44.0133 35.9836 43.2349 36.2407 42.5955 36.7198C41.9561 37.199 41.4908 37.8739 41.2703 38.6418C41.0237 39.4485 41.1075 40.6818 41.1075 41.58C41.1075 42.6162 41.0842 43.6789 41.1075 44.712L41.1152 44.7167ZM42.9581 40.9657C42.9457 40.19 42.8666 39.3492 43.2312 38.7644C43.3911 38.4901 43.6202 38.2626 43.8955 38.1044C44.1708 37.9463 44.4828 37.8631 44.8003 37.8631C45.1178 37.8631 45.4298 37.9463 45.7051 38.1044C45.9804 38.2626 46.2094 38.4901 46.3694 38.7644C46.7309 39.3849 46.644 40.1729 46.6378 40.9626L42.9581 40.9657Z" fill="#008CEB"/>
<path fill-rule="evenodd" clip-rule="evenodd" d="M51.7227 39.402L51.6963 40.6942C51.6963 41.7801 51.6435 43.8077 51.6963 44.6904H53.502C53.5439 44.0698 53.4368 39.6626 53.5501 39.5215C53.5501 38.6651 54.4452 37.8678 55.348 37.8647C55.8173 37.8619 56.2692 38.0422 56.6077 38.3673C56.8373 38.5767 57.1894 39.0545 57.1832 39.537C57.267 39.5851 57.2003 44.1908 57.2266 44.7012H59.0339L59.0199 39.4346C59.0649 39.0219 58.8167 38.3844 58.6569 38.0617C58.3606 37.4469 57.8981 36.9273 57.3217 36.5619C56.7453 36.1964 56.0781 35.9996 55.3956 35.9938C54.7132 35.988 54.0427 36.1734 53.4602 36.529C52.8777 36.8846 52.4064 37.3962 52.0996 38.0058C51.9445 38.3239 51.6839 38.9785 51.7227 39.402Z" fill="#008CEB"/>
<path d="M18.8417 48.7951C23.5204 48.7951 27.3133 45.0022 27.3133 40.3235C27.3133 35.6447 23.5204 31.8519 18.8417 31.8519C14.163 31.8519 10.3701 35.6447 10.3701 40.3235C10.3701 45.0022 14.163 48.7951 18.8417 48.7951Z" fill="#008CEB"/>
<path d="M23.7786 40.3591V42.7434C23.7786 42.8986 23.7119 42.9311 23.5816 42.8551C23.4073 42.7505 23.2258 42.6582 23.0386 42.579C22.4732 42.3537 21.8608 42.2722 21.2562 42.3416C20.5963 42.4272 19.9486 42.5897 19.3264 42.8256C18.7059 43.0351 18.0978 43.2616 17.4648 43.4368C16.9406 43.5925 16.395 43.6643 15.8484 43.6494C15.2426 43.6259 14.6538 43.4423 14.142 43.1173C14.0777 43.0786 14.0249 43.0233 13.9892 42.9573C13.9534 42.8913 13.936 42.8169 13.9388 42.7419C13.9388 41.1802 13.9388 39.6186 13.9388 38.057C13.9388 37.981 13.9388 37.891 14.007 37.8522C14.0753 37.8134 14.1451 37.877 14.204 37.9158C14.7598 38.2916 15.4181 38.4866 16.0888 38.4743C16.5685 38.4546 17.0428 38.3663 17.4974 38.2121C18.1427 38.012 18.7664 37.7467 19.4008 37.5218C19.8947 37.332 20.4011 37.1765 20.9165 37.0564C21.3587 36.9528 21.8176 36.942 22.2643 37.0245C22.7109 37.1069 23.1357 37.281 23.5118 37.5357C23.598 37.5886 23.6686 37.6634 23.7163 37.7526C23.764 37.8417 23.7871 37.942 23.7832 38.043C23.7832 38.8187 23.7832 39.5943 23.7832 40.37L23.7786 40.3591Z" fill="#FEFEFE"/>
</svg>
