<svg width="80" height="80" viewBox="0 0 80 80" fill="none" xmlns="http://www.w3.org/2000/svg">
<path d="M39.7339 46.0731C48.5702 46.0731 55.7334 38.9099 55.7334 30.0736C55.7334 21.2373 48.5702 14.0741 39.7339 14.0741C30.8976 14.0741 23.7344 21.2373 23.7344 30.0736C23.7344 38.9099 30.8976 46.0731 39.7339 46.0731Z" fill="#00AED6"/>
<path fill-rule="evenodd" clip-rule="evenodd" d="M49.0673 29.607C48.934 27.607 47.2007 26.0071 45.2007 26.1404H35.0677C34.6677 26.1404 34.4011 25.8737 34.4011 25.4738C34.4011 25.0738 34.6677 24.8071 35.0677 24.8071H45.3341C45.2674 23.4738 44.2674 22.0739 43.0008 21.8739C40.0009 21.3405 36.9343 21.3405 34.0011 21.8739C32.3345 22.1405 31.0678 23.8071 30.8012 25.4071C30.3345 28.5403 30.3345 31.7402 30.8012 34.8735C31.1345 36.6734 32.6011 38.14 34.4677 38.4067C38.2009 38.8733 41.9342 38.8733 45.6007 38.4067C47.2673 38.2067 48.334 36.6734 48.6673 35.0735C49.0006 33.2069 49.1339 31.4069 49.0673 29.607ZM45.734 31.8069V32.4069C45.734 32.8069 45.4674 33.0735 45.0674 33.0735C44.6674 33.0735 44.4008 32.8069 44.4008 32.4069V31.8069C44.2008 31.6069 44.0674 31.3402 44.0674 31.0736C44.0674 30.5403 44.5341 30.0736 45.0674 30.0736C45.6007 30.0736 46.0674 30.5403 46.0674 31.0736C46.0674 31.3402 45.934 31.6069 45.734 31.8069Z" fill="white"/>
<path d="M15.6012 62.0726C16.2679 63.0726 17.4012 63.6059 18.6011 63.5392C20.0011 63.5392 21.0011 62.6726 21.0011 61.4726V60.806C20.2678 61.5393 19.2011 61.9393 18.1345 61.8726C15.5346 61.9393 13.4013 59.9393 13.3346 57.3394C13.268 54.7395 15.2679 52.6062 17.8678 52.5395C17.9345 52.5395 18.0012 52.5395 18.0678 52.5395C19.1345 52.4729 20.2011 52.8729 21.0011 53.6062V52.7395H23.401V61.4059C23.401 63.9392 21.4011 65.6725 18.6011 65.6725C16.7345 65.8058 15.0012 65.0058 13.8013 63.5392L15.6012 62.0726ZM20.9344 56.6728C20.9344 55.6728 19.8011 54.7395 18.5345 54.7395C16.9345 54.7395 15.8679 55.7394 15.8679 57.2061C15.8012 58.4727 16.7345 59.606 18.0678 59.7393C18.2011 59.7393 18.3345 59.7393 18.4678 59.7393C19.8678 59.7393 21.0011 58.8727 21.0011 57.806V56.6728H20.9344Z" fill="black"/>
<path d="M29.6675 52.4729C32.6007 52.4729 34.6673 54.5395 34.6673 57.2061C34.6673 59.8727 32.5341 61.9393 29.6675 61.9393C27.0676 62.0726 24.801 60.0727 24.6676 57.4727C24.5343 54.8728 26.4676 52.6062 29.0675 52.4729C29.2675 52.4729 29.4675 52.4729 29.6675 52.4729ZM29.6675 54.6728C28.2675 54.6728 27.1342 55.8061 27.1342 57.2061C27.1342 58.606 28.2675 59.7393 29.6675 59.7393C31.0674 59.7393 32.2007 58.606 32.2007 57.2061C32.2674 55.8728 31.2008 54.7395 29.9341 54.6728C29.8008 54.6728 29.7341 54.6728 29.6675 54.6728Z" fill="black"/>
<path d="M36.0674 52.7396H38.4673V53.5395H38.534C39.3339 52.8062 40.3339 52.4729 41.4006 52.4729C44.0005 52.5396 46.0671 54.6728 46.0004 57.2728C45.9338 59.806 43.9338 61.8059 41.4006 61.8726C40.4006 61.8726 39.4006 61.5393 38.6006 60.9393H38.534V65.4058H36.0674V52.7396ZM40.9339 54.6728C39.6006 54.6728 38.534 55.6061 38.534 56.6061V57.7394C38.534 58.806 39.6006 59.6727 41.0006 59.6727C42.4005 59.6727 43.5338 58.5394 43.4672 57.1394C43.4672 55.8061 42.3339 54.6728 40.9339 54.6728Z" fill="black"/>
<path d="M50.6669 56.3395C52.2668 56.1395 52.8001 55.8728 52.8001 55.4061C52.8001 54.8062 52.2002 54.4728 51.2002 54.4728C50.2002 54.4062 49.2002 55.0728 49.0003 56.0728L46.667 55.6061C47.0003 53.8062 48.8669 52.4729 51.2002 52.4729C53.8001 52.4729 55.4001 53.8062 55.4001 55.9395V61.606H53.0668V60.606C52.3335 61.4726 51.2002 61.9393 50.0669 61.8059C48.1336 61.8059 46.7337 60.7393 46.7337 59.1394C46.7337 57.5394 47.8003 56.7394 50.6669 56.3395ZM52.9335 57.2728C52.6668 57.6061 52.2002 57.8061 51.0002 58.0061C49.5336 58.2727 49.0003 58.5394 49.0003 59.0727C49.0003 59.606 49.4669 59.8727 50.4002 59.8727C51.8002 59.8727 52.9335 59.206 52.9335 58.3394V57.2728Z" fill="black"/>
<path d="M59.7999 61.1394L55.7334 52.7396H58.4667L61.1999 58.5394H61.2666L63.9332 52.7396H66.6664L60.5333 65.4059H57.7333L59.7999 61.1394Z" fill="black"/>
</svg>
