<svg width="80" height="80" viewBox="0 0 80 80" fill="none" xmlns="http://www.w3.org/2000/svg">
<path fill-rule="evenodd" clip-rule="evenodd" d="M69.3481 29.2829C69.32 29.5045 69.292 29.7262 69.2639 29.9478C69.0619 31.53 68.3915 32.8905 67.289 34.0351C66.1697 35.2021 64.8091 35.9315 63.2101 36.198C60.646 36.6272 57.6808 35.5752 56.1772 33.2244C55.9443 32.8597 55.7928 32.4445 55.6049 32.0518C55.5572 31.9508 55.574 31.8666 55.6526 31.774C55.9303 31.4514 56.194 31.1204 56.4633 30.7922C56.4914 30.7585 56.5054 30.7164 56.5475 30.6407C56.6485 30.9184 56.7102 31.1344 56.7999 31.3364C57.6528 33.2552 59.1143 34.4166 61.179 34.7673C64.1695 35.2779 67.0281 33.2636 67.7098 30.4078C67.8164 29.9618 67.8641 29.4961 67.8837 29.0389C67.9061 28.4441 67.8921 27.8438 67.8556 27.2463C67.7883 26.1101 67.3731 25.0974 66.683 24.2025C65.6731 22.8952 64.349 22.0985 62.7051 21.9078C61.0724 21.7198 59.6221 22.2135 58.3597 23.2515C57.044 24.3344 55.905 25.5911 54.811 26.8928C54.3032 27.4987 53.8151 28.1215 53.3186 28.7359C53.2877 28.7724 53.254 28.806 53.2007 28.8649C53.1951 28.7892 53.1923 28.7471 53.1923 28.705C53.1923 28.1019 53.1895 27.4959 53.1951 26.8928C53.1951 26.8086 53.2204 26.7105 53.2709 26.6459C54.1433 25.5154 55.0494 24.4129 56.065 23.4086C56.8168 22.6652 57.6331 21.9975 58.5252 21.4309C59.3444 20.9091 60.2505 20.6145 61.2099 20.4883C65.0195 19.9889 68.3382 22.682 69.1208 25.9867C69.2134 26.371 69.2443 26.7694 69.3032 27.1621C69.3172 27.2491 69.334 27.336 69.3509 27.423V29.2745L69.3481 29.2829Z" fill="#00B041"/>
<path fill-rule="evenodd" clip-rule="evenodd" d="M50.0672 60.231C50.1766 60.318 50.2552 60.3769 50.3337 60.4414C51.4811 61.3728 52.7855 61.9647 54.2527 62.1527C55.229 62.2789 56.2024 62.2593 57.1338 61.8721C58.1689 61.4401 58.6879 60.621 58.7833 59.5325C58.8338 58.9574 58.8142 58.3767 58.8226 57.7988C58.8226 57.7512 58.8114 57.7035 58.8057 57.6361C58.7665 57.6558 58.7412 57.6614 58.7272 57.6782C58.0736 58.4216 57.2207 58.8088 56.2782 58.9939C54.7437 59.2997 53.2568 59.1342 51.8654 58.3964C50.3786 57.6081 49.5202 56.3232 49.1078 54.7186C48.9451 54.0874 48.875 53.445 48.875 52.7942C48.875 49.9384 48.875 47.0854 48.875 44.2296C48.875 44.0631 48.9601 43.9799 49.1302 43.9799C50.1149 43.9799 51.0968 43.9855 52.0814 43.9743C52.2806 43.9743 52.3255 44.0332 52.3255 44.224C52.3199 47.1247 52.3058 50.0253 52.3311 52.9232C52.3423 54.2557 53.1334 55.6051 54.8138 55.8968C55.7844 56.0652 56.7102 55.9109 57.5097 55.2853C58.1128 54.8112 58.4158 54.1632 58.514 53.417C58.5533 53.1252 58.5561 52.8278 58.5561 52.5333C58.5561 49.7673 58.5561 47.004 58.5561 44.238C58.5561 44.0641 58.644 43.9771 58.8198 43.9771C59.7792 43.9771 60.7358 43.9771 61.6952 43.9771C61.8411 43.9771 61.8944 44.0164 61.8944 44.1735C61.8888 49.2932 61.9056 54.41 61.8804 59.5297C61.8747 60.9296 61.4596 62.2256 60.5029 63.3C59.7034 64.1977 58.6823 64.7279 57.5349 65.0309C56.8561 65.2105 56.1631 65.289 55.4618 65.3227C53.5149 65.4124 51.7756 64.871 50.2496 63.6507C50.1121 63.5413 50.0504 63.4235 50.0532 63.2439C50.0616 62.2985 50.056 61.3532 50.0588 60.4078C50.0588 60.3629 50.0644 60.318 50.07 60.2282L50.0672 60.231Z" fill="#00B041"/>
<path fill-rule="evenodd" clip-rule="evenodd" d="M20.993 59.2071H20.763C19.8176 59.2071 18.8722 59.2015 17.9268 59.2127C17.7249 59.2127 17.6828 59.151 17.6828 58.963C17.6884 54.9318 17.6856 50.9006 17.6856 46.8666C17.6856 44.9253 17.6856 42.984 17.6856 41.04C17.6856 40.7875 17.6856 40.7847 17.9381 40.7847C20.2861 40.7847 22.6341 40.7454 24.9794 40.8015C26.6738 40.8408 28.2279 41.357 29.4566 42.6053C30.2281 43.388 30.6826 44.3446 30.8873 45.4134C31.1482 46.7712 31.1202 48.1261 30.6629 49.4418C29.9728 51.4196 28.5421 52.5866 26.5475 53.1084C25.8743 53.2851 25.187 53.3552 24.4884 53.3552C23.4084 53.3552 22.3284 53.3552 21.2483 53.3552C20.9958 53.3552 20.9958 53.3552 20.9958 53.6105C20.9958 55.3919 20.9958 57.1733 20.9958 58.9546V59.2043L20.993 59.2071ZM22.8782 50.2778C23.3355 50.2778 23.7899 50.2918 24.2472 50.2722C24.6371 50.2554 25.0327 50.2357 25.4114 50.1572C26.4522 49.9384 27.2096 49.3577 27.5574 48.3281C27.838 47.5034 27.8408 46.6618 27.5967 45.8286C27.3611 45.0207 26.8365 44.4652 26.051 44.151C25.5601 43.9547 25.0467 43.8789 24.5277 43.8705C23.4112 43.8565 22.2919 43.8677 21.1726 43.8649C21.0295 43.8649 20.9874 43.9182 20.9874 44.0585C20.9902 46.0643 20.993 48.0672 20.9874 50.073C20.9874 50.2357 21.0407 50.2806 21.1978 50.2806C21.7561 50.2722 22.3171 50.2806 22.8754 50.2806L22.8782 50.2778Z" fill="#00B041"/>
<path fill-rule="evenodd" clip-rule="evenodd" d="M43.4747 57.6417C42.7173 58.4328 41.8056 58.8705 40.7704 59.0753C40.0018 59.2295 39.2275 59.2183 38.4533 59.137C37.5107 59.0388 36.6158 58.7891 35.7826 58.3318C34.2397 57.4818 33.2971 56.1633 32.823 54.4858C32.6154 53.748 32.52 52.9905 32.5172 52.2247C32.5172 51.4869 32.4976 50.7435 32.5593 50.0085C32.8006 47.1555 34.4136 44.7822 37.5584 44.036C39.2023 43.6461 40.8518 43.6797 42.4536 44.2352C44.6137 44.987 45.9322 46.5243 46.4904 48.7293C46.6532 49.3773 46.7289 50.0394 46.7289 50.7098C46.7289 53.3917 46.7289 56.0708 46.7289 58.7526C46.7289 58.9341 46.6382 59.0248 46.4568 59.0248C45.5366 59.0248 44.6193 59.022 43.6992 59.0276C43.5308 59.0276 43.4607 58.9911 43.4691 58.8031C43.4832 58.4132 43.4747 58.0233 43.4747 57.6333V57.6417ZM43.5084 51.5514C43.4691 51.0072 43.4804 50.4574 43.385 49.9244C43.1493 48.6283 42.4199 47.7025 41.1716 47.2341C40.3889 46.9395 39.581 46.9171 38.7646 47.0629C37.247 47.3322 36.0772 48.5189 35.8499 50.0394C35.7237 50.8894 35.7265 51.745 35.8163 52.595C35.9649 54.0117 36.6859 55.0581 37.9848 55.6668C38.7927 56.0483 39.6483 56.082 40.5264 55.9642C41.9094 55.7762 42.9445 54.8897 43.3205 53.546C43.5028 52.8924 43.4832 52.2247 43.514 51.5542L43.5084 51.5514Z" fill="#00B041"/>
<path fill-rule="evenodd" clip-rule="evenodd" d="M25.1898 27.3809H19.1387C19.1331 27.2968 19.1275 27.2294 19.1275 27.1621C19.1275 26.8395 19.1275 26.5197 19.1275 26.1971C19.1275 26.0213 19.2191 25.9334 19.4024 25.9334H24.3033C25.0102 25.9334 25.7172 25.939 26.4241 25.9306C26.5924 25.9306 26.6457 25.9783 26.6429 26.1466C26.6373 28.6601 26.6429 31.1737 26.6345 33.6901C26.6345 33.7938 26.5868 33.9201 26.5195 33.9986C25.7873 34.8571 24.8587 35.449 23.8404 35.9034C22.8782 36.3326 21.8683 36.5767 20.8191 36.6917C19.0377 36.8853 17.3013 36.7226 15.6602 35.9652C12.7903 34.6326 10.9893 32.4052 10.3357 29.3082C9.95135 27.4847 9.98782 25.6529 10.6583 23.8855C11.5392 21.5599 13.1354 19.8599 15.3123 18.6901C16.4653 18.0701 17.6996 17.6998 19.0041 17.5539C19.9607 17.4473 20.9145 17.4866 21.8683 17.5595C22.8053 17.6325 23.7226 17.8064 24.6063 18.1346C24.7858 18.202 24.8672 18.2833 24.8559 18.4909C24.8363 18.9313 24.8503 19.3746 24.8503 19.8431C24.6708 19.7533 24.5221 19.6719 24.3678 19.599C23.5655 19.2119 22.7155 19.0015 21.8346 18.9313C21.195 18.8808 20.5554 18.8472 19.913 18.8556C17.9998 18.8808 16.2885 19.5064 14.7737 20.665C13.3374 21.7619 12.3359 23.1702 11.8337 24.9179C11.5784 25.8015 11.5335 26.7076 11.57 27.625C11.6177 28.792 11.8646 29.9029 12.3892 30.9437C13.5393 33.2188 15.3656 34.6298 17.8623 35.1628C18.8722 35.3788 19.8905 35.3564 20.9089 35.2386C22.1095 35.1011 23.2513 34.7813 24.278 34.1277C24.5586 33.9481 24.8195 33.7349 25.0691 33.5161C25.1449 33.4516 25.201 33.3197 25.201 33.2188C25.2094 31.342 25.2066 29.4625 25.2066 27.5857C25.2066 27.524 25.1954 27.4595 25.187 27.3837L25.1898 27.3809Z" fill="#00B041"/>
<path fill-rule="evenodd" clip-rule="evenodd" d="M47.1132 34.4054C47.1132 34.8711 47.1188 35.3143 47.1076 35.7576C47.1076 35.8081 47.0207 35.8866 46.9617 35.9034C46.5129 36.0269 46.064 36.1952 45.6068 36.2429C43.7216 36.4449 42.016 35.9455 40.5151 34.7925C38.9358 33.5778 37.9623 31.9816 37.707 30.0039C37.5976 29.1623 37.6341 28.2983 37.6481 27.4454C37.6818 25.7342 38.3074 24.2418 39.4239 22.957C40.5376 21.6777 41.9262 20.8446 43.601 20.5556C45.8677 20.1629 47.8959 20.7267 49.638 22.2332C50.9845 23.3974 51.7925 24.8814 52.0814 26.6375C52.1347 26.9713 52.1628 27.3136 52.1628 27.653C52.1684 30.4443 52.1656 33.2356 52.1656 36.0241V36.2822H50.7208V36.0072C50.7208 33.216 50.7405 30.4247 50.7152 27.6362C50.69 24.7019 48.572 22.4604 45.9715 21.9723C42.8267 21.386 39.8026 23.5348 39.177 26.6095C39.1153 26.9152 39.076 27.2322 39.0732 27.5436C39.062 28.3656 38.9975 29.1903 39.163 30.0039C39.595 32.1471 40.8462 33.6311 42.8548 34.4587C44.1901 35.0085 45.5451 34.9665 46.8972 34.4783C46.9617 34.4559 47.0263 34.4335 47.1132 34.4054Z" fill="#00B041"/>
<path fill-rule="evenodd" clip-rule="evenodd" d="M24.0789 28.503V28.7078C24.0789 30.046 24.0789 31.3813 24.0817 32.7194C24.0817 32.8653 24.0368 32.9579 23.9246 33.0448C23.299 33.5358 22.5724 33.7995 21.8094 33.9706C20.9481 34.1641 20.0673 34.2595 19.1892 34.2006C16.6055 34.0295 14.6923 32.7783 13.458 30.5116C12.9166 29.5186 12.6977 28.4413 12.6781 27.3108C12.6585 26.2167 12.7987 25.1591 13.2784 24.166C14.1593 22.3454 15.5844 21.1279 17.464 20.4238C18.5945 20.0002 19.7699 19.9048 20.9678 19.9805C21.9861 20.045 22.982 20.1993 23.933 20.5724C24.2023 20.6762 24.4632 20.8025 24.7213 20.9287C24.7774 20.9568 24.8391 21.0381 24.8391 21.0942C24.8475 21.6076 24.8447 22.121 24.8447 22.6764C24.7662 22.6231 24.7101 22.5895 24.6568 22.5502C23.8629 21.9498 22.9567 21.6272 21.9777 21.5206C21.3213 21.4505 20.6564 21.3832 20 21.4112C17.6856 21.5094 15.8762 22.5109 14.7092 24.5504C14.3052 25.2573 14.1341 26.0372 14.1172 26.8563C14.0976 27.8045 14.193 28.7303 14.6025 29.5971C15.4161 31.3196 16.7542 32.3912 18.6478 32.6886C19.9831 32.899 21.2932 32.711 22.564 32.2509C22.693 32.2032 22.7407 32.1303 22.7407 31.9956C22.7351 31.3925 22.7323 30.7866 22.7407 30.1834C22.7435 29.9955 22.6902 29.9281 22.4911 29.9281C21.4419 29.9366 20.3955 29.9281 19.3463 29.9366C19.1724 29.9366 19.1135 29.8945 19.1191 29.7121C19.1331 29.3138 19.1247 28.9182 19.1247 28.503H24.0789Z" fill="#00B041"/>
<path fill-rule="evenodd" clip-rule="evenodd" d="M58.5813 28.1917C58.6655 28.5704 58.7188 28.8902 58.8057 29.2016C59.0498 30.0572 59.4734 30.8062 60.113 31.4374C61.4596 32.7643 63.3447 32.394 64.3939 31.3224C64.9746 30.7305 65.2944 30.0151 65.3084 29.1819C65.3197 28.5535 65.3505 27.9195 65.2944 27.2968C65.171 25.953 64.1555 24.8309 62.837 24.5307C61.6756 24.267 60.6656 24.5896 59.7932 25.3723C58.6346 26.4159 57.6275 27.6053 56.626 28.7948C55.4871 30.1469 54.3846 31.5272 53.2681 32.8961C53.2568 32.9102 53.2484 32.9298 53.2007 32.9382C53.1979 32.8877 53.1895 32.8372 53.1895 32.7839C53.1895 32.1612 53.1839 31.5356 53.1951 30.9128C53.1951 30.8062 53.2372 30.6828 53.2989 30.5986C54.3313 29.224 55.4506 27.9251 56.6148 26.6628C57.2488 25.9727 57.8856 25.2826 58.5589 24.6261C59.3191 23.8855 60.2 23.316 61.252 23.0888C62.5059 22.8195 63.6645 23.1056 64.7053 23.8378C65.7769 24.5896 66.453 25.6136 66.6971 26.9068C66.7391 27.1312 66.756 27.3669 66.756 27.5969C66.7504 28.2898 66.7812 28.9884 66.7083 29.6757C66.5091 31.4907 65.1429 33.042 63.3531 33.5526C61.395 34.1108 59.4005 33.3226 58.2475 31.5412C57.8968 30.997 57.6415 30.4107 57.4929 29.7823C57.4732 29.6925 57.5013 29.5634 57.5574 29.4905C57.8603 29.1006 58.1802 28.7219 58.4915 28.3375C58.5196 28.3039 58.5364 28.2618 58.5785 28.1945L58.5813 28.1917Z" fill="#00B041"/>
<path fill-rule="evenodd" clip-rule="evenodd" d="M47.1132 31.5805C47.1132 32.077 47.1188 32.5399 47.1076 32.9999C47.1076 33.0701 47.0263 33.1542 46.9617 33.1991C46.5774 33.46 46.1398 33.5919 45.6881 33.662C43.7188 33.965 41.8533 33.0841 40.8406 31.3729C40.4142 30.6519 40.1897 29.8692 40.1953 29.0276C40.1953 28.6153 40.1981 28.2057 40.1953 27.7933C40.1813 26.2336 40.8181 24.9796 42.0188 24.0146C44.7007 21.8601 48.8469 23.2571 49.5118 26.7834C49.5707 27.1032 49.5959 27.4342 49.5987 27.7596C49.6043 30.5173 49.6015 33.2749 49.6015 36.0325C49.6015 36.2045 49.5136 36.2915 49.3378 36.2934C49.0152 36.2934 48.6954 36.285 48.3728 36.2962C48.2073 36.3018 48.168 36.2401 48.168 36.0858C48.1736 35.3452 48.168 34.6074 48.168 33.8668C48.168 31.8554 48.168 29.8412 48.168 27.8298C48.168 27.1144 48.0137 26.4383 47.5957 25.8464C46.9365 24.9179 46.036 24.4606 44.8914 24.4382C43.5505 24.4129 42.131 25.3078 41.7411 26.8675C41.6793 27.12 41.6513 27.3865 41.6429 27.6474C41.6261 28.1019 41.6373 28.5591 41.6373 29.0164C41.6373 30.6631 42.7846 32.0181 44.4173 32.2509C45.3094 32.38 46.1538 32.1892 46.9225 31.7067C46.9758 31.673 47.0291 31.6366 47.116 31.5805H47.1132Z" fill="#00B041"/>
<path fill-rule="evenodd" clip-rule="evenodd" d="M39.2556 21.4084C38.8909 21.804 38.5711 22.1546 38.2569 22.4941C37.8838 22.3538 37.5247 22.1687 37.1432 22.0817C34.8568 21.5627 32.8202 21.9975 31.1735 23.7565C30.4385 24.542 30.0317 25.5042 29.8746 26.5618C29.7989 27.0611 29.7708 27.5717 29.7708 28.0766C29.7596 30.7248 29.7652 33.3731 29.7652 36.0213C29.7652 36.2027 29.6745 36.2934 29.4931 36.2934C29.1649 36.2934 28.8367 36.2878 28.5084 36.2934C28.371 36.2962 28.3205 36.2457 28.3317 36.1166C28.3345 36.0858 28.3317 36.0521 28.3317 36.0213C28.3317 33.2636 28.3317 30.506 28.3317 27.7484C28.3317 26.1578 28.7216 24.685 29.6446 23.3777C30.7359 21.832 32.2423 20.9231 34.0882 20.5753C35.5245 20.3031 36.9384 20.3929 38.3046 20.9315C38.6244 21.0578 38.9217 21.2401 39.2528 21.4084H39.2556Z" fill="#00B041"/>
<path fill-rule="evenodd" clip-rule="evenodd" d="M37.6257 23.4198C37.4069 23.8547 37.2021 24.2642 37.0001 24.6654C36.714 24.5981 36.4306 24.5027 36.1417 24.469C34.7671 24.3063 33.4374 24.7383 32.722 26.0624C32.4611 26.5449 32.3377 27.0695 32.3377 27.6166C32.3377 30.4135 32.3377 33.2103 32.3377 36.0072V36.2737H30.907C30.9042 36.2064 30.8958 36.1391 30.8958 36.0718C30.8958 33.23 30.8705 30.3882 30.9042 27.5464C30.9294 25.2545 32.5088 23.4675 34.6605 23.0804C35.5217 22.9261 36.3717 22.9766 37.2077 23.2403C37.3508 23.2852 37.4854 23.3609 37.6257 23.4226V23.4198Z" fill="#00B041"/>
<path fill-rule="evenodd" clip-rule="evenodd" d="M54.7128 13.9884H56.1323C56.1351 14.0669 56.1435 14.1343 56.1435 14.2016C56.1435 16.659 56.1435 19.1137 56.1435 21.5711C56.1435 21.6974 56.1042 21.7787 56.0145 21.8713C55.6273 22.264 55.2514 22.6708 54.8727 23.072C54.825 23.1225 54.7801 23.173 54.7128 23.2515V13.9884Z" fill="#00B041"/>
<path fill-rule="evenodd" clip-rule="evenodd" d="M57.2712 21.0942V20.8502C57.2712 18.6452 57.2712 16.4402 57.2712 14.2325C57.2712 14.0623 57.3601 13.9772 57.5377 13.9772C57.8323 13.9772 58.1297 13.9772 58.4242 13.9772C58.6075 13.9772 58.7001 14.0726 58.7019 14.2633C58.7019 14.6869 58.7019 15.1133 58.7019 15.5369C58.7019 16.9957 58.7019 18.4572 58.7019 19.916C58.7019 20.0675 58.6571 20.1545 58.5224 20.2386C58.1521 20.4715 57.7986 20.7295 57.4396 20.9764C57.3947 21.0073 57.3498 21.0381 57.2684 21.0942H57.2712Z" fill="#00B041"/>
</svg>
