<svg width="80" height="80" viewBox="0 0 80 80" fill="none" xmlns="http://www.w3.org/2000/svg">
<path d="M69.4326 53.4309C69.4326 58.4682 65.3308 62.57 60.2935 62.57H10.5684V26.3736C10.5684 21.3363 14.6701 17.2345 19.7074 17.2345H69.4326V53.4309Z" fill="white"/>
<path d="M53.2413 44.148H57.0193C57.1272 44.148 57.3791 44.112 57.487 44.112C58.2066 43.9681 58.8183 43.3204 58.8183 42.4209C58.8183 41.5574 58.2066 40.9097 57.487 40.7298C57.3791 40.6938 57.1632 40.6938 57.0193 40.6938H53.2413V44.148Z" fill="url(#paint0_linear_4091_3287)"/>
<path d="M56.5875 20.2928C52.9895 20.2928 50.039 23.2073 50.039 26.8413V33.6416H59.2861C59.5019 33.6416 59.7538 33.6416 59.9337 33.6776C62.0206 33.7856 63.5677 34.865 63.5677 36.736C63.5677 38.2112 62.5243 39.4705 60.5813 39.7223V39.7943C62.7042 39.9382 64.3233 41.1256 64.3233 42.9606C64.3233 44.9395 62.5243 46.2348 60.1496 46.2348H50.0031V59.5476H59.6099C63.2079 59.5476 66.1583 56.6332 66.1583 52.9992V20.2928H56.5875Z" fill="url(#paint1_linear_4091_3287)"/>
<path d="M58.3505 37.1677C58.3505 36.3042 57.7389 35.7285 57.0193 35.6206C56.9473 35.6206 56.7674 35.5846 56.6595 35.5846H53.2413V38.7509H56.6595C56.7674 38.7509 56.9833 38.7509 57.0193 38.7149C57.7389 38.6069 58.3505 38.0313 58.3505 37.1677Z" fill="url(#paint2_linear_4091_3287)"/>
<path d="M20.3911 20.2928C16.793 20.2928 13.8426 23.2073 13.8426 26.8413V42.9966C15.6776 43.8961 17.5846 44.4718 19.4915 44.4718C21.7583 44.4718 22.9817 43.1045 22.9817 41.2335V33.6056H28.5946V41.1975C28.5946 44.148 26.7596 46.5587 20.535 46.5587C16.757 46.5587 13.8066 45.7311 13.8066 45.7311V59.5117H23.4134C27.0115 59.5117 29.9619 56.5972 29.9619 52.9632V20.2928H20.3911Z" fill="url(#paint3_linear_4091_3287)"/>
<path d="M38.4893 20.2928C34.8912 20.2928 31.9408 23.2073 31.9408 26.8413V35.4047C33.5959 34.0014 36.4744 33.1019 41.1159 33.3178C43.5985 33.4258 46.2611 34.1094 46.2611 34.1094V36.8799C44.9298 36.1963 43.3467 35.5846 41.2958 35.4407C37.7697 35.1888 35.6468 36.9159 35.6468 39.9382C35.6468 42.9966 37.7697 44.7237 41.2958 44.4358C43.3467 44.2919 44.9298 43.6442 46.2611 42.9966V45.7671C46.2611 45.7671 43.6345 46.4507 41.1159 46.5587C36.4744 46.7745 33.5959 45.875 31.9408 44.4718V59.5836H41.5476C45.1457 59.5836 48.0961 56.6692 48.0961 53.0352V20.2928H38.4893Z" fill="url(#paint4_linear_4091_3287)"/>
<defs>
<linearGradient id="paint0_linear_4091_3287" x1="-23.2945" y1="39.9586" x2="147.364" y2="39.9586" gradientUnits="userSpaceOnUse">
<stop stop-color="#007940"/>
<stop offset="0.2285" stop-color="#00873F"/>
<stop offset="0.7433" stop-color="#40A737"/>
<stop offset="1" stop-color="#5CB531"/>
</linearGradient>
<linearGradient id="paint1_linear_4091_3287" x1="10.6758" y1="39.8841" x2="69.5935" y2="39.8841" gradientUnits="userSpaceOnUse">
<stop stop-color="#007940"/>
<stop offset="0.2285" stop-color="#00873F"/>
<stop offset="0.7433" stop-color="#40A737"/>
<stop offset="1" stop-color="#5CB531"/>
</linearGradient>
<linearGradient id="paint2_linear_4091_3287" x1="-26.3993" y1="39.8378" x2="159.89" y2="39.8378" gradientUnits="userSpaceOnUse">
<stop stop-color="#007940"/>
<stop offset="0.2285" stop-color="#00873F"/>
<stop offset="0.7433" stop-color="#40A737"/>
<stop offset="1" stop-color="#5CB531"/>
</linearGradient>
<linearGradient id="paint3_linear_4091_3287" x1="10.6717" y1="39.9049" x2="70.4969" y2="39.9049" gradientUnits="userSpaceOnUse">
<stop stop-color="#1F286F"/>
<stop offset="0.4751" stop-color="#004E94"/>
<stop offset="0.8261" stop-color="#0066B1"/>
<stop offset="1" stop-color="#006FBC"/>
</linearGradient>
<linearGradient id="paint4_linear_4091_3287" x1="31.8478" y1="39.9045" x2="47.7944" y2="39.9045" gradientUnits="userSpaceOnUse">
<stop stop-color="#6C2C2F"/>
<stop offset="0.1735" stop-color="#882730"/>
<stop offset="0.5731" stop-color="#BE1833"/>
<stop offset="0.8585" stop-color="#DC0436"/>
<stop offset="1" stop-color="#E60039"/>
</linearGradient>
</defs>
</svg>
