<svg width="80" height="80" viewBox="0 0 80 80" fill="none" xmlns="http://www.w3.org/2000/svg">
<path d="M21.2611 48.4933C19.541 46.5589 18.4302 45.3259 18.0919 44.9756C17.7899 44.6629 17.6972 44.4994 17.6951 44.2754C17.6942 44.1832 17.7002 44.1453 17.7237 44.0945C17.7579 44.0202 17.7169 44.0644 18.9084 42.8195C19.4103 42.2952 19.8857 41.7983 19.9648 41.7152C20.3658 41.2941 20.4006 41.2611 20.4964 41.211C20.731 41.0881 20.9362 41.0783 21.1424 41.18C21.2601 41.238 21.151 41.1231 22.5562 42.6693C23.1223 43.2922 24.0977 44.3641 24.7237 45.0512C25.9415 46.3879 26.9291 47.4774 27.1252 47.7005C27.3154 47.9169 27.372 48.0652 27.3716 48.3457C27.3712 48.6055 27.2986 48.7847 27.1496 48.8938C27.0163 48.9914 27.2456 48.9841 24.3298 48.9841H21.6975L21.2611 48.4933Z" fill="#48BBE5"/>
<path d="M68.0405 46.7476L68.1332 46.7202C68.4584 46.6242 68.6126 46.5959 68.8642 46.5862C69.1402 46.5755 69.523 46.631 69.5232 46.6818C69.5232 46.7043 69.4255 47.1913 69.4197 47.1974C69.4171 47.2001 69.3544 47.1895 69.2803 47.1738C69.0953 47.1348 68.9484 47.1266 68.8093 47.1476L68.6926 47.1651L68.6855 48.9292H68.0405L68.0405 46.7476ZM50.6363 47.3228C50.9048 47.2973 51.0497 47.2314 51.121 47.1024C51.1594 47.0329 51.1621 47.0181 51.1622 46.8837C51.1622 46.7619 51.1576 46.7309 51.1323 46.6837C51.0656 46.5591 50.9393 46.4872 50.7379 46.4592C50.6198 46.4428 50.4314 46.4401 50.3214 46.4533L50.2493 46.462V47.3367L50.3694 47.3367C50.4355 47.3367 50.5556 47.3305 50.6363 47.3228ZM49.5629 45.9411L49.7174 45.9183C50.0523 45.8688 50.5372 45.8532 50.8151 45.883C51.0241 45.9055 51.2494 45.9666 51.4019 46.0422C51.6259 46.1532 51.7709 46.3268 51.8357 46.5616C51.8705 46.6876 51.8779 46.9897 51.8497 47.1321C51.7939 47.4141 51.647 47.6056 51.3887 47.733C51.148 47.8518 50.9285 47.8959 50.5136 47.909L50.2493 47.9173V48.9292H49.5629V45.9411ZM44.0291 48.864C43.9746 48.7367 43.826 48.3279 43.7311 48.0437C43.5588 47.5278 43.3031 46.6899 43.3031 46.6412C43.3031 46.6264 43.3681 46.6229 43.6389 46.6229H43.9747L43.9881 46.6744C43.9955 46.7027 44.0364 46.8803 44.0789 47.069C44.1456 47.3646 44.2921 47.957 44.3301 48.0849C44.3419 48.1246 44.3434 48.1227 44.3724 48.03C44.4129 47.901 44.5907 47.2294 44.6723 46.8975L44.7381 46.6298L45.2044 46.6224L45.318 47.0945C45.4258 47.5425 45.5719 48.1001 45.5849 48.1131C45.5992 48.1274 45.7633 47.4896 45.8844 46.9489L45.9574 46.6229H46.6286L46.6197 46.6675C46.6036 46.7489 46.3914 47.4448 46.266 47.828C46.136 48.2252 46.0509 48.4646 45.9368 48.7544L45.8678 48.9298L45.36 48.9223L45.2262 48.5105C45.1526 48.284 45.0623 47.992 45.0255 47.8617C44.9886 47.7314 44.9543 47.6325 44.9491 47.6421C44.944 47.6516 44.9145 47.752 44.8837 47.8653C44.8165 48.1124 44.7433 48.3576 44.6389 48.6855L44.5612 48.9292H44.0571L44.0291 48.864ZM37.9492 46.7096L38.0007 46.6945C38.0962 46.6664 38.3382 46.6225 38.5184 46.6005C38.7723 46.5695 39.1781 46.5802 39.3197 46.6216C39.4758 46.6673 39.5795 46.7265 39.6799 46.8272C39.8314 46.9793 39.9008 47.1647 39.927 47.4877C39.9347 47.5822 39.9392 47.9431 39.9369 48.2908L39.9329 48.9223L39.2823 48.9297L39.2777 48.1847C39.2736 47.5378 39.27 47.431 39.2504 47.3732C39.1812 47.1694 39.0685 47.1158 38.7539 47.1373L38.6084 47.1472L38.6013 48.9223L37.9492 48.9297V46.7096ZM63.7918 48.9477C63.5026 48.8863 63.3008 48.6954 63.2294 48.4154C63.186 48.2457 63.1809 48.1046 63.1809 47.0868V46.0606L63.2118 46.0534C63.2288 46.0495 63.36 46.0277 63.5035 46.0051C63.6469 45.9826 63.7782 45.9608 63.7952 45.9569L63.8261 45.9497V46.6229H64.6086V47.172H63.8237L63.8294 47.649C63.8356 48.1603 63.8415 48.2075 63.9118 48.3119C63.9718 48.4009 64.0148 48.4145 64.2311 48.413C64.3816 48.4119 64.4435 48.4056 64.5169 48.3837C64.5823 48.3642 64.6121 48.3604 64.6154 48.3713C64.618 48.3799 64.639 48.4917 64.662 48.6197C64.6941 48.7986 64.6999 48.8551 64.6871 48.8635C64.6599 48.8813 64.4574 48.9401 64.3692 48.9558C64.2511 48.9769 63.9064 48.972 63.7918 48.9477ZM61.7566 48.453C61.7623 48.4497 61.7669 48.3369 61.7669 48.2023V47.9576L61.7036 47.9481C61.5893 47.931 61.3391 47.9386 61.2622 47.9615C61.1799 47.9861 61.1056 48.045 61.0806 48.1054C61.0559 48.1649 61.0688 48.3027 61.1032 48.3493C61.1429 48.403 61.23 48.4474 61.3229 48.4615C61.3976 48.4728 61.7337 48.4662 61.7566 48.453ZM61.1011 48.9512C60.9456 48.9251 60.8819 48.9057 60.7738 48.8513C60.5365 48.7318 60.4221 48.5271 60.422 48.2222C60.422 47.908 60.5662 47.6983 60.8608 47.5847C61.0291 47.5198 61.2093 47.4966 61.4713 47.506C61.5923 47.5103 61.7093 47.5181 61.7312 47.5234L61.7709 47.5329L61.7639 47.4358C61.7523 47.2733 61.6716 47.1718 61.5198 47.1293C61.3881 47.0923 60.9797 47.1194 60.786 47.1779C60.7486 47.1892 60.717 47.1971 60.7158 47.1955C60.7146 47.1939 60.6954 47.0783 60.6731 46.9386C60.6432 46.7512 60.6368 46.6821 60.6486 46.6749C60.6802 46.6554 60.9215 46.6082 61.0916 46.5883C61.489 46.5419 61.8074 46.5798 62.0282 46.7C62.1259 46.7531 62.2545 46.8928 62.3017 46.997C62.3861 47.183 62.3886 47.2124 62.3947 48.0733L62.4002 48.8579L62.3272 48.8735C62.0345 48.9363 61.8357 48.9588 61.5267 48.9641C61.3039 48.9679 61.1786 48.9641 61.1011 48.9512ZM59.6098 48.9556C59.3009 48.9228 59.0816 48.801 58.9883 48.6104C58.9122 48.4548 58.9115 48.4409 58.9116 46.982L58.9116 45.6414L59.2033 45.5956C59.3637 45.5704 59.5087 45.5466 59.5255 45.5427L59.556 45.5356L59.5598 46.8652C59.5633 48.108 59.5652 48.1983 59.5882 48.2491C59.6017 48.2791 59.6233 48.3152 59.6362 48.3295C59.6711 48.3681 59.7546 48.4069 59.8228 48.4163C59.8559 48.4208 59.8902 48.4289 59.8989 48.4343C59.9105 48.4415 59.9027 48.5142 59.8697 48.7072L59.8246 48.9703L59.7696 48.9685C59.7393 48.9675 59.6675 48.9617 59.6098 48.9556ZM53.637 48.4545L53.6682 48.448L53.6607 47.9625L53.6127 47.9517C53.5395 47.9352 53.2576 47.9368 53.1802 47.9542C53.0276 47.9884 52.9422 48.0956 52.9584 48.2326C52.9629 48.2699 52.9777 48.3196 52.9914 48.343C53.0233 48.3977 53.1239 48.4494 53.2247 48.4629C53.3014 48.4732 53.5738 48.4676 53.637 48.4545ZM53.0166 48.9552C52.5897 48.8929 52.3633 48.6935 52.3187 48.3406C52.2668 47.9291 52.4712 47.6453 52.8957 47.5396C52.9955 47.5148 53.0565 47.5097 53.2626 47.5091C53.3985 47.5086 53.546 47.5135 53.5905 47.5199L53.6714 47.5314L53.6616 47.445C53.6562 47.3974 53.6438 47.3393 53.6339 47.3157C53.6062 47.2493 53.5355 47.1771 53.4742 47.1526C53.3067 47.0855 52.9927 47.0986 52.6256 47.1879C52.6106 47.1916 52.5975 47.1373 52.5669 46.9459C52.5453 46.8102 52.5301 46.6925 52.5332 46.6845C52.5396 46.6677 52.6782 46.6338 52.8782 46.5999C53.0781 46.566 53.499 46.5661 53.6469 46.5999C53.9013 46.6582 54.0945 46.7948 54.1842 46.98C54.2771 47.1716 54.2763 47.1629 54.2819 48.0526L54.2869 48.8578L54.2209 48.8717C54.0516 48.9076 53.8256 48.9434 53.6881 48.9562C53.511 48.9726 53.1329 48.9721 53.0166 48.9552ZM32.0326 48.949C31.681 48.8736 31.478 48.6779 31.3853 48.3251C31.3555 48.2121 31.3544 48.1839 31.3497 47.4157L31.3447 46.6229H31.9914L31.9915 47.2921C31.9915 47.6819 31.9975 47.9986 32.0057 48.0506C32.0359 48.2418 32.0829 48.3275 32.1888 48.3841C32.2395 48.4112 32.2653 48.4143 32.4376 48.414C32.5433 48.414 32.6406 48.4094 32.6538 48.4042C32.6763 48.3952 32.6778 48.3397 32.6778 47.5088V46.6229H33.323V48.8457L33.2715 48.8596C33.1637 48.8886 32.9528 48.9276 32.7898 48.9485C32.5769 48.9759 32.1592 48.9762 32.0326 48.949ZM29.4496 47.0754C29.712 47.0425 29.836 46.9369 29.836 46.7464C29.836 46.5716 29.7266 46.4674 29.5058 46.4315C29.4113 46.4162 28.9987 46.4118 28.9473 46.4256L28.9164 46.4339V47.0896H29.1261C29.2414 47.0896 29.387 47.0832 29.4496 47.0754ZM29.5067 48.3877C29.8234 48.3399 29.9483 48.2315 29.9498 48.0031C29.9509 47.8168 29.8717 47.7116 29.6828 47.6489C29.6063 47.6235 29.5553 47.6194 29.2561 47.6144L28.9164 47.6088V48.3925L29.0022 48.3973C29.2115 48.4092 29.3858 48.4059 29.5067 48.3877ZM28.9507 48.9557C28.6631 48.9448 28.4104 48.916 28.2815 48.8792C28.2588 48.8728 28.2574 48.7909 28.2574 47.4068V45.9413L28.3638 45.9253C28.6368 45.8843 28.7689 45.8759 29.1429 45.8756C29.4709 45.8756 29.565 45.8798 29.6775 45.9005C29.8442 45.9312 29.9939 45.979 30.1036 46.0365C30.2135 46.0941 30.3679 46.2498 30.4174 46.3528C30.5162 46.5588 30.5192 46.8253 30.4248 47.0105C30.3903 47.078 30.2626 47.2156 30.1965 47.2565L30.15 47.2852L30.2467 47.3321C30.5086 47.4587 30.6381 47.6828 30.6383 48.0094C30.6384 48.1955 30.6207 48.2792 30.5494 48.429C30.4447 48.6491 30.2103 48.8161 29.8979 48.8934C29.6521 48.9542 29.3813 48.972 28.9507 48.9557ZM66.6791 47.4663C66.6556 47.3169 66.5755 47.2034 66.4495 47.1413C66.3987 47.1163 66.3632 47.1102 66.2687 47.1102C66.1649 47.1102 66.1415 47.1151 66.0702 47.1516C65.9527 47.2117 65.8744 47.3284 65.8378 47.498L65.8282 47.5427H66.691L66.6791 47.4663ZM66.1298 48.9693C65.752 48.9138 65.4487 48.713 65.3014 48.4205C65.1928 48.2048 65.1423 47.9054 65.1699 47.6413C65.19 47.4499 65.2264 47.3187 65.3021 47.1651C65.4424 46.8805 65.6645 46.6964 65.9767 46.6061C66.1157 46.5658 66.4139 46.5629 66.5648 46.6002C66.7274 46.6405 66.8762 46.7217 66.995 46.8353C67.1203 46.955 67.1897 47.0662 67.2434 47.2338C67.2983 47.4048 67.3151 47.5427 67.3102 47.7829L67.3061 47.9888L65.8282 47.9959L65.8378 48.0404C65.8642 48.1624 65.9664 48.289 66.0888 48.3514C66.2756 48.4467 66.7054 48.4446 67.0005 48.347C67.0821 48.32 67.0937 48.3189 67.0992 48.3379C67.1157 48.3954 67.1778 48.8215 67.1719 48.8369C67.1648 48.8553 67.0595 48.8925 66.9255 48.924C66.7014 48.9766 66.3254 48.998 66.1298 48.9693ZM41.9465 48.3889C42.0652 48.3306 42.1486 48.2115 42.1928 48.0368C42.2174 47.9396 42.2206 47.895 42.2151 47.7294C42.2075 47.5035 42.1888 47.4315 42.105 47.3068C42.0572 47.2356 42.0313 47.2123 41.9577 47.1743C41.8723 47.1301 41.8633 47.1284 41.7443 47.1334C41.603 47.1394 41.5306 47.1714 41.4499 47.2632C41.3385 47.3901 41.2914 47.571 41.3023 47.8297C41.315 48.1311 41.4236 48.3332 41.6094 48.4017C41.6836 48.4291 41.8798 48.4216 41.9465 48.3889ZM41.5482 48.9696C41.0353 48.878 40.6941 48.4821 40.6402 47.9162C40.567 47.1488 41.0536 46.5674 41.7682 46.5681C41.9667 46.5681 42.1956 46.6282 42.3516 46.7208C42.4545 46.7819 42.6068 46.9256 42.6749 47.0258C42.9062 47.3665 42.9547 47.8956 42.7926 48.3114C42.7014 48.5454 42.5285 48.7425 42.32 48.8502C42.138 48.9442 42.0278 48.9715 41.8067 48.9776C41.7048 48.9804 41.5885 48.9768 41.5482 48.9696ZM46.9728 49.5697C46.8507 49.5383 46.7472 49.509 46.7429 49.5046C46.7386 49.5002 46.7503 49.4519 46.7689 49.3971C46.8639 49.118 46.921 48.7205 46.9067 48.4382L46.8975 48.256L47.5793 48.2634L47.5788 48.4968C47.5784 48.6887 47.5729 48.7554 47.547 48.8721C47.5029 49.0712 47.434 49.265 47.3374 49.4611C47.2683 49.6016 47.2497 49.6291 47.2247 49.628C47.2083 49.6273 47.095 49.601 46.9728 49.5697ZM54.9732 49.7042C54.8185 49.6706 54.7502 49.6432 54.7578 49.6177C54.7616 49.6052 54.7873 49.4899 54.8149 49.3616C54.8425 49.2332 54.866 49.1273 54.8669 49.1262C54.8679 49.1252 54.912 49.1356 54.9648 49.1495C55.0771 49.1789 55.2785 49.1841 55.3613 49.1596C55.4368 49.1373 55.5451 49.0278 55.5994 48.9188L55.6422 48.8329L55.5212 48.5825C55.309 48.143 55.1231 47.6912 54.973 47.2495C54.8859 46.9933 54.7795 46.6536 54.7795 46.6318C54.7795 46.6269 54.9329 46.6229 55.1205 46.6229H55.4614L55.5204 46.8322C55.6475 47.2829 55.9411 48.1442 55.9607 48.1235C55.9873 48.0955 56.2485 47.2321 56.3753 46.7533L56.408 46.6298L56.74 46.6261C57.014 46.623 57.072 46.6256 57.072 46.6412C57.072 46.662 56.9365 47.0988 56.8499 47.3573C56.6987 47.8082 56.5079 48.305 56.3298 48.7109C56.1266 49.1742 56.0162 49.3646 55.8676 49.5081C55.7004 49.6696 55.5365 49.7261 55.2406 49.7243C55.1418 49.7237 55.0214 49.7146 54.9732 49.7042ZM33.9888 49.698C33.8574 49.668 33.8035 49.6483 33.8035 49.6304C33.8035 49.6154 33.8966 49.1815 33.9072 49.147C33.9135 49.1267 33.9227 49.127 34.0132 49.1513C34.089 49.1717 34.1463 49.1769 34.2565 49.1736C34.4446 49.1679 34.4989 49.139 34.5967 48.9927C34.6953 48.8453 34.6953 48.8453 34.6048 48.6651C34.4963 48.4489 34.3138 48.0352 34.1944 47.7349C34.097 47.4897 33.9041 46.9276 33.8469 46.7222L33.8192 46.6224L34.5077 46.6297L34.5739 46.8621C34.6935 47.2814 34.964 48.0888 34.9964 48.1228C35.0152 48.1426 35.2713 47.3119 35.4238 46.7361L35.4538 46.6229H35.7886C35.9728 46.6229 36.1234 46.6258 36.1234 46.6295C36.1234 46.646 35.9386 47.2294 35.869 47.4328C35.6072 48.1971 35.2507 49.0404 35.0734 49.315C34.939 49.5231 34.7634 49.6556 34.5578 49.7041C34.4318 49.7338 34.1314 49.7306 33.9888 49.698Z" fill="#F37D31"/>
<path d="M10.7614 48.8556C10.7236 48.8457 10.6697 48.8276 10.6415 48.8155C10.5607 48.7808 10.4532 48.6714 10.4093 48.5791L10.3701 48.4968L10.3701 42.7584L22.3736 29.6348L24.9689 29.6312C27.5213 29.6277 27.5656 29.6281 27.6534 29.6548C27.8489 29.7143 28.0177 29.8552 28.0975 30.0254C28.1305 30.0957 28.1403 30.138 28.1451 30.2296C28.1529 30.3772 28.1326 30.4691 28.0585 30.6232C27.9797 30.7868 27.9034 30.8846 27.6214 31.1832C26.9284 31.9169 24.8666 34.1588 18.188 41.4407C13.3583 46.7066 11.7852 48.4174 11.585 48.6217C11.4949 48.7137 11.3744 48.7823 11.2144 48.8327C11.0942 48.8706 10.8624 48.8823 10.7614 48.8556Z" fill="#F37D31"/>
<path d="M26.2806 43.4468C26.0904 43.4036 25.9988 43.305 25.9652 43.1072C25.9546 43.045 25.9514 41.9969 25.9541 39.5188L25.958 36.0182L25.9937 35.9421C26.0444 35.834 26.1026 35.7739 26.1984 35.731C26.3279 35.6729 26.4154 35.6659 26.9626 35.6707C27.4598 35.6749 27.4691 35.6755 27.533 35.707C27.5687 35.7246 27.6162 35.7621 27.6386 35.7903C27.6997 35.8675 27.8344 36.1602 27.9645 36.4987C28.0283 36.6648 28.0855 36.8057 28.0916 36.8118C28.1032 36.8235 28.2845 36.6126 28.4778 36.3624C28.6325 36.1623 28.8672 35.9196 29.0093 35.813C29.2986 35.5958 29.5337 35.5347 29.9871 35.5587C30.602 35.5913 30.9822 35.7361 31.6271 36.1835C31.9855 36.4321 32.0067 36.4496 32.0504 36.533C32.0863 36.6014 32.0895 36.6183 32.0843 36.7131C32.0767 36.8492 32.0538 36.8962 31.7064 37.4871C31.4067 37.9969 31.3404 38.0856 31.2114 38.1488C31.1454 38.1812 31.1165 38.187 31.0236 38.1866C30.8642 38.1858 30.7922 38.1567 30.6512 38.0359C30.426 37.8429 30.194 37.7136 29.9728 37.6577C29.81 37.6166 29.4838 37.6057 29.3327 37.6363C28.9624 37.7114 28.6988 37.9304 28.3754 38.4317L28.2986 38.5507V40.8199C28.2986 42.7939 28.2959 43.0994 28.278 43.1682C28.2429 43.3028 28.1788 43.3754 28.0473 43.4294C27.9776 43.458 27.9582 43.4587 27.1661 43.4613C26.5598 43.4633 26.3371 43.4596 26.2806 43.4468ZM37.6335 38.5349C37.6335 38.5096 37.5567 38.3795 37.44 38.207C37.1642 37.7993 36.83 37.5526 36.4306 37.4617C36.265 37.4241 36.018 37.4073 35.8781 37.4243C35.4308 37.4787 34.9806 37.7932 34.6582 38.2764C34.5871 38.3829 34.5173 38.512 34.5173 38.5368C34.5173 38.5465 35.0124 38.551 36.0754 38.551C37.2552 38.551 37.6335 38.5471 37.6335 38.5349ZM36.0685 43.5805C34.3826 43.4808 32.9382 42.4097 32.3919 40.854C32.2564 40.468 32.198 40.1258 32.1874 39.6546C32.1766 39.1698 32.2198 38.817 32.342 38.3931C32.8115 36.7639 34.1841 35.6463 35.8218 35.5595C36.765 35.5096 37.6594 35.7976 38.4022 36.3906C38.5662 36.5215 38.8995 36.8569 39.0308 37.0232C39.4567 37.5625 39.722 38.1824 39.8021 38.8255C39.8448 39.169 39.8301 39.8249 39.7765 39.966C39.7048 40.1546 39.5658 40.2324 39.2396 40.2665C39.1586 40.275 38.2231 40.2803 36.7705 40.2804H34.4318L34.4415 40.345C34.4711 40.5425 34.5757 40.7967 34.6946 40.96C34.9444 41.3031 35.2863 41.5157 35.7471 41.6143C35.8772 41.6421 35.934 41.6463 36.1783 41.6458C36.4337 41.6453 36.4763 41.6417 36.6382 41.6068C36.8784 41.555 37.1498 41.4641 37.3359 41.3731C37.5186 41.2838 37.6207 41.2176 37.7502 41.1047C37.8817 40.9899 37.9966 40.9338 38.0828 40.9422C38.1753 40.9511 38.2376 40.9847 38.3439 41.0832C38.4865 41.2152 39.0907 41.9048 39.1332 41.9841C39.1637 42.0409 39.171 42.0723 39.171 42.1469C39.171 42.3172 39.144 42.3603 38.9082 42.5672C38.2713 43.1262 37.5743 43.4516 36.7959 43.5534C36.6335 43.5746 36.2272 43.5899 36.0685 43.5805ZM45.2387 41.468C46.0236 41.2973 46.5821 40.7352 46.7513 39.9458C46.7897 39.7665 46.793 39.4316 46.7582 39.2412C46.7084 38.9683 46.5995 38.6996 46.4445 38.4671C46.3399 38.3102 46.128 38.0887 45.9817 37.9834C45.7736 37.8335 45.5094 37.7129 45.2661 37.6567C45.1134 37.6214 44.7515 37.6073 44.5933 37.6304C44.2343 37.6829 43.9083 37.8482 43.6455 38.111C43.1653 38.5912 42.9644 39.3624 43.1304 40.0885C43.3044 40.85 43.8483 41.3727 44.5866 41.488C44.7089 41.5071 45.1164 41.4946 45.2387 41.468ZM44.3189 43.5876C43.0043 43.4729 41.8686 42.6788 41.2923 41.4712C41.0911 41.0495 40.9735 40.6544 40.9049 40.1694C40.8705 39.9264 40.8705 39.2212 40.9049 38.9765C40.9734 38.4889 41.0884 38.1 41.2853 37.6898C41.6194 36.9937 42.1083 36.4511 42.7426 36.0727C43.2677 35.7594 43.8314 35.5917 44.468 35.5594C44.9416 35.5353 45.246 35.5928 45.5961 35.7725C45.8583 35.9071 46.0475 36.0556 46.3626 36.3742C46.4939 36.5068 46.6034 36.6154 46.6061 36.6154C46.6087 36.6154 46.6125 35.9528 46.6146 35.1431L46.6182 33.6707L46.6568 33.5923C46.6785 33.5479 46.7227 33.4898 46.7583 33.4584C46.8746 33.356 46.8684 33.3567 47.7027 33.3513C48.2055 33.3481 48.4723 33.3515 48.5317 33.3618C48.6953 33.3903 48.8352 33.4874 48.9117 33.6256L48.952 33.6982V38.4137C48.952 42.9965 48.9512 43.1313 48.9261 43.2034C48.8924 43.3003 48.8094 43.3833 48.7036 43.426L48.6225 43.4586H47.8949C47.4948 43.4586 47.1436 43.4536 47.1146 43.4475C46.9806 43.4192 46.8966 43.2823 46.7087 42.7865C46.6545 42.6433 46.6073 42.5234 46.6039 42.5199C46.6005 42.5165 46.4942 42.6153 46.3677 42.7395C46.0259 43.075 45.7615 43.2749 45.4803 43.4106C45.1204 43.5841 44.8141 43.6308 44.3189 43.5876Z" fill="#48BBE5"/>
<path d="M57.0559 43.4512C56.9139 43.4295 56.8249 43.3738 56.764 43.2684C56.7358 43.2196 53.9559 36.436 53.8632 36.1898C53.8404 36.129 53.8291 36.0696 53.8279 36.0033C53.8247 35.8198 53.9179 35.7125 54.1068 35.6825C54.2205 35.6645 55.7587 35.6634 55.8681 35.6813C56.0423 35.7099 56.1645 35.8143 56.226 35.9872C56.2455 36.042 56.3269 36.2969 56.4069 36.5536C56.6285 37.2642 57.3894 39.6246 57.4846 39.8963C57.5309 40.0284 57.5739 40.1419 57.5802 40.1485C57.5865 40.1551 57.6006 40.1304 57.6116 40.0936C57.6227 40.0568 57.9171 39.1124 58.266 37.995C58.6786 36.6731 58.9144 35.9383 58.9409 35.8918C58.9973 35.7926 59.088 35.7161 59.1763 35.6934C59.2327 35.6789 59.4445 35.675 60.1745 35.675C61.2089 35.675 61.2025 35.6745 61.3029 35.7636C61.3603 35.8145 61.3613 35.817 61.366 35.9168C61.3699 35.9974 61.364 36.0379 61.3376 36.1143C61.2869 36.2608 58.4058 43.1625 58.3691 43.2253C58.3253 43.3003 58.2161 43.4042 58.1496 43.4339C58.1006 43.4559 58.0434 43.4588 57.6143 43.4608C57.35 43.4621 57.0987 43.4578 57.0559 43.4512ZM50.9357 43.456C50.7832 43.4305 50.6687 43.3418 50.6245 43.215C50.6004 43.1458 50.5994 42.9977 50.5994 39.5737V36.0045L50.6382 35.9204C50.6847 35.8198 50.7532 35.7494 50.8465 35.7066C50.915 35.675 50.9156 35.675 51.6728 35.6707C52.466 35.6663 52.5351 35.6702 52.6508 35.7257C52.7284 35.7631 52.857 35.8892 52.9005 35.9708L52.9331 36.0319V43.1566L52.9014 43.2204C52.8839 43.2554 52.8469 43.307 52.819 43.3349C52.6925 43.4619 52.6632 43.4654 51.7388 43.4634C51.3159 43.4625 50.9546 43.4592 50.9357 43.456ZM65.9607 41.4693C66.3638 41.3784 66.7031 41.1627 66.9428 40.8449C67.0784 40.6652 67.2088 40.3712 67.2691 40.1091C67.337 39.8144 67.3438 39.4155 67.2861 39.1234C67.2018 38.6974 67.0054 38.3207 66.7322 38.0612C66.4186 37.7633 66.0433 37.6175 65.5901 37.6175C65.2192 37.6175 64.9298 37.7026 64.6361 37.8982C63.856 38.4175 63.579 39.6115 64.0246 40.5334C64.2715 41.0441 64.7351 41.3916 65.2898 41.4817C65.446 41.5071 65.8242 41.5001 65.9607 41.4693ZM65.24 43.5886C63.7693 43.4491 62.5256 42.5695 61.9356 41.2516C61.5746 40.4452 61.4844 39.5367 61.6786 38.6634C61.9638 37.381 62.8797 36.3097 64.0961 35.8357C64.5949 35.6413 65.0559 35.5562 65.6107 35.5562C66.1619 35.5562 66.6219 35.64 67.0963 35.8267C68.073 36.2111 68.848 36.9514 69.2826 37.9147C69.6342 38.6945 69.7224 39.6138 69.529 40.484C69.4814 40.6981 69.3631 41.0506 69.2677 41.2623C68.9187 42.037 68.3069 42.6969 67.5507 43.1139C67.1474 43.3364 66.64 43.5021 66.1581 43.5686C65.972 43.5943 65.4255 43.6062 65.24 43.5886Z" fill="#48BBE5"/>
<path d="M10.8369 39.507C10.6644 39.46 10.5277 39.3443 10.4434 39.1737L10.3907 39.0672L10.3872 34.5504C10.3833 29.4851 10.3733 29.9493 10.4887 29.8209C10.5617 29.7398 10.6455 29.6928 10.7784 29.6586C10.8644 29.6365 11.0137 29.6348 12.8137 29.6348C14.6124 29.6348 14.7625 29.6365 14.842 29.6585C14.9619 29.6917 15.0312 29.73 15.1053 29.8042C15.1772 29.8762 15.2187 29.9536 15.2498 30.0735C15.2685 30.1458 15.271 30.4478 15.2709 32.6681L15.2708 35.1808L14.7403 35.7711C12.7907 37.9404 11.6214 39.2159 11.4605 39.349C11.2795 39.4986 11.0344 39.5607 10.8369 39.507Z" fill="#48BBE5"/>
<path d="M50.9013 34.7355C50.7578 34.6991 50.6641 34.6085 50.6201 34.4638C50.5922 34.3719 50.5915 34.3472 50.5953 33.6081L50.5993 32.8471L50.6384 32.7674C50.6801 32.6825 50.7302 32.6402 50.8396 32.5975C50.8954 32.5757 50.9768 32.5729 51.6819 32.5687C52.5006 32.5638 52.5969 32.5688 52.7226 32.6229C52.8088 32.6599 52.8881 32.7499 52.9177 32.8438C52.9381 32.9088 52.9402 32.9956 52.9368 33.6372L52.9331 34.3578L52.8874 34.4505C52.8338 34.5594 52.7355 34.663 52.6425 34.7089L52.5761 34.7415L51.7593 34.7437C51.3101 34.7449 50.924 34.7412 50.9013 34.7355Z" fill="#F37D31"/>
</svg>
