<svg width="80" height="80" viewBox="0 0 80 80" fill="none" xmlns="http://www.w3.org/2000/svg">
<path fill-rule="evenodd" clip-rule="evenodd" d="M19.7522 18.9816H22.9025C23.1423 18.9816 23.3266 19.1935 23.2924 19.43L21.8294 29.5441C21.773 29.9334 22.0762 30.282 22.4707 30.282H27.9971C28.1541 30.282 28.2744 30.4209 28.2515 30.5755L27.8228 33.4805C27.8006 33.6314 27.6707 33.7434 27.5174 33.7434H21.2686C19.4098 33.7434 17.6273 32.2243 17.8896 30.3903L19.3618 19.3225C19.3877 19.1274 19.5546 18.9816 19.7522 18.9816Z" fill="#E82529"/>
<path fill-rule="evenodd" clip-rule="evenodd" d="M30.2569 23.0173L28.8149 33.332C28.792 33.4956 28.9194 33.6417 29.0852 33.6417H32.1336C32.3504 33.6417 32.5342 33.4825 32.5642 33.2685L33.9921 23.1215C34.0226 22.8878 33.84 22.6805 33.6034 22.6805H30.6452C30.4494 22.6805 30.2839 22.8243 30.2569 23.0173Z" fill="#E82529"/>
<path fill-rule="evenodd" clip-rule="evenodd" d="M36.5449 32.8508C35.6043 32.817 35.1642 33.1108 34.6092 33.4407C34.7431 32.5107 35.7934 25.2636 35.8892 24.8184C35.9905 24.3438 36.0827 23.5518 36.5015 23.1524C36.9923 22.6835 37.7521 22.4153 41.5324 22.4031C45.3912 22.3907 46.1387 25.1582 45.9339 26.9565C45.7594 28.4957 45.1852 32.2986 45.0231 33.3611C44.9984 33.5226 44.8599 33.6416 44.6967 33.6416H41.7159C41.4975 33.6416 41.3297 33.4497 41.3601 33.2343C41.5109 32.1719 41.9152 29.3394 42.0523 28.5169C42.2224 27.4995 42.3587 26.3799 42.0862 25.938C41.8138 25.4969 40.9965 25.1582 39.4305 25.4297L38.2722 33.5912C38.2722 33.5912 37.527 32.8862 36.5449 32.8508Z" fill="#E82529"/>
<path fill-rule="evenodd" clip-rule="evenodd" d="M49.1668 18.3957H52.4733C52.5964 18.3957 52.6911 18.504 52.6742 18.6255L50.6167 33.4792C50.6014 33.5894 50.5068 33.6715 50.395 33.6715H47.1305C46.9948 33.6715 46.8904 33.5521 46.9091 33.4182L48.9659 18.5703C48.9798 18.4702 49.0654 18.3957 49.1668 18.3957Z" fill="#E82529"/>
<path fill-rule="evenodd" clip-rule="evenodd" d="M51.7254 27.3452L55.4622 22.9841C55.58 22.8468 55.7522 22.7676 55.9337 22.7676H59.2141C59.451 22.7676 59.5757 23.0472 59.4173 23.2223L55.5964 27.448L59.0892 34.9342C59.2174 35.209 59.016 35.5232 58.7122 35.5232H55.7471C55.5922 35.5232 55.4516 35.4333 55.387 35.2932L51.7254 27.3452Z" fill="#E82529"/>
<path fill-rule="evenodd" clip-rule="evenodd" d="M34.6309 19.8874C34.3636 21.0113 33.348 21.8476 32.2846 21.8476C31.2214 21.8476 30.406 20.9365 30.6736 19.8128C30.9409 18.6889 31.8212 17.7778 33.0829 17.7778C34.1461 17.7778 34.8983 18.7635 34.6309 19.8874Z" fill="#E82529"/>
<path fill-rule="evenodd" clip-rule="evenodd" d="M37.9919 36.271C37.7245 37.3949 36.7089 38.2312 35.6455 38.2312C34.5824 38.2312 33.7669 37.3201 34.0345 36.1964C34.3019 35.0725 35.1822 34.1614 36.4439 34.1614C37.5071 34.1614 38.2592 35.147 37.9919 36.271Z" fill="#E82529"/>
<path fill-rule="evenodd" clip-rule="evenodd" d="M53.9863 49.7018C53.761 50.8124 52.7348 51.6386 51.6169 51.6379C50.4988 51.6374 49.5963 50.7365 49.8216 49.6261C50.047 48.5155 50.9273 47.6155 52.2539 47.6162C53.3717 47.6169 54.2117 48.5912 53.9863 49.7018Z" fill="#E82529"/>
<path fill-rule="evenodd" clip-rule="evenodd" d="M25.8413 44.1703H23.8394C23.7651 44.1703 23.714 44.0958 23.7413 44.0268L25.4834 39.6199C25.5167 39.5359 25.6409 39.5539 25.649 39.6436L26.0405 43.9529C26.0512 44.0695 25.959 44.1703 25.8413 44.1703ZM30.691 49.7043L28.4571 36.3793C28.3594 35.7967 27.8533 35.3699 27.2607 35.3699H25.0192C24.3356 35.3699 23.715 35.7677 23.4319 36.3878L17.4143 49.7209C17.327 49.9144 17.4697 50.1327 17.6823 50.1316L20.809 50.1134C21.023 50.1122 21.2156 49.9843 21.2991 49.7883L22.3385 47.3516C22.3667 47.2851 22.432 47.2421 22.5045 47.2421H26.2885C26.3813 47.2421 26.4591 47.3122 26.4681 47.4043L26.6939 49.7101C26.72 49.9783 26.9465 50.1831 27.2171 50.1831H30.284C30.5391 50.1831 30.733 49.9549 30.691 49.7043Z" fill="#E82529"/>
<path fill-rule="evenodd" clip-rule="evenodd" d="M29.1994 52.118L29.9216 54.3413C30.0513 54.7071 30.1492 54.7883 30.4029 54.7349C31.3151 54.5433 33.5192 53.8942 34.5976 52.4404C36.0034 50.545 36.1962 47.1942 36.4444 45.4912C36.6487 44.0884 37.0961 40.6354 37.2476 39.4618C37.2748 39.2506 37.1097 39.064 36.896 39.064H34.0929C33.8452 39.064 33.6358 39.2462 33.6026 39.4908C33.3766 41.1485 32.5625 47.1095 32.4203 47.9357C32.255 48.8972 32.222 50.282 30.7947 51.1087C30.0825 51.521 29.7172 51.5997 29.4353 51.7308C29.292 51.7976 29.1299 51.8691 29.1994 52.118Z" fill="#E82529"/>
<path fill-rule="evenodd" clip-rule="evenodd" d="M44.625 46.9852C44.625 46.9852 43.1634 47.4806 42.4618 46.956C41.7599 46.4317 41.7015 45.3538 42.1108 43.8097C42.5202 42.2655 43.5434 42.0034 43.9818 41.9742C44.4205 41.945 45.2449 42.1518 45.2449 42.1518L44.625 46.9852ZM48.6724 39.4629C47.7273 39.2273 46.1382 38.7097 43.5836 38.8963C41.2266 39.0684 38.5651 40.1548 38.0667 44.7915C37.5682 49.4282 39.6952 50.3225 42.7527 50.455C44.9933 50.5521 46.7518 49.9378 47.5317 49.6026C47.8032 49.4859 47.9923 49.2358 48.032 48.9439L49.1617 40.0167C49.206 39.6624 49.0282 39.5515 48.6724 39.4629Z" fill="#E82529"/>
<path fill-rule="evenodd" clip-rule="evenodd" d="M50.8525 46.1381L51.6751 37.5897C51.7047 37.2834 51.9626 37.1585 52.2712 37.1585H55.1089C55.3732 37.1585 55.4852 37.3584 55.4123 37.6858L53.6803 46.2458C53.6452 46.4114 53.4988 46.5299 53.3289 46.5299H51.2097C50.998 46.5299 50.8322 46.3482 50.8525 46.1381Z" fill="#E82529"/>
<path fill-rule="evenodd" clip-rule="evenodd" d="M17.6461 61.9011C18.208 62.2105 18.8644 62.3005 19.4891 62.153C21.9777 61.5654 27.4849 59.9836 39.1345 58.3055C53.7703 56.1971 64.5765 56.2058 64.5765 56.2058L64.6049 56.1885C64.6049 56.1885 55.027 54.8771 39.3076 56.4071C23.588 57.9371 14.8145 60.3416 14.8145 60.3416L17.6461 61.9011Z" fill="#E82529"/>
</svg>
