<svg width="80" height="80" viewBox="0 0 80 80" fill="none" xmlns="http://www.w3.org/2000/svg">
<path fill-rule="evenodd" clip-rule="evenodd" d="M53.999 31.775C52.8582 32.4573 50.1675 34.0513 49.1631 34.6449C48.5509 34.967 47.1332 35.1077 46.3313 33.9908C46.3169 33.9707 45.2647 32.6126 45.2217 32.5615C45.1916 32.5254 44.5114 31.4832 42.9956 31.4506C42.7717 31.4451 41.6583 31.439 40.5719 32.0768C39.1278 32.929 35.7694 34.9122 35.7694 34.9122C35.7694 34.9122 35.7685 34.9139 35.7668 34.9139C34.3863 35.7298 33.3106 36.365 33.3106 36.365L34.5815 37.9772C35.176 38.7397 36.5167 39.3296 37.6793 38.6402C37.6793 38.6402 41.9751 36.0706 41.9909 36.0632C43.8488 35.0107 45.2823 35.0107 46.2338 35.4024C47.0879 35.7751 47.8309 36.7039 47.8309 36.7039C47.8309 36.7039 48.8019 37.9469 48.9732 38.1643C49.5257 38.8668 50.4402 38.5908 50.4402 38.5908C50.4402 38.5908 50.7791 38.5512 51.2899 38.2379C51.2899 38.2379 55.451 35.7458 55.4536 35.745C56.7749 34.9443 57.9867 34.7947 58.606 34.8536C60.5459 35.0357 61.1485 36.4355 61.9896 37.412C62.4849 37.9864 62.9319 38.3126 63.6154 38.2961C64.0645 38.2863 64.5719 38.005 64.6467 37.9542L69.6295 34.984C69.6295 34.984 69.1182 34.1886 68.0712 32.9511C67.134 31.8469 66.1387 32.3465 65.3451 32.7525C65.0116 32.9228 63.8036 33.7529 62.6068 34.332C61.754 34.7444 60.529 34.6204 59.8577 33.7635C59.8175 33.7114 58.7314 32.3533 58.6173 32.1862C58.1789 31.619 57.3236 31.1111 56.2275 31.1111C55.561 31.1111 54.8048 31.2988 53.999 31.775Z" fill="url(#paint0_linear_4091_3128)"/>
<path fill-rule="evenodd" clip-rule="evenodd" d="M10.4326 43.3876C10.4326 42.5007 10.417 41.7565 10.3701 41.0929H11.9954L12.0717 42.2329H12.1173C12.4856 41.6305 13.1593 40.918 14.416 40.918C15.3968 40.918 16.1629 41.4892 16.4842 42.3436H16.5157C16.7767 41.9163 17.0821 41.6 17.4343 41.3776C17.8484 41.0772 18.3236 40.918 18.9365 40.918C20.1774 40.918 21.4331 41.7884 21.4331 44.2579V48.8H19.5946V44.5433C19.5946 43.2614 19.1662 42.5007 18.2627 42.5007C17.6181 42.5007 17.1425 42.9764 16.9447 43.5306C16.8981 43.72 16.8522 43.9576 16.8522 44.1776V48.8H15.0131V44.3368C15.0131 43.2614 14.6001 42.5007 13.7265 42.5007C13.0216 42.5007 12.5472 43.0714 12.3782 43.6084C12.3011 43.7995 12.2701 44.0205 12.2701 44.2416V48.8H10.4326V43.3876Z" fill="#003A70"/>
<path fill-rule="evenodd" clip-rule="evenodd" d="M28.5962 46.9488C28.5962 47.6448 28.6268 48.3242 28.7035 48.8004H27.0021L26.88 47.946H26.8334C26.374 48.548 25.5926 48.9746 24.6273 48.9746C23.1254 48.9746 22.283 47.8518 22.283 46.6799C22.283 44.7325 23.9526 43.7521 26.7109 43.7678V43.6407C26.7109 43.134 26.5114 42.2957 25.1939 42.2957C24.4581 42.2957 23.6916 42.5333 23.1863 42.8651L22.8181 41.6C23.3707 41.2511 24.3369 40.9184 25.5158 40.9184C27.9071 40.9184 28.5962 42.4862 28.5962 44.1631V46.9488ZM26.7568 45.034C25.4239 45.002 24.1525 45.3027 24.1525 46.4741C24.1525 47.233 24.6274 47.5819 25.2251 47.5819C25.975 47.5819 26.5275 47.0753 26.6956 46.5215C26.7412 46.3791 26.7568 46.2202 26.7568 46.0941V45.034Z" fill="#003A70"/>
<path fill-rule="evenodd" clip-rule="evenodd" d="M29.8992 43.3876C29.8992 42.5007 29.8823 41.7565 29.8377 41.0929H31.4911L31.5835 42.2481H31.6288C31.951 41.6474 32.763 40.918 34.0039 40.918C35.3068 40.918 36.6551 41.7884 36.6551 44.2263V48.8H34.7707V44.4484C34.7707 43.3398 34.3723 42.5007 33.3455 42.5007C32.5947 42.5007 32.0739 43.0548 31.8742 43.6406C31.8139 43.8152 31.798 44.0531 31.798 44.2731V48.8H29.8992V43.3876Z" fill="#003A70"/>
<path fill-rule="evenodd" clip-rule="evenodd" d="M44.8261 37.9961V46.6314C44.8261 47.4226 44.8563 48.2787 44.887 48.8004H43.2014L43.126 47.5819H43.0948C42.6502 48.437 41.7447 48.9746 40.658 48.9746C38.8814 48.9746 37.4712 47.408 37.4712 45.034C37.4556 42.454 39.0185 40.9184 40.8111 40.9184C41.8374 40.9184 42.5735 41.3621 42.91 41.9323H42.9411V37.9961H44.8261ZM42.9411 44.3048C42.9411 44.1481 42.9253 43.9573 42.8958 43.7996C42.727 43.0398 42.1291 42.4222 41.271 42.4222C40.0605 42.4222 39.3862 43.5307 39.3862 44.9709C39.3862 46.3791 40.0605 47.408 41.2557 47.408C42.0215 47.408 42.6961 46.8701 42.8797 46.0315C42.9253 45.8566 42.9411 45.667 42.9411 45.4605V44.3048Z" fill="#003A70"/>
<path fill-rule="evenodd" clip-rule="evenodd" d="M46.1578 48.8H48.0597V41.0933H46.1578V48.8Z" fill="#003A70"/>
<path fill-rule="evenodd" clip-rule="evenodd" d="M49.3916 43.5774C49.3916 42.5333 49.3756 41.7884 49.3299 41.0927H50.9697L51.0297 42.5641H51.0933C51.4604 41.4721 52.334 41.0927 53.1304 41.0927C53.3139 41.0927 53.421 41.0602 53.5747 41.0927V42.8025C53.421 42.7709 53.2528 42.7392 53.023 42.7392C52.1191 42.7392 51.5057 43.3401 51.3373 44.21C51.3075 44.3842 51.2766 44.5908 51.2766 44.8134V48.8003H49.3916V43.5774Z" fill="#003A70"/>
<path fill-rule="evenodd" clip-rule="evenodd" d="M54.4481 48.8H56.3472V41.0933H54.4481V48.8Z" fill="#003A70"/>
<defs>
<linearGradient id="paint0_linear_4091_3128" x1="10.3701" y1="48.9746" x2="69.6295" y2="48.9746" gradientUnits="userSpaceOnUse">
<stop stop-color="#FFCA06"/>
<stop offset="0.330844" stop-color="#FBAA18"/>
<stop offset="0.694742" stop-color="#FFC907"/>
<stop offset="1" stop-color="#FAA619"/>
</linearGradient>
</defs>
</svg>
