<svg width="80" height="80" viewBox="0 0 80 80" fill="none" xmlns="http://www.w3.org/2000/svg">
<path d="M60.4693 10.3704H19.5302C14.4712 10.3704 10.3701 14.4715 10.3701 19.5305V60.4695C10.3701 65.5285 14.4712 69.6296 19.5302 69.6296H60.4693C65.5283 69.6296 69.6294 65.5285 69.6294 60.4695V19.5305C69.6294 14.4715 65.5283 10.3704 60.4693 10.3704Z" fill="#FFBE00"/>
<path fill-rule="evenodd" clip-rule="evenodd" d="M64.7799 68.5444C63.4931 69.2362 62.025 69.6296 60.4693 69.6296H19.5302C17.8801 69.6296 16.3283 69.1873 14.9872 68.4155V67.9439C14.9872 65.7831 16.0072 63.8505 17.5897 62.6033V23.7843C17.5897 22.7054 18.6409 21.8226 19.5653 21.458C20.7043 21.0089 21.949 21.1798 22.7302 22.1829C24.2719 23.9538 25.779 25.7755 27.2754 27.5884H52.9765L57.4667 22.0161C58.1197 21.2059 59.4389 21.1281 60.3618 21.4261C61.712 21.8619 62.4387 23.0226 62.4387 24.4183V32.7866C63.8713 34.0352 64.7799 35.8712 64.7799 37.9107V68.5444Z" fill="white"/>
<path fill-rule="evenodd" clip-rule="evenodd" d="M64.7782 68.5453C64.1626 68.8761 63.5056 69.1382 62.8174 69.322V37.9108C62.8174 36.1966 61.9117 34.6823 60.5559 33.8221V36.8498C60.5559 37.2699 60.2122 37.6136 59.7921 37.6136C59.3719 37.6136 59.0283 37.2699 59.0283 36.8498V33.1884C58.6901 33.1127 58.339 33.0726 57.9791 33.0726C57.6273 33.0726 57.284 33.1111 56.9531 33.1835V36.8498C56.9531 37.2699 56.6095 37.6136 56.1893 37.6136C55.7691 37.6136 55.4255 37.2699 55.4255 36.8498V33.8078C54.0569 34.6651 53.1409 36.187 53.1409 37.9108V60.1659H51.18V37.9108C51.18 34.5021 53.7179 31.6611 56.9986 31.1826C57.7405 31.1289 58.2177 31.129 58.9595 31.1826C59.4867 31.2595 59.9947 31.3978 60.4762 31.5893V24.4184C60.4762 23.9329 60.3274 23.5272 59.8594 23.3298C59.6505 23.2418 59.1791 23.1683 58.9608 23.2851L53.913 29.5493H26.3497L26.0556 29.1929C24.467 27.2684 22.8685 25.3292 21.2302 23.4483L21.2082 23.423L21.1881 23.3964C21.1079 23.2907 21.0174 23.2233 20.8865 23.1966C20.6932 23.1569 20.4628 23.2113 20.283 23.2823C20.0809 23.3619 19.6511 23.6187 19.5489 23.8367V61.5247C19.9517 61.3835 20.3714 61.2789 20.8041 61.2158C21.546 61.1621 22.0231 61.1621 22.7651 61.2158C26.0458 61.6942 28.5837 64.5353 28.5837 67.944V69.6296H26.6228V67.944C26.6228 65.2849 24.4437 63.1058 21.7846 63.1058C19.1255 63.1058 16.9464 65.2849 16.9464 67.944V69.2556C16.2559 69.0512 15.5985 68.7675 14.9856 68.4146V67.944C14.9856 65.7831 16.0056 63.8506 17.588 62.6034V23.7843C17.588 22.7055 18.6393 21.8226 19.5636 21.4581C20.7026 21.009 21.9473 21.1799 22.7284 22.183C24.2703 23.9538 25.7773 25.7756 27.2738 27.5885H52.9748L57.465 22.0162C58.118 21.2059 59.4372 21.1282 60.3602 21.4261C61.7103 21.8621 62.437 23.0228 62.437 24.4184V32.7867C63.8695 34.0354 64.7782 35.8713 64.7782 37.9108V68.5453Z" fill="black"/>
<path fill-rule="evenodd" clip-rule="evenodd" d="M58.0627 38.853C59.2805 38.853 60.2677 39.8402 60.2677 41.058C60.2677 42.2757 59.2805 43.2628 58.0627 43.2628C56.8451 43.2628 55.8579 42.2757 55.8579 41.058C55.8579 39.8402 56.8451 38.853 58.0627 38.853ZM58.9516 29.36H56.545C56.545 29.36 55.8821 29.3311 56.4585 28.4665C57.0349 27.6018 57.1418 27.4213 57.2092 27.3126C57.7496 26.4407 58.8981 26.2551 58.9341 27.9412L58.9516 29.36ZM20.8864 29.36H23.293C23.293 29.36 23.9559 29.3311 23.3795 28.4665C22.8031 27.6018 22.6963 27.4213 22.6288 27.3126C22.0884 26.4407 20.9399 26.2551 20.9039 27.9412L20.8864 29.36Z" fill="#FFBE00"/>
<path fill-rule="evenodd" clip-rule="evenodd" d="M21.6367 46.2738L27.0265 43.9968C27.2256 43.9128 27.4564 44.0065 27.5405 44.2055C27.6245 44.4044 27.5308 44.6352 27.3318 44.7193L21.942 46.9963C21.743 47.0803 21.5121 46.9866 21.4281 46.7877C21.344 46.5887 21.4377 46.3579 21.6367 46.2738ZM20.6128 42.8165L27.0114 41.9518C27.2254 41.9229 27.4236 42.0739 27.4526 42.288C27.4815 42.502 27.3305 42.7002 27.1164 42.7291L20.7178 43.5938C20.5038 43.6227 20.3056 43.4716 20.2766 43.2576C20.2476 43.0437 20.3987 42.8455 20.6128 42.8165ZM21.059 39.3258L26.42 39.5852C26.6357 39.5957 26.8032 39.7802 26.7927 39.996C26.7823 40.2117 26.5978 40.3792 26.382 40.3687L21.021 40.1093C20.8053 40.0988 20.6379 39.9144 20.6483 39.6986C20.6587 39.4828 20.8432 39.3154 21.059 39.3258ZM35.0671 42.1116C35.0176 42.71 35.2396 43.4961 35.5441 44.0009C36.4857 45.562 38.0159 45.6637 39.6017 45.67V42.2549C39.2568 42.1241 38.873 41.8911 38.6454 41.7557C38.2776 41.5369 37.9124 41.3051 37.5568 41.0667C37.3174 40.9065 37.2531 40.5807 37.4132 40.3413C37.5733 40.1021 37.8993 40.0375 38.1386 40.1977C38.4768 40.424 39.6698 41.2065 40.0406 41.3043C40.2246 41.2956 40.3092 41.2769 40.4943 41.1878C41.0209 40.9344 41.6215 40.4614 42.0808 40.1042C42.3081 39.9273 42.6377 39.9685 42.8145 40.1959C42.9913 40.4233 42.9501 40.7529 42.7227 40.9297C42.1963 41.3392 41.5511 41.8398 40.9478 42.1302C40.8395 42.1822 40.7422 42.2227 40.6475 42.2538V45.6683C42.1518 45.6506 43.5825 45.4879 44.4794 44.0009C44.7839 43.4961 45.0059 42.71 44.9563 42.1116C44.9326 41.8247 45.1473 41.5712 45.4342 41.5475C45.7213 41.5237 45.9748 41.7384 45.9985 42.0254C46.0663 42.8442 45.7931 43.8478 45.375 44.541C44.2496 46.4066 42.0356 46.7175 40.0117 46.7175C37.9879 46.7175 35.7738 46.4066 34.6485 44.541C34.2304 43.8478 33.9572 42.8442 34.025 42.0254C34.0487 41.7384 34.3022 41.5237 34.5891 41.5475C34.8762 41.5712 35.0909 41.8247 35.0671 42.1116ZM52.0704 37.7007C50.0419 37.789 47.2552 38.0654 45.5574 38.8849C44.8801 39.1912 44.1596 39.2956 43.9614 38.766C43.7632 38.2365 43.7703 37.7141 44.5523 37.3538C45.2353 37.039 46.8808 36.1413 52.0704 35.977V37.7007ZM25.8676 37.642C25.8676 37.642 31.9816 37.451 34.8927 38.8561C35.57 39.1624 36.2906 39.2667 36.4888 38.7372C36.6869 38.2077 36.6798 37.6853 35.8979 37.3249C35.116 36.9646 33.0731 35.8404 25.8963 35.9269C25.8963 35.9269 24.765 35.8981 24.7722 36.7268C24.7794 37.5554 25.2909 37.6131 25.8676 37.642Z" fill="black"/>
<path d="M51.1799 53.3429H19.5488V57.0321H51.1799V53.3429Z" fill="#FFBE00"/>
<path d="M32.3276 68.9073C37.8673 68.9073 42.358 64.4166 42.358 58.8769C42.358 53.3373 37.8673 48.8465 32.3276 48.8465C26.788 48.8465 22.2972 53.3373 22.2972 58.8769C22.2972 64.4166 26.788 68.9073 32.3276 68.9073Z" fill="black"/>
<path d="M32.3276 67.1202C36.8802 67.1202 40.5709 63.4296 40.5709 58.8769C40.5709 54.3243 36.8802 50.6337 32.3276 50.6337C27.775 50.6337 24.0844 54.3243 24.0844 58.8769C24.0844 63.4296 27.775 67.1202 32.3276 67.1202Z" fill="#FFBE00"/>
<path fill-rule="evenodd" clip-rule="evenodd" d="M26.5855 56.48C26.711 56.3349 26.8592 56.2138 27.0291 56.1173C27.2613 55.9857 27.5121 55.921 27.7789 55.921H27.9308C28.1517 55.921 28.3637 55.9657 28.5644 56.0579C28.7605 56.1481 28.9319 56.2725 29.0794 56.4299C29.2297 56.5901 29.3441 56.7762 29.4246 56.9806C29.5092 57.1951 29.5501 57.4193 29.5501 57.6501V61.5954C29.5501 61.6675 29.4915 61.7261 29.4194 61.7261H28.8119C28.7399 61.7261 28.6812 61.6675 28.6812 61.5954V57.6138C28.6812 57.5025 28.6622 57.3959 28.6211 57.2923C28.5835 57.1976 28.5291 57.1089 28.4596 57.0342C28.391 56.9606 28.3114 56.9031 28.22 56.8608C28.1286 56.8183 28.0316 56.7986 27.9308 56.7986H27.5258C27.4257 56.7986 27.3289 56.8185 27.2381 56.8607C27.1466 56.9034 27.0673 56.9612 26.9981 57.0347C26.9279 57.1093 26.8751 57.1982 26.8369 57.293C26.7952 57.3963 26.7771 57.5025 26.7771 57.6138V61.5954C26.7771 61.6675 26.7184 61.7261 26.6464 61.7261H26.0371C25.9651 61.7261 25.9064 61.6675 25.9064 61.5954V56.1586C25.9064 56.0866 25.9651 56.0279 26.0371 56.0279H26.2396C26.2869 56.0279 26.3273 56.0508 26.3516 56.0913L26.5855 56.48ZM31.3764 59.0603V60.1402C31.3764 60.2515 31.3944 60.3577 31.4361 60.4611C31.4744 60.5558 31.5273 60.6447 31.5975 60.7193C31.6667 60.7927 31.7459 60.8507 31.8375 60.8933C31.9282 60.9355 32.0251 60.9555 32.125 60.9555H32.5301C32.6308 60.9555 32.728 60.9358 32.8194 60.8933C32.9107 60.8508 32.9903 60.7935 33.059 60.7198C33.1285 60.6451 33.1829 60.5565 33.2204 60.4617C33.2614 60.3582 33.2804 60.2516 33.2804 60.1402V59.7796C33.2804 59.7396 33.2964 59.7052 33.3271 59.6794C33.3577 59.6537 33.3945 59.6439 33.4338 59.6508L34.0415 59.7577C34.1045 59.7687 34.1496 59.8225 34.1496 59.8864V60.1039C34.1496 60.3347 34.1085 60.5589 34.024 60.7735C33.9433 60.9778 33.8289 61.1639 33.6787 61.3242C33.5311 61.4815 33.3599 61.606 33.1636 61.696C32.9631 61.7883 32.751 61.833 32.5301 61.833H32.125C31.9044 61.833 31.6922 61.7883 31.4916 61.696C31.2959 61.6062 31.1229 61.4814 30.9761 61.3239C30.8268 61.1634 30.7125 60.9774 30.6314 60.774C30.546 60.5596 30.5057 60.3348 30.5057 60.1039V57.6501C30.5057 57.4193 30.546 57.1945 30.6314 56.98C30.7125 56.7766 30.8268 56.5907 30.9761 56.4302C31.1229 56.2726 31.2959 56.1478 31.4916 56.0579C31.6922 55.9657 31.9044 55.921 32.125 55.921H32.5301C32.751 55.921 32.9631 55.9657 33.1636 56.0579C33.3599 56.1481 33.5311 56.2725 33.6787 56.4299C33.8289 56.5901 33.9433 56.7762 34.024 56.9806C34.1085 57.1951 34.1496 57.4193 34.1496 57.6501V58.9296C34.1496 59.0016 34.0909 59.0603 34.0188 59.0603H31.3764ZM38.7489 60.1039C38.7489 60.3347 38.7079 60.5589 38.6233 60.7735C38.5427 60.9778 38.4283 61.1639 38.278 61.3242C38.1305 61.4815 37.9591 61.606 37.763 61.696C37.5623 61.7883 37.3503 61.833 37.1295 61.833H36.7244C36.5038 61.833 36.2915 61.7883 36.091 61.696C35.8953 61.6062 35.7223 61.4814 35.5754 61.3239C35.4261 61.1634 35.3118 60.9774 35.2307 60.774C35.1453 60.5596 35.105 60.3348 35.105 60.1039V57.6501C35.105 57.4193 35.1453 57.1945 35.2307 56.98C35.3118 56.7766 35.4261 56.5907 35.5754 56.4302C35.7223 56.2726 35.8953 56.1478 36.091 56.0579C36.2915 55.9657 36.5038 55.921 36.7244 55.921H37.1295C37.3503 55.921 37.5623 55.9658 37.763 56.0579C37.9591 56.1481 38.1305 56.2725 38.278 56.4299C38.4283 56.5901 38.5427 56.7762 38.6233 56.9806C38.7079 57.1951 38.7489 57.4193 38.7489 57.6501V60.1039ZM31.3764 58.2896H33.2804V57.6138C33.2804 57.5025 33.2614 57.3959 33.2204 57.2923C33.1829 57.1976 33.1285 57.1089 33.059 57.0342C32.9903 56.9606 32.9107 56.9032 32.8194 56.8607C32.728 56.8182 32.6308 56.7986 32.5301 56.7986H32.125C32.0251 56.7986 31.9282 56.8185 31.8375 56.8607C31.7459 56.9034 31.6667 56.9613 31.5975 57.0347C31.5273 57.1093 31.4744 57.1983 31.4361 57.293C31.3944 57.3963 31.3764 57.5026 31.3764 57.6138V58.2896ZM37.8798 57.6138C37.8798 57.5025 37.8607 57.3959 37.8198 57.2923C37.7822 57.1975 37.7277 57.1089 37.6582 57.0342C37.5896 56.9606 37.5101 56.9032 37.4187 56.8607C37.3273 56.8182 37.2302 56.7986 37.1295 56.7986H36.7244C36.6245 56.7986 36.5276 56.8185 36.4369 56.8607C36.3452 56.9034 36.2659 56.9612 36.1967 57.0347C36.1265 57.1093 36.0737 57.1982 36.0355 57.293C35.9938 57.3963 35.9757 57.5025 35.9757 57.6138V60.1402C35.9757 60.2515 35.9938 60.3577 36.0355 60.4611C36.0737 60.5558 36.1265 60.6447 36.1967 60.7193C36.2659 60.7928 36.3452 60.8507 36.4369 60.8933C36.5276 60.9355 36.6245 60.9555 36.7244 60.9555H37.1295C37.2302 60.9555 37.3273 60.9358 37.4187 60.8933C37.5101 60.8508 37.5896 60.7935 37.6582 60.7198C37.7277 60.6451 37.7822 60.5565 37.8198 60.4617C37.8607 60.3582 37.8798 60.2516 37.8798 60.1402V57.6138Z" fill="black"/>
</svg>
