<svg width="80" height="80" viewBox="0 0 80 80" fill="none" xmlns="http://www.w3.org/2000/svg">
<path d="M40.9374 46.8524C41.3547 46.644 41.8731 45.9098 42.0779 45.2371C42.1582 44.9734 42.9121 42.4178 43.7533 39.558C44.6535 36.4973 45.4171 34.0885 45.6097 33.7021C46.1886 32.5406 47.0211 32.1877 49.1828 32.1877H50.327V30.7582L48.4289 30.7637C46.6874 30.7687 46.6113 30.8392 46.0866 31.0882C45.2786 31.4716 44.6567 32.0725 44.2477 32.8647C44.0494 33.2488 43.6228 34.4837 43.2781 35.6709C41.1154 43.1214 40.529 45.0497 40.3739 45.221C40.1318 45.4886 39.7641 45.465 39.5704 45.1695C39.4824 45.0352 38.8658 43.0247 38.2001 40.7019C36.5408 34.9115 36.1272 33.5646 35.8254 32.9691C35.4606 32.2492 34.6523 31.4319 33.9823 31.1054C33.4376 30.8401 33.408 30.7763 31.588 30.7662L29.6296 30.7553V32.1627L31.1188 32.2072C32.3812 32.2449 32.6848 32.2861 33.1128 32.4775C34.3346 33.0241 34.4349 33.2422 36.0448 38.8513C37.0334 42.2956 37.8378 44.9762 38.0293 45.4644C38.2758 46.0927 38.6439 46.5843 39.0561 46.8356C39.4711 47.0886 40.4471 47.0974 40.9374 46.8524Z" fill="#5726D7"/>
<path d="M62.8969 49.0595C66.7013 48.0419 69.3037 44.8474 69.5943 40.8384C69.8451 37.3773 68.7469 34.4633 66.4549 32.5085C64.7273 31.035 62.7895 30.3704 60.2214 30.3704C57.5995 30.3704 55.5303 31.1226 53.778 32.7128C52.872 33.5351 51.9684 34.8707 51.5169 36.0552C50.7088 38.1751 50.7511 41.8966 51.6052 43.8243C52.8966 46.739 55.1458 48.5544 58.266 49.2005C59.313 49.4173 61.8477 49.3401 62.8969 49.0595ZM58.505 47.6839C56.5009 47.2744 54.8362 46.1658 53.7563 44.5213C52.0276 41.8888 52.088 37.5539 53.8901 34.9234C54.9342 33.3994 56.7062 32.3003 58.627 31.9853C59.5973 31.8262 61.7507 31.9036 62.594 32.1279C64.9711 32.7603 66.9225 34.6889 67.6765 37.1512C68.3055 39.2049 68.1129 41.9558 67.2148 43.748C65.8738 46.4239 63.4047 47.8573 60.1873 47.8275C59.623 47.8223 58.866 47.7577 58.505 47.6839ZM61.2815 47.1194C64.1258 46.7713 66.1872 45.0893 67.0631 42.4018C67.264 41.7852 67.3254 41.3501 67.3648 40.2628C67.4391 38.21 67.1219 36.9233 66.1903 35.4986C65.3349 34.1902 64.1708 33.3137 62.6421 32.8268C61.8674 32.5801 61.6428 32.5545 60.2719 32.5569C58.9154 32.5593 58.6682 32.5877 57.9017 32.8295C56.3829 33.3085 55.261 34.1496 54.3762 35.4725C53.4321 36.884 53.105 38.1906 53.177 40.2628C53.2165 41.4008 53.27 41.762 53.4987 42.4355C54.4023 45.0967 56.4366 46.7601 59.2312 47.1229C60.1521 47.2425 60.2778 47.2423 61.2815 47.1194ZM58.6758 45.4643C56.8372 44.9588 55.4265 43.4801 54.9194 41.5268C54.7118 40.7271 54.7127 38.9893 54.9211 38.195C55.4764 36.079 56.992 34.5754 58.9982 34.1501C62.1051 33.4916 64.9339 35.2218 65.6302 38.2064C65.8245 39.0395 65.8463 40.4894 65.6771 41.3249C65.2736 43.3165 63.735 44.9592 61.7863 45.4788C61.1482 45.6489 59.3164 45.6404 58.6758 45.4643Z" fill="#5726D7"/>
<path d="M41.8699 48.9682C42.6645 48.5771 43.2384 47.9725 43.7104 47.0293C44.1755 46.1 44.4113 45.3399 46.4825 38.094C47.34 35.0945 47.3316 35.1171 47.7156 34.7489C48.0066 34.4699 48.0596 34.4581 49.1723 34.4254L50.327 34.3915V32.8686L48.9232 32.9134C47.6833 32.9529 47.4633 32.987 47.0392 33.2053C46.1778 33.6486 46.0434 33.9504 44.8814 38.0519C42.6216 46.0287 42.5549 46.2285 41.89 47.0187C41.3349 47.6784 40.1743 47.9944 39.2371 47.7409C38.6081 47.5707 37.9685 46.9373 37.5586 46.0786C37.2694 45.4726 36.2424 42.0259 34.4576 35.6709C34.068 34.2836 33.8852 33.9182 33.3522 33.4621C32.8279 33.0132 32.5308 32.9498 30.9421 32.9471L29.68 32.9449L29.6207 34.4089H30.638C31.295 34.4089 31.7785 34.4604 32.0032 34.5543C32.3592 34.703 32.7178 35.17 32.822 35.6204C32.9812 36.3092 35.7284 45.6193 35.9319 46.16C36.5795 47.8804 37.2862 48.6956 38.5287 49.155C38.9661 49.3168 39.2733 49.3497 40.1336 49.3271C41.1022 49.3017 41.2579 49.2695 41.8699 48.9682Z" fill="#5726D7"/>
<path d="M21.9059 49.1603C23.6134 48.8061 25.033 48.0685 26.2724 46.8915C27.5113 45.715 28.3728 44.2301 28.8284 42.4859C29.1701 41.1781 29.2121 39.1319 28.9258 37.7432C28.1549 34.0035 25.4852 31.2604 21.9344 30.5595C20.5583 30.2879 18.193 30.3385 16.9587 30.666C13.9922 31.453 11.4933 33.9589 10.7597 36.8825C9.59062 41.5409 11.0967 45.8113 14.6881 48.0215C15.5167 48.5314 16.9786 49.0793 17.9347 49.2383C18.9257 49.4031 20.9247 49.3638 21.9059 49.1603ZM17.7846 47.6413C16.3453 47.3279 15.3157 46.758 14.2215 45.669C13.4645 44.9155 13.2279 44.6009 12.8847 43.8919C11.7936 41.6376 11.678 38.948 12.5676 36.5105C13.2512 34.6373 14.7854 33.0622 16.5844 32.3864C18.4187 31.6973 21.2059 31.717 22.9645 32.4316C25.8164 33.5905 27.5093 36.3578 27.5093 39.8609C27.5093 41.7112 27.108 43.1851 26.2373 44.5318C25.2718 46.0252 23.9077 47.0298 22.1555 47.5377C21.0575 47.856 18.9952 47.9048 17.7846 47.6413ZM21.8205 46.924C23.6949 46.4454 25.209 45.2518 26.0467 43.5922C26.6987 42.3006 26.852 41.6001 26.8523 39.9114C26.8527 38.1286 26.7276 37.5489 26.0413 36.1515C25.2495 34.539 23.9343 33.4165 22.1583 32.8374C21.3885 32.5864 21.1492 32.5567 19.8361 32.5493C18.5911 32.5423 18.2519 32.5759 17.568 32.7739C16.3489 33.1268 15.6462 33.5435 14.7319 34.4557C13.7972 35.3882 13.1995 36.4249 12.8544 37.7117C12.5562 38.824 12.5562 40.8978 12.8544 42.0101C13.4707 44.3087 15.0216 46.0061 17.1877 46.7527C18.6567 47.259 20.2742 47.3189 21.8205 46.924ZM18.0693 45.425C17.1853 45.1675 16.6377 44.8533 15.9805 44.2264C15.2371 43.5173 14.8716 42.9415 14.5235 41.9306C14.277 41.2151 14.2455 40.979 14.2475 39.8609C14.2495 38.7682 14.2861 38.4884 14.5203 37.7753C14.8501 36.7713 15.4358 35.8692 16.133 35.2913C16.8465 34.6999 17.3602 34.44 18.2797 34.2048C21.458 33.3919 24.4799 35.2053 25.1403 38.3216C25.3239 39.188 25.3251 40.5282 25.1431 41.387C24.7256 43.3563 23.2084 44.9631 21.2959 45.4612C20.4887 45.6715 18.8525 45.6531 18.0693 45.425Z" fill="#5726D7"/>
</svg>
