<svg width="80" height="80" viewBox="0 0 80 80" fill="none" xmlns="http://www.w3.org/2000/svg">
<path fill-rule="evenodd" clip-rule="evenodd" d="M48.6062 55.2925C48.6123 55.1796 48.6188 54.9987 48.6246 54.7507V49.9949L48.6092 49.5334C48.6055 49.4353 48.6007 49.3686 48.5959 49.3337C48.5908 49.2967 48.5829 49.2649 48.572 49.2355C48.5364 49.1182 48.4574 49.0354 48.3387 48.9858C48.2292 48.9396 48.0674 48.9174 47.8574 48.9157V48.7539H50.5733C50.968 48.7546 51.3248 48.7802 51.6432 48.8315C51.9613 48.8825 52.2175 48.953 52.4135 49.0426C52.9813 49.3118 53.2618 49.765 53.2587 50.4098C53.2652 51.3312 52.6591 51.9199 51.4045 52.0714L51.1941 52.1053C51.4763 52.1155 51.858 52.2096 52.0355 52.2507C52.2117 52.2914 52.3844 52.356 52.5537 52.4443C53.2197 52.7788 53.5477 53.3137 53.5412 54.0536C53.5446 54.9521 53.1065 55.5364 52.2172 55.8124C52.0229 55.8678 51.7793 55.9116 51.4848 55.9434C51.1893 55.9752 50.8685 55.9916 50.5227 55.9923H47.8574V55.8302C48.1711 55.8264 48.3869 55.7785 48.4823 55.666C48.5224 55.6277 48.5508 55.5856 48.5696 55.5374C48.5887 55.4885 48.6 55.405 48.6062 55.2925ZM49.4428 48.9762V51.9945H50.5025C51.7349 51.9873 52.3731 51.4752 52.38 50.4501C52.3885 49.4551 51.7157 48.9694 50.4115 48.9762H49.4428ZM52.592 53.9729C52.5852 53.2693 52.3307 52.7719 51.8235 52.4938C51.6695 52.4152 51.4739 52.3546 51.2389 52.3119C51.0043 52.2695 50.7453 52.2479 50.4621 52.2469H49.4428V55.7696H50.4621C51.2006 55.7731 51.7403 55.6352 52.0728 55.3462C52.2414 55.2077 52.3694 55.0195 52.4583 54.7835C52.5469 54.5475 52.591 54.2766 52.592 53.9729Z" fill="#3A3A3A"/>
<path d="M57.4285 55.7857C57.3734 55.6766 57.3348 55.547 57.318 55.2155L57.3132 55.1174L57.2479 55.1909C57.1703 55.2788 57.094 55.3547 57.0194 55.4194C56.9445 55.4847 56.8576 55.5514 56.7601 55.6191C56.5457 55.7765 56.3391 55.8873 56.141 55.952C55.943 56.0163 55.7196 56.0477 55.471 56.0457C55.0379 56.0474 54.7055 55.9448 54.4677 55.7426C54.3347 55.6229 54.2304 55.4728 54.1541 55.2904C54.0778 55.1085 54.0388 54.9128 54.0371 54.7028C54.0422 53.9284 54.5177 53.4287 55.4901 53.2074C55.7473 53.1479 56.0193 53.0989 56.3052 53.0606C56.5922 53.0223 56.9171 52.9909 57.2807 52.9662L57.318 52.2907C57.3187 52.0598 57.3074 51.8727 57.2848 51.7301C57.2623 51.5857 57.225 51.4599 57.1727 51.3535C57.0283 51.0723 56.7342 50.9376 56.309 50.9376C55.6269 50.9341 55.2572 51.2587 55.2189 51.9045C55.2148 52.0071 55.2052 52.0793 55.1919 52.1231C55.1789 52.1641 55.1566 52.1946 55.1252 52.2168C55.0574 52.2623 54.9493 52.2886 54.7941 52.2903C54.4599 52.2955 54.3347 52.1959 54.3402 52.0287C54.3422 51.8536 54.4004 51.6842 54.517 51.5211C54.6336 51.3572 54.7961 51.215 55.0061 51.0935C55.3837 50.8842 55.8674 50.7775 56.4605 50.7758C57.1094 50.7775 57.5445 50.9246 57.7822 51.2054C57.8783 51.3237 57.9498 51.4698 57.9963 51.6466C58.0425 51.8235 58.0661 52.0475 58.0657 52.3201L58.0647 52.3779L58.0596 52.642L58.0456 53.3394L58.0353 54.2985L58.0254 54.763C58.0261 54.9816 58.0353 55.1482 58.0504 55.3346C58.0654 55.5162 58.1304 55.7187 58.2758 55.7724C58.4273 55.8285 58.573 55.8507 58.8504 55.8524C59.0543 55.8483 59.2113 55.8251 59.3176 55.7799C59.4391 55.7283 59.5136 55.6188 59.5458 55.4635C59.5772 55.312 59.5909 55.0815 59.5875 54.7726V52.0656C59.5944 51.6972 59.5516 51.438 59.4466 51.3025C59.344 51.1701 59.1531 51.113 58.8908 51.1158V50.9721L60.3349 50.8667V52.0171L60.4101 51.883C60.6239 51.5023 60.8664 51.2331 61.1363 51.0713C61.4062 50.9095 61.7445 50.8295 62.1518 50.8336C62.7641 50.8254 63.1906 51.0306 63.4403 51.4407C63.5317 51.5779 63.5984 51.7434 63.638 51.937C63.6777 52.131 63.6976 52.3789 63.6965 52.681V54.7726C63.6928 55.0845 63.7058 55.3168 63.7359 55.4676C63.7666 55.6229 63.8405 55.732 63.9623 55.7823C64.0629 55.8237 64.2975 55.8463 64.4976 55.8517C64.685 55.8459 64.8301 55.823 64.9293 55.7796C65.0476 55.7279 65.1191 55.6181 65.1495 55.4628C65.179 55.312 65.1916 55.0811 65.1879 54.7726V49.8546C65.1916 49.5728 65.18 49.3638 65.1516 49.229C65.1222 49.0884 65.0497 48.9916 64.931 48.9499C64.828 48.9137 64.6738 48.8966 64.4713 48.8959V48.7519L65.9732 48.6753C65.9544 49.0087 65.94 49.3498 65.9304 49.6983C65.9202 50.0623 65.9154 50.38 65.9154 50.6519V53.9558L67.5702 52.1426C67.8042 51.8833 67.9321 51.6654 67.9338 51.491C67.9458 51.2481 67.7005 51.1383 67.2979 51.1182V50.9748H69.4484V51.1205C69.3191 51.1356 69.2066 51.1592 69.1111 51.192C69.0072 51.2273 68.9004 51.2786 68.7917 51.3442C68.6812 51.4109 68.5888 51.4722 68.5139 51.5279C68.4376 51.585 68.3477 51.6661 68.244 51.7715C68.1404 51.8765 67.9906 52.0359 67.7936 52.25L67.2473 52.838L68.6771 55.0869C68.8402 55.3534 68.9904 55.5418 69.1282 55.6489C69.2599 55.7508 69.4279 55.8165 69.63 55.8476V55.9947H68.3224C68.2865 55.9215 68.2372 55.8268 68.1743 55.7105L67.9663 55.3311L67.8072 55.0455L66.749 53.3209L65.9174 54.2513L65.9154 54.7726C65.9116 55.0811 65.9243 55.312 65.954 55.4632C65.9848 55.6185 66.0573 55.7283 66.1774 55.7799C66.2824 55.8247 66.4387 55.8483 66.6419 55.8524V55.9947H62.2223V55.8521C62.5216 55.8439 62.7272 55.795 62.8096 55.6858C62.8428 55.6434 62.8677 55.5952 62.8852 55.5412C62.903 55.4868 62.9136 55.4167 62.9187 55.3311C62.9245 55.2634 62.9307 55.1659 62.9375 55.0377C62.9447 54.9091 62.9485 54.8205 62.9492 54.7733V52.7418C62.9509 52.2407 62.8972 51.87 62.7836 51.6343C62.6116 51.2635 62.3003 51.0778 61.859 51.0761C61.3672 51.0744 60.9749 51.3087 60.6841 51.7715C60.5747 51.9462 60.4898 52.1453 60.4286 52.3673C60.367 52.59 60.3359 52.8089 60.3349 53.0244V54.7726C60.3311 55.0845 60.3441 55.3168 60.3742 55.4676C60.405 55.6229 60.4785 55.732 60.6003 55.7823C60.7067 55.8261 60.8651 55.8487 61.0717 55.8524V55.9947L58.8979 55.9944C58.705 56.0009 58.338 56.0108 58.156 56.0084C57.9652 56.0057 57.8732 55.9855 57.6991 55.9725C57.5445 55.9273 57.4795 55.887 57.4285 55.7857ZM54.8655 54.6727C54.8693 55.0018 54.9493 55.2692 55.1091 55.471C55.2692 55.6739 55.486 55.7779 55.7535 55.783C56.0237 55.7792 56.2792 55.7088 56.5183 55.5719C56.7567 55.4351 56.9445 55.2528 57.0806 55.026C57.1638 54.8814 57.2243 54.6953 57.2623 54.4699C57.2999 54.2455 57.3187 53.9664 57.318 53.6329V53.1147C56.834 53.1564 56.4879 53.2019 56.2361 53.2553C55.9827 53.309 55.759 53.3856 55.564 53.4858C55.1012 53.7157 54.869 54.1141 54.8655 54.6727Z" fill="#3A3A3A"/>
<path fill-rule="evenodd" clip-rule="evenodd" d="M12.3389 52.9452V54.746C12.3352 55.0351 12.3516 55.2495 12.3885 55.3894C12.4258 55.5297 12.5059 55.622 12.6293 55.6672C12.7528 55.7127 12.9423 55.738 13.1978 55.7431V55.9945H10.3701V55.7431C10.6113 55.738 10.7895 55.7127 10.9051 55.6672C11.0207 55.622 11.0956 55.5297 11.1298 55.3894C11.164 55.2495 11.1791 55.0351 11.1753 54.746V50.0121C11.1791 49.7231 11.164 49.5083 11.1312 49.368C11.098 49.2278 11.0262 49.1344 10.9157 49.0879C10.8049 49.041 10.6352 49.0137 10.4057 49.0051V48.7534H13.0997C14.0078 48.7496 14.6727 48.91 15.0955 49.2339C15.5179 49.5582 15.7266 50.0692 15.7218 50.767C15.7245 51.748 15.3428 52.39 14.5763 52.6934C14.3762 52.7717 14.121 52.833 13.8111 52.8774C13.5012 52.9216 13.1568 52.9441 12.7774 52.9452H12.3389ZM12.3389 52.6643H12.8045C13.3637 52.6626 13.7752 52.5303 14.0393 52.2676C14.1829 52.1153 14.2917 51.9163 14.3659 51.6697C14.4401 51.4234 14.4774 51.1419 14.4778 50.8251C14.4747 49.6328 13.9527 49.0359 12.9115 49.0342H12.3389V52.6643Z" fill="#3A3A3A"/>
<path fill-rule="evenodd" clip-rule="evenodd" d="M20.2748 53.2492H16.9844C16.9881 53.6001 17.0086 53.8946 17.0463 54.1324C17.0835 54.3697 17.1437 54.5869 17.2265 54.7836C17.4998 55.4205 17.9219 55.7386 18.4931 55.7386C18.8167 55.7369 19.1102 55.6418 19.3732 55.453C19.6366 55.2642 19.8552 54.9929 20.0299 54.6386L20.2629 54.7932C20.0337 55.2491 19.7539 55.584 19.4235 55.7978C19.0931 56.0116 18.6898 56.1173 18.2137 56.1152C17.4646 56.1056 16.776 55.8662 16.3444 55.3976C15.9131 54.9286 15.6931 54.2863 15.6846 53.4712C15.6931 52.6499 15.9059 52.0004 16.3225 51.5219C16.7388 51.0437 17.404 50.7991 18.1206 50.7885C18.5974 50.7899 19.0575 50.8983 19.3842 51.1141C19.7108 51.3303 19.9516 51.6464 20.1072 52.0623C20.1579 52.2005 20.1962 52.3585 20.2225 52.5364C20.2485 52.7142 20.266 52.952 20.2748 53.2492ZM16.9936 52.9694H19.052C19.0438 52.6718 19.0277 52.432 19.0041 52.2504C18.9809 52.0688 18.9439 51.9063 18.8937 51.7633C18.7199 51.2564 18.4528 51.0057 18.0929 51.0105C17.6893 51.0139 17.388 51.2968 17.1892 51.8598C17.1386 52.0055 17.0979 52.1652 17.0671 52.3387C17.0363 52.5121 17.0117 52.7224 16.9936 52.9694Z" fill="#3A3A3A"/>
<path d="M20.4849 50.9266L22.3101 50.8004C22.3197 50.9824 22.3272 51.1356 22.332 51.2591C22.3368 51.3829 22.3392 51.4924 22.3392 51.5868V51.8782C22.7356 51.1534 23.2145 50.7874 23.7761 50.7809C24.0186 50.7857 24.2157 50.8565 24.3672 50.9933C24.5184 51.1302 24.5967 51.3056 24.6011 51.5191C24.5977 51.6966 24.532 51.8389 24.4045 51.9459C24.2772 52.0533 24.11 52.1084 23.9023 52.1111C23.653 52.119 23.5011 52.0157 23.446 51.8006C23.4101 51.6675 23.3728 51.5769 23.3342 51.5286C23.2959 51.4804 23.2391 51.4578 23.1645 51.4606H23.145C22.9542 51.477 22.7729 51.6289 22.6015 51.9169C22.5239 52.0609 22.4654 52.2196 22.4264 52.394C22.3877 52.5681 22.3683 52.7682 22.3683 52.9947V54.7907C22.3645 55.0774 22.3785 55.2888 22.41 55.4246C22.4415 55.5604 22.5129 55.6493 22.6244 55.6914C22.7356 55.7331 22.9094 55.7567 23.145 55.7615V55.9948H20.4463V55.7615C20.6662 55.7625 20.829 55.7413 20.9351 55.6975C21.0411 55.6541 21.1099 55.5631 21.1417 55.4246C21.1731 55.2857 21.1872 55.0746 21.1841 54.7907V52.1012C21.193 51.701 21.153 51.4411 21.0637 51.321C20.9748 51.201 20.7815 51.1473 20.4849 51.1596V50.9266Z" fill="#3A3A3A"/>
<path d="M26.7692 50.8008L26.7791 51.7619C27.1721 51.1148 27.7351 50.7878 28.4681 50.7813C29.2141 50.7765 29.6735 51.1161 29.8466 51.8009C30.0576 51.4483 30.2984 51.1897 30.5686 51.0251C30.8392 50.861 31.1549 50.7796 31.5164 50.7813C32.0877 50.7847 32.5084 50.9721 32.7786 51.3443C32.8843 51.4852 32.9592 51.6576 33.0044 51.8615C33.0492 52.0653 33.0711 52.3297 33.0697 52.655V54.7907C33.0666 55.0746 33.0806 55.2857 33.1121 55.4242C33.1439 55.5631 33.2127 55.6541 33.3187 55.6975C33.4247 55.7413 33.5875 55.7625 33.8078 55.7615V55.9948H31.1768V55.7615C31.3872 55.7625 31.5431 55.7413 31.6451 55.6975C31.747 55.6541 31.8133 55.5631 31.8441 55.4242C31.8749 55.2857 31.8886 55.0746 31.8855 54.7907V52.6646C31.8876 52.1546 31.825 51.7865 31.6974 51.5604C31.5695 51.3344 31.3639 51.2235 31.0797 51.228C30.7383 51.2215 30.4503 51.3993 30.2156 51.7619C30.0135 52.0646 29.9129 52.3913 29.9146 52.7426V54.7907C29.9116 55.0746 29.9252 55.2857 29.9564 55.4242C29.9872 55.5631 30.0545 55.6541 30.1578 55.6975C30.2611 55.7413 30.4195 55.7625 30.6329 55.7615V55.9948H28.0313V55.7615C28.2417 55.7625 28.398 55.7413 28.4996 55.6975C28.6015 55.6541 28.6679 55.5631 28.6987 55.4242C28.7294 55.2857 28.7431 55.0746 28.7401 54.7907V52.655C28.7448 51.6938 28.4828 51.2181 27.9537 51.228C27.6243 51.2396 27.3483 51.3959 27.1259 51.6962C26.9036 51.9969 26.788 52.3714 26.7791 52.8202V54.7907C26.776 55.0777 26.7897 55.2905 26.8205 55.4287C26.8509 55.5672 26.9173 55.6575 27.0192 55.6999C27.1211 55.7423 27.2771 55.7628 27.4875 55.7615V55.9948H24.8564V55.7615C25.0767 55.7628 25.2395 55.7423 25.3456 55.6999C25.4516 55.6575 25.5207 55.5672 25.5522 55.4287C25.5836 55.2905 25.5977 55.0777 25.5946 54.7907V52.092C25.6045 51.6969 25.5652 51.4411 25.4756 51.3238C25.3863 51.2068 25.1865 51.152 24.8763 51.1599V50.927L26.7692 50.8008Z" fill="#3A3A3A"/>
<path d="M40.7106 51.245V54.4876C40.7103 54.6986 40.7181 54.8734 40.7335 55.0116C40.7493 55.1498 40.7739 55.2664 40.8077 55.3612C40.8488 55.4696 40.9121 55.5561 40.9983 55.6208C41.0841 55.6854 41.1792 55.719 41.2832 55.7203C41.4905 55.7172 41.7169 55.617 41.9628 55.4193L42.0986 55.6622C41.709 55.9888 41.2654 56.1506 40.7687 56.1475C40.2331 56.1393 39.8675 55.9615 39.6718 55.6136C39.6335 55.5366 39.6034 55.4487 39.5822 55.3502C39.561 55.2517 39.5463 55.1187 39.5381 54.9514C39.5299 54.7838 39.5257 54.5577 39.5261 54.2738V51.245H38.9727V50.9539C39.184 50.9457 39.3633 50.9012 39.5104 50.8202C39.6574 50.7391 39.7857 50.6122 39.8952 50.4391C39.981 50.3074 40.0518 50.1607 40.1076 49.9999C40.163 49.8388 40.2119 49.6391 40.2543 49.4003L40.7397 49.3517C40.7332 49.4804 40.7277 49.6107 40.7236 49.7427C40.7192 49.8747 40.7161 50.0338 40.714 50.2199C40.7116 50.4056 40.7106 50.644 40.7106 50.9341H41.8852V51.245H40.7106Z" fill="#3A3A3A"/>
<path fill-rule="evenodd" clip-rule="evenodd" d="M38.9677 55.7889V55.9942C38.6835 56.013 38.5689 56.0126 38.2703 56.013C38.0332 56.0133 37.788 56.0092 37.5845 55.9326C37.4586 55.8854 37.3881 55.845 37.2944 55.7458C37.2287 55.6419 37.187 55.6364 37.1658 55.3467C36.9154 55.6172 36.6544 55.8163 36.3835 55.9436C36.1123 56.0711 35.8195 56.1341 35.5058 56.133C35.04 56.1279 34.6757 55.9993 34.4127 55.7469C34.1493 55.4944 34.0155 55.1476 34.0107 54.7057C34.009 53.8725 34.5272 53.3546 35.5643 53.1524C36.0319 53.0618 36.5624 53.0006 37.1562 52.9681V52.337C37.1613 51.8315 37.1076 51.4809 36.9961 51.2862C36.8846 51.0913 36.6856 50.9982 36.3989 51.0071C36.0948 51.0006 35.878 51.1104 35.7487 51.3372C35.7015 51.4148 35.6673 51.5045 35.6454 51.6054C35.6238 51.7063 35.6064 51.8465 35.5934 52.0264C35.5855 52.1992 35.5353 52.322 35.4429 52.3952C35.3502 52.4683 35.2028 52.5039 35.001 52.5022C34.5512 52.4988 34.3247 52.35 34.3213 52.0555C34.323 51.8838 34.3761 51.7199 34.4807 51.564C34.585 51.408 34.7328 51.2708 34.9237 51.1525C35.328 50.9035 35.8585 50.7807 36.5156 50.7838C37.1839 50.7807 37.6628 50.9131 37.9525 51.1819C38.0828 51.3047 38.1786 51.4617 38.2398 51.6526C38.3014 51.8434 38.3315 52.0877 38.3311 52.3856L38.3212 53.2301L38.3117 54.0746C38.3034 54.3513 38.3004 54.5261 38.3017 54.599C38.2983 54.9489 38.3096 55.2047 38.3349 55.3658C38.3602 55.5273 38.3883 55.5981 38.4943 55.6856C38.6797 55.7917 38.8384 55.7886 38.9677 55.7889ZM37.1562 53.9388V53.1914C36.4612 53.2386 35.9683 53.3672 35.6772 53.5773C35.3861 53.7873 35.2449 54.115 35.2534 54.5603C35.2565 54.9095 35.3283 55.1866 35.4682 55.3915C35.6085 55.5964 35.799 55.701 36.0398 55.7058C36.2375 55.7038 36.4198 55.647 36.587 55.5345C36.7543 55.4226 36.886 55.266 36.9814 55.0652C37.044 54.942 37.0888 54.7922 37.1162 54.6147C37.1436 54.4372 37.1569 54.2121 37.1562 53.9388Z" fill="#3A3A3A"/>
<path fill-rule="evenodd" clip-rule="evenodd" d="M47.3271 55.789V55.9942C47.0428 56.013 46.9282 56.0134 46.6296 56.0137C46.3926 56.0141 46.1473 56.01 45.9438 55.9333C45.818 55.8861 45.7475 55.8458 45.6538 55.7466C45.5881 55.6426 45.5464 55.6371 45.5252 55.3474C45.2748 55.618 45.0138 55.817 44.7426 55.9443C44.4717 56.0719 44.1789 56.1348 43.8652 56.1338C43.3993 56.1286 43.0351 56 42.772 55.7476C42.5087 55.4952 42.3749 55.1483 42.3701 54.7064C42.3684 53.8732 42.8863 53.3553 43.9237 53.1532C44.3913 53.0625 44.9218 53.0013 45.5156 52.9688V52.3377C45.5207 51.8322 45.467 51.4816 45.3555 51.287C45.2437 51.092 45.0446 50.999 44.7583 51.0079C44.4542 51.0014 44.2374 51.1112 44.1081 51.3379C44.0609 51.4156 44.0263 51.5052 44.0048 51.6061C43.9832 51.707 43.9658 51.8472 43.9528 52.0272C43.9449 52.1999 43.8946 52.3227 43.8023 52.3962C43.7096 52.4691 43.5622 52.5047 43.3603 52.5029C42.9106 52.4995 42.6841 52.3507 42.6807 52.0562C42.6824 51.8845 42.7354 51.7207 42.8401 51.5647C42.9444 51.4087 43.0922 51.2716 43.2827 51.1532C43.6873 50.9042 44.2179 50.7814 44.8749 50.7845C45.5433 50.7814 46.0222 50.9138 46.3119 51.1826C46.4422 51.3054 46.538 51.4624 46.5992 51.6533C46.6608 51.8442 46.6909 52.0884 46.6905 52.3863L46.6806 53.2308L46.671 54.0753C46.6628 54.3521 46.6597 54.5268 46.6611 54.5997C46.6577 54.9496 46.669 55.2055 46.6943 55.3669C46.7196 55.528 46.7476 55.5988 46.8537 55.6864C47.0391 55.7924 47.1978 55.7887 47.3271 55.789ZM45.5156 53.9395V53.1922C44.8205 53.2394 44.3273 53.368 44.0366 53.578C43.7455 53.788 43.6042 54.1157 43.6128 54.561C43.6159 54.9103 43.6877 55.1873 43.8276 55.3922C43.9678 55.5971 44.1583 55.7018 44.3991 55.7066C44.5968 55.7045 44.7792 55.6477 44.9464 55.5352C45.1137 55.423 45.245 55.2667 45.3408 55.0656C45.4034 54.9431 45.4482 54.793 45.4756 54.6154C45.5029 54.4382 45.5163 54.2128 45.5156 53.9395Z" fill="#3A3A3A"/>
<path d="M29.921 31.7097L29.8975 32.1689L38.7104 42.5073L39.0269 42.559L39.0668 42.5392L39.2214 42.2526L35.4631 29.6725L34.8252 29.2426L29.921 31.7097Z" fill="#0097B9"/>
<path d="M44.0638 28.9934L49.7622 31.6134L49.7727 32.3526L40.421 46.5181L39.9941 46.6307L39.9311 46.6017L39.7979 46.2824L43.5671 29.2695L44.0638 28.9934Z" fill="#80B13A"/>
<path d="M35.3594 24.9629L35.5863 24.5259L42.8819 24.4469L43.3534 24.9364L39.8581 36.6143L39.6366 36.7429L39.6295 36.7425L39.39 36.5811L35.3594 24.9629Z" fill="#D81936"/>
<path fill-rule="evenodd" clip-rule="evenodd" d="M32.5266 32.6712L39.044 42.5864L38.6974 42.5297L29.873 32.1645L32.5266 32.6712Z" fill="#005874"/>
<path d="M34.8338 29.2316L35.4696 29.6631L33.495 32.2886L32.5781 31.8877L34.8338 29.2316Z" fill="#2FB8E7"/>
<path d="M32.5775 31.8874L32.5262 32.6715L29.873 32.1647L29.9008 31.7088L32.5775 31.8874Z" fill="#007592"/>
<path d="M33.4951 32.2889L35.4739 29.6593L39.2797 42.2499L39.086 42.5756L33.4951 32.2889Z" fill="#007592"/>
<path d="M49.7916 32.3508L40.4475 46.5471L39.9697 46.6862L45.9757 32.6757L49.7916 32.3508Z" fill="#6E9123"/>
<path d="M44.9004 32.0839L39.9167 46.6423L39.7764 46.2852L43.5603 29.2551L44.9004 32.0839Z" fill="#3F7937"/>
<path d="M49.7767 31.6132L49.7918 32.3507L45.9759 32.6759L45.7607 31.6653L49.7767 31.6132Z" fill="#A5C550"/>
<path d="M45.7614 31.6652L44.9 32.0829L43.5596 29.2536L44.0521 28.9759L45.7614 31.6652Z" fill="#5D8B27"/>
<path d="M38.7108 25.7483L38.1851 26.3694L35.334 24.9495L35.5643 24.5175L38.7108 25.7483Z" fill="#AF2C35"/>
<path d="M35.334 24.9496L38.1855 26.3694L39.631 36.7666L39.378 36.5943L35.334 24.9496Z" fill="#762624"/>
<path d="M39.5566 26.3709L43.3654 24.9313L39.8752 36.6302L39.6356 36.7664L39.5566 26.3709Z" fill="#B22B37"/>
<path d="M38.7109 25.7483L39.5564 26.3711L43.3656 24.9315L42.8886 24.4444L38.7109 25.7483Z" fill="#DC505E"/>
</svg>
