<svg width="80" height="80" viewBox="0 0 80 80" fill="none" xmlns="http://www.w3.org/2000/svg">
<path d="M67.2017 36.6499H57.7953V34.7674H67.2017V31.0045H52.1518V40.4109H61.5583V42.2934H52.1518V46.0563H67.2017V36.6499Z" fill="black"/>
<path d="M50.2714 31.0045H46.5084V46.0543H50.2714V31.0045Z" fill="black"/>
<path d="M29.578 31.0045V34.7674H40.8649V36.6499H29.578V46.0563H33.339V40.4682L38.9844 46.0563H44.6279L38.7395 40.4109H44.6279V31.0045H29.578Z" fill="black"/>
<path d="M18.2891 40.4109H22.0422V36.6578H18.2891V40.4109ZM19.2314 37.5902H21.1118V39.4706H19.2314V37.5902Z" fill="black"/>
<path d="M16.4086 31.0045H13.1158C12.9914 31.0054 12.8722 31.0551 12.7839 31.1427C12.74 31.1865 12.7052 31.2385 12.6815 31.2958C12.6577 31.3531 12.6456 31.4146 12.6457 31.4766V45.5842C12.6456 45.6462 12.6577 45.7077 12.6815 45.765C12.7052 45.8222 12.74 45.8743 12.7839 45.9181C12.8724 46.0052 12.9916 46.0541 13.1158 46.0543H22.0521V42.3013H16.4086V31.0045Z" fill="black"/>
<path d="M27.2254 31.0045H18.2891V34.7674H23.9346V40.4109H27.6876V31.4766C27.6888 31.3523 27.6413 31.2325 27.5553 31.1427C27.4671 31.056 27.349 31.0065 27.2254 31.0045Z" fill="black"/>
<path d="M27.6975 42.2934H23.9346V50.7595H27.6975V42.2934Z" fill="black"/>
<path d="M17.896 28.8889H10.8402C10.7157 28.8894 10.5964 28.9391 10.5084 29.0272C10.4203 29.1152 10.3706 29.2345 10.3701 29.359V36.4148H11.3104V30.2914C11.3129 30.1682 11.3635 30.051 11.4514 29.9646C11.5392 29.8783 11.6573 29.8297 11.7805 29.8292H17.9039L17.896 28.8889Z" fill="black"/>
<path d="M68.6891 41.1161V47.2395C68.6886 47.3641 68.6389 47.4833 68.5509 47.5714C68.4628 47.6594 68.3435 47.7091 68.219 47.7097H62.0955V48.642H69.1513C69.2137 48.6428 69.2755 48.6312 69.3334 48.608C69.3912 48.5847 69.4439 48.5502 69.4883 48.5065C69.5328 48.4628 69.5681 48.4107 69.5923 48.3533C69.6165 48.2959 69.6291 48.2342 69.6294 48.1719V41.1161H68.6891Z" fill="black"/>
</svg>
