<svg width="80" height="80" viewBox="0 0 80 80" fill="none" xmlns="http://www.w3.org/2000/svg">
<path fill-rule="evenodd" clip-rule="evenodd" d="M28.8556 26.672L11.1521 29.0327C11.1521 29.0327 10.3701 29.1235 10.3701 30.0657V46.8784C10.3701 46.8784 10.4769 48.846 12.7255 48.846H32.7898C32.7898 48.846 34.578 48.4187 34.578 46.6284V32.7555C34.578 32.7555 34.6133 30.7878 32.2536 30.7878H12.905C12.6773 30.7397 12.4679 30.6281 12.3009 30.4659C12.134 30.3037 12.0164 30.0975 11.9618 29.8713C11.903 29.5594 12.0291 29.5273 12.3591 29.5273H30.1257V27.611C30.1257 27.611 30.0627 26.5833 28.8556 26.672Z" fill="#E8451E"/>
<path fill-rule="evenodd" clip-rule="evenodd" d="M22.8332 45.9928C21.3655 45.9928 20.2844 45.3946 18.6896 43.8169C18.5589 43.6806 18.4867 43.4986 18.4883 43.3098C18.4899 43.121 18.5651 42.9403 18.698 42.8061C18.8309 42.672 19.0109 42.5951 19.1997 42.5917C19.3885 42.5884 19.5711 42.6589 19.7087 42.7882C21.3879 44.4482 22.1655 44.8605 23.5072 44.4973C24.287 44.2837 24.9867 43.2924 25.0273 42.1526C25.0593 41.2671 24.4344 40.6892 23.1707 40.436C20.9018 39.982 19.5623 39.1146 19.1906 37.8563C18.8915 36.8436 19.2846 35.7123 20.2684 34.7584L20.309 34.7221C22.4241 32.9542 24.8799 34.2713 25.8829 35.2156C26.0168 35.3485 26.0935 35.5284 26.0968 35.717C26.1001 35.9055 26.0297 36.088 25.9006 36.2254C25.7715 36.3629 25.5938 36.4446 25.4054 36.4531C25.2169 36.4616 25.0326 36.3963 24.8916 36.271C24.8072 36.192 22.9069 34.4657 21.2597 35.816C20.6968 36.3725 20.4425 36.9825 20.5814 37.4503C20.7822 38.1319 21.8034 38.6895 23.456 39.0206C26.2643 39.5825 26.5036 41.438 26.4758 42.2092C26.416 43.8895 25.0102 45.7717 23.691 45.9384C23.4065 45.9746 23.12 45.9928 22.8332 45.9928Z" fill="white"/>
<path fill-rule="evenodd" clip-rule="evenodd" d="M42.0252 30.6864C41.7049 30.4907 41.3581 30.3422 40.9955 30.2452C40.2477 30.0316 39.7083 29.7581 39.4508 29.4088C39.2212 29.1054 39.2212 28.7102 39.4968 28.2038C39.6527 27.9005 40.0309 27.7082 40.5169 27.6697C41.132 27.6453 41.7423 27.7882 42.2827 28.0831C42.3606 28.1221 42.4508 28.1285 42.5334 28.1009C42.616 28.0734 42.6843 28.0142 42.7233 27.9363C42.7623 27.8583 42.7687 27.7681 42.7411 27.6855C42.7136 27.6029 42.6543 27.5346 42.5764 27.4956C41.8233 27.1089 41.0809 26.9615 40.4624 27.0085C39.7446 27.063 39.1806 27.376 38.9092 27.8812C38.4948 28.645 38.5226 29.2699 38.9092 29.7933C39.2671 30.2623 39.9198 30.6212 40.8117 30.869C41.117 30.954 41.4103 31.0775 41.6845 31.2365C42.0338 31.4501 42.2634 31.6969 42.3745 31.9629C42.4809 32.214 42.496 32.4944 42.4173 32.7555C42.3742 32.8908 42.3154 33.0206 42.2421 33.1422C42.2421 33.1604 42.2239 33.1785 42.2058 33.2063C41.9387 33.6015 41.5071 33.8034 40.9826 33.8034C40.4037 33.8034 39.6955 33.5738 38.9424 33.1144C38.8355 33.0503 38.7287 32.9852 38.639 32.9211C38.5659 32.8723 38.4764 32.8547 38.3903 32.8719C38.3042 32.8891 38.2284 32.9399 38.1797 33.0129C38.1309 33.086 38.1132 33.1755 38.1305 33.2616C38.1477 33.3478 38.1984 33.4235 38.2715 33.4723C38.3794 33.5403 38.4835 33.6141 38.5834 33.6934C39.4476 34.2179 40.2659 34.4743 40.9645 34.4743C41.7186 34.4743 42.3436 34.1805 42.7388 33.5919C42.7548 33.5598 42.7734 33.5291 42.7943 33.5001C42.901 33.3281 42.9844 33.1428 43.0422 32.9489C43.1655 32.5427 43.1394 32.1058 42.9685 31.7172C42.7698 31.2832 42.4399 30.9227 42.0252 30.6864Z" fill="#E8451E"/>
<path fill-rule="evenodd" clip-rule="evenodd" d="M47.0903 29.96C46.7138 29.8675 46.3192 29.8801 45.9494 29.9963C45.5282 30.1264 45.1397 30.3449 44.8097 30.6372V27.3215C44.8049 27.2371 44.7679 27.1577 44.7065 27.0996C44.645 27.0415 44.5636 27.0092 44.479 27.0092C44.3945 27.0092 44.3131 27.0415 44.2516 27.0996C44.1902 27.1577 44.1532 27.2371 44.1484 27.3215V34.1517C44.1532 34.2361 44.1902 34.3155 44.2516 34.3736C44.3131 34.4317 44.3945 34.464 44.479 34.464C44.5636 34.464 44.645 34.4317 44.7065 34.3736C44.7679 34.3155 44.8049 34.2361 44.8097 34.1517V31.5954C44.8162 31.5903 44.8223 31.5846 44.8278 31.5783C45.2423 31.072 45.7016 30.7601 46.1428 30.6223C46.3957 30.5403 46.6666 30.5307 46.9247 30.5945C47.1348 30.6515 47.3193 30.778 47.4481 30.9534C47.5916 31.1756 47.6622 31.437 47.65 31.7012V34.1442C47.65 34.232 47.6849 34.3162 47.747 34.3783C47.8091 34.4404 47.8934 34.4753 47.9812 34.4753C48.069 34.4753 48.1532 34.4404 48.2153 34.3783C48.2774 34.3162 48.3123 34.232 48.3123 34.1442V31.698C48.3237 31.2984 48.2077 30.9056 47.9812 30.5764C47.7648 30.2737 47.4498 30.0558 47.0903 29.96Z" fill="#E8451E"/>
<path fill-rule="evenodd" clip-rule="evenodd" d="M52.7151 33.343C52.4071 33.6489 51.9906 33.8205 51.5566 33.8205C51.1225 33.8205 50.7061 33.6489 50.3981 33.343C50.0922 33.035 49.9206 32.6186 49.9206 32.1845C49.9206 31.7505 50.0922 31.334 50.3981 31.026C50.7073 30.7216 51.1232 30.5502 51.5571 30.5486C51.8808 30.5488 52.1971 30.6449 52.4662 30.8248C52.7353 31.0047 52.945 31.2602 53.0689 31.5592C53.1928 31.8583 53.2253 32.1873 53.1623 32.5048C53.0994 32.8222 52.9437 33.1139 52.7151 33.343ZM51.5571 29.8959C50.9587 29.9088 50.3891 30.1556 49.9705 30.5834C49.5518 31.0112 49.3174 31.586 49.3174 32.1845C49.3174 32.7831 49.5518 33.3578 49.9705 33.7856C50.3891 34.2134 50.9587 34.4602 51.5571 34.4732C52.1555 34.4602 52.7251 34.2134 53.1438 33.7856C53.5624 33.3578 53.7969 32.7831 53.7969 32.1845C53.7969 31.586 53.5624 31.0112 53.1438 30.5834C52.7251 30.1556 52.1555 29.9088 51.5571 29.8959Z" fill="#E8451E"/>
<path fill-rule="evenodd" clip-rule="evenodd" d="M58.2859 33.343C57.9778 33.6487 57.562 33.8213 57.1279 33.8237C56.8043 33.8235 56.4879 33.7274 56.2189 33.5475C55.9498 33.3676 55.7401 33.112 55.6162 32.813C55.4923 32.514 55.4597 32.185 55.5227 31.8675C55.5857 31.55 55.7413 31.2583 55.97 31.0293C56.2786 30.7247 56.6943 30.5533 57.1279 30.5518C57.4509 30.5526 57.7665 30.6489 58.0349 30.8287C58.3033 31.0084 58.5125 31.2635 58.6363 31.5618C58.76 31.8602 58.7928 32.1885 58.7305 32.5054C58.6681 32.8224 58.5134 33.1138 58.2859 33.343ZM57.1365 29.8959C56.836 29.8955 56.5384 29.9546 56.2608 30.0697C55.9833 30.1849 55.7312 30.3538 55.5192 30.5667C55.4923 30.5888 55.4676 30.6135 55.4455 30.6404V30.227C55.4455 30.1392 55.4106 30.055 55.3485 29.9929C55.2864 29.9308 55.2022 29.8959 55.1143 29.8959C55.0265 29.8959 54.9423 29.9308 54.8802 29.9929C54.8181 30.055 54.7832 30.1392 54.7832 30.227V36.7346C54.7832 36.8224 54.8181 36.9066 54.8802 36.9688C54.9423 37.0309 55.0265 37.0657 55.1143 37.0657C55.2022 37.0657 55.2864 37.0309 55.3485 36.9688C55.4106 36.9066 55.4455 36.8224 55.4455 36.7346V33.7286C55.4722 33.751 55.4968 33.7757 55.5192 33.8023C55.7853 34.0683 56.113 34.2646 56.473 34.3737C56.8331 34.4829 57.2146 34.5015 57.5836 34.4281C57.9526 34.3546 58.2978 34.1912 58.5887 33.9524C58.8795 33.7137 59.1069 33.4069 59.2508 33.0592C59.3948 32.7116 59.4507 32.3338 59.4138 31.9593C59.3769 31.5849 59.2481 31.2253 59.039 30.9125C58.83 30.5997 58.5469 30.3432 58.2151 30.1659C57.8832 29.9886 57.5127 29.8958 57.1365 29.8959Z" fill="#E8451E"/>
<path fill-rule="evenodd" clip-rule="evenodd" d="M61.1102 31.6787C61.1921 31.4113 61.3389 31.1684 61.5375 30.9716C61.6673 30.8402 61.8218 30.736 61.9921 30.6648C62.1625 30.5937 62.3453 30.557 62.5299 30.557C62.7145 30.557 62.8973 30.5937 63.0676 30.6648C63.238 30.736 63.3925 30.8402 63.5222 30.9716C63.7196 31.1721 63.8706 31.4135 63.9645 31.6787H61.1102ZM63.988 30.5037C63.799 30.3101 63.573 30.1566 63.3234 30.0524C63.0738 29.9481 62.8057 29.8952 62.5352 29.8969C62.2643 29.8924 61.9954 29.944 61.7454 30.0484C61.4954 30.1528 61.2697 30.3078 61.0824 30.5037C60.292 31.3583 60.3016 32.278 60.6135 33.2063C60.7531 33.602 61.0262 33.9366 61.3858 34.1527C61.7517 34.3809 62.1782 34.4926 62.6089 34.4732C63.1348 34.4538 63.6524 34.3352 64.1343 34.1239C64.1766 34.1087 64.2153 34.085 64.2482 34.0544C64.281 34.0237 64.3072 33.9867 64.3252 33.9455C64.3432 33.9044 64.3526 33.86 64.3529 33.815C64.3531 33.7701 64.3442 33.7256 64.3266 33.6843C64.3091 33.6429 64.2833 33.6056 64.2508 33.5746C64.2183 33.5435 64.1799 33.5195 64.1378 33.5038C64.0957 33.4882 64.0508 33.4813 64.006 33.4836C63.9611 33.4858 63.9172 33.4973 63.8769 33.5171C63.4739 33.7021 63.0382 33.8053 62.595 33.8205C62.2919 33.8313 61.9919 33.7549 61.7308 33.6004C61.4993 33.4427 61.3201 33.2196 61.216 32.9595C61.1455 32.7631 61.0964 32.5597 61.0696 32.3528H64.1119C64.2775 32.3528 64.8201 32.3891 64.5392 31.4608C64.4382 31.1 64.2479 30.7704 63.9858 30.5026L63.988 30.5037Z" fill="#E8451E"/>
<path fill-rule="evenodd" clip-rule="evenodd" d="M66.1312 31.6788C66.2125 31.4112 66.3594 31.1681 66.5585 30.9716C66.6883 30.8403 66.8429 30.736 67.0134 30.6648C67.1838 30.5936 67.3667 30.557 67.5514 30.557C67.7361 30.557 67.919 30.5936 68.0894 30.6648C68.2598 30.736 68.4145 30.8403 68.5443 30.9716C68.7413 31.1722 68.8919 31.4136 68.9855 31.6788H66.1312ZM69.6328 32.0238V31.7824C69.6178 31.6737 69.5935 31.5665 69.5602 31.4619C69.4604 31.0999 69.2704 30.7691 69.0079 30.5005C68.8192 30.3069 68.5934 30.1533 68.3439 30.0491C68.0945 29.9448 67.8266 29.892 67.5562 29.8938C67.2853 29.8892 67.0163 29.9407 66.7663 30.0452C66.5163 30.1496 66.2906 30.3046 66.1034 30.5005C65.3129 31.3551 65.3215 32.2748 65.6345 33.2031C65.7737 33.599 66.0469 33.9337 66.4068 34.1495C66.7727 34.3777 67.1992 34.4894 67.6299 34.47C68.1558 34.4506 68.6734 34.3321 69.1553 34.1207C69.1976 34.1055 69.2363 34.0819 69.2691 34.0512C69.302 34.0205 69.3282 33.9835 69.3462 33.9423C69.3642 33.9012 69.3736 33.8568 69.3738 33.8119C69.3741 33.767 69.3652 33.7225 69.3476 33.6811C69.3301 33.6398 69.3043 33.6024 69.2718 33.5714C69.2393 33.5404 69.2009 33.5163 69.1588 33.5006C69.1167 33.485 69.0718 33.4781 69.027 33.4804C68.9821 33.4827 68.9382 33.4941 68.8979 33.514C68.4949 33.699 68.0592 33.8021 67.616 33.8173C67.3128 33.8281 67.0129 33.7518 66.7518 33.5973C66.52 33.4399 66.3407 33.2166 66.2369 32.9563C66.1666 32.7598 66.1172 32.5565 66.0895 32.3496H69.1329C69.2536 32.3507 69.5741 32.3699 69.6296 32.0238H69.6328Z" fill="#E8451E"/>
<path fill-rule="evenodd" clip-rule="evenodd" d="M43.7263 43.0104H40.2909V38.0186H43.3887C43.4419 38.0183 43.495 38.0211 43.5479 38.0272C44.02 38.0795 46.0817 38.4363 46.0817 40.6475C46.0817 43.0082 43.7241 43.0082 43.7241 43.0082L43.7263 43.0104ZM43.1195 36.1161H38.3574V48.846H40.2909V45.0464H43.3268C44.3456 45.0563 45.3484 44.7921 46.2302 44.2816C47.2717 43.6652 48.3121 42.5788 48.3121 40.7009C48.3121 38.9394 47.3977 37.8221 46.4257 37.1309C45.4555 36.4577 44.3003 36.1024 43.1195 36.114V36.1161Z" fill="#E8451E"/>
<path fill-rule="evenodd" clip-rule="evenodd" d="M53.0986 47.0931C52.5321 47.0931 51.9784 46.9252 51.5074 46.6106C51.0363 46.2959 50.6691 45.8488 50.4521 45.3255C50.2352 44.8022 50.1782 44.2264 50.2884 43.6708C50.3986 43.1152 50.671 42.6047 51.0713 42.2038C51.4715 41.803 51.9816 41.5298 52.5371 41.4188C53.0925 41.3077 53.6684 41.3639 54.192 41.5801C54.7156 41.7962 55.1633 42.1628 55.4786 42.6334C55.794 43.1039 55.9627 43.6574 55.9635 44.2239V44.2314C55.963 44.9907 55.6609 45.7188 55.1236 46.2554C54.5863 46.7921 53.858 47.0934 53.0986 47.0931ZM55.9635 39.7972V40.6934C55.2954 40.1511 54.4873 39.8093 53.6328 39.7074C52.7784 39.6056 51.9125 39.7479 51.1356 40.1179C50.3588 40.488 49.7026 41.0705 49.2432 41.7982C48.7839 42.5258 48.54 43.3687 48.54 44.2292C48.54 45.0897 48.7839 45.9326 49.2432 46.6603C49.7026 47.3879 50.3588 47.9705 51.1356 48.3405C51.9125 48.7105 52.7784 48.8529 53.6328 48.751C54.4873 48.6491 55.2954 48.3073 55.9635 47.765V48.7787H57.8949V39.7972H55.9635Z" fill="#E8451E"/>
<path fill-rule="evenodd" clip-rule="evenodd" d="M58.7646 39.6743H61.3476L64.3781 45.4747L67.3018 39.6743H69.6295V39.6903L62.6882 52.6104H60.414L63.0642 47.8088L58.7646 39.6743Z" fill="#E8451E"/>
</svg>
