<svg width="80" height="80" viewBox="0 0 80 80" fill="none" xmlns="http://www.w3.org/2000/svg">
<path d="M48.9595 30.4C44.7561 30.4 40.9997 32.5787 40.9997 36.6041C40.9997 41.2204 47.6618 41.5392 47.6618 43.8584C47.6618 44.8348 46.5427 45.7089 44.6315 45.7089C41.919 45.7089 39.8917 44.4876 39.8917 44.4876L39.0242 48.5496C39.0242 48.5496 41.3596 49.5813 44.4603 49.5813C49.056 49.5813 52.6722 47.2956 52.6722 43.2014C52.6722 38.3234 45.9824 38.0141 45.9824 35.8615C45.9824 35.0966 46.901 34.2585 48.8068 34.2585C50.9572 34.2585 52.7115 35.1468 52.7115 35.1468L53.5605 31.2235C53.5605 31.2235 51.6516 30.4 48.9595 30.4ZM10.5022 30.6961L10.4004 31.2883C10.4004 31.2883 12.1688 31.6119 13.7615 32.2575C15.8123 32.9979 15.9584 33.4288 16.3037 34.7674L20.0673 49.2759H25.1125L32.8849 30.6961H27.8513L22.8571 43.3286L20.8191 32.6207C20.6322 31.3952 19.6855 30.6961 18.5267 30.6961H10.5022ZM34.909 30.6961L30.9603 49.2759H35.7603L39.695 30.6961H34.909ZM61.6799 30.6961C60.5225 30.6961 59.9092 31.3158 59.4592 32.3986L52.427 49.2759H57.4606L58.4345 46.463H64.5668L65.159 49.2759H69.6004L65.7257 30.6961H61.6799ZM62.3346 35.7158L63.8266 42.6879H59.8293L62.3346 35.7158Z" fill="#1434CB"/>
</svg>
