<svg width="14" height="14" viewBox="0 0 14 14" fill="none" xmlns="http://www.w3.org/2000/svg">
<path fill-rule="evenodd" clip-rule="evenodd" d="M6.14609 3.43341C6.14931 3.43352 6.15255 3.43324 6.15578 3.43341L6.1794 3.43523C6.19251 3.43657 6.20539 3.43888 6.21815 3.44129C6.21975 3.44159 6.22141 3.44157 6.223 3.44189C6.22526 3.44234 6.22742 3.44323 6.22966 3.44371C6.25571 3.44934 6.28117 3.45728 6.30597 3.46733C6.31176 3.46968 6.31725 3.47263 6.32293 3.4752C6.34126 3.4835 6.35897 3.49296 6.37622 3.50366C6.38333 3.50808 6.39057 3.5122 6.39742 3.51699C6.41964 3.5325 6.4414 3.54946 6.46101 3.56907L10.4302 7.53831C10.4496 7.55769 10.4658 7.57935 10.4811 7.60129C10.4853 7.60726 10.4893 7.61329 10.4932 7.61946C10.5041 7.63671 10.5138 7.65439 10.5223 7.67275C10.5259 7.68055 10.5294 7.68835 10.5326 7.69637C10.541 7.71769 10.5474 7.73954 10.5526 7.76178C10.5581 7.78563 10.5624 7.80995 10.5641 7.83506C10.5645 7.84071 10.5645 7.84635 10.5647 7.85202C10.5649 7.85705 10.5659 7.86208 10.5659 7.86716V9.72762C10.5659 11.0137 10.3115 12.035 9.62356 12.723C8.93556 13.411 7.91423 13.6653 6.62816 13.6654H4.27109C2.98502 13.6653 1.96369 13.411 1.27569 12.723C0.587726 12.035 0.333375 11.0137 0.333344 9.72762V7.37055C0.333388 6.08453 0.587707 5.06313 1.27569 4.37515C1.96369 3.68719 2.98505 3.43284 4.27109 3.43281H6.13155C6.13642 3.43281 6.14126 3.43326 6.14609 3.43341ZM4.27109 4.36304C3.07684 4.36307 2.36161 4.60468 1.93339 5.03286C1.5052 5.46105 1.26362 6.17632 1.26358 7.37055V9.72762C1.26361 10.9219 1.50522 11.6371 1.93339 12.0653C2.3616 12.4935 3.0768 12.7351 4.27109 12.7351H6.62816C7.82245 12.7351 8.53765 12.4935 8.96585 12.0653C9.39403 11.6371 9.63564 10.9219 9.63567 9.72762V8.33227H8.11677C7.34696 8.33227 6.68554 8.2096 6.23753 7.76178C5.78955 7.31379 5.66705 6.65244 5.66704 5.88254V4.36304H4.27109ZM6.59727 5.88254C6.59729 6.60088 6.72311 6.93194 6.89524 7.10408C7.06745 7.2761 7.39869 7.40204 8.11677 7.40204H8.97857L6.59727 5.02074V5.88254Z" fill="#525252"/>
<path fill-rule="evenodd" clip-rule="evenodd" d="M9.23293 0.332031C9.27482 0.332058 9.31485 0.339793 9.35345 0.3502C9.51433 0.304438 9.68924 0.34808 9.80948 0.468296L13.5304 4.18923C13.5506 4.2094 13.5679 4.2317 13.5837 4.25463C13.5864 4.25851 13.5884 4.26278 13.591 4.26675C13.6034 4.2859 13.6143 4.30555 13.6237 4.3261C13.6265 4.33235 13.6296 4.33848 13.6322 4.34487C13.6404 4.36541 13.6469 4.38643 13.6521 4.40786C13.6583 4.43322 13.663 4.45918 13.6649 4.48598C13.6653 4.49163 13.6653 4.49727 13.6655 4.50294C13.6656 4.50797 13.6667 4.513 13.6667 4.51808V8.3571C13.6665 9.575 12.6771 10.5644 11.4592 10.5646C11.2023 10.5646 10.9941 10.3564 10.9941 10.0995C10.9941 9.84264 11.2023 9.63436 11.4592 9.63436C12.1633 9.63419 12.7363 9.06125 12.7364 8.3571V4.98319H11.3411C10.6177 4.98319 9.98739 4.86859 9.55876 4.43995C9.13015 4.01132 9.01551 3.38103 9.01551 2.65761V1.26226H5.7597C4.98715 1.26226 4.3644 1.88508 4.36435 2.65761C4.36435 2.91449 4.15611 3.12273 3.89924 3.12273C3.64236 3.12273 3.43412 2.91449 3.43412 2.65761C3.43417 1.37132 4.4734 0.332031 5.7597 0.332031H9.23293ZM9.94575 2.65761C9.94575 3.32947 10.0637 3.62948 10.2165 3.78225C10.3692 3.93501 10.6692 4.05296 11.3411 4.05296H12.0787L9.94575 1.91997V2.65761Z" fill="#525252"/>
</svg>
