<svg width="64" height="32" viewBox="0 0 64 32" fill="none" xmlns="http://www.w3.org/2000/svg">
<g clip-path="url(#clip0_11267_94559)">
<path d="M11.1021 20.4671C11.1021 19.7269 11.1101 17.7483 11.0919 17.5046C11.1078 14.5605 8.96717 12.4837 7.61483 12.6456C6.67906 12.7268 5.89482 13.1083 5.47374 14.206C5.08346 15.229 5.43238 16.5897 6.72996 16.909C8.11746 17.2519 8.92765 17.5372 9.51399 17.9397C10.2324 18.4325 10.8189 19.3739 10.8345 20.4682" fill="#0060AF"/>
<path d="M11.6559 24.9431C9.20939 24.9431 6.69509 24.3406 4.18414 23.1488L4.12253 23.1185L4.09306 23.0557C2.96626 20.6772 2.37037 18.0756 2.37037 15.5304C2.37037 12.9889 2.94181 10.4987 4.06945 8.12342L4.10043 8.0603L4.16321 8.02882C6.48597 6.92847 8.9847 6.37109 11.5923 6.37109C14.0213 6.37109 16.6155 6.99159 19.0931 8.16863L19.1568 8.19692L19.1861 8.26121C20.3345 10.6836 20.9401 13.2845 20.9401 15.7875C20.9401 18.2809 20.3586 20.7733 19.2088 23.1941L19.1785 23.2578L19.1146 23.2872C16.8273 24.37 14.2479 24.9431 11.6559 24.9431ZM4.41654 22.8226C6.85583 23.97 9.28859 24.5495 11.6559 24.5495C14.166 24.5495 16.6624 24.0008 18.8845 22.9608C19.9884 20.6149 20.5479 18.2005 20.5479 15.7875C20.5479 13.3648 19.9639 10.8447 18.8592 8.49361C16.4548 7.36328 13.9437 6.76388 11.5923 6.76388C9.06775 6.76388 6.64805 7.29933 4.39544 8.35564C3.31417 10.658 2.76383 13.0705 2.76383 15.5304C2.76383 17.9949 3.33577 20.5161 4.41654 22.8226Z" fill="#0060AF"/>
<path d="M10.5222 20.4684C10.5267 19.5195 9.99716 18.6805 9.305 18.2297C8.69103 17.8312 7.86677 17.5693 6.53704 17.2321C6.126 17.127 5.69604 16.8934 5.56293 16.5957C5.21083 16.9505 5.14687 17.7481 5.20882 18.2142C5.28081 18.7537 5.91119 19.6428 6.86035 19.6776C7.43999 19.7009 8.17284 19.5528 8.52427 19.4782C9.13054 19.3472 10.0897 19.727 10.2424 20.4672" fill="#0060AF"/>
<path d="M11.5923 8.05664C9.98293 8.05664 8.59276 9.11798 8.59778 10.9545C8.6028 12.4989 9.8448 13.3257 10.288 13.9162C10.9577 14.8061 11.3202 15.8594 11.3579 17.4711C11.3872 18.7538 11.3857 20.0204 11.3922 20.4692H11.7475C11.7413 19.9996 11.7252 18.655 11.7436 17.4314C11.7677 15.8192 12.1433 14.8061 12.8133 13.9162C13.2604 13.3257 14.5014 12.4989 14.504 10.9545C14.5101 9.11798 13.1207 8.05664 11.5127 8.05664" fill="#0060AF"/>
<path d="M12.0009 20.4671C12.0009 19.7269 11.9925 17.7483 12.0104 17.5046C11.9947 14.5605 14.1339 12.4837 15.4874 12.6456C16.4232 12.7268 17.2066 13.1083 17.6289 14.206C18.0188 15.229 17.6679 16.5897 16.3718 16.909C14.9836 17.2519 14.1745 17.5372 13.5866 17.9397C12.869 18.4325 12.3235 19.3739 12.3068 20.4682" fill="#0060AF"/>
<path d="M12.5802 20.4684C12.5752 19.5195 13.1046 18.6805 13.7947 18.2297C14.4112 17.8312 15.2365 17.5693 16.565 17.2321C16.9769 17.127 17.4064 16.8934 17.5371 16.5957C17.8909 16.9505 17.9547 17.7481 17.8927 18.2142C17.8192 18.7537 17.1905 19.6428 16.2431 19.6776C15.6636 19.7009 14.9269 19.5528 14.577 19.4782C13.973 19.3472 13.0112 19.727 12.8578 20.4672" fill="#0060AF"/>
<path d="M13.0767 23.5306L12.8708 22.0279L13.3679 21.9526C13.4889 21.936 13.6363 21.9571 13.6952 22.0329C13.7603 22.1121 13.7802 22.1776 13.7928 22.2814C13.8116 22.4098 13.7744 22.5583 13.6297 22.6323V22.6368C13.7913 22.6368 13.8889 22.7529 13.9172 22.9488C13.9214 22.9901 13.9336 23.0901 13.9214 23.1734C13.8886 23.3719 13.7702 23.4356 13.5705 23.4636L13.0767 23.5306ZM13.3967 23.2615C13.4556 23.2531 13.5154 23.25 13.5621 23.2202C13.6336 23.1735 13.627 23.0735 13.6172 22.9993C13.5922 22.8363 13.5497 22.7743 13.3767 22.7999L13.2681 22.8167L13.3369 23.2699L13.3967 23.2615ZM13.2925 22.5672C13.3583 22.5565 13.4476 22.5486 13.4847 22.4862C13.5042 22.4445 13.5291 22.4113 13.5127 22.3186C13.4924 22.2086 13.4559 22.1404 13.3163 22.1669L13.1862 22.1878L13.2374 22.5729" fill="#0060AF"/>
<path d="M15.23 22.6274C15.2339 22.6554 15.2384 22.6866 15.2401 22.7145C15.2803 22.9886 15.23 23.2155 14.922 23.2779C14.4665 23.3657 14.3793 23.0827 14.2991 22.6866L14.2564 22.4722C14.1936 22.0932 14.1667 21.8062 14.6107 21.7178C14.861 21.6721 15.0264 21.7717 15.0952 22.0208C15.106 22.058 15.1194 22.0949 15.1244 22.1322L14.852 22.1884C14.8205 22.0949 14.7788 21.9276 14.6562 21.9417C14.4362 21.9681 14.5089 22.2419 14.5315 22.3562L14.6134 22.7676C14.638 22.892 14.6869 23.0907 14.8773 23.0524C15.0318 23.0214 14.9645 22.7806 14.9508 22.682" fill="#0060AF"/>
<path d="M15.6672 23.0828L15.573 21.5277L15.939 21.416L16.7063 22.7685L16.4181 22.8547L16.2363 22.511L15.9164 22.6071L15.9577 22.9979L15.6672 23.0828ZM15.8896 22.356L16.1208 22.289L15.8137 21.6598" fill="#0060AF"/>
<path d="M6.62722 21.9068C6.74174 21.5402 6.84437 21.2703 7.28137 21.3902C7.51527 21.4555 7.66026 21.5586 7.6534 21.8303C7.65227 21.8908 7.6323 21.9524 7.61924 22.0122L7.34717 21.937C7.38283 21.787 7.40543 21.6679 7.22059 21.611C7.00695 21.5524 6.95488 21.8114 6.92541 21.9232L6.81474 22.3309C6.77958 22.452 6.73739 22.6521 6.92541 22.7036C7.08078 22.7455 7.17505 22.593 7.2313 22.3703L7.04094 22.3199L7.10674 22.084L7.55428 22.228L7.34181 23.0137L7.13587 22.9578L7.18225 22.7917H7.17638C7.08162 22.9275 6.96592 22.9417 6.86463 22.9223C6.41709 22.8012 6.4638 22.5088 6.57062 22.118" fill="#0060AF"/>
<path d="M8.29302 22.5714L8.15824 23.2106L7.85485 23.145L8.17816 21.6523L8.69535 21.7692C8.99807 21.8345 9.08948 21.9693 9.04662 22.2467C9.02218 22.406 8.94365 22.5776 8.75194 22.5637L8.74994 22.5611C8.91201 22.6178 8.92574 22.6995 8.89744 22.8408C8.88522 22.9009 8.801 23.2658 8.8591 23.3247L8.86111 23.3694L8.54718 23.2875C8.53412 23.1864 8.57849 23.0046 8.59607 22.904C8.61381 22.8149 8.64211 22.6893 8.5517 22.6421C8.48087 22.6044 8.45459 22.6063 8.37456 22.5879L8.29302 22.5714ZM8.34475 22.3402L8.54902 22.3952C8.67308 22.4132 8.74207 22.3489 8.76651 22.199C8.78861 22.0615 8.75998 22.0078 8.64864 21.9812L8.42964 21.9368" fill="#0060AF"/>
<path d="M10.2389 21.9841L10.5389 22.0189L10.4097 23.0682C10.3469 23.4009 10.2183 23.5464 9.8523 23.5009C9.47993 23.4538 9.39153 23.2842 9.41413 22.9488L9.54422 21.9004L9.8466 21.9351L9.71685 22.9601C9.70312 23.0714 9.67733 23.2363 9.8754 23.2562C10.051 23.2696 10.0909 23.1533 10.1106 23.0086" fill="#0060AF"/>
<path d="M10.8697 23.5591L10.96 22.0586L11.5364 22.0835C11.8088 22.0969 11.8802 22.3194 11.8716 22.5318C11.8637 22.6608 11.8234 22.805 11.7109 22.8832C11.6186 22.9497 11.5001 22.9654 11.3901 22.96L11.2022 22.9496L11.1647 23.5785L10.8697 23.5591ZM11.2108 22.7208L11.3635 22.7293C11.4875 22.7338 11.5697 22.6848 11.5805 22.5026C11.5865 22.3277 11.5204 22.298 11.3596 22.291L11.2386 22.2868" fill="#0060AF"/>
<path d="M51.5273 9.50678L49.2361 13.6652C48.3714 12.963 47.3154 12.4462 45.9681 12.4462C42.7797 12.4462 41.4846 14.8229 41.4846 16.497C41.4846 17.7397 42.2983 19.5732 45.1353 19.5732C46.326 19.5732 48.0189 18.7447 48.5061 18.3679L46.2401 23.1924C45.16 23.4078 44.8053 23.5415 43.8909 23.5697C38.8133 23.7213 36.7614 20.6021 36.7629 17.4147C36.7663 13.2011 40.5125 8.07676 46.7228 8.07676C47.1034 8.07676 47.5689 8.20836 47.9668 8.35419L48.369 7.83984" fill="#0060AF"/>
<path d="M60.9808 7.9707L61.6296 23.085H56.8013L56.7984 20.4928H53.5061L52.4225 23.085H47.1861L52.6606 12.2921L51.4261 12.284L53.7716 7.9707H60.9808ZM56.7671 12.5945L54.9056 16.9907H56.8232" fill="#0060AF"/>
<path d="M33.7147 7.9708C36.1058 7.98419 37.4569 9.28211 37.4569 11.157C37.4569 12.8854 36.0319 14.4154 34.4676 15.2065C36.0782 15.7985 36.2175 17.2518 36.2175 18.28C36.2175 20.764 33.7249 23.0851 30.485 23.0851H23.4191L26.1753 12.4425L25.0432 12.436L27.3576 7.9708C27.3576 7.9708 31.7703 7.9574 33.7147 7.9708ZM31.3688 14.0987C31.8634 14.0987 32.7368 13.9735 32.9551 13.0163C33.1943 11.9772 32.3748 11.9493 31.9816 11.9493L30.5769 11.9431L30.087 14.0988L31.3688 14.0987ZM29.3828 16.7696L28.736 19.2536H30.39C31.0409 19.2536 31.9277 18.9306 32.1451 18.1223C32.3597 17.3116 31.7397 16.7696 31.0912 16.7696" fill="#0060AF"/>
</g>
<defs>
<clipPath id="clip0_11267_94559">
<rect width="64" height="32" fill="white"/>
</clipPath>
</defs>
</svg>
