<svg width="64" height="32" viewBox="0 0 64 32" fill="none" xmlns="http://www.w3.org/2000/svg">
<g clip-path="url(#clip0_11267_94569)">
<path fill-rule="evenodd" clip-rule="evenodd" d="M41.3835 21.1857L45.1126 3.40821H59.0419L58.1103 7.85333H51.1434L50.6777 10.0751H56.603L55.673 14.5203H49.7461L49.2804 16.7421H56.2473L55.3157 21.1857H41.3835Z" fill="#1E3378"/>
<path fill-rule="evenodd" clip-rule="evenodd" d="M2.37042 21.1857C14.7592 15.2604 31.5252 11.483 46.8171 10.0751C50.9487 9.69529 55.0426 9.48275 60.7403 9.48275C60.9619 9.48275 61.3327 9.40889 61.6297 9.33503L60.4796 14.8172C60.4178 15.1126 59.9249 15.2619 59.5556 15.2619C24.6186 15.2604 3.7044 21.1872 3.7044 21.1872H2.37042V21.1857Z" fill="#E11B22"/>
<path fill-rule="evenodd" clip-rule="evenodd" d="M21.1307 21.1857L24.8583 3.4082H31.5267L35.491 11.483L37.1838 3.4082H43.8507L40.1231 21.1857H33.4576L29.5536 12.8155L27.7991 21.1857H21.1307Z" fill="#1E3378"/>
<path fill-rule="evenodd" clip-rule="evenodd" d="M14.7591 13.7786L16.9327 3.4082H23.5996L20.9904 15.8527C20.1825 19.704 17.1844 21.1857 13.2066 21.1857H8.29567L9.41412 15.8527H11.6374C13.2669 15.8527 14.4486 15.2604 14.7591 13.7786Z" fill="#1E3378"/>
<path d="M36.1347 27.0884L36.2748 26.1448H37.7565L37.8907 25.1469H36.4105L36.5115 24.3978H38.0429L38.1771 23.4H35.797L35.167 28.0862H37.6586L37.7957 27.0884H36.1347Z" fill="#1E3378"/>
<path d="M41.3772 23.4H40.3431L39.8548 24.2546C39.7809 24.3857 39.695 24.541 39.5985 24.7219C39.5231 24.4792 39.4809 24.3466 39.4734 24.3194L39.1644 23.4015H38.2796L39.0272 25.7032L37.6857 28.0878H38.7408L39.1719 27.3341C39.2714 27.1577 39.3528 27.0115 39.4161 26.8924C39.4523 27.016 39.4975 27.1623 39.5518 27.3311L39.7945 28.0878H40.7305L39.9874 25.875L41.3756 23.4015L41.3772 23.4Z" fill="#1E3378"/>
<path d="M43.7587 24.6405C43.7587 24.3842 43.7195 24.1581 43.6441 23.9682C43.5643 23.7692 43.4497 23.623 43.308 23.5326C43.1678 23.4452 42.9794 23.4 42.7488 23.4H41.4736L40.8405 28.0862H41.6891L41.9167 26.398H42.1805C42.4458 26.398 42.6237 26.3875 42.7262 26.3649C42.901 26.3272 43.0442 26.2699 43.1512 26.1945C43.2583 26.1192 43.3578 26.0107 43.4482 25.8705C43.5371 25.7318 43.6095 25.5539 43.6698 25.3263C43.7286 25.1047 43.7572 24.8741 43.7572 24.6405M42.1866 24.3857H42.4956C42.7413 24.3857 42.7955 24.4129 42.8015 24.4159C42.8332 24.434 42.8573 24.4626 42.8754 24.5048C42.898 24.5561 42.9101 24.6269 42.9101 24.7159C42.9101 24.856 42.8829 24.9857 42.8317 25.1002C42.782 25.2087 42.7202 25.2841 42.6388 25.3323C42.592 25.3595 42.4564 25.4062 42.081 25.4062H42.0479L42.1866 24.3857Z" fill="#1E3378"/>
<path d="M46.0061 26.4433C45.9639 26.3347 45.9202 26.2383 45.875 26.1554C46.1207 26.0694 46.3121 25.9127 46.4463 25.6881C46.603 25.4243 46.6829 25.0897 46.6829 24.6902C46.6829 24.4114 46.6422 24.1687 46.5623 23.9682C46.4764 23.7557 46.3588 23.6065 46.2126 23.522C46.0694 23.4407 45.8825 23.4015 45.6383 23.4015H44.2561L43.623 28.0878H44.4717L44.7189 26.2548H44.8455C44.9842 26.2548 45.0309 26.288 45.0429 26.3016C45.0957 26.3588 45.1786 26.496 45.2706 26.8261C45.4168 27.3492 45.5162 27.7396 45.566 27.9853L45.5871 28.0893H46.49L46.4493 27.928C46.288 27.2934 46.1388 26.796 46.0061 26.4448M44.9661 24.3993H45.5012C45.7047 24.3993 45.7499 24.437 45.7499 24.437C45.8072 24.4928 45.8373 24.5832 45.8373 24.7068C45.8373 24.8244 45.8117 24.9374 45.7619 25.0445C45.7152 25.1454 45.6534 25.2163 45.572 25.2615C45.5253 25.2886 45.3896 25.3324 45.0068 25.3324H44.8425L44.9676 24.4008L44.9661 24.3993Z" fill="#1E3378"/>
<path d="M49.2365 26.1448L49.3706 25.1469H47.8904L47.9914 24.3978H49.5229L49.657 23.4H47.2769L46.6454 28.0862H49.1385L49.2757 27.0884H47.6131L47.7548 26.1448H49.2365Z" fill="#1E3378"/>
<path d="M51.012 24.3044C51.1371 24.3044 51.223 24.342 51.2833 24.4219C51.3526 24.5139 51.3933 24.6541 51.4069 24.8395L51.416 24.9691L52.2344 24.9118L52.2284 24.7867C52.2088 24.3571 52.0988 24.0059 51.8983 23.7421C51.6903 23.4663 51.3933 23.3261 51.0165 23.3261C50.6397 23.3261 50.3533 23.4678 50.1543 23.7481C49.9659 24.0149 49.8694 24.3511 49.8694 24.7505C49.8694 24.9781 49.9011 25.1816 49.9644 25.3535C50.0292 25.5298 50.1212 25.676 50.2357 25.7891C50.3442 25.8946 50.5085 26.0227 50.7392 26.178C51.012 26.3619 51.0904 26.4402 51.116 26.4734C51.1688 26.5412 51.1944 26.6241 51.1944 26.7266C51.1944 26.8487 51.1612 26.9482 51.0949 27.0326C51.0346 27.108 50.9306 27.1442 50.7783 27.1442C50.5357 27.1442 50.4558 27.0477 50.4151 26.9753C50.391 26.9316 50.3488 26.808 50.3397 26.4749L50.3352 26.3393L49.5227 26.4041V26.5216C49.5152 26.8306 49.5529 27.108 49.6298 27.3492C49.7127 27.6024 49.8574 27.8044 50.0594 27.9476C50.2613 28.0908 50.501 28.1631 50.7723 28.1631C51.1703 28.1631 51.4868 28.0049 51.7099 27.6943C51.9239 27.3959 52.034 27.0341 52.034 26.6181C52.034 26.2774 51.9586 25.9926 51.8124 25.771C51.7114 25.6187 51.4943 25.4318 51.1477 25.1997C50.8914 25.0279 50.7934 24.9314 50.7542 24.8802C50.7075 24.8199 50.6849 24.743 50.6849 24.645C50.6849 24.5395 50.7105 24.4551 50.7618 24.3888C50.8055 24.333 50.8884 24.3059 51.009 24.3059" fill="#1E3378"/>
<path d="M53.9046 25.1982C53.6484 25.0264 53.5504 24.9299 53.5112 24.8786C53.4645 24.8184 53.4418 24.7415 53.4418 24.6435C53.4418 24.538 53.4675 24.4536 53.5187 24.3873C53.5624 24.3315 53.6453 24.3044 53.7659 24.3044C53.8865 24.3044 53.9769 24.342 54.0372 24.4219C54.1066 24.5139 54.1473 24.6541 54.1593 24.8395L54.1684 24.9691L54.9854 24.9118L54.9793 24.7867C54.9597 24.3571 54.8482 24.0059 54.6507 23.7421C54.4427 23.4663 54.1458 23.3261 53.7689 23.3261C53.3921 23.3261 53.1057 23.4678 52.9067 23.7497C52.7168 24.0164 52.6219 24.3526 52.6219 24.7505C52.6219 24.9781 52.6535 25.1816 52.7183 25.3535C52.7831 25.5298 52.8751 25.676 52.9896 25.7891C53.0982 25.8946 53.2625 26.0227 53.4931 26.178C53.7659 26.3619 53.8458 26.4402 53.8699 26.4734C53.9227 26.5412 53.9483 26.6241 53.9483 26.7266C53.9483 26.8487 53.9151 26.9482 53.8488 27.0326C53.7885 27.108 53.6845 27.1442 53.5323 27.1442C53.2896 27.1442 53.2097 27.0477 53.169 26.9753C53.1449 26.9316 53.1027 26.808 53.0937 26.4749L53.0891 26.3392L52.2782 26.4041V26.5216C52.2706 26.8306 52.3083 27.108 52.3867 27.3492C52.4696 27.6024 52.6128 27.8044 52.8148 27.9476C53.0168 28.0908 53.2564 28.1631 53.5278 28.1631C53.9257 28.1631 54.2407 28.0048 54.4653 27.6943C54.6794 27.3959 54.7894 27.0341 54.7894 26.6181C54.7894 26.2774 54.714 25.9926 54.5678 25.771C54.4668 25.6187 54.2498 25.4318 53.9046 25.1997" fill="#1E3378"/>
</g>
<defs>
<clipPath id="clip0_11267_94569">
<rect width="64" height="32" fill="white"/>
</clipPath>
</defs>
</svg>
