<svg width="18" height="18" viewBox="0 0 18 18" fill="none" xmlns="http://www.w3.org/2000/svg">
<path d="M6.76828 2.60218C6.73173 2.45815 6.75365 2.3055 6.82927 2.17758C6.90489 2.04966 7.02806 1.95686 7.17187 1.91945C8.371 1.61018 9.62899 1.61018 10.8281 1.91945C10.9609 1.95345 11.0768 2.0348 11.1538 2.14819C11.2309 2.26159 11.2639 2.39922 11.2466 2.53523C11.2293 2.67124 11.163 2.79626 11.06 2.88679C10.9571 2.97733 10.8246 3.02714 10.6875 3.02687C10.64 3.02662 10.5928 3.02048 10.5469 3.00859C9.53226 2.74662 8.46773 2.74662 7.45312 3.00859C7.38146 3.02695 7.30689 3.03101 7.23367 3.02051C7.16045 3.01002 7.09001 2.98519 7.0264 2.94744C6.96279 2.90969 6.90724 2.85976 6.86295 2.80052C6.81866 2.74128 6.78649 2.67388 6.76828 2.60218ZM2.34492 7.735C2.41611 7.75477 2.4905 7.76032 2.56383 7.75134C2.63717 7.74236 2.70802 7.71902 2.77234 7.68265C2.83665 7.64628 2.89317 7.5976 2.93867 7.53938C2.98417 7.48116 3.01775 7.41455 3.03749 7.34336C3.31809 6.33407 3.85034 5.41255 4.58437 4.66515C4.68224 4.55753 4.73462 4.41617 4.73049 4.27076C4.72637 4.12534 4.66607 3.98718 4.56225 3.88528C4.45844 3.78337 4.31918 3.72565 4.17372 3.72423C4.02825 3.72281 3.88789 3.7778 3.7821 3.87765C2.9149 4.76072 2.2859 5.84937 1.95398 7.04171C1.93409 7.11291 1.92842 7.18732 1.93731 7.2607C1.94619 7.33408 1.96945 7.40499 2.00576 7.46938C2.04207 7.53377 2.09071 7.59037 2.1489 7.63594C2.2071 7.68152 2.2737 7.71518 2.34492 7.735ZM14.9618 7.34406C15.0017 7.48783 15.0971 7.60987 15.227 7.68332C15.3569 7.75676 15.5106 7.77561 15.6544 7.7357C15.7981 7.69579 15.9202 7.6004 15.9936 7.47052C16.0671 7.34064 16.0859 7.1869 16.046 7.04312C15.7142 5.85072 15.0852 4.76204 14.2179 3.87906C14.1661 3.82638 14.1044 3.78442 14.0364 3.75558C13.9684 3.72673 13.8954 3.71157 13.8215 3.71095C13.7476 3.71033 13.6743 3.72426 13.6058 3.75196C13.5373 3.77966 13.475 3.82058 13.4223 3.87238C13.3696 3.92418 13.3277 3.98585 13.2988 4.05386C13.27 4.12188 13.2548 4.19491 13.2542 4.26879C13.2536 4.34266 13.2675 4.41594 13.2952 4.48443C13.3229 4.55292 13.3638 4.61529 13.4156 4.66796C14.1492 5.41504 14.6812 6.33605 14.9618 7.34476V7.34406ZM15.6558 10.2662C15.5845 10.2465 15.5101 10.241 15.4367 10.25C15.3634 10.259 15.2925 10.2824 15.2282 10.3189C15.1638 10.3553 15.1073 10.4041 15.0619 10.4623C15.0164 10.5206 14.9829 10.5873 14.9632 10.6586C14.711 11.5663 14.254 12.4041 13.6273 13.1076C13.2171 12.5144 12.6965 12.0059 12.0937 11.6099C12.0425 11.5759 11.9816 11.5597 11.9203 11.5636C11.8589 11.5676 11.8006 11.5915 11.7541 11.6317C10.9899 12.293 10.0131 12.6569 9.00246 12.6569C7.99184 12.6569 7.01502 12.293 6.25078 11.6317C6.20427 11.5913 6.14578 11.5673 6.0843 11.5634C6.02282 11.5594 5.96174 11.5758 5.91046 11.6099C5.30386 12.0005 4.77858 12.5048 4.36359 13.0949C3.74284 12.3934 3.29005 11.5598 3.0396 10.6572C2.9997 10.5134 2.90431 10.3914 2.77443 10.3179C2.64454 10.2445 2.4908 10.2256 2.34703 10.2655C2.20325 10.3054 2.08121 10.4008 2.00777 10.5307C1.93432 10.6606 1.91548 10.8143 1.95538 10.9581C2.38531 12.4966 3.30686 13.8521 4.57936 14.8178C5.85186 15.7834 7.40539 16.3062 9.00281 16.3062C10.6002 16.3062 12.1538 15.7834 13.4263 14.8178C14.6988 13.8521 15.6203 12.4966 16.0502 10.9581C16.0698 10.8868 16.0752 10.8123 16.066 10.7389C16.0568 10.6655 16.0332 10.5946 15.9965 10.5304C15.9599 10.4661 15.9109 10.4097 15.8525 10.3644C15.794 10.319 15.7272 10.2857 15.6558 10.2662ZM8.99999 11.5319C9.61188 11.5319 10.21 11.3504 10.7188 11.0105C11.2276 10.6705 11.6241 10.1874 11.8582 9.62205C12.0924 9.05674 12.1537 8.43469 12.0343 7.83456C11.9149 7.23443 11.6203 6.68318 11.1876 6.25051C10.7549 5.81784 10.2037 5.52319 9.60355 5.40382C9.00343 5.28444 8.38138 5.34571 7.81607 5.57987C7.25076 5.81403 6.76758 6.21056 6.42764 6.71933C6.08769 7.22809 5.90624 7.82623 5.90624 8.43812C5.90717 9.25835 6.23342 10.0447 6.81341 10.6247C7.3934 11.2047 8.17977 11.5309 8.99999 11.5319Z" fill="#DC8622"/>
</svg>
