<svg width="20" height="20" viewBox="0 0 20 20" fill="none" xmlns="http://www.w3.org/2000/svg">
<path d="M11.7338 5.79345C11.7566 5.76776 11.863 5.68384 12.281 5.68384L13.6514 5.68333C14.0972 5.68333 14.4597 5.32068 14.4597 4.87486V2.47974C14.4597 2.03469 14.0977 1.67204 13.6526 1.67127L11.6171 1.66797C10.3608 1.66797 9.29281 2.08237 8.5286 2.86655C7.76782 3.64716 7.36563 4.7369 7.36563 6.01775V7.30954H5.80846C5.36265 7.30954 5 7.67219 5 8.118V10.6975C5 11.1433 5.36265 11.506 5.80846 11.506H7.36563V17.5262C7.36563 17.972 7.72828 18.3347 8.17409 18.3347H10.8431C11.2889 18.3347 11.6516 17.972 11.6516 17.5262V11.5061H13.555C14.0008 11.5061 14.3633 11.1433 14.3633 10.6978L14.3643 8.11813C14.3643 7.82528 14.205 7.55431 13.9484 7.41101C13.8295 7.34463 13.6912 7.30954 13.5485 7.30954H11.6516V6.28898C11.6516 5.95633 11.6963 5.83592 11.7338 5.79345Z" fill="#1877F2"/>
</svg>
