<svg width="16" height="16" viewBox="0 0 16 16" fill="none" xmlns="http://www.w3.org/2000/svg">
<mask id="mask0_12306_25103" style="mask-type:alpha" maskUnits="userSpaceOnUse" x="0" y="0" width="16" height="16">
<circle cx="8" cy="8" r="8" fill="#D9D9D9"/>
</mask>
<g mask="url(#mask0_12306_25103)">
<path d="M19.9995 0H-4V15.9999H19.9995V0Z" fill="#F0F0F0"/>
<path d="M9.49974 0H6.4998V6.49984H-4V9.49978H6.4998V15.9996H9.49974V9.49978H19.9995V6.49984H9.49974V0Z" fill="#D80027"/>
<path d="M14.4589 10.7812L20.0001 13.8598V10.7812H14.4589Z" fill="#0052B4"/>
<path d="M10.6086 10.7812L19.9998 15.9985V14.5232L13.2643 10.7812H10.6086Z" fill="#0052B4"/>
<path d="M17.4985 15.9998L10.6089 12.1719V15.9998H17.4985Z" fill="#0052B4"/>
<path d="M10.6086 10.7812L19.9998 15.9985V14.5232L13.2643 10.7812H10.6086Z" fill="#F0F0F0"/>
<path d="M10.6086 10.7812L19.9998 15.9985V14.5232L13.2643 10.7812H10.6086Z" fill="#D80027"/>
<path d="M0.234653 10.7812L-4 13.1339V10.7812H0.234653Z" fill="#0052B4"/>
<path d="M5.39084 11.4453V15.9992H-2.80542L5.39084 11.4453Z" fill="#0052B4"/>
<path d="M2.73548 10.7812L-4 14.5232V15.9985L5.39113 10.7812H2.73548Z" fill="#D80027"/>
<path d="M1.54122 5.21913L-4 2.14062V5.21913H1.54122Z" fill="#0052B4"/>
<path d="M5.39113 5.21727L-4 0V1.47532L2.73548 5.21727H5.39113Z" fill="#0052B4"/>
<path d="M-1.49841 0L5.39124 3.82793V0H-1.49841Z" fill="#0052B4"/>
<path d="M5.39113 5.21727L-4 0V1.47532L2.73548 5.21727H5.39113Z" fill="#F0F0F0"/>
<path d="M5.39113 5.21727L-4 0V1.47532L2.73548 5.21727H5.39113Z" fill="#D80027"/>
<path d="M15.7651 5.21589L19.9998 2.86328V5.21589H15.7651Z" fill="#0052B4"/>
<path d="M10.6086 4.55386V0H18.8049L10.6086 4.55386Z" fill="#0052B4"/>
<path d="M13.2643 5.21727L19.9998 1.47532V0L10.6086 5.21727H13.2643Z" fill="#D80027"/>
</g>
</svg>
