<svg width="61" height="20" viewBox="0 0 61 20" fill="none" xmlns="http://www.w3.org/2000/svg">
<path d="M16.2634 5.35351H12.2004C11.7439 1.28292 9.79038 -0.0713839 8.23248 0.00287268C6.4806 0.0903695 4.70973 1.95438 4.63937 5.35351H0.570627C0.254898 5.35351 0 5.60841 0 5.92423L0.755158 17.3904C0.755158 17.7061 1.60161 19.1536 2.93313 19.1441H13.9656C15.8982 18.8436 16.1416 17.2248 16.1416 16.9091L16.8341 5.92423C16.8341 5.60841 16.5791 5.35351 16.2634 5.35351ZM8.28007 0.952005C9.41188 0.898766 10.8441 2.02104 11.2417 5.35351H5.59044C5.65507 2.57833 7.00752 1.01663 8.28007 0.952005ZM9.42901 16.717C8.11081 16.9699 6.41597 16.5306 5.4935 15.5395C5.07685 15.0926 5.74831 14.4173 6.16681 14.8681C6.78688 15.5357 7.89203 15.8477 8.79366 15.8267C9.9426 15.8021 10.966 14.7559 10.3135 13.588C9.40993 11.9711 7.18251 12.4238 6.03737 11.1532C5.11111 10.128 5.55054 8.51497 6.63846 7.79972C7.77222 7.0541 9.72955 7.08261 10.6616 8.15165C11.0629 8.61006 10.3915 9.28531 9.98815 8.82301C9.23494 7.95953 7.45639 8.07739 6.77744 8.96569C5.81118 10.2344 7.25668 10.9173 8.26674 11.2237C9.6553 11.6439 11.1961 12.4124 11.449 14.0045C11.6507 15.2866 10.6578 16.4792 9.42901 16.717Z" fill="#EE4D2D"/>
<path d="M44.0734 10.9933C43.1823 10.9933 42.3803 11.3724 41.8307 11.9734V11.276C41.8307 10.6455 40.8206 10.6435 40.8206 11.276V19.5267C40.8206 20.1593 41.8307 20.1613 41.8307 19.5267V15.8533C42.3823 16.4544 43.1823 16.8316 44.0734 16.8316C45.7281 16.8316 47.0737 15.5232 47.0737 13.9124C47.0737 12.3035 45.7281 10.9933 44.0734 10.9933ZM44.0734 15.7766C43.0147 15.7766 42.1561 14.9397 42.1561 13.9124C42.1561 12.9871 42.8531 12.2151 43.7663 12.0716C43.7703 12.0716 43.7764 12.0698 43.7824 12.0698C43.8774 12.056 43.9744 12.0481 44.0734 12.0481C44.8553 12.0481 45.5301 12.5058 45.8271 13.1619C45.8271 13.1639 45.8292 13.1678 45.8292 13.1698C45.9322 13.3977 45.9888 13.6492 45.9888 13.9124C45.9888 14.9397 45.1301 15.7766 44.0734 15.7766ZM36.6222 16.8319C34.9667 16.8319 33.6198 15.5224 33.6198 13.9128C33.6198 12.303 34.9667 10.9935 36.6222 10.9935C38.2778 10.9935 39.6245 12.303 39.6245 13.9128C39.6245 15.5224 38.2778 16.8319 36.6222 16.8319ZM36.6222 12.0487C35.565 12.0487 34.705 12.8849 34.705 13.9128C34.705 14.9405 35.565 15.7768 36.6222 15.7768C37.6792 15.7768 38.5393 14.9405 38.5393 13.9128C38.5393 12.8849 37.6792 12.0487 36.6222 12.0487ZM60.7478 13.8549C60.7235 12.5132 60.0164 11.3012 58.5535 11.0321C57.2928 10.8003 55.82 11.4466 55.2825 12.5938C54.725 13.7862 54.9592 15.4225 56.0583 16.2535C57.2484 17.1513 59.1052 16.8743 60.3255 16.2103C60.8932 15.902 60.384 15.0533 59.8143 15.3617C59.0405 15.7841 58.0303 15.9903 57.1636 15.7094C56.515 15.4992 56.1513 14.9551 56.0421 14.3461H60.2426C60.5113 14.3461 60.7518 14.1202 60.7478 13.8549ZM56.0785 13.3639C56.0867 13.3265 56.0968 13.2912 56.1069 13.2559C56.3494 12.4563 57.1757 11.9928 58.0121 11.9711C58.9738 11.9455 59.5133 12.5899 59.681 13.3639H56.0785ZM54.0239 13.8632C53.9997 12.5215 53.2925 11.3094 51.8298 11.0404C50.569 10.8085 49.0961 11.4548 48.5587 12.6021C48.001 13.7945 48.2354 15.4309 49.3345 16.2619C50.5246 17.1596 52.3814 16.8826 53.6017 16.2186C54.1693 15.9102 53.6603 15.0616 53.0905 15.37C52.3166 15.7923 51.3065 15.9985 50.4398 15.7177C49.7912 15.5075 49.4275 14.9634 49.3184 14.3543H53.5189C53.7876 14.3543 54.028 14.1284 54.0239 13.8632ZM49.3548 13.3722C49.3628 13.3348 49.3729 13.2995 49.383 13.2641C49.6255 12.4646 50.4519 12.0009 51.2882 11.9793C52.25 11.9539 52.7895 12.5982 52.9571 13.3722H49.3548ZM32.4358 12.9172V16.3277C32.4358 16.9706 31.4256 16.9706 31.4256 16.3277V12.9837C31.3913 12.3224 30.828 12.019 30.8096 12.011C30.0907 11.6985 28.785 11.8417 28.0071 12.83V16.3277C28.0071 16.9706 26.9969 16.9706 26.9969 16.3277V7.56736C26.9969 6.92452 28.0071 6.92655 28.0071 7.56736V11.5023C29.2456 10.6738 30.8209 10.7662 31.5611 11.2739C31.5611 11.2739 32.4511 11.7609 32.4358 12.9172ZM25.3402 7.97013C24.3496 6.87591 22.2721 6.84674 21.0664 7.61069C19.9121 8.34196 19.4451 9.99422 20.4278 11.0438C21.6452 12.3443 24.0103 11.8806 24.9701 13.5351C25.664 14.731 24.577 15.8016 23.3565 15.8277C22.3994 15.8481 21.225 15.5285 20.5658 14.8449C20.1223 14.3849 19.4091 15.0745 19.8514 15.5332C20.8298 16.5478 22.6317 16.9976 24.0302 16.7376C25.3362 16.4948 26.3905 15.273 26.1756 13.961C25.9089 12.332 24.2721 11.5451 22.7967 11.1154C21.7227 10.8026 20.1877 10.1025 21.2153 8.8051C21.9364 7.8943 23.825 7.77384 24.626 8.65843C25.0542 9.13138 25.7662 8.44048 25.3402 7.97013Z" fill="#EE4D2D"/>
</svg>
