<svg width="79" height="17" viewBox="0 0 79 17" fill="none" xmlns="http://www.w3.org/2000/svg">
<path fill-rule="evenodd" clip-rule="evenodd" d="M42.2087 11.9522C41.3508 12.8239 40.3245 13.262 39.1361 13.262C38.1743 13.262 37.3569 13.0657 36.5233 12.5804V10.5813C37.1945 11.037 38.0375 11.4709 38.8697 11.4709C40.6047 11.4709 41.6364 10.2754 41.6364 8.58187C41.6364 6.88632 40.5684 5.65531 38.8322 5.65531C38.057 5.65531 37.4287 5.93435 36.9379 6.49361C36.4118 7.09945 36.1399 7.96538 36.1399 9.11034V17H36.0092C35.0528 17 34.2783 16.2241 34.2783 15.267V8.81394C34.2783 6.07486 35.9501 3.86465 38.823 3.86465C40.2419 3.86465 41.3944 4.3505 42.2686 5.32635C43.0901 6.23826 43.4972 7.39447 43.4972 8.78374C43.4972 10.0211 43.0676 11.0788 42.2092 11.9511L42.2087 11.9522ZM62.3571 11.8854C61.5026 12.8038 60.4028 13.262 59.0694 13.262C57.662 13.262 56.5158 12.7762 55.6416 11.8003C54.8205 10.8772 54.4132 9.72038 54.4132 8.34295C54.4132 5.90382 56.2934 3.8653 58.7685 3.8653C59.7228 3.8653 60.5514 4.06698 61.3891 4.52678V6.54557C60.718 6.08991 59.8751 5.65596 59.0428 5.65596C57.3077 5.65596 56.2741 6.85125 56.2741 8.547C56.2741 10.2187 57.3672 11.4735 59.0783 11.4735C59.8528 11.4735 60.4907 11.1829 61.0008 10.5976C61.5077 10.0158 61.7712 9.16112 61.7712 8.0124V1.73304C61.7712 0.775546 62.5463 0 63.5021 0H63.6328V8.30802C63.6328 9.7711 63.2099 10.9682 62.3564 11.8878L62.3571 11.8854ZM67.6142 2.97944C67.4189 3.19849 67.1388 3.29933 66.797 3.29933C66.1581 3.29933 65.7006 2.82749 65.7006 2.19245C65.7006 1.54261 66.1494 1.10392 66.797 1.10392C67.4202 1.10392 67.8935 1.56649 67.8935 2.19245C67.8935 2.50207 67.8028 2.7675 67.6142 2.97944ZM77.0727 8.01161C77.0727 7.27672 76.7951 6.69516 76.2374 6.2543C75.735 5.85765 75.1074 5.65596 74.3437 5.65596C72.6586 5.65596 71.577 6.97479 71.577 8.60028C71.577 10.1654 72.7238 11.4716 74.326 11.4716C75.4405 11.4716 76.0365 10.8198 76.6723 10.0077V12.3482C76.3485 12.5911 75.9761 12.8559 75.5958 13.0114C75.1947 13.1791 74.7155 13.2607 74.1622 13.2607C71.4823 13.2607 69.7161 11.0386 69.7161 8.47122C69.7161 7.15259 70.1252 6.0617 70.9487 5.21313C71.8225 4.31228 72.9694 3.8655 74.3725 3.8655C77.0327 3.8655 78.937 5.39508 78.937 8.15962V13.0793H78.8068C77.8501 13.0793 77.0749 12.3034 77.0749 11.3461L77.0727 8.01161ZM51.5961 7.48373C51.3609 6.75515 51.0661 6.39678 50.3876 6.01749C48.7744 5.11486 47.1868 5.88332 46.4487 7.47662L51.5961 7.48373ZM50.1757 13.2342C48.9865 13.4872 47.8194 13.2922 46.6808 12.655C45.5702 12.0342 44.8266 11.1108 44.4548 9.89029C43.7012 7.42354 45.2449 4.67262 47.7287 4.00758C48.9595 3.67763 50.1402 3.82698 51.2611 4.45416C53.1232 5.49651 53.8028 7.10839 53.6824 9.18638L46.1815 9.17137C46.2921 10.0185 46.8166 10.6814 47.554 11.0937C48.3015 11.5118 48.9889 11.6119 49.6261 11.4137C50.3343 11.1911 50.9086 10.6125 51.3757 10.074L52.9043 11.189C52.2809 12.3059 51.4321 12.967 50.1751 13.2354L50.1757 13.2342ZM65.8741 4.05001H67.7356V13.0783H67.6046C66.6493 13.0783 65.8742 12.3024 65.8742 11.3451L65.8741 4.05001ZM2.72527 13.0783C0.904409 13.0783 0 11.8382 0 10.1064V3.53693C0 2.57963 0.775152 1.80389 1.73126 1.80389H1.86198V4.05159H5.00758V5.84186H1.86198V10.3156C1.86198 11.0761 2.20101 11.2898 2.92683 11.2898H5.00679V13.0799L2.72527 13.0783ZM13.5375 11.9373C12.6179 12.8202 11.5128 13.2624 10.2281 13.2624C8.95588 13.2624 7.85611 12.8196 6.9365 11.9373C6.01374 11.0512 5.55374 9.92443 5.55374 8.56476C5.55374 5.91251 7.57648 3.86609 10.2268 3.86609C11.4994 3.86609 12.6008 4.31228 13.5263 5.2011C14.455 6.09268 14.9187 7.21791 14.9187 8.56377C14.9187 9.92285 14.4581 11.0503 13.5354 11.9363L13.5375 11.9373ZM22.2422 6.22233C21.9691 6.68095 21.7573 7.00972 21.6083 7.20844C21.4441 7.42453 21.2819 7.597 21.1213 7.71639C22.4151 8.13475 22.897 9.03226 22.897 10.3686V13.0781H22.7663C21.8103 13.0781 21.035 12.3022 21.035 11.3449V10.5534C21.035 9.68762 20.6472 9.10034 19.7312 9.10034H18.0406V13.0787H17.9098C16.9539 13.0787 16.1794 12.3028 16.1794 11.3455V1.73304C16.1794 0.775546 16.9537 0 17.9098 0H18.0406V7.29369H18.5907C19.1954 7.29369 19.5926 7.08668 19.8208 6.69496L21.3845 4.05258L23.5059 4.05046L22.2422 6.22233ZM31.8527 11.9373C30.9327 12.8202 29.8279 13.2624 28.5433 13.2624C27.2712 13.2624 26.1712 12.8196 25.2516 11.9373C24.3289 11.0512 23.8689 9.92443 23.8689 8.56476C23.8689 5.91251 25.8916 3.86609 28.5419 3.86609C29.8149 3.86609 30.9159 4.31228 31.8414 5.2011C32.7701 6.09268 33.2336 7.21791 33.2336 8.56377C33.2336 9.92285 32.7733 11.0503 31.8505 11.9363L31.8527 11.9373ZM30.509 6.46308C29.9957 5.92573 29.3443 5.65596 28.5431 5.65596C26.83 5.65596 25.804 6.90651 25.804 8.56476C25.804 10.1993 26.8538 11.4735 28.5431 11.4735C30.2325 11.4735 31.2822 10.2001 31.2822 8.56476C31.2822 7.69686 31.0215 7.00044 30.509 6.46308ZM12.1958 6.46308C11.6827 5.92573 11.0311 5.65596 10.2301 5.65596C8.517 5.65596 7.49103 6.90651 7.49103 8.56476C7.49103 10.1993 8.54088 11.4735 10.2301 11.4735C11.9193 11.4735 12.9692 10.2001 12.9692 8.56476C12.9692 7.69686 12.7089 7.00044 12.1962 6.46308H12.1958Z" fill="#03AC0E"/>
</svg>
