<svg width="20" height="20" viewBox="0 0 20 20" fill="none" xmlns="http://www.w3.org/2000/svg">
<path fill-rule="evenodd" clip-rule="evenodd" d="M16.5211 4.5249C17.2349 4.71716 17.7978 5.27995 17.99 5.99393C18.347 7.29804 18.3333 10.0164 18.3333 10.0164C18.3333 10.0164 18.3333 12.7209 17.9901 14.0251C17.7978 14.739 17.235 15.3019 16.5211 15.494C15.2168 15.8373 9.99999 15.8373 9.99999 15.8373C9.99999 15.8373 4.79676 15.8373 3.47892 15.4804C2.76493 15.2881 2.20214 14.7252 2.00988 14.0114C1.66669 12.7209 1.66669 10.0027 1.66669 10.0027C1.66669 10.0027 1.66669 7.29804 2.00988 5.99393C2.20201 5.28008 2.77867 4.70342 3.47879 4.51129C4.78303 4.16797 9.99986 4.16797 9.99986 4.16797C9.99986 4.16797 15.2168 4.16797 16.5211 4.5249ZM12.677 10.0027L8.33883 12.5013V7.50403L12.677 10.0027Z" fill="#FF0000"/>
</svg>
