<svg width="230" height="240" viewBox="0 0 230 240" fill="none" xmlns="http://www.w3.org/2000/svg">
<path d="M158.431 233.341C158.018 233.285 157.648 233.067 157.4 232.733C153.78 227.854 127.456 189.673 162.489 154.772C195.747 121.64 210.822 114.837 212.827 95.371C213.061 93.0977 216.134 92.5521 217.145 94.6015C224.702 109.918 236.476 145.658 197.513 169.117C154.533 194.994 158.055 223.361 160.134 231.422C160.409 232.488 159.522 233.49 158.431 233.341Z" fill="#E4E4E4"/>
<path d="M163.762 234.065C162.784 233.932 162.009 233.178 161.858 232.203C160.832 225.563 158.313 200.754 176.59 194.175C196.711 186.933 212.955 205.671 227.745 191.004C228.523 190.233 229.832 190.905 229.646 191.985C228.329 199.647 222.466 217.393 196.378 220.964C168.456 224.785 165.314 227.989 165.877 231.962C166.051 233.187 164.988 234.232 163.762 234.065Z" fill="#E4E4E4"/>
<path opacity="0.47" d="M211.854 115.212C211.513 116.657 211.06 118.012 210.518 119.357C209.987 120.701 209.375 122.011 208.708 123.293C207.387 125.866 205.802 128.3 204.066 130.618C200.571 135.244 196.343 139.308 191.683 142.753C189.359 144.466 186.874 146.041 184.418 147.463C182.027 148.851 179.726 150.402 177.522 152.083C173.11 155.444 169.111 159.344 165.579 163.619C158.542 172.178 153.548 182.506 151.904 193.502C151.065 198.988 151.055 204.604 151.811 210.136C152.558 215.674 154.136 221.098 156.218 226.327C156.331 226.605 156.196 226.923 155.917 227.035C155.649 227.143 155.344 227.019 155.221 226.762C152.787 221.595 150.968 216.101 149.961 210.429C149.446 207.596 149.142 204.718 149.055 201.829C148.986 198.941 149.107 196.041 149.471 193.167C150.171 187.413 151.794 181.777 154.131 176.471C156.476 171.163 159.573 166.205 163.19 161.682C166.807 157.153 171.002 153.101 175.59 149.561C177.888 147.795 180.292 146.161 182.8 144.693C185.256 143.284 187.587 141.852 189.846 140.222C194.353 137.003 198.518 133.286 202.101 129.045C203.915 126.943 205.558 124.693 207.059 122.347C208.53 119.997 209.905 117.517 210.894 114.953L210.907 114.92C211.006 114.664 211.293 114.536 211.549 114.635C211.784 114.725 211.911 114.974 211.854 115.212Z" fill="white"/>
<path opacity="0.47" d="M162.603 229.56C162.688 229.32 162.661 229.097 162.654 228.867L162.632 228.183L162.616 226.815C162.618 225.903 162.638 224.992 162.677 224.081C162.759 222.259 162.914 220.44 163.157 218.629C163.654 215.014 164.474 211.41 165.933 208.015C167.376 204.644 169.561 201.422 172.732 199.317C174.312 198.283 176.094 197.547 177.941 197.174C179.787 196.785 181.683 196.727 183.537 196.89C190.806 197.733 197.93 199.126 205.074 200.258C208.632 200.789 212.24 201.262 215.733 200.785C216.601 200.657 217.457 200.468 218.287 200.201C219.109 199.914 219.917 199.578 220.672 199.136C222.191 198.268 223.527 197.083 224.72 195.767L224.724 195.763C224.888 195.581 225.168 195.568 225.35 195.732C225.528 195.894 225.544 196.169 225.387 196.351C224.177 197.744 222.795 199.031 221.18 200C220.378 200.493 219.512 200.877 218.63 201.205C217.74 201.513 216.824 201.736 215.9 201.891C212.18 202.436 208.492 201.973 204.893 201.479C201.284 200.966 197.72 200.297 194.144 199.718C190.578 199.138 186.972 198.577 183.421 198.16C181.668 197.991 179.896 198.032 178.187 198.377C176.476 198.707 174.84 199.368 173.376 200.305C170.425 202.184 168.284 205.175 166.83 208.412C165.359 211.665 164.485 215.187 163.931 218.741C163.658 220.521 163.471 222.316 163.358 224.117C163.302 225.017 163.266 225.919 163.248 226.821L163.239 228.174L163.247 228.849C163.253 229.073 163.243 229.303 163.353 229.515C163.458 229.717 163.379 229.965 163.177 230.07C162.976 230.174 162.727 230.095 162.623 229.894C162.568 229.789 162.564 229.671 162.6 229.568L162.603 229.56Z" fill="white"/>
<path d="M124.625 2.73744C113.674 2.65105 102.628 4.38772 92.8554 8.4426C70.1059 17.8817 50.799 42.8579 58.3545 68.3694C60.8089 76.6569 59.5194 85.7999 67.7755 89.4015C72.2426 91.3501 84.4075 92.51 89.0327 90.9743C101.326 86.8927 109.407 75.7218 102.721 63.334C100.58 59.3669 97.8084 55.7428 95.9596 51.6315C94.1107 47.5201 93.2681 42.6401 95.153 38.5447C98.8532 30.5062 111.145 27.9508 119.116 28.1919C128.524 28.4765 137.049 33.13 142.112 41.1129C148.422 51.0621 150.021 63.1634 149.097 74.7123C148.109 87.0699 142.899 96.5069 135.09 105.987C128.367 114.149 120.964 121.983 116.495 131.567C112.393 140.365 111.053 150.114 110.867 159.739C110.831 161.605 101.554 179.186 101.593 184.557C101.599 185.316 112.116 187.83 112.875 187.838C116.835 187.883 128.05 188.008 132.178 188.054C133.027 188.064 133.727 187.385 133.737 186.536C134.03 160.404 142.068 135.491 162.415 117.94C169.819 111.554 177.793 106.354 183.55 98.2934C191.755 86.8049 195.803 75.4989 194.635 61.3202C193.568 48.3708 189.304 35.4142 180.863 25.367C171.791 14.5682 158.512 7.82468 144.712 4.91451C138.276 3.55745 131.469 2.79141 124.625 2.73744Z" fill="#EBEBEB"/>
<path d="M144.82 217.348C144.82 229.365 138.159 239.996 126.143 239.996C123.547 239.996 114.718 240.02 112.41 239.186C104.033 236.16 104.003 229.724 104.003 220.303C104.003 208.287 108.06 196.469 120.077 196.469C132.094 196.469 144.82 205.332 144.82 217.348Z" fill="#EBEBEB"/>
<path d="M114.22 0.00306376C103.269 -0.0833257 92.2229 1.65334 82.45 5.70822C59.7004 15.1473 40.3936 40.1235 47.949 65.635C50.4034 73.9225 56.0783 84.3545 64.3344 87.956C68.8015 89.9047 74.0019 89.7756 78.6273 88.2399C90.9207 84.1583 99.0013 72.9874 92.3154 60.5996C90.1743 56.6325 87.403 53.0085 85.5541 48.8971C83.7053 44.7858 82.8626 39.9057 84.7476 35.8103C88.4478 27.7719 100.74 25.2164 108.711 25.4575C118.119 25.7421 126.644 30.3956 131.707 38.3785C138.017 48.3277 139.615 60.4291 138.692 71.9779C137.704 84.3355 132.493 93.7725 124.685 103.252C117.962 111.414 110.558 119.249 106.09 128.832C101.988 137.631 100.647 147.379 100.462 157.005C100.426 158.87 101.054 178.353 101.094 183.724C101.1 184.483 101.711 185.095 102.469 185.104C106.429 185.148 117.645 185.274 121.773 185.32C122.622 185.329 123.322 184.651 123.331 183.802C123.625 157.67 131.663 132.756 152.01 115.206C159.414 108.82 167.387 103.62 173.144 95.5591C181.35 84.0706 185.397 72.7645 184.229 58.5858C183.162 45.6364 178.898 32.6799 170.457 22.6326C161.385 11.8339 148.107 5.0903 134.307 2.18013C127.871 0.823075 121.064 0.0571219 114.22 0.00306376Z" fill="#F7F7F9"/>
<path d="M115.355 239.328C127.372 239.328 137.113 229.587 137.113 217.57C137.113 205.554 127.372 195.812 115.355 195.812C103.339 195.812 93.5972 205.554 93.5972 217.57C93.5972 229.587 103.339 239.328 115.355 239.328Z" fill="#F7F7F9"/>
<path opacity="0.63" d="M55.151 63.1337C55.023 63.1337 54.9074 63.0451 54.8787 62.9148C53.354 56.0301 53.13 45.2488 60.7226 32.984C68.1331 21.0132 78.5281 13.0034 91.6188 9.17675C105.612 5.0867 122.226 5.96232 141.001 11.7795C141.148 11.8252 141.231 11.9816 141.185 12.1289C141.139 12.2762 140.982 12.3589 140.836 12.313C104.767 1.13675 76.4849 8.58254 61.1971 33.278C53.7035 45.383 53.9215 56.0105 55.4238 62.7941C55.4571 62.9447 55.362 63.0937 55.2115 63.127C55.1913 63.1316 55.1709 63.1337 55.151 63.1337Z" fill="white"/>
<path opacity="0.63" d="M59.7279 74.2141C59.6417 74.2141 59.557 74.1744 59.5023 74.0996C59.4362 74.0092 57.8682 71.8428 56.41 68.0273C56.3551 67.8831 56.4271 67.7218 56.5713 67.6668C56.7145 67.6121 56.8766 67.6836 56.9318 67.8279C58.361 71.5677 59.9373 73.7486 59.9532 73.7702C60.044 73.8947 60.0167 74.0694 59.8923 74.1603C59.8425 74.1966 59.7848 74.2141 59.7279 74.2141Z" fill="white"/>
<path opacity="0.63" d="M122.635 203.465C122.593 203.465 122.55 203.455 122.509 203.435C120.28 202.304 117.873 201.73 115.355 201.73C115.201 201.73 115.076 201.605 115.076 201.451C115.076 201.297 115.201 201.172 115.355 201.172C117.961 201.172 120.453 201.766 122.762 202.937C122.899 203.006 122.954 203.174 122.885 203.312C122.836 203.409 122.737 203.465 122.635 203.465Z" fill="white"/>
<path opacity="0.63" d="M106.344 231.213C106.29 231.213 106.236 231.197 106.188 231.165C101.662 228.107 98.96 223.025 98.96 217.57C98.96 211.522 102.272 205.985 107.604 203.119C107.739 203.046 107.909 203.097 107.982 203.233C108.055 203.369 108.004 203.538 107.868 203.611C102.718 206.38 99.5182 211.728 99.5182 217.57C99.5182 222.839 102.129 227.748 106.501 230.702C106.629 230.789 106.663 230.962 106.576 231.09C106.522 231.17 106.434 231.213 106.344 231.213Z" fill="white"/>
<g opacity="0.3">
<path d="M42.9773 40.7054C42.7485 40.9881 42.3337 41.0316 42.0512 40.8027C41.5021 40.3582 40.9255 39.9307 40.3374 39.5325C40.0399 39.331 39.9595 38.9288 40.1545 38.6288C40.1568 38.6252 40.1591 38.6217 40.1615 38.618C40.3654 38.3169 40.7748 38.2382 41.076 38.4422C41.6949 38.8615 42.302 39.3113 42.88 39.7794C43.1443 39.9933 43.1994 40.3702 43.0181 40.6492C43.0056 40.6684 42.9921 40.6873 42.9773 40.7054ZM37.3421 37.7903C36.7055 37.4761 36.0495 37.1861 35.3917 36.9282C35.0534 36.7956 34.8863 36.4136 35.0189 36.0749C35.1532 35.7356 35.5338 35.5695 35.8723 35.7023C36.5644 35.9736 37.255 36.2788 37.9248 36.6093C38.2509 36.7703 38.3847 37.1652 38.2237 37.4913C38.212 37.515 38.1991 37.5377 38.1851 37.5593C38.0059 37.8351 37.6444 37.9396 37.3421 37.7903ZM32.0872 35.8918C31.3985 35.7276 30.6944 35.5914 29.9939 35.4869C29.6343 35.4332 29.3861 35.098 29.4398 34.7385C29.4937 34.3792 29.8284 34.1309 30.1882 34.1844C30.9259 34.2944 31.6675 34.4379 32.3926 34.6109C32.7464 34.6952 32.9646 35.0504 32.8804 35.4042C32.8624 35.4795 32.8321 35.5488 32.7922 35.6103C32.6447 35.8372 32.3654 35.9582 32.0872 35.8918ZM26.5395 35.2163C25.8307 35.2101 25.1135 35.2348 24.4075 35.2892C24.0449 35.3171 23.7283 35.0459 23.7004 34.6834C23.6728 34.3209 23.944 34.0045 24.3062 33.9762C25.0496 33.919 25.8047 33.8931 26.5506 33.8993C26.9142 33.9025 27.2066 34.1998 27.2034 34.5634C27.2023 34.6935 27.1635 34.8145 27.0975 34.916C26.979 35.0984 26.773 35.2181 26.5395 35.2163ZM20.9796 35.7934C20.2889 35.9445 19.5946 36.1273 18.9166 36.337C18.5691 36.4442 18.2004 36.2496 18.093 35.9022C17.9855 35.5546 18.1802 35.186 18.5278 35.0789C19.2411 34.8583 19.9715 34.666 20.6984 34.5071C21.0535 34.4293 21.4045 34.6543 21.4822 35.0096C21.5214 35.1886 21.4837 35.3666 21.3911 35.509C21.3001 35.6492 21.1559 35.7549 20.9796 35.7934ZM15.6862 37.5864C15.0449 37.8869 14.4088 38.2186 13.7951 38.5727C13.4801 38.7543 13.0773 38.6462 12.8958 38.3313C12.7141 38.0163 12.8219 37.6137 13.1371 37.4318C13.7828 37.0593 14.4527 36.7101 15.1275 36.3939C15.4568 36.2396 15.8487 36.3814 16.0031 36.7108C16.1034 36.9247 16.0784 37.165 15.9586 37.3495C15.8938 37.4491 15.8016 37.5324 15.6862 37.5864ZM0.846216 57.019C0.486691 56.9648 0.239079 56.6294 0.29331 56.2697C0.40453 55.5332 0.549458 54.7913 0.724048 54.0653C0.809058 53.7116 1.16462 53.4939 1.51819 53.5791C1.8716 53.6639 2.0893 54.0196 2.00437 54.3731C1.83858 55.0625 1.70106 55.7668 1.59553 56.4663C1.58105 56.5623 1.54665 56.6501 1.4969 56.7266C1.36059 56.9365 1.10987 57.0589 0.846216 57.019ZM10.9246 40.5064C10.3665 40.9417 9.82056 41.4066 9.30205 41.8883C9.03546 42.1357 8.61878 42.1203 8.37142 41.8539C8.1238 41.5873 8.1407 41.1719 8.4059 40.9233C8.95209 40.4161 9.52699 39.9265 10.1146 39.4681C10.4014 39.2445 10.8151 39.2956 11.0388 39.5823C11.2162 39.8097 11.2207 40.1171 11.0719 40.3461C11.0332 40.4059 10.9838 40.4601 10.9246 40.5064ZM2.19336 51.4407C1.85513 51.3074 1.68899 50.925 1.82237 50.5866C2.09568 49.8937 2.40252 49.2034 2.73394 48.5348C2.89422 48.2079 3.29065 48.076 3.61646 48.2374C3.94219 48.3989 4.07531 48.794 3.91382 49.1199C3.59878 49.7554 3.30711 50.4114 3.04751 51.0699C3.03096 51.1119 3.01036 51.1511 2.98665 51.1876C2.81964 51.4446 2.48951 51.5575 2.19336 51.4407ZM6.93582 44.4166C6.48956 44.9656 6.06106 45.5409 5.66239 46.1271C5.45797 46.428 5.04844 46.5058 4.74763 46.3013C4.45096 46.0995 4.37112 45.6979 4.56571 45.3984C4.56821 45.3945 4.57089 45.3905 4.57356 45.3867C4.99309 44.7695 5.44409 44.1637 5.91371 43.5859C6.14331 43.3039 6.55793 43.261 6.8402 43.4905C7.10377 43.7046 7.15843 44.0808 6.97729 44.3595C6.96462 44.3789 6.95065 44.398 6.93582 44.4166Z" fill="#E4E4E4"/>
<path d="M1.22358 61.3428C1.29419 61.2341 1.33368 61.1035 1.32928 60.964C1.3185 60.6247 1.31488 60.2795 1.3179 59.9379C1.32135 59.5744 1.02916 59.2767 0.665667 59.2735C0.302003 59.2699 0.0039536 59.562 0.00119465 59.9259C-0.00225403 60.2851 0.00179699 60.6481 0.012919 61.0052C0.0242996 61.3686 0.328304 61.6542 0.691536 61.6427C0.915787 61.6357 1.11012 61.5175 1.22358 61.3428Z" fill="#E4E4E4"/>
</g>
<g opacity="0.3">
<path d="M9.63879 79.567C9.81191 79.3005 9.77113 78.9405 9.52791 78.7204C9.27607 78.4928 9.02475 78.2561 8.78119 78.0168C8.52167 77.762 8.10481 77.7658 7.85004 78.0252C7.59424 78.2857 7.59906 78.7017 7.8584 78.9564C8.11499 79.2083 8.37959 79.4577 8.64462 79.6974C8.91439 79.9412 9.33073 79.9202 9.57464 79.6506C9.5987 79.6241 9.61999 79.5961 9.63879 79.567Z" fill="#E4E4E4"/>
<path d="M47.6091 75.6249C47.3963 75.9197 46.9847 75.9863 46.6896 75.7732C46.3949 75.5604 46.3288 75.1495 46.5413 74.854C46.9466 74.2927 47.3341 73.7053 47.6981 73.1018C47.8839 72.7912 48.2907 72.6903 48.6021 72.8781C48.9135 73.0659 49.0137 73.4706 48.826 73.782C48.6683 74.0435 48.5069 74.3013 48.3419 74.5553C48.1062 74.9178 47.8598 75.2777 47.6091 75.6249ZM49.6009 70.9345C49.2672 70.7906 49.1131 70.4032 49.257 70.0694C49.5332 69.4282 49.7855 68.7685 50.0065 68.1085C50.1207 67.7637 50.495 67.5776 50.8399 67.6931C51.1846 67.8084 51.3706 68.1817 51.2552 68.5264C51.0226 69.2213 50.7572 69.9158 50.4663 70.5905C50.4512 70.6255 50.4334 70.6586 50.4133 70.6894C50.2417 70.9534 49.9 71.0634 49.6009 70.9345ZM45.3146 78.3834C44.8086 78.9132 44.2731 79.4286 43.7226 79.9152C43.4501 80.1561 43.0339 80.1304 42.793 79.8579C42.5522 79.5854 42.5782 79.1697 42.8503 78.9284C43.3732 78.4664 43.8817 77.9771 44.362 77.474C44.6133 77.211 45.03 77.2013 45.2932 77.4525C45.5258 77.6747 45.56 78.0265 45.3909 78.2868C45.3689 78.3206 45.3434 78.3531 45.3146 78.3834ZM51.3897 65.5782C51.0323 65.5112 50.7968 65.167 50.864 64.8096C50.9926 64.1245 51.0933 63.4257 51.1637 62.7327C51.2002 62.3706 51.5231 62.1073 51.8852 62.144C52.2469 62.1807 52.5104 62.5036 52.4738 62.8653C52.3998 63.5952 52.2937 64.331 52.1583 65.0525C52.1418 65.1397 52.1091 65.2197 52.0636 65.2898C51.9226 65.5068 51.6598 65.6288 51.3897 65.5782ZM40.8793 82.0994C40.2696 82.5047 39.634 82.8895 38.99 83.2433C38.6714 83.4184 38.2712 83.3021 38.096 82.9834C37.9207 82.6646 38.0372 82.2643 38.356 82.0892C38.9676 81.7531 39.5714 81.3876 40.1503 81.0027C40.4532 80.8013 40.862 80.8837 41.0633 81.1865C41.2133 81.4123 41.2057 81.6966 41.067 81.9101C41.0195 81.9833 40.9565 82.0482 40.8793 82.0994ZM35.7365 84.7527C35.0514 85.0155 34.3471 85.2525 33.6433 85.4571C33.2939 85.5584 32.9287 85.3577 32.8271 85.0085C32.7256 84.6588 32.9264 84.2936 33.2757 84.1925C33.9444 83.9981 34.6137 83.7729 35.2649 83.5233C35.6044 83.393 35.9853 83.5628 36.1155 83.9023C36.1939 84.1069 36.1635 84.3266 36.0525 84.4972C35.9794 84.6097 35.8714 84.7009 35.7365 84.7527ZM30.1376 86.2221C29.411 86.3296 28.6718 86.4075 27.9408 86.4539C27.5777 86.4768 27.2651 86.2013 27.242 85.8384C27.219 85.475 27.4947 85.1626 27.8574 85.1396C28.5521 85.0957 29.2544 85.0215 29.9449 84.9194C30.3046 84.8662 30.6394 85.1148 30.6925 85.4744C30.717 85.6397 30.6778 85.7995 30.5934 85.9293C30.4941 86.0822 30.3321 86.1933 30.1376 86.2221ZM24.3515 86.4353C23.6191 86.3813 22.8805 86.2953 22.1563 86.1797C21.7972 86.1225 21.5524 85.7848 21.6099 85.4257C21.667 85.0672 22.0048 84.8222 22.3639 84.8794C23.0515 84.9892 23.7527 85.0707 24.4486 85.122C24.8112 85.1487 25.0835 85.4643 25.0566 85.827C25.0481 85.9416 25.011 86.0469 24.9525 86.137C24.8258 86.3317 24.5997 86.4535 24.3515 86.4353ZM18.6569 85.3712C17.9562 85.1576 17.2553 84.9112 16.5735 84.6388C16.2358 84.5037 16.0714 84.1206 16.2064 83.7829C16.341 83.4463 16.7244 83.2808 17.0621 83.4159C17.7097 83.6748 18.3754 83.9088 19.0411 84.1117C19.3888 84.2176 19.5849 84.5857 19.4788 84.9335C19.4604 84.994 19.4341 85.0501 19.4012 85.1006C19.2454 85.3404 18.9442 85.4588 18.6569 85.3712ZM13.3406 83.0851C12.8709 82.8192 12.4034 82.5353 11.9517 82.2417C11.7879 82.1353 11.6261 82.0275 11.4656 81.9182C11.1652 81.7135 11.079 81.3037 11.2923 81.0034C11.4969 80.7028 11.9065 80.6251 12.2072 80.8299C12.3596 80.9337 12.5137 81.0364 12.6692 81.1375C13.0989 81.4167 13.5429 81.6864 13.9896 81.9393C14.306 82.1184 14.4172 82.5202 14.238 82.8367C14.2312 82.8485 14.2242 82.8602 14.2169 82.8716C14.0286 83.1611 13.645 83.2577 13.3406 83.0851Z" fill="#E4E4E4"/>
<path d="M52.4834 59.6458C52.5547 59.5361 52.5941 59.4042 52.5891 59.2636C52.5762 58.9074 52.5554 58.5447 52.5274 58.1856C52.4993 57.8229 52.1825 57.5519 51.82 57.5802C51.4575 57.6085 51.1863 57.9248 51.2146 58.2876C51.2411 58.6287 51.2607 58.9733 51.2732 59.3115C51.2862 59.6747 51.5915 59.9587 51.955 59.9455C52.1777 59.9373 52.3705 59.8194 52.4834 59.6458Z" fill="#E4E4E4"/>
</g>
<path d="M44.2245 51.9442C44.1843 51.8192 44.0695 51.7333 43.9382 51.7304L40.1935 51.6481C39.2939 50.1479 38.1487 48.7805 36.7783 47.6134L37.3127 43.9087C37.3314 43.7787 37.2656 43.6512 37.1488 43.5911L33.1542 41.5352C33.0374 41.475 32.8953 41.4957 32.8006 41.5864L30.0963 44.1745C28.3501 43.7375 26.5717 43.6002 24.8281 43.74L22.5849 40.7406C22.5063 40.6355 22.3695 40.5918 22.2445 40.6319L17.9661 42.0028C17.8411 42.0429 17.7552 42.1578 17.7523 42.2892L17.6701 46.0337C16.1699 46.9332 14.8024 48.0785 13.6354 49.4491L9.93064 48.9147C9.80062 48.8959 9.67311 48.9617 9.6131 49.0784L7.55708 53.0731C7.49699 53.1898 7.51768 53.3318 7.60838 53.4267L10.1964 56.1311C9.75941 57.8773 9.62216 59.6557 9.76209 61.3993L6.76259 63.6425C6.65749 63.7211 6.6137 63.8577 6.65387 63.9828L8.02481 68.2613C8.06482 68.3863 8.17992 68.4721 8.31105 68.475L12.0558 68.5573C12.9553 70.0574 14.1005 71.4248 15.471 72.592L14.9367 76.2968C14.9179 76.4267 14.9837 76.5543 15.1004 76.6143L19.0952 78.6703C19.2119 78.7304 19.3539 78.7098 19.4487 78.619L22.1531 76.031C23.8994 76.4679 25.6778 76.6052 27.4213 76.4654L29.6645 79.4648C29.7431 79.57 29.8798 79.6137 30.0049 79.5736L34.2833 78.2026C34.4084 78.1625 34.4941 78.0476 34.4971 77.9164L34.5793 74.1717C36.0795 73.2722 37.4469 72.127 38.614 70.7565L42.3188 71.2909C42.4486 71.3096 42.5762 71.2439 42.6363 71.127L44.6922 67.1323C44.7523 67.0156 44.7317 66.8736 44.6409 66.7788L42.053 64.0745C42.4899 62.3283 42.6271 60.5499 42.4873 58.8063L45.4868 56.563C45.592 56.4844 45.6356 56.3476 45.5955 56.2227L44.2245 51.9442Z" fill="#E4E4E4"/>
<path d="M29.512 63.0942C27.8652 64.9619 25.006 65.1419 23.138 63.495C22.233 62.6973 21.6931 61.5949 21.6174 60.391C21.5417 59.1874 21.9391 58.0259 22.7371 57.1212C24.384 55.2534 27.2432 55.0734 29.1112 56.7203C30.8104 58.2186 31.1126 60.7203 29.9132 62.5661C29.7943 62.7491 29.6605 62.9258 29.512 63.0942ZM22.6689 60.325C22.727 61.2481 23.1409 62.0932 23.8348 62.7049C25.2668 63.9674 27.4593 63.8296 28.7218 62.3976C29.9852 60.9655 29.8465 58.7731 28.4144 57.5104C26.9824 56.2479 24.7899 56.3857 23.5273 57.8177C23.4128 57.9476 23.3094 58.0842 23.2168 58.2267C22.8145 58.8459 22.6218 59.5748 22.6689 60.325Z" fill="#B7B7B7"/>
<path d="M35.3321 66.1946C35.538 65.8775 35.7294 65.5483 35.9047 65.2075C35.96 65.1004 36.0135 64.9921 36.0652 64.8831C36.3203 64.3456 36.5322 63.7888 36.6977 63.2211C36.6999 63.2133 36.7022 63.2057 36.7045 63.1979C36.7108 63.1759 36.7171 63.1539 36.7232 63.1319C36.7353 63.089 36.7471 63.046 36.7587 63.0031C36.7892 62.8901 36.7413 62.7745 36.6483 62.7139C36.6256 62.6991 36.6002 62.6878 36.5728 62.6803C36.4324 62.6425 36.2882 62.726 36.2502 62.8662C36.0557 63.589 35.7818 64.2955 35.4363 64.9664C33.7216 68.2994 30.4697 70.3356 26.9883 70.6573C25.052 70.8366 23.0446 70.4851 21.191 69.5311C20.8659 69.3639 20.5517 69.1814 20.2494 68.9848C18.2145 67.6621 16.7089 65.6963 15.9585 63.3539C15.0963 60.6633 15.3335 57.798 16.6264 55.2859C19.2971 50.098 25.6861 48.0523 30.8717 50.7213C31.1915 50.8858 31.5017 51.066 31.8012 51.2607C33.0992 52.1045 34.1982 53.2229 35.0151 54.5396C35.0363 54.5735 35.0638 54.6011 35.0953 54.6215C35.1782 54.6753 35.2882 54.6801 35.3777 54.6244C35.5011 54.5472 35.5397 54.3855 35.4625 54.2616C34.6047 52.8794 33.451 51.7049 32.0884 50.8191C31.7741 50.6147 31.4484 50.4256 31.113 50.2529C25.6685 47.4507 18.9592 49.6022 16.1581 55.0446C14.8007 57.6819 14.5519 60.6899 15.457 63.5144C16.2447 65.9735 17.8254 68.0373 19.9615 69.4259C20.2789 69.6322 20.6088 69.8237 20.9499 69.9993C23.5873 71.3566 26.5953 71.6057 29.4198 70.7007C31.8794 69.9127 33.9436 68.3314 35.3321 66.1946Z" fill="#B7B7B7"/>
<g opacity="0.3">
<path d="M69.8111 31.2622C69.907 31.1147 69.8991 30.9163 69.7785 30.7759C69.5538 30.5139 69.3181 30.255 69.0778 30.0067C68.9216 29.8453 68.6644 29.8411 68.5027 29.9972C68.3404 30.153 68.3372 30.4109 68.4932 30.5723C68.7222 30.8088 68.9469 31.0556 69.1615 31.3056C69.3074 31.476 69.5642 31.4956 69.7349 31.3495C69.7651 31.3235 69.7904 31.294 69.8111 31.2622Z" fill="#E4E4E4"/>
<path d="M67.5405 29.117C67.3995 29.2918 67.1437 29.3196 66.9687 29.1785C66.5271 28.8231 66.0621 28.4862 65.5869 28.1774C65.4868 28.1123 65.3854 28.048 65.283 27.9847C65.0924 27.8662 65.0336 27.6156 65.152 27.4247C65.2711 27.2487 65.5211 27.1753 65.7122 27.2935C65.8192 27.36 65.9252 27.4272 66.0301 27.4954C66.5283 27.8191 67.0157 28.1724 67.4787 28.5452C67.6426 28.6771 67.6772 28.9103 67.5649 29.0832C67.5575 29.0946 67.5492 29.1058 67.5405 29.117ZM63.465 27.0046C62.8412 26.7161 62.194 26.4634 61.5414 26.2541C61.3274 26.1854 61.2099 25.9568 61.2784 25.7427C61.347 25.53 61.576 25.4109 61.7899 25.4796C62.4738 25.699 63.1524 25.9637 63.8064 26.2664C64.0103 26.3608 64.099 26.6025 64.0049 26.8065C63.9966 26.8244 63.9868 26.8414 63.9764 26.8576C63.8679 27.0245 63.6508 27.0906 63.465 27.0046ZM59.5392 25.7472C58.8648 25.6204 58.1754 25.5347 57.4896 25.4924C57.2656 25.4785 57.095 25.2855 57.109 25.0615C57.1229 24.8366 57.3154 24.6666 57.5399 24.6805C58.2589 24.7248 58.9823 24.815 59.6893 24.9477C59.9101 24.9892 60.0556 25.2018 60.014 25.4225C60.0037 25.4762 59.9835 25.5256 59.9554 25.5689C59.8683 25.703 59.706 25.7785 59.5392 25.7472ZM55.4243 25.4928C54.7383 25.5353 54.0485 25.6208 53.3752 25.7472C53.1542 25.7885 52.9417 25.6432 52.9005 25.4225C52.8594 25.2023 53.0044 24.9893 53.2251 24.9478C53.9317 24.8153 54.6544 24.7257 55.374 24.681C55.5981 24.667 55.7912 24.8377 55.8052 25.0619C55.8104 25.1523 55.7862 25.2376 55.7403 25.3082C55.6725 25.4126 55.558 25.4845 55.4243 25.4928ZM51.372 26.2507C50.7173 26.4586 50.0695 26.7091 49.4461 26.995C49.2422 27.0886 49.0007 26.9989 48.907 26.7948C48.8132 26.5906 48.9025 26.349 49.1071 26.2557C49.7604 25.956 50.4395 25.6935 51.1256 25.4753C51.3397 25.4075 51.5683 25.5258 51.6362 25.7397C51.6747 25.8605 51.6537 25.9862 51.5896 26.0848C51.5402 26.1608 51.4651 26.221 51.372 26.2507ZM47.6265 27.9693C47.0426 28.33 46.4759 28.7304 45.942 29.16C45.7671 29.3007 45.511 29.273 45.3703 29.098C45.2297 28.923 45.2572 28.6679 45.4322 28.526C45.992 28.0756 46.5867 27.6555 47.1992 27.2772C47.3903 27.1594 47.6409 27.2185 47.7588 27.4094C47.8442 27.5478 47.8368 27.7173 47.7538 27.845C47.722 27.8938 47.6794 27.9366 47.6265 27.9693ZM44.4163 30.5507C43.9403 31.042 43.4888 31.5698 43.0745 32.1198C42.9392 32.299 42.6842 32.3348 42.505 32.1996C42.3257 32.0646 42.2924 31.8118 42.4248 31.6299C42.8594 31.0536 43.3328 30.5002 43.832 29.9848C43.9884 29.8236 44.2459 29.8194 44.4073 29.9757C44.5491 30.1131 44.5693 30.3291 44.4654 30.4889C44.4513 30.5107 44.435 30.5313 44.4163 30.5507ZM40.4823 35.9077C40.2754 35.8202 40.1789 35.5817 40.2665 35.3748C40.5088 34.8022 40.7868 34.2331 41.0915 33.6846C41.1373 33.6009 41.1842 33.5185 41.2317 33.4361C41.3377 33.2393 41.5927 33.1748 41.7874 33.2879C41.9819 33.4003 42.0482 33.6489 41.9359 33.8435C41.891 33.9205 41.8472 33.9983 41.8034 34.0781C41.5115 34.6029 41.2464 35.1458 41.0152 35.6918C41.0057 35.7143 40.9943 35.7356 40.9815 35.7551C40.8762 35.9175 40.6666 35.9857 40.4823 35.9077Z" fill="#E4E4E4"/>
</g>
<g opacity="0.3">
<path d="M71.0388 51.9963C70.6449 52.5855 70.2114 53.1556 69.751 53.6915C69.6046 53.8615 69.3479 53.8811 69.1774 53.7346C69.0069 53.588 68.9904 53.3314 69.1343 53.161C69.5737 52.6503 69.9869 52.1063 70.3627 51.544C70.4873 51.3572 70.7401 51.3072 70.9267 51.432C71.1119 51.5559 71.1629 51.8054 71.0419 51.9916C71.0409 51.9931 71.0397 51.9947 71.0388 51.9963ZM71.5673 50.336C71.3671 50.2345 71.287 49.9897 71.3886 49.7895C71.694 49.1869 71.9661 48.5597 72.197 47.9252C72.274 47.7156 72.5072 47.6053 72.7185 47.6825C72.9295 47.7593 73.0381 47.9924 72.9614 48.2036C72.7193 48.8685 72.4342 49.5258 72.1139 50.1571C72.1071 50.1705 72.0999 50.1831 72.0919 50.1954C71.9803 50.3673 71.7546 50.431 71.5673 50.336ZM68.2655 55.2186C67.7406 55.6955 67.1822 56.1444 66.6057 56.5527C66.4224 56.6824 66.1683 56.639 66.0387 56.4558C65.9087 56.2725 65.9521 56.0197 66.1353 55.8889C66.6853 55.4994 67.2179 55.0714 67.7189 54.6166C67.8852 54.4657 68.1424 54.4781 68.2931 54.6441C68.4201 54.7839 68.4316 54.9879 68.3333 55.139C68.3148 55.1677 68.2922 55.1945 68.2655 55.2186ZM73.0786 46.4652C72.8598 46.4148 72.7233 46.1963 72.7736 45.9775C72.9252 45.3193 73.0378 44.6452 73.1081 43.9737C73.1318 43.7507 73.3319 43.5885 73.5547 43.6116C73.7782 43.635 73.9404 43.835 73.917 44.0584C73.8435 44.7625 73.7255 45.4698 73.5662 46.1601C73.5551 46.2079 73.5361 46.2516 73.511 46.2904C73.4204 46.4296 73.2496 46.5046 73.0786 46.4652ZM64.7969 57.6744C64.1742 58.0103 63.5243 58.3114 62.8651 58.5699C62.6561 58.6519 62.42 58.5487 62.338 58.3395C62.256 58.1303 62.3587 57.8943 62.5683 57.8124C63.1972 57.5662 63.8168 57.2789 64.4107 56.9583C64.6083 56.8517 64.855 56.9255 64.9617 57.1234C65.0348 57.2588 65.023 57.4176 64.9445 57.5383C64.9087 57.5934 64.859 57.6409 64.7969 57.6744ZM60.8399 59.2266C60.1534 59.4038 59.4501 59.5409 58.7496 59.6342C58.527 59.6639 58.3226 59.5076 58.2931 59.285C58.2632 59.0626 58.4196 58.8577 58.6425 58.8281C59.3104 58.739 59.9814 58.6081 60.6365 58.4389C60.854 58.3827 61.0758 58.5136 61.132 58.731C61.1616 58.8459 61.1392 58.9621 61.0791 59.0545C61.0256 59.1368 60.9423 59.2001 60.8399 59.2266ZM56.6247 59.7868C55.9153 59.7948 55.1992 59.759 54.4967 59.6809C54.2733 59.656 54.1126 59.4551 54.1375 59.2318C54.1621 59.0086 54.3636 58.848 54.5864 58.8725C55.2564 58.9472 55.9391 58.9811 56.6154 58.9733C56.84 58.9708 57.0242 59.1509 57.0265 59.3755C57.0277 59.4589 57.0034 59.5364 56.9612 59.6013C56.8896 59.7115 56.7661 59.7851 56.6247 59.7868Z" fill="#E4E4E4"/>
<path d="M73.9439 42.135C73.9866 42.0692 74.0108 41.9904 74.0092 41.9061C74.0028 41.558 73.9859 41.2087 73.9595 40.8675C73.942 40.6437 73.7463 40.4761 73.5223 40.4934C73.299 40.5114 73.1314 40.7066 73.1483 40.9305C73.1738 41.2558 73.1897 41.5892 73.196 41.9213C73.2002 42.1459 73.3858 42.3246 73.6102 42.3203C73.7503 42.3176 73.8727 42.2444 73.9439 42.135Z" fill="#E4E4E4"/>
</g>
<path d="M68.4371 36.6967C68.4102 36.6131 68.3334 36.5556 68.2455 36.5537L65.7398 36.4986C65.1378 35.4948 64.3715 34.5797 63.4544 33.7988L63.812 31.3197C63.8245 31.2327 63.7805 31.1474 63.7024 31.1072L61.0293 29.7315C60.9512 29.6912 60.8561 29.705 60.7927 29.7657L58.9831 31.4976C57.8146 31.2051 56.6246 31.1133 55.4579 31.2068L53.9568 29.1998C53.9042 29.1294 53.8127 29.1002 53.729 29.127L50.866 30.0444C50.7824 30.0712 50.7249 30.1481 50.723 30.2359L50.668 32.7417C49.6642 33.3436 48.7491 34.1099 47.9681 35.027L45.489 34.6694C45.402 34.6569 45.3168 34.7009 45.2765 34.779L43.9007 37.4521C43.8606 37.5302 43.8744 37.6252 43.9351 37.6886L45.6669 39.4982C45.3745 40.6667 45.2826 41.8568 45.3763 43.0235L43.3691 44.5245C43.2988 44.5771 43.2696 44.6686 43.2964 44.7522L44.2137 47.6152C44.2405 47.6989 44.3174 47.7563 44.4052 47.7583L46.911 47.8134C47.5129 48.8172 48.2793 49.7322 49.1964 50.5132L48.8388 52.9923C48.8262 53.0792 48.8702 53.1645 48.9484 53.2047L51.6215 54.5805C51.6996 54.6206 51.7946 54.6068 51.8581 54.5461L53.6677 52.8143C54.8362 53.1068 56.0262 53.1986 57.1929 53.1049L58.694 55.1121C58.7466 55.1824 58.838 55.2117 58.9217 55.1848L61.7847 54.2675C61.8684 54.2407 61.9258 54.1638 61.9278 54.0759L61.9828 51.5702C62.9866 50.9683 63.9016 50.2019 64.6826 49.2848L67.1617 49.6425C67.2486 49.655 67.3339 49.611 67.3742 49.5329L68.7499 46.8598C68.7901 46.7817 68.7764 46.6867 68.7156 46.6232L66.9838 44.8136C67.2763 43.6451 67.368 42.4551 67.2745 41.2884L69.2816 39.7873C69.3519 39.7347 69.3812 39.6432 69.3544 39.5595L68.4371 36.6967Z" fill="#E4E4E4"/>
<path d="M58.6329 44.187C58.0896 44.8037 57.3385 45.1715 56.5184 45.223C55.6986 45.2747 54.9075 45.0038 54.2911 44.4603C53.0189 43.3387 52.897 41.3943 54.018 40.1183C55.1402 38.8463 57.0876 38.7238 58.3595 39.8453C58.976 40.3887 59.3439 41.1396 59.3955 41.9596C59.4374 42.6262 59.2662 43.2737 58.9087 43.8237C58.8266 43.9503 58.7344 44.0718 58.6329 44.187ZM54.8288 43.8501C55.2823 44.25 55.8641 44.4492 56.4676 44.4113C57.0706 44.3734 57.6231 44.1027 58.0228 43.6493C58.4219 43.1954 58.6216 42.614 58.5837 42.0106C58.546 41.4076 58.275 40.8552 57.8219 40.4556C56.886 39.6305 55.4535 39.7205 54.628 40.6561C54.5537 40.7407 54.4867 40.8291 54.4272 40.9208C53.8261 41.8458 53.9775 43.0996 54.8288 43.8501Z" fill="#B7B7B7"/>
<path d="M62.6838 46.3443C62.824 46.1285 62.9544 45.9039 63.0748 45.6705C63.3137 45.2069 63.5055 44.7184 63.6453 44.2175C63.6514 44.1949 63.6576 44.1724 63.6637 44.1498C63.7108 43.9753 63.6369 43.7969 63.4931 43.7031C63.4582 43.6805 63.4189 43.6628 63.3766 43.6513C63.1598 43.5929 62.9374 43.7221 62.8784 43.9383C62.7523 44.4073 62.5749 44.8646 62.3516 45.2978L62.3516 45.298C62.3394 45.3218 62.3267 45.3456 62.3144 45.369C61.7767 46.3896 61.005 47.2375 60.0697 47.8604C59.562 48.1986 59.0056 48.4703 58.4115 48.6665C58.4067 48.6681 58.4019 48.6697 58.397 48.6713C58.382 48.6761 58.3675 48.6811 58.3526 48.6856C56.6108 49.2436 54.7558 49.0902 53.1296 48.2531C52.9191 48.1449 52.7159 48.0268 52.5201 47.8996C51.2027 47.0434 50.2281 45.7705 49.742 44.2541C49.184 42.5122 49.3379 40.6574 50.1748 39.0314C51.0119 37.4065 52.432 36.2022 54.1737 35.6437C55.9155 35.0857 57.7705 35.2392 59.3967 36.0763C59.6037 36.1826 59.8045 36.2994 59.9983 36.4253C60.8387 36.9717 61.55 37.6955 62.0789 38.5479C62.1115 38.6004 62.1539 38.6429 62.2027 38.6744C62.3305 38.7575 62.5005 38.7649 62.6387 38.679C62.8293 38.56 62.8884 38.3101 62.7698 38.1188C62.178 37.1651 61.382 36.3549 60.4422 35.7437C60.2251 35.6027 60.0006 35.4722 59.7692 35.353C57.9495 34.4165 55.8742 34.2448 53.9254 34.8692C51.9769 35.4938 50.3872 36.8379 49.4516 38.659C48.515 40.4784 48.3431 42.5535 48.9679 44.5024C49.5113 46.1989 50.6018 47.6228 52.0756 48.5808C52.2944 48.723 52.5219 48.8552 52.7572 48.9763C56.28 50.7892 60.5698 49.5975 62.6838 46.3443Z" fill="#B7B7B7"/>
<path d="M152.175 73.9531L140.349 86.0508L154.535 82.2613L152.175 73.9531Z" fill="#E4E4E4"/>
<path d="M222.545 78.9638L155.346 82.2251C153.62 82.3089 152.175 80.9322 152.175 79.2044V51.5585C152.175 48.5537 154.562 46.092 157.565 45.9991L218.129 44.125C222.639 44.125 226.295 47.7811 226.295 52.2912V75.0273C226.295 77.1297 224.645 78.8619 222.545 78.9638Z" fill="#E4E4E4"/>
<path opacity="0.85" d="M157.356 81.1163C156.285 81.1163 155.276 80.7128 154.495 79.968C153.665 79.1762 153.207 78.1083 153.207 76.9611V52.0442C153.207 49.1077 155.562 46.7365 158.567 46.6457L217.207 44.875C221.651 44.875 225.263 48.4017 225.263 52.7365V74.2186C225.263 76.2859 223.608 77.9835 221.493 78.0835L157.559 81.1116C157.491 81.1146 157.423 81.1163 157.356 81.1163ZM217.211 45.1662L158.576 46.937C155.729 47.0229 153.499 49.2663 153.499 52.0441V76.961C153.499 78.0279 153.924 79.0208 154.696 79.757C155.468 80.4933 156.479 80.8723 157.545 80.8204L221.48 77.7922C223.438 77.6996 224.972 76.1299 224.972 74.2185V52.7364C224.972 48.5622 221.491 45.1662 217.211 45.1662Z" fill="white"/>
<path d="M217.015 50.204L163.282 52.215C162.754 52.2347 162.339 52.5845 162.356 52.9942L162.376 53.4665C162.393 53.872 162.829 54.1836 163.351 54.1645L217.086 52.2022C217.614 52.1829 218.03 51.8331 218.013 51.423L217.991 50.9018C217.973 50.4962 217.538 50.1845 217.015 50.204Z" fill="#B7B7B7"/>
<path d="M212.206 63.8055L158.473 65.8064C157.945 65.826 157.53 66.1876 157.548 66.6121L157.569 67.1013C157.587 67.5212 158.023 67.8446 158.545 67.8256L212.281 65.8754C212.809 65.8563 213.224 65.4945 213.206 65.0697L213.183 64.5299C213.165 64.1095 212.729 63.786 212.206 63.8055Z" fill="#B7B7B7"/>
<path d="M218.484 69.5011L158.582 71.7627C157.994 71.7849 157.53 72.152 157.549 72.5806L157.57 73.0746C157.588 73.4987 158.072 73.8233 158.654 73.8018L218.558 71.5912C219.146 71.5695 219.611 71.2022 219.593 70.7733L219.569 70.2281C219.551 69.8039 219.067 69.4791 218.484 69.5011Z" fill="#B7B7B7"/>
<path d="M187.554 58.2267L158.267 59.0804C157.98 59.0888 157.765 59.4836 157.788 59.9599L157.815 60.509C157.839 60.9804 158.087 61.3543 158.372 61.3466L187.661 60.5496C187.949 60.5417 188.165 60.1468 188.141 59.6701L188.111 59.0642C188.088 58.5924 187.839 58.2184 187.554 58.2267Z" fill="#B7B7B7"/>
<path d="M219.825 57.2111L192.143 58.0046C191.871 58.0124 191.669 58.4066 191.693 58.883L191.72 59.4321C191.743 59.9034 191.979 60.2778 192.248 60.2706L219.933 59.5338C220.205 59.5266 220.408 59.1321 220.384 58.6555L220.354 58.0496C220.33 57.5778 220.094 57.2033 219.825 57.2111Z" fill="#B7B7B7"/>
</svg>
