<svg width="256" height="144" viewBox="0 0 256 144" fill="none" xmlns="http://www.w3.org/2000/svg">
<path d="M71.0439 66.4966C69.4332 68.6182 67.9524 71.1007 67.4613 73.7491C67.3024 74.5863 68.9781 75.6399 69.4331 74.7306C70.6249 72.3564 71.6723 70.0254 73.3191 67.911C74.092 66.9224 71.8312 65.4574 71.0439 66.4894V66.4966Z" fill="#DED105"/>
<path d="M230.124 11.7734C229.243 10.1352 227.647 8.76412 226.354 7.46515C226.029 7.13319 225.545 6.96 225.111 7.20536C224.743 7.41464 224.541 7.95587 224.794 8.33835C225.848 9.96205 226.888 11.8455 228.376 13.1229C229.279 13.895 230.709 12.8631 230.124 11.7806V11.7734Z" fill="#DED105"/>
<path d="M210.777 91.9702C209.614 91.7032 208.177 92.2011 207.057 92.5619C205.815 92.9588 204.645 93.4856 203.518 94.1207C202.088 94.9289 203.749 96.2135 204.897 95.6939C205.952 95.2176 207.057 94.8135 208.169 94.5032C209.181 94.2217 210.293 94.1784 211.203 93.6372C212.106 93.1032 211.615 92.165 210.777 91.9702Z" fill="#DED105"/>
<path d="M50.8277 0.475275C50.1488 2.30104 49.2603 3.97526 48.0324 5.49072C47.274 6.42886 49.8671 6.38556 50.3943 5.84433C51.8462 4.35052 52.7057 2.43815 52.6985 0.367028C52.6985 -0.268021 51.0011 0.0206375 50.8277 0.482491V0.475275Z" fill="#DED105"/>
<path d="M140.842 132.435C140.322 132.298 139.441 132.298 139.001 132.674C137.448 133.98 135.887 135.279 134.472 136.729C133.814 137.408 135.931 137.458 136.35 137.162C138.091 135.943 139.716 134.579 141.348 133.215C141.803 132.832 141.204 132.529 140.85 132.443L140.842 132.435Z" fill="#DED105"/>
<path d="M170.596 24.8862C169.361 25.2326 168.256 26.0481 167.172 26.712C166.082 27.3759 165.056 28.0975 164.023 28.8408C163.041 29.548 164.305 30.3924 165.121 30.0099C166.356 29.4326 167.555 28.8552 168.747 28.1841C169.801 27.5851 170.957 27.0656 171.802 26.1852C172.553 25.3986 171.326 24.6841 170.603 24.8862H170.596Z" fill="#DED105"/>
<path d="M76.47 132.269C76.1233 133.142 75.8343 133.98 75.6032 134.896C75.5021 135.293 75.4082 135.697 75.3143 136.094C75.2998 136.159 75.2276 136.383 75.1698 136.606C74.7653 136.808 74.4331 137.162 74.3536 137.581C74.2236 138.288 74.9242 138.562 75.5238 138.519C76.2316 138.468 76.9756 137.978 77.3078 137.364C77.7051 136.65 77.7629 135.661 77.929 134.867C78.1385 133.879 78.2685 132.933 78.3118 131.93C78.3552 131.006 76.6505 131.786 76.4627 132.269H76.47Z" fill="#DED105"/>
<path d="M40.7011 90.4935C39.8127 89.5193 38.1153 89.7069 37.4002 88.6245C36.6201 87.4482 37.8119 85.3698 38.3898 84.2513C38.8231 83.4142 37.3858 83.3131 36.9524 83.674C35.45 84.9152 33.9909 86.8348 34.5688 88.9492C34.8144 89.8368 35.4428 90.5007 36.2517 90.9193C36.6996 91.1502 37.2196 91.2224 37.6675 91.4389C37.9636 91.5832 38.9098 92.3337 38.722 92.4203C37.6024 92.911 37.9997 94.1884 39.1554 94.1523C41.0839 94.0945 42.0301 91.9512 40.6939 90.4935H40.7011Z" fill="#0991C7"/>
<path d="M207.422 25.7829C207.054 25.0251 204.8 25.9416 204.988 26.7499C205.096 27.2334 203.688 26.3746 203.565 26.3024C203.204 26.0932 202.821 25.8622 202.417 25.7323C201.521 25.4437 200.568 25.5086 199.672 25.754C197.751 26.2736 196.284 27.5365 195.338 29.2612C194.89 30.0839 196.913 29.4416 197.216 29.0303C198.097 27.854 199.282 26.721 200.885 27.3561C201.442 27.5798 201.904 27.9983 202.438 28.2798C203.19 28.6694 203.854 28.8066 204.685 28.6767C205.927 28.4746 208.188 27.3416 207.437 25.7901L207.422 25.7829Z" fill="#0991C7"/>
<path d="M89.0957 10.5014C90.1647 10.7179 91.1615 9.26743 89.9119 8.79114C88.4023 8.21383 86.7988 9.2097 86.3293 10.7179C86.0548 11.5984 86.2354 12.5076 86.5532 13.3447C86.741 13.8427 87.0227 14.2973 87.2177 14.7952C87.3766 15.12 87.485 15.4664 87.55 15.82C87.5355 15.8777 87.5355 15.9282 87.5283 15.9788C86.9866 16.0221 86.4593 16.2891 86.1704 16.7581C85.4409 17.9561 86.6977 18.9664 87.8461 18.8437C89.2402 18.6921 90.0636 17.386 90.1358 16.0942C90.1792 15.2715 89.9263 14.4849 89.6013 13.7416C89.5074 13.5324 87.9545 10.2705 89.0885 10.5014H89.0957Z" fill="#0991C7"/>
<path d="M192.433 138.98C192.014 138.15 189.696 138.294 189.891 139.406C190.071 140.394 188.099 139.362 187.536 139.269C186.691 139.132 185.81 139.211 185.044 139.615C183.628 140.366 183.137 141.903 183 143.396C182.913 144.342 184.777 144.039 185.059 143.425C185.434 142.595 185.918 140.849 187.052 141.08C187.984 141.275 188.735 141.809 189.739 141.766C191.097 141.708 193.257 140.611 192.433 138.973V138.98Z" fill="#0991C7"/>
<path d="M191.481 0.432091C190.123 -0.231824 188.332 0.157865 187.205 1.12487C185.811 2.33002 185.905 4.22074 186.165 5.90217C186.107 5.91661 186.042 5.93104 185.985 5.94547C185.414 6.11145 184.916 6.71763 185.847 6.76093C186.454 6.7898 187.025 6.76093 187.624 6.68155C187.892 6.64547 188.946 6.42176 188.852 5.96712C188.657 5.07228 188.433 4.17744 188.513 3.25373C188.549 2.85682 189.011 0.872295 189.733 1.12487C190.181 1.28363 190.752 1.2692 191.192 1.05992C191.416 0.951676 191.922 0.641369 191.481 0.424875V0.432091Z" fill="#0991C7"/>
<path d="M129.044 9.88581C128.523 9.25798 127.895 8.71675 127.252 8.21881C126.963 7.9951 126.667 7.77139 126.349 7.58376C125.959 7.35283 125.598 7.259 125.194 7.09302C124.276 6.71055 123.67 8.00231 124.385 8.59406C124.645 8.81055 124.861 9.07756 125.136 9.29406C125.41 9.51055 125.685 9.72703 125.952 9.95796C126.487 10.4198 126.97 10.925 127.469 11.4301C127.902 11.8631 128.675 12.0507 129.159 11.5817C129.665 11.0909 129.448 10.3693 129.058 9.89302L129.044 9.88581Z" fill="#0991C7"/>
<path d="M117.982 113.87C117.426 114.7 116.949 115.573 116.487 116.461C116.083 117.24 115.541 117.977 115.57 118.871C115.591 119.535 117.007 119.723 117.412 119.398C118.163 118.799 118.481 117.854 118.892 117.002C119.297 116.165 119.68 115.328 119.99 114.455C120.265 113.683 118.365 113.315 117.982 113.878V113.87Z" fill="#0991C7"/>
<path d="M52.2782 120.681C51.9242 120.024 51.1369 120.024 50.5302 120.233C49.1289 120.717 47.7927 121.323 46.4997 122.044C45.5391 122.579 46.023 123.899 47.1209 123.668C48.6811 123.336 50.2052 122.867 51.6859 122.261C52.2854 122.016 52.596 121.251 52.2854 120.681H52.2782Z" fill="#EBEBEB"/>
<path d="M201.524 57.1008C201.235 57.873 200.91 58.609 200.686 59.4101C200.52 59.9874 200.122 60.7523 200.325 61.3296C200.455 61.7265 202.188 60.7668 202.34 60.543C203.098 59.4028 203.142 57.7791 203.329 56.4657C203.366 56.2132 201.675 56.7255 201.531 57.108L201.524 57.1008Z" fill="#EBEBEB"/>
<path d="M189.286 121.17C188.911 120.621 188.073 120.694 187.545 120.917C186.585 121.321 185.617 121.704 184.685 122.173C184.295 122.368 183.898 122.772 184.107 123.234C184.302 123.681 184.938 123.775 185.364 123.652C186.484 123.335 187.574 122.916 188.665 122.519C189.171 122.339 189.633 121.675 189.286 121.17Z" fill="#EBEBEB"/>
<path d="M97.278 93.0206C96.4618 92.4794 94.2732 92.4072 93.6015 93.201C93.4642 93.3598 94.2804 93.3454 94.3454 93.3454C94.5043 93.3454 94.7427 93.3454 94.9811 93.3382C95.0677 93.3959 95.1544 93.4608 95.2122 93.5402C95.5228 93.9732 95.5228 94.5577 95.4433 95.0629C95.2628 96.2175 94.6416 97.2711 94.3382 98.3969C94.3382 98.4258 96.6857 98.7 96.8807 98.2381C97.4369 96.9608 98.8309 94.0598 97.2708 93.0279L97.278 93.0206Z" fill="#EBEBEB"/>
<path d="M149.228 100.503C148.708 100.431 148.181 100.489 147.668 100.503C147.834 100.503 147.762 101.051 147.639 100.517C147.56 100.157 147.488 99.8752 147.509 99.5072C147.589 98.3525 148.325 97.2845 148.939 96.3536C149.048 96.1948 147.415 95.3072 147.141 95.5381C145.848 96.6206 144.338 98.9587 145.992 100.366C146.679 100.943 147.61 101.347 148.477 101.549C148.918 101.65 149.452 101.744 149.9 101.672C150.348 101.6 150.283 101.484 150.384 101.759C150.5 102.091 150.406 102.249 150.211 102.516C150.095 102.675 152.291 104.017 152.616 103.613C153.837 102.069 150.297 100.662 149.236 100.51L149.228 100.503Z" fill="#EBEBEB"/>
<path d="M117.228 35.8965C115.957 36.3873 114.794 37.2244 113.689 38.0182C112.822 38.6388 114.122 39.6924 114.859 39.4037C116.123 38.9058 117.575 38.4223 118.68 37.6213C119.749 36.8419 118.145 35.5501 117.228 35.9038V35.8965Z" fill="#EBEBEB"/>
<path d="M43.1189 32.2977C41.956 31.6483 40.6053 31.5039 39.3268 31.1503C38.5901 30.9483 36.9216 30.3349 37.8606 29.2885C38.4962 28.574 37.3911 27.0225 36.546 27.5854C34.9208 28.6751 35.3108 30.8184 36.6254 32.038C37.3622 32.7235 38.3084 33.0916 39.2618 33.3586C40.4681 33.6977 41.7971 34.2173 43.0611 34.1524C44.0796 34.1019 43.7545 32.6441 43.1189 32.2905V32.2977Z" fill="#EBEBEB"/>
<path d="M5.36558 71.5984C3.41537 72.6231 1.81186 74.4922 0.258913 76.0293C-0.680079 76.953 1.18346 77.5736 1.89854 76.9963C2.80141 76.2602 3.70429 75.5241 4.5855 74.752C5.38725 74.052 6.25401 73.3736 6.81741 72.4571C7.32302 71.6272 5.88564 71.3242 5.3728 71.5984H5.36558Z" fill="#EBEBEB"/>
<path d="M255.773 76.05C254.617 75.0614 253.693 73.9212 252.978 72.5789C252.768 72.182 252.082 71.9511 251.692 71.8645C251.54 71.8284 250.717 71.7129 250.868 72.1026C251.497 73.7624 252.573 75.1191 253.989 76.1944C254.4 76.5119 255.101 76.7789 255.628 76.7067C256.055 76.649 256.127 76.3459 255.78 76.05H255.773Z" fill="#EBEBEB"/>
<path d="M152.017 58.4837C151.336 57.7728 150.632 57.0404 150.367 56.3963C150.121 55.8063 150.107 54.8285 150.092 53.8814C150.065 52.1205 150.036 50.1252 148.648 48.7378C147.259 47.3505 145.262 47.3216 143.499 47.2945C142.551 47.2801 141.573 47.2657 140.982 47.0203C140.339 46.7551 139.604 46.0515 138.893 45.3713C137.647 44.1752 136.231 42.8203 134.346 42.8203C132.461 42.8203 131.047 44.1752 129.799 45.3713C129.088 46.0515 128.355 46.7551 127.71 47.0203C127.123 47.2657 126.141 47.2801 125.193 47.2945C123.43 47.3216 121.433 47.3505 120.044 48.7378C118.656 50.1252 118.636 52.1205 118.6 53.8814C118.585 54.8285 118.571 55.8063 118.325 56.3963C118.06 57.0386 117.356 57.7728 116.675 58.4837C115.478 59.7285 114.122 61.1429 114.122 63.0264C114.122 64.9099 115.478 66.3225 116.675 67.5692C117.356 68.28 118.06 69.0125 118.325 69.6566C118.571 70.2465 118.585 71.2243 118.6 72.1715C118.627 73.9323 118.656 75.9277 120.044 77.315C121.433 78.7024 123.43 78.7313 125.193 78.7583C126.141 78.7728 127.119 78.7872 127.71 79.0325C128.353 79.2978 129.088 80.0014 129.799 80.6815C131.045 81.8776 132.461 83.2325 134.346 83.2325C136.231 83.2325 137.645 81.8776 138.893 80.6815C139.604 80.0014 140.337 79.2978 140.982 79.0325C141.573 78.7872 142.551 78.7728 143.499 78.7583C145.262 78.7313 147.259 78.7024 148.648 77.315C150.036 75.9277 150.065 73.9323 150.092 72.1715C150.107 71.2243 150.121 70.2465 150.367 69.6566C150.632 69.0143 151.336 68.28 152.017 67.5692C153.214 66.3243 154.57 64.9099 154.57 63.0264C154.57 61.1429 153.214 59.7303 152.017 58.4837ZM142.591 59.7177L132.479 69.8207C132.345 69.9549 132.185 70.0614 132.01 70.134C131.835 70.2066 131.647 70.244 131.457 70.244C131.267 70.244 131.079 70.2066 130.904 70.134C130.728 70.0614 130.569 69.9549 130.435 69.8207L126.101 65.4908C125.83 65.22 125.678 64.8527 125.678 64.4697C125.678 64.0867 125.83 63.7194 126.101 63.4486C126.372 63.1778 126.74 63.0256 127.123 63.0256C127.506 63.0256 127.874 63.1778 128.145 63.4486L131.457 66.7591L140.547 57.6754C140.681 57.5413 140.841 57.4349 141.016 57.3624C141.191 57.2898 141.379 57.2524 141.569 57.2524C141.759 57.2524 141.947 57.2898 142.122 57.3624C142.298 57.4349 142.457 57.5413 142.591 57.6754C142.725 57.8095 142.832 57.9687 142.904 58.1439C142.977 58.3191 143.014 58.5069 143.014 58.6965C143.014 58.8862 142.977 59.074 142.904 59.2492C142.832 59.4244 142.725 59.5836 142.591 59.7177Z" fill="#04805A"/>
</svg>
