<svg width="80" height="80" viewBox="0 0 80 80" fill="none" xmlns="http://www.w3.org/2000/svg">
<path d="M23.2052 36.481C25.0355 35.4724 26.1185 35.165 27.1655 34.7688C28.7742 34.1433 30.2174 33.6597 31.2376 33.3554V34.3817C31.2376 34.7005 31.5166 34.6507 31.6906 34.466C31.8645 34.2821 35.4814 30.3073 35.7872 29.9708C36.093 29.6351 36.0708 29.3439 35.66 29.2687C35.2492 29.1944 29.8335 28.2333 29.3751 28.1536C29.3751 28.1536 29.1115 28.0991 29.0662 28.303C29.0302 28.4678 29.6112 29.0679 29.8358 29.2925C28.5328 29.6918 26.6106 30.3433 24.4936 31.2094C22.7247 32.0065 21.3412 32.5384 19.9141 33.3278C19.8643 33.3554 19.8053 33.3869 19.7394 33.4206C17.5657 34.5779 15.5094 35.9207 14.001 37.4107C13.4062 37.9978 12.8889 38.6109 12.4497 39.241L17.6332 39.9116C19.104 38.6531 21.1213 37.4843 23.2045 36.4795L23.2052 36.481Z" fill="url(#paint0_linear_4069_5593)"/>
<path d="M10.9175 46.2264C11.559 48.7419 13.548 50.7607 16.1087 51.4965C16.9196 51.7295 17.7619 51.8437 18.6096 51.8437C20.5111 51.8437 22.4349 51.2696 24.0605 50.1744C26.5431 48.5027 28.1012 45.7796 28.4477 42.5084C28.7634 39.5284 28.22 36.9041 27.1646 34.7688C26.1177 35.1651 25.0347 35.4724 23.2044 36.481C23.9678 37.9227 24.4093 39.7982 24.1701 42.0554C23.9003 44.6008 22.6549 45.9359 21.657 46.6073C20.367 47.4757 18.6962 47.7654 17.2944 47.363C16.1792 47.0427 15.3522 46.2203 15.0832 45.1633C14.7183 43.7331 15.4066 42.0661 17.0223 40.4712C17.2131 40.2826 17.417 40.0964 17.6324 39.9124L12.4489 39.2418C10.8915 41.4821 10.3343 43.9409 10.9175 46.2264Z" fill="url(#paint1_linear_4069_5593)"/>
<path d="M16.1088 51.4972C16.9197 51.7302 17.762 51.8444 18.6097 51.8444C20.5112 51.8444 22.435 51.2703 24.0606 50.1751C26.5431 48.5035 28.1013 45.7803 28.4478 42.5091C28.7635 39.5292 28.2201 36.9048 27.1647 34.7695C26.1178 35.1658 25.0348 35.4731 23.2045 36.4818C23.9679 37.9235 24.4094 39.7989 24.1702 42.0561C23.9004 44.6015 22.655 45.9366 21.657 46.608C20.3671 47.4764 13.5465 50.7622 16.1072 51.4972H16.1088Z" fill="url(#paint2_linear_4069_5593)"/>
<path d="M20.6371 29.0457C16.2814 27.8708 11.8758 31.2355 11.3884 31.6233C11.3884 31.6233 9.4899 33.0711 10.8787 34.9826C11.3171 35.5858 12.2039 35.8127 12.9519 35.6349C13.1259 35.5935 13.2953 35.5199 13.4463 35.4363C13.8004 35.2417 14.2863 34.8232 14.4396 34.7189C15.5264 33.9809 17.8319 32.7438 19.5181 33.1983C19.6484 33.2336 19.781 33.2773 19.9151 33.3294C21.3422 32.5399 22.7256 32.008 24.4946 31.2109C23.3173 30.1494 21.9837 29.409 20.6371 29.0457Z" fill="url(#paint3_linear_4069_5593)"/>
<path d="M20.6371 29.0457C16.2814 27.8708 11.8758 31.2355 11.3884 31.6233C11.3884 31.6233 9.4899 33.0711 10.8787 34.9826C11.3171 35.5858 12.2039 35.8127 12.9519 35.6349C13.1259 35.5935 13.2953 35.5199 13.4463 35.4363C13.8004 35.2417 14.2863 34.8232 14.4396 34.7189C15.5264 33.9809 17.8319 32.7438 19.5181 33.1983C19.6484 33.2336 19.781 33.2773 19.9151 33.3294C21.3422 32.5399 22.7256 32.008 24.4946 31.2109C23.3173 30.1494 21.9837 29.409 20.6371 29.0457Z" fill="url(#paint4_linear_4069_5593)"/>
<path d="M30.7607 42.4877V42.4685C30.7607 41.3342 31.6238 40.8099 32.8554 40.8099C33.3789 40.8099 33.7575 40.8973 34.1254 41.023V40.9356C34.1254 40.3248 33.7476 39.9852 33.0103 39.9852C32.6033 39.9852 32.2729 40.0435 31.9917 40.1308C31.9043 40.16 31.846 40.1699 31.7786 40.1699C31.439 40.1699 31.1677 39.9078 31.1677 39.569C31.1677 39.3069 31.3325 39.0839 31.5655 38.9973C32.0307 38.8225 32.5351 38.726 33.2241 38.726C34.0289 38.726 34.6106 38.939 34.9793 39.3077C35.3671 39.6955 35.5418 40.268 35.5418 40.9663V43.3323C35.5418 43.7301 35.2222 44.0405 34.8244 44.0405C34.3975 44.0405 34.1162 43.74 34.1162 43.4296V43.4197C33.7575 43.8175 33.2632 44.0788 32.545 44.0788C31.5655 44.0788 30.7607 43.5162 30.7607 42.4884V42.4877ZM34.1454 42.1481V41.886C33.8932 41.7695 33.5636 41.6921 33.2049 41.6921C32.5749 41.6921 32.1863 41.9443 32.1863 42.4095V42.4287C32.1863 42.8264 32.5159 43.0587 32.9911 43.0587C33.6794 43.0587 34.1454 42.6808 34.1454 42.1474V42.1481Z" fill="#ED0677"/>
<path d="M36.8118 39.4617C36.8118 39.0547 37.1414 38.7244 37.5491 38.7244C37.9569 38.7244 38.2864 39.0539 38.2864 39.4617V39.5199C38.626 39.0838 39.0621 38.686 39.8086 38.686C40.9238 38.686 41.5737 39.4234 41.5737 40.6159V43.3023C41.5737 43.7093 41.2442 44.0397 40.8364 44.0397C40.4287 44.0397 40.0991 43.7101 40.0991 43.3023V41.0819C40.0991 40.3837 39.7695 40.025 39.2069 40.025C38.6444 40.025 38.2857 40.3837 38.2857 41.0819V43.3023C38.2857 43.7093 37.9561 44.0397 37.5484 44.0397C37.1406 44.0397 36.811 43.7101 36.811 43.3023V39.4624L36.8118 39.4617Z" fill="#ED0677"/>
<path d="M43.0968 42.5068V40.0434H43.0485C42.6997 40.0434 42.4185 39.7621 42.4185 39.4134C42.4185 39.0647 42.6997 38.7834 43.0485 38.7834H43.0968V38.1334C43.0968 37.7265 43.4263 37.3961 43.8341 37.3961C44.2418 37.3961 44.5714 37.7257 44.5714 38.1334V38.7834H45.2213C45.5701 38.7834 45.8514 39.0647 45.8514 39.4134C45.8514 39.7621 45.5701 40.0434 45.2213 40.0434H44.5714V42.2638C44.5714 42.6033 44.717 42.7681 45.0466 42.7681C45.0949 42.7681 45.1922 42.7582 45.2213 42.7582C45.5509 42.7582 45.8322 43.0295 45.8322 43.369C45.8322 43.6312 45.6575 43.8442 45.4536 43.9216C45.1823 44.0282 44.9301 44.0673 44.6097 44.0673C43.7076 44.0673 43.0968 43.7086 43.0968 42.506V42.5068Z" fill="#ED0677"/>
<path d="M49.196 44.0971C47.6347 44.0971 46.4805 43.0011 46.4805 41.4107V41.3916C46.4805 39.9077 47.5374 38.686 49.0504 38.686C50.7864 38.686 51.552 40.1116 51.552 41.1877C51.552 41.6146 51.2516 41.8959 50.8638 41.8959H47.9451C48.0908 42.565 48.556 42.9145 49.2151 42.9145C49.6221 42.9145 49.9617 42.7888 50.2629 42.5658C50.3694 42.4884 50.4667 42.4493 50.6216 42.4493C50.9511 42.4493 51.1933 42.7014 51.1933 43.031C51.1933 43.2249 51.106 43.3706 50.9994 43.4671C50.5434 43.8549 49.9525 44.0971 49.196 44.0971ZM50.1464 40.9746C50.059 40.3155 49.6712 39.8694 49.0504 39.8694C48.4295 39.8694 48.0417 40.3055 47.9252 40.9746H50.1456H50.1464Z" fill="#ED0677"/>
<path d="M52.6782 39.4617C52.6782 39.0547 53.0078 38.7244 53.4155 38.7244C53.8233 38.7244 54.1529 39.0539 54.1529 39.4617V39.6947C54.3659 39.1904 54.7154 38.7251 55.1515 38.7251C55.5877 38.7251 55.8689 39.0256 55.8689 39.4425C55.8689 39.8303 55.6168 40.0633 55.3163 40.1308C54.5698 40.3055 54.1529 40.8773 54.1529 41.925V43.3023C54.1529 43.7093 53.8233 44.0397 53.4155 44.0397C53.0078 44.0397 52.6782 43.7101 52.6782 43.3023V39.4625V39.4617Z" fill="#ED0677"/>
<path d="M56.1785 42.4877V42.4685C56.1785 41.3342 57.0415 40.8099 58.2732 40.8099C58.7967 40.8099 59.1753 40.8973 59.5432 41.023V40.9356C59.5432 40.3248 59.1646 39.9852 58.428 39.9852C58.021 39.9852 57.6907 40.0435 57.4094 40.1308C57.322 40.16 57.2638 40.1699 57.1963 40.1699C56.8568 40.1699 56.5855 39.9078 56.5855 39.569C56.5855 39.3069 56.7503 39.0839 56.9833 38.9973C57.4485 38.8225 57.9528 38.726 58.6411 38.726C59.4459 38.726 60.0276 38.939 60.3963 39.3077C60.7841 39.6955 60.9588 40.268 60.9588 40.9663V43.3323C60.9588 43.7301 60.6384 44.0405 60.2414 44.0405C59.8145 44.0405 59.5332 43.74 59.5332 43.4296V43.4197C59.1745 43.8175 58.6802 44.0788 57.962 44.0788C56.9825 44.0788 56.1777 43.5162 56.1777 42.4884L56.1785 42.4877ZM59.5631 42.1481V41.886C59.311 41.7695 58.9814 41.6921 58.6227 41.6921C57.9927 41.6921 57.6041 41.9443 57.6041 42.4095V42.4287C57.6041 42.8264 57.9337 43.0587 58.4089 43.0587C59.0971 43.0587 59.5631 42.6808 59.5631 42.1474V42.1481Z" fill="#FFCB08"/>
<path d="M62.1823 45.5619C61.7071 45.5619 61.3584 45.368 61.3584 44.961C61.3584 44.6023 61.6205 44.3693 61.9302 44.3693H61.9394C62.1532 44.3693 62.2981 44.2336 62.2981 43.8841V39.4617C62.2981 39.0547 62.6276 38.7244 63.0354 38.7244C63.4431 38.7244 63.7727 39.054 63.7727 39.4617V43.8933C63.7727 45.0376 63.1718 45.5611 62.2015 45.5611H62.1823V45.5619ZM62.2115 37.5418C62.2115 37.1149 62.5701 36.8535 63.0361 36.8535C63.5021 36.8535 63.8601 37.1156 63.8601 37.5418V37.5609C63.8601 37.9879 63.5014 38.2592 63.0361 38.2592C62.5709 38.2592 62.2115 37.9879 62.2115 37.5609V37.5418Z" fill="#FFCB08"/>
<path d="M64.8484 42.4877V42.4685C64.8484 41.3342 65.7114 40.8099 66.9431 40.8099C67.4666 40.8099 67.8452 40.8973 68.2131 41.023V40.9356C68.2131 40.3248 67.8345 39.9852 67.0979 39.9852C66.691 39.9852 66.3606 40.0435 66.0793 40.1308C65.992 40.16 65.9337 40.1699 65.8663 40.1699C65.5267 40.1699 65.2554 39.9078 65.2554 39.569C65.2554 39.3069 65.4202 39.0839 65.6532 38.9973C66.1184 38.8225 66.6227 38.726 67.311 38.726C68.1158 38.726 68.6975 38.939 69.0662 39.3077C69.454 39.6955 69.6287 40.268 69.6287 40.9663V43.3323C69.6287 43.7301 69.3084 44.0405 68.9113 44.0405C68.4844 44.0405 68.2032 43.74 68.2032 43.4296V43.4197C67.8445 43.8175 67.3501 44.0788 66.6319 44.0788C65.6524 44.0788 64.8477 43.5162 64.8477 42.4884L64.8484 42.4877ZM68.233 42.1481V41.886C67.9809 41.7695 67.6513 41.6921 67.2926 41.6921C66.6626 41.6921 66.274 41.9443 66.274 42.4095V42.4287C66.274 42.8264 66.6036 43.0587 67.0788 43.0587C67.767 43.0587 68.233 42.6808 68.233 42.1474V42.1481Z" fill="#FFCB08"/>
<defs>
<linearGradient id="paint0_linear_4069_5593" x1="15.0556" y1="50.3943" x2="25.7276" y2="31.8371" gradientUnits="userSpaceOnUse">
<stop stop-color="#FFCB08"/>
<stop offset="1" stop-color="#ED0677"/>
</linearGradient>
<linearGradient id="paint1_linear_4069_5593" x1="15.4112" y1="50.599" x2="26.084" y2="32.0418" gradientUnits="userSpaceOnUse">
<stop stop-color="#FFCB08"/>
<stop offset="1" stop-color="#ED0677"/>
</linearGradient>
<linearGradient id="paint2_linear_4069_5593" x1="18.6342" y1="37.4881" x2="21.2033" y2="42.6248" gradientUnits="userSpaceOnUse">
<stop stop-opacity="0.3"/>
<stop offset="1" stop-color="#000600" stop-opacity="0"/>
</linearGradient>
<linearGradient id="paint3_linear_4069_5593" x1="8.9373" y1="46.8755" x2="19.6101" y2="28.3184" gradientUnits="userSpaceOnUse">
<stop stop-color="#FFCB08"/>
<stop offset="1" stop-color="#ED0677"/>
</linearGradient>
<linearGradient id="paint4_linear_4069_5593" x1="22.8199" y1="35.4156" x2="17.4042" y2="32.8274" gradientUnits="userSpaceOnUse">
<stop stop-opacity="0.3"/>
<stop offset="1" stop-color="#000600" stop-opacity="0"/>
</linearGradient>
</defs>
</svg>
