<svg width="80" height="80" viewBox="0 0 80 80" fill="none" xmlns="http://www.w3.org/2000/svg">
<path d="M11.995 41.7158C12.1065 41.1427 12.1759 40.7407 12.2038 40.5092C12.2316 40.2784 12.2816 39.9283 12.3529 39.4583C13.4356 39.2035 14.3912 39.0246 15.2198 38.9208C16.0477 38.8178 16.8484 38.7652 17.6212 38.7652C18.4971 38.7652 19.3017 38.867 20.0343 39.07C20.7669 39.2729 21.34 39.5977 21.7543 40.0437C22.1686 40.4898 22.3754 41.131 22.3754 41.9673C22.3754 42.4212 22.3119 43.5778 22.1854 45.4378C22.059 47.2973 21.9838 49.2189 21.9598 51.2015C21.3543 51.1859 20.7961 51.1775 20.2858 51.1775C19.7756 51.1775 19.2297 51.1853 18.5762 51.2015C18.6812 50.2381 18.7655 49.1229 18.8297 47.8568L18.9866 44.8822C18.6838 45.0813 18.4524 45.2207 18.2929 45.3004C18.1334 45.3801 17.9538 45.4541 17.7548 45.5215C17.5551 45.5896 17.205 45.6926 16.7025 45.832C16.2007 45.9714 15.7981 46.0933 15.4953 46.1964C15.1926 46.3001 14.9196 46.4175 14.6765 46.5491C14.4334 46.6807 14.2278 46.8279 14.0606 46.9912C13.8933 47.1546 13.7714 47.3258 13.6962 47.5047C13.6204 47.6837 13.5828 47.8769 13.5828 48.0843C13.5828 48.4189 13.68 48.7074 13.8751 48.9505C14.0703 49.1936 14.3154 49.3628 14.6097 49.4581C14.904 49.5534 15.2509 49.6014 15.649 49.6014C15.9038 49.6014 16.1728 49.5813 16.4555 49.5418C16.7382 49.5022 17.1187 49.4024 17.5966 49.2429C17.4293 49.6967 17.2341 50.3736 17.0111 51.2735C16.4458 51.3688 15.9958 51.4291 15.6613 51.4524C15.3268 51.4764 15.0162 51.4881 14.7296 51.4881C13.726 51.4881 12.902 51.3526 12.2569 51.0822C11.6118 50.8118 11.136 50.3814 10.8293 49.792C10.5226 49.2027 10.3696 48.6095 10.3696 48.0124C10.3696 47.67 10.4293 47.3316 10.5486 46.9971C10.6679 46.6625 10.8436 46.3559 11.0744 46.0771C11.3052 45.7983 11.604 45.5299 11.971 45.2706C12.3373 45.0119 12.8676 44.761 13.5607 44.5179C14.2538 44.2747 15.1705 44.0303 16.3096 43.7833C16.6124 43.7198 16.9275 43.642 17.2542 43.5506C17.581 43.4591 17.8423 43.3697 18.0374 43.2815C18.2326 43.194 18.4018 43.0805 18.5451 42.9411C18.6883 42.8017 18.794 42.6565 18.8621 42.5055C18.9295 42.3544 18.9639 42.1988 18.9639 42.0393C18.9639 41.7288 18.8621 41.4662 18.6592 41.2509C18.4556 41.0357 18.193 40.8866 17.8702 40.8029C17.5473 40.7193 17.1907 40.6778 16.7998 40.6778C15.3494 40.6778 13.7474 41.024 11.9943 41.7171L11.995 41.7158Z" fill="#231F20"/>
<path d="M23.3985 50.9739L23.1359 48.3456C23.9165 48.6639 24.5771 48.885 25.1191 49.0088C25.6605 49.1327 26.1584 49.1943 26.6122 49.1943C27.0661 49.1943 27.4486 49.1405 27.7591 49.0328C28.0697 48.9252 28.3005 48.7664 28.4522 48.555C28.6032 48.3443 28.6791 48.1232 28.6791 47.8918C28.6791 47.7887 28.6687 47.6927 28.6493 47.6052C28.6292 47.5177 28.5935 47.4263 28.5417 47.3303C28.4898 47.235 28.4301 47.1449 28.3627 47.0619C28.2953 46.9783 28.2013 46.883 28.082 46.7753C27.9627 46.6677 27.7909 46.5303 27.5685 46.363L26.9234 45.8495C26.3023 45.3639 25.8284 44.9814 25.5016 44.7026C25.1749 44.4239 24.9 44.1392 24.6776 43.8488C24.4546 43.5583 24.2854 43.2517 24.17 42.9288C24.0546 42.6066 23.9969 42.2779 23.9969 41.9433C23.9969 41.3624 24.1739 40.8088 24.5285 40.283C24.8825 39.7572 25.3986 39.3734 26.0754 39.1302C26.7523 38.8878 27.5484 38.7659 28.4645 38.7659C29.5077 38.7659 30.7103 38.8897 32.0725 39.1361L32.2274 41.6328C31.3035 41.2587 30.4153 41.0713 29.5634 41.0713C29.1018 41.0713 28.6973 41.1174 28.351 41.2088C28.0048 41.3002 27.7559 41.4396 27.6042 41.627C27.4531 41.8143 27.3773 42.0231 27.3773 42.2539C27.3773 42.3894 27.4012 42.523 27.4492 42.6539C27.4972 42.7855 27.5808 42.923 27.7001 43.0663C27.8194 43.2095 27.9569 43.345 28.1125 43.4721C28.2681 43.5998 28.5922 43.8507 29.0863 44.2248C29.5796 44.5996 30.0121 44.938 30.3823 45.2401C30.7525 45.5429 31.0572 45.8476 31.2964 46.1536C31.535 46.4603 31.7185 46.789 31.8462 47.1391C31.9733 47.4898 32.0374 47.8438 32.0374 48.2023C32.0374 48.7994 31.854 49.3531 31.4877 49.8627C31.1214 50.3723 30.5677 50.7704 29.8273 51.0569C29.0869 51.3435 28.2583 51.4868 27.3422 51.4868C26.8644 51.4868 26.2829 51.4485 25.5982 51.3733C24.913 51.2974 24.1803 51.1645 23.4004 50.9733L23.3985 50.9739Z" fill="#231F20"/>
<path d="M32.9023 50.9739L32.6397 48.3456C33.4203 48.6639 34.081 48.885 34.623 49.0088C35.1643 49.1327 35.6623 49.1943 36.1161 49.1943C36.5699 49.1943 36.9524 49.1405 37.263 49.0328C37.5735 48.9252 37.8043 48.7664 37.956 48.555C38.1071 48.3443 38.183 48.1232 38.183 47.8918C38.183 47.7887 38.1726 47.6927 38.1531 47.6052C38.133 47.5177 38.0974 47.4263 38.0455 47.3303C37.9937 47.235 37.934 47.1449 37.8666 47.0619C37.7985 46.9783 37.7051 46.883 37.5859 46.7753C37.4666 46.6677 37.2948 46.5303 37.0724 46.363L36.4273 45.8495C35.8062 45.3639 35.3323 44.9814 35.0055 44.7026C34.6787 44.4239 34.4039 44.1392 34.1815 43.8488C33.9585 43.5583 33.7892 43.2517 33.6738 42.9288C33.5584 42.6066 33.5007 42.2779 33.5007 41.9433C33.5007 41.3624 33.6777 40.8088 34.0324 40.283C34.3863 39.7572 34.9024 39.3734 35.5793 39.1302C36.2561 38.8878 37.0523 38.7659 37.9684 38.7659C39.0115 38.7659 40.2142 38.8897 41.5757 39.1361L41.7313 41.6328C40.8074 41.2587 39.9192 41.0713 39.0673 41.0713C38.6057 41.0713 38.2011 41.1174 37.8549 41.2088C37.5087 41.3002 37.2597 41.4396 37.108 41.627C36.957 41.8143 36.8811 42.0231 36.8811 42.2539C36.8811 42.3894 36.9051 42.523 36.9531 42.6539C37.0011 42.7855 37.0847 42.923 37.204 43.0663C37.3233 43.2095 37.4607 43.345 37.6163 43.4721C37.7719 43.5998 38.0961 43.8507 38.5901 44.2248C39.0841 44.5996 39.5159 44.938 39.8861 45.2401C40.2563 45.5429 40.561 45.8476 40.7996 46.1536C41.0389 46.4603 41.2217 46.789 41.3494 47.1391C41.4765 47.4898 41.5407 47.8438 41.5407 48.2023C41.5407 48.7994 41.3572 49.3531 40.9909 49.8627C40.6246 50.3723 40.0709 50.7704 39.3305 51.0569C38.5901 51.3435 37.7615 51.4868 36.8455 51.4868C36.3676 51.4868 35.7861 51.4485 35.1015 51.3733C34.4162 51.2974 33.6836 51.1645 32.9036 50.9733L32.9023 50.9739Z" fill="#231F20"/>
<path d="M43.6484 41.7158C43.7599 41.1427 43.8293 40.7407 43.8571 40.5092C43.885 40.2784 43.9349 39.9283 44.0063 39.4583C45.089 39.2035 46.0446 39.0246 46.8732 38.9208C47.7011 38.8178 48.5018 38.7652 49.2739 38.7652C50.1498 38.7652 50.9544 38.867 51.687 39.07C52.4196 39.2729 52.9928 39.5977 53.407 40.0437C53.8213 40.4898 54.0281 41.131 54.0281 41.9673C54.0281 42.4212 53.9646 43.5778 53.8382 45.4378C53.7118 47.2973 53.6365 49.2189 53.6126 51.2015C53.007 51.1859 52.4488 51.1775 51.9386 51.1775C51.4283 51.1775 50.8824 51.1853 50.2289 51.2015C50.3333 50.2381 50.4182 49.1229 50.4824 47.8568L50.6393 44.8822C50.3365 45.0813 50.1051 45.2207 49.9456 45.3004C49.7861 45.3801 49.6065 45.4541 49.4075 45.5215C49.2085 45.5896 48.8577 45.6926 48.3553 45.832C47.8534 45.9714 47.4508 46.0933 47.1481 46.1964C46.8453 46.3001 46.5723 46.4175 46.3292 46.5491C46.0861 46.6807 45.8806 46.8279 45.7133 46.9912C45.546 47.1546 45.4242 47.3258 45.3483 47.5047C45.2724 47.6837 45.2348 47.8769 45.2348 48.0843C45.2348 48.4189 45.3321 48.7074 45.5272 48.9505C45.7224 49.1936 45.9675 49.3628 46.2618 49.4581C46.5561 49.5534 46.903 49.6014 47.3011 49.6014C47.5559 49.6014 47.8249 49.5813 48.1076 49.5418C48.3903 49.5022 48.7708 49.4024 49.2487 49.2429C49.0814 49.6967 48.8862 50.3736 48.6632 51.2735C48.0979 51.3688 47.6479 51.4291 47.3134 51.4524C46.9789 51.4764 46.6683 51.4881 46.3817 51.4881C45.3781 51.4881 44.5541 51.3526 43.909 51.0822C43.2639 50.8118 42.7881 50.3814 42.4814 49.792C42.1747 49.2027 42.0217 48.6095 42.0217 48.0124C42.0217 47.67 42.0814 47.3316 42.2007 46.9971C42.32 46.6625 42.4957 46.3559 42.7265 46.0771C42.9573 45.7983 43.2561 45.5299 43.6231 45.2706C43.9894 45.0119 44.5197 44.761 45.2128 44.5179C45.9059 44.2747 46.8226 44.0303 47.9617 43.7833C48.2645 43.7198 48.5796 43.642 48.9057 43.5506C49.2324 43.4591 49.4937 43.3697 49.6889 43.2815C49.884 43.194 50.0532 43.0805 50.1965 42.9411C50.3398 42.8017 50.4455 42.6565 50.5135 42.5055C50.581 42.3544 50.6153 42.1988 50.6153 42.0393C50.6153 41.7288 50.5135 41.4662 50.3106 41.2509C50.107 41.0357 49.8445 40.8866 49.5216 40.8029C49.1987 40.7193 48.8421 40.6778 48.4519 40.6778C47.0015 40.6778 45.3995 41.024 43.6464 41.7171L43.6484 41.7158Z" fill="#231F20"/>
<path d="M25.6119 32.0952C25.6119 32.0952 28.3199 35.9113 32.5055 36.0345C36.6912 36.1577 41.068 32.9082 44.3512 31.8138C47.6343 30.7195 50.4247 30.501 52.832 32.197C52.832 32.197 50.3152 28.1482 45.5551 28.1482C42.4911 28.1482 36.1991 31.327 34.4479 32.0933C32.6968 32.8596 29.1407 34.0026 25.6119 32.0952Z" fill="#231F20"/>
<path d="M42.4094 32.752C42.4094 32.752 45.1175 36.568 49.3031 36.6912C53.4887 36.8144 57.8656 33.565 61.1487 32.4706C64.4319 31.3762 67.2223 31.1577 69.6295 32.8538C69.6295 32.8538 67.1127 28.805 62.3527 28.805C59.2887 28.805 52.9966 31.9837 51.2455 32.75C49.4944 33.5164 45.9383 34.66 42.4094 32.752Z" fill="#E5BF00"/>
</svg>
