<svg width="80" height="80" viewBox="0 0 80 80" fill="none" xmlns="http://www.w3.org/2000/svg">
<path fill-rule="evenodd" clip-rule="evenodd" d="M51.2866 13.1955C57.099 16.68 60.9872 23.0366 60.9872 30.3084C60.9872 41.3207 52.0614 50.2429 41.0527 50.2429C37.2727 50.2429 33.7413 49.1907 30.7288 47.3637L41.7194 47.4718L42.0977 45.7025C42.2707 44.8953 42.4437 44.0917 42.6166 43.2845L43.1968 40.5783L35.7016 40.6468C34.5268 40.6576 33.3629 40.3765 32.617 39.4108C31.4314 37.8829 31.6909 35.4254 32.3467 33.7065C32.6314 33.2308 33.0134 32.6146 33.4098 32.2867C34.1305 31.6958 35.8061 31.6705 36.6745 31.6597C38.8258 31.6381 40.9735 31.6597 43.1247 31.6597H44.9085L45.2904 29.9192C46.5517 24.1897 48.6273 18.4458 51.2866 13.1955Z" fill="#FF0000"/>
<path fill-rule="evenodd" clip-rule="evenodd" d="M41.0528 10.3704C44.004 10.3704 46.8039 11.0118 49.3228 12.1613C46.6778 17.3863 44.4545 23.3933 43.1248 29.4436H36.6529C32.5702 29.5085 31.7414 30.4093 30.354 32.7228C28.4694 37.3712 29.9144 42.9134 35.7268 42.863L40.451 42.8197C40.278 43.6269 40.1051 44.4305 39.9321 45.2377L27.7091 45.1187C23.6624 41.4684 21.1183 36.1857 21.1183 30.3084C21.1147 19.2962 30.0405 10.3704 41.0528 10.3704Z" fill="#131085"/>
<path fill-rule="evenodd" clip-rule="evenodd" d="M19.2588 53.0933H21.3848C22.7578 53.0933 23.6839 53.1401 24.1703 53.241C24.6532 53.3383 25.0244 53.5004 25.273 53.7275C25.5252 53.9509 25.6838 54.2031 25.7451 54.477C25.8063 54.7545 25.8387 55.295 25.8387 56.1058V59.1003C25.8387 59.8678 25.7919 60.3795 25.7018 60.6389C25.6081 60.8984 25.4496 61.1002 25.2189 61.2479C24.9883 61.3921 24.7037 61.493 24.3649 61.5542C24.0298 61.6119 23.5181 61.6407 22.8406 61.6407H19.2588V53.0933ZM22.1091 54.5527V60.1813C22.5127 60.1813 22.7614 60.1164 22.8551 59.9903C22.9488 59.8606 22.9956 59.5111 22.9956 58.9417V55.6157C22.9956 55.2301 22.9776 54.9815 22.9488 54.8698C22.9163 54.7617 22.8479 54.6824 22.7361 54.6319C22.6244 54.5815 22.419 54.5563 22.1127 54.5563L22.1091 54.5527ZM31.8097 53.0933L33.4385 61.6407H30.5305L30.3755 60.1056H29.3485L29.1936 61.6407H26.2495L27.6909 53.0933H31.8097ZM30.2999 58.5922C30.1629 57.6228 30.0224 56.4229 29.8674 54.9923C29.5864 56.6355 29.4098 57.8354 29.3341 58.5922H30.2999ZM40.7103 53.0933L39.0851 56.9526L40.8617 61.6407H37.9284L36.7753 57.976V61.6407H33.925V53.0933H36.7753V56.4157L38.0546 53.0933H40.7103ZM47.5822 58.1021C47.5822 58.9597 47.5569 59.5687 47.5029 59.9255C47.4524 60.2822 47.2903 60.6101 47.02 60.9056C46.7498 61.2011 46.3786 61.4281 45.9174 61.5867C45.4525 61.7452 44.9156 61.8245 44.2994 61.8245C43.6832 61.8245 43.1895 61.7488 42.7247 61.6011C42.2598 61.4533 41.8851 61.2299 41.604 60.9308C41.3193 60.6317 41.1535 60.3074 41.0959 59.9543C41.0418 59.6011 41.0166 58.9849 41.0166 58.1057V56.6427C41.0166 55.7851 41.0418 55.1761 41.0959 54.8193C41.1463 54.4626 41.3085 54.1347 41.5788 53.8392C41.8526 53.5437 42.2202 53.3167 42.6814 53.1581C43.1463 52.9996 43.6832 52.9203 44.2994 52.9203C44.9156 52.9203 45.4093 52.996 45.8741 53.1437C46.339 53.2914 46.7137 53.5149 46.9948 53.8139C47.2795 54.113 47.4452 54.4373 47.5029 54.7905C47.5569 55.1436 47.5822 55.7598 47.5822 56.6391V58.1021ZM44.7318 55.295C44.7318 54.8986 44.703 54.6464 44.6489 54.5346C44.5949 54.4265 44.4796 54.3689 44.3102 54.3689C44.1661 54.3689 44.0543 54.4121 43.9751 54.5022C43.8994 54.5887 43.8598 54.8554 43.8598 55.295V59.284C43.8598 59.7777 43.885 60.084 43.9354 60.1993C43.9859 60.3146 44.1048 60.3723 44.2886 60.3723C44.4724 60.3723 44.5985 60.3038 44.6525 60.1741C44.7066 60.0408 44.7318 59.7237 44.7318 59.2192V55.2914V55.295ZM54.3747 53.0933V54.8013H52.7027V61.6407H49.8524V54.8013H48.1659V53.0933H54.3747ZM55.2612 53.0933L53.8198 61.6407H56.7638L56.9188 60.1056H57.9458L58.1007 61.6407H61.0087L59.38 53.0933H55.2612ZM57.8665 58.5922H56.9008C56.9764 57.8354 57.153 56.6355 57.4341 54.9923C57.5854 56.4229 57.7296 57.6228 57.8665 58.5922Z" fill="#131085"/>
<path fill-rule="evenodd" clip-rule="evenodd" d="M45.3732 65.1829V65.5325C44.7678 66.2063 44.2165 66.7577 43.712 67.1937C43.2075 67.6333 42.7139 67.9684 42.231 68.2027C41.7481 68.4369 41.2833 68.5558 40.8328 68.5558C40.4437 68.5558 40.1121 68.4801 39.8311 68.3252C39.5536 68.1702 39.3446 67.9432 39.2005 67.6477C39.0599 67.3522 38.9879 66.9991 38.9879 66.5919C38.9879 66.2712 39.0383 65.9325 39.1392 65.5757C39.2437 65.2154 39.3914 64.855 39.586 64.4911C39.7806 64.1235 40.0184 63.7487 40.2995 63.3596C40.5842 62.9704 40.9157 62.5632 41.2941 62.1344C41.6905 61.6912 42.0796 61.3128 42.4652 60.9885C42.8508 60.6678 43.1967 60.4155 43.5102 60.2281C43.8237 60.0444 44.1156 59.9074 44.3823 59.8173C44.6525 59.7273 44.8723 59.684 45.0489 59.684C45.2255 59.684 45.384 59.7273 45.5065 59.8137C45.6327 59.9002 45.73 60.0263 45.7984 60.1921C45.8669 60.3543 45.9029 60.5489 45.9029 60.7615C45.9029 61.1687 45.766 61.6227 45.4885 62.12C45.2111 62.6173 44.8687 63.1001 44.4543 63.565C44.0435 64.0298 43.6472 64.4082 43.2688 64.7001C42.894 64.9919 42.6238 65.1397 42.458 65.1397C42.3463 65.1397 42.2418 65.0964 42.1481 65.0064C42.0544 64.9163 42.0076 64.819 42.0076 64.7073C42.0076 64.5019 42.1157 64.2532 42.3319 63.965C42.5481 63.6731 42.7859 63.4064 43.0418 63.1614C43.3012 62.9199 43.4526 62.7974 43.503 62.7974C43.5282 62.7974 43.5427 62.8082 43.5427 62.8299C43.5427 62.8623 43.5246 62.9199 43.485 62.9956C43.449 63.0749 43.4273 63.1253 43.4273 63.1434C43.4273 63.1722 43.4382 63.1866 43.4598 63.1866C43.521 63.1866 43.6976 63.0244 43.9895 62.6965C44.2814 62.3686 44.548 62.0083 44.7895 61.6155C45.0309 61.2227 45.1534 60.8984 45.1534 60.6497C45.1534 60.5452 45.1318 60.466 45.0849 60.4083C45.0417 60.3543 44.9732 60.3254 44.8832 60.3254C44.6309 60.3254 44.2489 60.5308 43.7372 60.938C43.2255 61.3452 42.6994 61.8677 42.1625 62.4983C41.6256 63.1289 41.1788 63.7812 40.8184 64.4514C40.4581 65.1253 40.2779 65.7162 40.2779 66.2279C40.2779 66.5234 40.3211 66.7685 40.4112 66.9667C40.5013 67.1648 40.6274 67.3198 40.7968 67.4243C40.9698 67.5324 41.1752 67.5864 41.4166 67.5864C41.9391 67.5864 42.5301 67.3847 43.1895 66.9775C43.849 66.5739 44.5769 65.9757 45.3696 65.1829H45.3732ZM45.957 64.2352C45.7516 64.4298 45.6038 64.5848 45.5102 64.7037C45.4165 64.8226 45.3552 64.9379 45.3192 65.0532C45.2867 65.1649 45.2723 65.3091 45.2723 65.4784C45.2723 65.709 45.3192 65.9361 45.4093 66.1559C45.5029 66.3721 45.6075 66.5486 45.7228 66.6892C45.8417 66.8261 45.939 66.8946 46.0182 66.8946C46.184 66.8946 46.393 66.7721 46.6489 66.527C46.9047 66.282 47.2939 65.8676 47.82 65.2838C47.6146 65.8243 47.5101 66.2351 47.5101 66.5162C47.5101 66.6964 47.5389 66.8297 47.6002 66.9234C47.6614 67.0171 47.7587 67.0603 47.9029 67.0603C48.2956 67.0603 48.9479 66.5559 49.856 65.5469V65.219C49.319 65.691 48.9263 65.9252 48.674 65.9252C48.4218 65.9252 48.3065 65.7919 48.3065 65.5253C48.3065 65.3631 48.3425 65.2262 48.411 65.1145C48.4794 65.0028 48.6055 64.8298 48.7785 64.592C48.9551 64.3577 49.0416 64.1956 49.0416 64.1091C49.0416 64.0659 49.0308 64.0154 49.0091 63.9614C48.9875 63.9073 48.9587 63.8316 48.9154 63.7451C48.8758 63.6551 48.8434 63.583 48.8182 63.5217C48.9443 63.4785 49.0344 63.4424 49.0848 63.41C49.1353 63.3812 49.1605 63.3343 49.1605 63.2695C49.1605 63.2298 49.1425 63.1686 49.1028 63.0857C49.0668 63.0028 49.0127 62.9308 48.9515 62.8659C48.8866 62.8046 48.8145 62.7722 48.7389 62.7722C48.4578 62.7722 48.0614 62.8911 47.5461 63.1325C47.0308 63.374 46.5011 63.7415 45.9534 64.2388L45.957 64.2352ZM48.5407 63.6406C48.1011 64.2568 47.7263 64.7433 47.4128 65.1001C47.0993 65.4604 46.7534 65.7487 46.375 65.9721C46.2741 66.0225 46.2056 66.0478 46.166 66.0478C46.0975 66.0478 46.0435 66.0117 46.0038 65.9361C45.9642 65.864 45.9462 65.7667 45.9462 65.6514C45.9462 65.3343 46.1444 65.028 46.5444 64.7253C46.9407 64.4262 47.6074 64.0659 48.5443 63.637L48.5407 63.6406ZM49.7515 65.619V65.2658C49.946 65.0352 50.0938 64.8406 50.1947 64.6784C50.0794 64.6388 49.9965 64.592 49.946 64.5307C49.892 64.473 49.8668 64.3866 49.8668 64.2713C49.8668 64.1415 49.9208 63.9758 50.0289 63.7812C50.137 63.583 50.2704 63.3956 50.4289 63.2226C50.5875 63.0497 50.7316 62.938 50.8613 62.8875C50.9118 62.8623 50.9622 62.8515 51.0091 62.8515C51.0811 62.8515 51.1172 62.8839 51.1172 62.956C51.1172 63.0172 51.0595 63.1398 50.9478 63.3271C51.6901 63.2118 52.1586 63.1542 52.3532 63.1542C52.4288 63.1542 52.4793 63.1614 52.5081 63.1758C52.5694 63.2082 52.6198 63.2839 52.6595 63.4028C52.6991 63.5217 52.7171 63.6406 52.7171 63.7596C52.7171 63.8352 52.6847 63.9145 52.6162 64.0046C52.5514 64.0947 52.436 64.2208 52.2739 64.3902C52.0829 64.5956 51.9244 64.819 51.7946 65.0604C51.6649 65.3018 51.6 65.4856 51.6 65.6045C51.6 65.7739 51.7045 65.8568 51.9135 65.8568C52.1334 65.8568 52.5153 65.6334 53.0558 65.1865V65.5505C52.7568 65.8604 52.5081 66.109 52.3171 66.2856C52.1225 66.4658 51.9424 66.6063 51.7766 66.7144C51.6108 66.8189 51.4631 66.873 51.3334 66.873C51.182 66.873 51.0559 66.8045 50.955 66.664C50.8541 66.527 50.8037 66.3252 50.8037 66.0622C50.8037 65.9072 50.8433 65.7307 50.9226 65.5325C51.0019 65.3343 51.1172 65.1217 51.2721 64.8874C51.4235 64.6568 51.5964 64.4226 51.7874 64.192C51.6865 64.2136 51.5748 64.2352 51.4451 64.2604C51.319 64.2857 51.1856 64.3073 51.0451 64.3325C50.9046 64.3577 50.7965 64.3757 50.7208 64.3902C50.4974 64.837 50.1731 65.2442 49.7515 65.6045V65.619ZM57.3224 65.5613V65.2118L56.0143 66.1631C56.3566 65.446 56.5945 64.9307 56.7278 64.6172C56.8575 64.3037 56.926 64.0622 56.926 63.8965C56.926 63.81 56.9044 63.7451 56.8575 63.6983C56.8143 63.6515 56.753 63.6298 56.6809 63.6298C56.5548 63.6298 56.4143 63.7055 56.2593 63.8641C56.1044 64.019 55.9062 64.2496 55.6648 64.5451C55.4269 64.8406 55.2323 65.0568 55.0918 65.1901C54.7747 65.482 54.5369 65.6838 54.3747 65.7991C54.2126 65.9144 54.0684 65.9721 53.9423 65.9721C53.8666 65.9721 53.8054 65.9433 53.7585 65.8856C53.7117 65.828 53.6901 65.7523 53.6901 65.655C53.6901 65.4568 53.7837 65.2334 53.9675 64.9919C54.1513 64.7469 54.3963 64.5127 54.6954 64.2929C54.9945 64.0731 55.2972 63.9001 55.6035 63.7668C56.1044 63.5433 56.353 63.3127 56.353 63.0821C56.353 62.9127 56.2377 62.8299 56.0071 62.8299C55.6972 62.8299 55.2648 63.0028 54.7062 63.3524C54.4108 63.5325 54.1549 63.7163 53.9351 63.9073C53.7153 64.0947 53.5351 64.2785 53.3946 64.4586C53.254 64.6388 53.1495 64.8082 53.0811 64.9667C53.0162 65.1253 52.9802 65.2766 52.9802 65.4208C52.9802 65.7307 53.0558 66.0333 53.2108 66.3252C53.3657 66.6171 53.5315 66.7649 53.7189 66.7649C53.8882 66.7649 54.0792 66.7036 54.2882 66.5775C54.4972 66.4514 54.7279 66.2748 54.9801 66.0442C55.2323 65.8135 55.5278 65.5181 55.863 65.1577C55.7044 65.5469 55.4486 66.1054 55.0882 66.8405C55.0161 66.9018 54.8828 67.0135 54.6846 67.1757C54.4864 67.3378 54.3279 67.4747 54.209 67.5829C54.09 67.6946 53.9603 67.8243 53.827 67.9756C53.6937 68.127 53.5747 68.2819 53.4702 68.4405C53.2072 68.8405 53.0775 69.172 53.0775 69.4314C53.0775 69.5648 53.1315 69.6296 53.2396 69.6296C53.4414 69.6296 53.7477 69.4134 54.1585 68.9846C54.5729 68.5558 55.0306 67.9072 55.535 67.0351L57.3296 65.5613H57.3224ZM60.7493 65.5505C60.5114 65.7667 60.3205 65.9108 60.1799 65.9829C60.0358 66.055 59.8304 66.0838 59.5601 66.0658C59.0953 66.6207 58.6809 66.8982 58.3277 66.8982C58.1259 66.8982 57.9422 66.8333 57.7764 66.7C57.6106 66.5667 57.4773 66.3865 57.38 66.1559C57.2791 65.9252 57.2323 65.6694 57.2323 65.3847C57.2323 65.1541 57.308 64.8983 57.4593 64.6172C57.6106 64.3361 57.8124 64.0767 58.0539 63.8316C58.2953 63.5902 58.5548 63.392 58.8322 63.2443C59.1097 63.0965 59.3655 63.0208 59.6034 63.0208C59.7727 63.0208 59.9061 63.0461 60.0034 63.0965C60.1007 63.1506 60.1475 63.2226 60.1475 63.3163C60.1475 63.3884 60.1079 63.4713 60.025 63.565C60.1619 63.5938 60.2556 63.6406 60.3061 63.7055C60.3565 63.7704 60.3817 63.8929 60.3817 64.0695C60.3817 64.246 60.3421 64.4586 60.2592 64.7217C60.1799 64.9847 60.0682 65.2298 59.9277 65.4604L60.025 65.5577H60.1043C60.1655 65.5577 60.2268 65.5397 60.2844 65.5108C60.3421 65.4784 60.3961 65.4496 60.443 65.4136C60.4898 65.3811 60.5907 65.3018 60.7493 65.1865V65.5505ZM59.6394 63.774C59.3403 63.9541 59.0881 64.1163 58.8719 64.2604C58.6593 64.4046 58.4827 64.5523 58.3313 64.7037C58.1836 64.8514 58.0863 65.0028 58.0359 65.1541C57.9458 65.5541 57.9025 65.7739 57.9025 65.8063C57.9025 66.0442 58.0683 66.1631 58.3998 66.1631C58.5548 66.1631 58.8106 66.0297 59.1782 65.7667C59.1169 65.5973 59.0845 65.4352 59.0845 65.2802C59.0845 65.0532 59.1313 64.8226 59.225 64.5884C59.3187 64.3541 59.4556 64.0839 59.6394 63.7776V63.774Z" fill="#FF0000"/>
</svg>
