<svg width="80" height="80" viewBox="0 0 80 80" fill="none" xmlns="http://www.w3.org/2000/svg">
<path fill-rule="evenodd" clip-rule="evenodd" d="M52.072 13.3954C58.2958 17.1266 62.4592 23.9331 62.4592 31.7196C62.4592 43.5112 52.9016 53.0649 41.1138 53.0649C37.0662 53.0649 33.2849 51.9383 30.0591 49.982L41.8276 50.0977L42.2328 48.2032C42.418 47.3389 42.6032 46.4784 42.7884 45.6141L43.4096 42.7164L35.3839 42.7897C34.126 42.8013 32.8797 42.5003 32.081 41.4662C30.8115 39.8302 31.0894 37.1987 31.7916 35.3582C32.0964 34.8488 32.5054 34.189 32.9299 33.8379C33.7016 33.2051 35.4958 33.1781 36.4257 33.1665C38.7292 33.1434 41.0289 33.1665 43.3325 33.1665H45.2424L45.6514 31.3029C47.0019 25.1678 49.2244 19.0173 52.072 13.3954Z" fill="#131085"/>
<path fill-rule="evenodd" clip-rule="evenodd" d="M41.1138 10.3704C44.274 10.3704 47.2721 11.0572 49.9692 12.288C47.137 17.8829 44.7563 24.3151 43.3325 30.7935H36.4026C32.0309 30.863 31.1434 31.8276 29.6579 34.3048C27.6399 39.2823 29.1871 45.2167 35.4109 45.1627L40.4695 45.1164C40.2843 45.9807 40.0991 46.8412 39.9138 47.7055L26.8257 47.5781C22.4926 43.6694 19.7685 38.0128 19.7685 31.7196C19.7646 19.9279 29.3222 10.3704 41.1138 10.3704Z" fill="black"/>
<path fill-rule="evenodd" clip-rule="evenodd" d="M17.7773 56.117H20.0539C21.524 56.117 22.5156 56.1672 23.0365 56.2752C23.5536 56.3794 23.951 56.5531 24.2172 56.7961C24.4873 57.0354 24.6571 57.3055 24.7227 57.5987C24.7883 57.8958 24.823 58.4746 24.823 59.3428V62.5492C24.823 63.3711 24.7729 63.919 24.6764 64.1968C24.5761 64.4746 24.4063 64.6907 24.1593 64.8489C23.9124 65.0032 23.6076 65.1113 23.2449 65.1769C22.886 65.2386 22.3381 65.2695 21.6127 65.2695H17.7773V56.117ZM20.8294 57.6797V63.7068C21.2616 63.7068 21.5278 63.6373 21.6282 63.5023C21.7285 63.3634 21.7786 62.9891 21.7786 62.3794V58.818C21.7786 58.4051 21.7593 58.1389 21.7285 58.0193C21.6937 57.9035 21.6204 57.8187 21.5008 57.7646C21.3812 57.7106 21.1613 57.6836 20.8333 57.6836L20.8294 57.6797ZM31.2166 56.117L32.9606 65.2695H29.8468L29.6809 63.6257H28.5812L28.4153 65.2695H25.2629L26.8063 56.117H31.2166ZM29.5999 62.0052C29.4532 60.9672 29.3028 59.6823 29.1368 58.1505C28.8359 59.91 28.6468 61.1949 28.5658 62.0052H29.5999ZM40.7472 56.117L39.007 60.2495L40.9092 65.2695H37.7684L36.5336 61.3453V65.2695H33.4815V56.117H36.5336V59.6746L37.9034 56.117H40.7472ZM48.1054 61.4804C48.1054 62.3987 48.0784 63.0508 48.0205 63.4328C47.9665 63.8148 47.7928 64.1659 47.5034 64.4823C47.214 64.7987 46.8166 65.0418 46.3227 65.2116C45.825 65.3814 45.2501 65.4662 44.5902 65.4662C43.9304 65.4662 43.4018 65.3852 42.9041 65.227C42.4063 65.0688 42.005 64.8296 41.7041 64.5093C41.3992 64.1891 41.2218 63.8418 41.16 63.4637C41.1021 63.0855 41.0751 62.4257 41.0751 61.4843V59.9177C41.0751 58.9994 41.1021 58.3473 41.16 57.9653C41.214 57.5833 41.3877 57.2322 41.6771 56.9158C41.9703 56.5994 42.3639 56.3563 42.8578 56.1865C43.3555 56.0167 43.9304 55.9318 44.5902 55.9318C45.2501 55.9318 45.7787 56.0129 46.2764 56.1711C46.7742 56.3293 47.1755 56.5685 47.4764 56.8887C47.7812 57.209 47.9587 57.5563 48.0205 57.9344C48.0784 58.3125 48.1054 58.9723 48.1054 59.9138V61.4804ZM45.0533 58.4746C45.0533 58.0502 45.0224 57.7801 44.9645 57.6604C44.9066 57.5447 44.7832 57.483 44.6018 57.483C44.4475 57.483 44.3279 57.5293 44.243 57.6257C44.1619 57.7183 44.1195 58.0039 44.1195 58.4746V62.746C44.1195 63.2746 44.1465 63.6026 44.2005 63.7261C44.2546 63.8495 44.3819 63.9113 44.5787 63.9113C44.7755 63.9113 44.9105 63.838 44.9684 63.699C45.0263 63.5563 45.0533 63.2167 45.0533 62.6765V58.4707V58.4746ZM55.3787 56.117V57.946H53.5883V65.2695H50.5362V57.946H48.7304V56.117H55.3787ZM56.3279 56.117L54.7845 65.2695H57.9369L58.1028 63.6257H59.2025L59.3684 65.2695H62.4822L60.7382 56.117H56.3279ZM59.1176 62.0052H58.0835C58.1645 61.1949 58.3536 59.91 58.6546 58.1505C58.8166 59.6823 58.971 60.9672 59.1176 62.0052Z" fill="#131085"/>
<path fill-rule="evenodd" clip-rule="evenodd" d="M39.6783 69.5679V66.1415H40.3767V68.9814H42.1092V69.564H39.6783V69.5679ZM42.4603 67.8624C42.4603 67.5113 42.5144 67.2142 42.6185 66.9749C42.6957 66.7974 42.8037 66.6392 42.9388 66.5003C43.0738 66.3614 43.2243 66.2572 43.3864 66.1878C43.6025 66.0952 43.8494 66.0527 44.1311 66.0527C44.6404 66.0527 45.0494 66.2109 45.3542 66.5273C45.6591 66.8437 45.8134 67.2836 45.8134 67.847C45.8134 68.4103 45.6629 68.8425 45.3581 69.1589C45.0533 69.4753 44.6481 69.6335 44.1427 69.6335C43.6372 69.6335 43.2205 69.4753 42.9156 69.1627C42.6108 68.8502 42.4603 68.418 42.4603 67.8662V67.8624ZM43.178 67.8392C43.178 68.2328 43.2706 68.5261 43.4481 68.7306C43.6295 68.9312 43.8571 69.0354 44.1388 69.0354C44.4205 69.0354 44.6443 68.9351 44.8256 68.7344C45.0031 68.5338 45.0919 68.2328 45.0919 67.8315C45.0919 67.4302 45.0031 67.1409 44.8295 66.9441C44.6558 66.7473 44.4243 66.6508 44.1349 66.6508C43.8456 66.6508 43.614 66.7511 43.4404 66.9479C43.2629 67.1447 43.1742 67.4418 43.1742 67.8431L43.178 67.8392ZM47.9626 68.2984V67.7158H49.4636V69.0933C49.3169 69.236 49.1047 69.3595 48.8308 69.4675C48.553 69.5756 48.2751 69.6296 47.9896 69.6296C47.6269 69.6296 47.3144 69.5524 47.0443 69.402C46.778 69.2515 46.5735 69.0315 46.4385 68.7499C46.3034 68.4682 46.234 68.1595 46.234 67.8277C46.234 67.4688 46.3111 67.1486 46.4616 66.8669C46.6121 66.5852 46.8321 66.373 47.1253 66.2225C47.3491 66.1068 47.623 66.0489 47.951 66.0489C48.3793 66.0489 48.715 66.1376 48.9542 66.319C49.1935 66.5003 49.3517 66.7473 49.4173 67.0675L48.7227 67.1987C48.6726 67.029 48.5838 66.8939 48.4488 66.7974C48.3137 66.701 48.1478 66.6508 47.9472 66.6508C47.6423 66.6508 47.3993 66.7473 47.2218 66.9402C47.0443 67.1331 46.9517 67.4225 46.9517 67.8007C46.9517 68.2097 47.0443 68.5183 47.2256 68.7228C47.407 68.9273 47.6462 69.0315 47.9394 69.0315C48.0861 69.0315 48.2327 69.0007 48.3793 68.9466C48.5259 68.8888 48.6533 68.8193 48.7575 68.7383V68.2984H47.9626ZM50.0848 69.5679V66.1145H50.7832V69.5679H50.0848ZM51.2655 68.4489L51.9446 68.3833C51.987 68.611 52.0681 68.7769 52.1915 68.8849C52.315 68.9929 52.4848 69.0431 52.697 69.0431C52.9208 69.0431 53.0906 68.9968 53.2025 68.9003C53.3144 68.8039 53.3723 68.6958 53.3723 68.5685C53.3723 68.4875 53.3491 68.418 53.2989 68.3601C53.2526 68.3023 53.1678 68.2521 53.0481 68.2097C52.9671 68.1826 52.7819 68.1325 52.4925 68.0592C52.1221 67.9666 51.8597 67.8508 51.7092 67.7158C51.497 67.5267 51.3928 67.2913 51.3928 67.0174C51.3928 66.8399 51.443 66.674 51.5433 66.5235C51.6436 66.3691 51.7864 66.2534 51.9716 66.1724C52.1607 66.0913 52.3845 66.0527 52.6507 66.0527C53.0829 66.0527 53.407 66.1492 53.6269 66.3421C53.8469 66.5351 53.9588 66.7897 53.9703 67.11L53.2719 67.1331C53.2411 66.9556 53.1793 66.8283 53.0829 66.7473C52.9864 66.6701 52.8398 66.6315 52.643 66.6315C52.4462 66.6315 52.2841 66.674 52.1723 66.7589C52.0989 66.8129 52.0604 66.8862 52.0604 66.9749C52.0604 67.056 52.0951 67.1254 52.1645 67.1833C52.2533 67.2566 52.4655 67.3338 52.805 67.4148C53.1446 67.4958 53.3954 67.5769 53.5536 67.6618C53.7157 67.7466 53.843 67.8624 53.9356 68.0129C54.0282 68.1634 54.0745 68.3447 54.0745 68.5647C54.0745 68.7614 54.0205 68.9466 53.9086 69.1203C53.7967 69.2939 53.6423 69.4212 53.4417 69.5061C53.2411 69.591 52.9903 69.6335 52.6893 69.6335C52.2533 69.6335 51.9176 69.5331 51.6822 69.3325C51.4469 69.1319 51.3079 68.8386 51.2616 68.4527L51.2655 68.4489ZM55.4443 69.5679V66.6971H54.4218V66.1145H57.1613V66.6971H56.1427V69.5679H55.4443ZM57.5896 69.5679V66.1145H58.288V69.5679H57.5896ZM58.9633 69.5679V66.1145H59.6617V67.6463L61.07 66.1145H62.0076L60.7035 67.4611L62.0732 69.5717H61.1703L60.2211 67.9511L59.6578 68.5299V69.5756H58.9594L58.9633 69.5679Z" fill="#FF0000"/>
</svg>
