<svg width="80" height="80" viewBox="0 0 80 80" fill="none" xmlns="http://www.w3.org/2000/svg">
<path d="M69.6287 31.1111V44.1885H10.3696V31.1111H69.6287Z" fill="#FFCC00"/>
<path d="M20.7909 33.4595L18.8977 36.0317C18.8977 36.0317 28.7127 36.0317 29.2162 36.0317C29.7378 36.0317 29.7309 36.2299 29.476 36.5752C29.2171 36.9258 28.7838 37.5355 28.5201 37.8916C28.3863 38.0724 28.1443 38.4016 28.9461 38.4016C29.7938 38.4016 33.1658 38.4016 33.1658 38.4016C33.1658 38.4016 33.8459 37.476 34.4159 36.7023C35.1916 35.6498 34.4832 33.4596 31.7104 33.4596C29.2287 33.4595 20.7909 33.4595 20.7909 33.4595Z" fill="#D2002E"/>
<path d="M18.1316 41.8394L21.9344 36.6724C21.9344 36.6724 26.15 36.6724 26.6533 36.6724C27.1749 36.6724 27.1681 36.8706 26.9132 37.216C26.6543 37.5666 26.2139 38.1698 25.9502 38.5259C25.8163 38.7066 25.5744 39.0364 26.3761 39.0364C27.2239 39.0364 32.6981 39.0364 32.6981 39.0364C32.1723 39.7567 30.4669 41.8394 27.4046 41.8394C24.9228 41.8394 18.1316 41.8394 18.1316 41.8394Z" fill="#D2002E"/>
<path d="M39.9103 39.0357L37.848 41.8393H32.4083C32.4083 41.8393 34.4693 39.0363 34.4711 39.0363L39.9103 39.0357Z" fill="#D2002E"/>
<path d="M48.2438 38.4016H34.9384L38.5769 33.4595H44.0151L41.9296 36.2933H44.357L46.4434 33.4595H51.881L48.2438 38.4016Z" fill="#D2002E"/>
<path d="M47.7768 39.0364L45.7136 41.8394H40.2758C40.2758 41.8394 42.3369 39.0364 42.3387 39.0364H47.7768Z" fill="#D2002E"/>
<path d="M10.3696 40.1417H18.3835L17.9457 40.7372H10.3696V40.1417Z" fill="#D2002E"/>
<path d="M10.3696 39.0364H19.1976L18.7591 39.6311H10.3696V39.0364Z" fill="#D2002E"/>
<path d="M10.3696 41.2476H17.5697L17.1341 41.8394H10.3696V41.2476Z" fill="#D2002E"/>
<path d="M69.6289 40.7372H61.6459L62.0839 40.1418H69.6289V40.7372Z" fill="#D2002E"/>
<path d="M69.6289 41.8394L60.8343 41.8402L61.27 41.2476H69.6289V41.8394Z" fill="#D2002E"/>
<path d="M62.8971 39.0364H69.6289V39.6314L62.4595 39.6319L62.8971 39.0364Z" fill="#D2002E"/>
<path d="M59.4123 33.4595L55.7744 38.4015H50.012C50.012 38.4015 53.6508 33.4595 53.6526 33.4595H59.4123Z" fill="#D2002E"/>
<path d="M49.5457 39.0364C49.5457 39.0364 49.1482 39.5796 48.9551 39.8407C48.272 40.7639 48.8759 41.8394 51.105 41.8394C53.6793 41.8394 59.8385 41.8394 59.8385 41.8394L61.9014 39.0364H49.5457Z" fill="#D2002E"/>
<path d="M10.3696 46.3146H69.6289V46.6108H10.3696V46.3146Z" fill="#FFCC00"/>
<path d="M10.3696 47.697H69.6289V47.9932H10.3696V47.697Z" fill="#FFCC00"/>
<path d="M10.3696 49.079H69.6289V49.3753H10.3696V49.079Z" fill="#FFCC00"/>
<path d="M30.2685 49.3753H32.0519L32.3366 48.9894H31.0094L31.7536 47.981H32.9623L33.247 47.5951H32.0383L32.6983 46.7007H34.0256L34.3103 46.3148H32.527L30.2685 49.3753Z" fill="#D2002E"/>
<path d="M32.4571 49.3753H33.0044L34.8699 48.0775L34.8516 49.3753H35.4263L35.4306 47.775L37.5799 46.3148H37.06L35.3491 47.4899L35.3678 46.3148H34.8205L34.8039 47.7837L32.4571 49.3753Z" fill="#D2002E"/>
<path fill-rule="evenodd" clip-rule="evenodd" d="M38.2703 46.7007H38.658C38.9408 46.7007 39.2568 46.841 38.9721 47.2268C38.6744 47.6302 38.2184 47.7662 37.9355 47.7662H37.484L38.2703 46.7007ZM35.8405 49.3753H36.2965L37.1992 48.152H37.6462C38.2209 48.152 38.9507 47.9108 39.4522 47.2312C39.9667 46.534 39.5857 46.3147 38.9335 46.3147H38.0989L35.8405 49.3753Z" fill="#D2002E"/>
<path fill-rule="evenodd" clip-rule="evenodd" d="M38.4669 49.3753H38.9231L39.9261 48.016H40.1998C40.4414 48.016 40.5921 48.016 40.5134 48.3141L40.2185 49.3753H40.7385L41.0359 48.1563C41.0748 47.9678 41.0549 47.9021 40.9523 47.8494L40.9587 47.8406C41.3736 47.7791 41.8549 47.5161 42.1301 47.1434C42.6704 46.4113 42.135 46.3147 41.5055 46.3147H40.7255L38.4669 49.3753ZM40.8969 46.7007H41.3346C41.7543 46.7007 41.8438 46.8761 41.6399 47.1523C41.4231 47.4461 41.0319 47.6302 40.5985 47.6302H40.2108L40.8969 46.7007Z" fill="#D2002E"/>
<path d="M41.2107 49.3753H42.9941L43.2788 48.9894H41.9516L42.6958 47.981H43.9044L44.1891 47.5951H42.9805L43.6406 46.7007H44.9677L45.2526 46.3148H43.4693L41.2107 49.3753Z" fill="#D2002E"/>
<path d="M47.4493 46.3718C47.2854 46.2973 47.0604 46.2621 46.8506 46.2621C46.2759 46.2621 45.6154 46.5517 45.2141 47.0953C44.512 48.0467 46.0195 47.8583 45.5146 48.5422C45.2494 48.9016 44.7809 49.0421 44.521 49.0421C44.2883 49.0421 44.0794 48.9543 43.9696 48.8929L43.6232 49.3007C43.7844 49.3665 43.9581 49.4279 44.1816 49.4279C44.8201 49.4279 45.5355 49.169 46.0176 48.5157C46.7619 47.5075 45.2932 47.6431 45.7268 47.0558C45.9631 46.7357 46.3288 46.6479 46.5842 46.6479C46.8214 46.6479 46.9199 46.6876 47.0878 46.7751L47.4493 46.3718Z" fill="#D2002E"/>
<path d="M49.73 46.3718C49.566 46.2973 49.3411 46.2621 49.1312 46.2621C48.5565 46.2621 47.896 46.5517 47.4948 47.0953C46.7926 48.0467 48.3001 47.8583 47.7953 48.5422C47.53 48.9016 47.0616 49.0421 46.8016 49.0421C46.5689 49.0421 46.36 48.9543 46.2503 48.8929L45.9038 49.3007C46.0651 49.3665 46.2387 49.4279 46.4622 49.4279C47.1008 49.4279 47.8161 49.169 48.2982 48.5157C49.0424 47.5075 47.5738 47.6431 48.0074 47.0558C48.2437 46.7357 48.6094 46.6479 48.8647 46.6479C49.102 46.6479 49.2006 46.6876 49.3684 46.7752L49.73 46.3718Z" fill="#D2002E"/>
</svg>
