<svg width="80" height="80" viewBox="0 0 80 80" fill="none" xmlns="http://www.w3.org/2000/svg">
<path fill-rule="evenodd" clip-rule="evenodd" d="M27.4 45.2982L21.766 45.2141L24.8387 34.074H30.6006L29.7457 37.0189H27.0565L26.6729 38.3854H29.278L28.5947 40.9466H25.9897L25.5622 42.4848H28.1673L27.4 45.3018V45.2982ZM31.7954 45.4261L33.3336 38.5535L33.2057 45.4261H34.4443L37.6449 38.8969L35.9387 45.342H38.8397L41.7371 34.1581H37.9811L35.5477 38.8969L35.5039 34.074H31.9196L28.9236 45.3859L31.7917 45.4261H31.7954ZM46.2823 36.6462H45.2373L44.682 38.5242H46.8596L48.226 39.6971L47.1811 43.7929L45.0254 45.2653H42.1463L40.546 43.7929L41.0356 41.9368H43.6407L43.5968 42.5981H44.7696L45.2373 40.6982H42.6542L41.6092 39.5655L42.804 35.5976L44.6637 34.1288H47.6926L49.2491 35.6232L48.8874 37.4172H46.1763L46.2823 36.6499V36.6462Z" fill="#05319E"/>
<path fill-rule="evenodd" clip-rule="evenodd" d="M69.5052 39.2221L50.0383 39.255L50.3342 38.1333H69.5307L69.5052 39.2221ZM50.5717 37.2381L50.8421 36.2151H69.5746L69.549 37.2381H50.5681H50.5717ZM51.0796 35.3163L51.4048 34.0887H69.6294L69.6002 35.3163H51.0796ZM20.1437 45.3676L20.4908 44.034H18.9855L20.1437 45.3676ZM20.7283 43.1388L21.0024 42.0939H17.3048L18.2109 43.1388H20.7283ZM21.2362 41.1987L21.5212 40.1099H15.5803L16.5229 41.1987H21.2362ZM21.755 39.2148L22.0291 38.1698H13.8959L14.802 39.2148H21.755ZM22.2629 37.2747L22.5369 36.2297H12.2116L13.1177 37.2747H22.2629ZM22.7708 35.3346L23.0923 34.1069H10.3701L11.4333 35.3346H22.7708Z" fill="#F48400"/>
</svg>
