<svg width="80" height="80" viewBox="0 0 80 80" fill="none" xmlns="http://www.w3.org/2000/svg">
<path fill-rule="evenodd" clip-rule="evenodd" d="M11.8072 48.5354L13.7435 41.4277H19.1992L18.8765 42.6187H14.9346L14.4966 44.2285H18.304L17.9813 45.4195H14.1738L13.6513 47.3444H17.8699L17.551 48.5354H11.8072ZM24.1746 47.0985L22.7684 48.5354H21.0011L23.5983 45.8959L22.3996 43.3832H23.9287L24.6203 44.8317L26.038 43.3832H27.8053L25.1927 46.0573L26.3915 48.5354H24.8623L24.1746 47.0985ZM31.7165 43.3832H33.1035L32.9536 43.9096C33.2648 43.6676 33.5453 43.5023 33.7989 43.4101C34.0486 43.3179 34.3137 43.2718 34.5826 43.2718C35.1244 43.2718 35.5508 43.4562 35.862 43.8212C36.1771 44.1901 36.3115 44.7433 36.2693 45.481C36.2155 46.4223 35.8774 47.2137 35.2473 47.8515C34.7286 48.3779 34.1408 48.6391 33.48 48.6391C32.8191 48.6391 32.2851 48.3663 31.9585 47.8169L31.2209 50.4987H29.7724L31.7126 43.3794L31.7165 43.3832ZM32.4349 46.3416C32.4119 46.745 32.4926 47.0562 32.6808 47.2752C32.8653 47.4942 33.0881 47.6056 33.3455 47.6056C33.553 47.6056 33.7643 47.5365 33.9718 47.3943C34.1792 47.2522 34.379 46.9947 34.5634 46.6182C34.7478 46.2417 34.8516 45.8537 34.8746 45.4541C34.8977 45.0699 34.817 44.7779 34.6441 44.5743C34.4674 44.3706 34.2445 44.2708 33.9679 44.2708C33.7489 44.2708 33.5376 44.3399 33.3263 44.4782C33.115 44.6165 32.919 44.8663 32.7423 45.2274C32.5617 45.5886 32.4618 45.9612 32.4388 46.3454L32.4349 46.3416ZM42.3358 43.3832L42.063 44.3822C42.6048 43.6445 43.1695 43.2718 43.7574 43.2718C43.961 43.2718 44.18 43.3179 44.4182 43.4178L43.8035 44.5627C43.6728 44.5166 43.5384 44.4936 43.3924 44.4936C43.1657 44.4936 42.9544 44.5512 42.7469 44.6742C42.4396 44.8586 42.1937 45.1006 42.0169 45.3965C41.8402 45.6923 41.6558 46.2033 41.456 46.9256L41.0026 48.5354H39.5542L40.9604 43.3832H42.3358ZM51.9831 46.3915H48.3716L48.3639 46.5222C48.3447 46.8641 48.4331 47.1407 48.6214 47.3444C48.8135 47.548 49.0517 47.6517 49.336 47.6517C49.8085 47.6517 50.1927 47.4135 50.4924 46.9371L51.7718 47.1446C51.4913 47.644 51.134 48.0206 50.6999 48.2703C50.2657 48.52 49.7855 48.643 49.2668 48.643C48.5753 48.643 48.0105 48.4278 47.5725 48.0014C47.1383 47.571 46.9424 46.9947 46.9847 46.2609C47.0308 45.4733 47.3304 44.7741 47.8837 44.1747C48.4408 43.5753 49.1861 43.2718 50.1236 43.2718C50.7575 43.2718 51.257 43.4639 51.6297 43.8404C52.0023 44.2208 52.1675 44.7664 52.1291 45.4848C52.1099 45.8229 52.06 46.1264 51.9793 46.3915H51.9831ZM50.8075 45.5463L50.8228 45.4118C50.8459 45.0238 50.7729 44.7318 50.6 44.5474C50.431 44.3591 50.2004 44.2669 49.9123 44.2669C49.6241 44.2669 49.3475 44.3745 49.0978 44.5896C48.848 44.8048 48.6713 45.1237 48.5676 45.5463H50.8075ZM55.3142 47.087L56.7165 46.868C56.8241 47.16 56.9662 47.3636 57.1506 47.4788C57.3312 47.5941 57.5771 47.6517 57.8883 47.6517C58.1995 47.6517 58.4339 47.5941 58.626 47.4827C58.8142 47.3713 58.9141 47.2368 58.9257 47.0831C58.9295 46.9794 58.8949 46.891 58.8219 46.8219C58.7451 46.7527 58.553 46.672 58.2456 46.576C57.3965 46.3032 56.874 46.088 56.6742 45.9305C56.3592 45.6769 56.2132 45.3465 56.2362 44.9354C56.2631 44.4513 56.5013 44.0556 56.9509 43.7444C57.4004 43.4332 58.0036 43.2757 58.7528 43.2757C60.0245 43.2757 60.7352 43.7252 60.8889 44.6242L59.5481 44.8432C59.4174 44.4321 59.0563 44.2285 58.4723 44.2285C58.1957 44.2285 57.9844 44.2746 57.8345 44.363C57.6885 44.4513 57.6117 44.5666 57.604 44.7049C57.5963 44.8202 57.6501 44.9201 57.7577 45.0007C57.8345 45.0622 58.1111 45.1583 58.5876 45.2966C59.2637 45.4925 59.7171 45.6808 59.9438 45.8652C60.2742 46.1341 60.4279 46.4607 60.4087 46.8449C60.3779 47.3636 60.132 47.7977 59.671 48.1397C59.2061 48.4816 58.6068 48.6545 57.8729 48.6545C56.4283 48.6545 55.5793 48.1358 55.3218 47.0946L55.3142 47.087ZM64.0471 47.087L65.4494 46.868C65.557 47.16 65.6991 47.3636 65.8835 47.4788C66.0641 47.5941 66.31 47.6517 66.6212 47.6517C66.9324 47.6517 67.1668 47.5941 67.3589 47.4827C67.5471 47.3713 67.647 47.2368 67.6586 47.0831C67.6624 46.9794 67.6278 46.891 67.5548 46.8219C67.478 46.7527 67.2859 46.672 66.9785 46.576C66.1294 46.3032 65.6108 46.088 65.4071 45.9305C65.0921 45.6769 64.9461 45.3465 64.9691 44.9354C64.996 44.4513 65.2342 44.0556 65.6838 43.7444C66.1333 43.4332 66.7365 43.2757 67.4857 43.2757C68.7574 43.2757 69.4681 43.7252 69.6218 44.6242L68.281 44.8432C68.1503 44.4321 67.7892 44.2285 67.2052 44.2285C66.9286 44.2285 66.7173 44.2746 66.5674 44.363C66.4214 44.4513 66.3446 44.5666 66.3369 44.7049C66.3292 44.8202 66.383 44.9201 66.4906 45.0007C66.5674 45.0622 66.844 45.1583 67.3204 45.2966C67.9966 45.4925 68.45 45.6808 68.6767 45.8652C69.0071 46.1341 69.1608 46.4607 69.1416 46.8449C69.1108 47.3636 68.8649 47.7977 68.4039 48.1397C67.939 48.4816 67.3397 48.6545 66.6058 48.6545C65.1612 48.6545 64.3121 48.1358 64.0547 47.0946L64.0471 47.087Z" fill="#174622"/>
<path fill-rule="evenodd" clip-rule="evenodd" d="M10.397 54.0871H11.2615C11.2615 54.0871 11.2576 54.1178 11.2576 54.137C11.2461 54.2446 11.2423 54.3253 11.2423 54.3714C11.2423 54.5942 11.2884 54.7517 11.3729 54.8439C11.4574 54.9361 11.5957 54.9823 11.784 54.9823C11.9722 54.9823 12.1374 54.9323 12.2565 54.8401C12.3756 54.744 12.4333 54.6173 12.4294 54.4597C12.4294 54.2407 12.2066 54.0064 11.7725 53.7528L11.7417 53.7336C11.3729 53.5146 11.127 53.3302 11.004 53.1765C10.8811 53.0267 10.8158 52.8538 10.8119 52.6578C10.8081 52.3159 10.9311 52.0546 11.1846 51.8664C11.4382 51.6781 11.7993 51.5859 12.2719 51.5859C12.7445 51.5859 13.0672 51.6666 13.3093 51.8318C13.5513 51.997 13.6743 52.2314 13.6781 52.5426C13.6781 52.5772 13.6781 52.6194 13.6781 52.6694C13.6781 52.7193 13.6704 52.7769 13.6627 52.8422H12.7944C12.7944 52.7731 12.8021 52.7155 12.8021 52.6732C12.8021 52.6309 12.8021 52.6002 12.8021 52.5772C12.8021 52.4196 12.7522 52.3044 12.6561 52.2237C12.5601 52.143 12.4256 52.1046 12.2412 52.1046C12.0683 52.1046 11.93 52.143 11.8262 52.2237C11.7187 52.3044 11.6687 52.4081 11.6726 52.5387C11.6726 52.6425 11.7187 52.7385 11.8032 52.8269C11.8877 52.9191 12.0568 53.0382 12.3142 53.1919C12.3449 53.2111 12.3872 53.2341 12.4448 53.2687C13.0595 53.6222 13.3669 53.9718 13.3707 54.3176C13.3784 54.6941 13.2401 54.9899 12.9558 55.2051C12.6715 55.4202 12.2758 55.5278 11.7648 55.5278C11.3114 55.5278 10.9656 55.4395 10.7313 55.2666C10.4969 55.0898 10.3778 54.8324 10.3701 54.4866C10.3701 54.4175 10.3701 54.3522 10.374 54.2868C10.3778 54.2215 10.3855 54.1562 10.397 54.0871ZM15.334 55.4395H14.4772L15.4646 51.6935H16.3176L16.0217 52.8307C16.1408 52.7385 16.2676 52.6732 16.4021 52.6271C16.5366 52.581 16.6787 52.5579 16.8209 52.5579C17.0514 52.5579 17.232 52.604 17.3587 52.6963C17.4855 52.7885 17.5508 52.9191 17.5508 53.0881C17.5508 53.1227 17.5508 53.165 17.5393 53.2149C17.5316 53.2649 17.5124 53.334 17.4894 53.4262L16.9669 55.4356H16.1101L16.6211 53.4839C16.6403 53.4186 16.6518 53.3724 16.6557 53.3417C16.6595 53.311 16.6633 53.2879 16.6633 53.2649C16.6633 53.188 16.6364 53.1342 16.5827 53.092C16.5289 53.0497 16.4559 53.0305 16.356 53.0305C16.2177 53.0305 16.1062 53.0689 16.0217 53.1496C15.9372 53.2303 15.8719 53.3609 15.8258 53.5377L15.3302 55.4356L15.334 55.4395ZM19.2874 52.2544L19.4296 51.6935H20.294L20.1442 52.2544H19.2836H19.2874ZM18.4499 55.4395L19.1837 52.6425H20.0443L19.3066 55.4395H18.4499ZM22.2266 54.9861C22.3303 54.9861 22.4225 54.9592 22.4994 54.9093C22.5762 54.8593 22.6415 54.7825 22.6953 54.6826C22.8029 54.4674 22.8836 54.2369 22.945 53.9949C23.0065 53.7528 23.0372 53.5415 23.0334 53.3686C23.0334 53.2495 23.0065 53.1611 22.9527 53.1112C22.9028 53.0612 22.8182 53.0344 22.703 53.0344C22.5762 53.0344 22.4725 53.0728 22.3879 53.1458C22.3034 53.2188 22.2266 53.3494 22.1536 53.53C22.0691 53.7451 22.0037 53.9526 21.9615 54.1562C21.9154 54.356 21.8962 54.5327 21.9 54.6826C21.9 54.7786 21.9307 54.8516 21.9884 54.9054C22.046 54.9592 22.1228 54.9861 22.2266 54.9861ZM22.3073 52.6463L22.2343 52.9345C22.338 52.8 22.4533 52.7039 22.58 52.6425C22.7068 52.581 22.8567 52.5503 23.0257 52.5503C23.3023 52.5503 23.5137 52.6194 23.652 52.7577C23.7903 52.896 23.8633 53.1035 23.8671 53.3801C23.8671 53.4493 23.8633 53.53 23.8518 53.6145C23.8402 53.7029 23.8172 53.8258 23.7864 53.9833C23.748 54.1754 23.7019 54.3522 23.6481 54.5097C23.5943 54.6672 23.5367 54.8017 23.4752 54.9093C23.36 55.1129 23.2178 55.2627 23.0526 55.3626C22.8874 55.4625 22.6915 55.5086 22.4609 55.5086C22.2919 55.5086 22.1459 55.474 22.0268 55.4087C21.9115 55.3434 21.8232 55.2435 21.7655 55.1129L21.4428 56.3923H20.5707L21.5658 52.6463H22.3111H22.3073ZM26.2107 54.9861C26.3145 54.9861 26.4067 54.9592 26.4835 54.9093C26.5604 54.8593 26.6257 54.7825 26.6795 54.6826C26.7871 54.4674 26.8677 54.2369 26.9292 53.9949C26.9907 53.7528 27.0214 53.5415 27.0176 53.3686C27.0176 53.2495 26.9907 53.1611 26.9369 53.1112C26.8869 53.0612 26.8024 53.0344 26.6872 53.0344C26.5604 53.0344 26.4566 53.0728 26.3721 53.1458C26.2876 53.2188 26.2107 53.3494 26.1378 53.53C26.0532 53.7451 25.9879 53.9526 25.9457 54.1562C25.8995 54.356 25.8803 54.5327 25.8842 54.6826C25.8842 54.7786 25.9149 54.8516 25.9725 54.9054C26.0302 54.9592 26.107 54.9861 26.2107 54.9861ZM26.2876 52.6463L26.2146 52.9345C26.3183 52.8 26.4336 52.7039 26.5604 52.6425C26.6872 52.581 26.837 52.5503 27.006 52.5503C27.2827 52.5503 27.494 52.6194 27.6323 52.7577C27.7706 52.896 27.8436 53.1035 27.8474 53.3801C27.8474 53.4493 27.8436 53.53 27.8321 53.6145C27.8206 53.7029 27.7975 53.8258 27.7668 53.9833C27.7283 54.1754 27.6822 54.3522 27.6285 54.5097C27.5747 54.6672 27.517 54.8017 27.4556 54.9093C27.3403 55.1129 27.1981 55.2627 27.0329 55.3626C26.8677 55.4625 26.6718 55.5086 26.4413 55.5086C26.2722 55.5086 26.1262 55.474 26.0071 55.4087C25.8919 55.3434 25.8035 55.2435 25.7459 55.1129L25.4231 56.3923H24.551L25.5461 52.6463H26.2914H26.2876ZM29.6186 52.2583L29.7608 51.6973H30.6252L30.4754 52.2583H29.6148H29.6186ZM28.7811 55.4433L29.5149 52.6463H30.3755L29.6378 55.4433H28.7811ZM31.9891 55.4433H31.1285L31.8624 52.6463H32.6538L32.5885 52.8845C32.7345 52.7769 32.8766 52.6963 33.0226 52.6425C33.1686 52.5887 33.3185 52.5618 33.4722 52.5618C33.7065 52.5618 33.8871 52.6079 34.01 52.7001C34.1368 52.7923 34.2021 52.9229 34.2021 53.092C34.2021 53.1266 34.2021 53.1688 34.1906 53.2188C34.1829 53.2687 34.1637 53.3379 34.1407 53.4301L33.6182 55.4395H32.7614L33.2724 53.4877C33.2916 53.4224 33.3031 53.3763 33.307 53.3456C33.3108 53.3148 33.3146 53.2918 33.3146 53.2687C33.3146 53.1919 33.2877 53.1381 33.234 53.0958C33.1802 53.0536 33.1072 53.0344 33.0073 53.0344C32.869 53.0344 32.7575 53.0728 32.673 53.1535C32.5885 53.2341 32.5232 53.3648 32.4771 53.5415L31.9853 55.4395L31.9891 55.4433ZM37.4679 52.6463H38.3208L37.5793 55.4702C37.4755 55.8544 37.3257 56.108 37.1298 56.2347C36.93 56.3615 36.6111 56.423 36.1654 56.423C35.8465 56.423 35.5968 56.3692 35.4085 56.2616C35.2203 56.1541 35.1165 56.0042 35.0896 55.8083H35.8888C35.8888 55.8698 35.9157 55.9159 35.9656 55.9466C36.0156 55.9773 36.0963 55.9889 36.2038 55.9889C36.369 55.9889 36.4958 55.9428 36.5765 55.8467C36.6572 55.7545 36.7302 55.5547 36.7955 55.255C36.7302 55.3434 36.638 55.4087 36.5227 55.4587C36.4036 55.5048 36.2653 55.5317 36.1116 55.5317C35.835 55.5317 35.6275 55.4625 35.4854 55.328C35.3471 55.1936 35.2741 54.9861 35.2702 54.7095C35.2702 54.6326 35.2702 54.5443 35.2856 54.4482C35.2971 54.3522 35.3163 54.2369 35.3471 54.1024C35.3855 53.9142 35.4354 53.7413 35.4892 53.5838C35.543 53.4262 35.6045 53.2918 35.6659 53.1765C35.7812 52.9729 35.9195 52.823 36.0847 52.7231C36.2499 52.6271 36.4459 52.5772 36.6726 52.5772C36.8416 52.5772 36.9876 52.6117 37.1067 52.677C37.222 52.7424 37.3103 52.8423 37.368 52.9729L37.4602 52.6425L37.4679 52.6463ZM36.9184 53.0997C36.8147 53.0997 36.7225 53.1266 36.638 53.1803C36.5573 53.2341 36.492 53.3071 36.442 53.407C36.3383 53.6183 36.2576 53.8489 36.1961 54.0909C36.1347 54.333 36.1078 54.5443 36.1116 54.721C36.1116 54.8439 36.1385 54.9285 36.1885 54.9784C36.2384 55.0284 36.3191 55.0553 36.4305 55.0553C36.5342 55.0553 36.6265 55.0284 36.7033 54.9746C36.784 54.9208 36.8493 54.8401 36.9031 54.7325C36.9377 54.6672 36.9722 54.5827 37.0068 54.4828C37.0414 54.3829 37.0798 54.2638 37.1182 54.1216C37.1605 53.9718 37.1951 53.8373 37.2143 53.7144C37.2373 53.5953 37.245 53.4992 37.245 53.4301C37.245 53.3225 37.2143 53.2418 37.1567 53.1842C37.099 53.1266 37.0222 53.0997 36.9184 53.0997ZM40.772 55.4395L41.7402 51.6858H42.6354L41.8285 54.8209H43.496L43.3231 55.4395H40.7681H40.772ZM44.4526 54.6442C44.4526 54.5635 44.4603 54.4636 44.4795 54.3445C44.4987 54.2254 44.5256 54.0871 44.5602 53.9334C44.6255 53.6683 44.687 53.4647 44.7485 53.3263C44.8099 53.188 44.8868 53.0651 44.9752 52.9575C45.0866 52.8269 45.2364 52.727 45.4247 52.6578C45.6091 52.5887 45.8242 52.5541 46.0701 52.5541C46.4774 52.5541 46.7847 52.6271 46.9884 52.7731C47.192 52.9191 47.2996 53.1381 47.3034 53.4262C47.3034 53.5184 47.2957 53.626 47.2804 53.749C47.2612 53.8719 47.2381 54.0064 47.1997 54.1524C47.1421 54.3752 47.0806 54.5635 47.0076 54.7248C46.9384 54.8824 46.8577 55.0168 46.7655 55.1283C46.658 55.2627 46.512 55.3626 46.3237 55.4318C46.1354 55.5009 45.9203 55.5355 45.6706 55.5355C45.2671 55.5355 44.9636 55.4625 44.76 55.3165C44.5564 55.1705 44.4526 54.9477 44.4488 54.648L44.4526 54.6442ZM46.0586 53.0344C45.928 53.0344 45.8204 53.0689 45.7436 53.1381C45.6667 53.2072 45.5937 53.3379 45.5284 53.5261C45.4439 53.7835 45.3747 54.0179 45.3286 54.2292C45.2825 54.4405 45.2595 54.6019 45.2595 54.7018C45.2595 54.8247 45.294 54.9169 45.3594 54.9707C45.4247 55.0284 45.5322 55.0553 45.6782 55.0553C45.8127 55.0553 45.9203 55.0207 45.9971 54.9515C46.074 54.8824 46.147 54.7517 46.2084 54.5635C46.293 54.3137 46.3621 54.0832 46.4082 53.8719C46.4543 53.6606 46.4774 53.5031 46.4774 53.3955C46.4774 53.2726 46.4428 53.1803 46.3736 53.1227C46.3083 53.0651 46.2008 53.0344 46.0586 53.0344ZM50.6076 52.6463H51.4605L50.719 55.4702C50.6152 55.8544 50.4654 56.108 50.2695 56.2347C50.0697 56.3615 49.7508 56.423 49.3051 56.423C48.9862 56.423 48.7365 56.3692 48.5482 56.2616C48.36 56.1541 48.2562 56.0042 48.2293 55.8083H49.0285C49.0285 55.8698 49.0554 55.9159 49.1053 55.9466C49.1553 55.9773 49.236 55.9889 49.3435 55.9889C49.5087 55.9889 49.6317 55.9428 49.7162 55.8467C49.7969 55.7545 49.8699 55.5547 49.9352 55.255C49.8699 55.3434 49.7777 55.4087 49.6624 55.4587C49.5433 55.5048 49.405 55.5317 49.2513 55.5317C48.9747 55.5317 48.7672 55.4625 48.6251 55.328C48.4868 55.1936 48.4138 54.9861 48.4099 54.7095C48.4099 54.6326 48.4099 54.5443 48.4253 54.4482C48.4368 54.3522 48.456 54.2369 48.4868 54.1024C48.5252 53.9142 48.5751 53.7413 48.6289 53.5838C48.6827 53.4262 48.7442 53.2918 48.8056 53.1765C48.9209 52.9729 49.0592 52.823 49.2244 52.7231C49.3896 52.6271 49.5856 52.5772 49.8123 52.5772C49.9813 52.5772 50.1273 52.6117 50.2464 52.677C50.3617 52.7424 50.45 52.8423 50.5077 52.9729L50.5999 52.6425L50.6076 52.6463ZM50.0581 53.0997C49.9544 53.0997 49.8622 53.1266 49.7777 53.1803C49.697 53.2341 49.6317 53.3071 49.5817 53.407C49.478 53.6183 49.3973 53.8489 49.3358 54.0909C49.2744 54.333 49.2475 54.5443 49.2513 54.721C49.2513 54.8439 49.2782 54.9285 49.3282 54.9784C49.3781 55.0284 49.4588 55.0553 49.5702 55.0553C49.6739 55.0553 49.7661 55.0284 49.843 54.9746C49.9237 54.9208 49.989 54.8401 50.0428 54.7325C50.0774 54.6672 50.1119 54.5827 50.1465 54.4828C50.1811 54.3829 50.2195 54.2638 50.2579 54.1216C50.3002 53.9718 50.3348 53.8373 50.354 53.7144C50.377 53.5953 50.3847 53.4992 50.3847 53.4301C50.3847 53.3225 50.354 53.2418 50.2963 53.1842C50.2387 53.1266 50.1619 53.0997 50.0581 53.0997ZM53.0626 52.2544L53.2048 51.6935H54.0692L53.9194 52.2544H53.0588H53.0626ZM52.225 55.4395L52.9589 52.6425H53.8195L53.0818 55.4395H52.225ZM54.6532 54.4444H55.387C55.387 54.4713 55.387 54.502 55.387 54.5289C55.387 54.5558 55.387 54.5942 55.387 54.6403C55.387 54.7786 55.4254 54.8785 55.4946 54.94C55.5638 55.0015 55.6713 55.0322 55.8212 55.0322C55.9595 55.0322 56.0632 55.0053 56.1324 54.9515C56.2015 54.8977 56.2323 54.817 56.2323 54.7095C56.2323 54.575 56.0786 54.4252 55.7751 54.2561L55.7366 54.2331C55.4485 54.0755 55.2525 53.9334 55.1527 53.8104C55.0528 53.6875 55.0028 53.5377 54.999 53.3648C54.9951 53.0997 55.0989 52.896 55.3063 52.7539C55.5138 52.6117 55.8173 52.5426 56.2131 52.5426C56.5742 52.5426 56.8508 52.6079 57.0429 52.7385C57.235 52.8691 57.3311 53.0612 57.3349 53.311C57.3349 53.3148 57.3349 53.3456 57.3349 53.3955C57.3349 53.4454 57.3349 53.4877 57.3349 53.53H56.5934V53.4493C56.5896 53.2764 56.555 53.1611 56.4935 53.0997C56.432 53.0382 56.3206 53.0075 56.1631 53.0075C56.0517 53.0075 55.9633 53.0344 55.898 53.0843C55.8327 53.1342 55.802 53.2072 55.8058 53.2956C55.8058 53.4378 55.9403 53.5761 56.2015 53.7105C56.2707 53.7451 56.3245 53.772 56.359 53.7912C56.5973 53.9219 56.774 54.0525 56.8816 54.1793C56.9891 54.3099 57.0468 54.4521 57.0506 54.6057C57.0545 54.8939 56.9507 55.1167 56.7317 55.2781C56.5127 55.4356 56.2054 55.5163 55.8058 55.5163C55.4062 55.5163 55.1296 55.451 54.9337 55.3165C54.7377 55.182 54.6378 54.9823 54.634 54.7133C54.634 54.6711 54.634 54.6249 54.6378 54.5788C54.6417 54.5366 54.6493 54.4905 54.657 54.4405L54.6532 54.4444ZM59.9974 51.8395L59.7784 52.6425H60.1588L60.0474 53.0651H59.667L59.229 54.7364C59.229 54.7364 59.2252 54.7556 59.2213 54.7633C59.2175 54.7902 59.2137 54.8055 59.2175 54.817C59.2175 54.8708 59.2406 54.9054 59.2828 54.9285C59.3251 54.9515 59.4019 54.963 59.5057 54.963H59.5902L59.4557 55.4356C59.3789 55.4471 59.302 55.4548 59.2329 55.4587C59.1637 55.4625 59.0946 55.4663 59.0254 55.4663C58.8026 55.4663 58.6297 55.4279 58.5067 55.3549C58.3838 55.2819 58.3223 55.1744 58.3185 55.036C58.3185 54.9938 58.3185 54.94 58.33 54.8862C58.3377 54.8286 58.3531 54.7671 58.3723 54.6979L58.8026 53.0651H58.4837L58.5913 52.6425H58.914L59.1215 51.8395H59.9974ZM61.5458 52.2544L61.6879 51.6935H62.5524L62.4025 52.2544H61.5419H61.5458ZM60.7082 55.4395L61.442 52.6425H62.3026L61.565 55.4395H60.7082ZM65.7758 54.3829C65.722 54.7786 65.5876 55.0668 65.3647 55.255C65.1419 55.4395 64.823 55.5317 64.4042 55.5317C64.0123 55.5317 63.7204 55.4625 63.5321 55.3242C63.3438 55.1859 63.2478 54.9746 63.2401 54.6864C63.2401 54.5981 63.2478 54.4905 63.267 54.3637C63.2862 54.2407 63.3131 54.0947 63.3477 53.9334C63.4053 53.6913 63.4668 53.4954 63.5321 53.3456C63.5936 53.1957 63.6742 53.0689 63.7664 52.9614C63.8817 52.8269 64.0316 52.727 64.2121 52.6578C64.3965 52.5887 64.6079 52.5541 64.8461 52.5541C65.2149 52.5541 65.4992 52.6233 65.6951 52.7577C65.8911 52.896 65.991 53.0958 65.9948 53.3609C65.9948 53.3993 65.9948 53.4378 65.991 53.4839C65.9871 53.53 65.9795 53.5799 65.9679 53.6375H65.1457C65.1611 53.5761 65.1688 53.5223 65.1765 53.4762C65.1842 53.4301 65.1842 53.3917 65.1842 53.3571C65.1842 53.2533 65.1496 53.1727 65.0843 53.1189C65.019 53.0612 64.9306 53.0344 64.8153 53.0344C64.6924 53.0344 64.5963 53.0689 64.5195 53.1419C64.4426 53.2149 64.3773 53.3379 64.3197 53.5184C64.2352 53.7759 64.1737 53.9987 64.1314 54.1946C64.0892 54.3906 64.07 54.5519 64.07 54.6787C64.07 54.8094 64.1007 54.9016 64.1583 54.9554C64.2121 55.013 64.3005 55.0399 64.4196 55.0399C64.5694 55.0399 64.6847 54.9861 64.7731 54.8747C64.8576 54.7671 64.9152 54.5981 64.946 54.3752H65.7797L65.7758 54.3829ZM66.9323 54.4482H67.6661C67.6661 54.4751 67.6661 54.5058 67.6661 54.5327C67.6661 54.5596 67.6661 54.5981 67.6661 54.6442C67.6661 54.7825 67.7045 54.8824 67.7737 54.9438C67.8428 55.0053 67.9504 55.036 68.1002 55.036C68.2386 55.036 68.3423 55.0091 68.4115 54.9554C68.4806 54.9016 68.5113 54.8209 68.5113 54.7133C68.5113 54.5788 68.3577 54.429 68.0541 54.26L68.0157 54.2369C67.7276 54.0794 67.5316 53.9372 67.4317 53.8143C67.3318 53.6913 67.2819 53.5415 67.2781 53.3686C67.2742 53.1035 67.378 52.8999 67.5854 52.7577C67.7929 52.6156 68.0964 52.5464 68.4921 52.5464C68.8533 52.5464 69.1299 52.6117 69.322 52.7424C69.5141 52.873 69.6102 53.0651 69.614 53.3148C69.614 53.3187 69.614 53.3494 69.614 53.3993C69.614 53.4493 69.614 53.4916 69.614 53.5338H68.8725V53.4531C68.8687 53.2802 68.8341 53.165 68.7726 53.1035C68.7111 53.042 68.5997 53.0113 68.4422 53.0113C68.3308 53.0113 68.2424 53.0382 68.1771 53.0881C68.1118 53.1381 68.081 53.2111 68.0849 53.2994C68.0849 53.4416 68.2194 53.5799 68.4806 53.7144C68.5498 53.749 68.6035 53.7759 68.6381 53.7951C68.8763 53.9257 69.0531 54.0563 69.1606 54.1831C69.2682 54.3137 69.3259 54.4559 69.3297 54.6096C69.3335 54.8977 69.226 55.1206 69.0108 55.2819C68.7918 55.4395 68.4845 55.5201 68.0849 55.5201C67.6853 55.5201 67.4087 55.4548 67.2127 55.3204C67.0168 55.1859 66.9169 54.9861 66.9131 54.7172C66.9131 54.6749 66.9131 54.6288 66.9169 54.5827C66.9207 54.5404 66.9284 54.4943 66.9361 54.4444L66.9323 54.4482Z" fill="#174622"/>
<path fill-rule="evenodd" clip-rule="evenodd" d="M47.5378 36.5137L46.5504 40.3595H13.7818L14.7654 36.5137H47.5378Z" fill="#612E7B"/>
<path fill-rule="evenodd" clip-rule="evenodd" d="M47.2765 35.1843H15.1073L16.1293 31.2002H48.2831L47.2765 35.1843ZM18.2424 22.9629H50.3693L48.6174 29.8747H16.4712L18.2424 22.9629Z" fill="#174622"/>
<path fill-rule="evenodd" clip-rule="evenodd" d="M49.4281 23.9388L48.7019 27.2467H40.2879L39.7539 29.6903H47.1152L46.4005 32.8138H39.0546L38.5283 35.1575H46.9115L45.9818 39.3299H33.234L36.6303 23.9388H49.4281Z" fill="white"/>
<path fill-rule="evenodd" clip-rule="evenodd" d="M69.4565 35.8644L68.5459 39.3299H56.6203L56.9546 38.0659C56.8201 38.1926 56.6741 38.3079 56.5204 38.4232C55.3601 39.2684 53.7234 39.691 51.6142 39.691C49.5049 39.691 48.0449 39.3376 47.0345 38.6268C46.0163 37.916 45.5092 36.8479 45.5092 35.4302C45.5092 35.1959 45.5207 34.9615 45.5515 34.7233V34.7002H49.501C49.501 34.7963 49.501 34.9077 49.501 35.0307C49.501 35.7645 49.6816 36.2947 50.0428 36.6251C50.4001 36.9555 50.9725 37.1246 51.7525 37.1246C52.4863 37.1246 53.0357 36.9824 53.393 36.7058C53.758 36.4215 53.9347 35.9989 53.9347 35.4302C53.9347 34.7233 53.1433 33.9242 51.5681 33.029L51.3644 32.9099C49.8507 32.0762 48.8402 31.3231 48.3254 30.6661C47.8106 30.0091 47.557 29.2177 47.557 28.3033C47.557 26.8971 48.1179 25.8175 49.2321 25.0606C50.3463 24.3038 51.9523 23.9311 54.0385 23.9311C55.9441 23.9311 57.4002 24.2807 58.3992 24.9761C59.1906 25.5294 59.667 26.2786 59.8322 27.2237L60.7005 23.9464H65.1188L61.93 35.8721H69.4603L69.4565 35.8644ZM58.088 33.7859L59.5441 28.2841H55.9249C55.8788 27.6156 55.7213 27.1468 55.46 26.8741C55.1373 26.5475 54.5571 26.3823 53.7273 26.3823C53.1394 26.3823 52.6746 26.5206 52.3288 26.7895C51.9868 27.0623 51.8139 27.435 51.8139 27.9114C51.8139 28.6721 52.494 29.406 53.8579 30.109C54.2229 30.2896 54.4918 30.4356 54.6916 30.5355C55.9441 31.2232 56.8508 31.9148 57.4118 32.5987C57.7191 32.9752 57.9458 33.3671 58.0841 33.7782L58.088 33.7859Z" fill="#E95525"/>
</svg>
