<svg width="80" height="80" viewBox="0 0 80 80" fill="none" xmlns="http://www.w3.org/2000/svg">
<path fill-rule="evenodd" clip-rule="evenodd" d="M58.1599 32.8608L60.5348 35.4771L62.8201 32.8608H67.7023L62.933 38.2257L67.7684 43.6335H62.6878L60.3362 40.9977L58.0081 43.6335H53.1064L57.899 38.2491L53.1064 32.8608H58.1599Z" fill="#FF5900"/>
<path fill-rule="evenodd" clip-rule="evenodd" d="M53.1067 32.8608V36.501H47.6757V39.8414H53.1067V43.6334H43.689V26.6666H53.1067V30.447H47.6757V32.8608H53.1067Z" fill="#FF5900"/>
<path fill-rule="evenodd" clip-rule="evenodd" d="M39.7141 26.6666V33.6083H39.6713C38.7914 32.5961 37.6935 32.2457 36.4165 32.2457C33.8041 32.2457 31.838 34.021 31.1489 36.3686C30.3586 33.7835 28.3302 32.1951 25.3168 32.1951C22.8719 32.1951 20.9408 33.2929 19.9324 35.08V32.8569H14.8751V30.4431H20.3918V26.6666H10.3706V43.6334H14.879V36.501H19.3718C19.2394 37.0266 19.1655 37.5872 19.1655 38.179C19.1655 41.718 21.8713 44.2019 25.3207 44.2019C28.2212 44.2019 30.1367 42.8392 31.145 40.3553H27.2829C26.7612 41.1028 26.3641 41.3247 25.3207 41.3247C24.1099 41.3247 23.0665 40.2697 23.0665 39.016H30.9309C31.2735 41.827 33.4615 44.2525 36.4671 44.2525C37.7636 44.2525 38.951 43.614 39.6751 42.5394H39.718V43.6373H43.6891V26.6666H39.718H39.7141ZM23.1872 36.5516C23.4364 35.4732 24.2734 34.7685 25.3168 34.7685C26.4653 34.7685 27.2596 35.4498 27.4659 36.5516C27.5554 36.5516 23.1833 36.5516 23.1833 36.5516H23.1872ZM37.3042 41.0522C35.8403 41.0522 34.9293 39.6857 34.9293 38.2646C34.9293 36.7424 35.7196 35.2785 37.3042 35.2785C38.8887 35.2785 39.5973 36.7424 39.5973 38.2646C39.5973 39.709 38.9043 41.0522 37.3042 41.0522Z" fill="#2A007C"/>
<path fill-rule="evenodd" clip-rule="evenodd" d="M43.689 52.1169V46.0356H47.0488V46.4912H44.2418V48.7337H46.9282V49.1853H44.2418V51.6614H47.1734V52.1169H43.689Z" fill="#2A007C"/>
<path fill-rule="evenodd" clip-rule="evenodd" d="M47.5742 52.1169L49.2133 49.9328L47.6599 47.8694H48.2867L49.5559 49.5552L50.8017 47.8694H51.4285L49.8518 49.9328L51.4947 52.1169H50.8601L49.4975 50.3105L48.2049 52.1169H47.5742Z" fill="#2A007C"/>
<path fill-rule="evenodd" clip-rule="evenodd" d="M52.5617 53.7131H52.0478V49.1385C52.0478 48.718 52.0478 48.2898 52.0205 47.8693H52.5266L52.5422 48.5078C52.8614 48.0017 53.2819 47.7681 53.9126 47.7681C55.2208 47.7681 55.7853 48.8504 55.7853 49.9911C55.7853 51.1318 55.2247 52.2181 53.9126 52.2181C53.3247 52.2181 52.8615 51.9922 52.5617 51.5056V53.7131ZM55.2402 49.995C55.2402 49.0879 54.8626 48.1963 53.8542 48.1963C52.9043 48.1963 52.5617 48.9789 52.5617 49.995C52.5617 51.0111 52.9043 51.7937 53.8542 51.7937C54.8626 51.7937 55.2402 50.9021 55.2402 49.995Z" fill="#2A007C"/>
<path fill-rule="evenodd" clip-rule="evenodd" d="M58.4211 48.2625C57.5724 48.2625 57.2765 48.975 57.2765 49.7147V52.1168H56.7626V49.119C56.7626 48.7064 56.7548 48.2898 56.7393 47.8693H57.2454L57.2765 48.4844C57.5296 47.9978 57.9501 47.772 58.5107 47.772C58.5847 47.772 58.6703 47.7798 58.7443 47.7875V48.3015C58.6275 48.282 58.5341 48.2664 58.4173 48.2664L58.4211 48.2625Z" fill="#2A007C"/>
<path fill-rule="evenodd" clip-rule="evenodd" d="M59.3746 50.0847C59.3746 51.0424 59.8262 51.8288 60.7606 51.8288C61.4809 51.8288 61.8196 51.35 61.9442 50.8711H62.4308C62.205 51.7627 61.6561 52.2143 60.6906 52.2143C59.398 52.2143 58.8257 51.2565 58.8257 50.0652C58.8257 48.8739 59.4214 47.7643 60.7567 47.7643C62.0921 47.7643 62.4698 48.9478 62.4698 50.0808H59.3746V50.0847ZM59.3902 49.6992H61.9247C61.9247 48.8661 61.5315 48.1536 60.7256 48.1536C59.9937 48.1536 59.4914 48.7065 59.3902 49.6992Z" fill="#2A007C"/>
<path fill-rule="evenodd" clip-rule="evenodd" d="M64.471 52.2181C63.5989 52.2181 62.9448 51.8054 62.9448 50.8749H63.4587C63.4587 51.5134 63.8792 51.8326 64.4982 51.8326C65.0783 51.8326 65.5299 51.5562 65.5299 50.9878C65.5299 50.4739 65.0005 50.3415 64.4476 50.1819C63.778 49.9872 63.0461 49.777 63.0461 48.9555C63.0461 48.0406 63.8091 47.772 64.5255 47.772C65.347 47.772 65.9621 48.0912 65.9855 48.9711H65.4715C65.4482 48.4689 65.0861 48.1808 64.5411 48.1808C64.1128 48.1808 63.5911 48.3482 63.5911 48.901C63.5911 49.4071 64.1128 49.5473 64.6656 49.6991C65.3392 49.8821 66.075 50.0846 66.075 50.9099C66.075 51.8677 65.3353 52.2181 64.471 52.2181Z" fill="#2A007C"/>
<path fill-rule="evenodd" clip-rule="evenodd" d="M68.0257 52.2181C67.1536 52.2181 66.4956 51.8054 66.4956 50.8749H67.0095C67.0095 51.5134 67.43 51.8326 68.0529 51.8326C68.633 51.8326 69.0846 51.5562 69.0846 50.9878C69.0846 50.4739 68.5551 50.3415 68.0023 50.1819C67.3327 49.9872 66.6007 49.777 66.6007 48.9555C66.6007 48.0406 67.3638 47.772 68.0802 47.772C68.9016 47.772 69.5168 48.0912 69.5401 48.9711H69.0262C69.0029 48.4689 68.6408 48.1808 68.0957 48.1808C67.6675 48.1808 67.1458 48.3482 67.1458 48.901C67.1458 49.4071 67.6675 49.5473 68.2203 49.6991C68.8938 49.8821 69.6297 50.0846 69.6297 50.9099C69.6297 51.8677 68.89 52.2181 68.0257 52.2181Z" fill="#2A007C"/>
</svg>
