<svg width="80" height="80" viewBox="0 0 80 80" fill="none" xmlns="http://www.w3.org/2000/svg">
<path fill-rule="evenodd" clip-rule="evenodd" d="M12.6961 31.9876H15.6482L15.1979 33.3326H13.9948L13.5629 34.6159H14.6302L14.2015 35.8899H13.1341L12.1871 38.7125H10.4411L12.6961 31.9876ZM17.8199 31.9876H16.0739L13.8189 38.7125H15.5649L17.8199 31.9876ZM18.5171 31.9876H19.751C20.5747 31.9876 21.1207 32.0184 21.3891 32.0832C21.6574 32.148 21.8425 32.3115 21.9382 32.5706C22.0338 32.8328 21.9875 33.2493 21.7932 33.8231C21.6173 34.3475 21.4353 34.6961 21.2441 34.8781C21.0559 35.057 20.7629 35.165 20.3711 35.202C20.6857 35.2883 20.8832 35.4025 20.951 35.5475C21.022 35.6894 21.0497 35.8251 21.0374 35.9454C21.0281 36.0657 20.9294 36.3989 20.7474 36.9418L20.1521 38.7187H18.5325L19.2821 36.4822C19.4025 36.1212 19.4487 35.8991 19.421 35.8128C19.3963 35.7264 19.2636 35.6832 19.023 35.6832L18.005 38.7187H16.259L18.5171 31.9876ZM19.8806 33.1351L19.3778 34.6313C19.5721 34.6313 19.7171 34.6035 19.8127 34.5511C19.9084 34.4986 20.0071 34.3228 20.1058 34.0267L20.2292 33.6565C20.3001 33.4436 20.3094 33.3017 20.2569 33.2369C20.2045 33.1691 20.078 33.1382 19.8775 33.1382L19.8806 33.1351ZM26.0903 34.0267L26.1798 33.7614C26.3587 33.2277 26.4327 32.8483 26.405 32.6262C26.3772 32.401 26.2291 32.219 25.9608 32.0709C25.6893 31.9259 25.3315 31.8519 24.878 31.8519C24.4646 31.8519 24.0883 31.9197 23.752 32.0524C23.4158 32.1881 23.1412 32.3732 22.9315 32.6107C22.7217 32.8483 22.5274 33.2246 22.3577 33.7398C22.2374 34.0976 22.185 34.3907 22.2004 34.6189C22.2158 34.8472 22.2713 35.0292 22.367 35.1588C22.4657 35.2883 22.6785 35.4981 23.0148 35.7881C23.351 36.075 23.5546 36.2786 23.6256 36.3989C23.6934 36.5192 23.6595 36.7783 23.5268 37.1732C23.4682 37.3521 23.3942 37.4878 23.3047 37.5773C23.2184 37.6698 23.1166 37.7161 22.9993 37.7161C22.8821 37.7161 22.8143 37.6791 22.7927 37.6081C22.7711 37.5372 22.8019 37.3737 22.8883 37.1207L23.1628 36.3033H21.5433L21.3952 36.7444C21.2256 37.2472 21.1454 37.6359 21.1577 37.9135C21.17 38.1881 21.3089 38.4133 21.5772 38.5891C21.8487 38.7649 22.2158 38.8544 22.6816 38.8544C23.1073 38.8544 23.5053 38.7773 23.8754 38.623C24.2487 38.4688 24.5263 38.2806 24.7145 38.0523C24.9027 37.8241 25.0785 37.4724 25.2389 36.9912C25.4579 36.3341 25.5196 35.856 25.4178 35.5598C25.316 35.2637 24.9582 34.8812 24.3382 34.4184C24.1222 34.258 24.005 34.1192 23.9834 34.0082C23.9618 33.894 23.9834 33.7274 24.0605 33.5022C24.1191 33.3264 24.1901 33.1999 24.2703 33.1136C24.3536 33.0272 24.4461 32.984 24.551 32.984C24.6466 32.984 24.7052 33.0148 24.7238 33.0796C24.7423 33.1444 24.7145 33.2925 24.6374 33.5238L24.4708 34.0205H26.0903V34.0267ZM30.9798 31.9876L30.5294 33.3326H29.5021L27.6975 38.7156H25.9515L27.7561 33.3326H26.7227L27.1731 31.9876H30.9798Z" fill="#FF6600"/>
<path fill-rule="evenodd" clip-rule="evenodd" d="M28.2897 38.7156L29.7519 34.4925H30.2455L28.9406 38.2498H30.409L30.2485 38.7156H28.2897ZM35.1688 36.4544C35.2737 35.9762 35.2151 35.5876 34.993 35.2914C34.7709 34.9953 34.4223 34.8472 33.9534 34.8472C33.719 34.8472 33.4876 34.8904 33.2593 34.9799C33.031 35.0693 32.8182 35.1958 32.6238 35.3593C32.4017 35.5475 32.2167 35.7634 32.0686 36.004C31.9205 36.2477 31.8156 36.5007 31.757 36.7629C31.6521 37.2441 31.7077 37.6297 31.9267 37.9258C32.1457 38.2189 32.4881 38.367 32.9539 38.367C33.1945 38.367 33.429 38.3238 33.6634 38.2343C33.8979 38.1449 34.1138 38.0153 34.3174 37.8487C34.5303 37.6698 34.7092 37.46 34.8573 37.2163C35.0053 36.9726 35.1071 36.7197 35.1657 36.4575L35.1688 36.4544ZM34.0768 34.3968C34.6907 34.3968 35.1441 34.585 35.431 34.9583C35.721 35.3315 35.795 35.8313 35.6593 36.4544C35.5853 36.7906 35.4557 37.1053 35.2706 37.4014C35.0855 37.6976 34.8542 37.9567 34.5827 38.1788C34.3267 38.3855 34.0459 38.5459 33.7375 38.66C33.429 38.7711 33.1174 38.8297 32.7997 38.8297C32.2074 38.8297 31.7724 38.6384 31.4886 38.259C31.2079 37.8796 31.1339 37.3829 31.2665 36.7721C31.3406 36.4297 31.4701 36.1089 31.6552 35.8066C31.8403 35.5043 32.0624 35.2451 32.3277 35.0292C32.5776 34.8256 32.8552 34.6683 33.1544 34.5603C33.4537 34.4523 33.7621 34.3968 34.0737 34.3968H34.0768ZM38.4942 36.6487H40.2187L40.2125 36.6765C40.0675 37.3397 39.7683 37.8642 39.3179 38.2498C38.8675 38.6354 38.3277 38.8266 37.6953 38.8266C37.0629 38.8266 36.6495 38.6384 36.3688 38.2652C36.0912 37.8919 36.0202 37.3922 36.156 36.769C36.23 36.4297 36.3596 36.1089 36.5477 35.8066C36.7328 35.5043 36.9611 35.2421 37.2326 35.023C37.4886 34.8164 37.7601 34.659 38.05 34.5511C38.3369 34.4431 38.6362 34.3907 38.9385 34.3907C39.3241 34.3907 39.6418 34.4585 39.8978 34.5973C40.1539 34.7362 40.3606 34.9521 40.521 35.2451L40.0798 35.5814C39.9441 35.3284 39.7744 35.1433 39.5708 35.023C39.3673 34.9027 39.1236 34.8441 38.8397 34.8441C38.3308 34.8441 37.868 35.0292 37.4547 35.3963C37.0413 35.7634 36.7729 36.2292 36.6495 36.7937C36.5446 37.2719 36.6033 37.6575 36.8223 37.9474C37.0444 38.2374 37.3868 38.3824 37.8557 38.3824C38.2444 38.3824 38.6053 38.259 38.9385 38.0153C39.2716 37.7716 39.4968 37.46 39.6202 37.0837H38.34L38.4942 36.6456V36.6487ZM40.6598 38.7156L42.122 34.4925H42.631L41.1657 38.7156H40.6567H40.6598ZM42.5076 37.9413C42.5569 38.2312 42.6711 38.4534 42.8469 38.6014C43.0228 38.7495 43.2572 38.8266 43.5472 38.8266C43.9482 38.8266 44.2875 38.7125 44.5713 38.4811C44.8551 38.2498 45.0371 37.9413 45.1235 37.5495C45.179 37.2935 45.1729 37.0806 45.1019 36.914C45.031 36.7444 44.8675 36.5747 44.6114 36.4019C44.5775 36.3804 44.5281 36.3495 44.4634 36.3094C44.0993 36.0811 43.9482 35.8282 44.0099 35.5475C44.0562 35.3377 44.161 35.1649 44.3245 35.0323C44.488 34.8996 44.6762 34.8318 44.8922 34.8318C45.0495 34.8318 45.176 34.875 45.2747 34.9613C45.3734 35.0477 45.4505 35.1804 45.4999 35.3593L45.9225 35.0477C45.8361 34.8256 45.7158 34.659 45.5616 34.5511C45.4073 34.4431 45.213 34.3907 44.9754 34.3907C44.6176 34.3907 44.3029 34.5048 44.0253 34.7362C43.7477 34.9675 43.5718 35.2637 43.4916 35.6246C43.4392 35.8621 43.4577 36.0626 43.5472 36.2292C43.6366 36.3958 43.8402 36.5809 44.158 36.7876C44.4048 36.948 44.5528 37.0775 44.6022 37.1793C44.6515 37.2811 44.6608 37.4076 44.6269 37.5618C44.5713 37.8086 44.4541 38.0061 44.2752 38.1541C44.0932 38.3022 43.8772 38.3762 43.6335 38.3762C43.4392 38.3762 43.288 38.3176 43.1801 38.2035C43.069 38.0863 42.9888 37.895 42.9364 37.6266L42.5076 37.9413ZM46.5579 38.7156L47.8567 34.9521H46.8294L46.9867 34.4925H49.5595L49.3991 34.9521H48.3595L47.0515 38.7156H46.5549H46.5579ZM49.0659 38.7156H49.5749L51.0402 34.4925H50.5312L49.069 38.7156H49.0659ZM55.0597 35.3716C54.9085 35.1927 54.745 35.0601 54.5723 34.9737C54.3995 34.8873 54.2114 34.8472 54.0047 34.8472C53.7795 34.8472 53.5605 34.8904 53.3445 34.9737C53.1286 35.057 52.9281 35.1804 52.7461 35.3439C52.5363 35.5289 52.3605 35.7387 52.2217 35.9762C52.0828 36.2138 51.9841 36.4636 51.9255 36.7259C51.8145 37.2318 51.8607 37.6328 52.0674 37.9258C52.271 38.2189 52.6073 38.367 53.0731 38.367C53.252 38.367 53.4402 38.3361 53.6345 38.2713C53.8289 38.2096 54.0386 38.1079 54.27 37.9721L54.0325 38.5644C53.8504 38.6539 53.6623 38.7186 53.4741 38.7618C53.2828 38.805 53.0916 38.8266 52.8942 38.8266C52.3204 38.8266 51.8947 38.6354 51.6201 38.2528C51.3456 37.8703 51.2746 37.3706 51.4104 36.7598C51.4844 36.4235 51.614 36.1027 51.7929 35.8035C51.9749 35.5043 52.2001 35.2421 52.4654 35.0169C52.706 34.8164 52.962 34.6621 53.2397 34.5541C53.5173 34.4493 53.8042 34.3968 54.0972 34.3968C54.3502 34.3968 54.5754 34.4338 54.7728 34.511C54.9702 34.5881 55.1461 34.7053 55.3034 34.8657L55.0597 35.3716ZM55.0073 37.9444C55.0566 38.2343 55.1707 38.4564 55.3466 38.6045C55.5224 38.7526 55.7569 38.8297 56.0468 38.8297C56.4479 38.8297 56.7872 38.7156 57.071 38.4842C57.3548 38.2559 57.5368 37.9444 57.6232 37.5526C57.6787 37.2965 57.6725 37.0837 57.6016 36.9171C57.5306 36.7474 57.3671 36.5778 57.1111 36.405C57.0772 36.3834 57.0278 36.3526 56.963 36.3125C56.599 36.0842 56.4479 35.8313 56.5096 35.5505C56.5558 35.3408 56.6607 35.168 56.8242 35.0354C56.9877 34.9027 57.1759 34.8349 57.3918 34.8349C57.5491 34.8349 57.6756 34.8781 57.7743 34.9644C57.873 35.0508 57.9502 35.1834 57.9995 35.3624L58.4221 35.0508C58.3358 34.8287 58.2155 34.6621 58.0612 34.5541C57.907 34.4462 57.7126 34.3937 57.4751 34.3937C57.1173 34.3937 56.8026 34.5079 56.525 34.7392C56.2473 34.9706 56.0715 35.2667 55.9913 35.6277C55.9389 35.8652 55.9574 36.0657 56.0468 36.2323C56.1363 36.3989 56.3399 36.584 56.6576 36.7906C56.9044 36.951 57.0525 37.0806 57.1018 37.1824C57.1512 37.2842 57.1605 37.4107 57.1265 37.5649C57.071 37.8117 56.9538 38.0091 56.7748 38.1572C56.5928 38.3053 56.3769 38.3793 56.1332 38.3793C55.9389 38.3793 55.7877 38.3207 55.6797 38.2066C55.5687 38.0893 55.4885 37.8981 55.436 37.6297L55.0073 37.9444Z" fill="#8C8C8C"/>
<path fill-rule="evenodd" clip-rule="evenodd" d="M58.7646 40.8348C58.6535 40.8533 58.453 41.3068 58.4808 41.4333C58.4869 41.4672 58.5641 41.4765 58.5918 41.4734C58.7584 41.4456 58.888 41.1001 58.854 40.9274C58.8448 40.8842 58.8139 40.8287 58.7677 40.8348H58.7646ZM56.2813 41.1371C56.2381 41.5012 56.1949 41.8652 56.1548 42.2292C56.1456 42.3279 56.1394 42.5284 56.1548 42.6271C56.1579 42.6703 56.198 42.6857 56.2319 42.695C56.4139 42.7412 56.67 42.7412 56.8489 42.7073C57.1728 42.6518 57.543 42.4883 57.799 42.2693C57.944 42.1428 58.0952 41.9392 58.0489 41.714C58.0026 41.495 57.7466 41.3315 57.5707 41.2513C57.2407 41.097 56.7502 41.0569 56.4109 41.1125C56.3646 41.1217 56.3245 41.131 56.2813 41.1371ZM61.0103 40.3783C60.9702 40.5541 60.927 40.7824 60.9085 41.0107C60.89 41.2389 60.89 41.4703 60.927 41.6523C60.9394 41.7017 61.0072 41.8775 61.0782 41.8559C61.0782 41.8559 61.1029 41.8497 61.1214 41.8467C61.1214 41.8467 61.1553 41.8066 61.1646 41.7973C61.1831 41.7726 61.2077 41.7541 61.2386 41.7479C61.2725 41.7418 61.3157 41.7788 61.325 41.8158C61.3466 41.9145 61.18 42.0194 61.1029 42.0348C60.9023 42.0688 60.8005 41.9022 60.7604 41.7109C60.708 41.4765 60.7111 41.2143 60.7327 40.9829C60.7543 40.7886 60.782 40.6004 60.8129 40.4091C60.779 40.4153 60.745 40.4215 60.7111 40.4246C60.6556 40.4369 60.6 40.4461 60.5445 40.4554C60.4736 40.4677 60.3779 40.4554 60.3594 40.3659C60.3502 40.3197 60.381 40.2734 60.4242 40.2672C60.4736 40.2611 60.5198 40.2549 60.5692 40.2487C60.6586 40.2333 60.7512 40.2179 60.8406 40.2055C60.8838 40.0266 60.9239 39.8508 60.9671 39.6688C60.9826 39.5978 61.0041 39.4127 61.0658 39.3726C61.0844 39.3603 61.1029 39.3572 61.1245 39.3541C61.1738 39.3449 61.2355 39.3726 61.2509 39.4312C61.2571 39.4683 61.2386 39.5793 61.2293 39.6163C61.1769 39.7953 61.1275 39.9742 61.0782 40.1531C61.1615 40.1346 61.2448 40.1161 61.328 40.0976C61.3928 40.0821 61.5039 40.0976 61.5224 40.1809C61.5317 40.2302 61.4916 40.2888 61.4453 40.295C61.4268 40.295 61.399 40.2919 61.3836 40.2888C61.3712 40.2888 61.3527 40.2857 61.3404 40.2888C61.3342 40.2888 61.328 40.2888 61.3219 40.2888C61.2201 40.3166 61.1183 40.3443 61.0196 40.369L61.0103 40.3783ZM56.3091 40.8719C56.6175 40.7762 56.9137 40.6312 57.1851 40.4554C57.4072 40.3135 57.8638 39.9495 57.7929 39.604C57.7558 39.4282 57.5337 39.3449 57.3949 39.3079C57.1111 39.2338 56.778 39.2523 56.5034 39.2924C55.9821 39.3726 55.5409 39.5639 55.1337 39.9156C54.9641 40.0636 54.7481 40.3289 54.8037 40.6066C54.8283 40.733 54.8931 40.8163 54.9949 40.8749C55.0566 40.9089 55.1399 40.9397 55.1584 41.0168C55.1677 41.0693 55.143 41.1094 55.0967 41.1186C55.0258 41.131 54.9456 41.0693 54.887 41.023C54.7574 40.915 54.6618 40.804 54.6248 40.6312C54.5476 40.2425 54.8345 39.9217 55.0813 39.7243C55.4854 39.4004 55.9975 39.1999 56.5065 39.1258C56.8026 39.0796 57.1512 39.0642 57.4566 39.1382C57.6417 39.1845 57.8792 39.2832 57.9656 39.4899C57.9749 39.5145 57.9841 39.5392 57.9872 39.5639C58.0643 39.9248 57.7497 40.2364 57.5276 40.4276C57.29 40.6312 57.0525 40.767 56.778 40.8842C56.9877 40.8934 57.216 40.9089 57.4134 40.9767C57.4905 41.0014 57.5646 41.0353 57.6386 41.0693C57.8916 41.1865 58.1815 41.3593 58.2463 41.6739C58.3327 42.0842 57.9779 42.3988 57.6911 42.5654C57.4535 42.7104 57.1821 42.8245 56.9044 42.8739C56.6638 42.9171 56.3738 42.9325 56.1332 42.8677C56.0376 42.8461 55.945 42.8184 55.9235 42.7011C55.9235 42.6919 55.9204 42.6826 55.9173 42.6734C55.9111 42.6271 55.9173 42.5778 55.9173 42.5315C55.9296 42.3865 55.942 42.2446 55.9574 42.0996C55.9882 41.7942 56.0222 41.4857 56.0592 41.1803C55.9759 41.1988 55.8895 41.2204 55.8093 41.2389C55.7908 41.2451 55.7661 41.2513 55.7476 41.2544C55.6921 41.2636 55.6181 41.2544 55.6026 41.1772C55.5903 41.1156 55.6366 41.0662 55.6859 41.0539C55.8217 41.0138 55.9543 40.9767 56.09 40.9366C56.1147 40.7084 56.1425 40.4832 56.1672 40.258C56.1702 40.2302 56.1733 40.2055 56.1795 40.1778C56.1764 40.1284 56.1795 40.0791 56.1795 40.0235C56.1795 39.9927 56.1826 39.9587 56.1888 39.9279C56.198 39.8168 56.1949 39.7397 56.3091 39.7212C56.3677 39.712 56.4448 39.7336 56.4602 39.8076C56.4695 39.8446 56.4633 39.8847 56.4602 39.9186C56.4602 39.9464 56.4571 39.9773 56.4571 40.0081C56.4571 40.039 56.454 40.0698 56.4571 40.1006C56.451 40.1346 56.4448 40.1685 56.4355 40.2055C56.3923 40.4276 56.3553 40.6497 56.3152 40.8719H56.3091ZM59.2643 41.9299C59.2828 41.8374 59.3353 41.7449 59.4 41.7233C59.4278 41.714 59.4556 41.7109 59.4741 41.7418C59.4741 41.7418 59.4741 41.7449 59.4741 41.7479C59.4833 41.7572 59.4895 41.7634 59.4895 41.7757C59.4926 41.7973 59.4895 41.822 59.4802 41.8405C59.4648 41.8775 59.434 41.9515 59.4432 41.9947C59.4556 42.041 59.579 42.0657 59.6098 42.0688C59.7394 42.0842 59.8844 42.0718 60.0108 42.0503C60.0355 42.0472 60.3039 41.9947 60.3008 41.9546C60.2854 41.9114 60.1373 41.8312 60.0972 41.8127C59.9954 41.7695 59.8936 41.7263 59.7918 41.6832C59.5759 41.5906 59.3476 41.4826 59.289 41.2112C59.2335 40.9613 59.4093 40.7515 59.5728 40.6189C59.7024 40.514 59.8689 40.4184 60.0355 40.3906C60.2792 40.3505 60.4982 40.5078 60.5538 40.7731C60.5723 40.8595 60.5723 40.9582 60.563 41.0446C60.5538 41.1557 60.4982 41.4302 60.3718 41.4518C60.3317 41.458 60.2885 41.4271 60.2792 41.3839C60.2638 41.3253 60.2946 41.2729 60.3162 41.2204C60.3656 41.1001 60.3532 40.9582 60.3255 40.8256C60.2916 40.659 60.2299 40.5418 60.0571 40.5726C59.9245 40.5942 59.7795 40.6775 59.6746 40.7577C59.5605 40.8472 59.4432 40.9983 59.4772 41.1711C59.5204 41.3654 59.7085 41.458 59.8658 41.5258C59.9738 41.5721 60.088 41.6215 60.2021 41.6677C60.2977 41.7078 60.4736 41.8066 60.4982 41.9238C60.5414 42.1181 60.1712 42.1983 60.054 42.2199C59.9059 42.2446 59.3383 42.3094 59.2643 42.0749C59.2396 42.1397 59.1995 42.2076 59.1687 42.2477C59.0854 42.3495 58.9713 42.4204 58.8448 42.442C58.5857 42.4883 58.3512 42.3587 58.2895 42.0626C58.2186 41.7263 58.2895 41.2482 58.4283 40.9551C58.4993 40.804 58.6196 40.6343 58.7862 40.6066C58.8972 40.588 59.0021 40.6837 59.0299 40.8009C59.1008 41.131 58.9497 41.6091 58.6196 41.6646C58.561 41.6739 58.5147 41.6739 58.4623 41.6677C58.4561 41.7695 58.4468 41.8991 58.4715 41.9978C58.5147 42.1922 58.6566 42.2569 58.8232 42.2292C58.9589 42.2045 59.0792 42.1058 59.1255 41.967C59.1347 41.9299 59.1502 41.8991 59.1903 41.8929C59.2211 41.8868 59.252 41.9022 59.2705 41.9299H59.2643Z" fill="#FF6600"/>
<path fill-rule="evenodd" clip-rule="evenodd" d="M54.2484 41.4641C54.1188 41.4826 53.8782 41.9762 53.906 42.1119C53.9121 42.1489 54.0047 42.1582 54.0355 42.1551C54.2329 42.1274 54.3872 41.7541 54.3471 41.5659C54.3378 41.5196 54.3039 41.4549 54.2484 41.4641ZM53.8813 42.3711C53.8751 42.4821 53.8628 42.624 53.8813 42.7289C53.9276 42.9387 54.0972 43.0127 54.2946 42.9818C54.4551 42.9572 54.6 42.8523 54.6556 42.7011C54.671 42.661 54.6833 42.6302 54.7327 42.6209C54.779 42.6148 54.8283 42.6487 54.8407 42.695C54.8623 42.7937 54.7728 42.9387 54.7111 43.0065C54.6155 43.1176 54.4736 43.1947 54.3224 43.2163C54.017 43.2656 53.7394 43.1207 53.6684 42.7998C53.5913 42.4327 53.6838 41.9114 53.8443 41.5968C53.9306 41.4302 54.0725 41.2482 54.2731 41.2204C54.4026 41.2019 54.5291 41.3068 54.5569 41.4364C54.6371 41.7973 54.4551 42.3155 54.0602 42.3741C53.9923 42.3834 53.9399 42.3834 53.8751 42.3741L53.8813 42.3711ZM52.9312 42.5993C52.9929 42.479 53.0453 42.3371 53.1008 42.2168C53.1193 42.186 53.2211 41.9669 53.2736 41.9052C53.2736 41.9176 53.2736 41.9299 53.2797 41.9423C53.2797 42.1767 53.2859 42.4112 53.2859 42.6456C53.2797 42.7782 53.2859 42.9263 53.3168 43.059C53.3538 43.2225 53.4494 43.3397 53.6252 43.3119C53.6993 43.2996 53.8072 43.2502 53.7887 43.1577C53.7764 43.096 53.7054 43.0775 53.653 43.0929C53.6283 43.0991 53.6067 43.1052 53.5851 43.1083C53.5605 43.1083 53.5296 43.0312 53.5234 43.0127C53.5018 42.9078 53.4957 42.7258 53.4957 42.6178C53.4957 42.3926 53.4957 42.1705 53.4957 41.9484C53.4957 41.896 53.4957 41.8312 53.4833 41.7788C53.4648 41.6955 53.4031 41.6214 53.3137 41.6307C53.1224 41.6585 52.8448 42.2569 52.6905 42.6333C52.7368 42.3001 52.7862 41.9669 52.8324 41.6338C52.8787 41.3006 52.9281 40.9705 52.9713 40.6374C52.9774 40.5695 52.9898 40.5078 53.0083 40.4461C53.0268 40.3844 53.0453 40.2981 53.0299 40.2302C53.0175 40.1778 52.9527 40.1346 52.9003 40.1407C52.78 40.1562 52.7245 40.3166 52.7245 40.4245C52.7245 40.4708 52.7306 40.5171 52.7245 40.5634C52.6875 40.8379 52.6381 41.1094 52.6011 41.3839C52.5641 41.6554 52.5209 41.9299 52.4808 42.2045C52.4653 42.3217 52.4222 42.4543 52.3821 42.5654C52.3234 42.7412 52.2525 42.9201 52.1815 43.0898C52.1569 43.1453 52.0798 43.2996 52.0119 43.3088C51.9749 43.315 51.9502 43.2163 51.944 43.1916C51.944 43.1762 51.9378 43.1608 51.9378 43.1453C51.9286 43.0929 51.9255 43.0405 51.9286 42.988C51.9286 42.8338 51.9378 42.6826 51.9471 42.5284C51.9718 42.3402 51.9995 42.1551 52.0273 41.97C52.1569 41.9361 52.2833 41.8991 52.4098 41.8651C52.4654 41.8497 52.5024 41.8065 52.4869 41.7448C52.4715 41.6739 52.4006 41.6369 52.3327 41.6492C52.2957 41.6615 52.2556 41.6708 52.2216 41.6801C52.1692 41.6955 52.1229 41.7078 52.0705 41.7202C52.1229 41.4857 52.1754 41.2482 52.2278 41.0137C52.2402 40.952 52.2772 40.8225 52.2618 40.7546C52.2494 40.6898 52.1846 40.659 52.126 40.6652C52.1013 40.6682 52.0798 40.6713 52.0551 40.6867C51.9594 40.7423 51.9378 41.023 51.9255 41.1248C51.8916 41.3469 51.8607 41.5628 51.833 41.7819C51.7127 41.8127 51.5985 41.8435 51.4844 41.8713C51.4134 41.8898 51.2006 41.9268 51.1759 42.0132C51.1759 42.0286 51.1759 42.0441 51.1759 42.0626C51.1882 42.1243 51.2592 42.1582 51.3147 42.152H51.3209C51.3486 42.1428 51.3764 42.1366 51.4042 42.1274C51.5368 42.0965 51.6695 42.0626 51.8052 42.0286C51.7805 42.2014 51.7558 42.3741 51.7342 42.5469C51.7096 42.7443 51.7003 43.1022 51.7435 43.2965C51.7713 43.4261 51.8607 43.5433 52.0026 43.5217C52.2001 43.4908 52.2988 43.3119 52.3728 43.1484C52.3851 43.1114 52.3975 43.0775 52.4129 43.0435C52.4067 43.1484 52.3975 43.2656 52.4129 43.3335C52.4252 43.3983 52.4808 43.4384 52.5425 43.4261C52.6258 43.4137 52.6782 43.3397 52.706 43.2687C52.7769 43.0466 52.851 42.8214 52.9219 42.5993H52.9312Z" fill="#FF6600"/>
<path fill-rule="evenodd" clip-rule="evenodd" d="M49.2542 42.5315C49.2634 42.5037 49.2727 42.476 49.2758 42.4575C49.3128 42.2477 49.3498 42.0441 49.3899 41.8374C49.4485 41.5474 49.4886 41.1803 49.4362 40.8842C49.4362 40.8811 49.4362 40.8749 49.4362 40.8688C49.4269 40.8996 49.4146 40.9521 49.4115 40.9675C49.356 41.2204 49.3097 41.4796 49.2819 41.7418C49.2542 42.004 49.2388 42.2693 49.2573 42.5346L49.2542 42.5315ZM47.7982 43.7191C47.9246 43.787 48.1437 43.9135 48.2732 43.9135C48.3041 43.9135 48.338 43.9073 48.3688 43.9011C48.6742 43.8333 48.8038 43.3274 48.81 43.0405C48.81 42.9387 48.8007 42.8307 48.7791 42.7289C48.7452 42.5901 48.6465 42.297 48.4645 42.3371C48.2794 42.3773 48.1622 42.5377 48.0696 42.7012C47.8938 43.022 47.8444 43.349 47.7982 43.7191ZM50.775 42.4636C50.775 42.7536 50.775 43.0436 50.7812 43.3335C50.7873 43.7531 50.8058 44.2312 50.6146 44.6076C50.5313 44.7649 50.3863 44.9222 50.2166 44.9623C49.9452 45.024 49.7694 44.7803 49.6614 44.549C49.6028 44.4256 49.4208 43.9844 49.6429 43.9351C49.7169 43.9166 49.7663 43.9598 49.7879 44.0369C49.8002 44.0924 49.794 44.1387 49.7601 44.188C49.7323 44.2281 49.7323 44.222 49.7447 44.2713C49.7724 44.3855 49.8434 44.5675 49.9113 44.66C49.976 44.7526 50.0871 44.7988 50.192 44.7741C50.3987 44.7279 50.5159 44.4472 50.5621 44.2528C50.6022 44.077 50.6146 43.9011 50.6177 43.7161C50.6177 43.4508 50.5961 43.1824 50.5776 42.914C50.4696 43.2071 50.2814 43.6451 50.0192 43.7037C49.8804 43.7346 49.7879 43.6081 49.7539 43.4754C49.7077 43.2688 49.7077 43.022 49.7354 42.7783C49.7601 42.5346 49.8156 42.294 49.8835 42.0996C49.9143 42.004 49.9606 41.8374 50.0717 41.8127C50.1303 41.8004 50.1827 41.8436 50.1981 41.9053C50.2105 41.9639 50.1981 41.9978 50.1765 42.0503C50.1673 42.0657 50.1642 42.078 50.158 42.0904C50.1488 42.1027 50.1426 42.1181 50.1364 42.1305C50.121 42.1428 50.1087 42.1521 50.0933 42.1613C50.0686 42.1829 50.0717 42.1829 50.0593 42.2168C50.0501 42.2384 50.0408 42.2631 50.0316 42.2847C49.9205 42.5839 49.8526 43.059 49.9328 43.3798C49.939 43.4137 49.9791 43.5186 50.0254 43.5094C50.1241 43.4878 50.2783 43.1978 50.3184 43.1084C50.4295 42.8708 50.5467 42.5222 50.5467 42.2508C50.5467 42.1428 50.5621 42.004 50.6763 41.9793C50.7287 41.967 50.7966 42.0009 50.8089 42.0595C50.8182 42.0934 50.8089 42.1366 50.8089 42.1706C50.7935 42.2693 50.7812 42.368 50.775 42.4636ZM49.3159 43.059C49.3251 43.1515 49.3375 43.2348 49.3591 43.3243C49.3899 43.46 49.4393 43.5556 49.5596 43.6266C49.6089 43.6605 49.6398 43.6667 49.6953 43.6544C49.7015 43.6544 49.7077 43.6513 49.7138 43.6513C49.7663 43.6389 49.8187 43.6513 49.831 43.7099C49.8496 43.7778 49.7971 43.8117 49.7416 43.824C49.3714 43.9042 49.2172 43.5865 49.137 43.2533C49.0814 43.022 49.0598 42.7413 49.0537 42.4636C49.0475 42.186 49.066 41.9053 49.0938 41.6677C49.1215 41.3716 49.1616 41.0477 49.2357 40.7639C49.2665 40.659 49.3035 40.5665 49.4146 40.5449C49.5226 40.5202 49.5966 40.5942 49.6244 40.7053C49.683 40.9552 49.6552 41.3253 49.6244 41.5752C49.612 41.6955 49.5935 41.8158 49.5719 41.9361C49.5287 42.2168 49.4578 42.4945 49.3868 42.769C49.3622 42.8646 49.3406 42.9634 49.3128 43.059H49.3159ZM46.666 43.7562C46.7308 43.5464 46.8018 43.3397 46.8727 43.1299C46.9097 43.022 46.9838 42.8184 47.1072 42.7937C47.175 42.7783 47.2429 42.8338 47.2614 42.9017C47.2737 42.9634 47.2768 43.0436 47.2737 43.1084C47.2583 43.315 47.2367 43.7469 47.2799 43.9536C47.2892 43.9937 47.3354 44.1078 47.3879 44.0955C47.4126 44.0893 47.4341 44.043 47.4465 44.0245C47.4619 43.9968 47.4928 43.9628 47.5267 43.9567C47.5329 43.9567 47.539 43.9567 47.5452 43.9567C47.573 43.6852 47.6038 43.4076 47.6316 43.1361C47.6593 42.8647 47.684 42.5901 47.7149 42.3186C47.7241 42.223 47.7426 42.0996 47.8475 42.078C47.8969 42.0688 47.9647 42.0996 47.9771 42.1551C47.9863 42.2045 47.9678 42.2816 47.9493 42.3248C47.9246 42.3865 47.9092 42.4451 47.903 42.5099C47.8969 42.5623 47.8907 42.6117 47.8845 42.6641C48.011 42.4081 48.193 42.1582 48.4614 42.0996C48.7575 42.0379 48.9025 42.405 48.9611 42.6487C49.029 42.9356 49.0228 43.1886 48.9395 43.4662C48.8624 43.7407 48.6989 44.0492 48.412 44.114C48.1776 44.1634 47.9863 44.0739 47.7796 43.9567C47.7426 44.2991 47.7056 44.6446 47.6686 44.987C47.6624 45.0394 47.6563 45.1135 47.6686 45.169C47.6748 45.1844 47.684 45.2091 47.6933 45.2276C47.7056 45.2523 47.721 45.2862 47.7272 45.3109C47.7488 45.3973 47.684 45.4621 47.61 45.4775C47.5421 45.4929 47.4773 45.4621 47.4588 45.3849C47.4249 45.2307 47.4557 44.8729 47.4712 44.7125C47.4897 44.549 47.5082 44.3824 47.5267 44.2189C47.4897 44.2497 47.4496 44.2775 47.4095 44.2867C47.2645 44.3176 47.1442 44.1479 47.1164 44.0153C47.0948 43.9197 47.0886 43.8148 47.0856 43.7161C47.0794 43.5186 47.0856 43.3181 47.0917 43.1207C47.0917 43.1053 47.0856 43.0929 47.0856 43.0744C47.0701 43.0991 47.0485 43.1639 47.0455 43.1793C46.9406 43.5402 46.8326 43.9011 46.7246 44.2621C46.7061 44.3207 46.6691 44.3885 46.6074 44.4009C46.5488 44.4132 46.4809 44.3762 46.4686 44.3083C46.4593 44.2621 46.4655 44.2065 46.4655 44.1603C46.4748 43.9011 46.484 43.642 46.4933 43.3798C46.4933 43.3397 46.4933 43.2873 46.4871 43.2472C46.4316 43.3089 46.336 43.605 46.3174 43.6698C46.2311 43.9721 46.1509 44.2744 46.0645 44.5767C46.0522 44.6292 46.0059 44.6631 45.9565 44.6754C45.9041 44.6878 45.8424 44.66 45.827 44.5983V44.5921C45.8208 44.5675 45.8239 44.5397 45.8208 44.5119C45.8208 44.4194 45.8208 44.3269 45.8208 44.2312C45.8578 43.8549 45.8979 43.4816 45.9349 43.1053C45.9349 43.0837 45.9288 43.0621 45.9257 43.0405C45.9072 42.9263 45.9534 42.6641 46.0768 42.6395C46.1324 42.6271 46.191 42.6641 46.2064 42.7289C46.2126 42.7474 46.2095 42.7659 46.2064 42.7844C46.157 43.1392 46.1077 43.494 46.0614 43.8456C46.0923 43.7469 46.1262 43.642 46.157 43.5402C46.2064 43.3952 46.336 43.0281 46.5025 42.9911C46.5827 42.9726 46.6506 43.0405 46.666 43.1238C46.6876 43.2163 46.6784 43.2996 46.6753 43.3922C46.6753 43.5155 46.6691 43.6389 46.6691 43.7623L46.666 43.7562ZM45.3612 42.4513C45.4321 42.4359 45.5061 42.4729 45.5246 42.5531C45.5493 42.6641 45.4938 42.7875 45.3858 42.8091C45.3056 42.8245 45.2532 42.7968 45.2316 42.7073C45.21 42.5994 45.2532 42.4729 45.3581 42.4513H45.3612ZM45.4969 43.3983C45.4722 43.6297 45.4475 43.8641 45.4228 44.0986C45.4167 44.1788 45.4136 44.296 45.4321 44.3793C45.4414 44.4286 45.4876 44.4903 45.5401 44.4811H45.5462C45.5462 44.4811 45.5462 44.478 45.5493 44.4749C45.5493 44.4749 45.5493 44.4749 45.5524 44.4718C45.5678 44.4626 45.5956 44.441 45.6079 44.4379C45.648 44.4317 45.6881 44.4718 45.6974 44.5089C45.719 44.6014 45.6079 44.6754 45.5401 44.6909C45.3889 44.7217 45.2655 44.5952 45.2316 44.441C45.2069 44.3361 45.2007 44.2065 45.21 44.0986C45.2316 43.8425 45.2501 43.5865 45.2717 43.3305C45.2779 43.2225 45.284 43.0713 45.4074 43.0467C45.463 43.0343 45.5154 43.0682 45.5308 43.1299C45.5462 43.1978 45.5308 43.2996 45.5061 43.3675C45.5031 43.3798 45.4969 43.3922 45.4969 43.4014V43.3983ZM44.3493 43.5772C44.5283 43.6513 44.8213 43.7685 44.8707 43.9999C44.9139 44.1973 44.7689 44.3824 44.6393 44.4965C44.4326 44.6785 44.1427 44.7957 43.8774 44.8544C43.6491 44.9037 43.3375 44.8914 43.1247 44.7587C43.0074 44.6847 42.8748 44.5366 42.8439 44.3916C42.8347 44.3423 42.8378 44.2991 42.8563 44.2528C42.8686 44.2189 42.8902 44.1572 42.881 44.1171C42.8717 44.077 42.8254 44.0554 42.7884 44.0616C42.6558 44.0893 42.6188 44.3269 42.6465 44.4533C42.6805 44.6137 42.7761 44.7433 42.8964 44.8451C43.1833 45.0919 43.609 45.0919 43.9421 45.024C44.2475 44.9592 44.5714 44.8173 44.809 44.5983C44.9725 44.4472 45.1452 44.2096 45.0866 43.9598C45.0157 43.6513 44.6887 43.5155 44.4419 43.4107C44.3216 43.3582 44.1982 43.3058 44.0779 43.2533C43.9175 43.1855 43.7571 43.1145 43.6028 43.0374C43.5195 42.9942 43.4177 42.9479 43.3406 42.8893C43.211 42.7937 43.0691 42.6456 43.0321 42.476C42.9828 42.2477 43.0969 42.0102 43.2234 41.8436C43.4887 41.5012 43.8897 41.1989 44.3031 41.1125C44.5468 41.0631 44.9262 41.1341 45.0002 41.4487C45.0218 41.5444 45.0095 41.6677 44.9879 41.7603C44.9632 41.8775 44.9416 41.9947 44.92 42.1089C44.9015 42.1983 44.883 42.3248 44.9046 42.4204C44.9169 42.479 44.9786 42.5407 45.0372 42.5284C45.1545 42.5037 45.21 42.1582 45.2254 42.0564C45.2532 41.8775 45.2655 41.5752 45.2254 41.3963C45.1267 40.9552 44.6547 40.8132 44.2969 40.8873C43.902 40.9706 43.4116 41.2914 43.137 41.5999C42.9365 41.8251 42.7421 42.1644 42.8162 42.5006C42.8223 42.5346 42.8316 42.5654 42.8439 42.5963C42.9951 43.0127 43.5874 43.2564 43.9391 43.4014C44.081 43.46 44.2167 43.5155 44.3617 43.5742L44.3493 43.5772Z" fill="#FF6600"/>
<path fill-rule="evenodd" clip-rule="evenodd" d="M10.3701 41.1773H42.4059C40.0923 46.1006 42.9519 47.1433 49.3313 45.5484C55.5997 43.9783 63.1914 41.2143 67.1368 41.1711L69.6294 41.1773V47.6338H10.3701V41.1773Z" fill="#FF6600"/>
</svg>
