<svg width="80" height="80" viewBox="0 0 80 80" fill="none" xmlns="http://www.w3.org/2000/svg">
<path fill-rule="evenodd" clip-rule="evenodd" d="M36.5719 26.6075C37.9778 26.679 39.5063 26.6218 40.9104 26.6218C42.3531 26.6218 43.7957 26.6218 45.2383 26.6218C47.4983 26.6218 50.3779 26.5788 51.2464 29.256C52.0783 31.8204 50.5018 34.4425 49.1977 35.4618C47.3209 36.929 45.1316 37.1404 42.1839 37.0949L43.0509 33.5965C43.1907 33.0767 43.9344 30.3806 43.9594 30.0962L23.8405 30.0883L20.0059 44.4402L28.1621 44.4471C28.2963 44.2024 29.4334 39.7372 29.6296 39.0413L30.7143 34.9957C30.807 34.662 30.9715 33.8687 31.0893 33.6362L34.6293 33.6305L31.7607 44.4362C33.3009 44.4935 34.9076 44.4474 36.4414 44.4474C38.0095 44.4474 39.5776 44.4474 41.1456 44.4474C44.2982 44.4474 46.8551 44.3679 49.58 43.515C54.2739 42.0458 57.6875 38.9249 59.2677 34.4775C60.1064 32.1168 60.319 28.8431 59.5499 26.3131C57.948 21.043 53.0433 19.3958 47.8732 19.2775C46.3317 19.2422 44.7603 19.2702 43.2155 19.2702C41.6563 19.2702 40.0729 19.2431 38.5167 19.2742L36.5719 26.6075ZM30.4265 19.3066C28.1869 19.6112 26.4119 21.1879 25.7688 23.0914C24.8851 25.707 26.5472 27.812 29.2073 27.5225C31.3944 27.2845 33.246 25.5608 33.8562 23.7434C34.7262 21.1517 33.0752 18.9464 30.4265 19.3066Z" fill="#FE1600"/>
<path fill-rule="evenodd" clip-rule="evenodd" d="M39.7694 51.4508C39.7854 51.1847 40.0702 50.1185 40.1726 49.9664C40.6889 49.9523 42.3025 49.7864 41.9067 50.8478C41.6553 51.5224 40.6063 51.4863 39.7694 51.4508ZM36.0698 55.4896L38.6532 55.5062C38.7345 55.1523 39.1606 53.5046 39.2777 53.3064L39.8578 53.3013L40.7272 55.4974L43.4959 55.5055L42.4642 52.9592C42.908 52.6922 43.8339 52.5617 44.3536 51.4094C44.7572 50.5144 44.6429 49.362 44.0701 48.7124C43.5514 48.1242 42.5845 47.8312 41.571 47.7993C40.4808 47.7649 39.2346 47.7556 38.1462 47.7914L36.0698 55.4896ZM44.4803 55.4963L51.0801 55.5059L51.6477 53.3862L47.5831 53.3743L47.7925 52.5502L49.8574 52.547L50.3467 50.6966L48.3139 50.6835L48.4987 49.9149L52.5338 49.9144L53.0985 47.8007L46.5249 47.789L44.9777 53.541C44.8399 54.0265 44.5242 55.0209 44.4803 55.4963ZM11.7463 55.4865L18.374 55.5061L18.9385 53.3916L14.8831 53.3741C14.977 52.1802 15.243 52.6081 17.1328 52.5581L17.6404 50.7024L15.6075 50.6832C15.6114 50.477 15.7317 50.0527 15.8119 49.9204L19.7886 49.9138C19.8894 49.7517 20.3651 48.03 20.3746 47.8077L13.8236 47.7884L11.7463 55.4865ZM61.6089 52.5192C61.483 52.5854 60.2032 54.097 60.1458 54.2715C60.4651 54.6185 61.2543 55.0861 61.8188 55.2847C62.5923 55.5568 63.2126 55.674 64.1505 55.6481C65.7424 55.6041 67.066 54.813 67.3474 53.4669C67.9135 50.7591 64.3677 50.6694 64.0845 50.143C63.7385 49.4999 65.1783 49.6837 65.9729 50.0486C66.2766 50.1882 66.6213 50.48 66.8367 50.5483C67.0834 50.237 68.1485 49.0266 68.2531 48.8147C68.0756 48.4683 66.9807 47.997 66.5022 47.8666C65.8045 47.6764 64.9065 47.5529 64.1135 47.6907C62.6614 47.9431 61.388 48.7872 61.38 50.3675C61.3718 51.9834 63.0371 52.3054 64.2769 52.8269C65.1606 53.1986 64.7978 53.8207 63.3969 53.4679C63.056 53.382 62.7075 53.2221 62.4346 53.0693C62.1186 52.8926 61.8679 52.6514 61.6089 52.5192ZM53.885 52.5038C53.714 52.6431 52.4718 54.0906 52.4224 54.2715C53.6943 55.6572 57.2834 56.3253 58.9362 54.7041C59.7051 53.9499 60.0622 52.4752 59.1411 51.5653C58.7682 51.1969 58.2908 50.9694 57.7403 50.7521C57.3174 50.5852 56.2728 50.3168 56.3076 49.9907C56.3712 49.3974 57.884 49.8458 58.4695 50.1669C58.6897 50.2877 58.891 50.4504 59.0687 50.5423C59.268 50.4188 59.9409 49.5371 60.1759 49.2631C60.317 49.0985 60.4863 48.9838 60.5351 48.7549C59.3341 47.916 57.9321 47.4322 56.3615 47.6995C54.9423 47.941 53.6347 48.8139 53.656 50.3673C53.6852 52.5024 56.6574 52.5174 56.9674 53.0833C57.2815 53.6568 56.2297 53.6254 55.6054 53.4492C54.9463 53.2631 54.3225 52.8571 53.885 52.5038ZM19.037 55.4898C19.5947 55.5438 20.9189 55.5011 21.6244 55.5072C22.0856 55.5112 22.0309 55.4679 22.2461 55.2219C22.4846 54.9493 23.7169 53.4966 23.9283 53.4098L24.7511 55.5057L27.512 55.5046C27.46 55.0926 25.88 51.7435 25.8947 51.5901C25.9656 51.4202 27.3827 49.9188 27.6233 49.687C27.9163 49.4047 28.2076 49.063 28.4868 48.7631C28.6487 48.5892 29.2799 47.9809 29.3372 47.7913L26.9389 47.789C26.5977 47.7879 26.463 47.7233 26.2756 47.9158C25.9756 48.224 24.9665 49.478 24.7268 49.6181L24.027 47.7964L21.2625 47.7891C21.2721 47.9901 22.0481 49.7442 22.1777 50.0449C22.3348 50.4102 22.4901 50.7909 22.6585 51.166C22.8336 51.5561 22.6994 51.5268 22.1521 52.1179C21.8303 52.4656 19.2079 55.2194 19.037 55.4898ZM31.8935 51.5683C31.8745 51.3264 32.2299 50.1463 32.3105 49.8583C32.7042 49.8597 33.1233 49.8379 33.4126 50.0104C33.9408 50.3253 34.0224 51.6826 31.8935 51.5683ZM28.239 55.4991L30.7968 55.5045L31.3582 53.4247C32.9303 53.3379 33.6548 53.5304 34.8972 52.8234C36.6342 51.8347 37.2392 48.5743 34.3246 47.9246C33.2913 47.6943 31.4549 47.7838 30.289 47.7912L28.7368 53.5262C28.5957 54.0712 28.2845 54.9787 28.239 55.4991Z" fill="#FD1602"/>
<path d="M11.7229 59.4493L10.6857 58.0957H10.3701V60.0533H10.7084V58.6607L11.776 60.0533H12.061V58.0957H11.7229V59.4493ZM14.1368 58.0818H13.8208L12.967 60.0533H13.3162L13.5158 59.5807H14.4333L14.6302 60.0533H14.9906L14.1368 58.0818ZM14.3087 59.2759H13.6405L13.9732 58.4929L14.3087 59.2759ZM16.4148 59.6003L15.8299 58.0957H15.453L16.2596 60.0673H16.559L17.3656 58.0957H16.997L16.4148 59.6003ZM18.2909 58.0957V60.0533H18.6291V58.0957H18.2909ZM21.4532 59.7821V58.9599H20.6272V59.2591H21.1233V59.6273C21.0642 59.6725 20.9945 59.7084 20.9141 59.7359C20.8337 59.7629 20.7473 59.7765 20.6549 59.7765C20.5551 59.7765 20.465 59.7587 20.3846 59.7233C20.3043 59.6879 20.2349 59.6385 20.1768 59.5761C20.1185 59.5136 20.0737 59.4395 20.0423 59.3533C20.0109 59.2675 19.9951 59.1738 19.9951 59.0731C19.9951 58.978 20.0113 58.8881 20.0437 58.8042C20.076 58.7199 20.1203 58.6462 20.1768 58.5828C20.2331 58.5194 20.2996 58.4691 20.3763 58.4327C20.453 58.3964 20.5357 58.3782 20.6244 58.3782C20.6854 58.3782 20.7413 58.3833 20.7921 58.3936C20.8429 58.4039 20.8896 58.4178 20.9321 58.4355C20.9746 58.4533 21.0153 58.4752 21.0541 58.5012C21.0928 58.5273 21.1307 58.5562 21.1678 58.5879L21.3839 58.3278C21.334 58.285 21.2828 58.2473 21.2301 58.2146C21.1774 58.182 21.1215 58.1545 21.0623 58.1321C21.0032 58.1097 20.9391 58.0924 20.8697 58.0804C20.8004 58.0682 20.7232 58.0622 20.6383 58.0622C20.4922 58.0622 20.3579 58.0893 20.2349 58.1433C20.1121 58.1973 20.0062 58.2705 19.9176 58.3628C19.8288 58.4551 19.76 58.5627 19.711 58.6858C19.6621 58.8089 19.6376 58.9394 19.6376 59.0773C19.6376 59.2209 19.6615 59.3542 19.7097 59.4773C19.7577 59.6003 19.8255 59.707 19.9133 59.7975C20.0012 59.8878 20.1069 59.9587 20.2308 60.0099C20.3546 60.0612 20.4922 60.0869 20.6438 60.0869C20.7288 60.0869 20.8101 60.0789 20.8878 60.0631C20.9653 60.0473 21.0379 60.0254 21.1054 59.9974C21.1728 59.9694 21.2356 59.9368 21.2939 59.8995C21.352 59.8622 21.4052 59.8231 21.4532 59.7821ZM23.4735 58.0818H23.1575L22.3037 60.0533H22.6529L22.8526 59.5807H23.7701L23.967 60.0533H24.3273L23.4735 58.0818ZM23.6454 59.2759H22.9773L23.3099 58.4929L23.6454 59.2759ZM25.8042 58.4145H26.4196V58.0957H24.8451V58.4145H25.4605V60.0533H25.8042V58.4145ZM28.7891 58.0957H27.3532V60.0533H28.803V59.7429H27.6914V59.22H28.6644V58.9096H27.6914V58.4062H28.7891V58.0957ZM32.4504 58.0818H32.1344L31.2806 60.0533H31.6299L31.8295 59.5807H32.747L32.9438 60.0533H33.3042L32.4504 58.0818ZM32.6223 59.2759H31.9542L32.2869 58.4929L32.6223 59.2759ZM35.9648 59.0718C35.9648 58.9338 35.9399 58.8051 35.89 58.6858C35.84 58.5665 35.7693 58.463 35.6778 58.3754C35.5864 58.2878 35.4774 58.2193 35.3508 58.1699C35.2242 58.1205 35.0851 58.0957 34.9336 58.0957H34.2101V60.0533H34.9336C35.0851 60.0533 35.2242 60.0281 35.3508 59.9778C35.4774 59.9274 35.5864 59.8585 35.6778 59.7708C35.7693 59.6832 35.84 59.5793 35.89 59.4591C35.9399 59.3388 35.9648 59.2097 35.9648 59.0718ZM35.6072 59.0773C35.6072 59.1748 35.5911 59.2642 35.5587 59.3453C35.5264 59.4269 35.4806 59.4973 35.4224 59.556C35.3642 59.6152 35.293 59.6609 35.2099 59.6939C35.1262 59.7266 35.0338 59.7429 34.9318 59.7429H34.5483V58.4062H34.9318C35.0338 58.4062 35.1262 58.423 35.2099 58.4565C35.293 58.4906 35.3642 58.5371 35.4224 58.5973C35.4806 58.6569 35.5264 58.7278 35.5587 58.8093C35.5911 58.8904 35.6072 58.9799 35.6072 59.0773ZM37.6219 59.6003L37.037 58.0957H36.66L37.4667 60.0673H37.766L38.5727 58.0957H38.204L37.6219 59.6003ZM40.2049 58.0818H39.8888L39.0351 60.0533H39.3844L39.5839 59.5807H40.5015L40.6983 60.0533H41.0587L40.2049 58.0818ZM40.3767 59.2759H39.7087L40.0413 58.4929L40.3767 59.2759ZM43.3173 59.4493L42.2801 58.0957H41.9646V60.0533H42.3027V58.6607L43.3704 60.0533H43.6555V58.0957H43.3173V59.4493ZM46.4159 59.7401L46.1969 59.5164C46.1137 59.5947 46.0297 59.6567 45.9446 59.7024C45.8597 59.7481 45.7579 59.7708 45.6397 59.7708C45.5473 59.7708 45.4618 59.7527 45.3833 59.7164C45.3047 59.68 45.2369 59.6301 45.1796 59.5667C45.1223 59.5033 45.0779 59.4292 45.0465 59.3444C45.0151 59.2596 44.9993 59.1687 44.9993 59.0718C44.9993 58.9748 45.0151 58.8844 45.0465 58.8004C45.0779 58.7166 45.1223 58.6434 45.1796 58.5809C45.2369 58.5185 45.3047 58.4691 45.3833 58.4327C45.4618 58.3964 45.5473 58.3782 45.6397 58.3782C45.7505 58.3782 45.8494 58.4005 45.9363 58.4453C46.0231 58.49 46.1055 58.5488 46.183 58.6215L46.402 58.367C46.3558 58.3223 46.3068 58.2813 46.2551 58.244C46.2034 58.2067 46.1469 58.1745 46.086 58.1475C46.025 58.1204 45.958 58.0995 45.885 58.0845C45.8121 58.0697 45.7312 58.0622 45.6425 58.0622C45.4946 58.0622 45.3597 58.0888 45.2377 58.1419C45.1158 58.195 45.0105 58.2677 44.9218 58.36C44.833 58.4523 44.7642 58.56 44.7152 58.683C44.6662 58.806 44.6418 58.9375 44.6418 59.0773C44.6418 59.219 44.6667 59.3514 44.7166 59.4744C44.7665 59.5975 44.8353 59.7042 44.9231 59.7946C45.0109 59.8851 45.1149 59.9564 45.235 60.0085C45.3551 60.0608 45.4863 60.0869 45.6286 60.0869C45.7192 60.0869 45.8018 60.0789 45.8767 60.0631C45.9516 60.0473 46.0204 60.0239 46.0832 59.9932C46.1461 59.9624 46.2048 59.9261 46.2592 59.8841C46.3138 59.8421 46.3659 59.7942 46.4159 59.7401ZM48.7826 58.0957H47.3467V60.0533H48.7965V59.7429H47.6849V59.22H48.6579V58.9096H47.6849V58.4062H48.7826V58.0957ZM53.1951 59.0718C53.1951 58.9338 53.1702 58.8051 53.1203 58.6858C53.0704 58.5665 52.9997 58.463 52.9082 58.3754C52.8168 58.2878 52.7077 58.2193 52.5812 58.1699C52.4545 58.1205 52.3155 58.0957 52.164 58.0957H51.4404V60.0533H52.164C52.3155 60.0533 52.4545 60.0281 52.5812 59.9778C52.7077 59.9274 52.8168 59.8585 52.9082 59.7708C52.9997 59.6832 53.0704 59.5793 53.1203 59.4591C53.1702 59.3388 53.1951 59.2097 53.1951 59.0718ZM52.8375 59.0773C52.8375 59.1748 52.8214 59.2642 52.789 59.3453C52.7567 59.4269 52.711 59.4973 52.6527 59.556C52.5946 59.6152 52.5234 59.6609 52.4402 59.6939C52.3566 59.7266 52.2642 59.7429 52.1621 59.7429H51.7786V58.4062H52.1621C52.2642 58.4062 52.3566 58.423 52.4402 58.4565C52.5234 58.4906 52.5946 58.5371 52.6527 58.5973C52.711 58.6569 52.7567 58.7278 52.789 58.8093C52.8214 58.8904 52.8375 58.9799 52.8375 59.0773ZM55.6173 58.0957H54.1814V60.0533H55.6312V59.7429H54.5196V59.22H55.4926V58.9096H54.5196V58.4062H55.6173V58.0957ZM56.6119 60.0533H57.9702V59.7429H56.9501V58.0957H56.6119V60.0533ZM58.9205 58.0957V60.0533H59.2586V58.0957H58.9205ZM61.1486 59.6003L60.5637 58.0957H60.1867L60.9934 60.0673H61.2928L62.0994 58.0957H61.7308L61.1486 59.6003ZM64.4412 58.0957H63.0054V60.0533H64.4551V59.7429H63.3435V59.22H64.3165V58.9096H63.3435V58.4062H64.4412V58.0957ZM67.0824 60.0533L66.5585 59.3122C66.6269 59.2936 66.6893 59.267 66.7456 59.2325C66.802 59.1981 66.8505 59.1561 66.8912 59.1067C66.9318 59.0573 66.9637 59.0005 66.9868 58.9361C67.0099 58.8718 67.0214 58.7986 67.0214 58.7166C67.0214 58.6215 67.0048 58.5352 66.9716 58.4579C66.9383 58.3805 66.8907 58.3153 66.8288 58.2621C66.7669 58.209 66.6911 58.168 66.6015 58.1391C66.5119 58.1102 66.4116 58.0957 66.3007 58.0957H65.4358V60.0533H65.774V59.371H66.2023L66.6804 60.0533H67.0824ZM66.6749 58.7347C66.6749 58.8359 66.6389 58.9165 66.5663 58.9762C66.4943 59.0363 66.3968 59.0662 66.2744 59.0662H65.774V58.4062H66.2716C66.3996 58.4062 66.4989 58.4337 66.5692 58.4891C66.6398 58.5442 66.6749 58.6261 66.6749 58.7347ZM68.8587 59.2731L69.6294 58.0957H69.2385L68.6897 58.9627L68.1464 58.0957H67.7444L68.515 59.2815V60.0533H68.8587V59.2731Z" fill="black"/>
</svg>
