<svg width="80" height="80" viewBox="0 0 80 80" fill="none" xmlns="http://www.w3.org/2000/svg">
<path fill-rule="evenodd" clip-rule="evenodd" d="M23.8771 33.3333H20.0586L17.5642 44.2609H11.7369L10.3706 46.9242H20.8278L23.8771 33.3333ZM61.5103 42.0139C60.6537 42.4663 60.0444 43.2988 59.8815 44.2549C59.8815 44.2609 59.8815 44.264 59.8815 44.27C59.7488 45.0452 59.8785 45.7328 60.2404 46.1883C60.6024 46.6588 61.1905 46.9001 62.0562 46.9001C62.6836 46.9001 63.3381 46.7282 63.691 46.6015L64.1404 43.8206H62.5146L62.3578 44.7526H63.0606L62.8826 45.8595C62.7891 45.9078 62.4815 45.9349 62.2341 45.9349C61.5585 45.9349 61.1061 45.5579 61.0065 44.8943C61.0005 44.8551 60.9975 44.8129 60.9975 44.7707C61.0005 43.5642 61.6731 43.0545 61.6731 43.0545C61.7154 43.0122 61.7576 42.97 61.8058 42.9338C61.8058 42.9338 62.1859 42.5447 63.1058 42.5055C63.3622 42.4934 63.6578 42.5085 63.9986 42.5689C64.1132 42.59 64.2309 42.6111 64.3545 42.6412L64.5385 41.7032C64.5385 41.7032 64.439 41.6761 64.2671 41.6429H64.249C63.7302 41.5494 62.584 41.4468 61.5072 42.0139H61.5103ZM49.2735 42.4814C49.5148 42.4814 49.7199 42.5146 49.8919 42.5628L50.1151 41.5795C49.916 41.5373 49.6717 41.5102 49.3912 41.5102C47.8589 41.5102 46.4564 42.4965 46.1488 44.27C45.8894 45.7509 46.5951 46.876 48.3415 46.876C48.6311 46.876 48.8905 46.8488 49.1137 46.8066L49.2886 45.9018L49.3037 45.8294C49.1076 45.8686 48.8905 45.8957 48.6884 45.8957C47.8077 45.8957 47.3281 45.4071 47.3281 44.6048C47.3281 44.4781 47.3402 44.3424 47.3643 44.1976C47.5664 43.0424 48.3687 42.4784 49.2766 42.4784L49.2735 42.4814ZM68.3661 44.2187C68.1911 45.2442 67.6181 46.0134 66.8459 46.0134C66.0738 46.0134 65.745 45.2864 65.9199 44.2519C66.0949 43.2264 66.677 42.4573 67.4461 42.4573C68.2153 42.4573 68.5259 43.2716 68.3631 44.2187H68.3661ZM67.6422 41.5102C69.1895 41.5102 69.8289 42.7227 69.5786 44.1795C69.283 45.9108 68.1006 46.9604 66.6257 46.9604C65.1508 46.9604 64.4571 45.7781 64.7135 44.273C64.9849 42.6925 66.1522 41.5072 67.6422 41.5072V41.5102ZM58.2105 43.1781C58.1291 43.6396 57.7249 43.9382 57.1368 43.9382H56.6723L56.9317 42.4814C57.0191 42.4663 57.188 42.4422 57.4746 42.4422C58.0175 42.4512 58.298 42.6925 58.2135 43.1781H58.2105ZM57.4987 41.5584C56.8683 41.5584 56.2952 41.6067 55.9031 41.667L54.9772 46.876H56.1505L56.5184 44.8008H56.8744C57.3539 44.8099 57.547 44.9878 57.5711 45.6454C57.6103 46.2939 57.6586 46.7191 57.7159 46.876H58.9284C58.865 46.6709 58.8228 45.9832 58.7655 45.389C58.7203 44.9034 58.5815 44.5505 58.2437 44.4027V44.3786C58.7263 44.2127 59.2843 43.7512 59.4019 43.0786C59.4894 42.593 59.3838 42.225 59.1184 41.9747C58.7987 41.6761 58.2769 41.5584 57.4987 41.5584ZM51.8373 44.6289L52.347 43.5099C52.4858 43.2053 52.6366 42.8041 52.7693 42.4904H52.7844C52.8055 42.8041 52.8296 43.1962 52.8658 43.5099L52.9925 44.6289H51.8343H51.8373ZM53.7647 41.5976L54.4493 46.876H53.1735L53.0106 45.5217H51.5085L50.8932 46.876H49.6626L52.2083 41.5976H53.7647ZM29.0831 44.7164C27.9852 44.7164 26.8602 43.9895 26.8602 43.1208C26.8602 42.5357 27.4302 41.7092 28.6548 41.0125L31.2186 44.0468C31.2186 44.0468 30.178 44.7164 29.0831 44.7164ZM34.7113 44.0619L37.0911 46.9242H33.5169L32.7749 46.1129C31.7766 46.698 29.813 46.9966 28.9293 46.9966C26.079 46.9966 23.6449 45.8414 23.6449 43.3772C23.6449 40.913 26.8933 38.871 26.8933 38.871C24.8906 36.829 25.6537 34.3015 25.6537 34.3015L25.901 33.3333H34.5907C34.5907 33.3333 33.7492 34.8444 32.5397 36.9798C33.0524 35.4265 31.6408 35.0857 31.0587 35.0857C29.5928 35.0857 28.9504 36.3977 28.9504 36.9376C28.9504 37.4775 29.1495 37.9058 29.4058 38.3613C29.6622 38.8167 31.8701 40.9974 32.1566 41.1965C32.4401 41.3956 32.6844 41.667 32.8835 41.6942C33.4958 40.6385 33.4234 39.429 33.4234 39.429C33.4234 39.429 33.5079 39.4863 36.144 40.2826C36.144 42.0772 34.7053 44.0589 34.7053 44.0589L34.7113 44.0619ZM45.8954 35.9996H49.8134L48.803 37.01H44.4144L41.8929 46.9966H38.1739L40.6382 37.01H34.6691L36.6206 33.3333H52.4767L51.6232 34.1868H47.69L47.1773 34.7569H51.0531L50.3835 35.4265H46.4081L45.8954 35.9966V35.9996Z" fill="#008037"/>
</svg>
