<svg width="80" height="80" viewBox="0 0 80 80" fill="none" xmlns="http://www.w3.org/2000/svg">
<path fill-rule="evenodd" clip-rule="evenodd" d="M33.0626 36.7416H38.133L35.6378 45.6831H39.1471L41.6423 36.7416H45.7365L46.679 35.677H43.3633L43.8009 35.1805H47.125L47.5963 34.6503H44.1922L44.6298 33.9476H48.219L48.7661 33.3333H34.6237L33.0626 36.7416Z" fill="#ED3237"/>
<path fill-rule="evenodd" clip-rule="evenodd" d="M19.968 45.8052H10.3701L11.8428 43.4236L17.3634 43.4572L19.8755 33.4259H23.0776L20.5151 43.4572L19.968 45.8052Z" fill="#ED3237"/>
<path fill-rule="evenodd" clip-rule="evenodd" d="M34.8846 45.6789H31.7708L31.2364 45.0856C29.7511 45.9735 27.9754 46.4237 26.2082 46.1628C24.0327 45.7336 22.7241 44.4124 22.9093 42.2538C23.1996 40.7474 23.8602 39.4893 24.8364 38.4458C23.7466 36.2619 24.1464 34.764 24.8448 33.4048H32.3725L31.1144 36.2745C30.1382 34.3053 27.0497 34.8018 27.1717 37.4359L30.8577 41.5132C31.1733 41.1261 31.4931 40.2425 31.8087 39.241L34.123 40.394C33.7737 41.4543 33.374 42.5105 32.827 43.3941L32.8354 43.4025L34.8846 45.6789ZM29.3977 43.0364L26.5448 40.07C23.5825 42.2159 26.5869 45.7168 29.3977 43.0364Z" fill="#ED3237"/>
<path fill-rule="evenodd" clip-rule="evenodd" d="M47.0408 41.0041C47.0408 41.0209 47.0408 41.0462 47.0366 41.084C47.0324 41.1177 47.0282 41.1598 47.0198 41.2061C47.0114 41.2481 47.003 41.2944 46.9904 41.3449C46.9777 41.3954 46.9651 41.4375 46.9441 41.4796C46.9272 41.5174 46.9062 41.5511 46.8809 41.5805C46.8557 41.6058 46.8262 41.6184 46.7968 41.6184H45.1179L44.8865 42.7671H46.3129C46.3466 42.7671 46.3718 42.7798 46.3844 42.8008C46.4013 42.826 46.4097 42.8597 46.4097 42.9018C46.4097 42.9228 46.4055 42.9481 46.4055 42.9817C46.4013 43.0154 46.3928 43.0575 46.3844 43.1038C46.3802 43.1458 46.3718 43.1921 46.3592 43.2384C46.3466 43.2847 46.3297 43.3268 46.3129 43.3646C46.2961 43.4025 46.2708 43.4362 46.2498 43.4614C46.2245 43.4825 46.1993 43.4951 46.1698 43.4951H44.7434L44.4783 44.8205H46.1783C46.2077 44.8205 46.233 44.8332 46.2456 44.8626C46.2582 44.8836 46.2666 44.9215 46.2666 44.972C46.2666 44.9888 46.2666 45.0141 46.2624 45.052C46.2624 45.0898 46.254 45.1319 46.2456 45.174C46.2372 45.2203 46.2287 45.2666 46.2161 45.3128C46.2035 45.3591 46.1909 45.4012 46.1698 45.4433C46.153 45.4812 46.132 45.5148 46.1067 45.5401C46.0815 45.5611 46.0562 45.5737 46.0268 45.5737H43.6578C43.6199 45.5737 43.5863 45.5695 43.5526 45.5569C43.5189 45.5485 43.4937 45.5274 43.4769 45.5022C43.4558 45.4769 43.439 45.4475 43.4348 45.4096C43.4264 45.3718 43.4264 45.3255 43.4348 45.2708L44.2553 41.1682C44.2763 41.063 44.3226 40.983 44.3899 40.9368C44.4531 40.8905 44.5288 40.8652 44.6088 40.8652H46.9483C47.0114 40.8652 47.0408 40.9115 47.0408 41.0041ZM49.7296 43.1458L50.4533 45.2034C50.4786 45.2918 50.4954 45.3591 50.4996 45.4138C50.5038 45.4643 50.487 45.5064 50.4533 45.5316C50.4197 45.5611 50.365 45.5779 50.2892 45.5863C50.2093 45.5948 50.1041 45.5948 49.9652 45.5948C49.8643 45.5948 49.7885 45.5948 49.7296 45.5906C49.6707 45.5863 49.6286 45.5779 49.595 45.5653C49.5613 45.5527 49.5403 45.5401 49.5276 45.519C49.5108 45.5022 49.5024 45.4769 49.4898 45.4475L48.9175 43.7349L47.7099 45.4475C47.6888 45.4769 47.6678 45.5022 47.6426 45.519C47.6215 45.5401 47.5879 45.5527 47.5458 45.5653C47.5037 45.5779 47.4448 45.5863 47.3775 45.5906C47.3059 45.5948 47.2176 45.5948 47.1082 45.5948C46.9819 45.5948 46.881 45.5948 46.8094 45.5863C46.7379 45.5779 46.6874 45.5611 46.6664 45.5359C46.6453 45.5106 46.6453 45.4685 46.6706 45.418C46.6916 45.3675 46.7337 45.3002 46.7968 45.2161L48.3453 43.1416L47.6888 41.2271C47.6636 41.1429 47.6468 41.0756 47.6426 41.0209C47.6383 40.9704 47.6552 40.9326 47.6888 40.9073C47.7183 40.8779 47.773 40.861 47.8529 40.8568C47.9287 40.8484 48.0381 40.8442 48.1727 40.8442C48.2737 40.8442 48.3579 40.8484 48.4168 40.8526C48.4757 40.8568 48.522 40.8652 48.5556 40.8779C48.5893 40.8905 48.6146 40.9073 48.6272 40.9283C48.644 40.9494 48.6566 40.9788 48.665 41.0125L49.1658 42.5483L50.2682 40.9915C50.285 40.9662 50.3061 40.941 50.3313 40.9199C50.3524 40.9031 50.3818 40.8863 50.4197 40.8736C50.4618 40.8652 50.5123 40.8568 50.5754 40.8526C50.6385 40.8484 50.7226 40.8442 50.8278 40.8442C50.9625 40.8442 51.0677 40.8484 51.1434 40.8568C51.2192 40.861 51.2654 40.8779 51.2907 40.9073C51.3117 40.9326 51.3117 40.9704 51.2907 41.0209C51.2697 41.0756 51.2276 41.1429 51.1687 41.2271L49.7296 43.1458ZM55.0188 42.0224C55.0188 42.157 55.002 42.3001 54.9725 42.4473C54.943 42.5946 54.8925 42.7419 54.8252 42.8808C54.7579 43.0238 54.6695 43.1585 54.5601 43.2847C54.4507 43.4109 54.3203 43.5245 54.1646 43.6255C54.0089 43.7223 53.8238 43.8023 53.6176 43.857C53.4114 43.9159 53.1716 43.9411 52.8939 43.9411H52.4015L52.0986 45.4475C52.0944 45.4727 52.0818 45.4938 52.0649 45.5148C52.0439 45.5316 52.0144 45.5485 51.9724 45.5611C51.9303 45.5737 51.8798 45.5821 51.8167 45.5863C51.7536 45.5948 51.6736 45.5948 51.5852 45.5948C51.4927 45.5948 51.4211 45.5948 51.358 45.5863C51.2991 45.5821 51.2528 45.5737 51.2192 45.5611C51.1855 45.5485 51.1645 45.5316 51.1518 45.5148C51.1392 45.498 51.135 45.4727 51.1434 45.4475L51.9934 41.2103C52.0144 41.0967 52.0607 41.0083 52.1365 40.9536C52.208 40.8947 52.2964 40.8652 52.4015 40.8652H53.4324C53.5587 40.8652 53.6723 40.8694 53.7691 40.8779C53.8701 40.8863 53.9668 40.9031 54.0636 40.9199C54.2109 40.9494 54.3455 40.9957 54.4634 41.0546C54.5812 41.1177 54.678 41.1934 54.7621 41.2818C54.8463 41.3744 54.9094 41.4796 54.9515 41.6058C54.9935 41.7278 55.0188 41.8667 55.0188 42.0224ZM54.0131 42.1276C54.0131 42.0139 53.9837 41.913 53.929 41.8246C53.8743 41.7404 53.7859 41.6815 53.6723 41.6479C53.6176 41.631 53.5629 41.6184 53.4998 41.6142C53.4367 41.6058 53.3651 41.6058 53.2894 41.6058H52.8686L52.5488 43.2047H52.9864C53.1253 43.2047 53.2431 43.1879 53.3399 43.1543C53.4409 43.1248 53.525 43.0785 53.6008 43.028C53.6765 42.9733 53.7396 42.9102 53.7901 42.8387C53.8448 42.7629 53.8869 42.6872 53.9206 42.6072C53.95 42.5273 53.9753 42.4473 53.9879 42.3632C54.0047 42.2832 54.0131 42.2033 54.0131 42.1276ZM59.0414 41.8919C59.0414 42.0518 59.0204 42.2033 58.9783 42.3548C58.9362 42.5105 58.8689 42.6535 58.7763 42.7882C58.6838 42.927 58.5617 43.0491 58.4187 43.1585C58.2714 43.2679 58.0905 43.3562 57.8801 43.4193C57.9979 43.4656 58.0947 43.5582 58.1746 43.6929C58.2546 43.8317 58.3219 44.0168 58.3724 44.2567L58.5533 45.2119C58.5659 45.2666 58.5744 45.3128 58.5828 45.3549C58.5912 45.397 58.5954 45.4349 58.5954 45.4643C58.5954 45.4854 58.587 45.5064 58.5701 45.5232C58.5533 45.5401 58.5281 45.5527 58.4818 45.5653C58.4397 45.5779 58.385 45.5863 58.3135 45.5906C58.2419 45.5948 58.1494 45.5948 58.04 45.5948C57.939 45.5948 57.8548 45.5948 57.7959 45.5863C57.737 45.5821 57.6865 45.5737 57.6528 45.5569C57.6192 45.5443 57.5981 45.5274 57.5897 45.5064C57.5771 45.4854 57.5687 45.4601 57.5645 45.4307L57.3835 44.3871C57.3667 44.2651 57.3373 44.1599 57.3036 44.0673C57.2741 43.9748 57.2279 43.899 57.1774 43.8359C57.1269 43.7728 57.0638 43.7265 56.9922 43.6971C56.9165 43.6676 56.8281 43.6508 56.7229 43.6508H56.42L56.0623 45.4475C56.0623 45.4727 56.0497 45.4938 56.0286 45.5148C56.0076 45.5316 55.9782 45.5485 55.9403 45.5611C55.8982 45.5737 55.8477 45.5821 55.7846 45.5863C55.7215 45.5948 55.6415 45.5948 55.549 45.5948C55.4564 45.5948 55.3849 45.5948 55.326 45.5863C55.2628 45.5821 55.2165 45.5737 55.1829 45.5611C55.1492 45.5485 55.1282 45.5316 55.1156 45.5148C55.1029 45.498 55.0987 45.4727 55.1071 45.4475L55.9655 41.1682C55.9866 41.063 56.0286 40.983 56.0918 40.9368C56.1591 40.8905 56.239 40.8652 56.3274 40.8652H57.5897C57.8127 40.8652 58.0105 40.8863 58.1914 40.9283C58.3682 40.9704 58.5196 41.0335 58.6459 41.1177C58.7763 41.2018 58.8731 41.3113 58.9404 41.4375C59.0078 41.5679 59.0414 41.7194 59.0414 41.8919ZM58.0147 42.0729C58.0147 42.0055 58.0021 41.9424 57.9768 41.8835C57.9558 41.8246 57.9179 41.7741 57.8674 41.7278C57.817 41.6857 57.7496 41.6563 57.6697 41.631C57.5855 41.6058 57.4887 41.5974 57.3751 41.5974H56.8323L56.563 42.9355H57.0217C57.2026 42.9355 57.3583 42.9102 57.4845 42.8597C57.6108 42.805 57.7118 42.7377 57.7917 42.6535C57.8674 42.5736 57.9264 42.481 57.96 42.38C57.9979 42.279 58.0147 42.1781 58.0147 42.0729ZM62.9378 41.0041C62.9378 41.0209 62.9378 41.0462 62.9336 41.084C62.9294 41.1177 62.921 41.1598 62.9168 41.2061C62.9084 41.2481 62.8999 41.2944 62.8873 41.3449C62.8747 41.3954 62.8579 41.4375 62.841 41.4796C62.8242 41.5174 62.799 41.5511 62.7737 41.5805C62.7485 41.6058 62.7232 41.6184 62.6938 41.6184H61.0149L60.7834 42.7671H62.2099C62.2435 42.7671 62.2688 42.7798 62.2814 42.8008C62.2982 42.826 62.3024 42.8597 62.3024 42.9018C62.3024 42.9228 62.3024 42.9481 62.2982 42.9817C62.294 43.0154 62.2898 43.0575 62.2814 43.1038C62.2772 43.1458 62.2646 43.1921 62.2519 43.2384C62.2393 43.2847 62.2267 43.3268 62.2057 43.3646C62.1888 43.4025 62.1678 43.4362 62.1425 43.4614C62.1173 43.4825 62.0921 43.4951 62.0626 43.4951H60.6362L60.3711 44.8205H62.0752C62.1047 44.8205 62.1257 44.8332 62.1383 44.8626C62.1552 44.8836 62.1636 44.9215 62.1636 44.972C62.1636 44.9888 62.1594 45.0141 62.1594 45.052C62.1552 45.0898 62.151 45.1319 62.1425 45.174C62.1341 45.2203 62.1257 45.2666 62.1131 45.3128C62.1005 45.3591 62.0836 45.4012 62.0668 45.4433C62.05 45.4812 62.0289 45.5148 62.0037 45.5401C61.9784 45.5611 61.9532 45.5737 61.9195 45.5737H59.5548C59.5169 45.5737 59.479 45.5695 59.4496 45.5569C59.4159 45.5485 59.3907 45.5274 59.3696 45.5022C59.3486 45.4769 59.336 45.4475 59.3275 45.4096C59.3191 45.3718 59.3233 45.3255 59.3317 45.2708L60.1523 41.1682C60.1733 41.063 60.2154 40.983 60.2827 40.9368C60.35 40.8905 60.4258 40.8652 60.5057 40.8652H62.841C62.9041 40.8652 62.9378 40.9115 62.9378 41.0041ZM66.1568 41.2271C66.1568 41.2481 66.1525 41.2776 66.1483 41.3155C66.1441 41.3491 66.1399 41.3912 66.1315 41.4333C66.1273 41.4754 66.1147 41.5216 66.1063 41.5679C66.0936 41.61 66.081 41.6521 66.0642 41.6899C66.0474 41.7278 66.0305 41.7573 66.0095 41.7825C65.9884 41.8078 65.9674 41.8204 65.9464 41.8204C65.9127 41.8204 65.8706 41.8036 65.8201 41.7741C65.7696 41.7447 65.7065 41.711 65.6308 41.6731C65.555 41.6395 65.4709 41.6058 65.3699 41.5763C65.2731 41.5427 65.1595 41.5301 65.0333 41.5301C64.9028 41.5301 64.7934 41.5469 64.7009 41.5848C64.6125 41.6184 64.5368 41.6689 64.4779 41.7278C64.4189 41.7867 64.3769 41.8541 64.3516 41.9298C64.3222 42.0013 64.3095 42.0771 64.3095 42.1528C64.3095 42.237 64.3306 42.3169 64.3727 42.3842C64.4189 42.4516 64.4736 42.5105 64.5494 42.5694C64.6209 42.6241 64.7051 42.6788 64.7976 42.7335C64.8902 42.7882 64.987 42.8429 65.0838 42.9018C65.1763 42.9565 65.2731 43.0238 65.3657 43.0911C65.4583 43.1627 65.5424 43.2384 65.6182 43.331C65.6897 43.4236 65.7486 43.5245 65.7907 43.6424C65.8328 43.7602 65.858 43.899 65.858 44.0505C65.858 44.2777 65.8117 44.4881 65.7192 44.6859C65.6266 44.8794 65.4961 45.0478 65.3278 45.195C65.1553 45.3381 64.9533 45.4517 64.7135 45.5316C64.4736 45.6158 64.2086 45.6579 63.9182 45.6579C63.7583 45.6579 63.6153 45.6453 63.4806 45.6158C63.3502 45.5948 63.2281 45.5611 63.1272 45.5232C63.0262 45.4896 62.9378 45.4517 62.8705 45.4096C62.799 45.3675 62.7443 45.3297 62.7106 45.296C62.6769 45.2581 62.6601 45.2034 62.6601 45.1319C62.6601 45.1109 62.6643 45.0814 62.6685 45.0435C62.6727 45.0015 62.6811 44.9594 62.6896 44.9173C62.698 44.871 62.7064 44.8247 62.719 44.7785C62.7316 44.7322 62.7443 44.6859 62.7611 44.648C62.7779 44.6101 62.799 44.5765 62.82 44.5512C62.841 44.5302 62.8621 44.5176 62.8831 44.5176C62.9252 44.5176 62.9757 44.5344 63.0304 44.5723C63.0893 44.6101 63.1608 44.6522 63.245 44.6985C63.3291 44.7406 63.4301 44.7869 63.5479 44.8247C63.6615 44.8626 63.8004 44.8836 63.9645 44.8836C64.1076 44.8836 64.2338 44.8626 64.3432 44.8289C64.4526 44.7911 64.541 44.7406 64.6125 44.6775C64.6882 44.6144 64.7429 44.5428 64.7808 44.4587C64.8187 44.3787 64.8355 44.2861 64.8355 44.1894C64.8355 44.0968 64.8145 44.0168 64.7724 43.9537C64.7261 43.8822 64.6714 43.8233 64.5999 43.7644C64.5283 43.7055 64.4442 43.6508 64.3558 43.6003C64.2633 43.5498 64.1707 43.4993 64.0781 43.4404C63.9813 43.3815 63.8888 43.3184 63.8004 43.251C63.7078 43.1837 63.6279 43.1038 63.5564 43.0112C63.4848 42.9186 63.4259 42.8176 63.3838 42.6956C63.3375 42.5778 63.3165 42.4389 63.3165 42.2832C63.3165 42.0644 63.3586 41.8625 63.447 41.6773C63.5353 41.4964 63.6573 41.3365 63.8088 41.2061C63.9645 41.0714 64.1496 40.9704 64.3642 40.8947C64.5788 40.8231 64.8187 40.7853 65.0754 40.7853C65.1974 40.7853 65.3152 40.7937 65.4246 40.8105C65.534 40.8316 65.635 40.8526 65.7234 40.8821C65.8117 40.9073 65.8917 40.941 65.9548 40.9746C66.0179 41.0083 66.06 41.0377 66.0852 41.0588C66.1105 41.084 66.1273 41.1093 66.1399 41.1303C66.1483 41.1598 66.1568 41.1892 66.1568 41.2271ZM69.6198 41.2271C69.6198 41.2481 69.6198 41.2776 69.6155 41.3155C69.6113 41.3491 69.6071 41.3912 69.5987 41.4333C69.5903 41.4754 69.5819 41.5216 69.5693 41.5679C69.5608 41.61 69.544 41.6521 69.5314 41.6899C69.5146 41.7278 69.4935 41.7573 69.4767 41.7825C69.4557 41.8078 69.4346 41.8204 69.4136 41.8204C69.3799 41.8204 69.3378 41.8036 69.2831 41.7741C69.2326 41.7447 69.1695 41.711 69.098 41.6731C69.0222 41.6395 68.9381 41.6058 68.8371 41.5763C68.7361 41.5427 68.6267 41.5301 68.5005 41.5301C68.37 41.5301 68.2564 41.5469 68.1681 41.5848C68.0755 41.6184 68.004 41.6689 67.9451 41.7278C67.8862 41.7867 67.8441 41.8541 67.8146 41.9298C67.7894 42.0013 67.7725 42.0771 67.7725 42.1528C67.7725 42.237 67.7978 42.3169 67.8399 42.3842C67.8819 42.4516 67.9409 42.5105 68.0166 42.5694C68.0881 42.6241 68.1723 42.6788 68.2649 42.7335C68.3574 42.7882 68.4542 42.8429 68.5468 42.9018C68.6436 42.9565 68.7403 43.0238 68.8329 43.0911C68.9255 43.1627 69.0096 43.2384 69.0812 43.331C69.1569 43.4236 69.2158 43.5245 69.2579 43.6424C69.3 43.7602 69.3252 43.899 69.3252 44.0505C69.3252 44.2777 69.2789 44.4881 69.1864 44.6859C69.0938 44.8794 68.9633 45.0478 68.795 45.195C68.6225 45.3381 68.4205 45.4517 68.1807 45.5316C67.9408 45.6158 67.6758 45.6579 67.3812 45.6579C67.2255 45.6579 67.0825 45.6453 66.9478 45.6158C66.8132 45.5948 66.6954 45.5611 66.5944 45.5232C66.4934 45.4896 66.405 45.4517 66.3335 45.4096C66.2662 45.3675 66.2115 45.3297 66.1778 45.296C66.1441 45.2581 66.1273 45.2034 66.1273 45.1319C66.1273 45.1109 66.1315 45.0814 66.1357 45.0435C66.1399 45.0015 66.1483 44.9594 66.1568 44.9173C66.1652 44.871 66.1736 44.8247 66.1862 44.7785C66.1988 44.7322 66.2115 44.6859 66.2283 44.648C66.2451 44.6101 66.2662 44.5765 66.283 44.5512C66.304 44.5302 66.3251 44.5176 66.3503 44.5176C66.3924 44.5176 66.4387 44.5344 66.4976 44.5723C66.5565 44.6101 66.6238 44.6522 66.7122 44.6985C66.7963 44.7406 66.8973 44.7869 67.0151 44.8247C67.1287 44.8626 67.2676 44.8836 67.4317 44.8836C67.5748 44.8836 67.701 44.8626 67.8104 44.8289C67.9156 44.7911 68.0082 44.7406 68.0797 44.6775C68.1554 44.6144 68.2102 44.5428 68.2438 44.4587C68.2859 44.3787 68.3027 44.2861 68.3027 44.1894C68.3027 44.0968 68.2817 44.0168 68.2354 43.9537C68.1933 43.8822 68.1386 43.8233 68.0629 43.7644C67.9956 43.7055 67.9114 43.6508 67.823 43.6003C67.7305 43.5498 67.6379 43.4993 67.5411 43.4404C67.4485 43.3815 67.356 43.3184 67.2634 43.251C67.175 43.1837 67.0909 43.1038 67.0236 43.0112C66.9478 42.9186 66.8931 42.8176 66.851 42.6956C66.8048 42.5778 66.7837 42.4389 66.7837 42.2832C66.7837 42.0644 66.8258 41.8625 66.9142 41.6773C67.0025 41.4964 67.1203 41.3365 67.276 41.2061C67.4317 41.0714 67.6169 40.9704 67.8315 40.8947C68.0461 40.8231 68.2859 40.7853 68.5426 40.7853C68.6646 40.7853 68.7824 40.7937 68.8918 40.8105C69.0012 40.8316 69.098 40.8526 69.1906 40.8821C69.2789 40.9073 69.3589 40.941 69.422 40.9746C69.4851 41.0083 69.5272 41.0377 69.5524 41.0588C69.5777 41.084 69.5945 41.1093 69.6071 41.1303C69.6155 41.1598 69.6198 41.1892 69.6198 41.2271Z" fill="#ED3237"/>
</svg>
