<svg width="80" height="80" viewBox="0 0 80 80" fill="none" xmlns="http://www.w3.org/2000/svg">
<path fill-rule="evenodd" clip-rule="evenodd" d="M49.3837 45.1849L53.1128 27.4074H67.042L66.1105 31.8525H59.1436L58.6779 34.0743H64.6032L63.6732 38.5195H57.7463L57.2806 40.7413H64.2475L63.3159 45.1849H49.3837Z" fill="#1E3378"/>
<path fill-rule="evenodd" clip-rule="evenodd" d="M10.3706 45.1849C22.7594 39.2596 39.5254 35.4822 54.8173 34.0743C58.9489 33.6945 63.0428 33.482 68.7405 33.482C68.9621 33.482 69.3329 33.4081 69.6299 33.3342L68.4798 38.8164C68.418 39.1118 67.9251 39.2611 67.5558 39.2611C32.6188 39.2596 11.7046 45.1864 11.7046 45.1864H10.3706V45.1849Z" fill="#E11B22"/>
<path fill-rule="evenodd" clip-rule="evenodd" d="M29.1309 45.1849L32.8585 27.4074H39.5269L43.4912 35.4822L45.184 27.4074H51.8509L48.1232 45.1849H41.4578L37.5538 36.8147L35.7993 45.1849H29.1309Z" fill="#1E3378"/>
<path fill-rule="evenodd" clip-rule="evenodd" d="M22.7593 37.7779L24.9329 27.4074H31.5998L28.9906 39.8519C28.1827 43.7032 25.1846 45.1849 21.2068 45.1849H16.2959L17.4143 39.8519H19.6376C21.267 39.8519 22.4488 39.2596 22.7593 37.7779Z" fill="#1E3378"/>
<path d="M44.1348 51.0876L44.275 50.144H45.7567L45.8909 49.1462H44.4107L44.5117 48.397H46.0431L46.1773 47.3992H43.7972L43.1671 52.0855H45.6588L45.7959 51.0876H44.1348Z" fill="#1E3378"/>
<path d="M49.3773 47.3992H48.3433L47.8549 48.2538C47.7811 48.385 47.6952 48.5402 47.5987 48.7211C47.5233 48.4784 47.4811 48.3458 47.4736 48.3186L47.1646 47.4007H46.2798L47.0274 49.7024L45.6859 52.087H46.741L47.1721 51.3333C47.2716 51.1569 47.353 51.0107 47.4163 50.8916C47.4525 51.0152 47.4977 51.1615 47.552 51.3303L47.7947 52.087H48.7307L47.9876 49.8742L49.3758 47.4007L49.3773 47.3992Z" fill="#1E3378"/>
<path d="M51.7589 48.6397C51.7589 48.3834 51.7197 48.1573 51.6443 47.9674C51.5644 47.7685 51.4499 47.6222 51.3082 47.5318C51.168 47.4444 50.9796 47.3992 50.749 47.3992H49.4738L48.8407 52.0855H49.6893L49.9169 50.3972H50.1807C50.446 50.3972 50.6239 50.3867 50.7264 50.3641C50.9012 50.3264 51.0444 50.2691 51.1514 50.1938C51.2585 50.1184 51.3579 50.0099 51.4484 49.8697C51.5373 49.731 51.6097 49.5531 51.67 49.3255C51.7287 49.104 51.7574 48.8733 51.7574 48.6397M50.1867 48.385H50.4958C50.7414 48.385 50.7957 48.4121 50.8017 48.4151C50.8334 48.4332 50.8575 48.4618 50.8756 48.504C50.8982 48.5553 50.9103 48.6261 50.9103 48.7151C50.9103 48.8552 50.8831 48.9849 50.8319 49.0994C50.7821 49.208 50.7203 49.2833 50.6389 49.3316C50.5922 49.3587 50.4566 49.4054 50.0812 49.4054H50.0481L50.1867 48.385Z" fill="#1E3378"/>
<path d="M54.0063 50.4425C53.9641 50.3339 53.9204 50.2375 53.8752 50.1546C54.1209 50.0686 54.3123 49.9119 54.4465 49.6873C54.6032 49.4235 54.6831 49.0889 54.6831 48.6894C54.6831 48.4106 54.6424 48.1679 54.5625 47.9674C54.4766 47.7549 54.359 47.6057 54.2128 47.5213C54.0696 47.4399 53.8827 47.4007 53.6385 47.4007H52.2563L51.6232 52.087H52.4719L52.7191 50.254H52.8457C52.9844 50.254 53.0311 50.2872 53.0431 50.3008C53.0959 50.3581 53.1788 50.4952 53.2707 50.8253C53.417 51.3484 53.5164 51.7388 53.5662 51.9845L53.5873 52.0885H54.4902L54.4495 51.9272C54.2882 51.2926 54.139 50.7952 54.0063 50.444M52.9663 48.3985H53.5014C53.7049 48.3985 53.7501 48.4362 53.7501 48.4362C53.8074 48.492 53.8375 48.5824 53.8375 48.706C53.8375 48.8236 53.8119 48.9366 53.7621 49.0437C53.7154 49.1446 53.6536 49.2155 53.5722 49.2607C53.5255 49.2878 53.3898 49.3316 53.007 49.3316H52.8427L52.9678 48.4L52.9663 48.3985Z" fill="#1E3378"/>
<path d="M57.2366 50.144L57.3708 49.1462H55.8906L55.9916 48.397H57.523L57.6572 47.3992H55.2771L54.6455 52.0855H57.1387L57.2758 51.0876H55.6133L55.7549 50.144H57.2366Z" fill="#1E3378"/>
<path d="M59.0122 48.3036C59.1373 48.3036 59.2232 48.3412 59.2835 48.4211C59.3528 48.5131 59.3935 48.6533 59.4071 48.8387L59.4161 48.9683L60.2346 48.911L60.2286 48.7859C60.209 48.3563 60.099 48.0051 59.8985 47.7413C59.6905 47.4655 59.3935 47.3253 59.0167 47.3253C58.6399 47.3253 58.3535 47.467 58.1545 47.7474C57.9661 48.0142 57.8696 48.3503 57.8696 48.7497C57.8696 48.9773 57.9013 49.1808 57.9646 49.3527C58.0294 49.529 58.1213 49.6752 58.2359 49.7883C58.3444 49.8938 58.5087 50.0219 58.7394 50.1772C59.0122 50.3611 59.0906 50.4394 59.1162 50.4726C59.1689 50.5404 59.1946 50.6233 59.1946 50.7258C59.1946 50.8479 59.1614 50.9474 59.0951 51.0318C59.0348 51.1072 58.9308 51.1434 58.7785 51.1434C58.5359 51.1434 58.456 51.0469 58.4153 50.9746C58.3912 50.9308 58.3489 50.8072 58.3399 50.4741L58.3354 50.3385L57.5229 50.4033V50.5208C57.5154 50.8298 57.5531 51.1072 57.63 51.3484C57.7129 51.6016 57.8576 51.8036 58.0595 51.9468C58.2615 52.09 58.5012 52.1623 58.7725 52.1623C59.1704 52.1623 59.487 52.0041 59.7101 51.6935C59.9241 51.3951 60.0342 51.0333 60.0342 50.6173C60.0342 50.2767 59.9588 49.9918 59.8126 49.7702C59.7116 49.618 59.4945 49.431 59.1478 49.1989C58.8916 49.0271 58.7936 48.9306 58.7544 48.8794C58.7077 48.8191 58.6851 48.7422 58.6851 48.6442C58.6851 48.5387 58.7107 48.4543 58.762 48.388C58.8057 48.3322 58.8886 48.3051 59.0092 48.3051" fill="#1E3378"/>
<path d="M61.9048 49.1974C61.6485 49.0256 61.5506 48.9291 61.5114 48.8779C61.4646 48.8176 61.442 48.7407 61.442 48.6427C61.442 48.5372 61.4677 48.4528 61.5189 48.3865C61.5626 48.3307 61.6455 48.3036 61.7661 48.3036C61.8867 48.3036 61.9771 48.3412 62.0374 48.4211C62.1068 48.5131 62.1475 48.6533 62.1595 48.8387L62.1686 48.9683L62.9855 48.911L62.9795 48.7859C62.9599 48.3563 62.8484 48.0051 62.6509 47.7413C62.4429 47.4655 62.146 47.3253 61.7691 47.3253C61.3923 47.3253 61.1059 47.467 60.9069 47.7489C60.717 48.0157 60.6221 48.3518 60.6221 48.7497C60.6221 48.9773 60.6537 49.1808 60.7185 49.3527C60.7833 49.529 60.8753 49.6752 60.9898 49.7883C61.0984 49.8938 61.2627 50.0219 61.4933 50.1772C61.7661 50.3611 61.846 50.4394 61.8701 50.4726C61.9229 50.5404 61.9485 50.6233 61.9485 50.7258C61.9485 50.8479 61.9153 50.9474 61.849 51.0318C61.7887 51.1072 61.6847 51.1434 61.5325 51.1434C61.2898 51.1434 61.2099 51.0469 61.1692 50.9746C61.1451 50.9308 61.1029 50.8072 61.0938 50.4741L61.0893 50.3385L60.2784 50.4033V50.5208C60.2708 50.8298 60.3085 51.1072 60.3869 51.3484C60.4698 51.6016 60.613 51.8036 60.815 51.9468C61.017 52.09 61.2566 52.1623 61.528 52.1623C61.9259 52.1623 62.2409 52.0041 62.4655 51.6935C62.6796 51.3951 62.7896 51.0333 62.7896 50.6173C62.7896 50.2767 62.7142 49.9918 62.568 49.7702C62.467 49.618 62.25 49.431 61.9048 49.1989" fill="#1E3378"/>
</svg>
