<svg width="80" height="80" viewBox="0 0 80 80" fill="none" xmlns="http://www.w3.org/2000/svg">
<path d="M22.9041 41.5546H26.4977L25.6735 40.1998L22.9041 41.5546ZM25.0015 39.0972L21.2665 32.9593L28.507 25.9259H22.7877C22.3392 25.9257 21.9084 26.1009 21.5873 26.4141L16.5149 31.3712L17.0847 25.9259H11.9188L10.3759 40.6227C10.3503 40.8609 10.4275 41.099 10.5934 41.2768C10.7592 41.4545 10.9821 41.5562 11.2218 41.5562H15.4428L15.794 38.2562L17.3516 36.7464L20.0917 41.0783C20.1839 41.2241 20.3115 41.3442 20.4627 41.4274C20.6138 41.5106 20.7836 41.5541 20.9561 41.554H22.9035L23.8859 39.5952L25.0015 39.0972Z" fill="#2D2A70"/>
<path d="M28.1158 41.5546L35.1128 37.301L36.0033 40.9131C36.0957 41.2909 36.435 41.5562 36.8242 41.5562H41.3529L39.3305 34.7332L47.0342 30.0469L47.0668 29.7315L22.9103 41.5519L28.1158 41.5546ZM38.6064 32.2884L36.7177 25.9259H32.2678C31.8123 25.9261 31.3657 26.0528 30.9781 26.2921C30.5904 26.5313 30.2769 26.8736 30.0725 27.2807L23.7122 39.9383L47.1136 29.2624L47.15 28.9036L38.6064 32.2884ZM31.0842 35.266L32.6446 31.9644L33.0561 31.0521C33.105 30.9434 33.2181 30.8781 33.3366 30.889C33.4552 30.8999 33.5541 30.9841 33.5835 31.0994L34.2967 33.9933L31.0842 35.266Z" fill="#ED6B23"/>
<path d="M44.2863 25.9259C43.6793 25.9263 43.094 26.1514 42.6431 26.5578C42.1921 26.9641 41.9076 27.523 41.8442 28.1267L41.5289 31.1309L47.1514 28.9041L47.458 25.9259H44.2863ZM40.4361 41.5546H45.8455L47.0307 30.0485L41.2744 33.5513L40.4361 41.5546ZM40.5856 51.3927H36.3342L37.0817 44.76H38.3691L37.7602 50.1624H40.7188L40.5856 51.3927ZM42.7113 50.0537C42.9161 50.2845 43.1807 50.4 43.5051 50.4C43.8298 50.4 44.1174 50.2845 44.3679 50.0537C44.6216 49.8228 44.7733 49.5013 44.8229 49.0892C44.8693 48.6771 44.7901 48.3556 44.5853 48.1247C44.3867 47.8939 44.125 47.7784 43.8003 47.7784C43.4755 47.7784 43.1847 47.8939 42.9277 48.1247C42.6769 48.3556 42.5283 48.6771 42.4819 49.0892C42.4355 49.5013 42.5116 49.8228 42.7102 50.0537H42.7113ZM42.1133 47.3386C42.6272 46.8769 43.2307 46.646 43.9237 46.646C44.6167 46.646 45.1649 46.8769 45.5683 47.3386C45.9778 47.8004 46.1431 48.3839 46.0641 49.0892C45.9844 49.7945 45.6877 50.378 45.1741 50.8398C44.6667 51.3016 44.0665 51.5324 43.3735 51.5324C42.6805 51.5324 42.1291 51.3016 41.7191 50.8398C41.3154 50.378 41.1532 49.7945 41.2326 49.0892C41.3123 48.3839 41.6059 47.8004 42.1133 47.3386ZM46.2614 51.6455L47.4194 51.3465C47.4339 51.6024 47.5291 51.8115 47.7049 51.9739C47.8799 52.1363 48.1112 52.2174 48.3986 52.2174C49.2163 52.2174 49.6733 51.7898 49.7697 50.9344L49.8078 50.5973C49.6827 50.7659 49.5046 50.9063 49.2733 51.0187C49.0421 51.1274 48.7703 51.1818 48.4578 51.1818C47.846 51.1818 47.358 50.9697 46.9938 50.5457C46.6357 50.1216 46.4929 49.5879 46.5654 48.9446C46.6357 48.3205 46.8984 47.7899 47.3537 47.3527C47.8085 46.9156 48.3449 46.6971 48.9629 46.6971C49.3 46.6971 49.5718 46.7594 49.7784 46.8841C49.9897 47.0026 50.1292 47.1476 50.197 47.319L50.2579 46.7754H51.4561L50.994 50.8855C50.9161 51.5785 50.6515 52.1529 50.2003 52.6089C49.7487 53.0706 49.1171 53.3015 48.3056 53.3015C47.7003 53.3015 47.21 53.1391 46.8345 52.8144C46.4648 52.4896 46.2718 52.0964 46.2555 51.6346L46.2614 51.6455ZM48.7927 50.1194C49.111 50.1194 49.3819 50.0133 49.6055 49.8009C49.8353 49.5885 49.9703 49.3045 50.0105 48.9489C50.0468 48.5995 49.9743 48.3187 49.7931 48.1063C49.6111 47.8939 49.3672 47.7877 49.0613 47.7877C48.7431 47.7877 48.4658 47.8939 48.2295 48.1063C47.9997 48.3187 47.8651 48.5995 47.8256 48.9489C47.7893 49.3049 47.8604 49.5888 48.0387 49.8009C48.2206 50.0133 48.474 50.1194 48.7987 50.1194H48.7927Z" fill="#2D2A70"/>
<path d="M53.2869 51.3927H52.0419L52.5605 46.7863H53.8055L53.2869 51.3927ZM52.5801 45.2787C52.604 45.0663 52.6994 44.8851 52.8661 44.735C53.0335 44.5792 53.2233 44.5012 53.4353 44.5012C53.6477 44.5012 53.8202 44.5761 53.9529 44.7258C54.0859 44.8755 54.1403 45.0596 54.116 45.2781C54.0928 45.484 53.9978 45.662 53.8311 45.812C53.6644 45.9617 53.475 46.0365 53.263 46.0365C53.0506 46.0365 52.878 45.9617 52.7454 45.812C52.6124 45.6623 52.5575 45.4844 52.5807 45.2781L52.5801 45.2787Z" fill="#2D2A70"/>
<path d="M54.1986 50.1102L55.2924 49.8764C55.2823 50.0758 55.3414 50.2443 55.4697 50.382C55.6049 50.5133 55.8006 50.5789 56.0568 50.5789C56.2504 50.5789 56.4051 50.5354 56.5211 50.4484C56.6371 50.3614 56.7023 50.2521 56.7168 50.1205C56.7429 49.8897 56.5943 49.7398 56.271 49.6709L55.673 49.5307C55.2526 49.4372 54.947 49.2686 54.7564 49.0251C54.5752 48.7815 54.5018 48.4912 54.5362 48.1541C54.5833 47.7359 54.7857 47.3801 55.1435 47.0869C55.5074 46.797 55.9359 46.652 56.4292 46.652C56.7409 46.652 57.0102 46.6987 57.2371 46.7922C57.4644 46.8792 57.6354 46.9947 57.7503 47.1386C57.8663 47.2763 57.9504 47.4167 58.0026 47.5599C58.0551 47.7034 58.0831 47.8439 58.0863 47.9812L57.0207 48.215C57.0142 48.0526 56.9555 47.9091 56.8446 47.7844C56.7402 47.6597 56.5693 47.5974 56.3319 47.5974C56.1695 47.5974 56.0242 47.6409 55.8959 47.7279C55.7738 47.8149 55.7053 47.9241 55.6904 48.0557C55.665 48.2804 55.7919 48.4178 56.071 48.4678L56.7103 48.6081C57.1431 48.7016 57.4607 48.8732 57.6633 49.1229C57.8725 49.3766 57.9573 49.6762 57.9178 50.0216C57.8714 50.4337 57.6753 50.7894 57.3295 51.0888C56.9838 51.3885 56.5271 51.5384 55.9595 51.5384C55.6348 51.5384 55.3497 51.4917 55.1043 51.3982C54.8597 51.2981 54.6739 51.1713 54.5471 51.0176C54.4275 50.8617 54.3369 50.7088 54.2752 50.5587C54.2245 50.4029 54.1977 50.253 54.1948 50.1091L54.1986 50.1102ZM60.8041 45.4097L60.6491 46.7863H61.5761L61.451 47.891H60.523L60.3055 49.8199C60.2838 50.0134 60.3121 50.1508 60.3904 50.232C60.4686 50.3132 60.6015 50.3538 60.7889 50.3538C60.9574 50.3538 61.0868 50.3411 61.177 50.3157L61.0612 51.3454C60.8717 51.4204 60.6334 51.458 60.3463 51.458C59.8969 51.458 59.5551 51.3311 59.321 51.0774C59.0876 50.8215 58.9959 50.4718 59.0459 50.0281L59.2873 47.8839H58.4538L58.5789 46.7792H58.8126C59.0435 46.7792 59.2257 46.7136 59.359 46.5824C59.4993 46.4447 59.5818 46.2667 59.6064 46.0485L59.6792 45.4026L60.8041 45.4097Z" fill="#2D2A70"/>
<path d="M63.1906 51.3927H61.9456L62.4642 46.7862H63.7092L63.1906 51.3927ZM62.4838 45.2787C62.5077 45.0663 62.6031 44.8851 62.7698 44.735C62.9372 44.5792 63.127 44.5012 63.339 44.5012C63.5514 44.5012 63.7239 44.5761 63.8566 44.7258C63.9896 44.8755 64.0439 45.0596 64.0196 45.2781C63.9965 45.484 63.9015 45.662 63.7348 45.812C63.5681 45.9617 63.3787 46.0365 63.1666 46.0365C62.9543 46.0365 62.7817 45.9617 62.6491 45.812C62.5161 45.6623 62.4612 45.4844 62.4843 45.2781L62.4838 45.2787Z" fill="#2D2A70"/>
<path d="M69.3361 46.7862L67.2735 48.7244L68.8555 51.3927H67.3295L66.3106 49.6323L65.7344 50.176L65.5974 51.3938H64.3524L65.1157 44.6143H66.3607L65.923 48.4999L67.7079 46.7862H69.3361Z" fill="#2D2A70"/>
</svg>
