<svg width="80" height="80" viewBox="0 0 80 80" fill="none" xmlns="http://www.w3.org/2000/svg">
<path fill-rule="evenodd" clip-rule="evenodd" d="M26.7278 31.864C26.7374 31.8581 26.7488 31.8556 26.76 31.857C26.7712 31.8584 26.7816 31.8636 26.7894 31.8717C26.8081 31.8912 26.8072 31.922 26.7877 31.9407C26.0708 32.6451 24.3712 34.2867 23.4221 35.0201C23.2909 35.122 22.399 37.71 21.7005 39.2583C21.1081 40.5717 20.1818 41.3407 17.7772 42.6535C16.1145 43.5596 15.0141 46.9723 13.4525 48.254C13.443 48.2615 13.4313 48.2657 13.4191 48.2659C13.407 48.266 13.3952 48.2621 13.3855 48.2547C13.3758 48.2474 13.3689 48.237 13.3658 48.2253C13.3627 48.2136 13.3636 48.2011 13.3684 48.19L16.8343 40.3975C16.4718 40.3641 15.5103 39.5051 14.4329 38.4286C14.43 38.4255 14.4279 38.4217 14.4269 38.4175C14.4258 38.4134 14.4259 38.409 14.427 38.4049C14.4289 38.3987 14.4331 38.3934 14.4389 38.3903C14.4446 38.3872 14.4513 38.3865 14.4575 38.3883L19.2947 39.9746C19.2965 39.9748 19.2985 39.9746 19.3 39.9737C19.3036 39.9716 19.305 39.9671 19.303 39.9636L18.9733 39.4067C18.9477 39.3636 18.9074 39.3312 18.8598 39.3155L13.6607 37.6108C13.6314 37.601 13.6049 37.5844 13.5834 37.5622C13.4086 37.3809 13.2357 37.1993 13.0642 37.0178C13.062 37.0156 13.0606 37.0128 13.0602 37.0097C13.0599 37.0067 13.0606 37.0036 13.0623 37.001C13.064 36.9984 13.0665 36.9965 13.0694 36.9956C13.0723 36.9946 13.0755 36.9947 13.0784 36.9958L18.6012 38.8075C18.6027 38.808 18.6043 38.8081 18.6059 38.8078C18.6074 38.8074 18.6088 38.8065 18.6098 38.8053C18.6109 38.8041 18.6115 38.8026 18.6117 38.8011C18.6118 38.7995 18.6115 38.7979 18.6107 38.7965L18.2739 38.2219C18.2552 38.1902 18.2253 38.1668 18.1901 38.1561L12.4249 36.2654C12.3653 36.2458 12.3117 36.2114 12.2691 36.1653C12.1185 36.0023 11.9685 35.8388 11.8192 35.6747C11.8168 35.6725 11.8151 35.6696 11.8145 35.6664C11.8139 35.6632 11.8143 35.6599 11.8156 35.657C11.8192 35.6487 11.8287 35.6451 11.8367 35.6487L17.9037 37.6404C17.9047 37.6408 17.9059 37.641 17.907 37.6409C17.9081 37.6408 17.9092 37.6404 17.9102 37.6398C17.9119 37.6388 17.9131 37.6371 17.9136 37.6352C17.9141 37.6332 17.9138 37.6312 17.9128 37.6294L17.5763 37.0566C17.5575 37.0242 17.5277 36.9997 17.4922 36.9875L11.273 34.9478L11.1654 34.9108C11.1278 34.8979 11.0942 34.8756 11.0677 34.8459C10.8399 34.5935 10.6136 34.3398 10.3888 34.0847C10.3847 34.0799 10.3819 34.0741 10.3806 34.068C10.3794 34.0618 10.3798 34.0554 10.3817 34.0494C10.3831 34.0449 10.3855 34.0407 10.3886 34.0371C10.3917 34.0336 10.3955 34.0306 10.3997 34.0285C10.4039 34.0264 10.4086 34.0251 10.4133 34.0248C10.418 34.0245 10.4228 34.0251 10.4273 34.0266C11.4942 34.3782 19.0026 36.8566 19.5912 37.0447C19.5912 37.0447 18.622 34.1418 23.0302 34.1418C23.1694 34.1418 25.7272 32.5068 26.7278 31.864ZM55.9586 37.1019C57.6396 37.1019 58.5718 38.173 58.5718 39.5664C58.5718 41.5939 57.2255 43.0161 55.2903 43.0161C53.6076 43.0161 52.6769 41.945 52.6769 40.5516C52.6769 38.5154 54.0231 37.1019 55.9586 37.1019ZM69.5168 37.2189C69.5297 37.2186 69.5424 37.2213 69.5541 37.2267C69.5658 37.232 69.576 37.24 69.5842 37.25C69.5923 37.26 69.598 37.2717 69.6009 37.2842C69.6038 37.2967 69.6038 37.3097 69.6009 37.3223L69.4513 38.1517C69.4485 38.1719 69.4384 38.1904 69.4229 38.2037C69.4074 38.2171 69.3877 38.2244 69.3672 38.2242H66.667C66.6467 38.2249 66.6273 38.2326 66.6119 38.2459C66.5966 38.2592 66.5863 38.2774 66.5828 38.2974L66.3802 39.4467C66.3772 39.4594 66.3772 39.4727 66.3802 39.4855C66.3832 39.4982 66.3892 39.5101 66.3976 39.5201C66.406 39.5302 66.4166 39.5382 66.4286 39.5434C66.4406 39.5487 66.4536 39.551 66.4667 39.5504H68.9193C68.9322 39.5501 68.945 39.5527 68.9566 39.5581C68.9683 39.5635 68.9786 39.5715 68.9867 39.5815C68.9948 39.5915 69.0005 39.6032 69.0034 39.6157C69.0064 39.6282 69.0064 39.6412 69.0035 39.6538L68.8566 40.4817C68.8536 40.5019 68.8434 40.5204 68.8279 40.5338C68.8124 40.5471 68.7926 40.5544 68.7721 40.5542H66.2546C66.2343 40.5549 66.2149 40.5626 66.1996 40.5759C66.1843 40.5892 66.174 40.6074 66.1705 40.6274L65.9703 41.7868C65.9675 41.7993 65.9676 41.8123 65.9705 41.8247C65.9735 41.8372 65.9793 41.8488 65.9874 41.8587C65.9956 41.8687 66.0058 41.8766 66.0175 41.8819C66.0291 41.8873 66.0419 41.8899 66.0547 41.8896H68.7712C68.7841 41.8892 68.797 41.8918 68.8087 41.8971C68.8204 41.9025 68.8308 41.9104 68.8389 41.9204C68.8471 41.9304 68.8529 41.9422 68.8558 41.9547C68.8587 41.9673 68.8586 41.9804 68.8557 41.9929L68.7058 42.8342C68.7029 42.8544 68.6928 42.8729 68.6773 42.8863C68.6619 42.8996 68.6421 42.9069 68.6217 42.9068H64.5878C64.5749 42.9071 64.5621 42.9045 64.5504 42.8991C64.5387 42.8937 64.5283 42.8857 64.5202 42.8757C64.5121 42.8656 64.5064 42.8539 64.5035 42.8413C64.5006 42.8287 64.5007 42.8156 64.5037 42.8031L65.4783 37.2912C65.4811 37.2709 65.4912 37.2524 65.5067 37.2391C65.5221 37.2258 65.542 37.2186 65.5624 37.2189H69.5168ZM60.5964 37.2171C60.6399 37.2171 60.6764 37.2503 60.6805 37.2938L61.251 41.6176C61.2486 41.629 61.2485 41.6406 61.2508 41.652C61.253 41.6633 61.2575 41.6741 61.2641 41.6837C61.2706 41.6932 61.279 41.7013 61.2888 41.7075C61.2986 41.7137 61.3095 41.7178 61.321 41.7197C61.3324 41.7215 61.3441 41.721 61.3553 41.7182C61.3665 41.7153 61.377 41.7103 61.3862 41.7032C61.3954 41.6962 61.4031 41.6874 61.4088 41.6773C61.4145 41.6672 61.418 41.6561 61.4193 41.6446L63.5579 37.2695C63.5651 37.2547 63.5764 37.2421 63.5903 37.2333C63.6043 37.2244 63.6205 37.2196 63.637 37.2195H64.821C64.8366 37.2183 64.8523 37.2214 64.8663 37.2287C64.8802 37.2359 64.8919 37.2468 64.9 37.2603C64.908 37.2738 64.9122 37.2893 64.9119 37.305C64.9117 37.3207 64.907 37.336 64.8986 37.3492L61.9761 42.8588C61.969 42.873 61.9579 42.8849 61.9442 42.8931C61.9305 42.9013 61.9148 42.9054 61.8988 42.905H60.3354C60.3144 42.9059 60.2939 42.8989 60.2779 42.8853C60.2619 42.8717 60.2515 42.8526 60.2489 42.8318L59.2904 37.3199C59.2876 37.3074 59.2877 37.2945 59.2906 37.282C59.2936 37.2696 59.2994 37.2579 59.3075 37.248C59.3156 37.2381 59.3258 37.2302 59.3374 37.2249C59.349 37.2195 59.3617 37.2169 59.3745 37.2171H60.5964ZM48.0533 37.2121C48.1001 37.2121 48.1377 37.2497 48.1377 37.2962L48.4043 41.155C48.4066 41.174 48.4151 41.1918 48.4284 41.2057C48.4416 41.2195 48.4591 41.2287 48.478 41.2319C48.497 41.235 48.5164 41.2319 48.5334 41.2231C48.5505 41.2142 48.5642 41.2001 48.5726 41.1828L50.1543 37.2719C50.1606 37.2549 50.1723 37.2404 50.1875 37.2306C50.2027 37.2207 50.2207 37.216 50.2387 37.2171H52.226C52.2389 37.2168 52.2517 37.2194 52.2635 37.2248C52.2752 37.2302 52.2855 37.2382 52.2937 37.2482C52.3018 37.2582 52.3075 37.27 52.3104 37.2826C52.3132 37.2952 52.3132 37.3082 52.3102 37.3208L51.335 42.8327C51.3321 42.853 51.322 42.8715 51.3064 42.8848C51.2909 42.8981 51.2711 42.9052 51.2506 42.905H50.136C50.1231 42.9053 50.1104 42.9026 50.0987 42.8972C50.087 42.8918 50.0767 42.8838 50.0686 42.8739C50.0605 42.8639 50.0548 42.8522 50.0519 42.8397C50.049 42.8271 50.0489 42.8141 50.0518 42.8016L50.6881 39.2678C50.6914 39.2567 50.6925 39.2451 50.6914 39.2336C50.6902 39.2221 50.6868 39.211 50.6813 39.2008C50.6759 39.1906 50.6684 39.1816 50.6595 39.1743C50.6505 39.167 50.6402 39.1615 50.6292 39.1582C50.6181 39.1549 50.6065 39.1538 50.595 39.1549C50.5835 39.1561 50.5723 39.1595 50.5621 39.165C50.552 39.1704 50.543 39.1779 50.5357 39.1868C50.5284 39.1958 50.5229 39.2061 50.5196 39.2171L48.9585 42.8496C48.952 42.8662 48.9404 42.8803 48.9253 42.8898C48.9102 42.8994 48.8925 42.9038 48.8747 42.9026H47.4991C47.4767 42.9026 47.4553 42.8938 47.4395 42.878C47.4237 42.8622 47.4147 42.8408 47.4147 42.8185L47.1362 39.186C47.1368 39.1746 47.1351 39.1632 47.1312 39.1524C47.1273 39.1416 47.1214 39.1317 47.1137 39.1232C47.1059 39.1148 47.0967 39.1079 47.0863 39.103C47.0759 39.0981 47.0647 39.0953 47.0533 39.0948C47.0418 39.0943 47.0304 39.096 47.0196 39.0998C47.0089 39.1037 46.999 39.1097 46.9905 39.1174C46.982 39.1251 46.9751 39.1344 46.9703 39.1447C46.9654 39.1551 46.9626 39.1663 46.9621 39.1777L46.3285 42.8271C46.3258 42.8474 46.3157 42.8661 46.3002 42.8795C46.2847 42.8929 46.2648 42.9002 46.2443 42.8999H45.1321C45.1205 42.8996 45.1091 42.8969 45.0985 42.8921C45.0879 42.8873 45.0784 42.8805 45.0705 42.872C45.0626 42.8635 45.0564 42.8536 45.0523 42.8427C45.0482 42.8319 45.0463 42.8203 45.0467 42.8087L45.0479 42.7966L46.0231 37.2844C46.026 37.2642 46.0361 37.2457 46.0516 37.2325C46.0671 37.2192 46.0868 37.2119 46.1072 37.2121H48.0533ZM32.9518 37.2171C32.9724 37.2169 32.9922 37.2243 33.0077 37.2378C33.0232 37.2512 33.0333 37.2699 33.0359 37.2903L33.9936 42.8007C33.9963 42.8132 33.9962 42.8261 33.9932 42.8385C33.9902 42.851 33.9845 42.8626 33.9764 42.8724C33.9683 42.8823 33.9581 42.8903 33.9465 42.8956C33.9349 42.901 33.9222 42.9037 33.9095 42.9035H32.6894C32.6687 42.9026 32.649 42.8946 32.6337 42.8807C32.6183 42.8669 32.6083 42.8481 32.6053 42.8277L32.3964 41.3712C32.3934 41.3508 32.3834 41.3321 32.368 41.3184C32.3526 41.3047 32.3329 41.2969 32.3123 41.2962H31.0555C31.0343 41.2964 31.0135 41.2911 30.9951 41.2808C30.9766 41.2706 30.961 41.2558 30.9499 41.2379C30.9387 41.2199 30.9324 41.1994 30.9314 41.1783C30.9304 41.1572 30.9349 41.1362 30.9444 41.1173L31.3253 40.3504C31.3358 40.33 31.3517 40.3128 31.3713 40.3008C31.3909 40.2887 31.4134 40.2824 31.4364 40.2823H32.1307L32.1402 40.2814C32.1633 40.278 32.1842 40.2655 32.1982 40.2468C32.2122 40.228 32.2182 40.2045 32.2148 40.1813L31.9968 38.6668C32.0003 38.6445 31.9949 38.6217 31.9817 38.6034C31.9685 38.5851 31.9486 38.5727 31.9263 38.569C31.9039 38.5655 31.8811 38.571 31.8628 38.5844C31.8444 38.5977 31.8322 38.6177 31.8286 38.6401L31.2539 39.7799L31.1882 39.9129L31.067 40.1544V40.1588L29.8093 42.6879L29.7252 42.8561C29.7183 42.871 29.7073 42.8835 29.6934 42.8922C29.6795 42.9009 29.6634 42.9053 29.647 42.905H28.463C28.4478 42.905 28.4328 42.9011 28.4196 42.8936C28.4063 42.8861 28.3952 42.8754 28.3874 42.8623C28.3795 42.8493 28.3751 42.8345 28.3747 42.8193C28.3742 42.8041 28.3777 42.789 28.3848 42.7755L31.3084 37.2633C31.3232 37.2337 31.3541 37.2159 31.3869 37.2171H32.9518ZM43.4964 37.2171C43.5381 37.2186 43.5734 37.2491 43.5805 37.2903L44.5337 42.8025C44.5366 42.8149 44.5365 42.8279 44.5336 42.8403C44.5307 42.8528 44.525 42.8644 44.5169 42.8742C44.5088 42.8841 44.4986 42.892 44.4869 42.8974C44.4753 42.9027 44.4627 42.9053 44.4499 42.905H43.2289C43.208 42.9052 43.1877 42.8975 43.1722 42.8835C43.1566 42.8695 43.1468 42.8503 43.1448 42.8294L42.9351 41.3727C42.9328 41.352 42.9229 41.3329 42.9074 41.3191C42.8918 41.3054 42.8717 41.2978 42.8509 41.298H41.5891C41.5678 41.298 41.5469 41.2925 41.5284 41.282C41.5099 41.2716 41.4944 41.2565 41.4834 41.2383C41.4724 41.2202 41.4662 41.1995 41.4655 41.1782C41.4649 41.157 41.4696 41.1359 41.4795 41.117L41.8607 40.3504C41.8814 40.309 41.9241 40.2823 41.9709 40.2823H42.6652L42.6747 40.2814C42.6978 40.278 42.7187 40.2655 42.7327 40.2468C42.7466 40.228 42.7526 40.2045 42.7493 40.1813L42.5313 38.6668C42.5349 38.6444 42.5294 38.6216 42.5161 38.6033C42.5028 38.585 42.4827 38.5727 42.4604 38.5692C42.438 38.5656 42.4152 38.5711 42.3969 38.5844C42.3786 38.5977 42.3663 38.6178 42.3628 38.6401L41.7775 39.8119L41.6092 40.1561V40.1621L40.2697 42.8561C40.2628 42.8711 40.2517 42.8838 40.2376 42.8925C40.2235 42.9012 40.2072 42.9055 40.1906 42.905H39.0067C38.991 42.9064 38.9752 42.9033 38.9612 42.8962C38.9471 42.8891 38.9354 42.8781 38.9273 42.8646C38.9192 42.8511 38.9151 42.8356 38.9154 42.8198C38.9157 42.804 38.9204 42.7887 38.9291 42.7755L41.8524 37.2633C41.8601 37.2493 41.8714 37.2376 41.8851 37.2295C41.8989 37.2213 41.9146 37.2171 41.9306 37.2171H43.4964ZM36.6693 37.2171C36.6822 37.2168 36.695 37.2194 36.7067 37.2248C36.7185 37.2302 36.7288 37.2382 36.7369 37.2482C36.7451 37.2582 36.7508 37.27 36.7536 37.2826C36.7565 37.2952 36.7564 37.3082 36.7534 37.3208L35.9744 41.7136C35.9714 41.7261 35.9713 41.7392 35.9741 41.7517C35.977 41.7643 35.9827 41.776 35.9908 41.786C35.9989 41.796 36.0092 41.804 36.0209 41.8094C36.0326 41.8147 36.0453 41.8173 36.0582 41.817H38.7416C38.7573 41.8157 38.773 41.8188 38.7871 41.8259C38.8011 41.8331 38.8128 41.8441 38.8209 41.8576C38.829 41.8711 38.8331 41.8867 38.8328 41.9024C38.8325 41.9182 38.8278 41.9335 38.8192 41.9467L38.3352 42.8591C38.3284 42.8725 38.3181 42.8839 38.3053 42.8919C38.2926 42.9 38.278 42.9045 38.2629 42.905H34.5875C34.5746 42.9053 34.5619 42.9027 34.5502 42.8973C34.5385 42.892 34.5281 42.884 34.52 42.874C34.5119 42.864 34.5062 42.8523 34.5033 42.8397C34.5004 42.8272 34.5004 42.8141 34.5034 42.8016L35.4779 37.2894C35.4808 37.2692 35.491 37.2508 35.5064 37.2375C35.5219 37.2242 35.5417 37.217 35.562 37.2171H36.6693ZM26.1206 37.2171C26.1335 37.2168 26.1463 37.2194 26.158 37.2248C26.1698 37.2302 26.1801 37.2382 26.1882 37.2482C26.1964 37.2582 26.2021 37.27 26.2049 37.2826C26.2078 37.2952 26.2077 37.3082 26.2047 37.3208L25.434 41.7136C25.431 41.7261 25.431 41.7392 25.4339 41.7517C25.4367 41.7643 25.4425 41.776 25.4506 41.786C25.4587 41.796 25.469 41.804 25.4807 41.8093C25.4924 41.8147 25.5052 41.8173 25.5181 41.817H28.2015C28.2172 41.8156 28.233 41.8187 28.247 41.8258C28.2611 41.833 28.2728 41.844 28.2809 41.8576C28.2889 41.8711 28.293 41.8867 28.2927 41.9025C28.2923 41.9182 28.2875 41.9336 28.2788 41.9467L27.7948 42.8591C27.7876 42.8731 27.7767 42.8849 27.7631 42.893C27.7496 42.9011 27.7341 42.9052 27.7183 42.905H24.0441C24.0313 42.9053 24.0185 42.9026 24.0069 42.8972C23.9952 42.8918 23.9849 42.8838 23.9768 42.8739C23.9687 42.8639 23.9629 42.8522 23.96 42.8397C23.9571 42.8271 23.9571 42.8141 23.96 42.8016L24.9295 37.2894C24.9324 37.2692 24.9426 37.2508 24.958 37.2375C24.9735 37.2242 24.9933 37.217 25.0136 37.2171H26.1206ZM55.8837 38.0578C54.6307 38.0578 54.046 39.404 54.046 40.5231C54.046 41.4292 54.5072 42.0646 55.3644 42.0646C56.6097 42.0646 57.203 40.7207 57.203 39.5992C57.203 38.6845 56.7409 38.0578 55.8837 38.0578Z" fill="#FF671D"/>
</svg>
