<svg width="80" height="80" viewBox="0 0 80 80" fill="none" xmlns="http://www.w3.org/2000/svg">
<path fill-rule="evenodd" clip-rule="evenodd" d="M49.8653 60.7503C50.3548 60.7373 50.8832 60.733 51.3727 60.7503C52.2649 60.785 52.6938 61.5863 52.3949 62.5089C52.1133 63.3752 50.5193 64.2718 49.6097 63.202C49.4018 62.9551 49.5664 62.5956 49.6704 62.0195C49.7397 61.621 49.809 61.1488 49.8696 60.7503H49.8653ZM49.3022 63.999C49.6141 64.0986 50.2031 64.6877 51.3813 64.3325C52.7371 63.9253 53.7203 62.5392 53.3305 61.2701C52.8324 59.6415 50.9915 60.04 49.4495 60.027C49.1073 60.027 49.0466 59.8191 48.934 60.798C48.7521 62.3833 48.1803 64.7613 48.0244 66.273L48.8994 66.2557C49.012 66.0348 49.2979 64.3108 49.3022 63.999ZM40.5093 61.8592C40.8731 60.5251 43.2294 59.975 43.2554 61.8592H40.5093ZM43.9528 62.5046C44.0611 62.4396 44.0134 62.5566 44.0741 62.3443L44.1434 61.5776C44.0914 60.707 43.5196 60.027 42.5364 59.9273C41.9127 59.8667 41.2066 60.0703 40.7908 60.3432C40.349 60.6334 40.0285 60.9886 39.7816 61.4824C39.5303 61.9848 39.4307 62.7861 39.6646 63.3536C40.375 65.0558 43.2468 64.5707 43.8185 63.1803C41.9646 63.202 43.3637 63.1933 42.2375 63.6178C41.3712 63.9426 40.3533 63.4662 40.4053 62.5089H43.9571L43.9528 62.5046ZM57.2158 61.8635C57.5191 60.7417 59.3686 60.0573 59.8754 61.3178C59.9404 61.478 59.9577 61.6729 59.9577 61.8679H57.2158V61.8635ZM60.7114 62.4959C61.1835 61.6599 60.6681 59.3513 58.2078 60.0356C58.0172 60.0876 57.9565 60.0876 57.8006 60.1742L57.3198 60.4731C56.4015 61.1532 55.9554 62.4093 56.3712 63.3536C57.1335 65.0818 59.9534 64.5274 60.5208 63.176L59.5679 63.1846C59.5679 63.1846 58.9744 63.9253 57.9869 63.6611C57.4887 63.5268 57.0816 63.1283 57.0989 62.5046L60.7157 62.4959H60.7114ZM62.9074 64.4668C61.8289 64.4668 60.9193 64.0986 61.0016 62.9247H61.8116C61.9502 63.3319 62.0281 63.7694 62.9074 63.7694C64.1246 63.7694 64.3195 63.0634 63.9817 62.7515C63.5615 62.3616 61.1445 62.7298 61.4824 61.1705C61.7899 59.7454 64.0033 59.6761 64.7527 60.1916C65.1122 60.4385 65.3028 60.72 65.2638 61.2831L64.64 61.3134C64.64 61.3134 64.5664 61.3134 64.5491 61.3091C64.4191 61.2874 64.4711 61.2874 64.4365 61.2701C64.3931 61.0405 64.3888 60.9149 64.2329 60.798C63.7564 60.4341 62.8858 60.5294 62.5566 60.824C62.2014 61.1445 62.3833 61.5733 62.7948 61.6773C63.1413 61.7639 63.6481 61.8332 64.0033 61.8938C65.7836 62.2014 65.1122 64.4624 62.8988 64.4624L62.9074 64.4668ZM66.7625 61.452C66.7105 61.1272 66.7538 60.9236 66.9964 60.7763C67.4339 60.5121 68.0186 60.4948 68.4777 60.7287C68.716 60.85 68.7636 60.9972 68.8026 61.3178L69.6213 61.2961C69.7209 60.1049 68.4907 59.7498 67.3602 59.949C65.9438 60.1959 65.528 61.3524 65.9915 61.9848C66.5329 62.7212 68.7593 62.2707 68.4691 63.215C68.3348 63.6568 67.7197 63.7997 67.1653 63.7737C66.3207 63.7347 66.3077 63.2886 66.1691 62.9291L65.3591 62.9377C65.3201 63.4792 65.502 63.8474 65.8918 64.1419C66.5979 64.6703 68.1442 64.5361 68.8763 63.9383C69.3181 63.5788 69.7252 62.5133 68.9022 62.0888C68.1009 61.6773 67.3992 61.9372 66.7625 61.452ZM56.6744 59.936L56.5315 60.746C55.8904 60.824 54.8075 61.0622 54.6733 61.8115C54.5996 62.223 54.5217 62.6432 54.448 63.0504C54.3701 63.4792 54.3267 63.8863 54.2401 64.3108L53.3565 64.3195L54.0712 60.0356H54.9418L54.8768 60.5857C55.0458 60.5164 55.2234 60.3215 55.6435 60.1223C55.8817 60.0096 56.3712 59.923 56.6787 59.9273L56.6744 59.936ZM44.0827 60.0313H45.1006C45.1093 60.066 45.1223 60.066 45.1266 60.0789C45.1266 60.0963 45.1483 60.0963 45.1526 60.1006L46.53 62.1278L45.1613 63.5225C45.0617 63.6091 45.0097 63.6784 44.8841 63.791C44.152 64.4494 44.6415 64.3108 43.3247 64.3152L44.8667 62.7212C45.04 62.5392 45.2392 62.3487 45.4082 62.1711C45.3605 61.9458 45.1959 61.8159 45.079 61.634C44.949 61.426 44.8667 61.2961 44.7411 61.1012C44.6155 60.9063 44.5419 60.7633 44.4033 60.5727C44.2647 60.3822 44.204 60.2132 44.0827 60.0226V60.0313ZM46.0796 62.9551C46.1705 63.0893 46.2268 63.2236 46.3091 63.3406C46.4088 63.4792 46.4737 63.5615 46.5517 63.6914C47.0152 64.4841 46.9285 64.3195 47.9897 64.3195C47.9161 64.0813 47.1754 63.1283 47.0022 62.8294C46.9025 62.6605 46.7726 62.4483 46.647 62.3746C46.5387 62.444 46.1619 62.8165 46.0752 62.9507L46.0796 62.9551ZM46.3135 61.4001C46.4391 61.1792 46.6383 61.0535 46.7899 60.8976L47.2491 60.4428C47.7515 59.9317 47.431 60.0183 48.6785 60.0313L47.7125 61.0362C47.6086 61.1402 47.5523 61.1748 47.444 61.2701C47.2361 61.4564 46.9199 61.8765 46.699 61.9502L46.3178 61.3957L46.3135 61.4001Z" fill="#25495F"/>
<path fill-rule="evenodd" clip-rule="evenodd" d="M33.3666 61.3004C33.3839 61.5863 33.2193 62.2664 33.163 62.5999C33.1067 62.9074 33.15 62.9551 32.9464 63.1586C32.3011 63.7954 30.9496 64.0033 30.4472 62.9551C30.0227 62.0758 30.7331 61.2398 31.2528 60.9149C31.5994 60.6984 32.0412 60.6074 32.4743 60.6984C33.0114 60.811 33.1154 60.9972 33.3753 61.3048L33.3666 61.3004ZM32.8295 64.0033C32.9118 63.9037 32.7082 63.8733 32.9681 63.9426L33.0028 64.2372H33.6958L33.8257 63.4878C33.8257 63.4705 33.8387 63.3709 33.8431 63.3666C33.8907 63.228 33.8171 63.3232 33.947 63.2236L34.796 58.2294L33.9124 58.2467L33.5485 60.3215C33.2756 60.2522 33.0244 59.949 32.2881 59.9187C29.7368 59.8147 28.459 63.0937 30.3692 64.1809C31.1489 64.6227 32.2014 64.4104 32.8382 64.0076L32.8295 64.0033ZM19.129 60.7547C19.1203 61.1185 19.0033 61.6816 18.9384 62.0628C18.8431 62.6172 18.8474 62.9551 18.5659 63.1976C18.0288 63.6654 16.9545 63.9426 16.3741 63.3232C15.4645 62.353 16.4001 60.798 17.6216 60.746C18.0677 60.7287 18.6871 60.7157 19.1246 60.7503L19.129 60.7547ZM19.4365 64.2978C19.5534 63.5658 19.6834 62.8771 19.8177 62.1581L20.1425 60.0226C19.4192 59.9967 17.4743 59.949 16.9286 60.1396C16.1186 60.4211 15.5338 60.9799 15.2393 61.7466C15.1007 62.1061 15.092 62.8598 15.2176 63.2409C15.3476 63.6351 15.6638 63.9297 15.967 64.1419C16.2918 64.3671 16.8723 64.4581 17.3487 64.4148C17.9161 64.3585 18.3883 64.0379 18.5832 63.999V64.3108L19.4322 64.2978H19.4365ZM38.4605 60.746C38.4691 61.1965 38.2395 62.1841 38.1486 62.7168C38.0966 63.02 38.0836 63.0547 37.8974 63.2063C36.7408 64.1549 35.1685 63.6005 35.3591 62.1754C35.4024 61.8549 35.6796 61.3871 35.9005 61.2138C36.6585 60.6074 37.2953 60.707 38.4605 60.7503V60.746ZM39.5 60.027L38.781 64.3065H37.919L37.9233 64.0033C37.6938 64.0509 37.7761 64.1029 37.3386 64.2502C35.4674 64.8869 34.0207 63.6568 34.5924 61.7293C34.8003 61.0275 35.567 60.3865 36.2904 60.1353C36.7452 59.9793 38.9153 59.9793 39.5043 60.0313L39.5 60.027ZM28.3854 60.746C28.3854 61.2268 28.1775 62.1234 28.0822 62.6822C28.0302 62.9897 28.0042 63.0504 27.8266 63.202C26.7264 64.1332 25.0675 63.6048 25.284 62.1667C25.3923 61.4564 26.133 60.7807 26.8737 60.746C27.3372 60.7243 27.9219 60.7243 28.3854 60.746ZM29.4249 60.027L28.7016 64.3022H27.8396L27.8439 63.999C27.675 64.0336 25.8948 65.1381 24.7253 63.6741C23.846 62.5696 24.6343 60.0183 27.1033 60.0183L29.4206 60.027H29.4249ZM22.984 61.8852L21.3077 63.5658L23.859 63.5831L23.755 64.2935L19.8437 64.3065C19.8307 63.8517 19.913 63.817 20.4717 63.3102L22.5942 61.2181C22.7154 61.0925 22.9407 60.9366 22.997 60.7503L20.528 60.7417L20.632 60.0356L24.4784 60.0226C24.4784 60.1439 24.4697 60.2522 24.4437 60.3735C24.3961 60.6031 23.6597 61.2225 23.4215 61.452C23.3175 61.5517 23.3132 61.5863 23.2222 61.6643C23.1226 61.7509 23.0793 61.7812 22.984 61.8809V61.8852ZM11.865 60.8889C11.9473 60.5034 12.2895 58.4893 12.2895 58.2164L11.3886 58.2467L10.375 64.2935C10.7778 64.3541 13.4677 64.3108 14.2863 64.3108C14.5073 64.3108 14.6415 64.3411 14.8105 64.2632L14.9317 63.5268L11.4319 63.5138L11.8694 60.8933L11.865 60.8889ZM32.8338 63.9946C32.9768 64.0553 32.9031 63.8863 32.9118 64.1549C32.9118 64.1549 32.8945 64.2589 32.8945 64.3065L33.7738 64.2978L33.9427 63.215C33.8127 63.3146 33.8864 63.2193 33.8387 63.3579C33.8387 63.3579 33.8257 63.4619 33.8214 63.4792L33.6915 64.2199H32.9984L32.9638 63.934C32.7039 63.8647 32.9075 63.895 32.8252 63.9946H32.8338Z" fill="#F17121"/>
<path fill-rule="evenodd" clip-rule="evenodd" d="M21.9882 35.3287C21.6936 31.1055 23.1966 26.5401 25.7262 23.3435C25.9038 23.1225 26.0554 22.9493 26.2157 22.7327C27.4762 21.0737 29.9451 19.2199 31.8943 18.2496C43.663 12.3891 57.4501 20.5756 58.0436 33.4315C58.6846 47.3703 44.5596 55.8903 33.2544 51.1084C32.1715 50.6492 31.2489 50.1901 30.309 49.588C30.0404 49.4147 29.8758 49.3195 29.6419 49.1462C28.7973 48.5138 27.8833 47.8078 27.186 47.0714L25.6309 45.2608C23.4869 42.6273 22.235 38.9412 21.9838 35.3287H21.9882ZM19.7488 35.45C20.039 38.6726 20.5804 40.886 21.8669 43.4503C22.456 44.6241 23.097 45.655 23.816 46.5819C24.5221 47.4959 24.782 47.8164 25.6093 48.6481L26.9087 49.8609C27.6321 50.4673 28.2862 50.9481 29.0918 51.4722C34.935 55.2839 42.853 55.7171 49.086 52.5248C52.2437 50.9091 55.3407 48.2193 57.1166 45.3085C59.3343 41.6787 60.4865 37.867 60.2786 33.3102C59.7892 22.4901 50.4504 13.472 38.9416 14.1044C33.3887 14.4076 28.1735 17.0411 24.7863 20.9351L23.9373 21.9877C21.1738 25.3879 19.3459 30.9626 19.7488 35.45ZM29.3171 41.6224H37.6465C38.5172 41.6224 39.6347 41.4318 40.2757 41.0246C40.6439 40.7907 40.8778 40.5352 41.0684 40.1583C41.2417 39.8205 41.3803 39.292 41.3413 38.8546L29.499 38.8372C29.6289 38.508 30.231 37.7717 30.4519 37.4425C30.7854 36.9487 31.106 36.5329 31.4395 36.0434L33.4276 33.2583C34.1034 32.327 34.7271 31.3784 35.4028 30.4558C36.2345 29.3209 35.9746 27.7096 35.0086 27.1162L26.3326 38.534C25.9861 38.9975 25.9515 39.0148 26.0901 39.7815C26.3803 41.3668 27.801 41.6267 29.3127 41.6267L29.3171 41.6224ZM46.3398 34.653C45.296 35.8008 42.5455 38.0835 42.0213 39.461C41.6748 40.3706 42.0647 41.1979 42.6061 41.618C42.814 41.5444 43.6283 40.6781 43.8319 40.4745C44.0355 40.2753 44.2434 40.0587 44.4383 39.8551L47.5007 36.8447C47.8515 37.2302 49.6881 41.2109 50.0736 41.618C50.4721 41.4708 51.1651 40.7951 51.386 40.4356C52.222 39.0755 51.2518 37.698 50.6973 36.6671C50.3941 36.1041 50.1083 35.5496 49.7921 34.9995C49.1726 33.9123 48.5966 32.7775 47.9945 31.7076C47.674 31.1402 47.3491 30.6853 46.6431 30.4904C45.9673 30.3085 44.9234 30.3691 44.1784 30.3648C44.3474 30.9886 46.2532 34.1419 46.3355 34.653H46.3398ZM48.9734 32.0801C48.9994 32.275 49.896 33.9816 50.0736 34.2198L51.0655 33.3189C51.3774 32.9984 51.7109 32.6605 52.0401 32.3313C52.8371 31.5213 53.3482 31.0015 53.9763 30.3908C53.2832 30.2825 51.386 30.3128 50.8143 30.5511C50.1992 30.8066 49.4239 31.5906 48.9777 32.0844L48.9734 32.0801Z" fill="#25495F"/>
<path fill-rule="evenodd" clip-rule="evenodd" d="M32.2408 37.3472C34.3633 37.3775 36.503 37.3515 38.6254 37.3472C40.7609 37.3472 42.3462 36.94 42.3462 34.666L34.0341 34.6487C33.7438 35.0472 32.3101 37.0786 32.2408 37.3429V37.3472Z" fill="#F17121"/>
<path fill-rule="evenodd" clip-rule="evenodd" d="M35.2166 33.0373C36.9188 33.1153 39.0456 33.085 40.7652 33.0373C42.5281 32.994 43.7669 32.2274 43.6976 30.3735H36.9578C36.7326 30.8976 35.2469 32.6778 35.2122 33.0373H35.2166Z" fill="#F17121"/>
</svg>
