<svg width="80" height="80" viewBox="0 0 80 80" fill="none" xmlns="http://www.w3.org/2000/svg">
<path fill-rule="evenodd" clip-rule="evenodd" d="M16.9965 38.1473C16.9965 39.3249 19.306 38.7946 19.306 37.7928C19.306 37.4675 19.2149 37.2658 18.8311 37.1552C18.0374 36.9275 16.9933 37.513 16.9933 38.1473H16.9965ZM17.4031 43.4429H15.806C15.4872 43.4429 15.7897 42.7338 15.8873 42.4313L16.5476 40.1868C16.6029 39.9754 16.6517 39.8355 16.7135 39.6176C16.7688 39.4159 16.8339 39.2435 17.0648 39.2435C17.4649 39.2435 18.4733 39.2012 18.7986 39.2793C18.8083 39.3216 18.8311 39.3769 18.8311 39.3867C18.8311 39.5103 18.5774 40.3039 18.5286 40.4503C18.4147 40.8016 18.3302 41.1497 18.2131 41.501L17.7382 43.0916C17.6861 43.264 17.6276 43.4494 17.4031 43.4494V43.4429ZM22.1587 39.0288C22.8971 39.0288 23.7135 39.3183 24.0291 39.9461C24.6796 41.244 23.5574 42.5126 22.5328 43.0558C21.9896 43.3453 21.5569 43.4331 20.9357 43.4819C19.3385 43.6055 18.2489 42.4183 18.9645 40.935C19.5207 39.7802 20.9454 39.0288 22.1587 39.0288ZM20.5974 41.4294C20.5974 41.6213 20.6722 41.7482 20.786 41.8327C21.1536 42.1125 21.661 41.9694 21.957 41.7482C22.9556 41 21.944 40.0925 21.004 40.7919C20.8446 40.909 20.5974 41.1562 20.5974 41.4294ZM15.3636 41.784C15.3636 41.4522 14.9375 41.5367 14.6155 41.5367C12.3971 41.5367 12.6573 41.6961 13.2688 39.7835C13.3567 39.5103 13.4412 39.2793 13.5226 39.0256C13.6266 38.7036 14.1048 37.5814 13.799 37.5814H12.1011C11.8897 37.5814 11.753 37.7603 11.688 37.9294L10.6894 40.7756C10.4422 41.5367 10.3706 41.4554 10.3706 42.2816C10.3706 43.02 11.0927 43.4461 11.7986 43.4461H14.4821C14.6675 43.4461 14.8172 43.3518 14.8887 43.2347C14.9928 43.0688 15.3636 41.8978 15.3636 41.7872V41.784ZM29.1587 43.4429C29.3213 43.4429 29.3994 43.3518 29.4449 43.2087L29.7572 42.0507C30.0077 41.013 30.5444 40.1413 29.6076 39.4094C29.3766 39.2305 28.8497 39.0614 28.4463 39.0614C27.5778 39.0614 27.6787 39.1069 26.8687 39.2598C25.714 39.4777 25.4961 38.8857 25.2651 39.6046C25.2066 39.7867 25.1578 39.9234 25.1057 40.1088L24.3055 42.7403C24.2242 43.02 23.9965 43.4429 24.3706 43.4429H25.662C26.0588 43.4429 26.1434 43.2672 26.2442 42.9517L26.7679 41.3091C26.8395 41.0423 26.9598 40.7235 27.2591 40.7235C27.49 40.7235 27.9714 40.652 27.9714 40.935C27.9714 41.2733 27.9096 41.3286 27.8348 41.6051C27.786 41.7905 27.734 41.9564 27.6787 42.1483C27.6234 42.3499 27.5778 42.5093 27.5291 42.698C27.4803 42.8801 27.2493 43.4396 27.5291 43.4396H29.1587V43.4429Z" fill="#FF0000"/>
<path fill-rule="evenodd" clip-rule="evenodd" d="M56.2186 41.0098C56.2446 41.0098 56.2544 41.0488 56.4691 41.0033C56.9993 40.8894 57.4482 40.0405 57.4482 39.9071C57.4482 39.5883 57.1945 39.4712 56.8659 39.4712L54.667 39.5038C54.4751 39.5038 54.4394 39.5265 54.358 39.6534C54.2865 39.764 53.701 41.7352 53.6359 41.9856C53.3334 43.1371 52.9658 43.5275 53.6034 43.5275H54.7028C55.0118 43.5275 55.168 43.3095 55.2395 43.046C55.3176 42.763 55.3664 42.5288 55.451 42.2589C55.529 42.0019 55.6169 41.7254 55.7014 41.4814C55.7795 41.2538 55.9389 41.0163 56.2219 41.0163L56.2186 41.0098ZM59.9333 40.7756C59.1461 40.7756 58.4956 41.5985 59.2014 42.0344C59.4617 42.1971 59.5723 42.1515 59.8325 42.1483C60.2521 42.1418 60.1968 42.1385 60.2814 42.4898C60.4765 43.3225 60.5383 43.3193 59.9691 43.4917C59.2665 43.7064 58.0922 43.599 57.549 43.1436C57.1262 42.7858 56.9895 42.363 56.9895 41.7449C56.9895 41.3286 57.2302 40.9838 57.4124 40.7431C57.6368 40.4503 57.8645 40.2682 58.1605 40.0437C59.3023 39.1882 61.319 39.198 61.319 39.5656C61.319 39.6892 61.2702 39.7249 61.2214 39.7998C60.4505 40.9643 60.8278 40.7691 59.9268 40.7691L59.9333 40.7756ZM69.6266 37.9619H67.5904C67.4993 38.1571 67.4375 38.4564 67.3692 38.671L66.53 41.4489C66.4551 41.6799 66.3966 41.8946 66.3185 42.1353L66.003 43.1827C65.9705 43.2802 65.9184 43.4006 65.9087 43.5209H68.01L69.6266 37.9619ZM62.8738 42.3825C62.8738 42.2231 63.108 42.2036 63.2544 42.1743L64.6726 41.836C64.9946 41.7514 65.3069 41.6701 65.5964 41.5888C65.7656 41.54 65.8859 41.501 65.977 41.3806C66.3641 40.8797 65.9477 40.1641 65.5964 39.7965C65.141 39.3216 64.7117 39.3021 64.1034 39.3021C63.4951 39.3021 62.4477 39.7347 61.9663 40.099C61.4068 40.5251 60.8538 41.2342 60.9091 41.9726C61.0653 44.0902 64.0416 43.6998 65.1573 43.0038C65.4468 42.8216 65.5899 42.7077 65.5899 42.415C65.5899 42.0442 64.3213 42.75 63.5862 42.75C63.352 42.75 62.8738 42.5776 62.8738 42.3825ZM62.8738 41.5465C62.6364 41.5465 62.7958 41.1919 63.0104 40.9838C63.391 40.6162 64.1554 40.6943 64.2628 41.1106C64.1814 41.2375 64.1261 41.218 63.9603 41.2668C63.7423 41.3318 63.056 41.5465 62.8738 41.5465ZM52.2763 43.5209H51.0174C50.6889 43.5209 50.9816 42.8151 51.0142 42.7143C51.1508 42.2881 51.5021 41.2115 51.5021 40.8114C51.5021 40.6325 51.3687 40.4893 51.2354 40.4503C51.0565 40.3983 50.871 40.4373 50.7247 40.5121C50.4677 40.6357 50.2335 40.9155 50.1099 41.1822C49.996 41.4294 49.8399 41.8913 49.9115 42.2263C50.0091 42.685 50.3473 42.5549 50.7897 42.5549C50.7897 42.7305 50.7637 42.7923 50.6206 42.9485C49.2869 44.4155 47.6963 43.0851 48.6461 41.1367C48.9942 40.421 49.4561 39.9559 50.1554 39.6176C50.7897 39.3086 51.359 39.3118 52.0193 39.4062C52.5072 39.4777 52.5723 39.6046 53.1773 39.6794C53.6652 39.738 53.7433 39.8225 53.5253 40.4991C53.4733 40.6617 53.4407 40.7951 53.3887 40.961L52.8227 42.8541C52.7219 43.1696 52.6926 43.5275 52.2763 43.5275V43.5209ZM45.813 43.5209C46.6847 43.5209 47.576 42.8932 47.9468 42.1483C48.2395 41.566 48.3339 40.8374 48.0021 40.2486C47.3418 39.0776 46.0342 39.2565 44.9607 39.4224C44.6029 39.4777 44.1768 39.4224 43.8515 39.4777C43.6759 39.507 43.5816 39.5818 43.5263 39.7412C43.3896 40.112 43.24 40.7105 43.1066 41.1139C42.7716 42.1483 42.4626 43.2867 42.1276 44.3211C42.0527 44.5553 41.8413 45.027 42.1959 45.027C43.8808 45.027 43.8353 45.2091 44.0695 44.3244C44.1508 44.0186 44.2581 43.7324 44.3264 43.4201C44.4598 43.4071 44.398 43.3876 44.5216 43.3876C44.668 43.3876 44.8274 43.4591 44.951 43.4787C45.2925 43.5372 45.4682 43.5209 45.8162 43.5209H45.813ZM44.7135 42.1808C44.7135 42.0865 45.0453 41.1659 45.0974 41.0033C45.2275 40.5967 45.4779 40.3397 45.9431 40.3397C46.74 40.3397 46.766 41.5042 46.2098 42.0572C45.6829 42.5776 44.7135 42.4573 44.7135 42.1808Z" fill="#FF0000"/>
<path fill-rule="evenodd" clip-rule="evenodd" d="M42.9537 37.6887V37.0967C42.7617 37.0446 42.9211 37.0219 42.6414 37.0154C42.5015 37.0154 42.3974 37.0284 42.2576 37.0024C42.0657 36.9666 41.8737 36.856 41.7306 36.7779C41.7306 36.4331 41.8542 36.4299 41.5224 36.2347C41.2232 36.059 40.7743 35.8541 40.5173 35.6199C40.3905 35.5028 40.2864 35.2979 40.1888 35.1548C39.8993 35.1548 39.7692 35.2003 39.7139 35.4313C39.5838 35.3955 39.522 35.2979 39.3626 35.2263L38.5429 34.9401C38.3477 34.862 38.351 34.8392 38.0907 34.8392C37.8403 35.2133 38.0029 35.0442 37.8923 35.2751C37.45 35.2751 37.8273 35.1808 37.0401 35.2914C36.2009 35.4085 36.679 35.3142 36.1944 35.3142C36.1944 35.5419 36.0903 35.7728 36.1944 35.9875C36.0415 36.0005 35.0396 36.1111 34.9681 36.1469C34.7957 36.5079 35.1275 36.9145 35.2446 37.1357C35.1665 37.1715 34.9648 37.2138 34.8477 37.2138C34.8477 37.718 35.0722 38.4303 35.2381 38.8792C35.443 39.4289 36.1423 40.7008 36.5099 40.9675C36.6758 40.8569 36.8124 40.7365 36.9913 40.6194C38.2599 39.803 40.0197 40.3332 40.6767 41.7059C41.4639 43.355 40.3449 45.3588 38.4486 45.3588V45.1213C38.8844 45.1213 39.2878 44.9489 39.5643 44.7733C41.8542 43.3323 40.1042 39.6339 37.3849 40.7366C37.219 40.8049 37.0824 40.8959 36.9393 41.0033C36.8026 41.1041 36.6368 41.1887 36.5912 41.3643C35.7357 40.7918 34.8802 39.2533 34.5517 38.105C34.324 37.3179 34.3435 37.1227 34.246 36.3941C34.1939 36.007 34.1776 35.0084 34.2395 34.5855C34.298 34.1789 34.35 33.7268 34.4411 33.33C34.054 33.343 33.8459 33.3007 33.3384 33.5642C33.075 33.7268 32.9058 33.9968 32.7985 34.2895C32.3203 35.6069 32.7822 37.2235 33.3222 38.3848C33.5043 38.7784 33.7223 39.1134 33.95 39.4582C34.4021 40.1413 34.9421 40.6715 35.5536 41.2147C36.0838 41.6864 36.383 41.7221 36.1944 42.0767C36.0643 42.0409 36.1 42.0344 35.996 41.9596L34.7631 41.0586C33.2961 39.7477 32.4992 38.4889 32.0438 36.5405C30.7655 36.5405 30.3166 38.8532 33.1042 40.935C33.8686 41.5042 34.6428 41.9076 35.5276 42.2686C35.7032 42.3402 35.8919 42.428 36.0773 42.4703V42.7468C35.7455 42.7468 34.8672 42.4638 34.5452 42.3402C34.054 42.1483 33.6409 41.9921 33.2116 41.7352C32.3951 41.2505 31.6828 40.8016 31.133 39.9787C30.6484 40.3007 30.6321 41.0944 30.9509 41.6246C31.2144 42.0637 31.7381 42.3564 32.2 42.5906C32.7074 42.8444 33.2961 43.007 33.95 43.0948C34.6526 43.1892 35.2836 43.1859 36.074 43.1859C36.087 43.3388 36.1098 43.29 36.1131 43.4624C35.9472 43.5437 35.1079 43.638 34.8445 43.6576C32.8473 43.8202 31.5949 42.9094 31.2892 42.8281C31.0062 44.0446 31.9918 44.6529 33.1855 44.6464C35.0982 44.6366 35.8691 43.9308 36.3082 43.895C36.3473 44.0446 36.3863 43.9958 36.4253 44.1715C35.7552 44.526 35.7683 44.6497 34.7794 44.9782C33.7092 45.3327 33.2181 45.1213 32.6293 45.1213C32.6293 45.6808 32.9221 45.941 33.384 46.0256C34.337 46.2012 35.1372 45.8467 35.8203 45.2677C35.9992 45.1181 36.5717 44.6464 36.6237 44.448C36.7539 44.4838 36.7961 44.5456 36.8612 44.6464C36.7961 44.7733 36.7083 44.8773 36.6107 44.9912C36.3277 45.323 36.1261 45.5344 35.765 45.8044C35.3747 46.0971 34.7079 46.4224 34.2102 46.4647C34.2329 46.7477 34.6948 47.0339 35.1112 46.9689C36.2464 46.7965 36.7473 45.6938 37.1767 44.8806C37.3101 44.8904 37.3198 44.9099 37.4142 44.9587C37.3198 45.362 37.0434 45.8987 36.8287 46.1915C36.4871 46.6534 36.3115 46.764 35.8333 47.0144C35.9309 47.3852 37.1474 47.678 37.5671 45.98C37.6223 45.7491 37.7264 45.323 37.7329 45.079C37.9053 45.0823 37.8566 45.105 38.0094 45.1181C38.0094 45.4043 37.9574 46.0874 37.8891 46.3021C37.811 46.546 37.6549 46.7347 37.5508 46.9233C37.489 47.0339 37.4304 47.0339 37.5801 47.086C37.9671 47.2226 38.3802 46.9006 38.4713 46.6859C38.6372 46.2923 38.5201 45.9996 38.4843 45.593C38.6567 45.5897 39.0145 45.5149 39.1674 45.4856C39.4016 45.4401 39.5773 45.3945 39.7562 45.323C40.3059 45.1018 40.7548 44.8123 41.0866 44.3211C41.3208 43.9763 41.4444 43.6706 41.5712 43.264C41.6883 42.8866 41.6623 43.0623 41.9616 42.9029C41.9616 42.2719 41.7599 42.5516 41.6363 42.158C41.4932 41.7026 42.3064 41.6896 41.8184 41.309C41.5582 41.1074 41.0183 40.8471 41.2134 40.0177C41.555 40.0177 41.7013 40.1933 42.0039 39.9787C42.1697 39.8648 42.2413 39.507 42.2413 39.2273C41.9778 39.2891 41.7989 39.5005 41.4997 39.2598C41.0963 38.9345 41.3793 38.1571 41.8965 38.0497C42.2413 37.9782 42.417 38.2059 42.4397 38.4759C42.6414 38.4206 42.8171 38.1246 42.8789 37.9261L42.9537 37.6822V37.6887ZM38.9592 36.7779C38.8486 36.7194 38.8291 36.7389 38.7608 36.6218C38.725 36.5632 38.6828 36.4429 38.699 36.3583C38.7283 36.2022 39.0894 35.7077 39.5155 36.342C39.3886 36.3128 39.2715 36.264 39.1186 36.264C38.8324 36.264 38.9592 36.7779 38.9592 36.7779ZM41.5289 36.856C41.4899 37.0284 41.4118 37.0804 41.3696 37.2528L41.298 37.1682C41.1907 37.0446 41.1711 37.0609 41.1354 36.9048L41.5289 36.8592V36.856Z" fill="#FF0000"/>
</svg>
