<svg width="80" height="80" viewBox="0 0 80 80" fill="none" xmlns="http://www.w3.org/2000/svg">
<path fill-rule="evenodd" clip-rule="evenodd" d="M66.0574 38.2672C66.2546 38.3739 66.3904 38.4967 66.5843 38.6002C66.8138 38.2284 69.6132 33.8127 69.6326 33.5994C69.5033 33.5638 69.5809 33.5832 69.4807 33.5153C69.4257 33.4798 69.374 33.4442 69.3126 33.4119C69.1801 33.3376 69.0992 33.2955 68.9473 33.2309C67.1694 32.4842 65.3883 32.0801 63.452 31.9217L62.9897 31.8829C62.3755 31.8312 60.5588 31.912 60.0513 31.9863C58.5837 32.1997 58.0633 32.3419 56.8026 32.8397C56.3856 33.0046 55.8393 33.2988 55.4611 33.5283C55.0311 33.7869 54.6303 34.0746 54.2553 34.3914C53.6832 34.8762 53.667 34.9635 53.2371 35.4064C53.1272 35.5163 53.0981 35.5616 53.0011 35.6779L52.3287 36.5669C52.3287 36.2921 52.9914 32.7589 52.9914 32.426C52.7781 32.3225 52.0637 32.1997 51.7533 32.1415C51.0745 32.0154 50.5056 31.912 49.7847 31.8441C48.1878 31.6922 46.2935 31.7374 44.7645 32.0122C44.6611 32.0316 44.5609 32.0348 44.4574 32.0575C42.8476 32.3936 41.7162 32.8074 40.1905 33.5703C39.0655 34.1328 37.3975 35.4129 36.5894 36.4149L36.0625 37.0615C35.9429 37.2069 35.8362 37.3556 35.7295 37.5108C35.652 37.6239 35.4936 37.9116 35.4095 37.973C35.4095 37.7306 35.4806 37.4623 35.5162 37.2586C35.6164 36.6445 36.3857 32.4777 36.3857 32.2288C35.1089 32.2288 33.8741 32.1835 32.5584 32.19C32.2157 32.19 31.9927 32.1512 31.621 32.1512H28.6923L28.3496 34.1522C28.146 34.9991 27.9391 36.5216 27.7387 37.4882C27.4833 38.7456 27.2699 40.2035 27.0146 41.4545C26.9693 41.6743 26.9434 41.9071 26.895 42.1172C26.8562 42.2756 26.7818 42.6506 26.7786 42.8219C26.6848 42.7152 25.9381 41.0569 25.8282 40.8436L21.6614 32.0381C19.7575 32.0381 17.611 32.1544 15.7232 32.1544H14.1975C14.0003 32.1544 13.9259 32.1932 13.7287 32.1932L10.4639 52.1349C10.4218 52.3547 10.3701 52.5874 10.3701 52.8202L17.9084 52.8299H18.0248L18.2996 52.8202C18.7942 49.7396 19.7219 45.5017 19.9805 42.3887C20.0807 42.4598 20.2359 42.8865 20.2908 43.0158L22.6344 48.2138C22.7347 48.4368 22.8155 48.634 22.9221 48.8635C23.3456 49.7719 23.976 51.2879 24.38 52.0929C24.4414 52.2157 24.4641 52.2933 24.5223 52.4193C24.5901 52.568 24.6257 52.6133 24.6645 52.7846H32.7911C32.7911 52.526 32.8849 52.1801 32.9301 51.9086L34.0001 45.8282L34.0583 46.0059C34.291 47.0759 34.6272 47.9649 35.235 48.8926C38.3091 53.5863 44.4833 53.4699 49.3806 52.8913C49.8849 52.8137 49.5843 52.9721 49.7815 52.1219C49.9075 52.1316 50.0853 52.2157 50.2243 52.2642C51.0939 52.5519 52.1962 52.8169 53.1013 52.943C56.1787 53.3665 59.1753 53.3729 62.1492 52.3838C64.4314 51.6209 66.2578 50.2277 67.4248 48.1265C67.9678 47.1503 68.5303 45.6342 68.4948 44.4252C68.4301 42.4113 67.0272 41.2185 65.301 40.4686C65.023 40.3457 64.703 40.2261 64.425 40.1324C62.6794 39.5473 60.5814 39.2531 58.7712 38.8717L61.2312 37.1617C61.5027 36.9677 61.59 36.9548 61.7613 36.7026C63.5877 37.2651 64.4638 37.4106 66.0509 38.2704L66.0574 38.2672ZM53.444 46.0318C53.153 45.8508 52.6585 45.5372 52.5615 45.5146C52.4613 45.6665 52.3804 45.8055 52.2738 45.9672L50.2696 49.1577L50.2211 49.1868C50.2276 48.9993 50.2793 48.7989 50.3084 48.6114C50.5023 47.4347 50.6963 46.2225 50.984 45.0685C51.0389 44.8519 51.1165 44.7065 51.1553 44.5384C50.8159 44.7646 50.8999 44.8099 50.1306 45.2722C48.3462 46.3518 44.7387 46.4747 43.1935 45.0362C41.9651 43.8919 42.1365 42.5794 42.8315 41.1765C43.1483 40.5397 43.465 40.1356 43.9338 39.6637C45.1718 38.4094 47.1017 38.3092 48.7309 38.7165C48.9604 38.7747 49.1834 38.8426 49.4 38.9072C49.9593 39.0786 50.7512 39.4568 51.2717 39.7316C51.2717 41.0407 51.7695 42.0849 52.6875 43.0029C54.7435 45.062 56.3856 44.6127 58.8165 45.3918C59.6375 45.6536 59.964 46.6395 59.2076 47.2408C58.4318 47.8582 57.0289 47.5543 56.1141 47.2699L53.444 46.0318Z" fill="#0D1B6F"/>
<path fill-rule="evenodd" clip-rule="evenodd" d="M63.9079 31.9572C63.8174 32.7783 62.311 35.8266 61.8229 36.6121C61.6128 36.9515 61.5384 36.9451 61.2378 37.1584L56.6282 40.3619C56.4083 40.5171 55.4386 41.1668 55.3351 41.2961L58.6841 41.3866C58.5903 41.6775 55.9332 44.6644 55.6487 44.7517C55.5937 44.9166 55.0022 45.4014 54.8373 45.5663C54.763 45.6407 54.7177 45.6891 54.6434 45.7635L54.2134 46.1546C54.1326 46.2258 54.0647 46.271 53.9839 46.3389C53.8352 46.549 53.0885 47.1373 52.8558 47.3345C51.8343 48.2105 50.3505 49.2805 49.2385 50.0466C48.5532 50.5186 44.5093 53.1079 43.9695 53.1628C43.8757 53.2695 43.7367 53.3051 43.5945 53.3891C43.5072 53.4408 43.5007 53.4441 43.4167 53.4861L42.4275 53.9839C41.8715 54.2328 41.3963 54.4882 40.8306 54.7306L39.2014 55.445C35.0023 57.1162 32.8268 57.8403 28.2786 58.7034C27.4996 58.8521 26.7787 58.836 26.1063 58.9168C25.8607 58.9459 25.7604 58.8941 25.5665 58.8844C25.3758 58.8748 25.1786 58.8974 24.9911 58.8748C24.684 58.836 24.2929 58.7875 23.9728 58.7196C23.3296 58.5806 22.7218 58.4028 22.1788 58.128C22.1044 58.0892 22.0721 58.0763 21.9913 58.0408L21.4159 57.7175C21.1702 57.5688 20.9472 57.4104 20.7306 57.2326C20.3201 56.8964 20.1455 56.751 19.8255 56.3792C19.7253 56.2596 19.6445 56.1659 19.541 56.0398C19.1951 55.6163 18.8816 55.083 18.6391 54.5981C18.4678 54.2554 18.0282 53.2824 18.0282 52.8396H17.9118C17.9086 53.0012 17.8471 53.2048 17.8181 53.3956C17.5788 54.9052 17.9377 56.6249 18.9398 57.7013C19.7382 58.558 20.8631 59.2659 21.9848 59.5794C22.3598 59.6829 22.6669 59.7766 23.0645 59.8671C24.2411 60.1451 25.6247 60.2098 26.9015 60.2098H28.0265C28.3885 60.2033 28.5017 60.171 29.5102 60.0482C30.9519 59.8736 33.8645 59.1786 35.1963 58.7778C35.387 58.7196 35.5519 58.6614 35.7297 58.6064C35.9042 58.5547 36.0949 58.5062 36.2695 58.4448L38.3222 57.724C40.3845 56.9869 42.3532 55.9978 44.2959 55.0248L47.6546 53.1014C47.7354 53.0044 48.5597 52.5034 48.7342 52.3935C49.0931 52.1672 49.4454 51.9344 49.7978 51.6985C50.5089 51.2201 51.191 50.7416 51.8634 50.2471C52.8105 49.5521 54.4268 48.3237 55.3222 47.5349C55.4321 47.438 55.6713 47.2117 55.8103 47.1761L56.4924 46.5555C56.4924 46.5555 56.5279 46.5264 56.5344 46.5199L57.6917 45.4887C57.7886 45.4047 57.8533 45.3239 57.947 45.2463C58.0343 45.0814 58.2056 44.9812 58.3479 44.8551C58.8845 44.3767 59.7896 43.4296 60.2971 42.8962L61.0341 42.1269C61.2345 42.8477 61.5028 45.4499 61.6548 45.757L63.4876 39.8511C63.6557 39.4729 63.7689 39.043 63.9014 38.6454C63.9855 38.39 64.1956 37.6498 64.354 37.5075C64.3895 37.3524 64.5996 37.0582 64.6934 36.8966C65.0005 36.36 65.3367 35.6553 65.5791 35.0864C65.7634 34.6532 65.9347 34.2265 66.0963 33.7675C66.1836 33.5186 66.4616 32.5456 66.5553 32.4324L66.8075 31.3915C66.8851 31.0392 66.9691 30.661 67.0176 30.3151C67.1469 29.4003 67.176 28.8184 67.1792 27.8584C67.1857 26.8757 66.8689 25.476 66.4745 24.6549L66.2547 24.212C66.022 23.7562 65.7601 23.4362 65.4563 23.058C64.0792 21.3544 61.3606 20.4429 59.1948 20.139C58.1281 19.9903 57.2682 20.0097 56.1562 20.0065H56.0722C55.0571 20.0129 53.0174 20.3168 52.0508 20.5463C50.2244 20.9827 49.7363 21.154 48.0005 21.7327C47.3733 21.9428 46.7365 22.224 46.1256 22.4761C45.5211 22.7251 44.9231 23.0095 44.3347 23.3037C44.0341 23.4524 43.769 23.572 43.4846 23.7433L42.8575 24.0924C42.712 24.1765 42.7217 24.1183 42.6797 24.267C43.504 23.8306 44.6741 23.391 45.5308 23.016C46.6201 22.5376 48.4013 21.9719 49.481 21.6551L51.3688 21.1993C51.705 21.1379 52.0024 21.0603 52.345 21.0021C52.7232 20.9407 53.0141 20.8987 53.3988 20.8469C55.8135 20.5172 58.4158 20.6368 60.6818 21.4611L61.5352 21.8199C61.978 22.0171 62.2528 22.2143 62.6245 22.4891C63.6848 23.2811 64.3507 24.4997 64.6061 25.8218C64.8227 26.95 64.7904 27.9327 64.619 29.0997C64.5318 29.688 64.2602 30.9131 64.076 31.4853C64.0178 31.6598 63.9661 31.7827 63.9143 31.9669L63.9079 31.9572Z" fill="#FF7F00"/>
<path fill-rule="evenodd" clip-rule="evenodd" d="M14.7858 29.3453L15.1349 26.9597H14.4949L14.6048 26.2389H16.6251L16.5152 26.9597H15.9043L15.5551 29.3453H14.7858ZM16.5152 29.3453H17.2037L17.346 28.3465C17.3751 28.1396 17.4268 27.9877 17.4947 27.8907C17.5626 27.7969 17.6595 27.7485 17.7791 27.7485C17.8664 27.7485 17.9343 27.7711 17.9796 27.8196C18.0248 27.8681 18.0474 27.9392 18.0474 28.0297C18.0474 28.0523 18.0474 28.0782 18.0442 28.1105C18.041 28.1428 18.0377 28.1719 18.0313 28.2042L17.8664 29.3389H18.5647L18.7295 28.2139C18.7295 28.2139 18.7295 28.1913 18.7327 28.1752C18.7554 28.0038 18.7683 27.881 18.7683 27.8066C18.7683 27.5901 18.7101 27.422 18.6002 27.3024C18.4871 27.1828 18.3287 27.1213 18.125 27.1213C17.999 27.1213 17.8826 27.1537 17.7759 27.2183C17.6692 27.283 17.5626 27.3864 17.4527 27.5254C17.4656 27.4737 17.4785 27.4187 17.4882 27.3638C17.4979 27.3088 17.5076 27.2539 17.5141 27.1957L17.6886 26.0417H17.0033L16.5184 29.3324L16.5152 29.3453ZM20.5785 28.02C20.5721 27.9036 20.5365 27.8131 20.4719 27.7452C20.4072 27.6773 20.3199 27.6418 20.2133 27.6418C20.1163 27.6418 20.029 27.6741 19.9547 27.742C19.8771 27.8099 19.8221 27.9004 19.7801 28.02H20.5785ZM19.7348 28.4532V28.5016C19.7348 28.6374 19.7672 28.7409 19.8318 28.812C19.8965 28.8831 19.987 28.9186 20.1098 28.9186C20.1971 28.9186 20.2779 28.8992 20.3523 28.8605C20.4298 28.8217 20.5107 28.757 20.5979 28.673L20.9761 29.0867C20.863 29.2031 20.7337 29.2904 20.5882 29.3486C20.4428 29.4068 20.2779 29.4359 20.0969 29.4359C19.7736 29.4359 19.5247 29.3421 19.3469 29.1579C19.1691 28.9704 19.0786 28.7118 19.0786 28.3756C19.0786 28.0103 19.1853 27.7097 19.3954 27.4802C19.6055 27.2506 19.8803 27.1375 20.2165 27.1375C20.5204 27.1375 20.766 27.2377 20.9535 27.4414C21.1378 27.645 21.2315 27.9133 21.2315 28.2463C21.2315 28.2754 21.2283 28.3303 21.2186 28.4079C21.2186 28.4305 21.2154 28.4499 21.2121 28.4596H19.7316L19.7348 28.4532ZM24.3994 27.7258C24.5804 27.7614 24.7194 27.8422 24.8164 27.9618C24.9134 28.0814 24.9587 28.2398 24.9587 28.4305C24.9587 28.5889 24.9263 28.7344 24.8617 28.8702C24.797 29.0027 24.7097 29.1094 24.5934 29.1869C24.5093 29.2419 24.4059 29.2839 24.2798 29.3066C24.1537 29.3292 23.9436 29.3421 23.6527 29.3421H22.7088L23.1646 26.2324H23.8143C24.0632 26.2324 24.241 26.2389 24.3477 26.2518C24.4544 26.2647 24.5449 26.2873 24.616 26.3197C24.7356 26.3714 24.8294 26.4554 24.9005 26.5718C24.9716 26.6882 25.0039 26.8239 25.0039 26.9694C25.0039 27.1763 24.949 27.3444 24.8423 27.4769C24.7356 27.6095 24.5869 27.6935 24.3994 27.7194V27.7258ZM23.5428 28.7344H23.6333C23.866 28.7344 24.018 28.7053 24.0956 28.6439C24.1731 28.5825 24.2087 28.4758 24.2087 28.3239C24.2087 28.2107 24.1764 28.1299 24.1117 28.0814C24.0471 28.0329 23.9372 28.0103 23.782 28.0103H23.6462L23.5428 28.7376V28.7344ZM23.7303 27.4381H23.7949C23.9792 27.4381 24.1053 27.4123 24.1731 27.3573C24.2443 27.3056 24.2766 27.2151 24.2766 27.089C24.2766 26.9985 24.2475 26.9339 24.1925 26.8918C24.1344 26.8498 24.0438 26.8304 23.921 26.8304H23.8143L23.7303 27.4381ZM26.6978 28.0168C26.6913 27.9004 26.6557 27.8099 26.5911 27.742C26.5264 27.6741 26.4392 27.6385 26.3325 27.6385C26.2355 27.6385 26.1482 27.6709 26.0739 27.7388C25.9963 27.8066 25.9414 27.8972 25.8993 28.0168H26.6978ZM25.8541 28.4499V28.4984C25.8541 28.6342 25.8864 28.7376 25.951 28.8087C26.0157 28.8799 26.1062 28.9154 26.2291 28.9154C26.3163 28.9154 26.3971 28.896 26.4715 28.8572C26.5491 28.8184 26.6299 28.7538 26.7172 28.6697L27.0954 29.0835C26.9822 29.1999 26.8529 29.2872 26.7075 29.3453C26.562 29.4035 26.3971 29.4326 26.2161 29.4326C25.8929 29.4326 25.644 29.3389 25.4662 29.1546C25.2884 28.9671 25.1979 28.7085 25.1979 28.3723C25.1979 28.0071 25.3045 27.7064 25.5147 27.4769C25.7248 27.2474 25.9995 27.1343 26.3357 27.1343C26.6396 27.1343 26.8853 27.2345 27.0727 27.4381C27.257 27.6418 27.3507 27.9101 27.3507 28.243C27.3507 28.2721 27.3475 28.3271 27.3378 28.4047C27.3378 28.4273 27.3346 28.4467 27.3314 28.4564H25.8508L25.8541 28.4499ZM29.203 27.3541L28.9994 27.8357C28.9088 27.7646 28.828 27.7161 28.7504 27.6838C28.6761 27.6515 28.6017 27.6353 28.5242 27.6353C28.4627 27.6353 28.411 27.6515 28.369 27.6806C28.327 27.7129 28.3076 27.7517 28.3076 27.7969C28.3076 27.8616 28.3755 27.923 28.5112 27.978C28.5727 28.0006 28.6179 28.0232 28.6502 28.0394C28.841 28.1299 28.9703 28.2204 29.0478 28.3174C29.1222 28.4144 29.161 28.5307 29.161 28.6762C29.161 28.9025 29.0802 29.0835 28.9218 29.2193C28.7601 29.355 28.5468 29.4229 28.2817 29.4229C28.1298 29.4229 27.9876 29.4003 27.8486 29.3583C27.7096 29.3162 27.577 29.2484 27.4477 29.1611L27.6805 28.6471C27.813 28.7376 27.9261 28.799 28.0134 28.8346C28.1039 28.8702 28.188 28.8896 28.2688 28.8896C28.3367 28.8896 28.3949 28.8734 28.4337 28.8411C28.4757 28.8087 28.4951 28.7635 28.4951 28.7118C28.4951 28.6309 28.3981 28.5501 28.2074 28.4629C28.1492 28.437 28.1072 28.4176 28.0748 28.4047C27.9229 28.3303 27.813 28.2495 27.7484 28.1655C27.6837 28.0782 27.6514 27.9715 27.6514 27.8422C27.6514 27.6353 27.729 27.464 27.8874 27.3315C28.0457 27.1957 28.2462 27.1278 28.4951 27.1278C28.6211 27.1278 28.744 27.1472 28.8604 27.186C28.98 27.2248 29.0899 27.2797 29.1933 27.3541H29.203ZM29.4778 29.3421L29.7105 27.7452H29.3808L29.4616 27.1989H29.7913L29.8786 26.5783H30.5736L30.4831 27.1989H30.8354L30.7546 27.7452H30.4023L30.1728 29.3421H29.4778ZM32.0832 29.3421L32.316 27.7452H31.9862L32.0671 27.1989H32.3968L32.4291 26.9823C32.4323 26.9629 32.4388 26.9371 32.442 26.8983C32.4808 26.6074 32.5422 26.4102 32.6166 26.3067C32.6877 26.2098 32.7814 26.1322 32.8914 26.0805C33.0045 26.0255 33.1273 25.9996 33.2631 25.9996C33.3245 25.9996 33.3924 26.0061 33.4603 26.0223C33.5282 26.0352 33.5993 26.0611 33.6736 26.0902L33.5864 26.7043C33.5476 26.6849 33.512 26.6688 33.4732 26.6591C33.4344 26.6494 33.4021 26.6429 33.3698 26.6429C33.2922 26.6429 33.234 26.6688 33.1952 26.7205C33.1564 26.7722 33.1273 26.8692 33.1079 27.0082L33.0788 27.1989H33.512L33.4312 27.7452H33.0013L32.7717 29.3421H32.0767H32.0832ZM34.6596 27.742C34.5238 27.742 34.4074 27.8034 34.3137 27.9262C34.2199 28.0491 34.1714 28.201 34.1714 28.3788C34.1714 28.5113 34.207 28.6148 34.2749 28.6924C34.3428 28.7699 34.4365 28.8087 34.5497 28.8087C34.6951 28.8087 34.8147 28.7506 34.9052 28.6309C34.999 28.5113 35.0442 28.3562 35.0442 28.1719C35.0442 28.0394 35.0087 27.9359 34.9408 27.8584C34.8697 27.7808 34.7759 27.742 34.6563 27.742H34.6596ZM33.5023 28.3723C33.5023 28.6924 33.596 28.9477 33.7803 29.1417C33.9646 29.3356 34.2135 29.4294 34.5238 29.4294C34.8729 29.4294 35.1574 29.313 35.3804 29.0803C35.6035 28.8475 35.7134 28.5534 35.7134 28.1913C35.7134 27.8681 35.6196 27.6095 35.4289 27.4155C35.2414 27.2215 34.9893 27.1246 34.6725 27.1246C34.3298 27.1246 34.0518 27.2409 33.832 27.4737C33.6122 27.7064 33.5023 28.0071 33.5023 28.3691V28.3723ZM35.9235 29.3421L36.237 27.1989H36.9062L36.8577 27.5642C36.9191 27.4284 36.9999 27.325 37.1034 27.2539C37.2068 27.1828 37.3264 27.1472 37.4622 27.1472C37.4751 27.1472 37.4913 27.1472 37.5107 27.1472C37.5301 27.1472 37.5559 27.1537 37.598 27.1601L37.459 27.8325C37.4137 27.8196 37.3717 27.8131 37.3361 27.8066C37.3006 27.8002 37.265 27.7969 37.2294 27.7969C37.0969 27.7969 36.9902 27.8422 36.9127 27.9327C36.8351 28.0232 36.7834 28.1655 36.7543 28.3562L36.612 29.3356H35.9235V29.3421ZM39.7444 28.6503H40.6301L40.5299 29.3421H38.8813L39.3338 26.2324H40.9824L40.879 26.95H39.9933L39.9222 27.4575H40.7432L40.6463 28.1299H39.822L39.7444 28.6471V28.6503ZM41.5611 29.3421L41.8326 28.9574C41.8552 28.9251 41.8779 28.8895 41.9005 28.8508C41.9231 28.812 41.9457 28.7635 41.9716 28.7085C41.9813 28.7441 41.9942 28.7829 42.0072 28.8184C42.0233 28.854 42.0395 28.8992 42.0654 28.9477L42.2496 29.3421H43.0319L42.4597 28.2301L43.2388 27.1989H42.4468L42.2108 27.5383C42.185 27.5771 42.1591 27.6159 42.1332 27.6579C42.1106 27.7 42.088 27.742 42.0686 27.784C42.0557 27.7388 42.0427 27.6935 42.0266 27.6579C42.0136 27.6192 41.9975 27.5836 41.9813 27.548L41.8132 27.1989H41.0633L41.6354 28.2204L40.6947 29.3421H41.5611ZM44.9197 28.2204C44.9197 28.0814 44.8809 27.9715 44.8033 27.8875C44.7257 27.8034 44.6255 27.7614 44.4995 27.7614C44.3605 27.7614 44.2441 27.8196 44.1536 27.9359C44.0631 28.0523 44.0146 28.1978 44.0146 28.3723C44.0146 28.5049 44.0534 28.6115 44.131 28.6956C44.2085 28.7764 44.3088 28.8184 44.4316 28.8184C44.5738 28.8184 44.6902 28.7635 44.7839 28.6503C44.8744 28.5372 44.9229 28.395 44.9229 28.2204H44.9197ZM43.103 30.2892L43.5556 27.1989H44.2118L44.1697 27.4963C44.2667 27.3735 44.3734 27.283 44.4898 27.2216C44.6061 27.1601 44.729 27.131 44.8615 27.131C45.091 27.131 45.2753 27.2215 45.4207 27.409C45.5662 27.5933 45.6373 27.8325 45.6373 28.1267C45.6373 28.4984 45.5404 28.8055 45.3432 29.0512C45.146 29.2969 44.9003 29.4197 44.6061 29.4197C44.4736 29.4197 44.354 29.3906 44.2441 29.3292C44.1374 29.2678 44.034 29.174 43.9402 29.0447C43.9402 29.1126 43.9402 29.174 43.9338 29.2322C43.9338 29.2904 43.9273 29.3389 43.9176 29.3809L43.7883 30.2957H43.0998L43.103 30.2892ZM45.8765 29.3421L46.1901 27.1989H46.8592L46.8107 27.5642C46.8722 27.4284 46.953 27.325 47.0564 27.2539C47.1599 27.1828 47.2795 27.1472 47.4152 27.1472C47.4282 27.1472 47.4476 27.1472 47.4637 27.1472C47.4831 27.1472 47.509 27.1537 47.551 27.1601L47.412 27.8325C47.3667 27.8196 47.3247 27.8131 47.2892 27.8066C47.2536 27.8002 47.2181 27.7969 47.1825 27.7969C47.05 27.7969 46.9433 27.8422 46.8657 27.9327C46.7881 28.0232 46.7364 28.1655 46.7073 28.3562L46.5651 29.3356H45.8765V29.3421ZM49.0865 28.0168C49.08 27.9004 49.0444 27.8099 48.9798 27.742C48.9151 27.6741 48.8279 27.6385 48.7212 27.6385C48.6242 27.6385 48.5369 27.6709 48.4626 27.7388C48.385 27.8066 48.3301 27.8972 48.288 28.0168H49.0865ZM48.2428 28.4499V28.4984C48.2428 28.6342 48.2751 28.7376 48.3397 28.8087C48.4044 28.8799 48.4949 28.9154 48.6177 28.9154C48.705 28.9154 48.7858 28.896 48.8602 28.8572C48.9378 28.8184 49.0186 28.7538 49.1059 28.6697L49.4841 29.0835C49.3709 29.1999 49.2416 29.2872 49.0962 29.3453C48.9507 29.4035 48.7858 29.4326 48.6048 29.4326C48.2816 29.4326 48.0327 29.3389 47.8549 29.1546C47.6771 28.9671 47.5866 28.7085 47.5866 28.3723C47.5866 28.0071 47.6932 27.7064 47.9034 27.4769C48.1135 27.2474 48.3882 27.1343 48.7244 27.1343C49.0283 27.1343 49.274 27.2345 49.4614 27.4381C49.6457 27.6418 49.7394 27.9101 49.7394 28.243C49.7394 28.2721 49.7362 28.3271 49.7298 28.4047C49.7298 28.4273 49.7265 28.4467 49.7233 28.4564H48.2428V28.4499ZM51.5917 27.3541L51.3881 27.8357C51.2975 27.7646 51.2167 27.7161 51.1391 27.6838C51.0648 27.6515 50.9904 27.6353 50.9129 27.6353C50.8514 27.6353 50.7997 27.6515 50.7577 27.6806C50.7157 27.7129 50.6963 27.7517 50.6963 27.7969C50.6963 27.8616 50.7642 27.923 50.8999 27.978C50.9614 28.0006 51.0066 28.0232 51.0389 28.0394C51.2297 28.1299 51.359 28.2204 51.4365 28.3174C51.5109 28.4144 51.5497 28.5307 51.5497 28.6762C51.5497 28.9025 51.4689 29.0835 51.3105 29.2193C51.1488 29.355 50.9355 29.4229 50.6704 29.4229C50.5185 29.4229 50.3763 29.4003 50.2373 29.3583C50.0983 29.3162 49.9657 29.2484 49.8364 29.1611L50.0692 28.6471C50.2017 28.7376 50.3148 28.799 50.4021 28.8346C50.4926 28.8702 50.5767 28.8896 50.6575 28.8896C50.7254 28.8896 50.7836 28.8734 50.8224 28.8411C50.8644 28.8087 50.8838 28.7635 50.8838 28.7118C50.8838 28.6309 50.7868 28.5501 50.5961 28.4629C50.5379 28.437 50.4959 28.4176 50.4635 28.4047C50.3116 28.3303 50.2017 28.2495 50.1371 28.1655C50.0724 28.0782 50.0401 27.9715 50.0401 27.8422C50.0401 27.6353 50.1177 27.464 50.2761 27.3315C50.4344 27.1957 50.6349 27.1278 50.8838 27.1278C51.0098 27.1278 51.1327 27.1472 51.2491 27.186C51.3687 27.2248 51.4786 27.2797 51.582 27.3541H51.5917ZM53.4278 27.3541L53.2241 27.8357C53.1336 27.7646 53.0528 27.7161 52.9752 27.6838C52.9009 27.6515 52.8265 27.6353 52.749 27.6353C52.6875 27.6353 52.6358 27.6515 52.5938 27.6806C52.5518 27.7129 52.5324 27.7517 52.5324 27.7969C52.5324 27.8616 52.6003 27.923 52.736 27.978C52.7974 28.0006 52.8427 28.0232 52.875 28.0394C53.0658 28.1299 53.1951 28.2204 53.2726 28.3174C53.347 28.4144 53.3858 28.5307 53.3858 28.6762C53.3858 28.9025 53.305 29.0835 53.1466 29.2193C52.9849 29.355 52.7716 29.4229 52.5065 29.4229C52.3546 29.4229 52.2124 29.4003 52.0734 29.3583C51.9344 29.3162 51.8018 29.2484 51.6725 29.1611L51.9053 28.6471C52.0378 28.7376 52.1509 28.799 52.2382 28.8346C52.3287 28.8702 52.4128 28.8896 52.4936 28.8896C52.5615 28.8896 52.6197 28.8734 52.6584 28.8411C52.7005 28.8087 52.7199 28.7635 52.7199 28.7118C52.7199 28.6309 52.6229 28.5501 52.4322 28.4629C52.374 28.437 52.332 28.4176 52.2996 28.4047C52.1477 28.3303 52.0378 28.2495 51.9731 28.1655C51.9085 28.0782 51.8762 27.9715 51.8762 27.8422C51.8762 27.6353 51.9538 27.464 52.1121 27.3315C52.2705 27.1957 52.471 27.1278 52.7199 27.1278C52.8459 27.1278 52.9688 27.1472 53.0851 27.186C53.2048 27.2248 53.3147 27.2797 53.4181 27.3541H53.4278Z" fill="black"/>
</svg>
