<svg width="80" height="80" viewBox="0 0 80 80" fill="none" xmlns="http://www.w3.org/2000/svg">
<path fill-rule="evenodd" clip-rule="evenodd" d="M32.0793 44.592V39.0399C32.0793 38.7541 32.055 38.4821 32.0073 38.2233C31.959 37.9652 31.8803 37.7371 31.7702 37.5398C31.6616 37.3439 31.5014 37.1816 31.3069 37.0704C31.1077 36.9548 30.8568 36.8966 30.5551 36.8966C30.2527 36.8966 29.9887 36.9548 29.7618 37.0704C29.5381 37.1837 29.3442 37.3479 29.1955 37.5497C29.0443 37.754 28.9311 37.9888 28.8557 38.2542C28.7796 38.5231 28.7415 38.8013 28.7424 39.0808V44.592H25.3439V34.427H28.619V35.8353H28.6602C28.7837 35.6178 28.945 35.4034 29.1441 35.1925C29.343 34.9817 29.5767 34.8013 29.8444 34.6514C30.1221 34.4977 30.4155 34.3745 30.7196 34.284C31.0357 34.189 31.372 34.1412 31.7291 34.1412C32.4158 34.1412 32.999 34.2636 33.4802 34.5086C33.9605 34.7534 34.3483 35.0701 34.6436 35.4578C34.9387 35.8458 35.1516 36.2914 35.282 36.7946C35.4113 37.2878 35.4772 37.7954 35.4781 38.3052V44.592H32.0793ZM37.621 44.4337H40.9361V34.2995H37.621V44.4337ZM41.1785 31.0639C41.1785 31.3219 41.128 31.5625 41.0267 31.7863C40.9303 32.0037 40.7931 32.2006 40.6224 32.3661C40.4541 32.5291 40.2519 32.6583 40.0161 32.7531C39.7802 32.8481 39.5339 32.8952 39.2784 32.8952C38.739 32.8952 38.2881 32.7158 37.924 32.3562C37.5603 31.9967 37.3782 31.566 37.3782 31.0639C37.3782 30.8197 37.4252 30.5857 37.5198 30.3618C37.6115 30.1418 37.7494 29.9441 37.924 29.7819C38.1028 29.6169 38.3077 29.4827 38.5305 29.385C38.7596 29.2833 39.0087 29.2325 39.2784 29.2325C39.5339 29.2325 39.7803 29.2801 40.0163 29.375C40.2519 29.47 40.4541 29.5987 40.6224 29.7615C40.793 29.9273 40.9302 30.1241 41.0267 30.3415C41.128 30.5653 41.1785 30.8063 41.1785 31.0639ZM49.6557 44.592V39.0399C49.6557 38.7541 49.632 38.4821 49.5835 38.2233C49.5352 37.9652 49.4565 37.7371 49.3469 37.5398C49.2381 37.3439 49.0777 37.1816 48.8831 37.0704C48.6839 36.9548 48.4334 36.8966 48.1313 36.8966C47.8295 36.8966 47.5652 36.9548 47.3385 37.0704C47.112 37.186 46.923 37.346 46.7721 37.5497C46.6205 37.754 46.5075 37.9888 46.4323 38.2542C46.3562 38.5231 46.3181 38.8013 46.319 39.0808V44.592H42.9203V34.427H46.1952V35.8353H46.2364C46.3601 35.6178 46.5214 35.4034 46.7206 35.1925C46.9195 34.9817 47.1529 34.8013 47.421 34.6514C47.6986 34.4976 47.9922 34.3744 48.2965 34.284C48.6119 34.189 48.9482 34.1412 49.3056 34.1412C49.992 34.1412 50.5755 34.2636 51.0564 34.5086C51.537 34.7534 51.9246 35.0701 52.22 35.4578C52.5154 35.8458 52.7282 36.2914 52.8587 36.7946C52.9877 37.2878 53.0535 37.7954 53.0544 38.3052V44.592H49.6557ZM58.7549 31.0661C58.7549 31.3244 58.7029 31.5654 58.5992 31.7894C58.4994 32.008 58.3583 32.2052 58.1836 32.3701C58.0103 32.5332 57.8027 32.6626 57.5602 32.7574C57.3179 32.8527 57.0648 32.8999 56.8022 32.8999C56.2479 32.8999 55.7843 32.72 55.4101 32.36C55.0363 32.0002 54.8491 31.5689 54.8491 31.0663C54.8491 30.8216 54.8979 30.5873 54.9946 30.3632C55.0895 30.1419 55.2313 29.9438 55.4101 29.7826C55.5946 29.6168 55.8051 29.4825 56.0332 29.3851C56.2687 29.2833 56.5247 29.2325 56.8022 29.2325C57.065 29.2325 57.318 29.2803 57.5602 29.375C57.8027 29.4703 58.0103 29.5992 58.1836 29.7621C58.3581 29.9272 58.4993 30.1243 58.5992 30.3428C58.7029 30.5669 58.7549 30.8082 58.7549 31.0661ZM58.5056 44.7174C58.5056 45.3421 58.4467 45.9362 58.3291 46.5001C58.2111 47.0635 58 47.5559 57.6954 47.9771C57.3907 48.3983 56.9686 48.7308 56.4283 48.9756C55.8879 49.2201 55.2022 49.3424 54.3714 49.3424C54.1359 49.3424 53.8797 49.3286 53.6025 49.3015C53.3257 49.2741 53.0902 49.2334 52.8961 49.1793L53.1249 46.388C53.2495 46.4288 53.3776 46.4559 53.509 46.4694C53.623 46.4819 53.7375 46.4887 53.8522 46.4898C54.3506 46.4898 54.6832 46.3232 54.8491 45.9908C55.0154 45.6578 55.0987 45.2333 55.0987 44.7174V34.3059H58.5056V44.7174ZM66.5808 40.0627H66.1466C65.7745 40.0627 65.3989 40.0801 65.02 40.1138C64.6414 40.1479 64.3035 40.213 64.0074 40.3083C63.7109 40.4039 63.4661 40.5437 63.2737 40.7279C63.0806 40.9121 62.9843 41.1545 62.9843 41.4544C62.9843 41.6457 63.0289 41.8096 63.1184 41.9459C63.2054 42.0799 63.3223 42.192 63.4598 42.2734C63.5976 42.3554 63.7559 42.4135 63.935 42.4475C64.1139 42.4816 64.2865 42.4987 64.4517 42.4987C65.1405 42.4987 65.6678 42.3112 66.0329 41.9356C66.3979 41.5605 66.5808 41.0524 66.5808 40.4106V40.0627ZM60.3592 35.7023C60.9657 35.1294 61.6718 34.6994 62.4781 34.4128C63.2839 34.1262 64.1071 33.9829 64.9478 33.9829C65.8163 33.9829 66.5498 34.0889 67.1488 34.3005C67.7489 34.5119 68.2342 34.8395 68.6062 35.2827C68.9783 35.7266 69.2503 36.286 69.4228 36.9615C69.5947 37.637 69.6807 38.4389 69.6807 39.3666V44.5048H66.5808V43.4198H66.5182C66.2567 43.8429 65.8605 44.1703 65.3305 44.4022C64.7994 44.6341 64.2244 44.7504 63.6042 44.7504C63.1909 44.7504 62.764 44.6957 62.3229 44.5865C61.8817 44.4777 61.4786 44.2999 61.1136 44.0544C60.7488 43.8087 60.4489 43.4811 60.2145 43.0716C59.9806 42.6622 59.8633 42.1574 59.8633 41.557C59.8633 40.8199 60.0663 40.2264 60.4734 39.7761C60.8794 39.3256 61.403 38.9777 62.044 38.7321C62.6847 38.4865 63.3977 38.3226 64.183 38.2409C64.9451 38.1601 65.7109 38.1191 66.4772 38.1179V37.9542C66.4772 37.4494 66.2981 37.0772 65.9398 36.8383C65.5816 36.6 65.1405 36.4803 64.6171 36.4803C64.1345 36.4803 63.6699 36.5826 63.2221 36.7872C62.774 36.9921 62.3918 37.2375 62.0749 37.5243L60.3592 35.7023Z" fill="#C2002F"/>
<path fill-rule="evenodd" clip-rule="evenodd" d="M28.5153 50.1341L27.64 48.8691L26.7399 50.1341H25.1856L26.8136 47.9765L25.3409 46.0171H26.9038L27.6643 47.1168L28.4337 46.0171H29.9474L28.4827 47.9765L30.0943 50.1341H28.5153ZM33.6851 48.0023C33.6851 47.8709 33.6639 47.7426 33.6226 47.6159C33.5836 47.4946 33.5218 47.3817 33.4405 47.2836C33.357 47.1853 33.254 47.1056 33.1379 47.0495C33.0166 46.9894 32.8757 46.9593 32.7153 46.9593C32.5604 46.9593 32.4223 46.9894 32.3007 47.0495C32.1823 47.1074 32.0767 47.1885 31.9902 47.288C31.9038 47.3871 31.8362 47.5011 31.7907 47.6245C31.7445 47.7479 31.7208 47.8787 31.7207 48.0105C31.7207 48.1416 31.7441 48.2705 31.7908 48.3964C31.8363 48.5199 31.9038 48.634 31.9902 48.7332C32.0766 48.8325 32.1822 48.9134 32.3005 48.9711C32.4223 49.0314 32.5602 49.0616 32.7154 49.0616C32.8757 49.0616 33.0166 49.0315 33.1379 48.9711C33.2548 48.9147 33.358 48.8335 33.4403 48.7332C33.5204 48.6346 33.5812 48.521 33.6226 48.3923C33.6636 48.2664 33.6847 48.1348 33.6851 48.0023ZM35.003 48.0023C35.003 48.287 34.9587 48.5606 34.8703 48.8235C34.7821 49.0862 34.6534 49.3175 34.4849 49.5173C34.3146 49.7185 34.1043 49.882 33.8674 49.9976C33.6238 50.1181 33.3477 50.1786 33.0384 50.1786C32.7841 50.1786 32.5438 50.1276 32.3175 50.0266C32.0904 49.9252 31.9137 49.787 31.7867 49.6117H31.7701V52.0343H30.411V45.9739H31.7041V46.4746H31.7289C31.8559 46.3104 32.0314 46.1671 32.2549 46.0437C32.479 45.9204 32.7426 45.8588 33.0467 45.8588C33.3452 45.8588 33.6159 45.9164 33.859 46.0314C34.0959 46.1416 34.3064 46.3012 34.4765 46.4994C34.6449 46.6964 34.7747 46.9254 34.8659 47.1851C34.9573 47.4452 35.003 47.7176 35.003 48.0023ZM38.1128 47.1032C38.0554 47.0871 37.9968 47.0758 37.9375 47.0696C37.8818 47.0642 37.8259 47.0614 37.77 47.0612C37.5907 47.0612 37.4401 47.0948 37.3176 47.1613C37.1952 47.2278 37.097 47.3086 37.0237 47.4028C36.9518 47.4946 36.8978 47.5991 36.8645 47.7108C36.8321 47.8221 36.8155 47.919 36.8155 48.0021V50.1341H35.4781V45.981H36.767V46.5819H36.7835C36.8829 46.3733 37.0346 46.1939 37.2237 46.061C37.4138 45.9264 37.6344 45.8588 37.8844 45.8588C37.9388 45.8588 37.9918 45.8619 38.0434 45.8672C38.0952 45.8729 38.1372 45.8811 38.1699 45.8925L38.1128 47.1032ZM41.4056 47.599C41.4056 47.3813 41.3408 47.1946 41.2114 47.0381C41.0816 46.8822 40.8873 46.8043 40.6281 46.8043C40.5014 46.8043 40.385 46.8252 40.2793 46.8668C40.177 46.9066 40.0829 46.9646 40.0015 47.0381C39.9224 47.111 39.859 47.1962 39.8115 47.2935C39.7644 47.3888 39.7372 47.4927 39.7317 47.5988L41.4056 47.599ZM42.6036 48.126V48.2932C42.6036 48.3489 42.6009 48.4021 42.5957 48.4522H39.7317C39.7423 48.569 39.7756 48.6751 39.8311 48.77C39.8864 48.8648 39.9578 48.9471 40.0449 49.0167C40.1322 49.0863 40.2303 49.141 40.3385 49.1798C40.4473 49.2189 40.5594 49.2383 40.6758 49.2383C40.8821 49.2383 41.0564 49.198 41.1993 49.1169C41.3379 49.0401 41.4574 48.933 41.5487 48.8035L42.4526 49.4056C42.2715 49.6864 42.0181 49.9133 41.7191 50.0624C41.4151 50.2155 41.0617 50.2924 40.6599 50.2924C40.3638 50.2924 40.0835 50.2434 39.819 50.146C39.561 50.0525 39.3249 49.9074 39.1249 49.7196C38.9265 49.5324 38.7704 49.3028 38.657 49.0295C38.543 48.7562 38.4866 48.4436 38.4866 48.0922C38.4866 47.7523 38.5421 47.4441 38.6532 47.168C38.7641 46.8921 38.9148 46.6575 39.1053 46.4652C39.2974 46.2719 39.5268 46.1196 39.7795 46.0177C40.0386 45.912 40.3187 45.8588 40.6203 45.8588C40.9112 45.8588 41.1784 45.9104 41.4214 46.014C41.661 46.1145 41.8752 46.2672 42.0481 46.4611C42.223 46.6562 42.359 46.8934 42.4567 47.1721C42.5544 47.4511 42.6036 47.7691 42.6036 48.126ZM45.5265 47.2224C45.4162 47.114 45.2894 47.0236 45.1509 46.9545C45.0099 46.8828 44.8539 46.8456 44.6957 46.8459C44.573 46.8459 44.4601 46.8709 44.356 46.9213C44.2522 46.9715 44.2002 47.0581 44.2002 47.1805C44.2002 47.2977 44.2574 47.3813 44.3719 47.4316C44.4864 47.4817 44.6715 47.5374 44.9273 47.5988C45.076 47.6321 45.2269 47.6796 45.3786 47.7412C45.5274 47.8007 45.6662 47.8824 45.7903 47.9836C45.9131 48.0847 46.0137 48.21 46.0858 48.3518C46.1602 48.4967 46.1976 48.6696 46.1976 48.8702C46.1976 49.1326 46.1468 49.3539 46.0457 49.5352C45.9447 49.7167 45.8125 49.863 45.6503 49.9746C45.484 50.0877 45.2985 50.1699 45.1029 50.2171C44.9044 50.2669 44.7005 50.2922 44.4958 50.2924C44.1708 50.2924 43.8526 50.238 43.541 50.1294C43.2296 50.0204 42.9697 49.8602 42.762 49.6485L43.497 48.8369C43.6142 48.9707 43.758 49.0824 43.9285 49.1714C44.0959 49.26 44.2825 49.306 44.4719 49.3053C44.5785 49.3053 44.6837 49.279 44.7874 49.2258C44.8916 49.1729 44.9432 49.0794 44.9432 48.9456C44.9432 48.8173 44.8792 48.7225 44.7516 48.6613C44.6233 48.5997 44.4238 48.5358 44.1522 48.4688C44.0106 48.4344 43.8717 48.3896 43.7366 48.3348C43.601 48.2811 43.4755 48.2047 43.3654 48.1089C43.2536 48.0109 43.1625 47.8916 43.0977 47.7578C43.0281 47.6185 42.9936 47.4511 42.9936 47.2559C42.9936 47.0049 43.0441 46.7914 43.1453 46.6158C43.2424 46.445 43.3762 46.2978 43.5371 46.185C43.6986 46.0727 43.8783 45.9892 44.0683 45.9383C44.257 45.8861 44.4518 45.8594 44.6475 45.8588C44.946 45.8588 45.2375 45.9079 45.5224 46.0052C45.8074 46.1029 46.0484 46.2494 46.2456 46.4445L45.5265 47.2224ZM49.4852 47.2224C49.3748 47.114 49.248 47.0236 49.1096 46.9545C48.9684 46.8828 48.8123 46.8456 48.654 46.8459C48.5316 46.8459 48.4187 46.8709 48.3147 46.9213C48.2108 46.9715 48.1589 47.0581 48.1589 47.1805C48.1589 47.2977 48.216 47.3813 48.3305 47.4316C48.445 47.4817 48.6301 47.5374 48.886 47.5988C49.0347 47.6321 49.1856 47.6796 49.3373 47.7412C49.4858 47.8007 49.6245 47.8824 49.7485 47.9836C49.8716 48.0845 49.9724 48.2099 50.0446 48.3518C50.1189 48.4967 50.1562 48.6696 50.1562 48.8702C50.1562 49.1326 50.1054 49.3539 50.0044 49.5352C49.903 49.7167 49.7711 49.863 49.6087 49.9746C49.4424 50.0878 49.2571 50.1699 49.0616 50.2171C48.8631 50.2669 48.6592 50.2922 48.4545 50.2924C48.1294 50.2924 47.8113 50.238 47.4997 50.1294C47.1882 50.0204 46.9284 49.8602 46.7206 49.6485L47.4556 48.8369C47.5728 48.9707 47.7166 49.0824 47.8871 49.1714C48.0544 49.26 48.241 49.306 48.4303 49.3053C48.5371 49.3053 48.6424 49.279 48.746 49.2258C48.8502 49.1729 48.9018 49.0794 48.9018 48.9456C48.9018 48.8173 48.8378 48.7225 48.7102 48.6613C48.582 48.5997 48.3824 48.5358 48.1109 48.4688C47.9692 48.4344 47.8303 48.3896 47.6952 48.3348C47.5596 48.2811 47.4341 48.2047 47.3241 48.1089C47.2145 48.0145 47.1255 47.8972 47.0563 47.7578C46.9868 47.6185 46.9523 47.4511 46.9523 47.2559C46.9523 47.0049 47.0028 46.7914 47.104 46.6158C47.201 46.4449 47.3348 46.2978 47.4957 46.185C47.6572 46.0727 47.837 45.9892 48.027 45.9383C48.2156 45.8861 48.4104 45.8594 48.6062 45.8588C48.9047 45.8588 49.1962 45.9079 49.481 46.0052C49.7658 46.1029 50.0068 46.2494 50.2042 46.4445L49.4852 47.2224Z" fill="black"/>
<path fill-rule="evenodd" clip-rule="evenodd" d="M15.8732 43.8978L12.9945 45.5609V50.1865L17.1661 52.6415L21.4319 50.1865V45.5611L18.1054 43.898L15.8732 43.8978Z" fill="black"/>
<path fill-rule="evenodd" clip-rule="evenodd" d="M13.7807 49.4405L16.7071 51.1386V48.3614L13.8125 46.6823L13.7807 49.4405Z" fill="#FFFFFE"/>
<path fill-rule="evenodd" clip-rule="evenodd" d="M16.8149 27.0688C13.0418 27.0688 10.5088 29.5622 10.5088 33.2701C10.5088 35.8073 11.869 37.988 13.3083 40.295C14.0345 41.4563 14.773 42.6398 15.3786 43.9211L16.8147 47.0329L18.2771 43.7016C18.9621 42.2499 19.9346 41.087 20.6133 40.0077C21.9577 37.8745 23.118 36.0317 23.118 33.1346C23.118 29.6757 20.4073 27.0688 16.8149 27.0688Z" fill="#C2002F"/>
<path fill-rule="evenodd" clip-rule="evenodd" d="M18.1084 43.4792C18.0514 43.5992 17.9944 43.7222 17.9374 43.8484C17.8266 44.0883 17.7187 44.3375 17.6138 44.5933C17.3373 45.2622 17.0918 45.9436 16.8782 46.6351H16.8497C16.6973 46.0124 16.5024 45.4008 16.2666 44.8047V44.8015C16.169 44.5524 16.0642 44.3062 15.9524 44.0631C15.8987 43.9369 15.8416 43.8139 15.7814 43.6939C13.9488 39.8534 10.9971 36.9246 10.9971 33.3238C10.9971 30.1268 13.1022 27.6086 16.8147 27.6086C20.1853 27.6086 22.6328 29.9914 22.6328 33.1881C22.6328 37.3347 20.1596 39.1747 18.1084 43.4792ZM21.2506 45.7419V49.9645L17.1606 52.3031L13.0483 49.9644L12.9945 49.933V45.7419L15.5469 44.2934C15.6577 44.5396 15.7622 44.7888 15.8575 45.0414L14.2215 46.0008L17.1192 47.6669L20.0266 46.0008L18.0198 44.8302C18.1213 44.5771 18.2292 44.3266 18.3433 44.079L21.2506 45.7419ZM23.118 33.1346C23.118 29.6757 20.4073 27.0688 16.8149 27.0688C13.0418 27.0688 10.5088 29.5622 10.5088 33.2701C10.5088 35.8073 11.869 37.988 13.3083 40.295C14.0345 41.4563 14.773 42.6398 15.3786 43.9211L12.5188 45.5465V50.2864L17.1604 52.9276L21.7262 50.3178V45.5465L18.5111 43.7097C19.1961 42.2582 19.9346 41.087 20.6133 40.0077C21.9577 37.8745 23.118 36.0317 23.118 33.1346Z" fill="white"/>
<path fill-rule="evenodd" clip-rule="evenodd" d="M16.888 28.7226C14.2531 28.7226 12.1162 30.8498 12.1162 33.4752C12.1162 36.0979 14.2531 38.2248 16.888 38.2248C19.526 38.2248 21.6629 36.0979 21.6629 33.4752C21.6629 30.8498 19.526 28.7226 16.888 28.7226Z" fill="white"/>
<path fill-rule="evenodd" clip-rule="evenodd" d="M16.894 37.6568C14.5543 37.6568 12.6551 35.7661 12.6551 33.4374C12.6551 31.1052 14.5543 29.2182 16.894 29.2182C19.2371 29.2182 21.1333 31.1052 21.1333 33.4374C21.1333 35.7663 19.2371 37.6568 16.894 37.6568Z" fill="#232020"/>
<path fill-rule="evenodd" clip-rule="evenodd" d="M18.6444 33.9581C18.1846 33.9581 17.8106 33.5889 17.8106 33.1311C17.8106 32.6706 18.1846 32.3014 18.6444 32.3014C19.1041 32.3014 19.4781 32.6706 19.4781 33.1311C19.4781 33.5889 19.1041 33.9581 18.6444 33.9581ZM15.0395 33.9803C14.5795 33.9803 14.2055 33.6079 14.2055 33.1501C14.2055 32.6927 14.5795 32.3204 15.0395 32.3204C15.4991 32.3204 15.8732 32.6927 15.8732 33.1501C15.8732 33.6079 15.4991 33.9803 15.0395 33.9803ZM19.0186 31.7049H14.7604C14.572 31.7047 14.3855 31.7417 14.2114 31.8137C14.0374 31.8857 13.8792 31.9913 13.746 32.1245C13.4827 32.3866 13.321 32.743 13.321 33.1378C13.321 33.9263 13.971 34.5703 14.7604 34.5703H19.0186C19.4148 34.5703 19.7731 34.4094 20.0361 34.1505C20.2961 33.8885 20.458 33.532 20.458 33.1378C20.458 32.3486 19.8113 31.7049 19.0186 31.7049Z" fill="#FFFFFE"/>
<path fill-rule="evenodd" clip-rule="evenodd" d="M15.0742 32.4654C14.9032 32.4654 14.7635 32.6045 14.7635 32.7747C14.7635 32.9451 14.903 33.0839 15.0742 33.0839C15.1564 33.084 15.2353 33.0515 15.2936 32.9935C15.3519 32.9356 15.3848 32.8569 15.3852 32.7747C15.3848 32.6925 15.3519 32.6138 15.2936 32.5558C15.2353 32.4978 15.1564 32.4653 15.0742 32.4654ZM18.6791 32.4434C18.5969 32.4433 18.5181 32.4758 18.4598 32.5338C18.4016 32.5918 18.3687 32.6705 18.3684 32.7527C18.3684 32.9261 18.5081 33.0649 18.6791 33.0649C18.72 33.0649 18.7605 33.0568 18.7983 33.041C18.8361 33.0253 18.8704 33.0023 18.8993 32.9733C18.9281 32.9443 18.951 32.9098 18.9665 32.872C18.982 32.8341 18.9899 32.7936 18.9898 32.7527C18.9898 32.582 18.8504 32.4434 18.6791 32.4434Z" fill="#FFFFFE"/>
</svg>
