<svg width="80" height="80" viewBox="0 0 80 80" fill="none" xmlns="http://www.w3.org/2000/svg">
<path fill-rule="evenodd" clip-rule="evenodd" d="M35.9627 26.2991C42.6563 23.5938 49.1642 22.2349 54.2752 22.2222C59.4874 22.2095 63.2816 23.6107 64.4169 26.4258C65.5522 29.2408 63.8007 32.883 60.0403 36.4957C56.3559 40.0367 50.73 43.5819 44.0364 46.2872C37.3428 48.9925 30.8348 50.3514 25.7239 50.3641C20.5116 50.3768 16.7175 48.9756 15.5822 46.1606C14.4469 43.3455 16.1983 39.7033 19.9588 36.0906C23.6432 32.5496 29.2691 29.0044 35.9627 26.2991ZM50.5063 24.7924C46.5138 24.4886 41.4957 25.3284 36.4016 27.388C31.3075 29.4476 27.1166 32.3259 24.4535 35.3182C21.8453 38.2514 20.7227 41.2691 21.6976 43.6874C22.6725 46.1015 25.5804 47.4942 29.4927 47.7939C33.4853 48.0977 38.5034 47.2579 43.5975 45.1983C48.6915 43.1387 52.8824 40.2604 55.5455 37.2681C58.1538 34.3349 59.2764 31.3172 58.3015 28.8989C57.3266 26.4806 54.4187 25.0921 50.5063 24.7924Z" fill="#CA2128"/>
<path fill-rule="evenodd" clip-rule="evenodd" d="M36.0893 26.6157C49.4006 21.2388 61.9395 21.2093 64.1004 26.5566C66.2612 31.8997 57.2211 40.5938 43.9098 45.9706C30.5985 51.3475 18.0596 51.377 15.8987 46.0297C13.742 40.6824 22.778 31.9925 36.0893 26.6157ZM36.2708 27.0715C25.9898 31.2244 19.3215 38.7241 21.3768 43.814C23.4364 48.9081 33.4389 49.6677 43.7199 45.5148C54.0009 41.3619 60.6692 33.8622 58.6138 28.7723C56.5542 23.6782 46.5518 22.9186 36.2708 27.0715Z" fill="#000046"/>
<path fill-rule="evenodd" clip-rule="evenodd" d="M28.0917 33.6216L33.7429 31.3383C35.3255 30.701 37.0221 31.5198 37.5159 33.1615C38.0097 34.8033 37.1192 36.6687 35.5365 37.306L29.8854 39.5893L28.0917 33.6216ZM40.964 37.4495L46.6152 35.1662C48.1979 34.529 49.8945 35.3477 50.3883 36.9895C50.8821 38.6312 49.9916 40.4967 48.4089 41.134L42.7577 43.4172L40.964 37.4495ZM47.3158 26.2527L41.6646 28.5359C40.082 29.1732 39.1619 31.0555 39.6135 32.7099C40.0693 34.3686 41.7322 35.2 43.3148 34.5585L48.966 32.2752L47.3158 26.2527Z" fill="#CA2128"/>
<path fill-rule="evenodd" clip-rule="evenodd" d="M69.4396 54.5424L68.8318 54.6563C68.8572 54.5339 68.8698 54.4326 68.8698 54.3482C68.8698 53.8207 68.5491 53.5548 67.916 53.5548C67.4138 53.5548 67.1605 53.7362 67.1605 54.0992C67.1605 54.3693 67.4433 54.6057 68.0046 54.7998C69.0893 55.1712 69.6295 55.7283 69.6295 56.4584C69.6295 56.8889 69.4776 57.2308 69.1737 57.4924C68.8698 57.7499 68.4647 57.8807 67.9582 57.8807C66.8398 57.8807 66.2785 57.446 66.2785 56.5808C66.2785 56.5091 66.2869 56.4247 66.2996 56.3192L66.9326 56.1799C66.882 56.374 66.8567 56.5386 66.8567 56.6779C66.8567 57.2392 67.1774 57.5178 67.8231 57.5178C68.338 57.5178 68.5955 57.3152 68.5955 56.91C68.5955 56.6104 68.2874 56.3445 67.6712 56.1166C66.7807 55.7916 66.3333 55.2683 66.3333 54.5466C66.3333 54.1414 66.481 53.8122 66.7807 53.5632C67.0761 53.3142 67.4686 53.1918 67.954 53.1918C68.95 53.1918 69.448 53.6392 69.448 54.5381L69.4396 54.5424Z" fill="#000046"/>
<path fill-rule="evenodd" clip-rule="evenodd" d="M65.4132 55.9858L65.9745 56.1335C65.9871 56.2474 65.9913 56.3487 65.9913 56.4289C65.9913 56.8678 65.831 57.2181 65.5144 57.484C65.1937 57.7457 64.7674 57.8765 64.2314 57.8765C62.8893 57.8765 62.2183 57.1211 62.2183 55.6144C62.2183 54.9011 62.4124 54.3187 62.8049 53.8755C63.1974 53.4324 63.7039 53.2087 64.3327 53.2087C65.3119 53.2087 65.8014 53.6772 65.8014 54.6183L65.2401 54.8758C65.2486 54.745 65.2528 54.6394 65.2528 54.5677C65.2528 53.9009 64.9827 53.5675 64.4467 53.5675C63.8769 53.5675 63.5941 54.2765 63.5941 55.6903C63.5941 56.9058 63.9107 57.5178 64.5437 57.5178C64.8054 57.5178 65.0249 57.4123 65.1979 57.2055C65.3709 56.9987 65.4596 56.737 65.4596 56.4289C65.4596 56.3276 65.4427 56.1841 65.4132 55.9858Z" fill="#000046"/>
<path d="M61.6274 53.272H60.3191V57.8006H61.6274V53.272Z" fill="#000046"/>
<path fill-rule="evenodd" clip-rule="evenodd" d="M59.973 53.272V53.7278H58.8672V57.8006H57.4745V53.7278H56.3561V53.272H59.973Z" fill="#000046"/>
<path fill-rule="evenodd" clip-rule="evenodd" d="M56.0312 54.5424L55.4235 54.6563C55.4488 54.5339 55.4615 54.4326 55.4615 54.3482C55.4615 53.8207 55.1407 53.5548 54.5076 53.5548C54.0054 53.5548 53.7522 53.7362 53.7522 54.0992C53.7522 54.3693 54.0349 54.6057 54.5963 54.7998C55.6809 55.1712 56.2211 55.7283 56.2211 56.4584C56.2211 56.8889 56.0692 57.2308 55.7653 57.4924C55.4615 57.7499 55.0563 57.8807 54.5498 57.8807C53.4314 57.8807 52.8701 57.446 52.8701 56.5808C52.8701 56.5091 52.8785 56.4247 52.8912 56.3192L53.5243 56.1799C53.4736 56.374 53.4483 56.5386 53.4483 56.6779C53.4483 57.2392 53.7691 57.5178 54.4148 57.5178C54.9297 57.5178 55.1871 57.3152 55.1871 56.91C55.1871 56.6104 54.879 56.3445 54.2629 56.1166C53.3723 55.7916 52.925 55.2683 52.925 54.5466C52.925 54.1414 53.0727 53.8122 53.3723 53.5632C53.6678 53.3142 54.0603 53.1918 54.5456 53.1918C55.5416 53.1918 56.0397 53.6392 56.0397 54.5381L56.0312 54.5424Z" fill="#000046"/>
<path d="M52.2877 53.272H50.9794V57.8005H52.2877V53.272Z" fill="#000046"/>
<path fill-rule="evenodd" clip-rule="evenodd" d="M48.4638 55.3569H50.3293V57.8006H49.9115L49.768 57.4882C49.405 57.7457 49.0167 57.8723 48.6116 57.8723C47.9405 57.8723 47.4214 57.6739 47.05 57.2688C46.6786 56.8678 46.4929 56.3023 46.4929 55.5764C46.4929 54.8505 46.6913 54.2934 47.0838 53.8544C47.4763 53.4155 47.9912 53.1961 48.6242 53.1961C49.4599 53.1961 49.9705 53.6223 50.152 54.4791L49.5358 54.7576V54.6479L49.5274 54.4031C49.4852 53.8671 49.2362 53.6012 48.7846 53.6012C48.4512 53.6012 48.2233 53.7447 48.1051 54.0275C47.9827 54.3102 47.9236 54.8378 47.9236 55.6101C47.9236 56.3318 47.9743 56.8214 48.0713 57.0789C48.1684 57.3363 48.3583 57.4671 48.6369 57.4671C48.9619 57.4671 49.1265 57.2857 49.1265 56.9227V55.8085H48.4681V55.3527L48.4638 55.3569Z" fill="#000046"/>
<path fill-rule="evenodd" clip-rule="evenodd" d="M34.0679 53.272V57.3447H35.9291V57.8006H32.7596V53.272H34.0679ZM30.0121 53.272V56.3107C30.0121 57.3532 29.4381 57.8723 28.2859 57.8723C27.1337 57.8723 26.564 57.3532 26.564 56.3107V53.272H27.8723V56.3529C27.8723 56.7497 27.9272 57.024 28.0411 57.1675C28.1551 57.3152 28.3661 57.387 28.6742 57.387C29.2693 57.387 29.5689 57.0282 29.5689 56.315V53.2762H30.0121V53.272ZM23.4662 57.4249H23.8122C24.1245 57.4249 24.344 57.2899 24.4664 57.0156C24.5888 56.7412 24.6479 56.2474 24.6479 55.5342C24.6479 54.8209 24.5888 54.3271 24.4664 54.0528C24.3482 53.7785 24.1288 53.6434 23.8122 53.6434H23.4662V57.4249ZM22.1578 57.7963V53.2678H24.0317C25.3611 53.2678 26.028 54.0233 26.028 55.5342C26.028 57.0451 25.34 57.7921 23.9599 57.7921H22.1578V57.7963ZM21.3981 53.2678V57.7963H20.3937L18.5071 54.9349V57.7963H18.064V53.2678H18.8954L20.955 56.3656V53.2678H21.3981ZM16.0255 56.3572L15.4895 54.3567L14.9113 56.3572H16.0255ZM16.4771 53.2678L17.7348 57.7963H16.4138L16.1437 56.813H14.7805L14.4935 57.7963H13.9786L15.3165 53.2678H16.4771ZM11.6827 55.53H11.9781C12.455 55.53 12.6956 55.2134 12.6956 54.5804C12.6956 53.9853 12.455 53.6898 11.9781 53.6898H11.6827V55.53ZM10.3743 57.7963V53.2678H12.3242C13.4299 53.2678 13.987 53.7109 13.987 54.6015C13.987 55.492 13.3709 55.9478 12.1385 55.9478H11.6869V57.7921H10.3701L10.3743 57.7963Z" fill="#000046"/>
<path fill-rule="evenodd" clip-rule="evenodd" d="M40.6602 53.1412C41.9981 52.601 43.2938 52.3309 44.3151 52.3266C45.3534 52.3266 46.1131 52.6052 46.341 53.1665C46.5689 53.7278 46.2186 54.4537 45.4673 55.1754C44.733 55.8845 43.6103 56.5893 42.2725 57.1295C40.9346 57.6697 39.6389 57.9398 38.6176 57.9441C37.5793 57.9441 36.8196 57.6655 36.5917 57.1042C36.3638 56.5429 36.7141 55.8169 37.4654 55.0952C38.1997 54.3862 39.3224 53.6814 40.6602 53.1412ZM43.5639 52.8415C42.7662 52.7824 41.766 52.947 40.7489 53.3606C39.7317 53.77 38.8961 54.3482 38.3643 54.9433C37.8452 55.53 37.6173 56.1335 37.8157 56.6146C38.0098 57.0957 38.5922 57.3743 39.373 57.4334C40.1707 57.4925 41.1709 57.3279 42.188 56.9143C43.2052 56.5007 44.0408 55.9267 44.5726 55.3316C45.0917 54.745 45.3196 54.1414 45.1213 53.6603C44.9271 53.1792 44.3447 52.9006 43.5639 52.8415Z" fill="#CA2128"/>
<path fill-rule="evenodd" clip-rule="evenodd" d="M40.6856 53.2045C43.3402 52.1325 45.8429 52.1241 46.2777 53.1918C46.7081 54.2596 44.906 55.9942 42.2471 57.0662C39.5882 58.1382 37.0897 58.1466 36.655 57.0789C36.2246 56.0111 38.0267 54.2765 40.6856 53.2045ZM40.7235 53.2931C38.6724 54.1246 37.3388 55.6186 37.7524 56.6357C38.166 57.6528 40.158 57.8048 42.2134 56.9734C44.2645 56.1461 45.5982 54.6479 45.1846 53.6308C44.771 52.6136 42.7789 52.4617 40.7235 53.2931Z" fill="#000046"/>
<path fill-rule="evenodd" clip-rule="evenodd" d="M39.0902 54.6057L40.2171 54.1499C40.5336 54.0233 40.8713 54.1879 40.9683 54.5128C41.0654 54.842 40.8881 55.2134 40.5716 55.34L39.4448 55.7958L39.086 54.6057H39.0902ZM41.6605 55.3696L42.7873 54.9138C43.1039 54.7872 43.4415 54.9518 43.5386 55.2767C43.6357 55.6059 43.4584 55.9773 43.1419 56.1039L42.015 56.5597L41.6563 55.3696H41.6605ZM42.9266 53.1327L41.7998 53.5886C41.4832 53.7152 41.3018 54.0908 41.3904 54.42C41.479 54.7492 41.8124 54.918 42.129 54.7914L43.2558 54.3356L42.9266 53.1327Z" fill="#CA2128"/>
</svg>
