<svg width="80" height="80" viewBox="0 0 80 80" fill="none" xmlns="http://www.w3.org/2000/svg">
<path fill-rule="evenodd" clip-rule="evenodd" d="M29.7718 44.787H36.7059C36.949 44.4679 37.3714 43.9696 37.6236 43.6597L38.5443 42.5263C38.5838 42.5688 39.0426 43.9605 39.1277 44.2127C39.1824 44.3737 39.2523 44.632 39.3222 44.7779L41.6194 44.7839L40.2338 41.1346C40.2611 41.0829 40.3644 40.9674 40.4039 40.9219C40.7351 40.5451 41.1423 40.0346 41.4796 39.6335L42.0144 38.9954C42.1329 38.8465 42.2544 38.7128 42.376 38.5639L42.9169 37.9167C42.9564 37.8741 43.0749 37.7435 43.0901 37.6918H40.8901C40.8445 37.7009 40.7078 37.8984 40.6744 37.944L39.6351 39.3144C39.6017 39.36 39.2644 39.8188 39.2158 39.8523C39.1793 39.7915 38.9241 38.9103 38.8816 38.7705L38.6324 37.9501C38.6142 37.8863 38.5777 37.7131 38.5291 37.6888H36.3018C36.32 37.789 37.3805 40.5785 37.4686 40.8064C37.5871 41.1133 37.6145 41.0495 37.4169 41.2683C37.104 41.6147 36.7454 42.0796 36.4355 42.4199L34.4999 44.6897C34.4421 44.7536 34.5059 44.7019 34.4361 44.7384L34.8189 43.1735H31.8867C31.8897 43.061 32.0902 42.3318 32.1419 42.1221C32.154 42.0765 32.2027 41.7939 32.2482 41.7787H34.8736L35.2383 40.3263H32.5947L32.8681 39.2081H35.7244L36.1073 37.6918H31.5342C31.2242 38.8647 30.9416 40.0589 30.6469 41.2379L29.9814 43.8967C29.945 44.0425 29.7657 44.6928 29.7687 44.7839L29.7718 44.787ZM50.3706 40.5663C50.3706 40.4569 50.5256 39.986 50.5651 39.8492L50.7626 39.1291H51.6195C51.9872 39.1291 52.3639 39.1777 52.3609 39.5788C52.3609 40.0072 52.057 40.3749 51.741 40.463C51.2579 40.5937 50.8902 40.5694 50.3706 40.5663ZM47.2499 44.787H49.1703L49.9817 41.9094C50.6198 41.9003 50.6653 42.0765 50.799 42.7754C50.8811 43.2069 50.9631 43.6232 51.0452 44.0547C51.0877 44.2674 51.1303 44.4831 51.1667 44.6958C51.1819 44.7809 51.1667 44.787 51.2488 44.787H51.8291C52.3366 44.787 52.844 44.787 53.3485 44.787C53.3576 44.6958 53.0811 43.2069 53.0446 42.982C52.9869 42.6599 52.841 42.0492 52.5888 41.8517C52.4521 41.7453 52.3001 41.6997 52.2545 41.6511C52.9595 41.4445 53.2543 41.2804 53.7404 40.7426C54.2874 40.1349 54.8374 38.5092 53.8984 37.9349C53.6007 37.7556 53.0233 37.6918 52.6222 37.6918H49.2402C49.1947 37.7799 48.2648 41.1406 48.2375 41.2288C48.0704 41.8243 47.9032 42.4077 47.7361 43.0003C47.651 43.2981 47.569 43.5928 47.4869 43.8936C47.4474 44.0364 47.2439 44.6958 47.2439 44.7839L47.2499 44.787ZM45.0712 39.0804C45.3751 39.0744 45.9251 39.0804 46.1743 39.1868C46.5146 39.3296 46.5389 39.7277 46.4386 40.0346C46.2016 40.7638 45.3751 40.7335 44.7188 40.6818L45.0712 39.0804ZM45.7215 42.1829L44.3936 42.1525C44.3632 42.3652 44.1627 43.2099 44.1019 43.4956C44.0624 43.684 43.8497 44.7536 43.8011 44.8386L41.7531 44.787L43.3301 37.5642C43.9166 37.5338 45.9889 37.6249 46.7121 37.6462C47.2469 37.6614 47.6845 37.7556 48.0339 38.0139C49.0063 38.7371 48.4563 40.6423 47.7635 41.3655C47.2256 41.9276 46.5632 42.1859 45.7215 42.1859V42.1829ZM53.4396 44.787C53.4366 44.6989 54.6794 39.7976 54.7614 39.4603C54.9073 38.8769 55.047 38.2722 55.2051 37.6918H59.7782L59.3953 39.2111H56.539L56.2655 40.3293H58.9031C58.897 40.4296 58.6205 41.4749 58.5718 41.6846C58.5445 41.8122 58.5475 41.7848 58.4047 41.7818H55.8979L55.5575 43.1735H58.4837C58.4716 43.295 58.113 44.7201 58.0796 44.787H53.4396ZM60.5166 42.3105C60.1489 42.3105 59.7083 42.3743 59.3315 42.4017C59.2312 42.4077 59.134 42.4169 59.0368 42.426C58.8666 42.4381 58.8636 42.3986 58.8392 42.5506C58.7572 43.1097 58.7602 43.687 59.0125 44.1823C59.4774 45.0908 61.2033 44.9967 61.9174 44.7323C62.5585 44.4983 63.0234 44.082 63.3364 43.6202C63.6555 43.1522 63.9928 42.4381 63.9381 41.6937C63.8773 40.8854 63.3972 40.5815 62.7895 40.3111C62.4917 40.1804 62.1696 40.0862 61.8475 39.986C61.6864 39.9373 61.5102 39.8644 61.4403 39.755C61.2155 39.4147 61.6743 38.7401 62.358 38.9285C62.7621 39.0409 62.7378 39.3661 62.7378 39.8128L64.3665 39.6912C64.4455 39.4664 64.4273 38.8799 64.3787 38.6459C64.1629 37.6067 63.0325 37.4852 62.0723 37.6067C60.8569 37.7617 59.9544 38.6277 59.7296 39.7945C59.5746 40.6058 59.8359 41.0738 60.2856 41.4111C60.4862 41.563 60.7718 41.6967 61.0453 41.797C61.3279 41.9003 61.6196 41.9671 61.8596 42.113C62.1665 42.3014 62.2121 42.6113 62.0754 42.9182C61.7867 43.5655 60.9632 43.69 60.6381 43.2586C60.4315 42.9851 60.5044 42.6721 60.5196 42.3105H60.5166ZM69.1554 41.7453C69.1554 42.2042 69.0217 42.6478 68.8515 43.0064C68.6692 43.3923 68.4687 43.6536 68.2286 43.924C68.0281 44.1519 67.6816 44.4072 67.3292 44.5652C66.5877 44.8964 65.1748 44.9541 64.5215 44.4527C63.8287 43.924 64.0019 42.4472 64.0778 42.3652C64.1052 42.3348 64.1842 42.3409 64.2541 42.3348L64.8952 42.2862C65.1535 42.2649 65.4786 42.2224 65.7278 42.2254C65.7187 42.3379 65.6913 42.5111 65.7005 42.6174C65.7005 43.1735 66.0104 43.5229 66.609 43.3983C66.9888 43.3193 67.4112 42.9091 67.3535 42.4351C67.2684 41.718 65.9922 41.9094 65.2568 41.1133C64.6096 40.4114 64.9469 39.2506 65.4331 38.5973C65.6853 38.257 65.9253 38.0291 66.3447 37.8042C66.8096 37.5551 67.317 37.4912 67.8974 37.4912C69.0308 37.4912 69.6324 37.9562 69.6324 39.0683C69.6324 39.205 69.6142 39.4846 69.5808 39.6092L67.946 39.7307C67.9642 39.4329 67.9612 39.1078 67.7819 38.9559C67.4051 38.6398 66.6303 38.8769 66.5969 39.4481C66.5786 39.7489 66.8673 39.8462 67.1104 39.9191C68.1101 40.2169 69.1584 40.5329 69.1584 41.7514L69.1554 41.7453ZM26.6298 37.4517L26.724 37.4305C26.8304 37.3727 28.7842 36.7073 28.9969 36.6344C29.1337 36.5857 29.2552 36.5493 29.3859 36.5067C29.5044 36.4672 29.6745 36.4034 29.7991 36.3913C29.79 36.5341 29.7535 37.1692 29.787 37.2603C29.9055 37.2755 30.0452 37.0841 30.106 37.0142C30.2823 36.8015 30.4342 36.5766 30.5952 36.3457C30.6742 36.2333 30.7502 36.0965 30.8353 35.9932C31.0966 35.978 31.5554 35.9233 31.4977 35.6225C31.361 35.4888 31.0206 35.6073 30.8444 35.662C30.6621 35.7197 30.6985 35.7197 30.498 35.6954C30.0969 35.6438 28.845 35.4766 28.5897 35.6195C28.6141 35.6498 28.6384 35.6559 28.6748 35.6711L29.3464 35.9902C29.3737 36.0084 29.3585 35.9962 29.3737 36.0145C29.3221 36.0449 28.3375 36.3062 28.1826 36.3518C27.7845 36.4672 24.8826 37.3788 24.752 37.5095C25.2351 37.5095 25.7091 37.4882 26.1862 37.473C26.332 37.47 26.4961 37.4487 26.6329 37.4548L26.6298 37.4517Z" fill="#FF0000"/>
<path fill-rule="evenodd" clip-rule="evenodd" d="M14.2292 41.0464L14.6333 39.5727C14.9433 39.5393 15.2259 39.5727 15.4598 39.6973C15.7333 39.8462 15.6209 40.1318 15.5571 40.4174C15.4355 40.9553 14.5908 40.9887 14.2292 41.0464ZM18.0244 40.0893C18.0883 39.752 18.1916 39.5119 18.1369 39.126C17.909 37.5216 15.4477 37.5338 14.1775 37.5763C13.8372 37.5885 13.4939 37.6189 13.1566 37.6493C13.114 37.6523 12.2116 37.7283 12.169 37.7769C12.1417 37.8073 11.3547 40.9917 11.2757 41.3138C11.1845 41.6511 10.3641 44.8022 10.3702 44.8478L11.3851 44.8569C11.5461 44.8569 11.5734 44.8842 11.6859 44.8052L13.4939 43.5351C13.4939 43.5351 13.4999 43.532 13.503 43.529C13.503 43.529 13.509 43.526 13.5121 43.5229C13.5698 43.4743 13.7005 42.8878 13.7582 42.7207C13.9223 42.7177 14.0833 42.7146 14.2474 42.7116C14.3811 42.7086 14.5817 42.7359 14.6789 42.663C14.8673 42.5232 15.0557 42.3986 15.2563 42.2649C16.1223 41.6967 16.7725 41.2986 17.675 40.7821C17.8816 40.6636 18.0883 40.5511 18.304 40.4357C18.7324 40.2078 19.1427 39.9799 19.5954 39.7581C19.8719 39.6244 20.2973 39.3965 20.5739 39.2749L23.6094 37.9045C23.7492 37.8437 24.2263 37.6645 24.3053 37.6067L24.284 37.5946C24.129 37.5338 23.4818 37.4609 23.339 37.4487C22.9744 37.4183 22.5945 37.4366 22.2451 37.4791C21.3335 37.5976 20.5161 37.947 19.802 38.4363C19.1579 38.8769 18.9451 39.1139 18.4377 39.6183L18.0488 40.0558C18.0275 40.0741 18.0457 40.0619 18.0184 40.0802L18.0244 40.0893ZM26.6572 40.7882L27.037 39.3144C27.3226 39.3053 27.748 39.284 27.9577 39.4238C28.2676 39.6304 28.1552 39.7854 28.0732 40.15C27.9577 40.6605 27.0492 40.8033 26.6572 40.7882ZM26.724 37.4305C27.6812 37.4062 28.8693 37.2816 29.7657 37.6736C31.4612 38.418 30.5162 41.0221 29.0455 41.9854C28.8906 42.0856 28.3953 42.3956 28.1917 42.4077C27.5293 42.4442 26.8638 42.4746 26.2014 42.5111C26.1467 42.5718 25.8064 44.4132 25.7061 44.7293L22.9896 44.7596L24.3843 38.6186C24.4238 38.4788 24.4086 38.4727 24.5332 38.418L26.6298 37.4517L26.724 37.4305ZM23.2509 42.0158C23.1901 42.4533 22.7738 44.0759 22.6553 44.5439C22.6128 44.7049 22.628 44.6715 22.4669 44.708C20.744 45.1091 18.8813 45.0453 17.9211 43.4014C17.7996 43.1947 17.5565 42.6751 17.517 42.4199C18.0123 42.1464 18.7203 41.6937 19.2369 41.3837L20.5192 40.6089C20.6194 40.5481 20.8716 40.3749 20.9628 40.3445C20.9415 40.3901 20.8321 40.4904 20.7896 40.542C20.6134 40.7547 20.4462 40.9826 20.4128 41.2926C20.3885 41.5235 20.4553 41.7301 20.5587 41.8881C20.8838 42.3804 21.5553 42.5931 22.1782 42.4655C22.8012 42.3379 22.9835 42.1221 23.2509 42.0158ZM21.6313 39.9009L23.9953 38.6976L23.655 40.3081C23.5851 40.2686 23.4119 39.9161 22.8103 39.8158C22.6067 39.7824 22.3818 39.7824 22.1782 39.8097C21.92 39.8431 21.841 39.8766 21.6799 39.9039C21.6586 39.907 21.6647 39.9039 21.6495 39.9039L21.6313 39.8978V39.9009Z" fill="black"/>
</svg>
