<svg width="80" height="80" viewBox="0 0 80 80" fill="none" xmlns="http://www.w3.org/2000/svg">
<path d="M20.9593 20H10.3706V24.7199C10.3706 25.7831 10.8016 26.7457 11.4984 27.4425C12.1952 28.1393 13.1578 28.8187 14.221 28.8187V29.6882H12.4896C12.1269 29.6882 11.7866 29.7788 11.4885 29.9391C10.86 30.2769 10.4203 30.9228 10.3743 31.6755H10.3706V39.2521H15.5252V34.2217H20.9593C22.923 34.2217 24.7004 33.4256 25.9872 32.1388C27.274 30.852 28.0701 29.0746 28.0701 27.1109C28.0701 23.1834 24.8867 20 20.9593 20ZM22.3678 29.133C22.0088 29.4944 21.4188 29.6261 20.4935 29.6261H15.5252V24.9062H20.4935C22.3442 24.9062 22.8534 25.4341 22.8534 27.2661C22.8534 28.1828 22.7267 28.7715 22.3678 29.133Z" fill="#182C61"/>
<path d="M15.5252 40.991V46.3555C14.1018 46.3555 12.856 45.9606 11.9232 45.0278C10.9904 44.095 10.4066 42.3946 10.3718 40.991H15.5252Z" fill="#F94F1B"/>
<path d="M13.0833 47.0151H15.5252V60.2431H10.3706V49.2508H10.3756C10.4377 48.2435 10.6811 47.5119 11.3022 47.2635C11.6674 47.1182 12.5977 47.0151 13.0833 47.0151Z" fill="#182C61"/>
<path d="M36.6405 40.991V60.2431H31.0077L23.1242 49.0061H22.605V60.2431H17.4504V40.991H23.1838C23.2087 41.0258 23.2261 41.0531 23.2261 41.0531L31.0909 52.7286H31.4859V40.991H36.6405Z" fill="#182C61"/>
<path d="M49.1059 40.991H38.6899V50.9326C38.8315 51.72 39.2128 52.4243 39.7556 52.9671C40.4524 53.6639 41.415 54.3433 42.4782 54.3433V55.2127H40.7467C40.3841 55.2127 40.0437 55.3034 39.7456 55.4636C39.2252 55.7431 38.834 56.235 38.6899 56.8225V60.2431H49.1059C54.294 60.2431 58.5009 56.0362 58.5009 50.8481V50.3861C58.5009 45.1979 54.294 40.991 49.1059 40.991ZM52.9116 50.8866C52.9116 55.4525 50.9193 55.337 48.4613 55.337H43.8445V45.8972H48.4613C50.9193 45.8972 52.9116 45.7817 52.9116 50.3476V50.8866Z" fill="#182C61"/>
<path d="M10.3718 40.991H10.3706V40.8693C10.3706 40.909 10.3706 40.95 10.3718 40.991Z" fill="#182C61"/>
<path d="M39.4351 20C33.2396 20 28.8054 23.9237 28.8054 29.6261C28.8054 35.3284 33.2396 39.2521 39.4351 39.2521C45.6305 39.2521 50.0647 35.3284 50.0647 29.6261C50.0647 23.9237 45.6305 20 39.4351 20ZM39.4351 34.5211C36.5994 34.5211 34.2022 33.4988 34.2022 29.6261C34.2022 25.7533 36.5994 24.7311 39.4351 24.7311C42.2707 24.7311 44.6679 25.7533 44.6679 29.6261C44.6679 33.4988 42.2707 34.5211 39.4351 34.5211Z" fill="#182C61"/>
<path d="M60.7367 39.3763C50.4275 39.3763 51.4211 32.3984 51.4211 32.3984H56.6378V33.6442C56.6378 33.9298 56.9247 34.1484 57.2353 34.3C57.6066 34.4813 58.0165 34.5683 58.4289 34.5745C59.5803 34.5906 62.7091 34.6279 63.1873 34.5683C63.2009 34.5683 63.2146 34.5645 63.227 34.5633C63.8779 34.4714 64.366 33.8889 64.3064 33.2343C64.2741 32.8877 64.0977 32.5499 63.5934 32.3984C62.3513 32.0245 57.8799 31.6506 57.8799 31.6506C50.5517 31.401 51.0485 26.0439 51.0485 26.0439C51.0485 26.0439 50.5517 20 60.3553 20C70.159 20 69.1703 26.9159 69.1703 26.9159H63.966V26.1035C63.966 25.921 63.9263 25.7384 63.8331 25.5831C63.3537 24.7857 61.9825 24.746 61.9825 24.746H57.9619C57.6526 24.746 57.3433 24.7956 57.0552 24.9074C56.6776 25.054 56.2652 25.3223 56.2652 25.7943C56.2652 26.1955 56.5012 26.465 56.7571 26.6389C57.0166 26.8153 57.3247 26.9022 57.6377 26.9134C58.1594 26.932 59.6647 27.0662 63.7176 27.7878C69.307 28.7852 69.5554 32.2742 69.5554 32.2742C69.5554 32.2742 71.0459 39.3763 60.7367 39.3763Z" fill="#182C61"/>
</svg>
