<svg width="80" height="80" viewBox="0 0 80 80" fill="none" xmlns="http://www.w3.org/2000/svg">
<path fill-rule="evenodd" clip-rule="evenodd" d="M49.1495 50.2516V46.2179H49.9664V48.0043L51.613 46.2179H52.7064L51.1839 47.7882L52.7827 50.2516H51.7306L50.6212 48.3571L49.9664 49.031V50.2516H49.1495ZM53.1991 46.9331V46.2179H53.9715V46.9331H53.1991ZM53.1991 50.2516V47.3273H53.9715V50.2516H53.1991ZM55.5004 50.2516H54.728V47.3273H55.4432V47.7437C55.5672 47.5466 55.6785 47.4194 55.777 47.359C55.8755 47.2986 55.9868 47.2669 56.1107 47.2669C56.2887 47.2669 56.4572 47.3145 56.6193 47.4131L56.3809 48.0869C56.2506 48.0011 56.1298 47.9598 56.0186 47.9598C55.9073 47.9598 55.8183 47.9884 55.742 48.0488C55.6657 48.1092 55.6085 48.2173 55.564 48.373C55.5195 48.5288 55.5004 48.8562 55.5004 49.352V50.2516ZM56.9531 46.9331V46.2179H57.7255V46.9331H56.9531ZM56.9531 50.2516V47.3273H57.7255V50.2516H56.9531ZM58.4629 47.3273H59.1718V47.7278C59.4261 47.4194 59.728 47.2669 60.0809 47.2669C60.2684 47.2669 60.4305 47.305 60.5672 47.3813C60.7039 47.4576 60.8183 47.5752 60.9041 47.7309C61.0313 47.5752 61.1711 47.4576 61.3205 47.3813C61.4699 47.305 61.6288 47.2669 61.7973 47.2669C62.0103 47.2669 62.1915 47.3114 62.3409 47.3972C62.4903 47.483 62.5983 47.6133 62.6746 47.7818C62.7287 47.9058 62.7541 48.106 62.7541 48.3857V50.2516H61.9817V48.5828C61.9817 48.2936 61.9562 48.106 61.9022 48.0234C61.8323 47.9121 61.721 47.8581 61.5716 47.8581C61.4636 47.8581 61.3618 47.8899 61.2665 47.9566C61.1711 48.0234 61.1012 48.1187 61.0599 48.2459C61.0186 48.373 60.9963 48.5733 60.9963 48.8498V50.2516H60.2239V48.6527C60.2239 48.3698 60.2112 48.1855 60.1826 48.1028C60.154 48.0202 60.1126 47.9598 60.0554 47.9185C59.9982 47.8772 59.9188 47.8581 59.8202 47.8581C59.7026 47.8581 59.5945 47.8899 59.4992 47.9534C59.4038 48.017 59.3371 48.1092 59.2957 48.23C59.2544 48.3508 59.2322 48.551 59.2322 48.8307V50.2484H58.4598V47.3241L58.4629 47.3273ZM64.1018 48.2268L63.4025 48.1028C63.482 47.8168 63.6187 47.607 63.8094 47.4703C64.0033 47.3336 64.2894 47.2637 64.6676 47.2637C65.0109 47.2637 65.2684 47.305 65.4369 47.3845C65.6053 47.4671 65.7229 47.5688 65.7929 47.696C65.8628 47.8231 65.8946 48.052 65.8946 48.3889L65.8819 49.2885C65.8819 49.5459 65.8946 49.7335 65.92 49.8574C65.9454 49.9782 65.9899 50.1086 66.0567 50.2484H65.2906C65.2716 50.1976 65.2461 50.1213 65.2175 50.0227C65.2048 49.9782 65.1953 49.9464 65.1889 49.9337C65.0586 50.0641 64.9156 50.1594 64.7662 50.2262C64.6168 50.2897 64.4578 50.3247 64.2862 50.3247C63.9874 50.3247 63.749 50.2421 63.5774 50.0799C63.4057 49.9178 63.3167 49.7112 63.3167 49.4601C63.3167 49.2948 63.3549 49.1486 63.4343 49.0183C63.5138 48.8911 63.6219 48.7894 63.7649 48.7227C63.9079 48.6527 64.1114 48.5955 64.3784 48.5415C64.7376 48.4747 64.9887 48.4112 65.1285 48.3508V48.2745C65.1285 48.1251 65.0904 48.017 65.0173 47.9534C64.9442 47.8899 64.8043 47.8581 64.6009 47.8581C64.4642 47.8581 64.3561 47.8867 64.2798 47.9407C64.2004 47.9948 64.14 48.0933 64.0923 48.23L64.1018 48.2268ZM65.1381 48.853C65.0395 48.8848 64.8838 48.9261 64.6676 48.9706C64.4547 49.0151 64.3116 49.0628 64.2481 49.1041C64.1463 49.1772 64.0955 49.2662 64.0955 49.3775C64.0955 49.4887 64.1368 49.5777 64.2163 49.6572C64.2957 49.7367 64.4006 49.7748 64.5246 49.7748C64.6644 49.7748 64.798 49.7303 64.9219 49.6381C65.0141 49.5682 65.0777 49.4824 65.1063 49.3806C65.1254 49.3139 65.1349 49.1899 65.1349 49.0056V48.853H65.1381ZM69.318 50.2484H68.5456V48.7576C68.5456 48.443 68.5297 48.2395 68.4947 48.1473C68.4597 48.0552 68.4089 47.982 68.3326 47.9312C68.2563 47.8803 68.1673 47.8549 68.0624 47.8549C67.9257 47.8549 67.8049 47.893 67.7 47.9662C67.592 48.0393 67.5189 48.1378 67.4807 48.2586C67.4394 48.3794 67.4203 48.6019 67.4203 48.9293V50.2516H66.6479V47.3273H67.3631V47.7564C67.6206 47.429 67.9416 47.2669 68.3294 47.2669C68.5011 47.2669 68.6568 47.2986 68.7999 47.359C68.9429 47.4194 69.051 47.4989 69.1209 47.5943C69.194 47.6896 69.2449 47.7977 69.2735 47.9185C69.3021 48.0393 69.318 48.2109 69.318 48.4366V50.2516V50.2484Z" fill="#0C514A"/>
<path fill-rule="evenodd" clip-rule="evenodd" d="M49.1368 56.0939V52.0602H52.0167V52.7405H49.9251V53.6368H51.8704V54.3171H49.9251V55.4105H52.093V56.0907H49.1368V56.0939ZM52.3949 56.0939L53.4121 54.5872L52.4394 53.1696H53.3485L53.8476 53.9738L54.3752 53.1696H55.2493L54.2926 54.5555L55.3352 56.0939H54.4261L53.8444 55.188L53.2659 56.0939H52.3917H52.3949ZM55.7579 53.1696H56.454V53.5987C56.543 53.4525 56.667 53.3349 56.8196 53.2427C56.9722 53.1537 57.1438 53.106 57.3313 53.106C57.6587 53.106 57.9353 53.2395 58.1641 53.5065C58.393 53.7735 58.5074 54.1454 58.5074 54.619C58.5074 55.0927 58.393 55.4868 58.161 55.757C57.9321 56.0272 57.6524 56.1639 57.325 56.1639C57.1692 56.1639 57.0294 56.1321 56.9022 56.0685C56.7751 56.0049 56.6416 55.8937 56.5017 55.7379V57.2001H55.7579V53.1664V53.1696ZM56.4922 54.5872C56.4922 54.9178 56.5558 55.1594 56.6797 55.3183C56.8037 55.4741 56.9563 55.5536 57.1374 55.5536C57.3186 55.5536 57.4553 55.4804 57.5697 55.3374C57.6842 55.1944 57.7414 54.956 57.7414 54.6254C57.7414 54.3171 57.681 54.0882 57.5634 53.9388C57.4458 53.7894 57.2996 53.7163 57.1247 53.7163C56.9499 53.7163 56.791 53.7894 56.6734 53.9356C56.5526 54.0818 56.4922 54.298 56.4922 54.5872ZM59.8107 56.0939H59.0669V53.1696H59.7566V53.586C59.8742 53.3889 59.9823 53.2618 60.0777 53.2014C60.173 53.141 60.2811 53.1092 60.4019 53.1092C60.5735 53.1092 60.7357 53.1569 60.8946 53.2554L60.6626 53.9293C60.5354 53.8435 60.421 53.8021 60.3129 53.8021C60.2048 53.8021 60.119 53.8307 60.0459 53.8911C59.9728 53.9515 59.9156 54.0596 59.8742 54.2153C59.8329 54.3711 59.8107 54.6985 59.8107 55.1944V56.0939ZM62.8431 55.1689L63.5869 55.2993C63.4915 55.5822 63.339 55.7983 63.1355 55.9445C62.9289 56.0907 62.6714 56.167 62.3631 56.167C61.8736 56.167 61.5112 56.0017 61.276 55.668C61.0917 55.401 60.9963 55.064 60.9963 54.6604C60.9963 54.1772 61.1171 53.7958 61.3618 53.5224C61.6066 53.2459 61.9149 53.1092 62.2868 53.1092C62.7064 53.1092 63.037 53.2522 63.2786 53.5415C63.5201 53.8276 63.6377 54.2694 63.625 54.8606H61.7624C61.7687 55.0895 61.8291 55.2675 61.9435 55.3946C62.058 55.5218 62.201 55.5853 62.3727 55.5853C62.4903 55.5853 62.5888 55.5536 62.6651 55.4868C62.7446 55.4201 62.8049 55.3152 62.8463 55.1689H62.8431ZM62.8876 54.387C62.8812 54.1613 62.8272 53.9928 62.7223 53.8752C62.6174 53.7576 62.4871 53.7004 62.3345 53.7004C62.1724 53.7004 62.0389 53.7608 61.9308 53.8848C61.8259 54.0087 61.7719 54.1772 61.7751 54.387H62.8876ZM63.9715 55.2707L64.7217 55.153C64.7535 55.3024 64.817 55.4169 64.9156 55.4932C65.0109 55.5726 65.1476 55.6108 65.3256 55.6108C65.5195 55.6108 65.6625 55.5758 65.7611 55.4995C65.8278 55.4487 65.8596 55.3787 65.8596 55.2929C65.8596 55.2357 65.8405 55.1848 65.8056 55.1467C65.7674 55.1085 65.6848 55.0768 65.5576 55.045C64.9569 54.9083 64.5754 54.7811 64.4133 54.6667C64.1908 54.5078 64.0796 54.2885 64.0796 54.0087C64.0796 53.7544 64.1781 53.5415 64.3688 53.3698C64.5596 53.1982 64.8615 53.1092 65.2652 53.1092C65.6689 53.1092 65.9391 53.1759 66.1266 53.3063C66.3142 53.4366 66.4445 53.6305 66.5144 53.888L65.8119 54.0246C65.7833 53.9102 65.7229 53.8212 65.6403 53.7608C65.5545 53.7004 65.4369 53.6686 65.2779 53.6686C65.0809 53.6686 64.9378 53.6972 64.852 53.7544C64.7948 53.7958 64.7662 53.8466 64.7662 53.9102C64.7662 53.9642 64.7916 54.0119 64.8393 54.0501C64.906 54.1009 65.1412 54.174 65.5386 54.2694C65.9359 54.3647 66.2156 54.4792 66.3714 54.6127C66.5271 54.7494 66.6066 54.9433 66.6066 55.188C66.6066 55.455 66.4985 55.6871 66.2824 55.8778C66.0662 56.0717 65.7484 56.167 65.3224 56.167C64.9378 56.167 64.6327 56.0876 64.4102 55.9255C64.1876 55.7633 64.0383 55.5472 63.9715 55.2707ZM66.9944 55.2707L67.7445 55.153C67.7763 55.3024 67.8399 55.4169 67.9384 55.4932C68.0338 55.5726 68.1737 55.6108 68.3485 55.6108C68.5424 55.6108 68.6854 55.5758 68.784 55.4995C68.8475 55.4487 68.8825 55.3787 68.8825 55.2929C68.8825 55.2357 68.8634 55.1848 68.8285 55.1467C68.7903 55.1085 68.7077 55.0768 68.5805 55.045C67.9766 54.9083 67.5951 54.7811 67.4362 54.6667C67.2137 54.5078 67.1025 54.2885 67.1025 54.0087C67.1025 53.7544 67.1978 53.5415 67.3917 53.3698C67.5856 53.1982 67.8844 53.1092 68.2881 53.1092C68.6918 53.1092 68.962 53.1759 69.1495 53.3063C69.337 53.4366 69.4674 53.6305 69.5373 53.888L68.8348 54.0246C68.8062 53.9102 68.7458 53.8212 68.6632 53.7608C68.5805 53.7004 68.4597 53.6686 68.3008 53.6686C68.1037 53.6686 67.9607 53.6972 67.8749 53.7544C67.8176 53.7958 67.789 53.8466 67.789 53.9102C67.789 53.9642 67.8145 54.0119 67.8622 54.0501C67.9289 54.1009 68.1641 54.174 68.5615 54.2694C68.9588 54.3647 69.2385 54.4792 69.3943 54.6127C69.55 54.7494 69.6295 54.9433 69.6295 55.188C69.6295 55.455 69.5214 55.6871 69.3053 55.8778C69.0891 56.0717 68.7712 56.167 68.3453 56.167C67.9607 56.167 67.6555 56.0876 67.433 55.9255C67.2105 55.7633 67.0611 55.5472 66.9944 55.2707Z" fill="#0C514A"/>
<path fill-rule="evenodd" clip-rule="evenodd" d="M10.4306 23.0933C10.3193 23.6782 10.3988 25.1277 10.3956 25.8111V33.9643C10.3956 36.4786 10.3448 39.6795 10.4052 42.1365C10.4242 42.8263 10.6022 43.6686 11.1172 44.1486C11.8769 44.8606 13.5584 44.7907 14.7218 44.7303C15.3448 44.6985 15.3034 44.4951 15.2971 43.9293L15.2844 33.0584C15.2844 31.3006 15.2272 29.4093 15.3066 27.6642C16.2825 27.4767 19.086 27.5975 20.1381 27.7183C20.9328 27.8104 21.4859 27.9471 21.9404 28.3699C22.8813 29.244 23.0053 30.9064 22.4649 32.1143C21.7306 33.7577 19.4134 33.7036 17.8559 33.6973C16.2507 33.6877 16.2825 33.6718 17.4236 35.6617L22.1661 43.4207C22.4141 43.8403 22.6938 44.5142 23.1578 44.6C23.8349 44.7271 26.6353 44.6604 27.4585 44.6254C27.8304 44.6095 28.0148 44.5428 27.983 44.1168C27.9099 43.2046 24.0606 38.2173 23.552 36.6788C23.9462 36.3641 24.4229 36.0654 24.8584 35.7697C25.8247 35.1118 25.4242 35.2484 26.0154 34.7494C26.6766 34.1931 27.3441 32.7659 27.5571 31.8696C27.9735 30.1277 27.6874 27.9153 26.7879 26.4214C25.0205 23.4907 22.8305 23.052 19.1846 23.0107C17.9576 22.998 11.0631 22.8708 10.4306 23.0933Z" fill="#0C514A"/>
<path fill-rule="evenodd" clip-rule="evenodd" d="M40.3606 29.3743C40.4528 28.9293 40.6022 27.4258 40.0364 27.1811C39.7312 27.0476 33.1165 27.108 32.4712 27.108C29.5024 27.108 29.7535 26.6502 29.7694 29.4951L29.7821 42.1779C29.7821 42.7119 29.6327 44.1995 29.9887 44.4824C30.2621 44.6985 36.3587 44.6032 37.484 44.5936C39.2131 44.5777 40.386 44.8702 40.421 42.4194C40.4369 41.326 40.5958 40.9668 39.4197 40.8905C38.5456 40.8333 34.8775 41.0304 34.4007 40.8428C34.051 40.7062 34.1655 40.2008 34.1718 39.8193C34.2004 38.5002 33.9239 37.8517 34.6995 37.8454L38.5075 37.8517C39.4038 37.8517 40.0491 37.8168 40.2843 37.0539C40.4019 36.6725 40.4909 35.01 40.4019 34.6223C40.2462 33.9325 38.8571 34.1741 38.2659 34.1741C37.4204 34.1772 36.5749 34.1836 35.7293 34.1804C34.0669 34.1804 34.1432 34.3266 34.1432 33.23C34.1432 32.8168 34.0447 31.1671 34.2513 30.9033C34.4388 30.6649 36.168 30.7793 36.6353 30.7761C38.2309 30.7729 40.0173 30.9827 40.3543 29.3648L40.3606 29.3743Z" fill="#0C514A"/>
<path fill-rule="evenodd" clip-rule="evenodd" d="M51.3333 36.9649L54.7566 41.2211C54.8298 40.9954 55.1222 40.4487 55.2779 40.1753C55.4877 39.8066 55.653 39.4347 55.8151 39.1359C55.9963 38.799 56.7942 37.251 56.9277 37.1366C56.969 36.9236 59.229 32.6006 59.5214 32.073L61.1584 28.9389C61.2188 28.8244 61.2697 28.7386 61.3269 28.6273L62.0739 27.0952C60.8914 27.1239 59.6899 27.1111 58.5074 27.1175C57.8145 27.1207 57.1311 26.9999 56.6289 27.4354C56.5812 27.4767 56.454 27.6007 56.4191 27.6515L51.3333 36.9649Z" fill="#F79B29"/>
<path fill-rule="evenodd" clip-rule="evenodd" d="M54.7566 41.2211C54.8552 41.4468 55.2239 41.8441 55.3765 42.0475C55.4877 42.1938 55.6022 42.3527 55.688 42.4608C55.8024 42.6038 55.8819 42.6801 55.99 42.8231C56.2951 43.2268 56.88 44.031 57.2392 44.3552C57.5761 44.6604 57.9162 44.6318 58.4439 44.6286C59.5564 44.6191 61.756 44.5618 62.6492 44.6254L56.9467 37.073C56.8132 37.1842 55.99 38.799 55.8088 39.1359C55.6498 39.4347 55.4814 39.8066 55.2716 40.1753C55.1158 40.4487 54.8234 40.9986 54.7503 41.2211H54.7566Z" fill="url(#paint0_linear_4069_5570)"/>
<path fill-rule="evenodd" clip-rule="evenodd" d="M48.3167 33.0107L50.6212 28.8117L49.6518 27.4767C49.2894 27.0412 48.6346 27.0412 47.9321 27.0412C46.5462 27.0444 45.1222 27.019 43.7427 27.0603C43.8253 27.216 43.7554 27.0921 43.8253 27.1906L48.3136 33.0075L48.3167 33.0107Z" fill="url(#paint1_linear_4069_5570)"/>
<path fill-rule="evenodd" clip-rule="evenodd" d="M48.3104 32.9853L40.2271 47.8835C40.0745 48.1791 39.8266 48.5542 39.7122 48.8911C40.7007 48.8911 41.6893 48.8911 42.681 48.8911C43.6728 48.8911 44.6486 49.0564 45.0841 48.3253L51.3301 36.9649C51.5621 36.6534 52.6874 34.4379 53.0529 33.8276L53.6314 32.75L52.8431 31.7138C52.5729 31.3673 52.3472 31.0558 52.0866 30.7157L50.5577 28.7291C50.4528 29.101 49.6804 30.4328 49.4356 30.8715L48.5806 32.4385C48.4757 32.6515 48.3835 32.7564 48.304 32.9821L48.3104 32.9853Z" fill="#0C514A"/>
<defs>
<linearGradient id="paint0_linear_4069_5570" x1="42.5399" y1="46.6934" x2="29.2981" y2="28.6858" gradientUnits="userSpaceOnUse">
<stop stop-color="#F89631"/>
<stop offset="1" stop-color="#F26926"/>
</linearGradient>
<linearGradient id="paint1_linear_4069_5570" x1="18.7231" y1="17.089" x2="44.173" y2="54.9676" gradientUnits="userSpaceOnUse">
<stop stop-color="#004941"/>
<stop offset="0.17" stop-color="#00382E"/>
<stop offset="0.36" stop-color="#002B20"/>
<stop offset="0.59" stop-color="#002418"/>
<stop offset="1" stop-color="#002216"/>
</linearGradient>
</defs>
</svg>
