<svg width="80" height="80" viewBox="0 0 80 80" fill="none" xmlns="http://www.w3.org/2000/svg">
<path fill-rule="evenodd" clip-rule="evenodd" d="M28.5378 35.1756H35.6586L38.1451 31.4618H44.6071C45.4961 31.4618 52.1431 29.8824 51.9716 25.785C51.8814 23.5918 50.1486 23.7047 50.1486 23.7047H36.2092L34.1334 26.8048H43.506C43.9618 26.8048 44.3318 26.9673 44.3318 27.4185C44.3318 28.2172 42.2651 28.4564 41.6288 28.4564H33.0278L28.5378 35.1711V35.1756Z" fill="#B59A28"/>
<path fill-rule="evenodd" clip-rule="evenodd" d="M10.3701 35.1756H17.491L20.1308 31.4618L21.7238 35.1756H28.9936L27.2517 31.1504C31.295 30.3833 34.5801 27.9555 34.5801 25.7804C34.5801 23.6054 32.4637 23.7047 32.4637 23.7047H18.5244L10.3701 35.1756ZM22.2608 28.4654L23.4386 26.8048H26.8636C26.8636 26.8048 27.9782 26.7552 27.9557 27.1387C27.9331 27.5268 25.8438 28.3391 25.8438 28.3391C25.8438 28.3391 23.3122 28.4609 22.2608 28.4609V28.4654Z" fill="black"/>
<path fill-rule="evenodd" clip-rule="evenodd" d="M69.6294 23.7047H61.9941L58.8398 26.0016L57.3597 23.7047H50.2433L53.6278 29.8012L46.2542 35.1756H53.8579L56.1142 33.4789L56.1458 33.524L57.1385 35.1756H64.7468L61.43 30.0268L69.6294 23.7047Z" fill="black"/>
<path fill-rule="evenodd" clip-rule="evenodd" d="M29.1199 36.8634C29.1425 36.9762 29.156 37.107 29.156 37.2559C29.156 37.3913 29.147 37.5357 29.1334 37.6892C29.1199 37.8381 29.0973 37.996 29.0658 38.1585C29.0342 38.3209 28.9981 38.4743 28.9575 38.6278C28.9168 38.7767 28.8672 38.9256 28.8176 39.061C28.7679 39.1964 28.7138 39.3137 28.6551 39.4175C28.5964 39.5213 28.5333 39.607 28.4656 39.6792C28.3979 39.7514 28.3257 39.8056 28.2535 39.8417C28.1768 39.8778 28.1001 39.8958 28.0188 39.8958C27.9286 39.8958 27.8474 39.8732 27.7752 39.8326C27.703 39.792 27.6443 39.7288 27.5947 39.6431C27.545 39.5619 27.5089 39.4671 27.4818 39.3543C27.4593 39.246 27.4457 39.1196 27.4457 38.9843C27.4457 38.8579 27.4503 38.727 27.4638 38.5917C27.4773 38.4563 27.4954 38.3164 27.5225 38.1675C27.5495 38.0186 27.5811 37.8742 27.6172 37.7298C27.6533 37.5854 27.6984 37.441 27.7481 37.3011C27.8067 37.1341 27.8654 36.9897 27.9241 36.8724C27.9872 36.7505 28.0504 36.6467 28.1136 36.57C28.1813 36.4888 28.2535 36.4301 28.3302 36.3895C28.4069 36.3489 28.4927 36.3264 28.5784 36.3264C28.6732 36.3264 28.7589 36.3489 28.8311 36.3895C28.9033 36.4301 28.9665 36.4933 29.0161 36.5745C29.0658 36.6558 29.1019 36.7505 29.1244 36.8679L29.1199 36.8634ZM29.7697 38.1088C29.7968 37.9554 29.8103 37.802 29.8103 37.644C29.8103 37.1973 29.702 36.8363 29.4809 36.5655C29.3726 36.4301 29.2463 36.3264 29.1019 36.2587C28.9575 36.191 28.7995 36.1549 28.6235 36.1549C28.5107 36.1549 28.3979 36.1684 28.2941 36.1955C28.1858 36.2226 28.082 36.2632 27.9782 36.3173C27.8744 36.3715 27.7752 36.4392 27.6849 36.5159C27.5901 36.5926 27.4999 36.6874 27.4187 36.7866C27.3239 36.904 27.2336 37.0348 27.1614 37.1747C27.0847 37.3146 27.017 37.4635 26.9629 37.6215C26.9087 37.7794 26.8636 37.9373 26.8365 38.0953C26.8095 38.2532 26.7959 38.4067 26.7959 38.5601C26.7959 38.7857 26.823 38.9933 26.8772 39.1738C26.9313 39.3543 27.0125 39.5168 27.1253 39.6521C27.2336 39.7875 27.36 39.8913 27.4999 39.959C27.6398 40.0267 27.8022 40.0628 27.9782 40.0628C28.091 40.0628 28.2039 40.0492 28.3167 40.0176C28.4295 39.9906 28.5378 39.9454 28.6506 39.8868C28.7589 39.8281 28.8627 39.7559 28.962 39.6747C29.0567 39.5935 29.147 39.4987 29.2327 39.3904C29.3275 39.2686 29.4087 39.1422 29.4809 39.0023C29.5531 38.8669 29.6163 38.718 29.6659 38.5646C29.7201 38.4112 29.7562 38.2532 29.7833 38.0998L29.7697 38.1088ZM30.4195 38.2442L30.0044 39.9725H30.5549L30.6316 39.616C30.6632 39.4581 30.6993 39.3182 30.7264 39.1964C30.758 39.0745 30.785 38.9707 30.8166 38.8805C30.8437 38.7947 30.8753 38.709 30.9069 38.6323C30.9385 38.5556 30.9746 38.4789 31.0107 38.4112C31.0513 38.3345 31.0964 38.2623 31.1415 38.1991C31.1867 38.1359 31.2318 38.0772 31.2814 38.0276C31.3311 37.978 31.3762 37.9419 31.4168 37.9148C31.4619 37.8877 31.5026 37.8742 31.5432 37.8742C31.5657 37.8742 31.5883 37.8787 31.6109 37.8877C31.6109 37.8877 31.647 37.9103 31.665 37.9283C31.665 37.9283 31.6921 37.9689 31.6966 37.9915C31.7011 38.0141 31.7056 38.0411 31.7056 38.0637C31.7056 38.0772 31.7056 38.0953 31.7011 38.1178C31.7011 38.1404 31.6921 38.163 31.6876 38.1946C31.6831 38.2216 31.674 38.2577 31.665 38.2938C31.656 38.3345 31.647 38.3706 31.6379 38.4067L31.4078 39.246C31.3988 39.2776 31.3897 39.3137 31.3852 39.3453C31.3762 39.3814 31.3717 39.413 31.3672 39.4491C31.3627 39.4852 31.3581 39.5168 31.3536 39.5483C31.3536 39.5754 31.3536 39.6025 31.3536 39.6341C31.3536 39.7063 31.3627 39.7649 31.3762 39.8191C31.3897 39.8687 31.4168 39.9139 31.4439 39.95C31.4755 39.9861 31.5116 40.0086 31.5522 40.0267C31.5973 40.0447 31.647 40.0537 31.7101 40.0537C31.7778 40.0537 31.85 40.0357 31.9132 40.0041C31.9809 39.968 32.0486 39.9184 32.1163 39.8507C32.184 39.7785 32.2516 39.6927 32.3148 39.5844C32.378 39.4852 32.4367 39.3633 32.4998 39.2279L32.4231 39.1557C32.387 39.2279 32.3554 39.2956 32.3193 39.3543C32.2787 39.4265 32.2426 39.4897 32.2065 39.5393C32.1704 39.5935 32.1343 39.6296 32.1072 39.6566C32.0711 39.6882 32.035 39.7063 32.0034 39.7063C31.9854 39.7063 31.9719 39.7063 31.9583 39.6973C31.9583 39.6973 31.9312 39.6792 31.9222 39.6657C31.9132 39.6521 31.9087 39.6386 31.9042 39.6205C31.9042 39.6205 31.8997 39.589 31.8997 39.5709C31.8997 39.5619 31.8997 39.5529 31.8997 39.5438C31.8997 39.5348 31.8997 39.5213 31.8997 39.5168C31.8997 39.5168 31.8997 39.4987 31.8997 39.4897C31.8997 39.4806 31.8997 39.4671 31.9042 39.4626L32.1479 38.4879C32.1614 38.4337 32.1704 38.3886 32.184 38.3435C32.193 38.2984 32.202 38.2577 32.2065 38.2216C32.211 38.1855 32.2155 38.1494 32.2201 38.1224C32.2201 38.0908 32.2201 38.0637 32.2201 38.0411C32.2201 37.9554 32.211 37.8832 32.193 37.8155C32.1749 37.7523 32.1479 37.6982 32.1163 37.6576C32.0802 37.617 32.0395 37.5854 31.9944 37.5628C31.9448 37.5402 31.8861 37.5312 31.8229 37.5312C31.7598 37.5312 31.6966 37.5448 31.6334 37.5718C31.5657 37.5989 31.5026 37.644 31.4349 37.6982C31.3672 37.7568 31.2995 37.829 31.2273 37.9148C31.1596 38.0005 31.0874 38.1043 31.0152 38.2216L30.8934 38.4202L30.934 38.1901L31.0513 37.5448L30.1578 37.5854L30.1262 37.7523H30.2796C30.3067 37.7523 30.3338 37.7568 30.3564 37.7659C30.3789 37.7749 30.4015 37.7929 30.4195 37.811C30.4195 37.811 30.4511 37.8561 30.4556 37.8787C30.4647 37.9058 30.4692 37.9328 30.4692 37.9599C30.4692 37.9734 30.4692 37.9915 30.4692 38.0095C30.4692 38.0276 30.4692 38.0502 30.4601 38.0682C30.4601 38.0908 30.4511 38.1133 30.4466 38.1404C30.4421 38.163 30.4331 38.1946 30.424 38.2307L30.4195 38.2442ZM33.7363 38.7406C33.637 38.7947 33.5242 38.8354 33.3978 38.8579L33.3347 38.8715L33.3482 38.8083C33.3798 38.6323 33.4204 38.4789 33.461 38.3435C33.5061 38.2081 33.5513 38.0863 33.6054 37.987C33.6596 37.8877 33.7182 37.811 33.7769 37.7568C33.8401 37.7027 33.9078 37.6756 33.98 37.6756C34.0161 37.6756 34.0522 37.6846 34.0837 37.6982C34.1153 37.7117 34.1424 37.7343 34.165 37.7659C34.1875 37.7929 34.2056 37.8245 34.2191 37.8606C34.2327 37.8967 34.2372 37.9328 34.2372 37.978C34.2372 38.0817 34.2191 38.1855 34.1785 38.2758C34.1379 38.3706 34.0837 38.4563 34.007 38.5375C33.9303 38.6187 33.8401 38.6864 33.7408 38.7406H33.7363ZM34.4267 39.5303L34.35 39.4265C34.3004 39.4852 34.2507 39.5393 34.2011 39.5844C34.1424 39.6431 34.0883 39.6882 34.0341 39.7243C33.98 39.7604 33.9303 39.7875 33.8762 39.8056C33.822 39.8236 33.7724 39.8326 33.7227 39.8326C33.6596 39.8326 33.6009 39.8191 33.5513 39.792C33.5016 39.7649 33.4565 39.7243 33.4204 39.6702C33.3843 39.616 33.3572 39.5574 33.3392 39.4852C33.3211 39.4175 33.3121 39.3408 33.3121 39.255C33.3121 39.2415 33.3121 39.2234 33.3121 39.2054C33.3121 39.1873 33.3121 39.1693 33.3121 39.1512C33.3121 39.1332 33.3121 39.1151 33.3166 39.0971C33.3166 39.0745 33.3166 39.0565 33.3211 39.0384V39.0023H33.3617C33.5693 38.9843 33.7543 38.9482 33.9123 38.8985C34.0702 38.8489 34.2011 38.7857 34.3094 38.7045C34.4177 38.6278 34.4944 38.5375 34.5485 38.4337C34.6027 38.3299 34.6253 38.2171 34.6253 38.0908C34.6253 38.005 34.6117 37.9238 34.5801 37.8561C34.5531 37.7884 34.5079 37.7253 34.4493 37.6711C34.3906 37.617 34.3229 37.5763 34.2462 37.5493C34.1695 37.5222 34.0792 37.5087 33.98 37.5087C33.9032 37.5087 33.831 37.5177 33.7543 37.5357C33.6821 37.5538 33.6099 37.5809 33.5377 37.617C33.4655 37.6531 33.3978 37.6982 33.3347 37.7478C33.2715 37.7975 33.2083 37.8606 33.1451 37.9283C33.0774 38.0005 33.0233 38.0863 32.9691 38.172C32.9195 38.2577 32.8744 38.3525 32.8338 38.4563C32.7977 38.5601 32.7661 38.6594 32.748 38.7631C32.73 38.8669 32.7209 38.9662 32.7209 39.07C32.7209 39.2189 32.739 39.3498 32.7796 39.4716C32.8157 39.589 32.8744 39.6973 32.9511 39.7875C33.0278 39.8778 33.1135 39.9454 33.2083 39.9951C33.3031 40.0402 33.4159 40.0628 33.5332 40.0628C33.6144 40.0628 33.6957 40.0537 33.7724 40.0312C33.8491 40.0086 33.9258 39.977 33.998 39.9319C34.0702 39.8868 34.1424 39.8281 34.2146 39.7604C34.2823 39.6973 34.3455 39.6205 34.4087 39.5393L34.4267 39.5303ZM36.0783 39.977H36.1776L36.4122 39.6386L36.4483 39.589L36.4844 39.6386C36.5386 39.7108 36.5973 39.774 36.6604 39.8281C36.7236 39.8823 36.7913 39.9274 36.859 39.9635C36.9312 39.9996 37.0079 40.0267 37.0891 40.0447C37.1704 40.0628 37.2561 40.0718 37.3509 40.0718C37.6938 40.0718 37.9736 39.9545 38.1812 39.7243C38.285 39.607 38.3662 39.4716 38.4203 39.3227C38.4745 39.1693 38.5016 38.9978 38.5016 38.8038C38.5016 38.6774 38.488 38.5646 38.461 38.4608C38.4339 38.3615 38.3978 38.2713 38.3481 38.1946C38.2985 38.1179 38.2263 38.0411 38.127 37.9689C38.0277 37.8922 37.9059 37.82 37.766 37.7478C37.766 37.7478 37.7209 37.7253 37.6893 37.7117C37.6532 37.6937 37.6171 37.6801 37.5855 37.6621C37.3779 37.5628 37.2245 37.459 37.1207 37.3507C37.0124 37.2379 36.9583 37.1161 36.9583 36.9897C36.9583 36.8995 36.9718 36.8137 36.9989 36.7325C37.026 36.6558 37.0666 36.5836 37.1207 36.5249C37.1749 36.4617 37.238 36.4166 37.3102 36.385C37.3825 36.3534 37.4592 36.3399 37.5449 36.3399C37.6848 36.3399 37.8066 36.367 37.9149 36.4211C38.0232 36.4753 38.1135 36.5565 38.1857 36.6603C38.2579 36.7641 38.312 36.8949 38.3527 37.0484C38.3888 37.1928 38.4068 37.3597 38.4158 37.5448L38.5512 37.5673L38.7091 36.2857H38.6008L38.4023 36.5475L38.3707 36.5881L38.3346 36.5475C38.2759 36.4798 38.2128 36.4211 38.1496 36.3715C38.0864 36.3218 38.0232 36.2812 37.9601 36.2496C37.8969 36.2181 37.8247 36.1955 37.7525 36.1774C37.6803 36.1639 37.5991 36.1549 37.5178 36.1549C37.3644 36.1549 37.2245 36.182 37.1027 36.2361C36.9808 36.2903 36.868 36.3715 36.7732 36.4798C36.6785 36.5881 36.6018 36.7144 36.5566 36.8498C36.507 36.9897 36.4844 37.1386 36.4844 37.3101C36.4844 37.4545 36.498 37.5809 36.5296 37.6982C36.5612 37.811 36.6063 37.9148 36.6695 38.0005C36.7326 38.0863 36.8184 38.172 36.9267 38.2487C37.0395 38.3299 37.1704 38.4021 37.3283 38.4698L37.3644 38.4879C37.5765 38.5781 37.7344 38.6819 37.8427 38.7947C37.9555 38.9121 38.0097 39.0429 38.0097 39.1873C38.0097 39.2911 37.9962 39.3814 37.9646 39.4626C37.933 39.5438 37.8879 39.616 37.8247 39.6747C37.7615 39.7334 37.6893 39.7785 37.6036 39.8101C37.5178 39.8417 37.4231 39.8552 37.3193 39.8552C37.1749 39.8552 37.0485 39.8281 36.9357 39.7695C36.8229 39.7108 36.7236 39.6251 36.6379 39.5077C36.5566 39.3904 36.4935 39.2595 36.4529 39.1016C36.4122 38.9482 36.3942 38.7767 36.3897 38.5872L36.2724 38.5601L36.0828 39.959L36.0783 39.977ZM39.8824 39.589C39.9456 39.4852 40.0043 39.3678 40.0674 39.2325L39.9907 39.1557C39.9546 39.2279 39.9185 39.2956 39.8869 39.3543C39.8463 39.4265 39.8102 39.4897 39.7741 39.5438C39.738 39.598 39.7019 39.6341 39.6748 39.6612C39.6387 39.6927 39.6026 39.7108 39.5711 39.7108C39.553 39.7108 39.5395 39.7108 39.5259 39.7018C39.5259 39.7018 39.4988 39.6837 39.4898 39.6702C39.4898 39.6702 39.4763 39.6431 39.4718 39.6251C39.4718 39.6251 39.4673 39.5935 39.4673 39.5754C39.4673 39.5619 39.4673 39.5483 39.4673 39.5348C39.4673 39.5213 39.4673 39.5077 39.4718 39.4897C39.4718 39.4897 39.4763 39.4536 39.4808 39.4355C39.4853 39.413 39.4898 39.3904 39.4988 39.3633L39.8599 37.8516L39.8689 37.82H40.3337L40.3788 37.5899H39.9275L39.9411 37.5357L40.1667 36.6197H39.6523L39.4041 37.5538L39.3951 37.5854H38.998L38.9483 37.8155H39.3319L39.3183 37.8697L38.9799 39.2505C38.9709 39.2956 38.9619 39.3362 38.9528 39.3769C38.9438 39.413 38.9393 39.4491 38.9348 39.4761C38.9258 39.5348 38.9212 39.589 38.9212 39.6386C38.9212 39.7108 38.9303 39.7695 38.9438 39.8236C38.9573 39.8732 38.9844 39.9184 39.0115 39.9545C39.0431 39.9906 39.0792 40.0131 39.1198 40.0312C39.1649 40.0492 39.2146 40.0583 39.2777 40.0583C39.3499 40.0583 39.4176 40.0402 39.4808 40.0086C39.5485 39.9725 39.6162 39.9229 39.6839 39.8552C39.7516 39.783 39.8192 39.6973 39.8824 39.589ZM41.5431 37.6982C41.5837 37.6756 41.6333 37.6621 41.6784 37.6621C41.7326 37.6621 41.7822 37.6756 41.8228 37.7027C41.8634 37.7298 41.9041 37.7659 41.9311 37.82C41.9627 37.8697 41.9808 37.9283 41.9988 37.9915C42.0124 38.0547 42.0214 38.1269 42.0214 38.2081C42.0214 38.2803 42.0169 38.3615 42.0078 38.4563C41.9988 38.5465 41.9853 38.6458 41.9672 38.7541C41.9492 38.8624 41.9266 38.9662 41.8995 39.07C41.877 39.1693 41.8454 39.2686 41.8183 39.3588C41.7912 39.4445 41.7597 39.5213 41.7281 39.5844C41.6965 39.6521 41.6604 39.7063 41.6243 39.7514C41.5882 39.7965 41.5476 39.8326 41.5024 39.8552C41.4573 39.8778 41.4122 39.8913 41.3625 39.8913C41.3084 39.8913 41.2588 39.8778 41.2136 39.8507C41.173 39.8236 41.1324 39.7875 41.1008 39.7334C41.0692 39.6837 41.0467 39.6251 41.0331 39.5619C41.0196 39.4987 41.0106 39.4265 41.0106 39.3453C41.0106 39.2731 41.0151 39.1918 41.0241 39.1016C41.0331 39.0113 41.0512 38.9121 41.0692 38.7993C41.0918 38.6909 41.1144 38.5826 41.1369 38.4834C41.164 38.3841 41.1911 38.2893 41.2227 38.1991C41.2542 38.1088 41.2858 38.0276 41.3174 37.9599C41.349 37.8922 41.3851 37.8381 41.4212 37.7929C41.4573 37.7478 41.4934 37.7162 41.5385 37.6937L41.5431 37.6982ZM40.97 39.9861C41.0692 40.0312 41.1866 40.0537 41.3129 40.0537C41.4799 40.0537 41.6333 40.0176 41.7777 39.9409C41.9221 39.8642 42.0575 39.7514 42.1838 39.598C42.3102 39.4445 42.4004 39.2776 42.4636 39.1016C42.5268 38.9211 42.5584 38.7316 42.5584 38.5285C42.5584 38.3706 42.5403 38.2307 42.4997 38.1088C42.4636 37.987 42.405 37.8787 42.3328 37.7839C42.2606 37.6937 42.1748 37.6215 42.0755 37.5763C41.9808 37.5312 41.8725 37.5087 41.7506 37.5087C41.6649 37.5087 41.5792 37.5177 41.4979 37.5402C41.4167 37.5583 41.3355 37.5899 41.2588 37.6305C41.182 37.6711 41.1098 37.7207 41.0376 37.7794C40.97 37.8381 40.9023 37.9058 40.8391 37.987C40.7804 38.0592 40.7308 38.1359 40.6857 38.2171C40.6405 38.2984 40.5999 38.3886 40.5683 38.4789C40.5367 38.5691 40.5142 38.6639 40.4961 38.7541C40.4781 38.8444 40.4736 38.9391 40.4736 39.0294C40.4736 39.1873 40.4916 39.3272 40.5322 39.4536C40.5683 39.5799 40.627 39.6882 40.7037 39.783C40.7804 39.8778 40.8707 39.9454 40.97 39.9906V39.9861ZM42.3689 40.9202L42.5178 40.9066C42.5403 40.9066 42.5629 40.8976 42.5809 40.8931C42.599 40.8841 42.617 40.8705 42.6306 40.857C42.6306 40.857 42.6531 40.8254 42.6622 40.7983C42.6712 40.7758 42.6802 40.7532 42.6847 40.7216L43.2533 38.1404C43.2533 38.1224 43.2623 38.1088 43.2623 38.0908C43.2623 38.0908 43.2669 38.0592 43.2714 38.0411C43.2714 38.0411 43.2714 38.0095 43.2714 37.996C43.2714 37.9825 43.2714 37.9689 43.2714 37.9599C43.2714 37.9238 43.2669 37.8922 43.2533 37.8651C43.2398 37.8336 43.2217 37.811 43.1992 37.7975C43.1992 37.7975 43.136 37.7704 43.0818 37.7659C43.0412 37.7659 42.9916 37.7568 42.9329 37.7568L42.969 37.5809L43.8445 37.5493L43.7768 37.9238L43.7407 38.1224L43.8535 37.9554C43.9031 37.8832 43.9528 37.8245 44.0024 37.7704C44.052 37.7207 44.1017 37.6756 44.1558 37.644C44.2055 37.6124 44.2596 37.5854 44.3138 37.5718C44.3679 37.5538 44.4266 37.5493 44.4898 37.5493C44.589 37.5493 44.6793 37.5673 44.7605 37.6079C44.8418 37.6485 44.9094 37.7072 44.9681 37.7884C45.0268 37.8697 45.0719 37.9644 45.1035 38.0772C45.1351 38.1901 45.1486 38.3164 45.1486 38.4608C45.1486 38.5646 45.1396 38.6684 45.1215 38.7722C45.1035 38.876 45.0809 38.9798 45.0448 39.079C45.0132 39.1783 44.9681 39.2776 44.923 39.3678C44.8733 39.4581 44.8192 39.5438 44.7605 39.6205C44.7019 39.6927 44.6432 39.7559 44.5845 39.8101C44.5214 39.8642 44.4582 39.9093 44.395 39.95C44.3318 39.9861 44.2641 40.0176 44.1964 40.0357C44.1288 40.0537 44.0656 40.0628 43.9979 40.0628C43.9437 40.0628 43.8896 40.0583 43.8445 40.0447C43.7993 40.0312 43.7542 40.0131 43.7181 39.9861C43.6775 39.959 43.6459 39.9274 43.6143 39.8868C43.5827 39.8462 43.5557 39.7965 43.5286 39.7424L43.4744 39.6205L43.4474 39.7514L43.2714 40.5592C43.2714 40.5592 43.2623 40.5998 43.2623 40.6178C43.2623 40.6359 43.2578 40.6539 43.2533 40.672C43.2533 40.672 43.2533 40.7036 43.2533 40.7171C43.2533 40.7306 43.2533 40.7442 43.2533 40.7577C43.2533 40.7848 43.2533 40.8119 43.2669 40.8299C43.2759 40.8525 43.2894 40.8705 43.312 40.8841C43.312 40.8841 43.3571 40.9021 43.3887 40.9066C43.4203 40.9111 43.4564 40.9157 43.5015 40.9157H43.5557L43.5286 41.0691H42.3418L42.3734 40.9202H42.3689ZM43.5872 39.5529C43.6008 39.6115 43.6234 39.6612 43.6504 39.7018C43.6775 39.7469 43.7136 39.7785 43.7542 39.8056C43.7948 39.8281 43.84 39.8417 43.8896 39.8417C43.9392 39.8417 43.9889 39.8281 44.034 39.8056C44.0791 39.783 44.1197 39.7469 44.1603 39.7063C44.1964 39.6612 44.2371 39.607 44.2687 39.5393C44.3048 39.4761 44.3363 39.3994 44.3679 39.3092C44.3995 39.2234 44.4311 39.1377 44.4537 39.0474C44.4807 38.9617 44.4988 38.8715 44.5168 38.7812C44.5349 38.6909 44.5484 38.6052 44.5575 38.5285C44.5665 38.4473 44.571 38.3751 44.571 38.3074C44.571 38.2397 44.5665 38.172 44.5529 38.1178C44.5394 38.0592 44.5168 38.0095 44.4898 37.9689C44.4627 37.9238 44.4266 37.8922 44.386 37.8697C44.3454 37.8471 44.3002 37.8336 44.2506 37.8336C44.2055 37.8336 44.1604 37.8471 44.1152 37.8697C44.0746 37.8922 44.0295 37.9283 43.9889 37.9734C43.9483 38.0186 43.9122 38.0727 43.8761 38.1359C43.84 38.1991 43.8084 38.2668 43.7768 38.348C43.7452 38.4337 43.7136 38.524 43.691 38.6097C43.664 38.7 43.6414 38.7902 43.6234 38.885C43.6053 38.9798 43.5872 39.0655 43.5782 39.1422C43.5692 39.2234 43.5647 39.2911 43.5647 39.3543C43.5647 39.422 43.5692 39.4852 43.5827 39.5393L43.5872 39.5529ZM46.5791 39.7875L46.552 39.9725H49.1016L49.3588 38.6955L49.237 38.6594C49.1513 38.8579 49.0655 39.0249 48.9798 39.1648C48.885 39.3137 48.7903 39.431 48.691 39.5168C48.5917 39.6025 48.4789 39.6657 48.348 39.7108C48.2172 39.7559 48.0773 39.774 47.9193 39.774C47.8607 39.774 47.8155 39.774 47.7749 39.7649C47.7343 39.7559 47.6982 39.7469 47.6757 39.7334C47.6486 39.7153 47.6305 39.6927 47.617 39.6612C47.6035 39.6341 47.5989 39.6025 47.5989 39.5619C47.5989 39.5619 47.5989 39.5303 47.5989 39.5168C47.5989 39.5168 47.5989 39.4852 47.6035 39.4671C47.6035 39.4491 47.608 39.431 47.6125 39.413C47.6125 39.3949 47.6215 39.3723 47.626 39.3543L48.1765 36.728C48.1856 36.6828 48.1946 36.6467 48.2081 36.6152C48.2217 36.5836 48.2352 36.5565 48.2488 36.5384C48.2488 36.5384 48.2803 36.5023 48.3029 36.4933C48.3255 36.4843 48.348 36.4753 48.3751 36.4708L48.6188 36.4482L48.6504 36.2677H47.2063L47.1748 36.4482L47.3507 36.4662C47.3823 36.4662 47.4049 36.4753 47.4275 36.4843C47.45 36.4933 47.4726 36.5069 47.4861 36.5204C47.5177 36.552 47.5358 36.5971 47.5358 36.6558C47.5358 36.6648 47.5358 36.6738 47.5358 36.6828C47.5358 36.6919 47.5358 36.7009 47.5358 36.7099C47.5358 36.7189 47.5358 36.728 47.5358 36.7415C47.5358 36.7505 47.5358 36.7641 47.5312 36.7731L46.9582 39.5168C46.9491 39.5619 46.9401 39.598 46.9266 39.6296C46.913 39.6657 46.8995 39.6882 46.8859 39.7063C46.8724 39.7243 46.8498 39.7379 46.8273 39.7514C46.8273 39.7514 46.7822 39.7695 46.7551 39.7695L46.5746 39.792L46.5791 39.7875ZM50.5682 37.6982C50.6088 37.6756 50.6585 37.6621 50.7036 37.6621C50.7577 37.6621 50.8074 37.6756 50.848 37.7027C50.8886 37.7298 50.9292 37.7659 50.9563 37.82C50.9879 37.8697 51.0059 37.9283 51.024 37.9915C51.0375 38.0547 51.0466 38.1269 51.0466 38.2081C51.0466 38.2803 51.042 38.3615 51.033 38.4563C51.024 38.5465 51.0105 38.6458 50.9924 38.7541C50.9743 38.8624 50.9518 38.9662 50.9247 39.07C50.9021 39.1693 50.8706 39.2686 50.8435 39.3588C50.8164 39.4445 50.7848 39.5213 50.7532 39.5844C50.7216 39.6521 50.6856 39.7063 50.6494 39.7514C50.6133 39.7965 50.5727 39.8326 50.5276 39.8552C50.4825 39.8778 50.4374 39.8913 50.3877 39.8913C50.3336 39.8913 50.2839 39.8778 50.2388 39.8507C50.1982 39.8236 50.1576 39.7875 50.126 39.7334C50.0944 39.6837 50.0718 39.6251 50.0583 39.5619C50.0448 39.4987 50.0357 39.4265 50.0357 39.3453C50.0357 39.2731 50.0402 39.1918 50.0493 39.1016C50.0583 39.0113 50.0763 38.9121 50.0944 38.7993C50.1124 38.6909 50.1395 38.5826 50.1621 38.4834C50.1892 38.3841 50.2162 38.2893 50.2478 38.1991C50.2794 38.1088 50.311 38.0276 50.3426 37.9599C50.3742 37.8922 50.4103 37.8381 50.4464 37.7929C50.4825 37.7478 50.5186 37.7162 50.5637 37.6937L50.5682 37.6982ZM49.9951 39.9861C50.0944 40.0312 50.2117 40.0537 50.3381 40.0537C50.505 40.0537 50.6585 40.0176 50.8029 39.9409C50.9473 39.8642 51.0827 39.7514 51.209 39.598C51.3354 39.4445 51.4256 39.2776 51.4888 39.1016C51.552 38.9211 51.5836 38.7316 51.5836 38.5285C51.5836 38.3706 51.5655 38.2307 51.5249 38.1088C51.4888 37.987 51.4301 37.8787 51.3579 37.7839C51.2857 37.6937 51.2 37.6215 51.1007 37.5763C51.0059 37.5312 50.8976 37.5087 50.7758 37.5087C50.6901 37.5087 50.6043 37.5177 50.5231 37.5402C50.4419 37.5583 50.3606 37.5899 50.2839 37.6305C50.2072 37.6711 50.135 37.7207 50.0628 37.7794C49.9951 37.8381 49.9274 37.9058 49.8643 37.987C49.8056 38.0592 49.756 38.1359 49.7108 38.2171C49.6657 38.2984 49.6251 38.3886 49.5935 38.4789C49.5619 38.5691 49.5394 38.6639 49.5213 38.7541C49.5033 38.8444 49.4987 38.9391 49.4987 39.0294C49.4987 39.1873 49.5168 39.3272 49.5574 39.4536C49.5935 39.5799 49.6522 39.6882 49.7289 39.783C49.8056 39.8778 49.8958 39.9454 49.9951 39.9906V39.9861ZM54.959 36.4166C54.9454 36.4662 54.9364 36.5159 54.9364 36.5745C54.9364 36.6332 54.9454 36.6828 54.959 36.7325C54.9725 36.7821 54.9951 36.8227 55.0267 36.8634C55.0537 36.904 55.0898 36.931 55.1214 36.9491C55.153 36.9671 55.1936 36.9762 55.2297 36.9762C55.2658 36.9762 55.3019 36.9671 55.338 36.9491C55.3741 36.931 55.4057 36.8995 55.4328 36.8634C55.4644 36.8227 55.4869 36.7821 55.5005 36.7325C55.514 36.6828 55.523 36.6332 55.523 36.5791C55.523 36.5249 55.514 36.4708 55.5005 36.4211C55.4869 36.376 55.4644 36.3309 55.4328 36.2948C55.4012 36.2542 55.3696 36.2271 55.338 36.209C55.3064 36.191 55.2703 36.182 55.2297 36.182C55.1891 36.182 55.153 36.191 55.1214 36.209C55.0853 36.2271 55.0537 36.2542 55.0267 36.2948C54.9951 36.3354 54.9725 36.376 54.959 36.4256V36.4166ZM54.9229 39.5077C54.9229 39.5077 54.9274 39.4852 54.9319 39.4716L55.3786 37.5538L54.4265 37.5944L54.3904 37.7614H54.5393C54.5664 37.7614 54.5934 37.7659 54.616 37.7749C54.6386 37.7839 54.6611 37.802 54.6792 37.82C54.6792 37.82 54.7108 37.8651 54.7153 37.8877C54.7243 37.9148 54.7288 37.9419 54.7288 37.9689C54.7288 37.9825 54.7288 38.0005 54.7288 38.0186C54.7288 38.0366 54.7288 38.0547 54.7198 38.0727C54.7198 38.0908 54.7108 38.1178 54.7063 38.1449C54.7017 38.172 54.6927 38.2036 54.6837 38.2397L54.431 39.2505C54.422 39.2956 54.4084 39.3362 54.4039 39.3769C54.3949 39.413 54.3904 39.4491 54.3859 39.4761C54.3859 39.5032 54.3768 39.5348 54.3768 39.5619C54.3768 39.589 54.3768 39.6115 54.3768 39.6386C54.3768 39.7108 54.3859 39.7695 54.3994 39.8236C54.4129 39.8732 54.44 39.9184 54.4671 39.9545C54.4987 39.9906 54.5348 40.0131 54.5799 40.0312C54.625 40.0492 54.6792 40.0583 54.7379 40.0583C54.8055 40.0583 54.8732 40.0402 54.9409 40.0086C55.0086 39.9725 55.0763 39.9229 55.1395 39.8552C55.2072 39.783 55.2748 39.6973 55.338 39.589C55.4012 39.4852 55.4644 39.3678 55.523 39.2325L55.4463 39.1557C55.4147 39.2279 55.3786 39.2911 55.347 39.3498C55.3064 39.422 55.2658 39.4897 55.2297 39.5438C55.1936 39.598 55.1575 39.6431 55.1259 39.6702C55.0898 39.7063 55.0537 39.7198 55.0221 39.7198C55.0041 39.7198 54.986 39.7198 54.9725 39.7108C54.9725 39.7108 54.9454 39.6927 54.9364 39.6792C54.9274 39.6657 54.9184 39.6521 54.9184 39.6341C54.9184 39.616 54.9138 39.6025 54.9138 39.5799C54.9138 39.5754 54.9138 39.5664 54.9138 39.5574C54.9138 39.5574 54.9138 39.5438 54.9138 39.5348C54.9138 39.5348 54.9138 39.5122 54.9184 39.5032L54.9229 39.5077ZM56.5158 38.2758C56.4436 38.1991 56.4075 38.1178 56.4075 38.0411C56.4075 37.9825 56.4165 37.9328 56.4346 37.8877C56.4526 37.8426 56.4797 37.802 56.5158 37.7659C56.5519 37.7298 56.5925 37.7072 56.6422 37.6892C56.6918 37.6711 56.7459 37.6621 56.8046 37.6621C56.8452 37.6621 56.8813 37.6621 56.9129 37.6711C56.949 37.6756 56.9806 37.6892 57.0077 37.7027C57.0393 37.7162 57.0618 37.7343 57.0799 37.7523C57.0979 37.7749 57.1115 37.7975 57.1115 37.829C57.1115 37.8471 57.107 37.8651 57.0934 37.8922C57.0844 37.9148 57.0709 37.9419 57.0528 37.978C57.0348 38.005 57.0257 38.0321 57.0167 38.0592C57.0077 38.0863 57.0032 38.1088 57.0032 38.1314C57.0032 38.1675 57.0077 38.2036 57.0212 38.2307C57.0302 38.2623 57.0483 38.2893 57.0709 38.3164C57.116 38.366 57.1701 38.3886 57.2333 38.3886C57.2694 38.3886 57.3055 38.3796 57.3326 38.366C57.3642 38.3525 57.3867 38.3299 57.4138 38.3029C57.4364 38.2713 57.4544 38.2397 57.468 38.1991C57.4815 38.1585 57.486 38.1133 57.486 38.0637C57.486 37.9825 57.4725 37.9103 57.4409 37.8471C57.4093 37.7839 57.3642 37.7253 57.301 37.6756C57.1746 37.5763 57.0032 37.5267 56.7911 37.5267C56.6737 37.5267 56.5654 37.5448 56.4707 37.5809C56.3759 37.617 56.2992 37.6666 56.227 37.7388C56.1593 37.8065 56.1052 37.8877 56.0736 37.9825C56.0375 38.0772 56.0194 38.1855 56.0194 38.3029C56.0194 38.3841 56.0284 38.4608 56.042 38.5285C56.0555 38.5962 56.0826 38.6548 56.1097 38.7045C56.1413 38.7586 56.1864 38.8083 56.2405 38.8624C56.2992 38.9166 56.3714 38.9662 56.4571 39.0204C56.4571 39.0204 56.4842 39.0384 56.5023 39.0474C56.5158 39.0565 56.5384 39.0655 56.5654 39.079C56.6737 39.1422 56.7505 39.2054 56.8046 39.2731C56.8633 39.3453 56.8904 39.422 56.8904 39.5032C56.8904 39.5664 56.8813 39.6205 56.8633 39.6702C56.8452 39.7198 56.8136 39.7649 56.7775 39.801C56.7369 39.8371 56.6918 39.8642 56.6422 39.8868C56.5925 39.9048 56.5339 39.9139 56.4662 39.9139C56.4256 39.9139 56.3849 39.9139 56.3488 39.9048C56.3127 39.8958 56.2766 39.8868 56.2496 39.8732C56.218 39.8597 56.1954 39.8417 56.1774 39.8236C56.1548 39.801 56.1458 39.774 56.1458 39.7469C56.1458 39.7334 56.1548 39.7153 56.1729 39.6927C56.1819 39.6747 56.1999 39.6521 56.2225 39.6251C56.2405 39.6025 56.2541 39.5709 56.2676 39.5393C56.2766 39.5077 56.2812 39.4716 56.2812 39.431C56.2812 39.3859 56.2766 39.3453 56.2631 39.3092C56.2496 39.2731 56.2315 39.2415 56.209 39.2144C56.1864 39.1873 56.1593 39.1648 56.1322 39.1512C56.1052 39.1377 56.0736 39.1332 56.0375 39.1332C56.0014 39.1332 55.9698 39.1422 55.9382 39.1557C55.9111 39.1693 55.884 39.1918 55.8615 39.2234C55.8389 39.255 55.8209 39.2911 55.8118 39.3362C55.7983 39.3814 55.7938 39.431 55.7938 39.4897C55.7938 39.5754 55.8073 39.6521 55.8389 39.7198C55.8705 39.7875 55.9156 39.8507 55.9788 39.9003C56.042 39.9545 56.1142 39.9951 56.1999 40.0222C56.2857 40.0492 56.3804 40.0628 56.4842 40.0628C56.6151 40.0628 56.7324 40.0447 56.8362 40.0086C56.94 39.9725 57.0302 39.9184 57.1115 39.8417C57.1882 39.7695 57.2514 39.6837 57.2875 39.589C57.3281 39.4942 57.3461 39.3859 57.3461 39.264C57.3461 39.1828 57.3371 39.1061 57.319 39.0384C57.301 38.9707 57.2784 38.9076 57.2423 38.8534C57.2062 38.7992 57.1611 38.7451 57.1024 38.6909C57.0438 38.6368 56.9671 38.5872 56.8813 38.533C56.8813 38.533 56.8633 38.524 56.8497 38.515L56.8181 38.4969C56.6828 38.4202 56.5835 38.3435 56.5158 38.2713V38.2758ZM58.8262 39.5935C58.8894 39.4897 58.9526 39.3723 59.0113 39.237L58.9346 39.1603C58.8984 39.2325 58.8624 39.3001 58.8308 39.3588C58.7901 39.431 58.7541 39.4942 58.7179 39.5483C58.6818 39.6025 58.6457 39.6386 58.6187 39.6657C58.5826 39.6973 58.5465 39.7153 58.5149 39.7153C58.4968 39.7153 58.4833 39.7153 58.4698 39.7063C58.4698 39.7063 58.4427 39.6882 58.4337 39.6747C58.4246 39.6612 58.4201 39.6476 58.4156 39.6296C58.4156 39.6296 58.4111 39.598 58.4111 39.5799C58.4111 39.5664 58.4111 39.5529 58.4111 39.5393C58.4111 39.5258 58.4111 39.5122 58.4156 39.4942C58.4156 39.4761 58.4201 39.4581 58.4246 39.44C58.4291 39.4175 58.4337 39.3904 58.4427 39.3678L58.8037 37.8561L58.8127 37.8245H59.2775L59.3226 37.5944H58.8714L58.8849 37.5402L59.1105 36.6242H58.5961L58.3479 37.5583L58.3389 37.5899H57.9418L57.8921 37.82H58.2757L58.2622 37.8742L57.9237 39.255C57.9147 39.3001 57.9057 39.3408 57.8967 39.3814C57.8876 39.4175 57.8831 39.4536 57.8786 39.4806C57.8786 39.5077 57.8741 39.5393 57.8696 39.5664C57.8696 39.5935 57.8696 39.6205 57.8696 39.6431C57.8696 39.7153 57.8786 39.774 57.8921 39.8281C57.9057 39.8778 57.9328 39.9229 57.9598 39.959C57.9914 39.9951 58.0275 40.0176 58.0681 40.0357C58.1133 40.0537 58.1629 40.0628 58.2261 40.0628C58.2983 40.0628 58.366 40.0447 58.4291 40.0131C58.4968 39.977 58.5645 39.9274 58.6322 39.8597C58.6999 39.7875 58.7676 39.7018 58.8308 39.5935H58.8262ZM60.1575 36.4211C60.1439 36.4708 60.1349 36.5204 60.1349 36.5791C60.1349 36.6377 60.1439 36.6874 60.1575 36.737C60.171 36.7866 60.1936 36.8273 60.2252 36.8679C60.2522 36.9085 60.2883 36.9356 60.3199 36.9536C60.3515 36.9717 60.3921 36.9807 60.4282 36.9807C60.4643 36.9807 60.5004 36.9717 60.5365 36.9536C60.5726 36.9356 60.6042 36.904 60.6313 36.8679C60.6629 36.8273 60.6854 36.7866 60.699 36.737C60.7125 36.6874 60.7215 36.6377 60.7215 36.5836C60.7215 36.5294 60.7125 36.4753 60.699 36.4256C60.6854 36.3805 60.6629 36.3354 60.6313 36.2993C60.5997 36.2587 60.5681 36.2316 60.5365 36.2135C60.5049 36.1955 60.4688 36.1865 60.4282 36.1865C60.3876 36.1865 60.3515 36.1955 60.3199 36.2135C60.2838 36.2316 60.2522 36.2587 60.2252 36.2993C60.1936 36.3399 60.171 36.3805 60.1575 36.4301V36.4211ZM60.1214 39.5122C60.1214 39.5122 60.1259 39.4897 60.1304 39.4761L60.5771 37.5583L59.625 37.5989L59.5889 37.7659H59.7378C59.7649 37.7659 59.7919 37.7704 59.8145 37.7794C59.8371 37.7884 59.8596 37.8065 59.8777 37.8245C59.8777 37.8245 59.9093 37.8697 59.9138 37.8922C59.9228 37.9193 59.9273 37.9464 59.9273 37.9734C59.9273 37.987 59.9273 38.005 59.9273 38.0231C59.9273 38.0411 59.9273 38.0592 59.9183 38.0772C59.9183 38.0953 59.9093 38.1224 59.9048 38.1494C59.9002 38.1765 59.8912 38.2081 59.8822 38.2442L59.6295 39.255C59.6205 39.3001 59.6114 39.3408 59.6024 39.3814C59.5934 39.4175 59.5889 39.4536 59.5844 39.4806C59.5844 39.5077 59.5753 39.5393 59.5753 39.5664C59.5753 39.5935 59.5753 39.616 59.5753 39.6431C59.5753 39.7153 59.5844 39.774 59.5979 39.8281C59.6114 39.8778 59.6385 39.9229 59.6656 39.959C59.6972 39.9951 59.7333 40.0176 59.7784 40.0357C59.8235 40.0537 59.8777 40.0628 59.9363 40.0628C60.004 40.0628 60.0717 40.0447 60.1394 40.0131C60.2071 39.977 60.2748 39.9274 60.338 39.8597C60.4057 39.7875 60.4733 39.7018 60.5365 39.5935C60.5997 39.4897 60.6629 39.3723 60.7215 39.237L60.6448 39.1603C60.6132 39.2325 60.5771 39.2956 60.5455 39.3543C60.5049 39.4265 60.4643 39.4942 60.4282 39.5483C60.3921 39.6025 60.356 39.6476 60.3244 39.6747C60.2883 39.7108 60.2522 39.7243 60.2206 39.7243C60.2026 39.7243 60.1845 39.7243 60.171 39.7153C60.1575 39.7063 60.1439 39.6973 60.1349 39.6837C60.1259 39.6702 60.1168 39.6566 60.1168 39.6386C60.1168 39.6205 60.1123 39.607 60.1123 39.5844C60.1123 39.5799 60.1123 39.5709 60.1123 39.5619C60.1123 39.5619 60.1123 39.5483 60.1123 39.5393C60.1123 39.5393 60.1123 39.5213 60.1168 39.5077L60.1214 39.5122ZM62.6845 39.413L62.6123 39.3317C62.5762 39.3949 62.5401 39.4491 62.4995 39.4987C62.4499 39.5619 62.3957 39.6205 62.337 39.6702C62.2784 39.7198 62.2242 39.7559 62.1656 39.7785C62.1069 39.8056 62.0482 39.8146 61.9941 39.8146C61.9219 39.8146 61.8587 39.801 61.8046 39.774C61.7504 39.7469 61.7008 39.7108 61.6647 39.6566C61.6286 39.607 61.6015 39.5438 61.5834 39.4716C61.5654 39.3994 61.5564 39.3182 61.5564 39.2279C61.5564 39.1467 61.5609 39.0565 61.5744 38.9617C61.5834 38.8669 61.6015 38.7677 61.6241 38.6594C61.6466 38.5556 61.6737 38.4563 61.7008 38.3615C61.7278 38.2668 61.7594 38.181 61.7955 38.1043C61.8271 38.0321 61.8632 37.9644 61.8993 37.9103C61.9354 37.8561 61.976 37.8065 62.0166 37.7704C62.0573 37.7298 62.1024 37.7027 62.1475 37.6846C62.1926 37.6666 62.2423 37.6531 62.2919 37.6531C62.319 37.6531 62.3461 37.6531 62.3731 37.6621C62.4002 37.6711 62.4228 37.6801 62.4408 37.6982C62.4408 37.6982 62.4769 37.7343 62.4905 37.7523C62.504 37.7749 62.5085 37.7975 62.5085 37.8245C62.5085 37.8471 62.495 37.8742 62.4769 37.9103C62.4589 37.9373 62.4318 37.9734 62.3912 38.0141C62.328 38.0817 62.2964 38.172 62.2964 38.2713C62.2964 38.3209 62.3009 38.366 62.3145 38.4067C62.328 38.4473 62.3461 38.4789 62.3686 38.5104C62.3912 38.5375 62.4183 38.5601 62.4499 38.5736C62.4814 38.5872 62.513 38.5962 62.5536 38.5962C62.6033 38.5962 62.6484 38.5872 62.6845 38.5646C62.7251 38.5465 62.7612 38.515 62.7928 38.4698C62.8244 38.4292 62.847 38.3796 62.865 38.3209C62.8831 38.2623 62.8876 38.1991 62.8876 38.1269C62.8876 38.0321 62.874 37.9419 62.8424 37.8697C62.8154 37.7929 62.7702 37.7298 62.7116 37.6756C62.6529 37.6215 62.5852 37.5809 62.504 37.5493C62.4228 37.5222 62.328 37.5087 62.2242 37.5087C62.1475 37.5087 62.0708 37.5177 61.9941 37.5402C61.9174 37.5628 61.8407 37.5944 61.7639 37.635C61.6872 37.6756 61.615 37.7298 61.5473 37.7884C61.4797 37.8471 61.4165 37.9148 61.3623 37.987C61.3082 38.0592 61.2585 38.1404 61.2134 38.2216C61.1683 38.3074 61.1322 38.3976 61.1006 38.4924C61.0374 38.6819 61.0058 38.876 61.0058 39.07C61.0058 39.2189 61.0239 39.3543 61.06 39.4761C61.0961 39.5935 61.1502 39.6973 61.2224 39.7875C61.2946 39.8778 61.3759 39.9454 61.4706 39.9861C61.5654 40.0312 61.6737 40.0537 61.791 40.0537C61.8813 40.0537 61.967 40.0402 62.0527 40.0131C62.1385 39.9861 62.2152 39.9409 62.2919 39.8868C62.3686 39.8281 62.4408 39.7604 62.5085 39.6747C62.5717 39.598 62.6258 39.5077 62.68 39.4039L62.6845 39.413ZM63.772 38.2758C63.6998 38.1991 63.6637 38.1178 63.6637 38.0411C63.6637 37.9825 63.6728 37.9328 63.6908 37.8877C63.7089 37.8426 63.7359 37.802 63.772 37.7659C63.8081 37.7298 63.8488 37.7072 63.8984 37.6892C63.948 37.6711 64.0022 37.6621 64.0608 37.6621C64.1015 37.6621 64.1376 37.6621 64.1692 37.6711C64.2053 37.6756 64.2368 37.6892 64.2639 37.7027C64.2955 37.7162 64.3181 37.7343 64.3361 37.7523C64.3542 37.7749 64.3677 37.7975 64.3677 37.829C64.3677 37.8471 64.3632 37.8651 64.3497 37.8922C64.3406 37.9148 64.3271 37.9419 64.309 37.978C64.291 38.005 64.282 38.0321 64.2729 38.0592C64.2639 38.0863 64.2594 38.1088 64.2594 38.1314C64.2594 38.1675 64.2639 38.2036 64.2775 38.2307C64.2865 38.2623 64.3045 38.2893 64.3271 38.3164C64.3722 38.366 64.4264 38.3886 64.4895 38.3886C64.5256 38.3886 64.5617 38.3796 64.5888 38.366C64.6204 38.3525 64.643 38.3299 64.67 38.3029C64.6926 38.2713 64.7107 38.2397 64.7242 38.1991C64.7377 38.1585 64.7422 38.1133 64.7422 38.0637C64.7422 37.9825 64.7287 37.9103 64.6971 37.8471C64.6655 37.7839 64.6204 37.7253 64.5572 37.6756C64.4309 37.5763 64.2594 37.5267 64.0473 37.5267C63.93 37.5267 63.8217 37.5448 63.7269 37.5809C63.6322 37.617 63.5554 37.6666 63.4832 37.7388C63.4155 37.8065 63.3614 37.8877 63.3298 37.9825C63.2937 38.0772 63.2757 38.1855 63.2757 38.3029C63.2757 38.3841 63.2847 38.4608 63.2982 38.5285C63.3118 38.5962 63.3388 38.6548 63.3659 38.7045C63.3975 38.7586 63.4426 38.8083 63.4968 38.8624C63.5554 38.9166 63.6276 38.9662 63.7134 39.0204C63.7134 39.0204 63.7405 39.0384 63.7585 39.0474C63.772 39.0565 63.7946 39.0655 63.8217 39.079C63.93 39.1422 64.0067 39.2054 64.0608 39.2731C64.1195 39.3453 64.1466 39.422 64.1466 39.5032C64.1466 39.5664 64.1376 39.6205 64.1195 39.6702C64.1015 39.7198 64.0699 39.7649 64.0338 39.801C63.9932 39.8371 63.948 39.8642 63.8984 39.8868C63.8488 39.9048 63.7901 39.9139 63.7224 39.9139C63.6818 39.9139 63.6412 39.9139 63.6051 39.9048C63.569 39.8958 63.5329 39.8868 63.5058 39.8732C63.4742 39.8597 63.4471 39.8417 63.4336 39.8236C63.411 39.801 63.402 39.774 63.402 39.7469C63.402 39.7334 63.411 39.7153 63.4291 39.6927C63.4381 39.6747 63.4562 39.6521 63.4787 39.6251C63.4968 39.6025 63.5103 39.5709 63.5239 39.5393C63.5329 39.5077 63.5374 39.4716 63.5374 39.431C63.5374 39.3859 63.5329 39.3453 63.5193 39.3092C63.5058 39.2731 63.4878 39.2415 63.4652 39.2144C63.4426 39.1873 63.4155 39.1648 63.3885 39.1512C63.3614 39.1377 63.3298 39.1332 63.2937 39.1332C63.2576 39.1332 63.226 39.1422 63.1944 39.1557C63.1674 39.1693 63.1403 39.1918 63.1177 39.2234C63.0952 39.255 63.0771 39.2911 63.0681 39.3362C63.0545 39.3814 63.05 39.431 63.05 39.4897C63.05 39.5754 63.0636 39.6521 63.0952 39.7198C63.1267 39.7875 63.1719 39.8507 63.235 39.9003C63.2982 39.9545 63.3704 39.9951 63.4562 40.0222C63.5419 40.0492 63.6367 40.0628 63.7405 40.0628C63.8713 40.0628 63.9887 40.0447 64.0924 40.0086C64.1962 39.9725 64.2865 39.9184 64.3677 39.8417C64.4444 39.7695 64.5076 39.6837 64.5437 39.589C64.5843 39.4942 64.6024 39.3859 64.6024 39.264C64.6024 39.1828 64.5933 39.1061 64.5753 39.0384C64.5572 38.9707 64.5347 38.9076 64.4986 38.8534C64.467 38.7992 64.4173 38.7451 64.3587 38.6909C64.3 38.6368 64.2233 38.5872 64.1376 38.533C64.1376 38.533 64.1195 38.524 64.106 38.515L64.0744 38.4969C63.939 38.4202 63.8397 38.3435 63.772 38.2713V38.2758ZM52.9148 37.6801C53.6954 37.1522 53.181 39.6431 52.6485 39.9229C51.9942 40.2704 52.2334 39.1422 52.3281 38.7857C52.4545 38.3164 52.5763 37.9058 52.9148 37.6801ZM51.8408 41.0014C52.626 41.0962 52.8696 40.5907 52.9328 39.9003C52.2063 40.5501 51.6287 39.9139 51.7731 38.876C51.8769 38.1404 52.468 37.283 53.2487 37.4365C53.3209 37.5538 53.4563 37.7298 53.4518 37.9238C53.6684 37.4455 53.4518 37.4003 54.0519 37.4816C53.9391 38.0817 53.375 40.4012 53.0817 40.7442C52.8426 41.0285 52.0168 41.4526 51.561 41.0285C51.3624 40.8435 51.3038 40.4148 51.6783 40.3832C52.1251 40.3426 51.8724 40.8299 51.8363 41.0059L51.8408 41.0014Z" fill="black"/>
<path fill-rule="evenodd" clip-rule="evenodd" d="M36.0332 55.8433H35.9881C23.7725 55.8433 10.8214 49.0203 10.51 40.7938H17.3691C17.9919 48.745 27.369 54.864 36.0332 54.864V55.8433Z" fill="#B59A28"/>
<path fill-rule="evenodd" clip-rule="evenodd" d="M59.404 46.4616C56.5114 51.5383 48.145 55.8297 36.0332 55.8433V54.864C44.6432 54.864 49.7606 51.5338 52.7705 46.4616H48.1135L56.9943 40.7938L64.413 46.4616H59.404Z" fill="black"/>
</svg>
