<svg width="80" height="80" viewBox="0 0 80 80" fill="none" xmlns="http://www.w3.org/2000/svg">
<path fill-rule="evenodd" clip-rule="evenodd" d="M14.2675 56.5437H16.9734L17.1628 55.6155H13.4824L12.3465 61.2214H16.0268L16.2161 60.2933H13.5102L13.8011 58.8572H16.1238L16.3131 57.929H13.9904L14.2721 56.5391L14.2675 56.5437ZM19.0468 61.2214L18.4604 59.8084L17.366 61.2214H16.3501L18.1371 59.0419L17.2828 56.9962H18.2987L18.8298 58.2799L19.8318 56.9962H20.8385L19.1345 59.0188L20.0535 61.2214H19.0468ZM21.3834 56.9962L20.2705 62.4867H21.1987L21.545 60.7874C21.7297 61.1245 22.0529 61.2907 22.5193 61.2907C22.8149 61.2907 23.0919 61.2168 23.3505 61.0644C23.6091 60.912 23.8354 60.6904 24.0293 60.3949C24.2233 60.0993 24.3572 59.7484 24.4403 59.342L24.5465 58.8156C24.6712 58.2014 24.6296 57.735 24.4218 57.4118C24.214 57.0886 23.8769 56.9223 23.4152 56.9223C22.9534 56.9223 22.5609 57.107 22.1961 57.4765L22.2931 56.9962H21.3834ZM23.1381 60.1224C22.9626 60.3025 22.741 60.3949 22.4778 60.3949C22.2146 60.3949 22.0252 60.3025 21.9052 60.1224C21.7897 59.9423 21.762 59.6976 21.8221 59.3882L21.9329 58.8525C21.9975 58.5293 22.1268 58.2753 22.3115 58.0906C22.4962 57.9105 22.7225 57.8182 22.9857 57.8182C23.5399 57.8182 23.743 58.1691 23.6045 58.8664L23.5168 59.3051C23.4429 59.6699 23.3182 59.9423 23.1427 60.1224H23.1381ZM25.6455 56.9962L24.7866 61.2214H25.7148L26.1904 58.8802C26.2597 58.5293 26.3982 58.2568 26.5968 58.0721C26.7953 57.8874 27.0447 57.7905 27.3356 57.7905C27.5342 57.7905 27.7097 57.8274 27.8667 57.8967L28.0606 56.9362C27.9636 56.9131 27.8436 56.9039 27.7004 56.9039C27.4649 56.9039 27.2433 56.95 27.0262 57.047C26.8092 57.144 26.6199 57.2825 26.449 57.4718L26.546 56.9916H25.6409L25.6455 56.9962ZM28.8133 59.3836V59.402C28.6748 60.0808 28.9241 60.4179 29.5614 60.4179C29.7738 60.4179 29.9585 60.3764 30.1155 60.2886C30.2679 60.2009 30.3741 60.0808 30.4249 59.9238L30.4387 59.9008H31.3438L31.3346 59.9516C31.2284 60.3579 30.9975 60.6858 30.6373 60.9305C30.2817 61.1752 29.8523 61.2999 29.3489 61.2999C28.7764 61.2999 28.3608 61.1291 28.1068 60.7874C27.8482 60.4457 27.7882 59.9469 27.9221 59.2912L27.996 58.9264C28.1253 58.2799 28.3885 57.7858 28.7764 57.4441C29.1642 57.1024 29.6399 56.9269 30.194 56.9269C30.7481 56.9269 31.1545 57.0978 31.4038 57.4395C31.6532 57.7812 31.7132 58.2661 31.5839 58.9033L31.487 59.3928H28.8225L28.8133 59.3836ZM28.9518 58.6909H30.6927L30.7066 58.6355C30.762 58.3538 30.7296 58.1414 30.6004 57.9983C30.4711 57.8551 30.2771 57.7812 30.0139 57.7812C29.4644 57.7812 29.1134 58.086 28.9564 58.6909H28.9518ZM32.2212 60.912C32.4659 61.1475 32.8538 61.2676 33.3802 61.2676C33.9066 61.2676 34.3684 61.1522 34.724 60.9167C35.0842 60.6858 35.3058 60.3487 35.3935 59.91C35.4628 59.559 35.412 59.282 35.2412 59.0788C35.0703 58.8756 34.7655 58.7463 34.3269 58.6909L33.7219 58.6078C33.528 58.5847 33.3941 58.5385 33.3248 58.4693C33.2555 58.4 33.2325 58.303 33.2555 58.183C33.2833 58.0352 33.371 57.9244 33.5049 57.8459C33.6434 57.7674 33.8374 57.7304 34.0914 57.7304C34.3592 57.7304 34.5531 57.772 34.6686 57.8597C34.784 57.9475 34.8256 58.0721 34.7932 58.2338V58.2569H35.6475V58.2245C35.7353 57.8228 35.6521 57.5088 35.4028 57.2825C35.1534 57.0562 34.7702 56.9408 34.253 56.9408C33.7358 56.9408 33.3294 57.0562 32.997 57.2825C32.6645 57.5088 32.4521 57.832 32.3689 58.2476C32.2951 58.6032 32.3459 58.8802 32.5121 59.0742C32.6783 59.2681 32.9785 59.3928 33.4033 59.4528L33.9621 59.5267C34.1745 59.5544 34.3222 59.6006 34.4054 59.6745C34.4885 59.7438 34.5162 59.8453 34.4885 59.9746C34.4562 60.1316 34.3638 60.2517 34.2114 60.3302C34.059 60.4133 33.8512 60.4503 33.5834 60.4503C33.3017 60.4503 33.0939 60.3995 32.9692 60.3025C32.8446 60.2055 32.7984 60.0716 32.8353 59.9054V59.8869H31.9718V59.91C31.8795 60.3394 31.958 60.6673 32.2073 60.9074L32.2212 60.912ZM36.1509 60.912C36.3956 61.1475 36.7835 61.2676 37.3099 61.2676C37.8363 61.2676 38.2981 61.1522 38.6537 60.9167C39.0138 60.6858 39.2355 60.3487 39.3232 59.91C39.3925 59.559 39.3417 59.282 39.1708 59.0788C39 58.8756 38.6952 58.7463 38.2565 58.6909L37.6516 58.6078C37.4577 58.5847 37.3238 58.5385 37.2545 58.4693C37.1852 58.4 37.1621 58.303 37.1852 58.183C37.2129 58.0352 37.3007 57.9244 37.4346 57.8459C37.5731 57.7674 37.7671 57.7304 38.021 57.7304C38.2889 57.7304 38.4828 57.772 38.5983 57.8597C38.7137 57.9475 38.7553 58.0721 38.7229 58.2338V58.2569H39.5772V58.2245C39.6649 57.8228 39.5818 57.5088 39.3325 57.2825C39.0831 57.0562 38.6998 56.9408 38.1827 56.9408C37.6655 56.9408 37.2591 57.0562 36.9266 57.2825C36.5942 57.5088 36.3817 57.832 36.2986 58.2476C36.2247 58.6032 36.2755 58.8802 36.4418 59.0742C36.608 59.2681 36.9082 59.3928 37.333 59.4528L37.8917 59.5267C38.1042 59.5544 38.2519 59.6006 38.335 59.6745C38.4182 59.7438 38.4459 59.8453 38.4182 59.9746C38.3858 60.1316 38.2935 60.2517 38.1411 60.3302C37.9887 60.4133 37.7809 60.4503 37.5131 60.4503C37.2314 60.4503 37.0236 60.3995 36.8989 60.3025C36.7743 60.2055 36.7281 60.0716 36.765 59.9054V59.8869H35.9015V59.91C35.8091 60.3394 35.8876 60.6673 36.137 60.9074L36.1509 60.912ZM42.1077 60.6904C42.4125 61.1014 42.9066 61.3092 43.5992 61.3092C44.2365 61.3092 44.7768 61.1383 45.2201 60.7966C45.6634 60.4549 45.9451 59.9746 46.0743 59.3605L46.0836 59.3189H45.1139L45.1046 59.3605C45.04 59.6699 44.8968 59.91 44.6706 60.0855C44.4443 60.2609 44.158 60.3487 43.8163 60.3487C43.4099 60.3487 43.1282 60.224 42.9712 59.9746C42.8189 59.7253 42.7911 59.342 42.8974 58.8294L43.059 58.026C43.1698 57.4903 43.3499 57.0932 43.6039 56.83C43.8578 56.5714 44.1903 56.4421 44.5967 56.4421C44.9384 56.4421 45.1924 56.5344 45.3494 56.7145C45.5064 56.8946 45.5525 57.144 45.4879 57.458V57.4903H46.4576L46.4715 57.4257C46.5915 56.8254 46.4992 56.3543 46.1944 56.0173C45.885 55.6802 45.4186 55.5093 44.786 55.5093C44.0933 55.5093 43.5115 55.7171 43.0405 56.1281C42.5695 56.5391 42.2509 57.1532 42.0846 57.9706L41.9045 58.8479C41.7383 59.6653 41.8076 60.2794 42.1077 60.6904ZM46.9379 60.7966C47.1826 61.1291 47.5843 61.2907 48.1385 61.2907C48.6926 61.2907 49.1498 61.1245 49.5284 60.7966C49.9071 60.4641 50.161 59.9839 50.2903 59.3512L50.3919 58.8479C50.5166 58.2245 50.4612 57.7489 50.2164 57.4164C49.9717 57.0839 49.5746 56.9223 49.0297 56.9223C48.4848 56.9223 48.0092 57.0839 47.6305 57.4118C47.2519 57.7397 46.9979 58.2153 46.8686 58.8479L46.767 59.3512C46.6377 59.9839 46.6977 60.4687 46.9425 60.7966H46.9379ZM49.3668 59.342C49.2236 60.0393 48.8773 60.3902 48.3186 60.3902C47.7598 60.3902 47.5382 60.0393 47.6813 59.342L47.7783 58.8618C47.9214 58.1645 48.2724 57.8135 48.8404 57.8135C49.1082 57.8135 49.2975 57.8967 49.4083 58.0675C49.5192 58.2384 49.5376 58.5016 49.4638 58.8618L49.3668 59.342ZM51.1631 60.8243C51.3893 61.1337 51.7911 61.2907 52.3637 61.2907C52.9363 61.2907 53.3981 61.1383 53.7536 60.8289C54.1092 60.5195 54.3447 60.0578 54.4694 59.4482L54.9681 56.9962H54.0399L53.5504 59.402C53.4812 59.7345 53.3703 59.9793 53.2133 60.1455C53.0563 60.3117 52.8301 60.3949 52.5438 60.3949C52.2575 60.3949 52.0728 60.3117 51.9804 60.1409C51.8881 59.9746 51.8742 59.7253 51.9389 59.402L52.4283 56.9962H51.5002L51.0015 59.4482C50.8768 60.0531 50.9322 60.5149 51.1585 60.8243H51.1631ZM55.7762 56.9916H56.6813L56.5843 57.4718C56.7505 57.2825 56.9445 57.1394 57.1615 57.047C57.3785 56.95 57.6002 56.9039 57.8357 56.9039C57.9788 56.9039 58.0989 56.9131 58.1959 56.9362L58.0019 57.8967C57.8449 57.8274 57.6695 57.7905 57.4709 57.7905C57.1754 57.7905 56.9306 57.8828 56.7321 58.0721C56.5335 58.2568 56.395 58.5293 56.3257 58.8802L55.8501 61.2214H54.9219L55.7808 56.9962L55.7762 56.9916ZM59.0409 55.5878L58.8793 56.3913H59.7982L59.9598 55.5878H59.0409ZM58.7546 56.9916L57.8957 61.2168H58.8147L59.6735 56.9916H58.7546ZM60.8926 59.379H63.5571L63.654 58.8895C63.7833 58.2568 63.7233 57.7674 63.4739 57.4257C63.2246 57.0839 62.8228 56.9131 62.2641 56.9131C61.7053 56.9131 61.2343 57.0839 60.8464 57.4303C60.4586 57.772 60.2 58.2707 60.0661 58.9126L59.9922 59.2774C59.8583 59.9331 59.9229 60.4318 60.1769 60.7735C60.4355 61.1152 60.8465 61.2861 61.419 61.2861C61.9224 61.2861 62.3518 61.1614 62.7074 60.9167C63.063 60.6719 63.2938 60.3441 63.4047 59.9377L63.4139 59.8869H62.5088L62.495 59.91C62.4442 60.067 62.338 60.1871 62.1856 60.2748C62.0332 60.3625 61.8485 60.4041 61.6315 60.4041C60.9942 60.4041 60.7449 60.067 60.8834 59.3882V59.3697L60.8926 59.379ZM61.0312 58.6863C61.1882 58.0814 61.5437 57.7766 62.0886 57.7766C62.3518 57.7766 62.5504 57.8505 62.6751 57.9936C62.8044 58.1368 62.8367 58.3492 62.7813 58.6309L62.772 58.6863H61.0312ZM64.7808 56.987L63.9219 61.2122H64.85L65.3256 58.871C65.3949 58.5201 65.5334 58.2476 65.732 58.0629C65.9306 57.8782 66.1799 57.7812 66.4708 57.7812C66.6694 57.7812 66.8449 57.8182 67.0019 57.8874L67.1958 56.9269C67.0989 56.9039 66.9788 56.8946 66.8356 56.8946C66.6001 56.8946 66.3785 56.9408 66.1615 57.0378C65.9444 57.1347 65.7551 57.2733 65.5842 57.4626L65.6812 56.9824H64.7761L64.7808 56.987Z" fill="#902682"/>
<path fill-rule="evenodd" clip-rule="evenodd" d="M62.652 29.0913C38.626 25.7342 21.0186 35.8978 10.3701 51.2425C15.5096 38.3175 29.8939 24.4551 46.5223 20.8071C46.5223 19.7958 46.5131 18.7891 46.5084 17.7778C51.8881 21.5505 57.2677 25.3232 62.652 29.0913Z" fill="#902682"/>
<path fill-rule="evenodd" clip-rule="evenodd" d="M43.7193 41.042C44.0195 40.5617 43.7655 40.9311 43.9871 40.7141L44.7352 46.5786H40.8332L43.7193 41.042ZM31.5008 54.7936L36.4556 54.8213L38.7183 50.6191L45.1877 50.6468L45.7373 54.7889L50.3273 54.8259L48.7434 43.651L47.0718 32.7624L43.5715 32.7716L31.5054 54.7982L31.5008 54.7936ZM59.3087 37.5186C59.4842 36.7752 59.2857 37.2046 59.6458 36.9876C60.6156 36.9876 63.1923 36.8722 63.968 37.14C65.0994 37.5325 65.2518 38.9409 64.8315 40.1369C63.9265 42.7321 61.3729 42.3811 58.4037 42.3857L59.3087 37.5186ZM51.2277 54.7982L55.8685 54.752L56.261 52.7294C56.672 50.7253 57.0553 48.6935 57.494 46.6387C58.7685 46.6525 62.7028 47.3683 66.1291 45.3134C70.5483 42.6628 71.2687 34.5772 65.4549 33.0256C63.7741 32.5777 57.7203 32.6839 55.6792 32.7809L51.2323 54.7936L51.2277 54.7982ZM19.8041 40.9496C19.2823 36.1795 22.6902 33.1041 27.1186 32.6608C28.056 32.5684 28.744 32.5777 29.6768 32.6931C31.7363 32.9425 33.8836 34.1015 34.9364 35.9209L31.6809 38.6915C30.882 37.9897 30.9144 37.5233 29.7137 37.0569C28.0237 36.4012 25.5532 36.7336 24.6204 38.5484C22.9442 41.8131 27.9821 41.3237 30.4387 42.6997C31.8887 43.5125 32.997 44.75 33.177 46.9896C33.7358 53.9993 26.0103 56.2528 20.6676 54.4103C19.2084 53.9069 17.2782 52.3092 16.7379 51.2841C17.232 50.8177 19.6517 48.6243 20.2151 48.3564C20.9539 50.0419 23.2351 50.9562 25.3223 50.7392C28.31 50.4252 29.1735 48.1394 28.4069 46.948C27.1879 45.0594 21.014 46.5786 19.8041 40.945V40.9496Z" fill="#EC7023"/>
</svg>
