<svg width="80" height="80" viewBox="0 0 80 80" fill="none" xmlns="http://www.w3.org/2000/svg">
<path fill-rule="evenodd" clip-rule="evenodd" d="M31.4985 48.8027C38.54 48.8027 44.2822 48.2579 44.2822 47.591C44.2822 46.924 38.54 46.3793 31.4985 46.3793C24.457 46.3793 18.7148 46.924 18.7148 47.591C18.7148 48.2579 24.457 48.8027 31.4985 48.8027Z" fill="#CAC9C9"/>
<path fill-rule="evenodd" clip-rule="evenodd" d="M30.797 10.4795L54.9986 20.7521C55.6948 21.0471 56.0229 21.8589 55.7267 22.555L45.454 46.7566C45.1591 47.4528 44.3473 47.781 43.6511 47.4847L19.4496 37.2134C18.7534 36.9184 18.4252 36.1067 18.7215 35.4105L28.9941 11.2076C29.2891 10.5114 30.1008 10.1832 30.797 10.4795Z" fill="#921D26"/>
<path fill-rule="evenodd" clip-rule="evenodd" d="M54.3954 22.0449C54.4472 22.1724 54.4499 22.3186 54.3928 22.4541L44.4549 45.8665C44.3393 46.1375 44.0245 46.265 43.7521 46.1508L20.3397 36.2129C20.2042 36.1558 20.1045 36.0482 20.0527 35.9206L54.3954 22.0449Z" fill="#70161E"/>
<path fill-rule="evenodd" clip-rule="evenodd" d="M30.817 12.6092L53.4535 22.2176C53.5903 22.276 53.6554 22.4368 53.5969 22.5736L43.9886 45.2102C43.9301 45.347 43.7694 45.4121 43.6325 45.3536L20.996 35.7466C20.8579 35.6882 20.7941 35.5274 20.8525 35.3905L30.4609 12.754C30.5194 12.6172 30.6801 12.5521 30.817 12.6106V12.6092Z" fill="#D5232B"/>
<path fill-rule="evenodd" clip-rule="evenodd" d="M53.5996 22.3664C53.6262 22.4315 53.6275 22.5059 53.5983 22.5736L43.9899 45.2102C43.9315 45.347 43.7707 45.4121 43.6339 45.3536L20.996 35.7466C20.9269 35.7174 20.8765 35.6629 20.8512 35.5978L53.5996 22.3664Z" fill="#A11F24"/>
<path fill-rule="evenodd" clip-rule="evenodd" d="M49.4411 23.0426L35.3939 30.124L33.9989 23.8478L49.4411 23.0426Z" fill="white"/>
<path fill-rule="evenodd" clip-rule="evenodd" d="M25.3564 35.1833L39.4049 28.1019L40.7999 34.3782L25.3564 35.1833Z" fill="#E6E6E6"/>
<path fill-rule="evenodd" clip-rule="evenodd" d="M35.3939 30.124L39.4049 28.1019L39.6999 29.4305L35.3939 30.124Z" fill="#B3B3B3"/>
<path fill-rule="evenodd" clip-rule="evenodd" d="M16.2928 53.6719V56.2627H15.695C15.695 56.2627 14.6733 56.1139 14.6733 56.5616C14.6733 57.0094 15.1223 57.1595 15.7441 57.6577C16.3672 58.1559 17.3384 59.3025 17.3384 60.6218C17.3384 61.9411 16.4669 63.6364 13.726 63.6364C10.9851 63.6364 11.2096 63.3374 11.2096 63.3374V60.4225C11.2096 60.4225 12.1317 60.7214 12.978 60.7214C13.8243 60.7214 13.9744 60.4477 13.9744 60.174C13.9744 59.9004 11.1113 58.1573 11.1113 56.4141C11.1113 55.7233 11.2854 53.3491 14.3996 53.3491C15.6219 53.373 16.2928 53.6733 16.2928 53.6733V53.6719Z" fill="#D5232B"/>
<path d="M21.4996 53.3478H18.3389V63.6364H21.4996V53.3478Z" fill="#D5232B"/>
<path fill-rule="evenodd" clip-rule="evenodd" d="M35.3501 61.0204H38.3115V63.6364H32.3887V53.3478H38.3115V55.9638H35.3501V57.1847H37.9409V59.8007H35.3501V61.0204Z" fill="#D5232B"/>
<path fill-rule="evenodd" clip-rule="evenodd" d="M39.6627 53.3478H43.5701C45.7556 53.3478 47.5439 55.136 47.5439 57.3216C47.5439 59.5071 45.9443 61.2954 43.7587 61.2954H42.8247V63.6377H39.664V53.3491L39.6627 53.3478ZM42.8234 56.0873V58.5532H42.9988C43.6777 58.5532 44.2317 57.9978 44.2317 57.3202C44.2317 56.6413 43.6764 56.0873 42.9988 56.0873H42.8234Z" fill="#D5232B"/>
<path fill-rule="evenodd" clip-rule="evenodd" d="M28.1013 53.3358C29.4631 53.3358 30.7014 53.8646 31.6208 54.7282L29.8125 57.0306C29.4007 56.5457 28.7869 56.2374 28.1013 56.2374C26.8631 56.2374 25.86 57.2405 25.86 58.4788C25.86 59.717 26.8631 60.7201 28.1013 60.7201C28.7869 60.7201 29.4007 60.4119 29.8125 59.9269L31.6208 62.2294C30.7 63.093 29.4631 63.6217 28.1013 63.6217C25.2608 63.6217 22.957 61.3193 22.957 58.4774C22.957 55.6356 25.2595 53.3331 28.1013 53.3331V53.3358Z" fill="#D5232B"/>
<path fill-rule="evenodd" clip-rule="evenodd" d="M51.7861 53.3478L57.1855 63.6364H46.388L51.7861 53.3478Z" fill="#D5232B"/>
<path fill-rule="evenodd" clip-rule="evenodd" d="M50.4854 63.6364H48.4128L51.8684 58.3645L54.3834 61.1054L50.4854 63.6364Z" fill="#E6E6E6"/>
<path fill-rule="evenodd" clip-rule="evenodd" d="M50.4442 60.5381L51.8684 58.3645L52.4012 58.9451L50.4442 60.5381Z" fill="#B3B3B3"/>
<path fill-rule="evenodd" clip-rule="evenodd" d="M52.5474 54.7986L53.2847 56.2042L50.4442 60.5381L48.8977 58.8534L50.2396 56.2972L52.5474 54.7986Z" fill="white"/>
<path fill-rule="evenodd" clip-rule="evenodd" d="M63.3382 53.3478V56.0634H61.4569V63.6364H58.2962V56.0634H56.4149V53.3478H63.3382Z" fill="#D5232B"/>
<path fill-rule="evenodd" clip-rule="evenodd" d="M39.8593 66.0012L39.9337 65.4937H37.0507L36.9736 66.0012H39.8593ZM36.7837 67.2568L36.4329 69.5791H39.4036L39.478 69.0716H37.0906L37.2885 67.7523H39.3425L39.4169 67.2568H36.7823H36.7837ZM43.1742 67.391L45.2826 65.4937H44.524L42.0196 67.7523L42.3584 65.4937H41.7752L41.1574 69.5791H41.7406L41.8987 68.5163L42.7596 67.7457L44.0922 69.5778H44.7459L43.1635 67.4003L43.1742 67.3883V67.391ZM47.3419 69.627C48.357 69.627 49.0465 69.1487 49.008 68.3542C48.9469 67.1106 46.8716 67.5198 46.8304 66.6616C46.8092 66.2298 47.221 65.9441 47.8933 65.9441C48.3078 65.9441 48.7038 66.0544 49.0186 66.271L49.2285 65.7927C48.8844 65.5708 48.4008 65.4486 47.8986 65.4486C46.9009 65.4486 46.2233 65.9335 46.2618 66.7147C46.3256 68.022 48.3995 67.5849 48.4407 68.4365C48.4619 68.8803 48.0315 69.1314 47.3712 69.1314C46.8637 69.1314 46.3468 68.9507 46.024 68.6651L45.7902 69.1314C46.101 69.4117 46.7188 69.627 47.3433 69.627H47.3419ZM52.6536 65.4951H51.1364L50.5186 69.5805H51.1019L51.2865 68.3436H52.3773C53.5558 68.3436 54.2626 67.7364 54.2108 66.6921C54.1735 65.9335 53.6036 65.4951 52.6523 65.4951H52.6536ZM52.3653 67.836H51.3676L51.6466 66.0039H52.6271C53.2462 66.0039 53.6076 66.255 53.6315 66.7453C53.666 67.4627 53.1997 67.8374 52.3653 67.8374V67.836ZM59.1943 66.6921C59.1571 65.9335 58.5871 65.4951 57.6305 65.4951H56.1067L55.4889 69.5805H56.0787L56.2634 68.3316H57.4658L58.239 69.5805H58.8582L58.0464 68.2492C58.8077 68.0513 59.2355 67.5026 59.1956 66.6908L59.1943 66.6921ZM57.3475 67.836H56.3378L56.6168 66.0039H57.6026C58.2271 66.0039 58.5898 66.255 58.6137 66.7453C58.6482 67.4627 58.1819 67.8374 57.3475 67.8374V67.836ZM63.9732 66.0039L64.0476 65.4964H61.1646L61.0875 66.0039H63.9732ZM60.8975 67.2594L60.5468 69.5818H63.5175L63.5919 69.0743H61.2044L61.4024 67.755H63.4564L63.5308 67.2594H60.8962H60.8975ZM66.5334 69.6296C67.5485 69.6296 68.238 69.1513 68.1995 68.3568C68.1383 67.1133 66.0631 67.5225 66.0219 66.6642C66.0006 66.2324 66.4125 65.9468 67.0848 65.9468C67.4993 65.9468 67.8952 66.057 68.2101 66.2736L68.42 65.7953C68.0759 65.5734 67.5923 65.4512 67.0901 65.4512C66.0923 65.4512 65.4147 65.9361 65.4533 66.7174C65.517 68.0247 67.591 67.5876 67.6322 68.4392C67.6534 68.883 67.2229 69.1341 66.5626 69.1341C66.0551 69.1341 65.5383 68.9534 65.2155 68.6677L64.9816 69.1341C65.2925 69.4144 65.9103 69.6296 66.5347 69.6296H66.5334Z" fill="#999999"/>
</svg>
