<svg width="80" height="80" viewBox="0 0 80 80" fill="none" xmlns="http://www.w3.org/2000/svg">
<path d="M24.1549 27.5463H24.9535C26.9211 27.6504 28.8655 28.2291 30.3817 29.5254C30.4049 29.5486 30.4165 29.5833 30.3933 29.6065L28.0322 32.6157C28.0091 32.6389 27.9859 32.6504 27.9512 32.6273C26.3887 31.6551 23.5993 30.8564 21.979 31.8634C20.8447 32.5694 21.6549 33.7847 22.5345 34.1898C25.5206 35.5555 30.0692 36.8981 29.479 41.25C29.2243 43.1597 28.1132 44.6643 26.4581 45.625C24.6757 46.6551 22.4072 46.8171 20.4165 46.5625C18.3794 46.3078 16.6086 45.4282 15.1271 43.9352C15.0924 43.9004 15.0924 43.8657 15.1271 43.831L17.4651 40.8564C17.4998 40.8217 17.5577 40.8102 17.5924 40.8449C18.2984 41.4583 19.1086 42.0139 19.9766 42.3264C21.3887 42.8356 23.9697 43.0324 25.0577 41.7245C25.891 40.7291 24.5831 39.7338 23.8077 39.375C21.2498 38.206 17.5808 37.2569 17.2567 33.912C17.1641 32.9282 17.3725 31.956 17.9049 30.9606C19.0623 28.7847 21.6549 27.6389 24.1549 27.5463Z" fill="#EE4D2D"/>
<path d="M34.2822 27.5463H41.1341C44.3633 27.6852 47.8702 29.2245 47.6735 33.0787C47.442 37.5578 43.7035 40.1736 39.4906 40.2662C38.4952 40.2893 37.5114 40.2893 36.5392 40.2662C36.5045 40.2662 36.4697 40.2893 36.4697 40.324L35.5322 46.6088C35.5322 46.6435 35.5091 46.6666 35.4628 46.6666L31.354 46.6319C31.3193 46.6319 31.3077 46.6088 31.3077 46.574L34.2822 27.5463ZM42.4998 34.7569C43.1943 33.6111 43.2869 31.7824 41.6202 31.3657C40.4049 31.0648 39.1897 31.0879 37.9744 31.1458C37.9281 31.1458 37.9049 31.1689 37.8934 31.2152L37.1642 36.4004C37.1526 36.4467 37.1758 36.4699 37.2336 36.4815C39.0276 36.5393 41.4235 36.5393 42.4998 34.7569Z" fill="#EE4D2D"/>
<path d="M48.6224 27.5463H53.8423L58.009 36.2963C58.0206 36.331 58.0206 36.3657 57.9974 36.4004L46.4002 51.1921C46.3771 51.2268 46.3423 51.2384 46.296 51.2384H41.6433C41.5738 51.2384 41.5622 51.2152 41.597 51.1574C45.3238 46.4236 49.0622 41.6782 52.8122 36.9328C53.0669 36.6203 53.1016 36.6551 52.9048 36.2615C51.4812 33.3796 50.0576 30.4745 48.6224 27.5463Z" fill="#EE4D2D"/>
<path d="M60.2081 27.5463H65.1155L58.715 35.5092C58.6919 35.5324 58.6572 35.5439 58.634 35.5208C58.6225 35.5208 58.6224 35.5092 58.6224 35.4977L56.8979 31.8865C56.8748 31.8287 56.8748 31.7824 56.9095 31.7361L60.2081 27.5463Z" fill="#EE4D2D"/>
<path d="M58.4257 37.3032C58.4257 37.2916 58.4373 37.2916 58.4257 37.3032C58.4604 37.3148 58.4836 37.3495 58.4952 37.3727C59.9651 40.4514 61.435 43.5185 62.9049 46.574C62.9165 46.5972 62.9049 46.6203 62.8817 46.6319C62.8702 46.6319 62.8702 46.6319 62.8586 46.6319H58.0785C58.0322 46.6319 58.0091 46.6088 57.9859 46.574L55.3702 41.25C55.3586 41.2152 55.3586 41.1805 55.3817 41.1574L58.4257 37.3032Z" fill="#EE4D2D"/>
<path d="M13.0091 47.9745H17.2221C17.2452 47.9745 17.2568 47.9977 17.2568 48.0092C17.2568 48.0208 17.2568 48.0208 17.2452 48.0324L14.7452 51.2268C14.7336 51.2384 14.7221 51.2384 14.7105 51.2384H10.4512C10.4281 51.2384 10.4165 51.2268 10.4165 51.2037C10.4165 51.1921 10.4165 51.1805 10.4281 51.1805L12.9859 47.9861C12.9859 47.9861 12.9975 47.9745 13.0091 47.9745Z" fill="#EE4D2D"/>
<path d="M25.2544 48.0208L22.7544 51.2268C22.7428 51.2384 22.7312 51.2384 22.7197 51.2384H15.9141C15.891 51.2384 15.8794 51.2152 15.8794 51.2037C15.8794 51.1921 15.8794 51.1921 15.891 51.1805L18.391 47.9861C18.4025 47.9745 18.4141 47.9745 18.4257 47.9745L25.2312 47.9629C25.2544 47.9629 25.266 47.9861 25.266 47.9977C25.266 48.0092 25.266 48.0208 25.2544 48.0208Z" fill="#EE4D2D"/>
<path d="M40.3123 51.25H23.9234C23.9003 51.25 23.8771 51.2384 23.8771 51.2152C23.8771 51.2037 23.8771 51.1921 23.8887 51.1921L26.3771 48.0092C26.3887 47.9977 26.4003 47.9977 26.4118 47.9977H42.8123C42.8354 47.9977 42.8586 48.0092 42.8586 48.0324C42.8586 48.0439 42.8586 48.0555 42.847 48.0555L40.347 51.2268C40.3354 51.2384 40.3239 51.25 40.3123 51.25Z" fill="#EE4D2D"/>
<path d="M50.7752 48.7152L50.7058 49.2939C50.7058 49.3171 50.7173 49.3518 50.7521 49.3518C50.7521 49.3518 50.7521 49.3518 50.7636 49.3518L52.1178 49.3171C52.141 49.3171 52.1641 49.3402 52.1641 49.3634C52.1641 49.3634 52.1641 49.3634 52.1641 49.375L52.0831 49.9652C52.0831 49.9884 52.0599 50.0115 52.0368 50.0115H50.6247C50.6016 50.0115 50.5785 50.0347 50.5785 50.0578L50.5206 50.5092C50.5206 50.5324 50.5322 50.5555 50.5669 50.5671H51.9673C51.9905 50.5671 52.0136 50.5902 52.0136 50.6134C52.0136 50.6134 52.0136 50.6134 52.0136 50.625L51.9095 51.2152C51.9095 51.2384 51.8863 51.2615 51.8632 51.2615H49.722C49.6988 51.2615 49.6757 51.2384 49.6757 51.2152C49.6757 51.2152 49.6757 51.2152 49.6757 51.2037L50.1734 48.0324C50.1734 48.0092 50.1965 47.9861 50.2197 47.9861L52.3724 47.9745C52.3956 47.9745 52.4187 47.9977 52.4187 48.0208V48.0324L52.3146 48.6342C52.3146 48.6574 52.2914 48.6805 52.2683 48.6805H50.8331C50.7984 48.6689 50.7868 48.6921 50.7752 48.7152Z" fill="#EE4D2D"/>
<path d="M53.8887 50.3356L53.1595 51.2384C53.1479 51.25 53.1364 51.25 53.1248 51.25H52.3146C52.2915 51.25 52.2683 51.2268 52.2683 51.2037C52.2683 51.1921 52.2683 51.1805 52.2799 51.1805L53.5646 49.6064C53.5762 49.5949 53.5762 49.5717 53.5646 49.5602L52.8007 48.0324C52.7891 48.0092 52.8007 47.9861 52.8239 47.9745C52.8354 47.9745 52.8354 47.9745 52.847 47.9745L53.6919 47.9977C53.7151 47.9977 53.7266 48.0092 53.7382 48.0208L54.1202 48.8194C54.1317 48.8426 54.1549 48.8541 54.178 48.8426C54.1896 48.8426 54.1896 48.831 54.1896 48.831L54.8609 48.0208C54.8725 48.0092 54.8841 48.0092 54.8956 48.0092L55.729 47.9629C55.7521 47.9629 55.7753 47.9861 55.7753 48.0092C55.7753 48.0208 55.7753 48.0324 55.7637 48.0439L54.5137 49.5833C54.5021 49.5949 54.5021 49.618 54.5137 49.6296L55.3239 51.2037C55.3354 51.2268 55.3239 51.25 55.3007 51.2615C55.2891 51.2615 55.2891 51.2615 55.2776 51.2615H54.4327C54.4095 51.2615 54.3979 51.25 54.3864 51.2384L53.9466 50.3588C53.935 50.3356 53.9118 50.324 53.8887 50.3356C53.9003 50.324 53.9003 50.324 53.8887 50.3356Z" fill="#EE4D2D"/>
<path d="M62.4882 50.5555H63.9002C63.9234 50.5555 63.9465 50.5787 63.9465 50.6018C63.9465 50.6018 63.9465 50.6018 63.9465 50.6134L63.8539 51.2152C63.8539 51.2384 63.8308 51.25 63.8076 51.25H61.6433C61.6201 51.25 61.597 51.2268 61.597 51.2037C61.597 51.2037 61.597 51.2037 61.597 51.1921L62.0831 48.0208C62.0831 47.9977 62.1062 47.9861 62.1294 47.9861L64.2937 47.9629C64.3169 47.9629 64.34 47.9861 64.34 48.0092V48.0208L64.2359 48.6458C64.2359 48.669 64.2127 48.6805 64.1896 48.6805H62.7544C62.7312 48.6805 62.7197 48.6921 62.7081 48.7152L62.6155 49.294C62.6155 49.3171 62.6271 49.3402 62.6502 49.3402C62.6502 49.3402 62.6502 49.3402 62.6618 49.3402L64.0391 49.3171C64.0622 49.3171 64.0854 49.3402 64.0854 49.3634L64.016 49.9652C64.016 49.9884 63.9928 50 63.9697 50H62.5692C62.546 50 62.5345 50.0115 62.5229 50.0347L62.4419 50.4977C62.4419 50.5208 62.4535 50.544 62.4882 50.5555C62.4882 50.544 62.4882 50.544 62.4882 50.5555Z" fill="#EE4D2D"/>
<path d="M56.5854 50.4398L56.4812 51.169C56.4812 51.2037 56.4465 51.2384 56.4002 51.2384H55.7868C55.7521 51.2384 55.7289 51.2152 55.7405 51.1805L56.2382 48.0324C56.2498 47.9861 56.2729 47.9745 56.3076 47.9745C57.2451 47.9629 58.6456 47.6967 58.5877 49.0046C58.5414 50.1967 57.6386 50.3588 56.6548 50.3703C56.6201 50.3819 56.5854 50.4051 56.5854 50.4398ZM56.8516 48.75L56.7243 49.5949C56.7127 49.6296 56.7359 49.6527 56.7706 49.6527C57.3261 49.6643 58.0785 49.6875 57.8354 48.8426C57.8123 48.7731 57.7544 48.7152 57.6734 48.7152L56.9673 48.6574C56.8979 48.6458 56.8632 48.6805 56.8516 48.75Z" fill="#EE4D2D"/>
<path d="M59.1549 47.9977C59.1549 47.9861 59.1665 47.9745 59.178 47.9745C59.8841 47.9629 61.3308 47.7199 61.4813 48.7037C61.5854 49.375 61.3424 49.8842 60.7405 50.243C60.7058 50.2662 60.7058 50.2893 60.7174 50.3125L61.2035 51.1805C61.2266 51.2152 61.2151 51.2384 61.1688 51.2384H60.4743C60.428 51.2384 60.4049 51.2152 60.3817 51.1805L59.9766 50.4514C59.9072 50.324 59.7336 50.2662 59.6063 50.3472C59.5368 50.3935 59.479 50.4629 59.4674 50.5439L59.3748 51.169C59.3632 51.2153 59.3401 51.2384 59.2938 51.2384H58.7151C58.6572 51.2384 58.6341 51.2152 58.6456 51.1574L59.1549 47.9977ZM59.7567 48.7268L59.6179 49.618C59.6179 49.6527 59.6294 49.6759 59.6757 49.6643C60.1155 49.6412 60.972 49.699 60.7753 48.9467C60.6827 48.6111 60.0924 48.6458 59.8262 48.6689C59.7915 48.6805 59.7683 48.6921 59.7567 48.7268Z" fill="#EE4D2D"/>
<path d="M64.4558 50.5439L64.6526 50.3009C64.6757 50.2777 64.6989 50.2662 64.722 50.2893C65.0461 50.4745 65.3933 50.6597 65.7637 50.4977C65.9952 50.3935 66.0067 50.1389 65.7637 50.0347C65.1503 49.7453 64.2938 49.4328 64.7915 48.5532C65.2081 47.824 66.2729 47.8472 66.8632 48.2754C66.8979 48.2986 66.9095 48.3333 66.8748 48.368L66.5276 48.7847C66.5044 48.8194 66.4697 48.8194 66.435 48.8078C66.1109 48.6689 65.7405 48.4838 65.4396 48.7731C65.3702 48.8426 65.3702 48.9583 65.428 49.0277C65.4396 49.0393 65.4628 49.0509 65.4743 49.0625C66.0762 49.3634 67.1063 49.7106 66.5739 50.6481C66.1109 51.4583 64.8956 51.412 64.2822 50.8102C64.259 50.787 64.2475 50.7523 64.2706 50.7291C64.2938 50.6713 64.3285 50.625 64.3864 50.6018C64.4327 50.5671 64.4442 50.5555 64.4558 50.5439Z" fill="#EE4D2D"/>
<path d="M67.5345 48.4838C67.9512 47.8125 68.9929 47.8588 69.5716 48.2639C69.6063 48.287 69.6179 48.3217 69.5832 48.3564L69.2128 48.7963C69.1781 48.831 69.1433 48.831 69.1086 48.8078C68.854 48.6342 68.5878 48.5764 68.2869 48.6342C68.1595 48.6574 68.067 48.7847 68.0901 48.9236C68.0901 48.9352 68.0901 48.9351 68.1017 48.9467C68.1133 49.0046 68.1827 49.0509 68.2753 49.0972C68.5762 49.2361 68.8308 49.375 69.0508 49.5139C70.3008 50.3703 68.2869 52.0254 66.9906 50.8102C66.9559 50.7754 66.9559 50.7291 66.979 50.6944L67.3262 50.2893C67.3609 50.2546 67.3957 50.243 67.4304 50.2777C67.685 50.4745 68.391 50.7291 68.5878 50.324C68.6457 50.2083 68.5994 50.0694 68.4836 50.0231C68.4836 50.0231 68.472 50.0231 68.472 50.0115C67.8355 49.7338 66.9558 49.4213 67.5345 48.4838Z" fill="#EE4D2D"/>
</svg>
