<svg width="80" height="80" viewBox="0 0 80 80" fill="none" xmlns="http://www.w3.org/2000/svg">
<path fill-rule="evenodd" clip-rule="evenodd" d="M14.0347 42.7797C14.989 43.6868 16.2704 44.2398 17.6665 44.2398C19.0625 44.2398 20.3473 43.6868 21.3083 42.7797H22.0131C20.9374 44.0004 19.3862 44.7557 17.6698 44.7557C15.9534 44.7557 14.4023 44.0004 13.3266 42.7797H14.0381H14.0347ZM15.0228 42.7797C15.2015 42.9044 15.3971 43.0191 15.5926 43.1169C15.7275 42.9921 15.8793 42.8775 16.0276 42.7797H16.6245C16.5975 42.7898 16.5705 42.8067 16.5537 42.8168C16.4559 42.8606 16.3682 42.9146 16.2772 42.9685C16.1423 43.0494 16.0175 43.1472 15.8927 43.2551C16.4357 43.4878 17.0426 43.6126 17.6631 43.6126C18.2836 43.6126 18.8905 43.4878 19.4334 43.2551C19.3087 43.1472 19.1839 43.0494 19.049 42.9685C18.9613 42.9146 18.8703 42.8606 18.7725 42.8168C18.7556 42.8067 18.7287 42.7898 18.7017 42.7797H19.2985C19.4503 42.8775 19.602 42.9921 19.7335 43.1169C19.9291 43.009 20.1247 42.9044 20.3034 42.7797H20.7856C20.526 42.9854 20.2528 43.1708 19.9561 43.3226C19.8583 43.3765 19.7605 43.4305 19.6627 43.4743C19.049 43.7407 18.3712 43.8925 17.6597 43.8925C16.9482 43.8925 16.2704 43.7407 15.6567 43.4743C15.5589 43.4305 15.4611 43.3765 15.3633 43.3226C15.07 43.1708 14.7935 42.9854 14.5338 42.7797H15.0228Z" fill="#ED1C24"/>
<path fill-rule="evenodd" clip-rule="evenodd" d="M12.6928 40.8036C12.9963 41.559 13.4581 42.2368 14.0381 42.7797H13.3266C12.8208 42.2098 12.4197 41.5421 12.1533 40.8036H12.6962H12.6928ZM13.3605 40.8036C13.5999 41.3297 13.9304 41.8018 14.3317 42.2031C14.5441 41.9636 14.7869 41.7411 15.0364 41.5522C14.9116 41.3196 14.8037 41.07 14.706 40.8036H14.9926C15.0735 41.0093 15.1612 41.2117 15.259 41.3904C15.3568 41.3364 15.4444 41.2757 15.5422 41.2218L15.1679 40.8036H15.7918L15.9334 41.0262C16.0042 40.9992 16.075 40.9723 16.1559 40.9385C16.1391 40.8947 16.129 40.8509 16.1188 40.8036H16.3515C16.3616 40.8205 16.3616 40.8475 16.3684 40.8643C16.4392 40.8475 16.5201 40.8205 16.5909 40.8036H18.7457C18.8165 40.8205 18.8974 40.8475 18.9683 40.8643C18.9784 40.8475 18.9784 40.8205 18.9851 40.8036H19.2178C19.2077 40.8475 19.2009 40.8913 19.1807 40.9385C19.501 41.0633 19.7944 41.215 20.081 41.3938C20.1788 41.215 20.2665 41.0093 20.3474 40.807H20.6341C20.5363 41.0734 20.4284 41.3229 20.3036 41.5556C20.5531 41.7411 20.7925 41.9636 21.0084 42.2064C21.4096 41.8052 21.7401 41.3331 21.9795 40.807H22.2897C22.0234 41.414 21.6491 41.9636 21.1938 42.429C21.1331 42.4897 21.0589 42.5538 20.9881 42.6145C20.9274 42.6684 20.8634 42.7291 20.7925 42.7831H20.3103C20.4789 42.6684 20.6475 42.5335 20.7993 42.3986C20.6037 42.1761 20.3812 41.9805 20.1485 41.8119C19.9091 42.1963 19.6224 42.5234 19.3021 42.7831H18.7052C18.6176 42.746 18.5265 42.7122 18.4388 42.6751C18.3579 42.6583 18.2871 42.6313 18.2062 42.6145C18.0376 42.5774 17.8487 42.5605 17.6633 42.5605C17.4778 42.5605 17.289 42.5774 17.1204 42.6145C17.0394 42.6313 16.9686 42.6583 16.8877 42.6751C16.8 42.7122 16.709 42.746 16.6213 42.7831H16.0244C15.7041 42.5234 15.4175 42.1963 15.178 41.8119C14.9454 41.9805 14.7228 42.1761 14.5272 42.3986C14.679 42.5335 14.8476 42.665 15.0162 42.7831H14.534C14.4632 42.7291 14.3991 42.6684 14.3384 42.6145C14.2676 42.5538 14.1968 42.4897 14.1327 42.429C13.6775 41.967 13.3032 41.414 13.0368 40.807H13.347L13.3605 40.8036ZM23.1901 40.8036C22.9237 41.5421 22.5222 42.2098 22.0131 42.7797H21.3083C21.8782 42.2368 22.3403 41.559 22.6438 40.8036H23.1901ZM15.4073 41.6568C15.6569 42.0581 15.9502 42.3851 16.2807 42.6347C16.4223 42.5538 16.5741 42.4931 16.7258 42.4391C16.5302 42.1289 16.3616 41.7175 16.2268 41.2454C16.1829 41.2622 16.1391 41.2724 16.0919 41.2993L16.1526 41.387H15.8761C15.7142 41.4679 15.5557 41.5556 15.404 41.6534L15.4073 41.6568ZM19.0559 42.6347C19.3864 42.3851 19.6798 42.0547 19.9293 41.6568C19.6696 41.4882 19.3965 41.3533 19.1099 41.2488C18.975 41.7209 18.8064 42.1289 18.6108 42.4425C18.7626 42.4964 18.9143 42.5571 19.0559 42.6381V42.6347ZM16.4392 41.1746C16.5741 41.6635 16.7427 42.0749 16.9383 42.375C17.1709 42.3143 17.4205 42.2772 17.67 42.2772C17.9195 42.2772 18.1691 42.3143 18.3984 42.375C18.594 42.0715 18.7626 41.6635 18.8974 41.1746C18.5063 41.0498 18.0949 40.9891 17.67 40.9891C17.2451 40.9891 16.8337 41.0498 16.4426 41.1746H16.4392Z" fill="#ED1C24"/>
<path fill-rule="evenodd" clip-rule="evenodd" d="M15.0061 37.8362L14.8206 38.1296L15.9165 38.1835C15.9266 38.0689 15.9334 37.9509 15.9435 37.8362H16.1762C16.1661 37.9509 16.1661 38.0689 16.1593 38.1936L17.6801 38.2645L18.0983 37.8362H18.6142L18.1151 38.5916L18.5771 39.3469H18.132L17.643 38.9018L16.1458 38.9625C16.1627 39.6301 16.2335 40.254 16.3515 40.7969H16.1188C16.0042 40.2439 15.9334 39.6301 15.9131 38.9726L14.7026 39.0265L15.7884 40.7969H15.1645L14.969 40.5844H14.915C14.942 40.6553 14.9589 40.7261 14.9858 40.7969H14.6992C14.6722 40.7261 14.6554 40.6553 14.6284 40.5844H14.5576L14.308 40.254L14.5306 40.2371C14.5205 40.1764 14.5036 40.1225 14.4935 40.0584L14.4058 39.9707H14.0147L13.7314 39.6065L14.0619 39.5796L13.5898 39.0636C13.3504 39.0636 13.1278 39.0738 12.912 39.0738L12.6287 39.0906L12.2983 39.1007L11.7925 39.1378C11.4283 39.1547 11.0978 39.1749 10.7775 39.1817C10.6257 39.1817 10.2615 39.2086 10.4032 38.9052C10.5178 38.6657 10.7943 38.3353 11.054 38.2105C11.3372 38.0756 11.5362 37.9879 11.8194 37.9778C12.4433 37.961 13.7348 38.1127 13.7348 38.1127L13.9843 37.8362H15.0094H15.0061ZM19.3965 37.8362C19.4134 37.9879 19.4235 38.1464 19.4235 38.3083H19.1841C19.1841 38.1464 19.1739 37.9879 19.1672 37.8362H19.3999H19.3965ZM20.9375 37.8362C20.9544 37.9879 20.9746 38.1464 20.9814 38.3083H20.7049C20.6948 38.1464 20.6779 37.9879 20.661 37.8362H20.9375ZM22.664 37.8362C22.6809 37.9879 22.7011 38.1464 22.718 38.3083H22.4347C22.4179 38.1464 22.3976 37.9879 22.374 37.8362H22.6674H22.664ZM23.5003 37.8362C23.5172 37.9879 23.5374 38.1464 23.5442 38.3083H23.0451C23.035 38.1464 23.0181 37.9879 22.9911 37.8362H23.4969H23.5003ZM12.1499 40.8003C12.015 40.4158 11.9105 40.0247 11.8464 39.6065H12.3522C12.4231 40.0247 12.5377 40.426 12.6894 40.8003H12.1465H12.1499ZM13.0503 40.8003C12.8884 40.426 12.767 40.0247 12.6928 39.6065H12.9794C13.0604 40.0247 13.1919 40.426 13.3639 40.8003H13.0503ZM16.5943 40.8003C16.9416 40.7126 17.2991 40.6654 17.67 40.6654C18.0409 40.6654 18.3984 40.7092 18.7457 40.8003H16.5909H16.5943ZM18.9885 40.8003C19.0964 40.2742 19.1672 39.6774 19.1841 39.0468H19.4235C19.4066 39.6774 19.3358 40.2675 19.2178 40.8003H18.9851H18.9885ZM20.3508 40.8003C20.5464 40.2742 20.6711 39.6774 20.7082 39.0468H20.9847C20.9477 39.6706 20.8229 40.2675 20.6374 40.8003H20.3508ZM21.9795 40.8003C22.229 40.2675 22.3875 39.6706 22.4347 39.0468H22.718C22.6742 39.6706 22.5224 40.2574 22.2897 40.8003H21.9795ZM22.6472 40.8003C22.8697 40.2574 23.0046 39.6605 23.0485 39.0468H23.5475C23.5104 39.6605 23.3857 40.2472 23.1901 40.8003H22.6472ZM19.3965 38.5376H25.3718V38.8141H19.3965V38.5376Z" fill="#ED1C24"/>
<path fill-rule="evenodd" clip-rule="evenodd" d="M13.9809 37.8362L14.1596 37.6305L13.8224 37.6036L14.109 37.2394H14.5103C14.5271 37.1517 14.5541 37.0607 14.571 36.973L14.4091 36.9629L14.6586 36.6324H14.6755C14.7733 36.3289 14.8981 36.0524 15.0329 35.8029C14.7834 35.6073 14.544 35.3948 14.3282 35.1521C13.6976 35.7826 13.2323 36.602 13.0299 37.5193H12.7366C13.2424 35.1858 15.2555 33.4492 17.6699 33.4492C20.0843 33.4492 22.2728 35.3443 22.664 37.8295H22.3706C22.202 36.7875 21.713 35.8534 21.0083 35.1487C20.7958 35.3881 20.553 35.6039 20.3035 35.7995C20.6137 36.3795 20.8363 37.0741 20.9341 37.8295H20.6576C20.5699 37.1247 20.3642 36.4941 20.0776 35.9512C19.7943 36.1367 19.4976 36.2884 19.1772 36.4065C19.2851 36.8415 19.3559 37.3136 19.3897 37.8295H19.157C19.1199 37.3405 19.0491 36.8853 18.9614 36.4773C18.5534 36.6122 18.115 36.683 17.6632 36.683C17.2113 36.683 16.7729 36.6122 16.3649 36.4773C16.2772 36.8853 16.2031 37.3405 16.1693 37.8295H15.9367C15.9738 37.3136 16.0446 36.8415 16.1491 36.4065C16.0783 36.3795 16.0075 36.3525 15.9434 36.3255L14.9992 37.8295H13.9741L13.9809 37.8362ZM18.0948 37.8362L18.1117 37.8093H18.6175L18.6073 37.8362H18.0914H18.0948ZM22.9911 37.8362C22.6 35.1655 20.3642 33.1187 17.6665 33.1187C14.9689 33.1187 12.9119 35.0071 12.396 37.526H11.8902C12.4061 34.7137 14.8003 32.5927 17.6665 32.5927C20.5328 32.5927 23.099 34.8721 23.4969 37.8362H22.9911ZM15.1847 35.5398C15.4241 35.1554 15.7107 34.8283 16.0311 34.5788C15.8793 34.4709 15.7276 34.3664 15.5961 34.2416C15.2117 34.4271 14.8576 34.6766 14.5373 34.9632C14.7328 35.1757 14.9554 35.3712 15.1881 35.5432L15.1847 35.5398ZM16.2806 34.39C16.3683 34.4439 16.4593 34.4979 16.5571 34.5417C16.665 34.5957 16.7797 34.6395 16.9044 34.6766C16.9753 34.7036 17.0461 34.7204 17.127 34.7373C17.3057 34.7744 17.4844 34.798 17.6699 34.798C17.8554 34.798 18.0341 34.771 18.2128 34.7373C18.2937 34.7204 18.3646 34.7002 18.4354 34.6766C18.5601 34.6395 18.6748 34.5957 18.7827 34.5417C18.8805 34.4979 18.9682 34.4439 19.0592 34.39C19.1941 34.3023 19.3189 34.2045 19.4436 34.0966C18.9007 33.874 18.2937 33.7493 17.6733 33.7493C17.0528 33.7493 16.4458 33.874 15.9029 34.0966C16.0277 34.2045 16.1525 34.3023 16.2874 34.39H16.2806ZM16.2806 34.7204C15.9502 34.97 15.6568 35.3004 15.4072 35.6983C15.5219 35.7691 15.6298 35.8332 15.7546 35.8939L15.8085 35.8332H16.2638L16.1221 36.0659L16.23 36.1097C16.3649 35.6275 16.5403 35.2296 16.7358 34.916C16.574 34.8621 16.4256 34.8014 16.2806 34.7204ZM15.2555 35.958C15.1476 36.1704 15.0498 36.393 14.9621 36.6358H15.0768L15.5388 36.13C15.441 36.076 15.3533 36.0221 15.2555 35.9614V35.958ZM19.9292 35.6983C19.6797 35.2971 19.3863 34.9666 19.0558 34.7204C18.9142 34.8014 18.7625 34.8621 18.6006 34.916C18.7962 35.2262 18.9749 35.6275 19.1064 36.1097C19.3897 36.0018 19.6662 35.8602 19.9258 35.7017L19.9292 35.6983ZM19.3054 34.5754C19.6257 34.825 19.9123 35.1554 20.1518 35.5365C20.3844 35.3679 20.607 35.1723 20.8026 34.9565C20.4822 34.6732 20.1248 34.4237 19.7437 34.2349C19.6089 34.3596 19.4605 34.4675 19.3087 34.5721L19.3054 34.5754ZM16.9382 34.9767C16.7426 35.2701 16.574 35.6815 16.4391 36.1772C16.8303 36.3019 17.2417 36.3626 17.6665 36.3626C18.0914 36.3626 18.5028 36.3019 18.894 36.1772C18.7591 35.6781 18.5905 35.2701 18.3949 34.9767C18.1622 35.0374 17.9127 35.0644 17.6665 35.0644C17.4204 35.0644 17.1675 35.0374 16.9348 34.9767H16.9382Z" fill="#ED1C24"/>
<path fill-rule="evenodd" clip-rule="evenodd" d="M29.5431 43.6261L30.8515 36.2783H27.7188L28.2179 33.4222H39.1502L38.6241 36.2783H35.741L34.4225 43.6261H29.5431Z" fill="#2B3C67"/>
<path fill-rule="evenodd" clip-rule="evenodd" d="M38.7489 43.6261L39.9696 36.1906H41.3589C40.5226 35.9512 39.9426 35.4791 39.9426 34.9261C39.9426 34.1438 41.1161 33.5031 42.5593 33.5031C44.0026 33.5031 45.1761 34.1438 45.1761 34.9261C45.1761 35.4791 44.5961 35.9512 43.7598 36.1906H44.8557L43.6283 43.6261H38.7489Z" fill="#2B3C67"/>
<path fill-rule="evenodd" clip-rule="evenodd" d="M45.0277 43.6261L46.788 33.5031H51.6775L49.9071 43.6261H45.0277Z" fill="#2B3C67"/>
<path fill-rule="evenodd" clip-rule="evenodd" d="M59.8952 43.6261L61.1159 36.1906H62.495C61.6588 35.9512 61.0889 35.4791 61.0889 34.9261C61.0889 34.1438 62.2556 33.5031 63.7056 33.5031C65.1556 33.5031 66.3156 34.1438 66.3156 34.9261C66.3156 35.4791 65.7457 35.9512 64.9094 36.1906H66.0054L64.7779 43.6261H59.8952Z" fill="#2B3C67"/>
<path fill-rule="evenodd" clip-rule="evenodd" d="M68.1197 34.6429H68.2883C68.3962 34.6429 68.4737 34.6327 68.5209 34.599C68.5648 34.5619 68.5918 34.5114 68.5918 34.4372C68.5918 34.363 68.5648 34.3124 68.5108 34.2753C68.467 34.2382 68.3861 34.2214 68.2714 34.2214H68.1197V34.6429ZM67.7622 33.9921H68.3321C68.5378 33.9921 68.6963 34.0291 68.8042 34.1C68.9121 34.1708 68.9559 34.2787 68.9559 34.4203C68.9559 34.5181 68.929 34.599 68.875 34.6698C68.8143 34.7305 68.7401 34.7845 68.6356 34.8047L68.9661 35.4623H68.5749L68.2916 34.8654H68.123V35.4623H67.7656V33.9921H67.7622ZM68.3051 33.6548C68.1534 33.6548 68.0219 33.6818 67.887 33.7358C67.7622 33.7897 67.6476 33.8605 67.5397 33.9684C67.4318 34.0764 67.3542 34.2011 67.2901 34.3326C67.2362 34.4675 67.2025 34.6091 67.2025 34.7508C67.2025 34.9025 67.2396 35.034 67.2901 35.1689C67.3441 35.3038 67.425 35.4184 67.5228 35.5263C67.6307 35.6343 67.7454 35.7118 67.887 35.7658C68.0219 35.8265 68.1635 35.8534 68.3051 35.8534C68.4468 35.8534 68.5816 35.8265 68.7132 35.7725C68.8548 35.7118 68.9728 35.6376 69.0875 35.5331C69.1852 35.4353 69.2662 35.3207 69.3201 35.1858C69.3808 35.0509 69.4078 34.9194 69.4078 34.7777C69.4078 34.6159 69.3808 34.4743 69.3269 34.3427C69.2729 34.2079 69.192 34.0932 69.0942 33.9853C68.9863 33.8774 68.8615 33.7897 68.73 33.7358C68.5951 33.6818 68.4535 33.6548 68.3018 33.6548H68.3051ZM68.3051 33.4323C68.4838 33.4323 68.6626 33.4694 68.8211 33.5301C68.9829 33.6009 69.1245 33.6987 69.2493 33.8336C69.3741 33.9482 69.4719 34.0932 69.5326 34.2517C69.5933 34.4136 69.6304 34.5822 69.6304 34.7575C69.6304 34.9329 69.5933 35.1048 69.5224 35.2633C69.4618 35.4252 69.3606 35.5668 69.2392 35.6916C69.1178 35.8163 68.9627 35.904 68.8042 35.9748C68.6423 36.0355 68.4737 36.0726 68.3051 36.0726C68.1264 36.0726 67.9578 36.0355 67.7993 35.9647C67.6375 35.904 67.4958 35.8029 67.3643 35.6713C67.2497 35.5466 67.1519 35.405 67.0878 35.2532C67.0271 35.0913 66.99 34.9227 66.99 34.7541C66.99 34.6294 67.0069 34.5147 67.0339 34.3967C67.0709 34.2821 67.1148 34.1741 67.1856 34.0662C67.3003 33.8605 67.4621 33.7021 67.6577 33.5941C67.8533 33.4795 68.0657 33.4255 68.3085 33.4255L68.3051 33.4323Z" fill="#ED1C24"/>
<path fill-rule="evenodd" clip-rule="evenodd" d="M54.7662 33.6447H60.4279L55.6126 38.5511L58.7452 43.6261H52.8609L49.88 38.7366L54.7662 33.6447Z" fill="#ED1C24"/>
<path fill-rule="evenodd" clip-rule="evenodd" d="M26.3565 45.8685H26.8826L27.1051 46.7587L27.3985 45.8685H27.8874L28.1808 46.7587L28.4135 45.8685H28.9294L28.4135 47.2848H27.9346L27.6379 46.4384L27.3648 47.2848H26.8826L26.3565 45.8685Z" fill="#2B3C67"/>
<path fill-rule="evenodd" clip-rule="evenodd" d="M29.7217 45.8685H30.2477L30.4804 46.7587L30.7636 45.8685H31.2526L31.546 46.7587L31.7786 45.8685H32.3047L31.7786 47.2848H31.2998L31.0132 46.4384L30.7367 47.2848H30.2477L29.7217 45.8685Z" fill="#2B3C67"/>
<path fill-rule="evenodd" clip-rule="evenodd" d="M33.0974 45.8685H33.6234L33.846 46.7587L34.1393 45.8685H34.6182L34.9217 46.7587L35.1543 45.8685H35.6703L35.1543 47.2848H34.6654L34.3788 46.4384L34.1022 47.2848H33.6234L33.0974 45.8685Z" fill="#2B3C67"/>
<path fill-rule="evenodd" clip-rule="evenodd" d="M36.4625 46.7419H37.0392V47.2848H36.4625V46.7419Z" fill="#2B3C67"/>
<path fill-rule="evenodd" clip-rule="evenodd" d="M38.8129 45.3324V45.8651H39.1063V46.2664H38.8129V46.7655C38.8129 46.8262 38.8129 46.8734 38.8298 46.8903C38.8467 46.9172 38.8736 46.9341 38.9175 46.9341C38.9613 46.9341 39.0153 46.9172 39.0861 46.897L39.1299 47.2713C38.995 47.2983 38.8635 47.3151 38.7455 47.3151C38.6106 47.3151 38.5128 47.2983 38.4521 47.2612C38.3914 47.2241 38.3375 47.1735 38.3105 47.0993C38.2835 47.0285 38.2667 46.9206 38.2667 46.7621V46.263H38.061V45.8618H38.2667V45.6021L38.8096 45.3256L38.8129 45.3324Z" fill="#2B3C67"/>
<path fill-rule="evenodd" clip-rule="evenodd" d="M40.1751 45.3323H40.718V45.6965H40.1751V45.3323ZM40.1751 45.8651H40.718V47.2814H40.1751V45.8651Z" fill="#2B3C67"/>
<path fill-rule="evenodd" clip-rule="evenodd" d="M41.8578 45.3323H42.4075V46.3406L42.8189 45.8685H43.4866L42.9774 46.3675L43.5135 47.2848H42.8998L42.6132 46.7216L42.4075 46.9172V47.2848H41.8578V45.3323Z" fill="#2B3C67"/>
<path fill-rule="evenodd" clip-rule="evenodd" d="M44.4847 45.3323H45.0276V45.6965H44.4847V45.3323ZM44.4847 45.8651H45.0276V47.2814H44.4847V45.8651Z" fill="#2B3C67"/>
<path fill-rule="evenodd" clip-rule="evenodd" d="M46.1675 45.8685H46.6733V46.1012C46.7441 46.0135 46.825 45.9393 46.9059 45.8955C46.9767 45.8584 47.0745 45.8415 47.1824 45.8415C47.3342 45.8415 47.4488 45.8853 47.5399 45.9764C47.6208 46.0641 47.6647 46.1989 47.6647 46.3844V47.2848H47.1217V46.5092C47.1217 46.4215 47.1049 46.3574 47.0678 46.3237C47.0408 46.2799 46.9869 46.263 46.9329 46.263C46.8621 46.263 46.8081 46.29 46.7711 46.3439C46.7272 46.3878 46.7104 46.4788 46.7104 46.6103V47.2881H46.1675V45.8685Z" fill="#2B3C67"/>
<path fill-rule="evenodd" clip-rule="evenodd" d="M50.3522 46.7149H49.2563C49.2731 46.8025 49.2934 46.8666 49.3271 46.9105C49.3811 46.9711 49.4519 46.9981 49.5395 46.9981C49.5935 46.9981 49.6373 46.988 49.6913 46.961C49.7183 46.9442 49.7452 46.9071 49.779 46.8734L50.3117 46.9172C50.2308 47.0588 50.133 47.1667 50.0184 47.2274C49.9037 47.2881 49.7351 47.3151 49.5193 47.3151C49.3338 47.3151 49.1888 47.2881 49.0843 47.2342C48.9697 47.1802 48.8786 47.0993 48.8078 46.9846C48.7471 46.87 48.71 46.7351 48.71 46.5766C48.71 46.3541 48.7808 46.1753 48.9157 46.0438C49.0573 45.9022 49.2529 45.8381 49.5025 45.8381C49.7081 45.8381 49.8666 45.8651 49.9847 45.9258C50.0993 45.9865 50.1904 46.0775 50.2511 46.1922C50.3117 46.3069 50.3488 46.4586 50.3488 46.6474V46.7081L50.3522 46.7149ZM49.7992 46.4552C49.7891 46.3473 49.7554 46.2765 49.7115 46.2225C49.6677 46.1787 49.6036 46.1619 49.5328 46.1619C49.4451 46.1619 49.3709 46.1989 49.3271 46.2596C49.29 46.3035 49.2731 46.3675 49.2664 46.4552H49.7992Z" fill="#2B3C67"/>
<path fill-rule="evenodd" clip-rule="evenodd" d="M52.0415 45.3324V45.8651H52.3349V46.2664H52.0415V46.7655C52.0415 46.8262 52.0516 46.8734 52.0584 46.8903C52.0752 46.9172 52.1022 46.9341 52.146 46.9341C52.1899 46.9341 52.2438 46.9172 52.3147 46.897L52.3585 47.2713C52.2236 47.2983 52.0988 47.3151 51.9842 47.3151C51.8426 47.3151 51.7448 47.2983 51.6807 47.2612C51.62 47.2241 51.5728 47.1735 51.5391 47.0993C51.5121 47.0285 51.4952 46.9206 51.4952 46.7621V46.263H51.2997V45.8618H51.4952V45.6021L52.0381 45.3256L52.0415 45.3324Z" fill="#2B3C67"/>
<path fill-rule="evenodd" clip-rule="evenodd" d="M53.3871 46.7419H53.9637V47.2848H53.3871V46.7419Z" fill="#2B3C67"/>
<path fill-rule="evenodd" clip-rule="evenodd" d="M56.1453 46.7317L56.6613 46.7924C56.6242 46.9003 56.5803 46.988 56.5196 47.0689C56.4589 47.1499 56.3679 47.2106 56.2701 47.2544C56.1723 47.2982 56.0374 47.3151 55.8857 47.3151C55.7339 47.3151 55.6092 47.2982 55.5114 47.2713C55.4035 47.2443 55.3259 47.2004 55.2517 47.1364C55.1776 47.0723 55.1169 47.0015 55.0831 46.9138C55.0393 46.8329 55.0224 46.7182 55.0224 46.5766C55.0224 46.435 55.0494 46.3102 55.0933 46.2192C55.1303 46.1484 55.1809 46.0775 55.245 46.0236C55.3057 45.9696 55.3698 45.9258 55.4406 45.8988C55.5485 45.855 55.68 45.8381 55.8419 45.8381C56.0745 45.8381 56.2499 45.8752 56.3746 45.9528C56.4893 46.0405 56.5803 46.1585 56.6343 46.317L56.1184 46.3878C56.1015 46.3271 56.0745 46.2799 56.0307 46.2462C55.9936 46.2192 55.9329 46.2023 55.8621 46.2023C55.7744 46.2023 55.7002 46.2394 55.6496 46.3001C55.5957 46.3608 55.562 46.462 55.562 46.5935C55.562 46.7081 55.5991 46.7992 55.6496 46.8599C55.7036 46.9206 55.7744 46.9475 55.8553 46.9475C55.9262 46.9475 55.9902 46.9307 56.0341 46.8936C56.088 46.8565 56.1217 46.8059 56.1487 46.725L56.1453 46.7317Z" fill="#2B3C67"/>
<path fill-rule="evenodd" clip-rule="evenodd" d="M57.6326 46.58C57.6326 46.3675 57.7034 46.1888 57.845 46.0472C57.9968 45.9056 58.1924 45.8415 58.4419 45.8415C58.7184 45.8415 58.9308 45.9224 59.0826 46.0809C59.1972 46.2158 59.2512 46.3844 59.2512 46.5699C59.2512 46.7924 59.1804 46.9712 59.0387 47.1128C58.8971 47.2477 58.6914 47.3185 58.4419 47.3185C58.2092 47.3185 58.0339 47.2578 57.8889 47.1398C57.7203 46.9981 57.6292 46.8093 57.6292 46.58H57.6326ZM58.1755 46.58C58.1755 46.7048 58.2025 46.8025 58.2463 46.8666C58.3003 46.9273 58.361 46.9543 58.4419 46.9543C58.5228 46.9543 58.5835 46.9273 58.6273 46.8666C58.6813 46.8059 58.7083 46.7048 58.7083 46.58C58.7083 46.4552 58.6813 46.3574 58.6273 46.3035C58.5835 46.2428 58.5194 46.2158 58.4419 46.2158C58.3711 46.2158 58.3003 46.2428 58.2463 46.3035C58.2025 46.3642 58.1755 46.4552 58.1755 46.58Z" fill="#2B3C67"/>
<path fill-rule="evenodd" clip-rule="evenodd" d="M60.2762 46.7419H60.8562V47.2848H60.2762V46.7419Z" fill="#2B3C67"/>
<path fill-rule="evenodd" clip-rule="evenodd" d="M61.9958 45.3323H62.5387V45.6965H61.9958V45.3323ZM61.9958 45.8651H62.5387V47.2814H61.9958V45.8651Z" fill="#2B3C67"/>
<path fill-rule="evenodd" clip-rule="evenodd" d="M65.1656 45.3323V47.2814H64.6598V47.0757C64.589 47.1634 64.5249 47.2274 64.4642 47.2544C64.3833 47.2982 64.2956 47.3151 64.2046 47.3151C64.009 47.3151 63.8674 47.2443 63.7595 47.0925C63.6617 46.9509 63.6077 46.7722 63.6077 46.5598C63.6077 46.3271 63.6617 46.1517 63.7763 46.027C63.891 45.9022 64.036 45.8415 64.2046 45.8415C64.2855 45.8415 64.3665 45.8516 64.4373 45.8786C64.5081 45.9157 64.562 45.9494 64.616 46.0135V45.3357H65.169L65.1656 45.3323ZM64.6227 46.5699C64.6227 46.462 64.5957 46.3743 64.5519 46.3203C64.5081 46.2664 64.444 46.2394 64.3732 46.2394C64.3125 46.2394 64.2585 46.2664 64.2113 46.3203C64.1675 46.3743 64.1506 46.462 64.1506 46.5867C64.1506 46.7014 64.1675 46.7823 64.2113 46.8363C64.2552 46.8902 64.3091 46.9172 64.3799 46.9172C64.4406 46.9172 64.5047 46.8902 64.5485 46.8363C64.5924 46.7823 64.6194 46.6946 64.6194 46.5699H64.6227Z" fill="#2B3C67"/>
</svg>
