<svg width="80" height="80" viewBox="0 0 80 80" fill="none" xmlns="http://www.w3.org/2000/svg">
<path fill-rule="evenodd" clip-rule="evenodd" d="M15.838 40.0375C15.838 37.547 16.962 35.4898 18.7698 34.1727C19.0353 33.9797 19.349 33.7751 19.6674 33.6107C19.8317 33.5268 19.9972 33.4383 20.1673 33.3682C20.3305 33.3016 20.5271 33.2326 20.6753 33.1648C20.6569 33.0212 20.2294 32.5626 20.2294 32.5626C19.926 32.589 19.0318 33.0028 18.7491 33.1441C17.6493 33.6981 16.608 34.4635 15.7357 35.3059L14.9703 36.1058C14.6841 36.4541 14.5876 36.5426 14.2842 36.9586C14.006 37.3402 13.7647 37.8114 13.5693 38.3136C13.0832 39.5663 12.7809 40.4719 12.7809 41.9212C12.7809 43.7865 13.8049 45.2736 15.2829 46.2299C16.5287 47.0366 17.6309 47.3872 19.1146 47.5147C19.5559 47.5527 20.9385 47.6665 21.3902 47.5929C21.3936 46.9539 21.2798 46.2839 21.2798 45.6092C21.2798 44.9346 21.2948 42.6694 21.4235 42.1671C21.4798 42.1959 21.4833 42.2303 21.5085 42.3119C21.8579 43.4003 22.5555 45.0357 23.2336 45.8678C23.5658 46.2747 23.8198 46.4103 24.5277 46.4103C25.0667 46.4103 25.6046 46.4068 26.1425 46.2965C26.3263 46.2586 26.3355 46.0793 26.3872 45.9012C26.4355 45.7357 26.4861 45.5908 26.5413 45.4196C26.7516 44.7737 26.986 44.1715 27.2331 43.5647C27.8342 42.0867 29.1903 39.5376 30.1615 38.2412C30.2592 38.1113 30.3316 37.9918 30.4224 37.8665C31.0269 37.0367 32.0049 35.8036 32.7129 35.0887L33.3301 34.4658C33.2174 34.2992 33.1381 34.2911 32.8772 34.3233L31.2786 34.5876C29.7753 34.8945 26.7125 35.5657 25.9459 36.7069C25.4989 37.3723 24.1151 41.2718 23.8496 42.0936C23.8175 42.1913 23.3072 43.8233 23.252 43.9083L23.2267 43.9347C23.0693 43.7773 22.5555 42.6452 22.4498 42.3545C22.2475 41.8017 22.0234 41.0937 22.0234 40.4363C22.0234 39.4721 22.2303 39.2112 22.5935 38.4768C22.8153 38.0286 22.7486 38.0447 22.5406 37.6206C22.3969 37.3275 22.2625 37.1459 22.0912 36.9034C21.8349 36.5426 21.1845 35.9714 20.5466 36.4046C18.9388 37.4965 18.4561 41.5982 18.3273 43.5497C18.3032 43.9152 18.2814 44.291 18.2687 44.6553C18.2561 45.0093 18.2733 45.4679 18.2354 45.8069C18.0435 45.7598 17.7699 45.4874 17.6504 45.3771C16.2966 44.1267 15.8357 41.881 15.8357 40.0398L15.838 40.0375ZM65.418 44.6668C64.7526 44.6668 64.5319 43.9853 65.0227 43.6233C65.2824 43.4313 66.1811 43.213 66.5834 43.2268L66.5891 44.2623C66.2363 44.4554 65.8973 44.6668 65.418 44.6668ZM63.9056 42.2005C64.8549 42.2005 64.8077 41.3029 65.2353 41.0225C65.487 40.8581 65.9191 40.8087 66.2248 40.9546C66.5696 41.119 66.5914 41.396 66.5914 41.8419C66.5926 42.0453 66.6075 42.0131 66.573 42.2028C66.1972 42.2901 65.6352 42.2993 65.2249 42.3671C64.1906 42.5384 62.6046 42.9119 62.6046 44.2301C62.6046 45.3254 63.5516 45.9552 64.5963 45.9552C65.0893 45.9552 65.4651 45.8747 65.895 45.7138C66.3914 45.5276 66.4891 45.4116 66.8512 45.2484C66.9397 45.3024 67.0546 45.4472 67.1672 45.5322C67.8223 46.0322 68.8658 46.0609 69.6301 45.7839L69.6324 44.6358C69.4899 44.645 68.6521 44.9404 68.5992 44.2312C68.5383 43.4061 68.6762 42.0545 68.5521 41.2339C68.4556 40.5995 68.1464 40.3156 67.6694 40.0697C66.4581 39.4456 64.4848 39.6284 63.4343 40.4398C62.6459 41.0477 62.8425 42.2005 63.9078 42.2005H63.9056ZM32.9094 44.2565C31.3384 45.1966 30.812 44.2784 31.2016 43.7646C31.4154 43.4819 31.9256 43.3693 32.3785 43.2934C32.9899 43.19 32.9175 43.1808 32.9129 43.4336C32.9071 43.7072 32.9186 43.9842 32.9094 44.2577V44.2565ZM30.2615 42.2005C29.2329 42.2005 28.8927 41.1937 29.7581 40.4363C30.7097 39.6031 32.814 39.4537 34.061 40.1111C34.5793 40.3835 34.8345 40.7236 34.8954 41.4546C34.9505 42.1189 34.9115 42.9349 34.9115 43.6187C34.9115 43.9301 34.854 44.3979 35.0517 44.5599C35.4275 44.8691 35.6746 44.591 35.9562 44.6565C35.9654 44.8208 35.9757 45.6897 35.9481 45.7552C35.8918 45.8184 35.9493 45.777 35.8562 45.8184L35.4896 45.8977C34.8046 46.0195 34.0495 45.9632 33.4898 45.5357C33.3645 45.4391 33.3174 45.3369 33.1784 45.2495C33.0427 45.2978 32.86 45.4162 32.7152 45.4897C32.1635 45.7667 31.6004 45.954 30.9499 45.954C29.927 45.954 28.9226 45.3323 28.9226 44.3347C28.9226 42.1488 32.4715 42.405 32.9071 42.1832C32.937 41.45 32.9646 40.8662 32.0911 40.8662C31.882 40.8662 31.659 40.9489 31.5142 41.0512C31.1694 41.2971 31.1303 42.1993 30.2603 42.1993L30.2615 42.2005ZM49.7073 43.2291C49.7108 43.5015 49.7039 43.7738 49.7096 44.0451C49.7131 44.2186 49.7108 44.2692 49.5798 44.3381C49.4993 44.3807 49.3982 44.4289 49.312 44.468C47.8972 45.1082 47.403 43.9508 48.3512 43.5072C48.5799 43.4003 49.4395 43.2107 49.7073 43.2291ZM52.7368 45.7644C52.8035 45.6437 52.7633 45.2702 52.7633 45.1047C52.7633 44.6036 52.8012 44.6094 52.5874 44.6611C52.1737 44.7622 51.7542 44.6852 51.7209 44.2554C51.6531 43.4015 51.7519 42.443 51.7048 41.5741C51.6542 40.634 51.3014 40.2754 50.5739 39.9686C49.9016 39.6847 48.9913 39.6422 48.2156 39.7628C45.5814 40.1731 45.6377 42.1246 46.9513 42.197C48.0156 42.2556 47.8834 41.242 48.4443 40.9696C48.7672 40.8133 49.2476 40.8409 49.4982 41.0443C49.7682 41.2638 49.7246 41.7867 49.705 42.1821C49.6073 42.2326 48.5408 42.3315 48.3052 42.3706C47.8639 42.4441 47.4317 42.5487 47.0329 42.6901C46.3112 42.9441 45.5665 43.5325 45.7481 44.5611C45.8894 45.3656 46.6468 45.869 47.5409 45.9414C48.827 46.046 49.7338 45.3104 49.9763 45.2495C50.09 45.3219 50.1303 45.3909 50.2176 45.4736C50.9382 46.1574 52.5495 45.9621 52.7368 45.7644ZM57.4627 45.7161C57.4661 45.6885 57.4627 45.615 57.4627 45.5828C57.4627 45.4943 57.4627 45.4058 57.4627 45.3173C57.4627 45.1875 57.4788 44.8944 57.4627 44.7841C57.4259 44.5243 56.8432 44.8691 56.7524 44.4324C56.6616 43.9968 56.7179 42.8831 56.7179 42.3729C56.7179 41.7166 56.6444 41.7477 56.9593 41.5546C57.3432 41.319 58.0902 40.919 58.5407 41.2121C58.7729 41.3626 58.7729 41.681 58.774 42.0005C58.7763 42.7016 58.7625 43.4061 58.7625 44.0979C58.7625 44.5381 58.7315 44.6691 58.281 44.6772C57.9845 44.6829 58.0132 44.6565 58.0166 44.9461C58.0189 45.1139 58.0166 45.2828 58.0166 45.4506C58.0166 45.8184 57.9718 45.8391 58.1453 45.8471C58.6614 45.8713 61.73 45.8471 61.7828 45.8299C61.8495 45.7035 61.8024 45.2334 61.8047 44.9725C61.807 44.7094 61.7886 44.7795 61.7828 44.7289C61.7748 44.6484 61.2507 44.6829 61.1185 44.6645C60.8933 44.6335 60.8508 44.4772 60.837 44.2542C60.76 43.0647 61.045 41.0995 60.5232 40.3949C60.1463 39.8847 59.3498 39.5801 58.4648 39.6686C57.3454 39.7812 56.6904 40.4087 56.4789 40.4191L56.4594 39.6858C56.3525 39.6272 56.3686 39.6594 56.3686 39.6594C55.902 39.5927 55.5376 39.7812 55.0917 39.9042C54.5435 40.0559 54.0367 40.0938 53.7206 40.1777C53.6896 40.3179 53.6919 41.1845 53.7206 41.3339C53.9183 41.3362 54.4849 41.2983 54.6217 41.3569C54.632 41.3718 54.6377 41.3764 54.6492 41.4109L54.663 41.6017C54.6596 42.1212 54.7101 44.2979 54.6021 44.5036C54.424 44.8427 53.7712 44.5347 53.7149 44.7634L53.7126 45.8322C54.1734 45.8368 57.2512 45.9069 57.4305 45.8242L57.4638 45.7173L57.4627 45.7161ZM37.6709 38.6791C37.7444 38.8089 37.7008 43.0785 37.7008 43.8313C37.7008 44.8461 37.6123 44.5381 36.7814 44.645C36.7354 44.799 36.7434 45.6598 36.7814 45.8299C36.9503 45.869 40.4372 45.8655 40.4924 45.8081C40.5464 45.7449 40.5464 44.7254 40.4889 44.6714C40.3533 44.5301 39.9281 44.7427 39.8189 44.4335C39.7511 44.2416 39.7477 41.7787 39.7936 41.681C39.9419 41.496 40.628 41.2006 40.9544 41.1477C41.6428 41.0351 41.8347 41.3029 41.8336 41.9465C41.8336 42.2395 41.883 44.2864 41.7819 44.4703C41.6601 44.6921 41.3406 44.5933 41.0889 44.6507C41.0866 44.8542 41.0774 45.0564 41.0774 45.2633L41.0843 45.7437C41.0992 45.8506 41.0578 45.8104 41.1452 45.8391C41.1808 45.8506 44.7459 45.8609 44.8551 45.8276C44.9344 45.677 44.8953 44.853 44.87 44.6358C44.4609 44.6059 43.9391 44.7507 43.9103 44.2795C43.8517 43.2888 44.0804 41.15 43.6644 40.511C43.0829 39.618 41.7612 39.4916 40.7395 39.8743C40.5705 39.9375 40.4303 39.9915 40.2706 40.0686C40.12 40.141 39.9419 40.2674 39.7775 40.2927V36.9781C38.842 36.9781 39.35 36.9471 38.5593 37.1643C38.18 37.2689 37.8008 37.3551 37.402 37.4137C37.3238 37.4252 36.8285 37.4758 36.8009 37.4965C36.7411 37.5413 36.7572 38.3803 36.7653 38.5262C36.7733 38.6779 36.8124 38.648 36.9733 38.6446C37.1675 38.6411 37.5226 38.5894 37.6709 38.6779V38.6791ZM22.0027 31.1444C21.7982 31.2444 21.4109 31.3237 21.2672 31.4673C21.2028 31.6041 21.6511 33.4556 21.2339 32.9602C21.1546 32.866 21.1385 32.8465 21.0419 32.7534C20.7845 32.5063 20.1754 31.7615 19.9179 31.4892C19.826 31.3915 19.7754 31.4122 19.6467 31.4662C19.5479 31.5076 19.4663 31.5386 19.3651 31.5834C18.5721 31.9374 17.5378 32.6281 16.9195 33.1165C16.2839 33.6188 15.7564 34.0659 15.222 34.6026C14.1141 35.7162 13.2326 36.7287 12.4373 38.186C11.6707 39.5916 11.0374 41.4121 11.2753 43.3475C11.5144 45.2874 12.5131 46.508 13.6704 47.3148C17.1217 49.7225 22.8141 48.6905 26.4137 46.9884L28.0031 46.1896C28.1905 46.0885 28.3514 45.9805 28.5376 45.8943C28.9099 46.1437 29.0616 46.385 29.5937 46.6482C30.0592 46.878 30.6695 46.8171 31.2292 46.8459C31.2418 46.9918 30.4097 47.4458 30.3028 47.5067C29.9535 47.7032 29.6133 47.8894 29.226 48.0756C26.801 49.2398 24.2174 49.9087 21.4304 50.0983C19.3686 50.2385 17.5067 50.0225 15.6989 49.3996C12.1005 48.1606 10.0364 45.6288 10.4157 41.7109C10.5007 40.8351 10.7651 39.8375 11.0811 39.1146C11.6052 37.9171 12.1568 37.0172 12.9338 36.0564C13.1889 35.7404 13.4302 35.4634 13.6934 35.1715C14.6554 34.1084 16.0587 32.9602 17.2183 32.1431C17.8297 31.7121 18.5342 31.2582 19.2399 30.8766C19.1284 30.6467 18.3388 29.8997 18.3112 29.7423C18.6411 29.3285 19.9202 30.1755 20.1593 30.3433C20.6075 30.6582 20.6385 30.4652 21.2109 30.6192C21.5327 30.7054 21.9177 30.9168 22.0016 31.1444H22.0027ZM21.92 31.8271C24.0117 31.0352 26.6206 30.3927 29.1202 30.3927H29.6776C32.0785 30.3927 34.8954 31.0226 36.7262 32.458C37.4629 33.0361 38.2616 33.9613 38.6593 35.0887C38.711 35.2358 38.9432 35.8334 38.8305 35.9484C38.7167 36.0645 38.2996 36.3047 38.1203 36.3817C37.5387 36.6322 36.971 36.7793 36.2607 36.7793C36.2205 36.9712 36.2113 39.3319 36.224 39.6985L37.0928 39.7054C37.1445 39.8904 37.11 40.8328 37.11 41.0983C37.11 41.8764 37.1985 41.712 36.8078 42.1798C36.586 42.4453 36.3917 42.6763 36.1676 42.9452C36.0711 43.0613 35.9677 43.1877 35.8562 43.3233L35.6114 43.6129C35.524 43.6957 35.5746 43.6578 35.5459 43.6405C35.4712 43.5198 35.5229 43.1785 35.5229 43.0084C35.5229 42.5062 35.5482 41.3971 35.5068 41.019C35.4436 40.4306 35.1643 39.8077 34.6207 39.5778C34.538 39.5422 34.4805 39.5399 34.4058 39.4801C34.4081 39.3043 34.569 38.786 34.6104 38.5492C34.8563 37.1425 34.7621 36.0012 33.9438 34.8175L33.2289 33.9659C32.991 33.7268 32.629 33.4728 32.3394 33.2912C31.0591 32.4867 29.1995 31.9925 27.3963 31.9925C25.9252 31.9925 24.5461 32.119 23.129 32.4534C22.9337 32.4994 22.7613 32.5373 22.5728 32.5867C22.4096 32.6293 22.159 32.7189 22.0039 32.7189L21.9211 31.8271H21.92Z" fill="#163AC9"/>
<path fill-rule="evenodd" clip-rule="evenodd" d="M33.4174 48.3319V49.1709H33.0128V46.8964C33.2818 46.8849 33.4404 46.8792 33.4852 46.8792C33.8449 46.8792 34.1081 46.9344 34.2748 47.0447C34.4414 47.155 34.5241 47.3274 34.5241 47.5607C34.5241 48.0825 34.2161 48.3434 33.6001 48.3434C33.5542 48.3434 33.4932 48.3399 33.4162 48.3319H33.4174ZM33.4174 47.247V47.9722C33.4863 47.9791 33.5404 47.9837 33.5794 47.9837C33.7645 47.9837 33.8989 47.9526 33.984 47.8917C34.069 47.8308 34.1116 47.7308 34.1116 47.5929C34.1116 47.3573 33.9208 47.2401 33.5404 47.2401C33.4978 47.2401 33.4565 47.2424 33.4174 47.2481V47.247ZM36.671 47.8687C36.602 47.8216 36.5262 47.7986 36.4434 47.7986C36.3538 47.7986 36.2734 47.84 36.2033 47.9216C36.1331 48.0032 36.0987 48.1032 36.0987 48.2216V49.1697H35.7102V47.5044H36.0987V47.6573C36.2078 47.5343 36.3527 47.4722 36.5331 47.4722C36.6653 47.4722 36.7675 47.4929 36.8377 47.5331L36.6722 47.8664L36.671 47.8687ZM39.4051 48.4572H38.2156C38.2225 48.5893 38.2685 48.6928 38.3524 48.7675C38.4363 48.841 38.5489 48.8778 38.6914 48.8778C38.8696 48.8778 39.004 48.8318 39.096 48.741L39.2465 49.0375C39.1098 49.1479 38.9064 49.203 38.634 49.203C38.38 49.203 38.18 49.1283 38.0318 48.9801C37.8846 48.8318 37.8111 48.6238 37.8111 48.3572C37.8111 48.0905 37.8927 47.8814 38.0536 47.7193C38.2156 47.5561 38.4099 47.4757 38.6374 47.4757C38.8788 47.4757 39.073 47.5481 39.2178 47.6917C39.3638 47.8365 39.4373 48.0193 39.4373 48.2422C39.4373 48.2905 39.4258 48.3618 39.404 48.4583L39.4051 48.4572ZM38.2317 48.1641H39.0466C39.019 47.9204 38.8857 47.7986 38.6443 47.7986C38.4237 47.7986 38.2857 47.9204 38.2317 48.1641ZM40.4981 49.0628L40.636 48.7525C40.7521 48.8456 40.8831 48.8927 41.0291 48.8927C41.175 48.8927 41.2555 48.8387 41.2555 48.7307C41.2555 48.6675 41.2325 48.6146 41.1865 48.5744C41.1406 48.5342 41.0532 48.4859 40.9211 48.4307C40.6337 48.3112 40.4912 48.1446 40.4912 47.9296C40.4912 47.7848 40.5464 47.6733 40.6556 47.5929C40.7659 47.5124 40.905 47.4722 41.0762 47.4722C41.2474 47.4722 41.4118 47.5113 41.5635 47.5883L41.452 47.8894C41.367 47.817 41.2497 47.7814 41.098 47.7814C40.9624 47.7814 40.8946 47.8354 40.8946 47.9434C40.8946 47.986 40.9165 48.025 40.9613 48.0595C41.0061 48.094 41.1003 48.14 41.2463 48.1974C41.3923 48.2549 41.498 48.325 41.5623 48.4066C41.6267 48.4893 41.6589 48.5882 41.6589 48.7031C41.6589 48.8583 41.6014 48.9801 41.4865 49.0686C41.3727 49.1571 41.2176 49.2019 41.0199 49.2019C40.9096 49.2019 40.8199 49.1927 40.7533 49.1743C40.6866 49.1559 40.6004 49.1191 40.4958 49.0628H40.4981ZM42.8783 47.817H42.684V47.5056H42.8783V47.1677L43.2667 47.0252V47.5056H43.7253V47.817H43.2667V48.5468C43.2667 48.6663 43.2851 48.7502 43.323 48.7996C43.361 48.8491 43.4265 48.8732 43.5196 48.8732C43.6127 48.8732 43.7012 48.8479 43.7816 48.7962V49.1536C43.692 49.1847 43.5621 49.2007 43.3943 49.2007C43.2265 49.2007 43.1001 49.1536 43.0116 49.0605C42.922 48.9663 42.8771 48.833 42.8771 48.6594V47.8159L42.8783 47.817ZM45.8595 49.0042C45.825 49.0617 45.763 49.1099 45.6756 49.1467C45.5883 49.1835 45.4963 49.2019 45.4009 49.2019C45.2217 49.2019 45.0815 49.1571 44.9792 49.0674C44.8769 48.9778 44.8252 48.8502 44.8252 48.6859C44.8252 48.4928 44.8976 48.3411 45.0412 48.233C45.186 48.1239 45.3906 48.0698 45.6561 48.0698C45.7021 48.0698 45.7549 48.0767 45.817 48.0917C45.817 47.8963 45.6929 47.7986 45.4458 47.7986C45.2998 47.7986 45.1768 47.8228 45.0792 47.8722L44.9953 47.5699C45.1286 47.5067 45.2883 47.4745 45.4722 47.4745C45.7262 47.4745 45.9124 47.532 46.0308 47.6481C46.1491 47.7641 46.2077 47.9825 46.2077 48.3043V48.6606C46.2077 48.8824 46.2526 49.0215 46.3411 49.0789C46.3089 49.1352 46.2733 49.1697 46.2342 49.1835C46.1951 49.1973 46.1503 49.203 46.0986 49.203C46.0422 49.203 45.9917 49.1824 45.9469 49.141C45.902 49.0996 45.8722 49.0548 45.8572 49.0054L45.8595 49.0042ZM45.8216 48.3836C45.7549 48.371 45.7055 48.3641 45.6722 48.3641C45.3665 48.3641 45.2136 48.4652 45.2136 48.6675C45.2136 48.818 45.2998 48.8927 45.4722 48.8927C45.7055 48.8927 45.8216 48.7755 45.8216 48.5399V48.3836ZM47.3777 49.0628L47.5156 48.7525C47.6317 48.8456 47.7627 48.8927 47.9087 48.8927C48.0546 48.8927 48.1351 48.8387 48.1351 48.7307C48.1351 48.6675 48.1121 48.6146 48.0661 48.5744C48.0202 48.5342 47.9328 48.4859 47.8006 48.4307C47.5133 48.3112 47.3708 48.1446 47.3708 47.9296C47.3708 47.7848 47.426 47.6733 47.5352 47.5929C47.6455 47.5124 47.7846 47.4722 47.9558 47.4722C48.127 47.4722 48.2914 47.5113 48.4431 47.5883L48.3316 47.8894C48.2466 47.817 48.1293 47.7814 47.9776 47.7814C47.842 47.7814 47.7742 47.8354 47.7742 47.9434C47.7742 47.986 47.7961 48.025 47.8409 48.0595C47.8857 48.094 47.9799 48.14 48.1259 48.1974C48.2719 48.2549 48.3776 48.325 48.4419 48.4066C48.5063 48.4893 48.5385 48.5882 48.5385 48.7031C48.5385 48.8583 48.481 48.9801 48.3661 49.0686C48.2523 49.1571 48.0972 49.2019 47.8995 49.2019C47.7892 49.2019 47.6995 49.1927 47.6329 49.1743C47.5662 49.1559 47.48 49.1191 47.3754 49.0628H47.3777ZM50.0038 46.8585C50.0659 46.8585 50.1199 46.8803 50.1636 46.9252C50.2072 46.9688 50.2302 47.0217 50.2302 47.0849C50.2302 47.1481 50.2084 47.201 50.1636 47.2447C50.1199 47.2883 50.067 47.3113 50.0038 47.3113C49.9406 47.3113 49.8877 47.2895 49.8441 47.2447C49.8004 47.201 49.7774 47.147 49.7774 47.0849C49.7774 47.0229 49.7992 46.9688 49.8441 46.9252C49.8877 46.8815 49.9418 46.8585 50.0038 46.8585ZM49.8038 49.1697V47.8228H49.5901V47.5044H50.1981V49.1697H49.8038ZM52.484 49.1697V46.8941H52.8885V48.81H53.9171V49.1697H52.484ZM54.963 48.333C54.963 48.079 55.0365 47.8722 55.1825 47.7124C55.3284 47.5527 55.5227 47.4722 55.7629 47.4722C56.0157 47.4722 56.2111 47.5492 56.3513 47.7021C56.4904 47.8549 56.5605 48.0653 56.5605 48.3319C56.5605 48.5985 56.4892 48.8088 56.3467 48.9651C56.2042 49.1214 56.0088 49.1996 55.7617 49.1996C55.5146 49.1996 55.3124 49.1203 55.1721 48.9628C55.0319 48.8042 54.9618 48.5939 54.9618 48.3319L54.963 48.333ZM55.3675 48.333C55.3675 48.6997 55.4997 48.8824 55.7629 48.8824C55.8835 48.8824 55.9789 48.8341 56.0502 48.7399C56.1203 48.6445 56.1559 48.5089 56.1559 48.333C56.1559 47.9722 56.0249 47.7906 55.7617 47.7906C55.6399 47.7906 55.5445 47.8388 55.4733 47.9331C55.402 48.0285 55.3664 48.1618 55.3664 48.333H55.3675ZM57.5994 49.5961L57.8454 49.2927C57.981 49.418 58.1327 49.48 58.2993 49.48C58.4108 49.48 58.5039 49.4628 58.5763 49.4294C58.6487 49.3961 58.6855 49.3501 58.6855 49.2915C58.6855 49.1927 58.605 49.1421 58.4441 49.1421C58.4005 49.1421 58.335 49.1479 58.2499 49.1582C58.1637 49.1686 58.0994 49.1743 58.0557 49.1743C57.7879 49.1743 57.6546 49.0778 57.6546 48.8858C57.6546 48.8307 57.6764 48.7767 57.7212 48.7238C57.7661 48.6709 57.8178 48.6318 57.8764 48.6066C57.6868 48.4836 57.5914 48.31 57.5914 48.0848C57.5914 47.9067 57.6569 47.7607 57.7879 47.6435C57.9189 47.5274 58.0798 47.4699 58.2706 47.4699C58.42 47.4699 58.5453 47.4975 58.6464 47.5538L58.7993 47.378L59.0682 47.6205L58.882 47.7549C58.9464 47.8515 58.9786 47.9664 58.9786 48.0986C58.9786 48.2871 58.9211 48.4376 58.805 48.5514C58.6889 48.664 58.543 48.7215 58.366 48.7215C58.3384 48.7215 58.3005 48.7192 58.2545 48.7146L58.1902 48.7066C58.1833 48.7066 58.1557 48.718 58.1074 48.7399C58.0591 48.7629 58.0362 48.7859 58.0362 48.8088C58.0362 48.8502 58.0718 48.8709 58.143 48.8709C58.1752 48.8709 58.2292 48.8629 58.3051 48.8468C58.3809 48.8307 58.4453 48.8226 58.4993 48.8226C58.8774 48.8226 59.0671 48.9743 59.0671 49.2789C59.0671 49.4467 58.9912 49.5789 58.8395 49.6754C58.6878 49.7719 58.5051 49.8191 58.2913 49.8191C58.0362 49.8191 57.8051 49.7432 57.5994 49.5938V49.5961ZM57.9879 48.0882C57.9879 48.1859 58.0155 48.2641 58.0706 48.3227C58.1258 48.3813 58.1994 48.4112 58.2913 48.4112C58.3832 48.4112 58.4556 48.3825 58.5051 48.325C58.5545 48.2675 58.5798 48.1882 58.5798 48.0882C58.5798 48.0055 58.5522 47.9354 58.4993 47.8779C58.4453 47.8205 58.3763 47.7917 58.2913 47.7917C58.2017 47.7917 58.1292 47.8193 58.0729 47.8745C58.0166 47.9296 57.989 48.0009 57.989 48.0882H57.9879ZM60.4749 46.8585C60.537 46.8585 60.591 46.8803 60.6347 46.9252C60.6783 46.9688 60.7013 47.0217 60.7013 47.0849C60.7013 47.1481 60.6795 47.201 60.6347 47.2447C60.5899 47.2883 60.5381 47.3113 60.4749 47.3113C60.4117 47.3113 60.3589 47.2895 60.3152 47.2447C60.2715 47.201 60.2485 47.147 60.2485 47.0849C60.2485 47.0229 60.2704 46.9688 60.3152 46.9252C60.3589 46.8815 60.4129 46.8585 60.4749 46.8585ZM60.275 49.1697V47.8228H60.0612V47.5044H60.6692V49.1697H60.275ZM61.8713 49.0628L62.0092 48.7525C62.1253 48.8456 62.2563 48.8927 62.4023 48.8927C62.5482 48.8927 62.6287 48.8387 62.6287 48.7307C62.6287 48.6675 62.6057 48.6146 62.5597 48.5744C62.5138 48.5342 62.4264 48.4859 62.2942 48.4307C62.0069 48.3112 61.8644 48.1446 61.8644 47.9296C61.8644 47.7848 61.9196 47.6733 62.0288 47.5929C62.1391 47.5124 62.2782 47.4722 62.4494 47.4722C62.6206 47.4722 62.785 47.5113 62.9367 47.5883L62.8252 47.8894C62.7402 47.817 62.6229 47.7814 62.4712 47.7814C62.3356 47.7814 62.2678 47.8354 62.2678 47.9434C62.2678 47.986 62.2896 48.025 62.3345 48.0595C62.3793 48.094 62.4735 48.14 62.6195 48.1974C62.7654 48.2549 62.8712 48.325 62.9355 48.4066C62.9999 48.4893 63.0321 48.5882 63.0321 48.7031C63.0321 48.8583 62.9746 48.9801 62.8597 49.0686C62.7459 49.1571 62.5908 49.2019 62.3931 49.2019C62.2827 49.2019 62.1931 49.1927 62.1264 49.1743C62.0598 49.1559 61.9736 49.1191 61.869 49.0628H61.8713ZM64.2515 47.817H64.0572V47.5056H64.2515V47.1677L64.6399 47.0252V47.5056H65.0985V47.817H64.6399V48.5468C64.6399 48.6663 64.6583 48.7502 64.6962 48.7996C64.7342 48.8491 64.7997 48.8732 64.8928 48.8732C64.9859 48.8732 65.0744 48.8479 65.1548 48.7962V49.1536C65.0652 49.1847 64.9353 49.2007 64.7686 49.2007C64.602 49.2007 64.4744 49.1536 64.3859 49.0605C64.2963 48.9663 64.2515 48.833 64.2515 48.6594V47.8159V47.817ZM66.6098 46.8585C66.6719 46.8585 66.7259 46.8803 66.7695 46.9252C66.8132 46.9688 66.8362 47.0217 66.8362 47.0849C66.8362 47.1481 66.8144 47.201 66.7695 47.2447C66.7247 47.2883 66.673 47.3113 66.6098 47.3113C66.5466 47.3113 66.4937 47.2895 66.45 47.2447C66.4064 47.201 66.3834 47.147 66.3834 47.0849C66.3834 47.0229 66.4052 46.9688 66.45 46.9252C66.4937 46.8815 66.5477 46.8585 66.6098 46.8585ZM66.4098 49.1697V47.8228H66.196V47.5044H66.804V49.1697H66.4098ZM69.1715 49.1697L68.6831 48.4158L68.4969 48.6135V49.1697H68.1085V46.8849L68.4969 46.7918V48.1457L69.0509 47.5056H69.5186L68.9566 48.1365L69.6336 49.1697H69.1715Z" fill="#E30707"/>
</svg>
